%TF.GenerationSoftware,KiCad,Pcbnew,(5.1.9)-1*%
%TF.CreationDate,2021-07-05T16:45:00-04:00*%
%TF.ProjectId,Amiga2MacFloppy,416d6967-6132-44d6-9163-466c6f707079,1.0*%
%TF.SameCoordinates,Original*%
%TF.FileFunction,Copper,L2,Bot*%
%TF.FilePolarity,Positive*%
%FSLAX46Y46*%
G04 Gerber Fmt 4.6, Leading zero omitted, Abs format (unit mm)*
G04 Created by KiCad (PCBNEW (5.1.9)-1) date 2021-07-05 16:45:00*
%MOMM*%
%LPD*%
G01*
G04 APERTURE LIST*
%TA.AperFunction,ComponentPad*%
%ADD10C,1.700000*%
%TD*%
%TA.AperFunction,SMDPad,CuDef*%
%ADD11R,3.480000X1.846667*%
%TD*%
%TA.AperFunction,ViaPad*%
%ADD12C,0.800000*%
%TD*%
%TA.AperFunction,Conductor*%
%ADD13C,0.250000*%
%TD*%
%TA.AperFunction,NonConductor*%
%ADD14C,0.254000*%
%TD*%
%TA.AperFunction,NonConductor*%
%ADD15C,0.100000*%
%TD*%
G04 APERTURE END LIST*
D10*
%TO.P,J2,20*%
%TO.N,PWM*%
X143428000Y-97333000D03*
%TO.P,J2,18*%
%TO.N,WR*%
X143428000Y-99873000D03*
%TO.P,J2,16*%
%TO.N,RD*%
X143428000Y-102413000D03*
%TO.P,J2,14*%
%TO.N,_ENABLE*%
X143428000Y-104953000D03*
%TO.P,J2,12*%
%TO.N,SEL*%
X143428000Y-107493000D03*
%TO.P,J2,10*%
%TO.N,_DKWE*%
X143428000Y-110033000D03*
%TO.P,J2,8*%
%TO.N,PH3*%
X143428000Y-112573000D03*
%TO.P,J2,6*%
%TO.N,PH2*%
X143428000Y-115113000D03*
%TO.P,J2,4*%
%TO.N,DIR*%
X143428000Y-117653000D03*
%TO.P,J2,2*%
%TO.N,PH0*%
X143428000Y-120193000D03*
%TO.P,J2,19*%
%TO.N,N/C*%
X145968000Y-97333000D03*
%TO.P,J2,17*%
X145968000Y-99873000D03*
%TO.P,J2,15*%
%TO.N,+12V*%
X145968000Y-102413000D03*
%TO.P,J2,13*%
X145968000Y-104953000D03*
%TO.P,J2,11*%
%TO.N,PWM*%
X145968000Y-107493000D03*
%TO.P,J2,9*%
%TO.N,N/C*%
X145968000Y-110033000D03*
%TO.P,J2,7*%
%TO.N,GND*%
X145968000Y-112573000D03*
%TO.P,J2,5*%
X145968000Y-115113000D03*
%TO.P,J2,3*%
X145968000Y-117653000D03*
%TO.P,J2,1*%
%TA.AperFunction,ComponentPad*%
G36*
G01*
X146818000Y-119593000D02*
X146818000Y-120793000D01*
G75*
G02*
X146568000Y-121043000I-250000J0D01*
G01*
X145368000Y-121043000D01*
G75*
G02*
X145118000Y-120793000I0J250000D01*
G01*
X145118000Y-119593000D01*
G75*
G02*
X145368000Y-119343000I250000J0D01*
G01*
X146568000Y-119343000D01*
G75*
G02*
X146818000Y-119593000I0J-250000D01*
G01*
G37*
%TD.AperFunction*%
%TD*%
D11*
%TO.P,J5,11*%
%TO.N,PH0*%
X158468000Y-119465000D03*
%TO.P,J5,12*%
%TO.N,DIR*%
X158468000Y-116695000D03*
%TO.P,J5,13*%
%TO.N,PH2*%
X158468000Y-113527000D03*
%TO.P,J5,14*%
%TO.N,PH3*%
X158468000Y-110982000D03*
%TO.P,J5,15*%
%TO.N,_DKWE*%
X158468000Y-108212000D03*
%TO.P,J5,16*%
%TO.N,SEL*%
X158468000Y-105442000D03*
%TO.P,J5,17*%
%TO.N,_ENABLE*%
X158468000Y-102672000D03*
%TO.P,J5,18*%
%TO.N,RD*%
X158468000Y-99902000D03*
%TO.P,J5,19*%
%TO.N,WR*%
X158468000Y-97132000D03*
%TD*%
D12*
%TO.N,RD*%
X147571600Y-96863000D03*
%TO.N,PH0*%
X142022900Y-118787900D03*
%TO.N,SEL*%
X151073700Y-96665800D03*
X154072900Y-103163000D03*
%TO.N,PH3*%
X147430800Y-110982000D03*
%TO.N,PH2*%
X147631300Y-121297700D03*
%TD*%
D13*
%TO.N,DIR*%
X156402700Y-116695000D02*
X151074700Y-122023000D01*
X151074700Y-122023000D02*
X143566800Y-122023000D01*
X143566800Y-122023000D02*
X142181700Y-120637900D01*
X142181700Y-120637900D02*
X142181700Y-119654900D01*
X142181700Y-119654900D02*
X143428000Y-118408600D01*
X143428000Y-118408600D02*
X143428000Y-117653000D01*
X158468000Y-116695000D02*
X156402700Y-116695000D01*
%TO.N,_DKWE*%
X158468000Y-108212000D02*
X156402700Y-108212000D01*
X156402700Y-108212000D02*
X155943000Y-108671700D01*
X155943000Y-108671700D02*
X144789300Y-108671700D01*
X144789300Y-108671700D02*
X143428000Y-110033000D01*
%TO.N,WR*%
X143428000Y-99873000D02*
X144698000Y-98603000D01*
X144698000Y-98603000D02*
X144698000Y-96928400D01*
X144698000Y-96928400D02*
X145506200Y-96120200D01*
X145506200Y-96120200D02*
X148995000Y-96120200D01*
X148995000Y-96120200D02*
X150276900Y-97402100D01*
X150276900Y-97402100D02*
X156132600Y-97402100D01*
X156132600Y-97402100D02*
X156402700Y-97132000D01*
X158468000Y-97132000D02*
X156402700Y-97132000D01*
%TO.N,RD*%
X158468000Y-99902000D02*
X150610600Y-99902000D01*
X150610600Y-99902000D02*
X147571600Y-96863000D01*
%TO.N,PWM*%
X145968000Y-107493000D02*
X144698000Y-106223000D01*
X144698000Y-106223000D02*
X143016700Y-106223000D01*
X143016700Y-106223000D02*
X141795100Y-105001400D01*
X141795100Y-105001400D02*
X141795100Y-98965900D01*
X141795100Y-98965900D02*
X143428000Y-97333000D01*
%TO.N,PH0*%
X158468000Y-119465000D02*
X156402700Y-119465000D01*
X156402700Y-119465000D02*
X153372800Y-122494900D01*
X153372800Y-122494900D02*
X143401800Y-122494900D01*
X143401800Y-122494900D02*
X141676900Y-120770000D01*
X141676900Y-120770000D02*
X141676900Y-119133900D01*
X141676900Y-119133900D02*
X142022900Y-118787900D01*
%TO.N,SEL*%
X151073700Y-96665800D02*
X150067000Y-95659100D01*
X150067000Y-95659100D02*
X143424200Y-95659100D01*
X143424200Y-95659100D02*
X141307100Y-97776200D01*
X141307100Y-97776200D02*
X141307100Y-105372100D01*
X141307100Y-105372100D02*
X143428000Y-107493000D01*
X158468000Y-105442000D02*
X156351900Y-105442000D01*
X156351900Y-105442000D02*
X154072900Y-103163000D01*
%TO.N,PH3*%
X158468000Y-110982000D02*
X147430800Y-110982000D01*
%TO.N,PH2*%
X156402700Y-113527000D02*
X148632000Y-121297700D01*
X148632000Y-121297700D02*
X147631300Y-121297700D01*
X158468000Y-113527000D02*
X156402700Y-113527000D01*
%TO.N,_ENABLE*%
X156402700Y-102672000D02*
X156168400Y-102437700D01*
X156168400Y-102437700D02*
X150518300Y-102437700D01*
X150518300Y-102437700D02*
X146739900Y-98659300D01*
X146739900Y-98659300D02*
X145515300Y-98659300D01*
X145515300Y-98659300D02*
X144698000Y-99476600D01*
X144698000Y-99476600D02*
X144698000Y-100269400D01*
X144698000Y-100269400D02*
X143824400Y-101143000D01*
X143824400Y-101143000D02*
X143034800Y-101143000D01*
X143034800Y-101143000D02*
X142245400Y-101932400D01*
X142245400Y-101932400D02*
X142245400Y-103770400D01*
X142245400Y-103770400D02*
X143428000Y-104953000D01*
X158468000Y-102672000D02*
X156402700Y-102672000D01*
%TD*%
D14*
X159807760Y-95570595D02*
X156728000Y-95570595D01*
X156603518Y-95582855D01*
X156483820Y-95619165D01*
X156373506Y-95678130D01*
X156276815Y-95757482D01*
X156197463Y-95854173D01*
X156138498Y-95964487D01*
X156102188Y-96084185D01*
X156089928Y-96208667D01*
X156089928Y-96437425D01*
X155978424Y-96497026D01*
X155862699Y-96591999D01*
X155838896Y-96621003D01*
X155817799Y-96642100D01*
X152108700Y-96642100D01*
X152108700Y-96563861D01*
X152068926Y-96363902D01*
X151990905Y-96175544D01*
X151877637Y-96006026D01*
X151733474Y-95861863D01*
X151563956Y-95748595D01*
X151375598Y-95670574D01*
X151175639Y-95630800D01*
X151113502Y-95630800D01*
X150630804Y-95148102D01*
X150607001Y-95119099D01*
X150491276Y-95024126D01*
X150359247Y-94953554D01*
X150215986Y-94910097D01*
X150104333Y-94899100D01*
X150104322Y-94899100D01*
X150067000Y-94895424D01*
X150029678Y-94899100D01*
X143461533Y-94899100D01*
X143424200Y-94895423D01*
X143386867Y-94899100D01*
X143275214Y-94910097D01*
X143131953Y-94953554D01*
X142999924Y-95024126D01*
X142884199Y-95119099D01*
X142860401Y-95148097D01*
X140796103Y-97212396D01*
X140767099Y-97236199D01*
X140730344Y-97280986D01*
X140672126Y-97351924D01*
X140609867Y-97468401D01*
X140601554Y-97483954D01*
X140558097Y-97627215D01*
X140547100Y-97738868D01*
X140547100Y-97738878D01*
X140543424Y-97776200D01*
X140547100Y-97813522D01*
X140547101Y-105334768D01*
X140543424Y-105372100D01*
X140547101Y-105409433D01*
X140558098Y-105521086D01*
X140571280Y-105564542D01*
X140601554Y-105664346D01*
X140672126Y-105796376D01*
X140729492Y-105866276D01*
X140767100Y-105912101D01*
X140796098Y-105935899D01*
X141986790Y-107126592D01*
X141943000Y-107346740D01*
X141943000Y-107639260D01*
X142000068Y-107926158D01*
X142112010Y-108196411D01*
X142274525Y-108439632D01*
X142481368Y-108646475D01*
X142655760Y-108763000D01*
X142481368Y-108879525D01*
X142274525Y-109086368D01*
X142112010Y-109329589D01*
X142000068Y-109599842D01*
X141943000Y-109886740D01*
X141943000Y-110179260D01*
X142000068Y-110466158D01*
X142112010Y-110736411D01*
X142274525Y-110979632D01*
X142481368Y-111186475D01*
X142655760Y-111303000D01*
X142481368Y-111419525D01*
X142274525Y-111626368D01*
X142112010Y-111869589D01*
X142000068Y-112139842D01*
X141943000Y-112426740D01*
X141943000Y-112719260D01*
X142000068Y-113006158D01*
X142112010Y-113276411D01*
X142274525Y-113519632D01*
X142481368Y-113726475D01*
X142655760Y-113843000D01*
X142481368Y-113959525D01*
X142274525Y-114166368D01*
X142112010Y-114409589D01*
X142000068Y-114679842D01*
X141943000Y-114966740D01*
X141943000Y-115259260D01*
X142000068Y-115546158D01*
X142112010Y-115816411D01*
X142274525Y-116059632D01*
X142481368Y-116266475D01*
X142655760Y-116383000D01*
X142481368Y-116499525D01*
X142274525Y-116706368D01*
X142112010Y-116949589D01*
X142000068Y-117219842D01*
X141943000Y-117506740D01*
X141943000Y-117752900D01*
X141920961Y-117752900D01*
X141721002Y-117792674D01*
X141532644Y-117870695D01*
X141363126Y-117983963D01*
X141218963Y-118128126D01*
X141105695Y-118297644D01*
X141027674Y-118486002D01*
X140987900Y-118685961D01*
X140987900Y-118810699D01*
X140971354Y-118841654D01*
X140946073Y-118924999D01*
X140932729Y-118968990D01*
X140927898Y-118984915D01*
X140913224Y-119133900D01*
X140916901Y-119171232D01*
X140916900Y-120732677D01*
X140913224Y-120770000D01*
X140916900Y-120807322D01*
X140916900Y-120807332D01*
X140927897Y-120918985D01*
X140954127Y-121005454D01*
X140971354Y-121062246D01*
X141041926Y-121194276D01*
X141081771Y-121242826D01*
X141136899Y-121310001D01*
X141165903Y-121333804D01*
X142838001Y-123005903D01*
X142861799Y-123034901D01*
X142890797Y-123058699D01*
X142977523Y-123129874D01*
X143109553Y-123200446D01*
X143252814Y-123243903D01*
X143364467Y-123254900D01*
X143364477Y-123254900D01*
X143401800Y-123258576D01*
X143439123Y-123254900D01*
X153335478Y-123254900D01*
X153372800Y-123258576D01*
X153410122Y-123254900D01*
X153410133Y-123254900D01*
X153521786Y-123243903D01*
X153665047Y-123200446D01*
X153797076Y-123129874D01*
X153912801Y-123034901D01*
X153936604Y-123005897D01*
X156198460Y-120744042D01*
X156276815Y-120839518D01*
X156373506Y-120918870D01*
X156483820Y-120977835D01*
X156603518Y-121014145D01*
X156728000Y-121026405D01*
X159807761Y-121026405D01*
X159807761Y-127532960D01*
X131127760Y-127532960D01*
X131127760Y-124972832D01*
X131233000Y-124972832D01*
X131233000Y-125413088D01*
X131318890Y-125844885D01*
X131487369Y-126251629D01*
X131731962Y-126617689D01*
X132043271Y-126928998D01*
X132409331Y-127173591D01*
X132816075Y-127342070D01*
X133247872Y-127427960D01*
X133688128Y-127427960D01*
X134119925Y-127342070D01*
X134526669Y-127173591D01*
X134892729Y-126928998D01*
X135204038Y-126617689D01*
X135448631Y-126251629D01*
X135617110Y-125844885D01*
X135703000Y-125413088D01*
X135703000Y-124972832D01*
X135617110Y-124541035D01*
X135448631Y-124134291D01*
X135204038Y-123768231D01*
X134892729Y-123456922D01*
X134526669Y-123212329D01*
X134119925Y-123043850D01*
X133688128Y-122957960D01*
X133247872Y-122957960D01*
X132816075Y-123043850D01*
X132409331Y-123212329D01*
X132043271Y-123456922D01*
X131731962Y-123768231D01*
X131487369Y-124134291D01*
X131318890Y-124541035D01*
X131233000Y-124972832D01*
X131127760Y-124972832D01*
X131127760Y-90972872D01*
X131233000Y-90972872D01*
X131233000Y-91413128D01*
X131318890Y-91844925D01*
X131487369Y-92251669D01*
X131731962Y-92617729D01*
X132043271Y-92929038D01*
X132409331Y-93173631D01*
X132816075Y-93342110D01*
X133247872Y-93428000D01*
X133688128Y-93428000D01*
X134119925Y-93342110D01*
X134526669Y-93173631D01*
X134892729Y-92929038D01*
X135204038Y-92617729D01*
X135448631Y-92251669D01*
X135617110Y-91844925D01*
X135703000Y-91413128D01*
X135703000Y-90972872D01*
X135617110Y-90541075D01*
X135448631Y-90134331D01*
X135204038Y-89768271D01*
X134892729Y-89456962D01*
X134526669Y-89212369D01*
X134119925Y-89043890D01*
X133688128Y-88958000D01*
X133247872Y-88958000D01*
X132816075Y-89043890D01*
X132409331Y-89212369D01*
X132043271Y-89456962D01*
X131731962Y-89768271D01*
X131487369Y-90134331D01*
X131318890Y-90541075D01*
X131233000Y-90972872D01*
X131127760Y-90972872D01*
X131127760Y-88852960D01*
X159807760Y-88852960D01*
X159807760Y-95570595D01*
%TA.AperFunction,NonConductor*%
D15*
G36*
X159807760Y-95570595D02*
G01*
X156728000Y-95570595D01*
X156603518Y-95582855D01*
X156483820Y-95619165D01*
X156373506Y-95678130D01*
X156276815Y-95757482D01*
X156197463Y-95854173D01*
X156138498Y-95964487D01*
X156102188Y-96084185D01*
X156089928Y-96208667D01*
X156089928Y-96437425D01*
X155978424Y-96497026D01*
X155862699Y-96591999D01*
X155838896Y-96621003D01*
X155817799Y-96642100D01*
X152108700Y-96642100D01*
X152108700Y-96563861D01*
X152068926Y-96363902D01*
X151990905Y-96175544D01*
X151877637Y-96006026D01*
X151733474Y-95861863D01*
X151563956Y-95748595D01*
X151375598Y-95670574D01*
X151175639Y-95630800D01*
X151113502Y-95630800D01*
X150630804Y-95148102D01*
X150607001Y-95119099D01*
X150491276Y-95024126D01*
X150359247Y-94953554D01*
X150215986Y-94910097D01*
X150104333Y-94899100D01*
X150104322Y-94899100D01*
X150067000Y-94895424D01*
X150029678Y-94899100D01*
X143461533Y-94899100D01*
X143424200Y-94895423D01*
X143386867Y-94899100D01*
X143275214Y-94910097D01*
X143131953Y-94953554D01*
X142999924Y-95024126D01*
X142884199Y-95119099D01*
X142860401Y-95148097D01*
X140796103Y-97212396D01*
X140767099Y-97236199D01*
X140730344Y-97280986D01*
X140672126Y-97351924D01*
X140609867Y-97468401D01*
X140601554Y-97483954D01*
X140558097Y-97627215D01*
X140547100Y-97738868D01*
X140547100Y-97738878D01*
X140543424Y-97776200D01*
X140547100Y-97813522D01*
X140547101Y-105334768D01*
X140543424Y-105372100D01*
X140547101Y-105409433D01*
X140558098Y-105521086D01*
X140571280Y-105564542D01*
X140601554Y-105664346D01*
X140672126Y-105796376D01*
X140729492Y-105866276D01*
X140767100Y-105912101D01*
X140796098Y-105935899D01*
X141986790Y-107126592D01*
X141943000Y-107346740D01*
X141943000Y-107639260D01*
X142000068Y-107926158D01*
X142112010Y-108196411D01*
X142274525Y-108439632D01*
X142481368Y-108646475D01*
X142655760Y-108763000D01*
X142481368Y-108879525D01*
X142274525Y-109086368D01*
X142112010Y-109329589D01*
X142000068Y-109599842D01*
X141943000Y-109886740D01*
X141943000Y-110179260D01*
X142000068Y-110466158D01*
X142112010Y-110736411D01*
X142274525Y-110979632D01*
X142481368Y-111186475D01*
X142655760Y-111303000D01*
X142481368Y-111419525D01*
X142274525Y-111626368D01*
X142112010Y-111869589D01*
X142000068Y-112139842D01*
X141943000Y-112426740D01*
X141943000Y-112719260D01*
X142000068Y-113006158D01*
X142112010Y-113276411D01*
X142274525Y-113519632D01*
X142481368Y-113726475D01*
X142655760Y-113843000D01*
X142481368Y-113959525D01*
X142274525Y-114166368D01*
X142112010Y-114409589D01*
X142000068Y-114679842D01*
X141943000Y-114966740D01*
X141943000Y-115259260D01*
X142000068Y-115546158D01*
X142112010Y-115816411D01*
X142274525Y-116059632D01*
X142481368Y-116266475D01*
X142655760Y-116383000D01*
X142481368Y-116499525D01*
X142274525Y-116706368D01*
X142112010Y-116949589D01*
X142000068Y-117219842D01*
X141943000Y-117506740D01*
X141943000Y-117752900D01*
X141920961Y-117752900D01*
X141721002Y-117792674D01*
X141532644Y-117870695D01*
X141363126Y-117983963D01*
X141218963Y-118128126D01*
X141105695Y-118297644D01*
X141027674Y-118486002D01*
X140987900Y-118685961D01*
X140987900Y-118810699D01*
X140971354Y-118841654D01*
X140946073Y-118924999D01*
X140932729Y-118968990D01*
X140927898Y-118984915D01*
X140913224Y-119133900D01*
X140916901Y-119171232D01*
X140916900Y-120732677D01*
X140913224Y-120770000D01*
X140916900Y-120807322D01*
X140916900Y-120807332D01*
X140927897Y-120918985D01*
X140954127Y-121005454D01*
X140971354Y-121062246D01*
X141041926Y-121194276D01*
X141081771Y-121242826D01*
X141136899Y-121310001D01*
X141165903Y-121333804D01*
X142838001Y-123005903D01*
X142861799Y-123034901D01*
X142890797Y-123058699D01*
X142977523Y-123129874D01*
X143109553Y-123200446D01*
X143252814Y-123243903D01*
X143364467Y-123254900D01*
X143364477Y-123254900D01*
X143401800Y-123258576D01*
X143439123Y-123254900D01*
X153335478Y-123254900D01*
X153372800Y-123258576D01*
X153410122Y-123254900D01*
X153410133Y-123254900D01*
X153521786Y-123243903D01*
X153665047Y-123200446D01*
X153797076Y-123129874D01*
X153912801Y-123034901D01*
X153936604Y-123005897D01*
X156198460Y-120744042D01*
X156276815Y-120839518D01*
X156373506Y-120918870D01*
X156483820Y-120977835D01*
X156603518Y-121014145D01*
X156728000Y-121026405D01*
X159807761Y-121026405D01*
X159807761Y-127532960D01*
X131127760Y-127532960D01*
X131127760Y-124972832D01*
X131233000Y-124972832D01*
X131233000Y-125413088D01*
X131318890Y-125844885D01*
X131487369Y-126251629D01*
X131731962Y-126617689D01*
X132043271Y-126928998D01*
X132409331Y-127173591D01*
X132816075Y-127342070D01*
X133247872Y-127427960D01*
X133688128Y-127427960D01*
X134119925Y-127342070D01*
X134526669Y-127173591D01*
X134892729Y-126928998D01*
X135204038Y-126617689D01*
X135448631Y-126251629D01*
X135617110Y-125844885D01*
X135703000Y-125413088D01*
X135703000Y-124972832D01*
X135617110Y-124541035D01*
X135448631Y-124134291D01*
X135204038Y-123768231D01*
X134892729Y-123456922D01*
X134526669Y-123212329D01*
X134119925Y-123043850D01*
X133688128Y-122957960D01*
X133247872Y-122957960D01*
X132816075Y-123043850D01*
X132409331Y-123212329D01*
X132043271Y-123456922D01*
X131731962Y-123768231D01*
X131487369Y-124134291D01*
X131318890Y-124541035D01*
X131233000Y-124972832D01*
X131127760Y-124972832D01*
X131127760Y-90972872D01*
X131233000Y-90972872D01*
X131233000Y-91413128D01*
X131318890Y-91844925D01*
X131487369Y-92251669D01*
X131731962Y-92617729D01*
X132043271Y-92929038D01*
X132409331Y-93173631D01*
X132816075Y-93342110D01*
X133247872Y-93428000D01*
X133688128Y-93428000D01*
X134119925Y-93342110D01*
X134526669Y-93173631D01*
X134892729Y-92929038D01*
X135204038Y-92617729D01*
X135448631Y-92251669D01*
X135617110Y-91844925D01*
X135703000Y-91413128D01*
X135703000Y-90972872D01*
X135617110Y-90541075D01*
X135448631Y-90134331D01*
X135204038Y-89768271D01*
X134892729Y-89456962D01*
X134526669Y-89212369D01*
X134119925Y-89043890D01*
X133688128Y-88958000D01*
X133247872Y-88958000D01*
X132816075Y-89043890D01*
X132409331Y-89212369D01*
X132043271Y-89456962D01*
X131731962Y-89768271D01*
X131487369Y-90134331D01*
X131318890Y-90541075D01*
X131233000Y-90972872D01*
X131127760Y-90972872D01*
X131127760Y-88852960D01*
X159807760Y-88852960D01*
X159807760Y-95570595D01*
G37*
%TD.AperFunction*%
D14*
X156276815Y-118069518D02*
X156289587Y-118080000D01*
X156276815Y-118090482D01*
X156197463Y-118187173D01*
X156138498Y-118297487D01*
X156102188Y-118417185D01*
X156089928Y-118541667D01*
X156089928Y-118770425D01*
X155978424Y-118830026D01*
X155862699Y-118924999D01*
X155838901Y-118953997D01*
X153057999Y-121734900D01*
X152437601Y-121734900D01*
X156198460Y-117974042D01*
X156276815Y-118069518D01*
%TA.AperFunction,NonConductor*%
D15*
G36*
X156276815Y-118069518D02*
G01*
X156289587Y-118080000D01*
X156276815Y-118090482D01*
X156197463Y-118187173D01*
X156138498Y-118297487D01*
X156102188Y-118417185D01*
X156089928Y-118541667D01*
X156089928Y-118770425D01*
X155978424Y-118830026D01*
X155862699Y-118924999D01*
X155838901Y-118953997D01*
X153057999Y-121734900D01*
X152437601Y-121734900D01*
X156198460Y-117974042D01*
X156276815Y-118069518D01*
G37*
%TD.AperFunction*%
D14*
X156276815Y-114901518D02*
X156373506Y-114980870D01*
X156483820Y-115039835D01*
X156603518Y-115076145D01*
X156728000Y-115088405D01*
X159807761Y-115088405D01*
X159807761Y-115133595D01*
X156728000Y-115133595D01*
X156603518Y-115145855D01*
X156483820Y-115182165D01*
X156373506Y-115241130D01*
X156276815Y-115320482D01*
X156197463Y-115417173D01*
X156138498Y-115527487D01*
X156102188Y-115647185D01*
X156089928Y-115771667D01*
X156089928Y-116000425D01*
X155978424Y-116060026D01*
X155862699Y-116154999D01*
X155838901Y-116183997D01*
X150759899Y-121263000D01*
X149741501Y-121263000D01*
X156198460Y-114806042D01*
X156276815Y-114901518D01*
%TA.AperFunction,NonConductor*%
D15*
G36*
X156276815Y-114901518D02*
G01*
X156373506Y-114980870D01*
X156483820Y-115039835D01*
X156603518Y-115076145D01*
X156728000Y-115088405D01*
X159807761Y-115088405D01*
X159807761Y-115133595D01*
X156728000Y-115133595D01*
X156603518Y-115145855D01*
X156483820Y-115182165D01*
X156373506Y-115241130D01*
X156276815Y-115320482D01*
X156197463Y-115417173D01*
X156138498Y-115527487D01*
X156102188Y-115647185D01*
X156089928Y-115771667D01*
X156089928Y-116000425D01*
X155978424Y-116060026D01*
X155862699Y-116154999D01*
X155838901Y-116183997D01*
X150759899Y-121263000D01*
X149741501Y-121263000D01*
X156198460Y-114806042D01*
X156276815Y-114901518D01*
G37*
%TD.AperFunction*%
D14*
X144617095Y-121263000D02*
X144458107Y-121263000D01*
X144561715Y-121159392D01*
X144617095Y-121263000D01*
%TA.AperFunction,NonConductor*%
D15*
G36*
X144617095Y-121263000D02*
G01*
X144458107Y-121263000D01*
X144561715Y-121159392D01*
X144617095Y-121263000D01*
G37*
%TD.AperFunction*%
D14*
X156089928Y-111905333D02*
X156102188Y-112029815D01*
X156138498Y-112149513D01*
X156194616Y-112254500D01*
X156138498Y-112359487D01*
X156102188Y-112479185D01*
X156089928Y-112603667D01*
X156089928Y-112832425D01*
X155978424Y-112892026D01*
X155862699Y-112986999D01*
X155838901Y-113015997D01*
X148326105Y-120528794D01*
X148291074Y-120493763D01*
X148121556Y-120380495D01*
X147933198Y-120302474D01*
X147733239Y-120262700D01*
X147529361Y-120262700D01*
X147456072Y-120277278D01*
X147456072Y-119593000D01*
X147439008Y-119419746D01*
X147388472Y-119253150D01*
X147306405Y-119099614D01*
X147195962Y-118965038D01*
X147061386Y-118854595D01*
X146934392Y-118786715D01*
X147121475Y-118599632D01*
X147283990Y-118356411D01*
X147395932Y-118086158D01*
X147453000Y-117799260D01*
X147453000Y-117506740D01*
X147395932Y-117219842D01*
X147283990Y-116949589D01*
X147121475Y-116706368D01*
X146914632Y-116499525D01*
X146740240Y-116383000D01*
X146914632Y-116266475D01*
X147121475Y-116059632D01*
X147283990Y-115816411D01*
X147395932Y-115546158D01*
X147453000Y-115259260D01*
X147453000Y-114966740D01*
X147395932Y-114679842D01*
X147283990Y-114409589D01*
X147121475Y-114166368D01*
X146914632Y-113959525D01*
X146740240Y-113843000D01*
X146914632Y-113726475D01*
X147121475Y-113519632D01*
X147283990Y-113276411D01*
X147395932Y-113006158D01*
X147453000Y-112719260D01*
X147453000Y-112426740D01*
X147395932Y-112139842D01*
X147345049Y-112017000D01*
X147532739Y-112017000D01*
X147732698Y-111977226D01*
X147921056Y-111899205D01*
X148090574Y-111785937D01*
X148134511Y-111742000D01*
X156089928Y-111742000D01*
X156089928Y-111905333D01*
%TA.AperFunction,NonConductor*%
D15*
G36*
X156089928Y-111905333D02*
G01*
X156102188Y-112029815D01*
X156138498Y-112149513D01*
X156194616Y-112254500D01*
X156138498Y-112359487D01*
X156102188Y-112479185D01*
X156089928Y-112603667D01*
X156089928Y-112832425D01*
X155978424Y-112892026D01*
X155862699Y-112986999D01*
X155838901Y-113015997D01*
X148326105Y-120528794D01*
X148291074Y-120493763D01*
X148121556Y-120380495D01*
X147933198Y-120302474D01*
X147733239Y-120262700D01*
X147529361Y-120262700D01*
X147456072Y-120277278D01*
X147456072Y-119593000D01*
X147439008Y-119419746D01*
X147388472Y-119253150D01*
X147306405Y-119099614D01*
X147195962Y-118965038D01*
X147061386Y-118854595D01*
X146934392Y-118786715D01*
X147121475Y-118599632D01*
X147283990Y-118356411D01*
X147395932Y-118086158D01*
X147453000Y-117799260D01*
X147453000Y-117506740D01*
X147395932Y-117219842D01*
X147283990Y-116949589D01*
X147121475Y-116706368D01*
X146914632Y-116499525D01*
X146740240Y-116383000D01*
X146914632Y-116266475D01*
X147121475Y-116059632D01*
X147283990Y-115816411D01*
X147395932Y-115546158D01*
X147453000Y-115259260D01*
X147453000Y-114966740D01*
X147395932Y-114679842D01*
X147283990Y-114409589D01*
X147121475Y-114166368D01*
X146914632Y-113959525D01*
X146740240Y-113843000D01*
X146914632Y-113726475D01*
X147121475Y-113519632D01*
X147283990Y-113276411D01*
X147395932Y-113006158D01*
X147453000Y-112719260D01*
X147453000Y-112426740D01*
X147395932Y-112139842D01*
X147345049Y-112017000D01*
X147532739Y-112017000D01*
X147732698Y-111977226D01*
X147921056Y-111899205D01*
X148090574Y-111785937D01*
X148134511Y-111742000D01*
X156089928Y-111742000D01*
X156089928Y-111905333D01*
G37*
%TD.AperFunction*%
D14*
X144814525Y-118599632D02*
X145001608Y-118786715D01*
X144874614Y-118854595D01*
X144740038Y-118965038D01*
X144629595Y-119099614D01*
X144561715Y-119226608D01*
X144374632Y-119039525D01*
X144200240Y-118923000D01*
X144374632Y-118806475D01*
X144581475Y-118599632D01*
X144698000Y-118425240D01*
X144814525Y-118599632D01*
%TA.AperFunction,NonConductor*%
D15*
G36*
X144814525Y-118599632D02*
G01*
X145001608Y-118786715D01*
X144874614Y-118854595D01*
X144740038Y-118965038D01*
X144629595Y-119099614D01*
X144561715Y-119226608D01*
X144374632Y-119039525D01*
X144200240Y-118923000D01*
X144374632Y-118806475D01*
X144581475Y-118599632D01*
X144698000Y-118425240D01*
X144814525Y-118599632D01*
G37*
%TD.AperFunction*%
D14*
X144814525Y-116059632D02*
X145021368Y-116266475D01*
X145195760Y-116383000D01*
X145021368Y-116499525D01*
X144814525Y-116706368D01*
X144698000Y-116880760D01*
X144581475Y-116706368D01*
X144374632Y-116499525D01*
X144200240Y-116383000D01*
X144374632Y-116266475D01*
X144581475Y-116059632D01*
X144698000Y-115885240D01*
X144814525Y-116059632D01*
%TA.AperFunction,NonConductor*%
D15*
G36*
X144814525Y-116059632D02*
G01*
X145021368Y-116266475D01*
X145195760Y-116383000D01*
X145021368Y-116499525D01*
X144814525Y-116706368D01*
X144698000Y-116880760D01*
X144581475Y-116706368D01*
X144374632Y-116499525D01*
X144200240Y-116383000D01*
X144374632Y-116266475D01*
X144581475Y-116059632D01*
X144698000Y-115885240D01*
X144814525Y-116059632D01*
G37*
%TD.AperFunction*%
D14*
X144814525Y-113519632D02*
X145021368Y-113726475D01*
X145195760Y-113843000D01*
X145021368Y-113959525D01*
X144814525Y-114166368D01*
X144698000Y-114340760D01*
X144581475Y-114166368D01*
X144374632Y-113959525D01*
X144200240Y-113843000D01*
X144374632Y-113726475D01*
X144581475Y-113519632D01*
X144698000Y-113345240D01*
X144814525Y-113519632D01*
%TA.AperFunction,NonConductor*%
D15*
G36*
X144814525Y-113519632D02*
G01*
X145021368Y-113726475D01*
X145195760Y-113843000D01*
X145021368Y-113959525D01*
X144814525Y-114166368D01*
X144698000Y-114340760D01*
X144581475Y-114166368D01*
X144374632Y-113959525D01*
X144200240Y-113843000D01*
X144374632Y-113726475D01*
X144581475Y-113519632D01*
X144698000Y-113345240D01*
X144814525Y-113519632D01*
G37*
%TD.AperFunction*%
D14*
X144814525Y-110979632D02*
X145021368Y-111186475D01*
X145195760Y-111303000D01*
X145021368Y-111419525D01*
X144814525Y-111626368D01*
X144698000Y-111800760D01*
X144581475Y-111626368D01*
X144374632Y-111419525D01*
X144200240Y-111303000D01*
X144374632Y-111186475D01*
X144581475Y-110979632D01*
X144698000Y-110805240D01*
X144814525Y-110979632D01*
%TA.AperFunction,NonConductor*%
D15*
G36*
X144814525Y-110979632D02*
G01*
X145021368Y-111186475D01*
X145195760Y-111303000D01*
X145021368Y-111419525D01*
X144814525Y-111626368D01*
X144698000Y-111800760D01*
X144581475Y-111626368D01*
X144374632Y-111419525D01*
X144200240Y-111303000D01*
X144374632Y-111186475D01*
X144581475Y-110979632D01*
X144698000Y-110805240D01*
X144814525Y-110979632D01*
G37*
%TD.AperFunction*%
D14*
X156197463Y-109489827D02*
X156276815Y-109586518D01*
X156289587Y-109597000D01*
X156276815Y-109607482D01*
X156197463Y-109704173D01*
X156138498Y-109814487D01*
X156102188Y-109934185D01*
X156089928Y-110058667D01*
X156089928Y-110222000D01*
X148134511Y-110222000D01*
X148090574Y-110178063D01*
X147921056Y-110064795D01*
X147732698Y-109986774D01*
X147532739Y-109947000D01*
X147453000Y-109947000D01*
X147453000Y-109886740D01*
X147395932Y-109599842D01*
X147326286Y-109431700D01*
X155905678Y-109431700D01*
X155943000Y-109435376D01*
X155980322Y-109431700D01*
X155980333Y-109431700D01*
X156091986Y-109420703D01*
X156150954Y-109402816D01*
X156197463Y-109489827D01*
%TA.AperFunction,NonConductor*%
D15*
G36*
X156197463Y-109489827D02*
G01*
X156276815Y-109586518D01*
X156289587Y-109597000D01*
X156276815Y-109607482D01*
X156197463Y-109704173D01*
X156138498Y-109814487D01*
X156102188Y-109934185D01*
X156089928Y-110058667D01*
X156089928Y-110222000D01*
X148134511Y-110222000D01*
X148090574Y-110178063D01*
X147921056Y-110064795D01*
X147732698Y-109986774D01*
X147532739Y-109947000D01*
X147453000Y-109947000D01*
X147453000Y-109886740D01*
X147395932Y-109599842D01*
X147326286Y-109431700D01*
X155905678Y-109431700D01*
X155943000Y-109435376D01*
X155980322Y-109431700D01*
X155980333Y-109431700D01*
X156091986Y-109420703D01*
X156150954Y-109402816D01*
X156197463Y-109489827D01*
G37*
%TD.AperFunction*%
D14*
X149954500Y-102948702D02*
X149978299Y-102977701D01*
X150007297Y-103001499D01*
X150094024Y-103072674D01*
X150226053Y-103143246D01*
X150369314Y-103186703D01*
X150518300Y-103201377D01*
X150555633Y-103197700D01*
X153037900Y-103197700D01*
X153037900Y-103264939D01*
X153077674Y-103464898D01*
X153155695Y-103653256D01*
X153268963Y-103822774D01*
X153413126Y-103966937D01*
X153582644Y-104080205D01*
X153771002Y-104158226D01*
X153970961Y-104198000D01*
X154033099Y-104198000D01*
X155788101Y-105953003D01*
X155811899Y-105982001D01*
X155927624Y-106076974D01*
X156059653Y-106147546D01*
X156089928Y-106156730D01*
X156089928Y-106365333D01*
X156102188Y-106489815D01*
X156138498Y-106609513D01*
X156197463Y-106719827D01*
X156276815Y-106816518D01*
X156289587Y-106827000D01*
X156276815Y-106837482D01*
X156197463Y-106934173D01*
X156138498Y-107044487D01*
X156102188Y-107164185D01*
X156089928Y-107288667D01*
X156089928Y-107517425D01*
X155978423Y-107577026D01*
X155935846Y-107611969D01*
X155862699Y-107671999D01*
X155838896Y-107701003D01*
X155628199Y-107911700D01*
X147398808Y-107911700D01*
X147453000Y-107639260D01*
X147453000Y-107346740D01*
X147395932Y-107059842D01*
X147283990Y-106789589D01*
X147121475Y-106546368D01*
X146914632Y-106339525D01*
X146740240Y-106223000D01*
X146914632Y-106106475D01*
X147121475Y-105899632D01*
X147283990Y-105656411D01*
X147395932Y-105386158D01*
X147453000Y-105099260D01*
X147453000Y-104806740D01*
X147395932Y-104519842D01*
X147283990Y-104249589D01*
X147121475Y-104006368D01*
X146914632Y-103799525D01*
X146740240Y-103683000D01*
X146914632Y-103566475D01*
X147121475Y-103359632D01*
X147283990Y-103116411D01*
X147395932Y-102846158D01*
X147453000Y-102559260D01*
X147453000Y-102266740D01*
X147395932Y-101979842D01*
X147283990Y-101709589D01*
X147121475Y-101466368D01*
X146914632Y-101259525D01*
X146740240Y-101143000D01*
X146914632Y-101026475D01*
X147121475Y-100819632D01*
X147283990Y-100576411D01*
X147371336Y-100365538D01*
X149954500Y-102948702D01*
%TA.AperFunction,NonConductor*%
D15*
G36*
X149954500Y-102948702D02*
G01*
X149978299Y-102977701D01*
X150007297Y-103001499D01*
X150094024Y-103072674D01*
X150226053Y-103143246D01*
X150369314Y-103186703D01*
X150518300Y-103201377D01*
X150555633Y-103197700D01*
X153037900Y-103197700D01*
X153037900Y-103264939D01*
X153077674Y-103464898D01*
X153155695Y-103653256D01*
X153268963Y-103822774D01*
X153413126Y-103966937D01*
X153582644Y-104080205D01*
X153771002Y-104158226D01*
X153970961Y-104198000D01*
X154033099Y-104198000D01*
X155788101Y-105953003D01*
X155811899Y-105982001D01*
X155927624Y-106076974D01*
X156059653Y-106147546D01*
X156089928Y-106156730D01*
X156089928Y-106365333D01*
X156102188Y-106489815D01*
X156138498Y-106609513D01*
X156197463Y-106719827D01*
X156276815Y-106816518D01*
X156289587Y-106827000D01*
X156276815Y-106837482D01*
X156197463Y-106934173D01*
X156138498Y-107044487D01*
X156102188Y-107164185D01*
X156089928Y-107288667D01*
X156089928Y-107517425D01*
X155978423Y-107577026D01*
X155935846Y-107611969D01*
X155862699Y-107671999D01*
X155838896Y-107701003D01*
X155628199Y-107911700D01*
X147398808Y-107911700D01*
X147453000Y-107639260D01*
X147453000Y-107346740D01*
X147395932Y-107059842D01*
X147283990Y-106789589D01*
X147121475Y-106546368D01*
X146914632Y-106339525D01*
X146740240Y-106223000D01*
X146914632Y-106106475D01*
X147121475Y-105899632D01*
X147283990Y-105656411D01*
X147395932Y-105386158D01*
X147453000Y-105099260D01*
X147453000Y-104806740D01*
X147395932Y-104519842D01*
X147283990Y-104249589D01*
X147121475Y-104006368D01*
X146914632Y-103799525D01*
X146740240Y-103683000D01*
X146914632Y-103566475D01*
X147121475Y-103359632D01*
X147283990Y-103116411D01*
X147395932Y-102846158D01*
X147453000Y-102559260D01*
X147453000Y-102266740D01*
X147395932Y-101979842D01*
X147283990Y-101709589D01*
X147121475Y-101466368D01*
X146914632Y-101259525D01*
X146740240Y-101143000D01*
X146914632Y-101026475D01*
X147121475Y-100819632D01*
X147283990Y-100576411D01*
X147371336Y-100365538D01*
X149954500Y-102948702D01*
G37*
%TD.AperFunction*%
D14*
X155862699Y-103212001D02*
X155978424Y-103306974D01*
X156089928Y-103366575D01*
X156089928Y-103595333D01*
X156102188Y-103719815D01*
X156138498Y-103839513D01*
X156197463Y-103949827D01*
X156276815Y-104046518D01*
X156289587Y-104057000D01*
X156276815Y-104067482D01*
X156197463Y-104164173D01*
X156180538Y-104195837D01*
X155182401Y-103197700D01*
X155850962Y-103197700D01*
X155862699Y-103212001D01*
%TA.AperFunction,NonConductor*%
D15*
G36*
X155862699Y-103212001D02*
G01*
X155978424Y-103306974D01*
X156089928Y-103366575D01*
X156089928Y-103595333D01*
X156102188Y-103719815D01*
X156138498Y-103839513D01*
X156197463Y-103949827D01*
X156276815Y-104046518D01*
X156289587Y-104057000D01*
X156276815Y-104067482D01*
X156197463Y-104164173D01*
X156180538Y-104195837D01*
X155182401Y-103197700D01*
X155850962Y-103197700D01*
X155862699Y-103212001D01*
G37*
%TD.AperFunction*%
D14*
X144814525Y-103359632D02*
X145021368Y-103566475D01*
X145195760Y-103683000D01*
X145021368Y-103799525D01*
X144814525Y-104006368D01*
X144698000Y-104180760D01*
X144581475Y-104006368D01*
X144374632Y-103799525D01*
X144200240Y-103683000D01*
X144374632Y-103566475D01*
X144581475Y-103359632D01*
X144698000Y-103185240D01*
X144814525Y-103359632D01*
%TA.AperFunction,NonConductor*%
D15*
G36*
X144814525Y-103359632D02*
G01*
X145021368Y-103566475D01*
X145195760Y-103683000D01*
X145021368Y-103799525D01*
X144814525Y-104006368D01*
X144698000Y-104180760D01*
X144581475Y-104006368D01*
X144374632Y-103799525D01*
X144200240Y-103683000D01*
X144374632Y-103566475D01*
X144581475Y-103359632D01*
X144698000Y-103185240D01*
X144814525Y-103359632D01*
G37*
%TD.AperFunction*%
D14*
X147469661Y-97898000D02*
X147531799Y-97898000D01*
X150046799Y-100413001D01*
X150070599Y-100442001D01*
X150099597Y-100465799D01*
X150186323Y-100536974D01*
X150265324Y-100579201D01*
X150318353Y-100607546D01*
X150461614Y-100651003D01*
X150573267Y-100662000D01*
X150573277Y-100662000D01*
X150610599Y-100665676D01*
X150647922Y-100662000D01*
X156089928Y-100662000D01*
X156089928Y-100825333D01*
X156102188Y-100949815D01*
X156138498Y-101069513D01*
X156197463Y-101179827D01*
X156276815Y-101276518D01*
X156289587Y-101287000D01*
X156276815Y-101297482D01*
X156197463Y-101394173D01*
X156138498Y-101504487D01*
X156102188Y-101624185D01*
X156096917Y-101677700D01*
X150833102Y-101677700D01*
X147303704Y-98148303D01*
X147279901Y-98119299D01*
X147246772Y-98092111D01*
X147283990Y-98036411D01*
X147351091Y-97874415D01*
X147469661Y-97898000D01*
%TA.AperFunction,NonConductor*%
D15*
G36*
X147469661Y-97898000D02*
G01*
X147531799Y-97898000D01*
X150046799Y-100413001D01*
X150070599Y-100442001D01*
X150099597Y-100465799D01*
X150186323Y-100536974D01*
X150265324Y-100579201D01*
X150318353Y-100607546D01*
X150461614Y-100651003D01*
X150573267Y-100662000D01*
X150573277Y-100662000D01*
X150610599Y-100665676D01*
X150647922Y-100662000D01*
X156089928Y-100662000D01*
X156089928Y-100825333D01*
X156102188Y-100949815D01*
X156138498Y-101069513D01*
X156197463Y-101179827D01*
X156276815Y-101276518D01*
X156289587Y-101287000D01*
X156276815Y-101297482D01*
X156197463Y-101394173D01*
X156138498Y-101504487D01*
X156102188Y-101624185D01*
X156096917Y-101677700D01*
X150833102Y-101677700D01*
X147303704Y-98148303D01*
X147279901Y-98119299D01*
X147246772Y-98092111D01*
X147283990Y-98036411D01*
X147351091Y-97874415D01*
X147469661Y-97898000D01*
G37*
%TD.AperFunction*%
D14*
X145021368Y-101026475D02*
X145195760Y-101143000D01*
X145021368Y-101259525D01*
X144814525Y-101466368D01*
X144698000Y-101640760D01*
X144581475Y-101466368D01*
X144578654Y-101463547D01*
X145018547Y-101023654D01*
X145021368Y-101026475D01*
%TA.AperFunction,NonConductor*%
D15*
G36*
X145021368Y-101026475D02*
G01*
X145195760Y-101143000D01*
X145021368Y-101259525D01*
X144814525Y-101466368D01*
X144698000Y-101640760D01*
X144581475Y-101466368D01*
X144578654Y-101463547D01*
X145018547Y-101023654D01*
X145021368Y-101026475D01*
G37*
%TD.AperFunction*%
D14*
X149713101Y-97913103D02*
X149736899Y-97942101D01*
X149852624Y-98037074D01*
X149984653Y-98107646D01*
X150127914Y-98151103D01*
X150239567Y-98162100D01*
X150239576Y-98162100D01*
X150276899Y-98165776D01*
X150314222Y-98162100D01*
X156095278Y-98162100D01*
X156100494Y-98162614D01*
X156102188Y-98179815D01*
X156138498Y-98299513D01*
X156197463Y-98409827D01*
X156276815Y-98506518D01*
X156289587Y-98517000D01*
X156276815Y-98527482D01*
X156197463Y-98624173D01*
X156138498Y-98734487D01*
X156102188Y-98854185D01*
X156089928Y-98978667D01*
X156089928Y-99142000D01*
X150925402Y-99142000D01*
X148663601Y-96880200D01*
X148680199Y-96880200D01*
X149713101Y-97913103D01*
%TA.AperFunction,NonConductor*%
D15*
G36*
X149713101Y-97913103D02*
G01*
X149736899Y-97942101D01*
X149852624Y-98037074D01*
X149984653Y-98107646D01*
X150127914Y-98151103D01*
X150239567Y-98162100D01*
X150239576Y-98162100D01*
X150276899Y-98165776D01*
X150314222Y-98162100D01*
X156095278Y-98162100D01*
X156100494Y-98162614D01*
X156102188Y-98179815D01*
X156138498Y-98299513D01*
X156197463Y-98409827D01*
X156276815Y-98506518D01*
X156289587Y-98517000D01*
X156276815Y-98527482D01*
X156197463Y-98624173D01*
X156138498Y-98734487D01*
X156102188Y-98854185D01*
X156089928Y-98978667D01*
X156089928Y-99142000D01*
X150925402Y-99142000D01*
X148663601Y-96880200D01*
X148680199Y-96880200D01*
X149713101Y-97913103D01*
G37*
%TD.AperFunction*%
M02*
