%TF.GenerationSoftware,KiCad,Pcbnew,(5.1.9)-1*%
%TF.CreationDate,2021-07-27T13:58:59-04:00*%
%TF.ProjectId,Amiga2MacFloppy,416d6967-6132-44d6-9163-466c6f707079,1.0*%
%TF.SameCoordinates,Original*%
%TF.FileFunction,Copper,L2,Bot*%
%TF.FilePolarity,Positive*%
%FSLAX46Y46*%
G04 Gerber Fmt 4.6, Leading zero omitted, Abs format (unit mm)*
G04 Created by KiCad (PCBNEW (5.1.9)-1) date 2021-07-27 13:58:59*
%MOMM*%
%LPD*%
G01*
G04 APERTURE LIST*
%TA.AperFunction,SMDPad,CuDef*%
%ADD10R,3.480000X1.846667*%
%TD*%
%TA.AperFunction,ComponentPad*%
%ADD11C,1.700000*%
%TD*%
%TA.AperFunction,ViaPad*%
%ADD12C,0.800000*%
%TD*%
%TA.AperFunction,Conductor*%
%ADD13C,0.250000*%
%TD*%
%TA.AperFunction,NonConductor*%
%ADD14C,0.254000*%
%TD*%
%TA.AperFunction,NonConductor*%
%ADD15C,0.100000*%
%TD*%
G04 APERTURE END LIST*
D10*
%TO.P,J1 DB19F,11*%
%TO.N,PH0*%
X158268000Y-97271000D03*
%TO.P,J1 DB19F,12*%
%TO.N,DIR*%
X158268000Y-99945000D03*
%TO.P,J1 DB19F,13*%
%TO.N,PH2*%
X158268000Y-102605000D03*
%TO.P,J1 DB19F,14*%
%TO.N,PH3*%
X158268000Y-105404000D03*
%TO.P,J1 DB19F,15*%
%TO.N,_DKWE*%
X158268000Y-108174000D03*
%TO.P,J1 DB19F,16*%
%TO.N,SEL*%
X158268000Y-110944000D03*
%TO.P,J1 DB19F,17*%
%TO.N,_ENABLE*%
X158268000Y-113714000D03*
%TO.P,J1 DB19F,18*%
%TO.N,RD*%
X158268000Y-116484000D03*
%TO.P,J1 DB19F,19*%
%TO.N,WR*%
X158268000Y-119254000D03*
%TD*%
D11*
%TO.P,J2 IDC 2x10,20*%
%TO.N,PWM*%
X145508000Y-119753000D03*
%TO.P,J2 IDC 2x10,18*%
%TO.N,WR*%
X145508000Y-117213000D03*
%TO.P,J2 IDC 2x10,16*%
%TO.N,RD*%
X145508000Y-114673000D03*
%TO.P,J2 IDC 2x10,14*%
%TO.N,_ENABLE*%
X145508000Y-112133000D03*
%TO.P,J2 IDC 2x10,12*%
%TO.N,SEL*%
X145508000Y-109593000D03*
%TO.P,J2 IDC 2x10,10*%
%TO.N,_DKWE*%
X145508000Y-107053000D03*
%TO.P,J2 IDC 2x10,8*%
%TO.N,PH3*%
X145508000Y-104513000D03*
%TO.P,J2 IDC 2x10,6*%
%TO.N,PH2*%
X145508000Y-101973000D03*
%TO.P,J2 IDC 2x10,4*%
%TO.N,DIR*%
X145508000Y-99433000D03*
%TO.P,J2 IDC 2x10,2*%
%TO.N,PH0*%
X145508000Y-96893000D03*
%TO.P,J2 IDC 2x10,19*%
%TO.N,N/C*%
X142968000Y-119753000D03*
%TO.P,J2 IDC 2x10,17*%
X142968000Y-117213000D03*
%TO.P,J2 IDC 2x10,15*%
%TO.N,+12V*%
X142968000Y-114673000D03*
%TO.P,J2 IDC 2x10,13*%
X142968000Y-112133000D03*
%TO.P,J2 IDC 2x10,11*%
%TO.N,+5V*%
X142968000Y-109593000D03*
%TO.P,J2 IDC 2x10,9*%
%TO.N,N/C*%
X142968000Y-107053000D03*
%TO.P,J2 IDC 2x10,7*%
%TO.N,GND*%
X142968000Y-104513000D03*
%TO.P,J2 IDC 2x10,5*%
X142968000Y-101973000D03*
%TO.P,J2 IDC 2x10,3*%
X142968000Y-99433000D03*
%TO.P,J2 IDC 2x10,1*%
%TA.AperFunction,ComponentPad*%
G36*
G01*
X142118000Y-97493000D02*
X142118000Y-96293000D01*
G75*
G02*
X142368000Y-96043000I250000J0D01*
G01*
X143568000Y-96043000D01*
G75*
G02*
X143818000Y-96293000I0J-250000D01*
G01*
X143818000Y-97493000D01*
G75*
G02*
X143568000Y-97743000I-250000J0D01*
G01*
X142368000Y-97743000D01*
G75*
G02*
X142118000Y-97493000I0J250000D01*
G01*
G37*
%TD.AperFunction*%
%TD*%
D12*
%TO.N,PWM*%
X151401900Y-120072700D03*
%TD*%
D13*
%TO.N,DIR*%
X158268000Y-99945000D02*
X156202700Y-99945000D01*
X145508000Y-99433000D02*
X155690700Y-99433000D01*
X155690700Y-99433000D02*
X156202700Y-99945000D01*
%TO.N,_DKWE*%
X158268000Y-108174000D02*
X156202700Y-108174000D01*
X145508000Y-107053000D02*
X155081700Y-107053000D01*
X155081700Y-107053000D02*
X156202700Y-108174000D01*
%TO.N,WR*%
X145508000Y-117213000D02*
X147549000Y-119254000D01*
X147549000Y-119254000D02*
X158268000Y-119254000D01*
%TO.N,RD*%
X158268000Y-116484000D02*
X156202700Y-116484000D01*
X145508000Y-114673000D02*
X154391700Y-114673000D01*
X154391700Y-114673000D02*
X156202700Y-116484000D01*
%TO.N,PWM*%
X145508000Y-119753000D02*
X145827700Y-120072700D01*
X145827700Y-120072700D02*
X151401900Y-120072700D01*
%TO.N,PH0*%
X158268000Y-97271000D02*
X156202700Y-97271000D01*
X145508000Y-96893000D02*
X155824700Y-96893000D01*
X155824700Y-96893000D02*
X156202700Y-97271000D01*
%TO.N,SEL*%
X158268000Y-110944000D02*
X156202700Y-110944000D01*
X145508000Y-109593000D02*
X154851700Y-109593000D01*
X154851700Y-109593000D02*
X156202700Y-110944000D01*
%TO.N,PH3*%
X158268000Y-105404000D02*
X156202700Y-105404000D01*
X145508000Y-104513000D02*
X155311700Y-104513000D01*
X155311700Y-104513000D02*
X156202700Y-105404000D01*
%TO.N,PH2*%
X158268000Y-102605000D02*
X156202700Y-102605000D01*
X145508000Y-101973000D02*
X155570700Y-101973000D01*
X155570700Y-101973000D02*
X156202700Y-102605000D01*
%TO.N,_ENABLE*%
X145508000Y-112133000D02*
X147089000Y-113714000D01*
X147089000Y-113714000D02*
X158268000Y-113714000D01*
%TD*%
D14*
X159807760Y-95709595D02*
X156528000Y-95709595D01*
X156403518Y-95721855D01*
X156283820Y-95758165D01*
X156173506Y-95817130D01*
X156076815Y-95896482D01*
X155997463Y-95993173D01*
X155938498Y-96103487D01*
X155927587Y-96139457D01*
X155862033Y-96133000D01*
X155862022Y-96133000D01*
X155824700Y-96129324D01*
X155787378Y-96133000D01*
X146786178Y-96133000D01*
X146661475Y-95946368D01*
X146454632Y-95739525D01*
X146211411Y-95577010D01*
X145941158Y-95465068D01*
X145654260Y-95408000D01*
X145361740Y-95408000D01*
X145074842Y-95465068D01*
X144804589Y-95577010D01*
X144561368Y-95739525D01*
X144374285Y-95926608D01*
X144306405Y-95799614D01*
X144195962Y-95665038D01*
X144061386Y-95554595D01*
X143907850Y-95472528D01*
X143741254Y-95421992D01*
X143568000Y-95404928D01*
X142368000Y-95404928D01*
X142194746Y-95421992D01*
X142028150Y-95472528D01*
X141874614Y-95554595D01*
X141740038Y-95665038D01*
X141629595Y-95799614D01*
X141547528Y-95953150D01*
X141496992Y-96119746D01*
X141479928Y-96293000D01*
X141479928Y-97493000D01*
X141496992Y-97666254D01*
X141547528Y-97832850D01*
X141629595Y-97986386D01*
X141740038Y-98120962D01*
X141874614Y-98231405D01*
X142001608Y-98299285D01*
X141814525Y-98486368D01*
X141652010Y-98729589D01*
X141540068Y-98999842D01*
X141483000Y-99286740D01*
X141483000Y-99579260D01*
X141540068Y-99866158D01*
X141652010Y-100136411D01*
X141814525Y-100379632D01*
X142021368Y-100586475D01*
X142195760Y-100703000D01*
X142021368Y-100819525D01*
X141814525Y-101026368D01*
X141652010Y-101269589D01*
X141540068Y-101539842D01*
X141483000Y-101826740D01*
X141483000Y-102119260D01*
X141540068Y-102406158D01*
X141652010Y-102676411D01*
X141814525Y-102919632D01*
X142021368Y-103126475D01*
X142195760Y-103243000D01*
X142021368Y-103359525D01*
X141814525Y-103566368D01*
X141652010Y-103809589D01*
X141540068Y-104079842D01*
X141483000Y-104366740D01*
X141483000Y-104659260D01*
X141540068Y-104946158D01*
X141652010Y-105216411D01*
X141814525Y-105459632D01*
X142021368Y-105666475D01*
X142195760Y-105783000D01*
X142021368Y-105899525D01*
X141814525Y-106106368D01*
X141652010Y-106349589D01*
X141540068Y-106619842D01*
X141483000Y-106906740D01*
X141483000Y-107199260D01*
X141540068Y-107486158D01*
X141652010Y-107756411D01*
X141814525Y-107999632D01*
X142021368Y-108206475D01*
X142195760Y-108323000D01*
X142021368Y-108439525D01*
X141814525Y-108646368D01*
X141652010Y-108889589D01*
X141540068Y-109159842D01*
X141483000Y-109446740D01*
X141483000Y-109739260D01*
X141540068Y-110026158D01*
X141652010Y-110296411D01*
X141814525Y-110539632D01*
X142021368Y-110746475D01*
X142195760Y-110863000D01*
X142021368Y-110979525D01*
X141814525Y-111186368D01*
X141652010Y-111429589D01*
X141540068Y-111699842D01*
X141483000Y-111986740D01*
X141483000Y-112279260D01*
X141540068Y-112566158D01*
X141652010Y-112836411D01*
X141814525Y-113079632D01*
X142021368Y-113286475D01*
X142195760Y-113403000D01*
X142021368Y-113519525D01*
X141814525Y-113726368D01*
X141652010Y-113969589D01*
X141540068Y-114239842D01*
X141483000Y-114526740D01*
X141483000Y-114819260D01*
X141540068Y-115106158D01*
X141652010Y-115376411D01*
X141814525Y-115619632D01*
X142021368Y-115826475D01*
X142195760Y-115943000D01*
X142021368Y-116059525D01*
X141814525Y-116266368D01*
X141652010Y-116509589D01*
X141540068Y-116779842D01*
X141483000Y-117066740D01*
X141483000Y-117359260D01*
X141540068Y-117646158D01*
X141652010Y-117916411D01*
X141814525Y-118159632D01*
X142021368Y-118366475D01*
X142195760Y-118483000D01*
X142021368Y-118599525D01*
X141814525Y-118806368D01*
X141652010Y-119049589D01*
X141540068Y-119319842D01*
X141483000Y-119606740D01*
X141483000Y-119899260D01*
X141540068Y-120186158D01*
X141652010Y-120456411D01*
X141814525Y-120699632D01*
X142021368Y-120906475D01*
X142264589Y-121068990D01*
X142534842Y-121180932D01*
X142821740Y-121238000D01*
X143114260Y-121238000D01*
X143401158Y-121180932D01*
X143671411Y-121068990D01*
X143914632Y-120906475D01*
X144121475Y-120699632D01*
X144238000Y-120525240D01*
X144354525Y-120699632D01*
X144561368Y-120906475D01*
X144804589Y-121068990D01*
X145074842Y-121180932D01*
X145361740Y-121238000D01*
X145654260Y-121238000D01*
X145941158Y-121180932D01*
X146211411Y-121068990D01*
X146454632Y-120906475D01*
X146528407Y-120832700D01*
X150698189Y-120832700D01*
X150742126Y-120876637D01*
X150911644Y-120989905D01*
X151100002Y-121067926D01*
X151299961Y-121107700D01*
X151503839Y-121107700D01*
X151703798Y-121067926D01*
X151892156Y-120989905D01*
X152061674Y-120876637D01*
X152205837Y-120732474D01*
X152319105Y-120562956D01*
X152397126Y-120374598D01*
X152436900Y-120174639D01*
X152436900Y-120014000D01*
X155889928Y-120014000D01*
X155889928Y-120177333D01*
X155902188Y-120301815D01*
X155938498Y-120421513D01*
X155997463Y-120531827D01*
X156076815Y-120628518D01*
X156173506Y-120707870D01*
X156283820Y-120766835D01*
X156403518Y-120803145D01*
X156528000Y-120815405D01*
X159807761Y-120815405D01*
X159807761Y-127532960D01*
X131127760Y-127532960D01*
X131127760Y-124972872D01*
X131233000Y-124972872D01*
X131233000Y-125413128D01*
X131318890Y-125844925D01*
X131487369Y-126251669D01*
X131731962Y-126617729D01*
X132043271Y-126929038D01*
X132409331Y-127173631D01*
X132816075Y-127342110D01*
X133247872Y-127428000D01*
X133688128Y-127428000D01*
X134119925Y-127342110D01*
X134526669Y-127173631D01*
X134892729Y-126929038D01*
X135204038Y-126617729D01*
X135448631Y-126251669D01*
X135617110Y-125844925D01*
X135703000Y-125413128D01*
X135703000Y-124972872D01*
X135617110Y-124541075D01*
X135448631Y-124134331D01*
X135204038Y-123768271D01*
X134892729Y-123456962D01*
X134526669Y-123212369D01*
X134119925Y-123043890D01*
X133688128Y-122958000D01*
X133247872Y-122958000D01*
X132816075Y-123043890D01*
X132409331Y-123212369D01*
X132043271Y-123456962D01*
X131731962Y-123768271D01*
X131487369Y-124134331D01*
X131318890Y-124541075D01*
X131233000Y-124972872D01*
X131127760Y-124972872D01*
X131127760Y-90972872D01*
X131233000Y-90972872D01*
X131233000Y-91413128D01*
X131318890Y-91844925D01*
X131487369Y-92251669D01*
X131731962Y-92617729D01*
X132043271Y-92929038D01*
X132409331Y-93173631D01*
X132816075Y-93342110D01*
X133247872Y-93428000D01*
X133688128Y-93428000D01*
X134119925Y-93342110D01*
X134526669Y-93173631D01*
X134892729Y-92929038D01*
X135204038Y-92617729D01*
X135448631Y-92251669D01*
X135617110Y-91844925D01*
X135703000Y-91413128D01*
X135703000Y-90972872D01*
X135617110Y-90541075D01*
X135448631Y-90134331D01*
X135204038Y-89768271D01*
X134892729Y-89456962D01*
X134526669Y-89212369D01*
X134119925Y-89043890D01*
X133688128Y-88958000D01*
X133247872Y-88958000D01*
X132816075Y-89043890D01*
X132409331Y-89212369D01*
X132043271Y-89456962D01*
X131731962Y-89768271D01*
X131487369Y-90134331D01*
X131318890Y-90541075D01*
X131233000Y-90972872D01*
X131127760Y-90972872D01*
X131127760Y-88852960D01*
X159807760Y-88852960D01*
X159807760Y-95709595D01*
%TA.AperFunction,NonConductor*%
D15*
G36*
X159807760Y-95709595D02*
G01*
X156528000Y-95709595D01*
X156403518Y-95721855D01*
X156283820Y-95758165D01*
X156173506Y-95817130D01*
X156076815Y-95896482D01*
X155997463Y-95993173D01*
X155938498Y-96103487D01*
X155927587Y-96139457D01*
X155862033Y-96133000D01*
X155862022Y-96133000D01*
X155824700Y-96129324D01*
X155787378Y-96133000D01*
X146786178Y-96133000D01*
X146661475Y-95946368D01*
X146454632Y-95739525D01*
X146211411Y-95577010D01*
X145941158Y-95465068D01*
X145654260Y-95408000D01*
X145361740Y-95408000D01*
X145074842Y-95465068D01*
X144804589Y-95577010D01*
X144561368Y-95739525D01*
X144374285Y-95926608D01*
X144306405Y-95799614D01*
X144195962Y-95665038D01*
X144061386Y-95554595D01*
X143907850Y-95472528D01*
X143741254Y-95421992D01*
X143568000Y-95404928D01*
X142368000Y-95404928D01*
X142194746Y-95421992D01*
X142028150Y-95472528D01*
X141874614Y-95554595D01*
X141740038Y-95665038D01*
X141629595Y-95799614D01*
X141547528Y-95953150D01*
X141496992Y-96119746D01*
X141479928Y-96293000D01*
X141479928Y-97493000D01*
X141496992Y-97666254D01*
X141547528Y-97832850D01*
X141629595Y-97986386D01*
X141740038Y-98120962D01*
X141874614Y-98231405D01*
X142001608Y-98299285D01*
X141814525Y-98486368D01*
X141652010Y-98729589D01*
X141540068Y-98999842D01*
X141483000Y-99286740D01*
X141483000Y-99579260D01*
X141540068Y-99866158D01*
X141652010Y-100136411D01*
X141814525Y-100379632D01*
X142021368Y-100586475D01*
X142195760Y-100703000D01*
X142021368Y-100819525D01*
X141814525Y-101026368D01*
X141652010Y-101269589D01*
X141540068Y-101539842D01*
X141483000Y-101826740D01*
X141483000Y-102119260D01*
X141540068Y-102406158D01*
X141652010Y-102676411D01*
X141814525Y-102919632D01*
X142021368Y-103126475D01*
X142195760Y-103243000D01*
X142021368Y-103359525D01*
X141814525Y-103566368D01*
X141652010Y-103809589D01*
X141540068Y-104079842D01*
X141483000Y-104366740D01*
X141483000Y-104659260D01*
X141540068Y-104946158D01*
X141652010Y-105216411D01*
X141814525Y-105459632D01*
X142021368Y-105666475D01*
X142195760Y-105783000D01*
X142021368Y-105899525D01*
X141814525Y-106106368D01*
X141652010Y-106349589D01*
X141540068Y-106619842D01*
X141483000Y-106906740D01*
X141483000Y-107199260D01*
X141540068Y-107486158D01*
X141652010Y-107756411D01*
X141814525Y-107999632D01*
X142021368Y-108206475D01*
X142195760Y-108323000D01*
X142021368Y-108439525D01*
X141814525Y-108646368D01*
X141652010Y-108889589D01*
X141540068Y-109159842D01*
X141483000Y-109446740D01*
X141483000Y-109739260D01*
X141540068Y-110026158D01*
X141652010Y-110296411D01*
X141814525Y-110539632D01*
X142021368Y-110746475D01*
X142195760Y-110863000D01*
X142021368Y-110979525D01*
X141814525Y-111186368D01*
X141652010Y-111429589D01*
X141540068Y-111699842D01*
X141483000Y-111986740D01*
X141483000Y-112279260D01*
X141540068Y-112566158D01*
X141652010Y-112836411D01*
X141814525Y-113079632D01*
X142021368Y-113286475D01*
X142195760Y-113403000D01*
X142021368Y-113519525D01*
X141814525Y-113726368D01*
X141652010Y-113969589D01*
X141540068Y-114239842D01*
X141483000Y-114526740D01*
X141483000Y-114819260D01*
X141540068Y-115106158D01*
X141652010Y-115376411D01*
X141814525Y-115619632D01*
X142021368Y-115826475D01*
X142195760Y-115943000D01*
X142021368Y-116059525D01*
X141814525Y-116266368D01*
X141652010Y-116509589D01*
X141540068Y-116779842D01*
X141483000Y-117066740D01*
X141483000Y-117359260D01*
X141540068Y-117646158D01*
X141652010Y-117916411D01*
X141814525Y-118159632D01*
X142021368Y-118366475D01*
X142195760Y-118483000D01*
X142021368Y-118599525D01*
X141814525Y-118806368D01*
X141652010Y-119049589D01*
X141540068Y-119319842D01*
X141483000Y-119606740D01*
X141483000Y-119899260D01*
X141540068Y-120186158D01*
X141652010Y-120456411D01*
X141814525Y-120699632D01*
X142021368Y-120906475D01*
X142264589Y-121068990D01*
X142534842Y-121180932D01*
X142821740Y-121238000D01*
X143114260Y-121238000D01*
X143401158Y-121180932D01*
X143671411Y-121068990D01*
X143914632Y-120906475D01*
X144121475Y-120699632D01*
X144238000Y-120525240D01*
X144354525Y-120699632D01*
X144561368Y-120906475D01*
X144804589Y-121068990D01*
X145074842Y-121180932D01*
X145361740Y-121238000D01*
X145654260Y-121238000D01*
X145941158Y-121180932D01*
X146211411Y-121068990D01*
X146454632Y-120906475D01*
X146528407Y-120832700D01*
X150698189Y-120832700D01*
X150742126Y-120876637D01*
X150911644Y-120989905D01*
X151100002Y-121067926D01*
X151299961Y-121107700D01*
X151503839Y-121107700D01*
X151703798Y-121067926D01*
X151892156Y-120989905D01*
X152061674Y-120876637D01*
X152205837Y-120732474D01*
X152319105Y-120562956D01*
X152397126Y-120374598D01*
X152436900Y-120174639D01*
X152436900Y-120014000D01*
X155889928Y-120014000D01*
X155889928Y-120177333D01*
X155902188Y-120301815D01*
X155938498Y-120421513D01*
X155997463Y-120531827D01*
X156076815Y-120628518D01*
X156173506Y-120707870D01*
X156283820Y-120766835D01*
X156403518Y-120803145D01*
X156528000Y-120815405D01*
X159807761Y-120815405D01*
X159807761Y-127532960D01*
X131127760Y-127532960D01*
X131127760Y-124972872D01*
X131233000Y-124972872D01*
X131233000Y-125413128D01*
X131318890Y-125844925D01*
X131487369Y-126251669D01*
X131731962Y-126617729D01*
X132043271Y-126929038D01*
X132409331Y-127173631D01*
X132816075Y-127342110D01*
X133247872Y-127428000D01*
X133688128Y-127428000D01*
X134119925Y-127342110D01*
X134526669Y-127173631D01*
X134892729Y-126929038D01*
X135204038Y-126617729D01*
X135448631Y-126251669D01*
X135617110Y-125844925D01*
X135703000Y-125413128D01*
X135703000Y-124972872D01*
X135617110Y-124541075D01*
X135448631Y-124134331D01*
X135204038Y-123768271D01*
X134892729Y-123456962D01*
X134526669Y-123212369D01*
X134119925Y-123043890D01*
X133688128Y-122958000D01*
X133247872Y-122958000D01*
X132816075Y-123043890D01*
X132409331Y-123212369D01*
X132043271Y-123456962D01*
X131731962Y-123768271D01*
X131487369Y-124134331D01*
X131318890Y-124541075D01*
X131233000Y-124972872D01*
X131127760Y-124972872D01*
X131127760Y-90972872D01*
X131233000Y-90972872D01*
X131233000Y-91413128D01*
X131318890Y-91844925D01*
X131487369Y-92251669D01*
X131731962Y-92617729D01*
X132043271Y-92929038D01*
X132409331Y-93173631D01*
X132816075Y-93342110D01*
X133247872Y-93428000D01*
X133688128Y-93428000D01*
X134119925Y-93342110D01*
X134526669Y-93173631D01*
X134892729Y-92929038D01*
X135204038Y-92617729D01*
X135448631Y-92251669D01*
X135617110Y-91844925D01*
X135703000Y-91413128D01*
X135703000Y-90972872D01*
X135617110Y-90541075D01*
X135448631Y-90134331D01*
X135204038Y-89768271D01*
X134892729Y-89456962D01*
X134526669Y-89212369D01*
X134119925Y-89043890D01*
X133688128Y-88958000D01*
X133247872Y-88958000D01*
X132816075Y-89043890D01*
X132409331Y-89212369D01*
X132043271Y-89456962D01*
X131731962Y-89768271D01*
X131487369Y-90134331D01*
X131318890Y-90541075D01*
X131233000Y-90972872D01*
X131127760Y-90972872D01*
X131127760Y-88852960D01*
X159807760Y-88852960D01*
X159807760Y-95709595D01*
G37*
%TD.AperFunction*%
D14*
X144354525Y-118159632D02*
X144561368Y-118366475D01*
X144735760Y-118483000D01*
X144561368Y-118599525D01*
X144354525Y-118806368D01*
X144238000Y-118980760D01*
X144121475Y-118806368D01*
X143914632Y-118599525D01*
X143740240Y-118483000D01*
X143914632Y-118366475D01*
X144121475Y-118159632D01*
X144238000Y-117985240D01*
X144354525Y-118159632D01*
%TA.AperFunction,NonConductor*%
D15*
G36*
X144354525Y-118159632D02*
G01*
X144561368Y-118366475D01*
X144735760Y-118483000D01*
X144561368Y-118599525D01*
X144354525Y-118806368D01*
X144238000Y-118980760D01*
X144121475Y-118806368D01*
X143914632Y-118599525D01*
X143740240Y-118483000D01*
X143914632Y-118366475D01*
X144121475Y-118159632D01*
X144238000Y-117985240D01*
X144354525Y-118159632D01*
G37*
%TD.AperFunction*%
D14*
X155638901Y-116995003D02*
X155662699Y-117024001D01*
X155778424Y-117118974D01*
X155889928Y-117178575D01*
X155889928Y-117407333D01*
X155902188Y-117531815D01*
X155938498Y-117651513D01*
X155997463Y-117761827D01*
X156076815Y-117858518D01*
X156089587Y-117869000D01*
X156076815Y-117879482D01*
X155997463Y-117976173D01*
X155938498Y-118086487D01*
X155902188Y-118206185D01*
X155889928Y-118330667D01*
X155889928Y-118494000D01*
X147863802Y-118494000D01*
X146949209Y-117579408D01*
X146993000Y-117359260D01*
X146993000Y-117066740D01*
X146935932Y-116779842D01*
X146823990Y-116509589D01*
X146661475Y-116266368D01*
X146454632Y-116059525D01*
X146280240Y-115943000D01*
X146454632Y-115826475D01*
X146661475Y-115619632D01*
X146786178Y-115433000D01*
X154076899Y-115433000D01*
X155638901Y-116995003D01*
%TA.AperFunction,NonConductor*%
D15*
G36*
X155638901Y-116995003D02*
G01*
X155662699Y-117024001D01*
X155778424Y-117118974D01*
X155889928Y-117178575D01*
X155889928Y-117407333D01*
X155902188Y-117531815D01*
X155938498Y-117651513D01*
X155997463Y-117761827D01*
X156076815Y-117858518D01*
X156089587Y-117869000D01*
X156076815Y-117879482D01*
X155997463Y-117976173D01*
X155938498Y-118086487D01*
X155902188Y-118206185D01*
X155889928Y-118330667D01*
X155889928Y-118494000D01*
X147863802Y-118494000D01*
X146949209Y-117579408D01*
X146993000Y-117359260D01*
X146993000Y-117066740D01*
X146935932Y-116779842D01*
X146823990Y-116509589D01*
X146661475Y-116266368D01*
X146454632Y-116059525D01*
X146280240Y-115943000D01*
X146454632Y-115826475D01*
X146661475Y-115619632D01*
X146786178Y-115433000D01*
X154076899Y-115433000D01*
X155638901Y-116995003D01*
G37*
%TD.AperFunction*%
D14*
X144354525Y-115619632D02*
X144561368Y-115826475D01*
X144735760Y-115943000D01*
X144561368Y-116059525D01*
X144354525Y-116266368D01*
X144238000Y-116440760D01*
X144121475Y-116266368D01*
X143914632Y-116059525D01*
X143740240Y-115943000D01*
X143914632Y-115826475D01*
X144121475Y-115619632D01*
X144238000Y-115445240D01*
X144354525Y-115619632D01*
%TA.AperFunction,NonConductor*%
D15*
G36*
X144354525Y-115619632D02*
G01*
X144561368Y-115826475D01*
X144735760Y-115943000D01*
X144561368Y-116059525D01*
X144354525Y-116266368D01*
X144238000Y-116440760D01*
X144121475Y-116266368D01*
X143914632Y-116059525D01*
X143740240Y-115943000D01*
X143914632Y-115826475D01*
X144121475Y-115619632D01*
X144238000Y-115445240D01*
X144354525Y-115619632D01*
G37*
%TD.AperFunction*%
D14*
X155889928Y-114637333D02*
X155902188Y-114761815D01*
X155938498Y-114881513D01*
X155997463Y-114991827D01*
X156076815Y-115088518D01*
X156089587Y-115099000D01*
X156076815Y-115109482D01*
X155998460Y-115204958D01*
X155267501Y-114474000D01*
X155889928Y-114474000D01*
X155889928Y-114637333D01*
%TA.AperFunction,NonConductor*%
D15*
G36*
X155889928Y-114637333D02*
G01*
X155902188Y-114761815D01*
X155938498Y-114881513D01*
X155997463Y-114991827D01*
X156076815Y-115088518D01*
X156089587Y-115099000D01*
X156076815Y-115109482D01*
X155998460Y-115204958D01*
X155267501Y-114474000D01*
X155889928Y-114474000D01*
X155889928Y-114637333D01*
G37*
%TD.AperFunction*%
D14*
X144354525Y-113079632D02*
X144561368Y-113286475D01*
X144735760Y-113403000D01*
X144561368Y-113519525D01*
X144354525Y-113726368D01*
X144238000Y-113900760D01*
X144121475Y-113726368D01*
X143914632Y-113519525D01*
X143740240Y-113403000D01*
X143914632Y-113286475D01*
X144121475Y-113079632D01*
X144238000Y-112905240D01*
X144354525Y-113079632D01*
%TA.AperFunction,NonConductor*%
D15*
G36*
X144354525Y-113079632D02*
G01*
X144561368Y-113286475D01*
X144735760Y-113403000D01*
X144561368Y-113519525D01*
X144354525Y-113726368D01*
X144238000Y-113900760D01*
X144121475Y-113726368D01*
X143914632Y-113519525D01*
X143740240Y-113403000D01*
X143914632Y-113286475D01*
X144121475Y-113079632D01*
X144238000Y-112905240D01*
X144354525Y-113079632D01*
G37*
%TD.AperFunction*%
D14*
X155638901Y-111455003D02*
X155662699Y-111484001D01*
X155691697Y-111507799D01*
X155778424Y-111578974D01*
X155889928Y-111638575D01*
X155889928Y-111867333D01*
X155902188Y-111991815D01*
X155938498Y-112111513D01*
X155997463Y-112221827D01*
X156076815Y-112318518D01*
X156089587Y-112329000D01*
X156076815Y-112339482D01*
X155997463Y-112436173D01*
X155938498Y-112546487D01*
X155902188Y-112666185D01*
X155889928Y-112790667D01*
X155889928Y-112954000D01*
X147403802Y-112954000D01*
X146949210Y-112499408D01*
X146993000Y-112279260D01*
X146993000Y-111986740D01*
X146935932Y-111699842D01*
X146823990Y-111429589D01*
X146661475Y-111186368D01*
X146454632Y-110979525D01*
X146280240Y-110863000D01*
X146454632Y-110746475D01*
X146661475Y-110539632D01*
X146786178Y-110353000D01*
X154536899Y-110353000D01*
X155638901Y-111455003D01*
%TA.AperFunction,NonConductor*%
D15*
G36*
X155638901Y-111455003D02*
G01*
X155662699Y-111484001D01*
X155691697Y-111507799D01*
X155778424Y-111578974D01*
X155889928Y-111638575D01*
X155889928Y-111867333D01*
X155902188Y-111991815D01*
X155938498Y-112111513D01*
X155997463Y-112221827D01*
X156076815Y-112318518D01*
X156089587Y-112329000D01*
X156076815Y-112339482D01*
X155997463Y-112436173D01*
X155938498Y-112546487D01*
X155902188Y-112666185D01*
X155889928Y-112790667D01*
X155889928Y-112954000D01*
X147403802Y-112954000D01*
X146949210Y-112499408D01*
X146993000Y-112279260D01*
X146993000Y-111986740D01*
X146935932Y-111699842D01*
X146823990Y-111429589D01*
X146661475Y-111186368D01*
X146454632Y-110979525D01*
X146280240Y-110863000D01*
X146454632Y-110746475D01*
X146661475Y-110539632D01*
X146786178Y-110353000D01*
X154536899Y-110353000D01*
X155638901Y-111455003D01*
G37*
%TD.AperFunction*%
D14*
X144354525Y-110539632D02*
X144561368Y-110746475D01*
X144735760Y-110863000D01*
X144561368Y-110979525D01*
X144354525Y-111186368D01*
X144238000Y-111360760D01*
X144121475Y-111186368D01*
X143914632Y-110979525D01*
X143740240Y-110863000D01*
X143914632Y-110746475D01*
X144121475Y-110539632D01*
X144238000Y-110365240D01*
X144354525Y-110539632D01*
%TA.AperFunction,NonConductor*%
D15*
G36*
X144354525Y-110539632D02*
G01*
X144561368Y-110746475D01*
X144735760Y-110863000D01*
X144561368Y-110979525D01*
X144354525Y-111186368D01*
X144238000Y-111360760D01*
X144121475Y-111186368D01*
X143914632Y-110979525D01*
X143740240Y-110863000D01*
X143914632Y-110746475D01*
X144121475Y-110539632D01*
X144238000Y-110365240D01*
X144354525Y-110539632D01*
G37*
%TD.AperFunction*%
D14*
X155638905Y-108685008D02*
X155662699Y-108714001D01*
X155691692Y-108737795D01*
X155691696Y-108737799D01*
X155762385Y-108795811D01*
X155778424Y-108808974D01*
X155889928Y-108868575D01*
X155889928Y-109097333D01*
X155902188Y-109221815D01*
X155938498Y-109341513D01*
X155997463Y-109451827D01*
X156076815Y-109548518D01*
X156089587Y-109559000D01*
X156076815Y-109569482D01*
X155998460Y-109664958D01*
X155415504Y-109082003D01*
X155391701Y-109052999D01*
X155275976Y-108958026D01*
X155143947Y-108887454D01*
X155000686Y-108843997D01*
X154889033Y-108833000D01*
X154889022Y-108833000D01*
X154851700Y-108829324D01*
X154814378Y-108833000D01*
X146786178Y-108833000D01*
X146661475Y-108646368D01*
X146454632Y-108439525D01*
X146280240Y-108323000D01*
X146454632Y-108206475D01*
X146661475Y-107999632D01*
X146786178Y-107813000D01*
X154766899Y-107813000D01*
X155638905Y-108685008D01*
%TA.AperFunction,NonConductor*%
D15*
G36*
X155638905Y-108685008D02*
G01*
X155662699Y-108714001D01*
X155691692Y-108737795D01*
X155691696Y-108737799D01*
X155762385Y-108795811D01*
X155778424Y-108808974D01*
X155889928Y-108868575D01*
X155889928Y-109097333D01*
X155902188Y-109221815D01*
X155938498Y-109341513D01*
X155997463Y-109451827D01*
X156076815Y-109548518D01*
X156089587Y-109559000D01*
X156076815Y-109569482D01*
X155998460Y-109664958D01*
X155415504Y-109082003D01*
X155391701Y-109052999D01*
X155275976Y-108958026D01*
X155143947Y-108887454D01*
X155000686Y-108843997D01*
X154889033Y-108833000D01*
X154889022Y-108833000D01*
X154851700Y-108829324D01*
X154814378Y-108833000D01*
X146786178Y-108833000D01*
X146661475Y-108646368D01*
X146454632Y-108439525D01*
X146280240Y-108323000D01*
X146454632Y-108206475D01*
X146661475Y-107999632D01*
X146786178Y-107813000D01*
X154766899Y-107813000D01*
X155638905Y-108685008D01*
G37*
%TD.AperFunction*%
D14*
X144354525Y-107999632D02*
X144561368Y-108206475D01*
X144735760Y-108323000D01*
X144561368Y-108439525D01*
X144354525Y-108646368D01*
X144238000Y-108820760D01*
X144121475Y-108646368D01*
X143914632Y-108439525D01*
X143740240Y-108323000D01*
X143914632Y-108206475D01*
X144121475Y-107999632D01*
X144238000Y-107825240D01*
X144354525Y-107999632D01*
%TA.AperFunction,NonConductor*%
D15*
G36*
X144354525Y-107999632D02*
G01*
X144561368Y-108206475D01*
X144735760Y-108323000D01*
X144561368Y-108439525D01*
X144354525Y-108646368D01*
X144238000Y-108820760D01*
X144121475Y-108646368D01*
X143914632Y-108439525D01*
X143740240Y-108323000D01*
X143914632Y-108206475D01*
X144121475Y-107999632D01*
X144238000Y-107825240D01*
X144354525Y-107999632D01*
G37*
%TD.AperFunction*%
D14*
X155638901Y-105915003D02*
X155662699Y-105944001D01*
X155778424Y-106038974D01*
X155889928Y-106098575D01*
X155889928Y-106327333D01*
X155902188Y-106451815D01*
X155938498Y-106571513D01*
X155997463Y-106681827D01*
X156076815Y-106778518D01*
X156089587Y-106789000D01*
X156076815Y-106799482D01*
X155998460Y-106894958D01*
X155645503Y-106542002D01*
X155621701Y-106512999D01*
X155505976Y-106418026D01*
X155373947Y-106347454D01*
X155230686Y-106303997D01*
X155119033Y-106293000D01*
X155119022Y-106293000D01*
X155081700Y-106289324D01*
X155044378Y-106293000D01*
X146786178Y-106293000D01*
X146661475Y-106106368D01*
X146454632Y-105899525D01*
X146280240Y-105783000D01*
X146454632Y-105666475D01*
X146661475Y-105459632D01*
X146786178Y-105273000D01*
X154996899Y-105273000D01*
X155638901Y-105915003D01*
%TA.AperFunction,NonConductor*%
D15*
G36*
X155638901Y-105915003D02*
G01*
X155662699Y-105944001D01*
X155778424Y-106038974D01*
X155889928Y-106098575D01*
X155889928Y-106327333D01*
X155902188Y-106451815D01*
X155938498Y-106571513D01*
X155997463Y-106681827D01*
X156076815Y-106778518D01*
X156089587Y-106789000D01*
X156076815Y-106799482D01*
X155998460Y-106894958D01*
X155645503Y-106542002D01*
X155621701Y-106512999D01*
X155505976Y-106418026D01*
X155373947Y-106347454D01*
X155230686Y-106303997D01*
X155119033Y-106293000D01*
X155119022Y-106293000D01*
X155081700Y-106289324D01*
X155044378Y-106293000D01*
X146786178Y-106293000D01*
X146661475Y-106106368D01*
X146454632Y-105899525D01*
X146280240Y-105783000D01*
X146454632Y-105666475D01*
X146661475Y-105459632D01*
X146786178Y-105273000D01*
X154996899Y-105273000D01*
X155638901Y-105915003D01*
G37*
%TD.AperFunction*%
D14*
X144354525Y-105459632D02*
X144561368Y-105666475D01*
X144735760Y-105783000D01*
X144561368Y-105899525D01*
X144354525Y-106106368D01*
X144238000Y-106280760D01*
X144121475Y-106106368D01*
X143914632Y-105899525D01*
X143740240Y-105783000D01*
X143914632Y-105666475D01*
X144121475Y-105459632D01*
X144238000Y-105285240D01*
X144354525Y-105459632D01*
%TA.AperFunction,NonConductor*%
D15*
G36*
X144354525Y-105459632D02*
G01*
X144561368Y-105666475D01*
X144735760Y-105783000D01*
X144561368Y-105899525D01*
X144354525Y-106106368D01*
X144238000Y-106280760D01*
X144121475Y-106106368D01*
X143914632Y-105899525D01*
X143740240Y-105783000D01*
X143914632Y-105666475D01*
X144121475Y-105459632D01*
X144238000Y-105285240D01*
X144354525Y-105459632D01*
G37*
%TD.AperFunction*%
D14*
X155638900Y-103116002D02*
X155662699Y-103145001D01*
X155691697Y-103168799D01*
X155778423Y-103239974D01*
X155870125Y-103288990D01*
X155889928Y-103299575D01*
X155889928Y-103528333D01*
X155902188Y-103652815D01*
X155938498Y-103772513D01*
X155997463Y-103882827D01*
X156076815Y-103979518D01*
X156107256Y-104004500D01*
X156076815Y-104029482D01*
X155998460Y-104124959D01*
X155875503Y-104002002D01*
X155851701Y-103972999D01*
X155735976Y-103878026D01*
X155603947Y-103807454D01*
X155460686Y-103763997D01*
X155349033Y-103753000D01*
X155349022Y-103753000D01*
X155311700Y-103749324D01*
X155274378Y-103753000D01*
X146786178Y-103753000D01*
X146661475Y-103566368D01*
X146454632Y-103359525D01*
X146280240Y-103243000D01*
X146454632Y-103126475D01*
X146661475Y-102919632D01*
X146786178Y-102733000D01*
X155255899Y-102733000D01*
X155638900Y-103116002D01*
%TA.AperFunction,NonConductor*%
D15*
G36*
X155638900Y-103116002D02*
G01*
X155662699Y-103145001D01*
X155691697Y-103168799D01*
X155778423Y-103239974D01*
X155870125Y-103288990D01*
X155889928Y-103299575D01*
X155889928Y-103528333D01*
X155902188Y-103652815D01*
X155938498Y-103772513D01*
X155997463Y-103882827D01*
X156076815Y-103979518D01*
X156107256Y-104004500D01*
X156076815Y-104029482D01*
X155998460Y-104124959D01*
X155875503Y-104002002D01*
X155851701Y-103972999D01*
X155735976Y-103878026D01*
X155603947Y-103807454D01*
X155460686Y-103763997D01*
X155349033Y-103753000D01*
X155349022Y-103753000D01*
X155311700Y-103749324D01*
X155274378Y-103753000D01*
X146786178Y-103753000D01*
X146661475Y-103566368D01*
X146454632Y-103359525D01*
X146280240Y-103243000D01*
X146454632Y-103126475D01*
X146661475Y-102919632D01*
X146786178Y-102733000D01*
X155255899Y-102733000D01*
X155638900Y-103116002D01*
G37*
%TD.AperFunction*%
D14*
X144354525Y-102919632D02*
X144561368Y-103126475D01*
X144735760Y-103243000D01*
X144561368Y-103359525D01*
X144354525Y-103566368D01*
X144238000Y-103740760D01*
X144121475Y-103566368D01*
X143914632Y-103359525D01*
X143740240Y-103243000D01*
X143914632Y-103126475D01*
X144121475Y-102919632D01*
X144238000Y-102745240D01*
X144354525Y-102919632D01*
%TA.AperFunction,NonConductor*%
D15*
G36*
X144354525Y-102919632D02*
G01*
X144561368Y-103126475D01*
X144735760Y-103243000D01*
X144561368Y-103359525D01*
X144354525Y-103566368D01*
X144238000Y-103740760D01*
X144121475Y-103566368D01*
X143914632Y-103359525D01*
X143740240Y-103243000D01*
X143914632Y-103126475D01*
X144121475Y-102919632D01*
X144238000Y-102745240D01*
X144354525Y-102919632D01*
G37*
%TD.AperFunction*%
D14*
X155638900Y-100456002D02*
X155662699Y-100485001D01*
X155778424Y-100579974D01*
X155889928Y-100639575D01*
X155889928Y-100868333D01*
X155902188Y-100992815D01*
X155938498Y-101112513D01*
X155997463Y-101222827D01*
X156040280Y-101275000D01*
X155997463Y-101327173D01*
X155992398Y-101336648D01*
X155862947Y-101267454D01*
X155719686Y-101223997D01*
X155608033Y-101213000D01*
X155608022Y-101213000D01*
X155570700Y-101209324D01*
X155533378Y-101213000D01*
X146786178Y-101213000D01*
X146661475Y-101026368D01*
X146454632Y-100819525D01*
X146280240Y-100703000D01*
X146454632Y-100586475D01*
X146661475Y-100379632D01*
X146786178Y-100193000D01*
X155375899Y-100193000D01*
X155638900Y-100456002D01*
%TA.AperFunction,NonConductor*%
D15*
G36*
X155638900Y-100456002D02*
G01*
X155662699Y-100485001D01*
X155778424Y-100579974D01*
X155889928Y-100639575D01*
X155889928Y-100868333D01*
X155902188Y-100992815D01*
X155938498Y-101112513D01*
X155997463Y-101222827D01*
X156040280Y-101275000D01*
X155997463Y-101327173D01*
X155992398Y-101336648D01*
X155862947Y-101267454D01*
X155719686Y-101223997D01*
X155608033Y-101213000D01*
X155608022Y-101213000D01*
X155570700Y-101209324D01*
X155533378Y-101213000D01*
X146786178Y-101213000D01*
X146661475Y-101026368D01*
X146454632Y-100819525D01*
X146280240Y-100703000D01*
X146454632Y-100586475D01*
X146661475Y-100379632D01*
X146786178Y-100193000D01*
X155375899Y-100193000D01*
X155638900Y-100456002D01*
G37*
%TD.AperFunction*%
D14*
X144354525Y-100379632D02*
X144561368Y-100586475D01*
X144735760Y-100703000D01*
X144561368Y-100819525D01*
X144354525Y-101026368D01*
X144238000Y-101200760D01*
X144121475Y-101026368D01*
X143914632Y-100819525D01*
X143740240Y-100703000D01*
X143914632Y-100586475D01*
X144121475Y-100379632D01*
X144238000Y-100205240D01*
X144354525Y-100379632D01*
%TA.AperFunction,NonConductor*%
D15*
G36*
X144354525Y-100379632D02*
G01*
X144561368Y-100586475D01*
X144735760Y-100703000D01*
X144561368Y-100819525D01*
X144354525Y-101026368D01*
X144238000Y-101200760D01*
X144121475Y-101026368D01*
X143914632Y-100819525D01*
X143740240Y-100703000D01*
X143914632Y-100586475D01*
X144121475Y-100379632D01*
X144238000Y-100205240D01*
X144354525Y-100379632D01*
G37*
%TD.AperFunction*%
D14*
X155638896Y-97781997D02*
X155662699Y-97811001D01*
X155778424Y-97905974D01*
X155889928Y-97965575D01*
X155889928Y-98194333D01*
X155902188Y-98318815D01*
X155938498Y-98438513D01*
X155997463Y-98548827D01*
X156046025Y-98608000D01*
X155997463Y-98667173D01*
X155967712Y-98722833D01*
X155839686Y-98683997D01*
X155728033Y-98673000D01*
X155728022Y-98673000D01*
X155690700Y-98669324D01*
X155653378Y-98673000D01*
X146786178Y-98673000D01*
X146661475Y-98486368D01*
X146454632Y-98279525D01*
X146280240Y-98163000D01*
X146454632Y-98046475D01*
X146661475Y-97839632D01*
X146786178Y-97653000D01*
X155509899Y-97653000D01*
X155638896Y-97781997D01*
%TA.AperFunction,NonConductor*%
D15*
G36*
X155638896Y-97781997D02*
G01*
X155662699Y-97811001D01*
X155778424Y-97905974D01*
X155889928Y-97965575D01*
X155889928Y-98194333D01*
X155902188Y-98318815D01*
X155938498Y-98438513D01*
X155997463Y-98548827D01*
X156046025Y-98608000D01*
X155997463Y-98667173D01*
X155967712Y-98722833D01*
X155839686Y-98683997D01*
X155728033Y-98673000D01*
X155728022Y-98673000D01*
X155690700Y-98669324D01*
X155653378Y-98673000D01*
X146786178Y-98673000D01*
X146661475Y-98486368D01*
X146454632Y-98279525D01*
X146280240Y-98163000D01*
X146454632Y-98046475D01*
X146661475Y-97839632D01*
X146786178Y-97653000D01*
X155509899Y-97653000D01*
X155638896Y-97781997D01*
G37*
%TD.AperFunction*%
D14*
X144561368Y-98046475D02*
X144735760Y-98163000D01*
X144561368Y-98279525D01*
X144354525Y-98486368D01*
X144238000Y-98660760D01*
X144121475Y-98486368D01*
X143934392Y-98299285D01*
X144061386Y-98231405D01*
X144195962Y-98120962D01*
X144306405Y-97986386D01*
X144374285Y-97859392D01*
X144561368Y-98046475D01*
%TA.AperFunction,NonConductor*%
D15*
G36*
X144561368Y-98046475D02*
G01*
X144735760Y-98163000D01*
X144561368Y-98279525D01*
X144354525Y-98486368D01*
X144238000Y-98660760D01*
X144121475Y-98486368D01*
X143934392Y-98299285D01*
X144061386Y-98231405D01*
X144195962Y-98120962D01*
X144306405Y-97986386D01*
X144374285Y-97859392D01*
X144561368Y-98046475D01*
G37*
%TD.AperFunction*%
M02*
