%TF.GenerationSoftware,KiCad,Pcbnew,(5.1.9)-1*%
%TF.CreationDate,2021-07-05T16:45:00-04:00*%
%TF.ProjectId,Amiga2MacFloppy,416d6967-6132-44d6-9163-466c6f707079,1.0*%
%TF.SameCoordinates,Original*%
%TF.FileFunction,Legend,Top*%
%TF.FilePolarity,Positive*%
%FSLAX46Y46*%
G04 Gerber Fmt 4.6, Leading zero omitted, Abs format (unit mm)*
G04 Created by KiCad (PCBNEW (5.1.9)-1) date 2021-07-05 16:45:00*
%MOMM*%
%LPD*%
G01*
G04 APERTURE LIST*
%ADD10C,0.250000*%
%ADD11C,0.150000*%
%ADD12C,0.120000*%
G04 APERTURE END LIST*
D10*
X133467760Y-116300102D02*
X133467760Y-115585817D01*
X133896331Y-116442960D02*
X132396331Y-115942960D01*
X133896331Y-115442960D01*
X133896331Y-114942960D02*
X132896331Y-114942960D01*
X133039188Y-114942960D02*
X132967760Y-114871531D01*
X132896331Y-114728674D01*
X132896331Y-114514388D01*
X132967760Y-114371531D01*
X133110617Y-114300102D01*
X133896331Y-114300102D01*
X133110617Y-114300102D02*
X132967760Y-114228674D01*
X132896331Y-114085817D01*
X132896331Y-113871531D01*
X132967760Y-113728674D01*
X133110617Y-113657245D01*
X133896331Y-113657245D01*
X133896331Y-112942960D02*
X132896331Y-112942960D01*
X132396331Y-112942960D02*
X132467760Y-113014388D01*
X132539188Y-112942960D01*
X132467760Y-112871531D01*
X132396331Y-112942960D01*
X132539188Y-112942960D01*
X132896331Y-111585817D02*
X134110617Y-111585817D01*
X134253474Y-111657245D01*
X134324902Y-111728674D01*
X134396331Y-111871531D01*
X134396331Y-112085817D01*
X134324902Y-112228674D01*
X133824902Y-111585817D02*
X133896331Y-111728674D01*
X133896331Y-112014388D01*
X133824902Y-112157245D01*
X133753474Y-112228674D01*
X133610617Y-112300102D01*
X133182045Y-112300102D01*
X133039188Y-112228674D01*
X132967760Y-112157245D01*
X132896331Y-112014388D01*
X132896331Y-111728674D01*
X132967760Y-111585817D01*
X133896331Y-110228674D02*
X133110617Y-110228674D01*
X132967760Y-110300102D01*
X132896331Y-110442960D01*
X132896331Y-110728674D01*
X132967760Y-110871531D01*
X133824902Y-110228674D02*
X133896331Y-110371531D01*
X133896331Y-110728674D01*
X133824902Y-110871531D01*
X133682045Y-110942960D01*
X133539188Y-110942960D01*
X133396331Y-110871531D01*
X133324902Y-110728674D01*
X133324902Y-110371531D01*
X133253474Y-110228674D01*
X132539188Y-109585817D02*
X132467760Y-109514388D01*
X132396331Y-109371531D01*
X132396331Y-109014388D01*
X132467760Y-108871531D01*
X132539188Y-108800102D01*
X132682045Y-108728674D01*
X132824902Y-108728674D01*
X133039188Y-108800102D01*
X133896331Y-109657245D01*
X133896331Y-108728674D01*
X133896331Y-108085817D02*
X132396331Y-108085817D01*
X133467760Y-107585817D01*
X132396331Y-107085817D01*
X133896331Y-107085817D01*
X133896331Y-105728674D02*
X133110617Y-105728674D01*
X132967760Y-105800102D01*
X132896331Y-105942960D01*
X132896331Y-106228674D01*
X132967760Y-106371531D01*
X133824902Y-105728674D02*
X133896331Y-105871531D01*
X133896331Y-106228674D01*
X133824902Y-106371531D01*
X133682045Y-106442960D01*
X133539188Y-106442960D01*
X133396331Y-106371531D01*
X133324902Y-106228674D01*
X133324902Y-105871531D01*
X133253474Y-105728674D01*
X133824902Y-104371531D02*
X133896331Y-104514388D01*
X133896331Y-104800102D01*
X133824902Y-104942960D01*
X133753474Y-105014388D01*
X133610617Y-105085817D01*
X133182045Y-105085817D01*
X133039188Y-105014388D01*
X132967760Y-104942960D01*
X132896331Y-104800102D01*
X132896331Y-104514388D01*
X132967760Y-104371531D01*
X133110617Y-103228674D02*
X133110617Y-103728674D01*
X133896331Y-103728674D02*
X132396331Y-103728674D01*
X132396331Y-103014388D01*
X133896331Y-102228674D02*
X133824902Y-102371531D01*
X133682045Y-102442960D01*
X132396331Y-102442960D01*
X133896331Y-101442960D02*
X133824902Y-101585817D01*
X133753474Y-101657245D01*
X133610617Y-101728674D01*
X133182045Y-101728674D01*
X133039188Y-101657245D01*
X132967760Y-101585817D01*
X132896331Y-101442960D01*
X132896331Y-101228674D01*
X132967760Y-101085817D01*
X133039188Y-101014388D01*
X133182045Y-100942960D01*
X133610617Y-100942960D01*
X133753474Y-101014388D01*
X133824902Y-101085817D01*
X133896331Y-101228674D01*
X133896331Y-101442960D01*
X132896331Y-100300102D02*
X134396331Y-100300102D01*
X132967760Y-100300102D02*
X132896331Y-100157245D01*
X132896331Y-99871531D01*
X132967760Y-99728674D01*
X133039188Y-99657245D01*
X133182045Y-99585817D01*
X133610617Y-99585817D01*
X133753474Y-99657245D01*
X133824902Y-99728674D01*
X133896331Y-99871531D01*
X133896331Y-100157245D01*
X133824902Y-100300102D01*
X132896331Y-98942960D02*
X134396331Y-98942960D01*
X132967760Y-98942960D02*
X132896331Y-98800102D01*
X132896331Y-98514388D01*
X132967760Y-98371531D01*
X133039188Y-98300102D01*
X133182045Y-98228674D01*
X133610617Y-98228674D01*
X133753474Y-98300102D01*
X133824902Y-98371531D01*
X133896331Y-98514388D01*
X133896331Y-98800102D01*
X133824902Y-98942960D01*
X132896331Y-97728674D02*
X133896331Y-97371531D01*
X132896331Y-97014388D02*
X133896331Y-97371531D01*
X134253474Y-97514388D01*
X134324902Y-97585817D01*
X134396331Y-97728674D01*
X136396331Y-117550102D02*
X134896331Y-117550102D01*
X134896331Y-117192960D01*
X134967760Y-116978674D01*
X135110617Y-116835817D01*
X135253474Y-116764388D01*
X135539188Y-116692960D01*
X135753474Y-116692960D01*
X136039188Y-116764388D01*
X136182045Y-116835817D01*
X136324902Y-116978674D01*
X136396331Y-117192960D01*
X136396331Y-117550102D01*
X135610617Y-115550102D02*
X135682045Y-115335817D01*
X135753474Y-115264388D01*
X135896331Y-115192960D01*
X136110617Y-115192960D01*
X136253474Y-115264388D01*
X136324902Y-115335817D01*
X136396331Y-115478674D01*
X136396331Y-116050102D01*
X134896331Y-116050102D01*
X134896331Y-115550102D01*
X134967760Y-115407245D01*
X135039188Y-115335817D01*
X135182045Y-115264388D01*
X135324902Y-115264388D01*
X135467760Y-115335817D01*
X135539188Y-115407245D01*
X135610617Y-115550102D01*
X135610617Y-116050102D01*
X136396331Y-113764388D02*
X136396331Y-114621531D01*
X136396331Y-114192960D02*
X134896331Y-114192960D01*
X135110617Y-114335817D01*
X135253474Y-114478674D01*
X135324902Y-114621531D01*
X136396331Y-113050102D02*
X136396331Y-112764388D01*
X136324902Y-112621531D01*
X136253474Y-112550102D01*
X136039188Y-112407245D01*
X135753474Y-112335817D01*
X135182045Y-112335817D01*
X135039188Y-112407245D01*
X134967760Y-112478674D01*
X134896331Y-112621531D01*
X134896331Y-112907245D01*
X134967760Y-113050102D01*
X135039188Y-113121531D01*
X135182045Y-113192960D01*
X135539188Y-113192960D01*
X135682045Y-113121531D01*
X135753474Y-113050102D01*
X135824902Y-112907245D01*
X135824902Y-112621531D01*
X135753474Y-112478674D01*
X135682045Y-112407245D01*
X135539188Y-112335817D01*
X136396331Y-111692960D02*
X134896331Y-111692960D01*
X135967760Y-111192960D01*
X134896331Y-110692960D01*
X136396331Y-110692960D01*
X135396331Y-109050102D02*
X135396331Y-108478674D01*
X134896331Y-108835817D02*
X136182045Y-108835817D01*
X136324902Y-108764388D01*
X136396331Y-108621531D01*
X136396331Y-108478674D01*
X136396331Y-107764388D02*
X136324902Y-107907245D01*
X136253474Y-107978674D01*
X136110617Y-108050102D01*
X135682045Y-108050102D01*
X135539188Y-107978674D01*
X135467760Y-107907245D01*
X135396331Y-107764388D01*
X135396331Y-107550102D01*
X135467760Y-107407245D01*
X135539188Y-107335817D01*
X135682045Y-107264388D01*
X136110617Y-107264388D01*
X136253474Y-107335817D01*
X136324902Y-107407245D01*
X136396331Y-107550102D01*
X136396331Y-107764388D01*
X136396331Y-105478674D02*
X134896331Y-105478674D01*
X136396331Y-104764388D02*
X134896331Y-104764388D01*
X134896331Y-104407245D01*
X134967760Y-104192960D01*
X135110617Y-104050102D01*
X135253474Y-103978674D01*
X135539188Y-103907245D01*
X135753474Y-103907245D01*
X136039188Y-103978674D01*
X136182045Y-104050102D01*
X136324902Y-104192960D01*
X136396331Y-104407245D01*
X136396331Y-104764388D01*
X136253474Y-102407245D02*
X136324902Y-102478674D01*
X136396331Y-102692960D01*
X136396331Y-102835817D01*
X136324902Y-103050102D01*
X136182045Y-103192960D01*
X136039188Y-103264388D01*
X135753474Y-103335817D01*
X135539188Y-103335817D01*
X135253474Y-103264388D01*
X135110617Y-103192960D01*
X134967760Y-103050102D01*
X134896331Y-102835817D01*
X134896331Y-102692960D01*
X134967760Y-102478674D01*
X135039188Y-102407245D01*
X135039188Y-100692960D02*
X134967760Y-100621531D01*
X134896331Y-100478674D01*
X134896331Y-100121531D01*
X134967760Y-99978674D01*
X135039188Y-99907245D01*
X135182045Y-99835817D01*
X135324902Y-99835817D01*
X135539188Y-99907245D01*
X136396331Y-100764388D01*
X136396331Y-99835817D01*
X136396331Y-99335817D02*
X135396331Y-98550102D01*
X135396331Y-99335817D02*
X136396331Y-98550102D01*
X136396331Y-97192960D02*
X136396331Y-98050102D01*
X136396331Y-97621531D02*
X134896331Y-97621531D01*
X135110617Y-97764388D01*
X135253474Y-97907245D01*
X135324902Y-98050102D01*
X134896331Y-96264388D02*
X134896331Y-96121531D01*
X134967760Y-95978674D01*
X135039188Y-95907245D01*
X135182045Y-95835817D01*
X135467760Y-95764388D01*
X135824902Y-95764388D01*
X136110617Y-95835817D01*
X136253474Y-95907245D01*
X136324902Y-95978674D01*
X136396331Y-96121531D01*
X136396331Y-96264388D01*
X136324902Y-96407245D01*
X136253474Y-96478674D01*
X136110617Y-96550102D01*
X135824902Y-96621531D01*
X135467760Y-96621531D01*
X135182045Y-96550102D01*
X135039188Y-96478674D01*
X134967760Y-96407245D01*
X134896331Y-96264388D01*
D11*
X153039188Y-95597721D02*
X153039188Y-95264388D01*
X152515379Y-95264388D02*
X153515379Y-95264388D01*
X153515379Y-95740579D01*
X152515379Y-96121531D02*
X153182045Y-96121531D01*
X152991569Y-96121531D02*
X153086807Y-96169150D01*
X153134426Y-96216769D01*
X153182045Y-96312007D01*
X153182045Y-96407245D01*
X152515379Y-97169150D02*
X153039188Y-97169150D01*
X153134426Y-97121531D01*
X153182045Y-97026293D01*
X153182045Y-96835817D01*
X153134426Y-96740579D01*
X152562998Y-97169150D02*
X152515379Y-97073912D01*
X152515379Y-96835817D01*
X152562998Y-96740579D01*
X152658236Y-96692960D01*
X152753474Y-96692960D01*
X152848712Y-96740579D01*
X152896331Y-96835817D01*
X152896331Y-97073912D01*
X152943950Y-97169150D01*
X153182045Y-97645340D02*
X152515379Y-97645340D01*
X153086807Y-97645340D02*
X153134426Y-97692960D01*
X153182045Y-97788198D01*
X153182045Y-97931055D01*
X153134426Y-98026293D01*
X153039188Y-98073912D01*
X152515379Y-98073912D01*
X152515379Y-98550102D02*
X153515379Y-98550102D01*
X152896331Y-98645340D02*
X152515379Y-98931055D01*
X153182045Y-98931055D02*
X152801093Y-98550102D01*
X153515379Y-99407245D02*
X153324902Y-99312007D01*
X152562998Y-99788198D02*
X152515379Y-99883436D01*
X152515379Y-100073912D01*
X152562998Y-100169150D01*
X152658236Y-100216769D01*
X152705855Y-100216769D01*
X152801093Y-100169150D01*
X152848712Y-100073912D01*
X152848712Y-99931055D01*
X152896331Y-99835817D01*
X152991569Y-99788198D01*
X153039188Y-99788198D01*
X153134426Y-99835817D01*
X153182045Y-99931055D01*
X153182045Y-100073912D01*
X153134426Y-100169150D01*
X153515379Y-101312007D02*
X153515379Y-101931055D01*
X153134426Y-101597721D01*
X153134426Y-101740579D01*
X153086807Y-101835817D01*
X153039188Y-101883436D01*
X152943950Y-101931055D01*
X152705855Y-101931055D01*
X152610617Y-101883436D01*
X152562998Y-101835817D01*
X152515379Y-101740579D01*
X152515379Y-101454864D01*
X152562998Y-101359626D01*
X152610617Y-101312007D01*
X152515379Y-102359626D02*
X153515379Y-102359626D01*
X153515379Y-102597721D01*
X153467760Y-102740579D01*
X153372521Y-102835817D01*
X153277283Y-102883436D01*
X153086807Y-102931055D01*
X152943950Y-102931055D01*
X152753474Y-102883436D01*
X152658236Y-102835817D01*
X152562998Y-102740579D01*
X152515379Y-102597721D01*
X152515379Y-102359626D01*
X152562998Y-104073912D02*
X152515379Y-104216769D01*
X152515379Y-104454864D01*
X152562998Y-104550102D01*
X152610617Y-104597721D01*
X152705855Y-104645340D01*
X152801093Y-104645340D01*
X152896331Y-104597721D01*
X152943950Y-104550102D01*
X152991569Y-104454864D01*
X153039188Y-104264388D01*
X153086807Y-104169150D01*
X153134426Y-104121531D01*
X153229664Y-104073912D01*
X153324902Y-104073912D01*
X153420140Y-104121531D01*
X153467760Y-104169150D01*
X153515379Y-104264388D01*
X153515379Y-104502483D01*
X153467760Y-104645340D01*
X152515379Y-105073912D02*
X153515379Y-105073912D01*
X152515379Y-105502483D02*
X153039188Y-105502483D01*
X153134426Y-105454864D01*
X153182045Y-105359626D01*
X153182045Y-105216769D01*
X153134426Y-105121531D01*
X153086807Y-105073912D01*
X152515379Y-106121531D02*
X152562998Y-106026293D01*
X152610617Y-105978674D01*
X152705855Y-105931055D01*
X152991569Y-105931055D01*
X153086807Y-105978674D01*
X153134426Y-106026293D01*
X153182045Y-106121531D01*
X153182045Y-106264388D01*
X153134426Y-106359626D01*
X153086807Y-106407245D01*
X152991569Y-106454864D01*
X152705855Y-106454864D01*
X152610617Y-106407245D01*
X152562998Y-106359626D01*
X152515379Y-106264388D01*
X152515379Y-106121531D01*
X153182045Y-106883436D02*
X152182045Y-106883436D01*
X153134426Y-106883436D02*
X153182045Y-106978674D01*
X153182045Y-107169150D01*
X153134426Y-107264388D01*
X153086807Y-107312007D01*
X152991569Y-107359626D01*
X152705855Y-107359626D01*
X152610617Y-107312007D01*
X152562998Y-107264388D01*
X152515379Y-107169150D01*
X152515379Y-106978674D01*
X152562998Y-106883436D01*
X152515379Y-109359626D02*
X152515379Y-109312007D01*
X152562998Y-109216769D01*
X152705855Y-109073912D01*
X152991569Y-108835817D01*
X153134426Y-108740579D01*
X153277283Y-108692960D01*
X153372521Y-108692960D01*
X153467760Y-108740579D01*
X153515379Y-108835817D01*
X153515379Y-108883436D01*
X153467760Y-108978674D01*
X153372521Y-109026293D01*
X153324902Y-109026293D01*
X153229664Y-108978674D01*
X153182045Y-108931055D01*
X152991569Y-108645340D01*
X152943950Y-108597721D01*
X152848712Y-108550102D01*
X152705855Y-108550102D01*
X152610617Y-108597721D01*
X152562998Y-108645340D01*
X152515379Y-108740579D01*
X152515379Y-108883436D01*
X152562998Y-108978674D01*
X152610617Y-109026293D01*
X152801093Y-109169150D01*
X152943950Y-109216769D01*
X153039188Y-109216769D01*
X152515379Y-110550102D02*
X153515379Y-110550102D01*
X153515379Y-110788198D01*
X153467760Y-110931055D01*
X153372521Y-111026293D01*
X153277283Y-111073912D01*
X153086807Y-111121531D01*
X152943950Y-111121531D01*
X152753474Y-111073912D01*
X152658236Y-111026293D01*
X152562998Y-110931055D01*
X152515379Y-110788198D01*
X152515379Y-110550102D01*
X152515379Y-111550102D02*
X153182045Y-111550102D01*
X152991569Y-111550102D02*
X153086807Y-111597721D01*
X153134426Y-111645340D01*
X153182045Y-111740579D01*
X153182045Y-111835817D01*
X152610617Y-112169150D02*
X152562998Y-112216769D01*
X152515379Y-112169150D01*
X152562998Y-112121531D01*
X152610617Y-112169150D01*
X152515379Y-112169150D01*
X152515379Y-113407245D02*
X153515379Y-113407245D01*
X153515379Y-113645340D01*
X153467760Y-113788198D01*
X153372521Y-113883436D01*
X153277283Y-113931055D01*
X153086807Y-113978674D01*
X152943950Y-113978674D01*
X152753474Y-113931055D01*
X152658236Y-113883436D01*
X152562998Y-113788198D01*
X152515379Y-113645340D01*
X152515379Y-113407245D01*
X152515379Y-114835817D02*
X153039188Y-114835817D01*
X153134426Y-114788198D01*
X153182045Y-114692960D01*
X153182045Y-114502483D01*
X153134426Y-114407245D01*
X152562998Y-114835817D02*
X152515379Y-114740579D01*
X152515379Y-114502483D01*
X152562998Y-114407245D01*
X152658236Y-114359626D01*
X152753474Y-114359626D01*
X152848712Y-114407245D01*
X152896331Y-114502483D01*
X152896331Y-114740579D01*
X152943950Y-114835817D01*
X153182045Y-115216769D02*
X152515379Y-115454864D01*
X153182045Y-115692960D01*
X152562998Y-116454864D02*
X152515379Y-116359626D01*
X152515379Y-116169150D01*
X152562998Y-116073912D01*
X152658236Y-116026293D01*
X153039188Y-116026293D01*
X153134426Y-116073912D01*
X153182045Y-116169150D01*
X153182045Y-116359626D01*
X153134426Y-116454864D01*
X153039188Y-116502483D01*
X152943950Y-116502483D01*
X152848712Y-116026293D01*
X153515379Y-116978674D02*
X153324902Y-116883436D01*
X152562998Y-117359626D02*
X152515379Y-117454864D01*
X152515379Y-117645340D01*
X152562998Y-117740579D01*
X152658236Y-117788198D01*
X152705855Y-117788198D01*
X152801093Y-117740579D01*
X152848712Y-117645340D01*
X152848712Y-117502483D01*
X152896331Y-117407245D01*
X152991569Y-117359626D01*
X153039188Y-117359626D01*
X153134426Y-117407245D01*
X153182045Y-117502483D01*
X153182045Y-117645340D01*
X153134426Y-117740579D01*
X152515379Y-118978674D02*
X153515379Y-118978674D01*
X153515379Y-119216769D01*
X153467760Y-119359626D01*
X153372521Y-119454864D01*
X153277283Y-119502483D01*
X153086807Y-119550102D01*
X152943950Y-119550102D01*
X152753474Y-119502483D01*
X152658236Y-119454864D01*
X152562998Y-119359626D01*
X152515379Y-119216769D01*
X152515379Y-118978674D01*
X152515379Y-119978674D02*
X153182045Y-119978674D01*
X153515379Y-119978674D02*
X153467760Y-119931055D01*
X153420140Y-119978674D01*
X153467760Y-120026293D01*
X153515379Y-119978674D01*
X153420140Y-119978674D01*
X153182045Y-120359626D02*
X152515379Y-120597721D01*
X153182045Y-120835817D01*
X152562998Y-121597721D02*
X152515379Y-121502483D01*
X152515379Y-121312007D01*
X152562998Y-121216769D01*
X152658236Y-121169150D01*
X153039188Y-121169150D01*
X153134426Y-121216769D01*
X153182045Y-121312007D01*
X153182045Y-121502483D01*
X153134426Y-121597721D01*
X153039188Y-121645340D01*
X152943950Y-121645340D01*
X152848712Y-121169150D01*
X152515379Y-122073912D02*
X153182045Y-122073912D01*
X152991569Y-122073912D02*
X153086807Y-122121531D01*
X153134426Y-122169150D01*
X153182045Y-122264388D01*
X153182045Y-122359626D01*
X152562998Y-122645340D02*
X152515379Y-122740579D01*
X152515379Y-122931055D01*
X152562998Y-123026293D01*
X152658236Y-123073912D01*
X152705855Y-123073912D01*
X152801093Y-123026293D01*
X152848712Y-122931055D01*
X152848712Y-122788198D01*
X152896331Y-122692960D01*
X152991569Y-122645340D01*
X153039188Y-122645340D01*
X153134426Y-122692960D01*
X153182045Y-122788198D01*
X153182045Y-122931055D01*
X153134426Y-123026293D01*
X152515379Y-123502483D02*
X153182045Y-123502483D01*
X153515379Y-123502483D02*
X153467760Y-123454864D01*
X153420140Y-123502483D01*
X153467760Y-123550102D01*
X153515379Y-123502483D01*
X153420140Y-123502483D01*
X152515379Y-124121531D02*
X152562998Y-124026293D01*
X152610617Y-123978674D01*
X152705855Y-123931055D01*
X152991569Y-123931055D01*
X153086807Y-123978674D01*
X153134426Y-124026293D01*
X153182045Y-124121531D01*
X153182045Y-124264388D01*
X153134426Y-124359626D01*
X153086807Y-124407245D01*
X152991569Y-124454864D01*
X152705855Y-124454864D01*
X152610617Y-124407245D01*
X152562998Y-124359626D01*
X152515379Y-124264388D01*
X152515379Y-124121531D01*
X153182045Y-124883436D02*
X152515379Y-124883436D01*
X153086807Y-124883436D02*
X153134426Y-124931055D01*
X153182045Y-125026293D01*
X153182045Y-125169150D01*
X153134426Y-125264388D01*
X153039188Y-125312007D01*
X152515379Y-125312007D01*
X152562998Y-125740579D02*
X152515379Y-125835817D01*
X152515379Y-126026293D01*
X152562998Y-126121531D01*
X152658236Y-126169150D01*
X152705855Y-126169150D01*
X152801093Y-126121531D01*
X152848712Y-126026293D01*
X152848712Y-125883436D01*
X152896331Y-125788198D01*
X152991569Y-125740579D01*
X153039188Y-125740579D01*
X153134426Y-125788198D01*
X153182045Y-125883436D01*
X153182045Y-126026293D01*
X153134426Y-126121531D01*
D12*
%TO.C,J2*%
X149258000Y-125403000D02*
X140138000Y-125403000D01*
X140138000Y-125403000D02*
X140138000Y-92123000D01*
X140138000Y-92123000D02*
X149258000Y-92123000D01*
X149258000Y-92123000D02*
X149258000Y-125403000D01*
X149258000Y-110813000D02*
X147948000Y-110813000D01*
X147948000Y-110813000D02*
X147948000Y-124103000D01*
X147948000Y-124103000D02*
X141448000Y-124103000D01*
X141448000Y-124103000D02*
X141448000Y-93423000D01*
X141448000Y-93423000D02*
X147948000Y-93423000D01*
X147948000Y-93423000D02*
X147948000Y-106713000D01*
X147948000Y-106713000D02*
X147948000Y-106713000D01*
X147948000Y-106713000D02*
X149258000Y-106713000D01*
X149648000Y-120193000D02*
X150648000Y-120693000D01*
X150648000Y-120693000D02*
X150648000Y-119693000D01*
X150648000Y-119693000D02*
X149648000Y-120193000D01*
%TO.C,J5*%
X160208000Y-94707667D02*
X156468000Y-94707667D01*
X156468000Y-94707667D02*
X156468000Y-121932333D01*
X156468000Y-121932333D02*
X160208000Y-121932333D01*
X158468000Y-122172333D02*
X156228000Y-122172333D01*
X156228000Y-122172333D02*
X156228000Y-117979000D01*
%TO.C,J2*%
D11*
X138277880Y-109309733D02*
X138992166Y-109309733D01*
X139135023Y-109357352D01*
X139230261Y-109452590D01*
X139277880Y-109595447D01*
X139277880Y-109690685D01*
X138373119Y-108881161D02*
X138325500Y-108833542D01*
X138277880Y-108738304D01*
X138277880Y-108500209D01*
X138325500Y-108404971D01*
X138373119Y-108357352D01*
X138468357Y-108309733D01*
X138563595Y-108309733D01*
X138706452Y-108357352D01*
X139277880Y-108928780D01*
X139277880Y-108309733D01*
%TO.C,J5*%
X157920380Y-125005666D02*
X158634666Y-125005666D01*
X158777523Y-125053285D01*
X158872761Y-125148523D01*
X158920380Y-125291380D01*
X158920380Y-125386618D01*
X157920380Y-124053285D02*
X157920380Y-124529475D01*
X158396571Y-124577094D01*
X158348952Y-124529475D01*
X158301333Y-124434237D01*
X158301333Y-124196142D01*
X158348952Y-124100904D01*
X158396571Y-124053285D01*
X158491809Y-124005666D01*
X158729904Y-124005666D01*
X158825142Y-124053285D01*
X158872761Y-124100904D01*
X158920380Y-124196142D01*
X158920380Y-124434237D01*
X158872761Y-124529475D01*
X158825142Y-124577094D01*
%TD*%
M02*
