%TF.GenerationSoftware,KiCad,Pcbnew,(5.1.9)-1*%
%TF.CreationDate,2021-07-05T16:45:00-04:00*%
%TF.ProjectId,Amiga2MacFloppy,416d6967-6132-44d6-9163-466c6f707079,1.0*%
%TF.SameCoordinates,Original*%
%TF.FileFunction,Legend,Bot*%
%TF.FilePolarity,Positive*%
%FSLAX46Y46*%
G04 Gerber Fmt 4.6, Leading zero omitted, Abs format (unit mm)*
G04 Created by KiCad (PCBNEW (5.1.9)-1) date 2021-07-05 16:45:00*
%MOMM*%
%LPD*%
G01*
G04 APERTURE LIST*
%ADD10C,0.150000*%
G04 APERTURE END LIST*
D10*
X153282045Y-121778674D02*
X153282045Y-122078674D01*
X152810617Y-122078674D02*
X153710617Y-122078674D01*
X153710617Y-121650102D01*
X152810617Y-121307245D02*
X153410617Y-121307245D01*
X153239188Y-121307245D02*
X153324902Y-121264388D01*
X153367760Y-121221531D01*
X153410617Y-121135817D01*
X153410617Y-121050102D01*
X152810617Y-120364388D02*
X153282045Y-120364388D01*
X153367760Y-120407245D01*
X153410617Y-120492960D01*
X153410617Y-120664388D01*
X153367760Y-120750102D01*
X152853474Y-120364388D02*
X152810617Y-120450102D01*
X152810617Y-120664388D01*
X152853474Y-120750102D01*
X152939188Y-120792960D01*
X153024902Y-120792960D01*
X153110617Y-120750102D01*
X153153474Y-120664388D01*
X153153474Y-120450102D01*
X153196331Y-120364388D01*
X153410617Y-119935817D02*
X152810617Y-119935817D01*
X153324902Y-119935817D02*
X153367760Y-119892960D01*
X153410617Y-119807245D01*
X153410617Y-119678674D01*
X153367760Y-119592960D01*
X153282045Y-119550102D01*
X152810617Y-119550102D01*
X152810617Y-119121531D02*
X153710617Y-119121531D01*
X153153474Y-119035817D02*
X152810617Y-118778674D01*
X153410617Y-118778674D02*
X153067760Y-119121531D01*
X153710617Y-118350102D02*
X153539188Y-118435817D01*
X152853474Y-118007245D02*
X152810617Y-117921531D01*
X152810617Y-117750102D01*
X152853474Y-117664388D01*
X152939188Y-117621531D01*
X152982045Y-117621531D01*
X153067760Y-117664388D01*
X153110617Y-117750102D01*
X153110617Y-117878674D01*
X153153474Y-117964388D01*
X153239188Y-118007245D01*
X153282045Y-118007245D01*
X153367760Y-117964388D01*
X153410617Y-117878674D01*
X153410617Y-117750102D01*
X153367760Y-117664388D01*
X153710617Y-116635817D02*
X153710617Y-116078674D01*
X153367760Y-116378674D01*
X153367760Y-116250102D01*
X153324902Y-116164388D01*
X153282045Y-116121531D01*
X153196331Y-116078674D01*
X152982045Y-116078674D01*
X152896331Y-116121531D01*
X152853474Y-116164388D01*
X152810617Y-116250102D01*
X152810617Y-116507245D01*
X152853474Y-116592960D01*
X152896331Y-116635817D01*
X152810617Y-115692960D02*
X153710617Y-115692960D01*
X153710617Y-115478674D01*
X153667760Y-115350102D01*
X153582045Y-115264388D01*
X153496331Y-115221531D01*
X153324902Y-115178674D01*
X153196331Y-115178674D01*
X153024902Y-115221531D01*
X152939188Y-115264388D01*
X152853474Y-115350102D01*
X152810617Y-115478674D01*
X152810617Y-115692960D01*
X152853474Y-114150102D02*
X152810617Y-114021531D01*
X152810617Y-113807245D01*
X152853474Y-113721531D01*
X152896331Y-113678674D01*
X152982045Y-113635817D01*
X153067760Y-113635817D01*
X153153474Y-113678674D01*
X153196331Y-113721531D01*
X153239188Y-113807245D01*
X153282045Y-113978674D01*
X153324902Y-114064388D01*
X153367760Y-114107245D01*
X153453474Y-114150102D01*
X153539188Y-114150102D01*
X153624902Y-114107245D01*
X153667760Y-114064388D01*
X153710617Y-113978674D01*
X153710617Y-113764388D01*
X153667760Y-113635817D01*
X152810617Y-113250102D02*
X153710617Y-113250102D01*
X152810617Y-112864388D02*
X153282045Y-112864388D01*
X153367760Y-112907245D01*
X153410617Y-112992960D01*
X153410617Y-113121531D01*
X153367760Y-113207245D01*
X153324902Y-113250102D01*
X152810617Y-112307245D02*
X152853474Y-112392960D01*
X152896331Y-112435817D01*
X152982045Y-112478674D01*
X153239188Y-112478674D01*
X153324902Y-112435817D01*
X153367760Y-112392960D01*
X153410617Y-112307245D01*
X153410617Y-112178674D01*
X153367760Y-112092960D01*
X153324902Y-112050102D01*
X153239188Y-112007245D01*
X152982045Y-112007245D01*
X152896331Y-112050102D01*
X152853474Y-112092960D01*
X152810617Y-112178674D01*
X152810617Y-112307245D01*
X153410617Y-111621531D02*
X152510617Y-111621531D01*
X153367760Y-111621531D02*
X153410617Y-111535817D01*
X153410617Y-111364388D01*
X153367760Y-111278674D01*
X153324902Y-111235817D01*
X153239188Y-111192960D01*
X152982045Y-111192960D01*
X152896331Y-111235817D01*
X152853474Y-111278674D01*
X152810617Y-111364388D01*
X152810617Y-111535817D01*
X152853474Y-111621531D01*
X152810617Y-109392960D02*
X152810617Y-109435817D01*
X152853474Y-109521531D01*
X152982045Y-109650102D01*
X153239188Y-109864388D01*
X153367760Y-109950102D01*
X153496331Y-109992960D01*
X153582045Y-109992960D01*
X153667760Y-109950102D01*
X153710617Y-109864388D01*
X153710617Y-109821531D01*
X153667760Y-109735817D01*
X153582045Y-109692960D01*
X153539188Y-109692960D01*
X153453474Y-109735817D01*
X153410617Y-109778674D01*
X153239188Y-110035817D01*
X153196331Y-110078674D01*
X153110617Y-110121531D01*
X152982045Y-110121531D01*
X152896331Y-110078674D01*
X152853474Y-110035817D01*
X152810617Y-109950102D01*
X152810617Y-109821531D01*
X152853474Y-109735817D01*
X152896331Y-109692960D01*
X153067760Y-109564388D01*
X153196331Y-109521531D01*
X153282045Y-109521531D01*
X152810617Y-108321531D02*
X153710617Y-108321531D01*
X153710617Y-108107245D01*
X153667760Y-107978674D01*
X153582045Y-107892960D01*
X153496331Y-107850102D01*
X153324902Y-107807245D01*
X153196331Y-107807245D01*
X153024902Y-107850102D01*
X152939188Y-107892960D01*
X152853474Y-107978674D01*
X152810617Y-108107245D01*
X152810617Y-108321531D01*
X152810617Y-107421531D02*
X153410617Y-107421531D01*
X153239188Y-107421531D02*
X153324902Y-107378674D01*
X153367760Y-107335817D01*
X153410617Y-107250102D01*
X153410617Y-107164388D01*
X152896331Y-106864388D02*
X152853474Y-106821531D01*
X152810617Y-106864388D01*
X152853474Y-106907245D01*
X152896331Y-106864388D01*
X152810617Y-106864388D01*
X152810617Y-105750102D02*
X153710617Y-105750102D01*
X153710617Y-105535817D01*
X153667760Y-105407245D01*
X153582045Y-105321531D01*
X153496331Y-105278674D01*
X153324902Y-105235817D01*
X153196331Y-105235817D01*
X153024902Y-105278674D01*
X152939188Y-105321531D01*
X152853474Y-105407245D01*
X152810617Y-105535817D01*
X152810617Y-105750102D01*
X152810617Y-104464388D02*
X153282045Y-104464388D01*
X153367760Y-104507245D01*
X153410617Y-104592960D01*
X153410617Y-104764388D01*
X153367760Y-104850102D01*
X152853474Y-104464388D02*
X152810617Y-104550102D01*
X152810617Y-104764388D01*
X152853474Y-104850102D01*
X152939188Y-104892960D01*
X153024902Y-104892960D01*
X153110617Y-104850102D01*
X153153474Y-104764388D01*
X153153474Y-104550102D01*
X153196331Y-104464388D01*
X153410617Y-104121531D02*
X152810617Y-103907245D01*
X153410617Y-103692960D01*
X152853474Y-103007245D02*
X152810617Y-103092960D01*
X152810617Y-103264388D01*
X152853474Y-103350102D01*
X152939188Y-103392960D01*
X153282045Y-103392960D01*
X153367760Y-103350102D01*
X153410617Y-103264388D01*
X153410617Y-103092960D01*
X153367760Y-103007245D01*
X153282045Y-102964388D01*
X153196331Y-102964388D01*
X153110617Y-103392960D01*
X153710617Y-102535817D02*
X153539188Y-102621531D01*
X152853474Y-102192960D02*
X152810617Y-102107245D01*
X152810617Y-101935817D01*
X152853474Y-101850102D01*
X152939188Y-101807245D01*
X152982045Y-101807245D01*
X153067760Y-101850102D01*
X153110617Y-101935817D01*
X153110617Y-102064388D01*
X153153474Y-102150102D01*
X153239188Y-102192960D01*
X153282045Y-102192960D01*
X153367760Y-102150102D01*
X153410617Y-102064388D01*
X153410617Y-101935817D01*
X153367760Y-101850102D01*
X152810617Y-100735817D02*
X153710617Y-100735817D01*
X153710617Y-100521531D01*
X153667760Y-100392960D01*
X153582045Y-100307245D01*
X153496331Y-100264388D01*
X153324902Y-100221531D01*
X153196331Y-100221531D01*
X153024902Y-100264388D01*
X152939188Y-100307245D01*
X152853474Y-100392960D01*
X152810617Y-100521531D01*
X152810617Y-100735817D01*
X152810617Y-99835817D02*
X153410617Y-99835817D01*
X153710617Y-99835817D02*
X153667760Y-99878674D01*
X153624902Y-99835817D01*
X153667760Y-99792960D01*
X153710617Y-99835817D01*
X153624902Y-99835817D01*
X153410617Y-99492960D02*
X152810617Y-99278674D01*
X153410617Y-99064388D01*
X152853474Y-98378674D02*
X152810617Y-98464388D01*
X152810617Y-98635817D01*
X152853474Y-98721531D01*
X152939188Y-98764388D01*
X153282045Y-98764388D01*
X153367760Y-98721531D01*
X153410617Y-98635817D01*
X153410617Y-98464388D01*
X153367760Y-98378674D01*
X153282045Y-98335817D01*
X153196331Y-98335817D01*
X153110617Y-98764388D01*
X152810617Y-97950102D02*
X153410617Y-97950102D01*
X153239188Y-97950102D02*
X153324902Y-97907245D01*
X153367760Y-97864388D01*
X153410617Y-97778674D01*
X153410617Y-97692960D01*
X152853474Y-97435817D02*
X152810617Y-97350102D01*
X152810617Y-97178674D01*
X152853474Y-97092960D01*
X152939188Y-97050102D01*
X152982045Y-97050102D01*
X153067760Y-97092960D01*
X153110617Y-97178674D01*
X153110617Y-97307245D01*
X153153474Y-97392960D01*
X153239188Y-97435817D01*
X153282045Y-97435817D01*
X153367760Y-97392960D01*
X153410617Y-97307245D01*
X153410617Y-97178674D01*
X153367760Y-97092960D01*
X152810617Y-96664388D02*
X153410617Y-96664388D01*
X153710617Y-96664388D02*
X153667760Y-96707245D01*
X153624902Y-96664388D01*
X153667760Y-96621531D01*
X153710617Y-96664388D01*
X153624902Y-96664388D01*
X152810617Y-96107245D02*
X152853474Y-96192960D01*
X152896331Y-96235817D01*
X152982045Y-96278674D01*
X153239188Y-96278674D01*
X153324902Y-96235817D01*
X153367760Y-96192960D01*
X153410617Y-96107245D01*
X153410617Y-95978674D01*
X153367760Y-95892960D01*
X153324902Y-95850102D01*
X153239188Y-95807245D01*
X152982045Y-95807245D01*
X152896331Y-95850102D01*
X152853474Y-95892960D01*
X152810617Y-95978674D01*
X152810617Y-96107245D01*
X153410617Y-95421531D02*
X152810617Y-95421531D01*
X153324902Y-95421531D02*
X153367760Y-95378674D01*
X153410617Y-95292960D01*
X153410617Y-95164388D01*
X153367760Y-95078674D01*
X153282045Y-95035817D01*
X152810617Y-95035817D01*
X152853474Y-94650102D02*
X152810617Y-94564388D01*
X152810617Y-94392960D01*
X152853474Y-94307245D01*
X152939188Y-94264388D01*
X152982045Y-94264388D01*
X153067760Y-94307245D01*
X153110617Y-94392960D01*
X153110617Y-94521531D01*
X153153474Y-94607245D01*
X153239188Y-94650102D01*
X153282045Y-94650102D01*
X153367760Y-94607245D01*
X153410617Y-94521531D01*
X153410617Y-94392960D01*
X153367760Y-94307245D01*
X151310617Y-126107245D02*
X152210617Y-126107245D01*
X151310617Y-125721531D02*
X151782045Y-125721531D01*
X151867760Y-125764388D01*
X151910617Y-125850102D01*
X151910617Y-125978674D01*
X151867760Y-126064388D01*
X151824902Y-126107245D01*
X151910617Y-125421531D02*
X151910617Y-125078674D01*
X152210617Y-125292960D02*
X151439188Y-125292960D01*
X151353474Y-125250102D01*
X151310617Y-125164388D01*
X151310617Y-125078674D01*
X151910617Y-124907245D02*
X151910617Y-124564388D01*
X152210617Y-124778674D02*
X151439188Y-124778674D01*
X151353474Y-124735817D01*
X151310617Y-124650102D01*
X151310617Y-124564388D01*
X151910617Y-124264388D02*
X151010617Y-124264388D01*
X151867760Y-124264388D02*
X151910617Y-124178674D01*
X151910617Y-124007245D01*
X151867760Y-123921531D01*
X151824902Y-123878674D01*
X151739188Y-123835817D01*
X151482045Y-123835817D01*
X151396331Y-123878674D01*
X151353474Y-123921531D01*
X151310617Y-124007245D01*
X151310617Y-124178674D01*
X151353474Y-124264388D01*
X151353474Y-123492960D02*
X151310617Y-123407245D01*
X151310617Y-123235817D01*
X151353474Y-123150102D01*
X151439188Y-123107245D01*
X151482045Y-123107245D01*
X151567760Y-123150102D01*
X151610617Y-123235817D01*
X151610617Y-123364388D01*
X151653474Y-123450102D01*
X151739188Y-123492960D01*
X151782045Y-123492960D01*
X151867760Y-123450102D01*
X151910617Y-123364388D01*
X151910617Y-123235817D01*
X151867760Y-123150102D01*
X151396331Y-122721531D02*
X151353474Y-122678674D01*
X151310617Y-122721531D01*
X151353474Y-122764388D01*
X151396331Y-122721531D01*
X151310617Y-122721531D01*
X151867760Y-122721531D02*
X151824902Y-122678674D01*
X151782045Y-122721531D01*
X151824902Y-122764388D01*
X151867760Y-122721531D01*
X151782045Y-122721531D01*
X152253474Y-121650102D02*
X151096331Y-122421531D01*
X152253474Y-120707245D02*
X151096331Y-121478674D01*
X151910617Y-120021531D02*
X151182045Y-120021531D01*
X151096331Y-120064388D01*
X151053474Y-120107245D01*
X151010617Y-120192960D01*
X151010617Y-120321531D01*
X151053474Y-120407245D01*
X151353474Y-120021531D02*
X151310617Y-120107245D01*
X151310617Y-120278674D01*
X151353474Y-120364388D01*
X151396331Y-120407245D01*
X151482045Y-120450102D01*
X151739188Y-120450102D01*
X151824902Y-120407245D01*
X151867760Y-120364388D01*
X151910617Y-120278674D01*
X151910617Y-120107245D01*
X151867760Y-120021531D01*
X151310617Y-119592960D02*
X151910617Y-119592960D01*
X152210617Y-119592960D02*
X152167760Y-119635817D01*
X152124902Y-119592960D01*
X152167760Y-119550102D01*
X152210617Y-119592960D01*
X152124902Y-119592960D01*
X151910617Y-119292960D02*
X151910617Y-118950102D01*
X152210617Y-119164388D02*
X151439188Y-119164388D01*
X151353474Y-119121531D01*
X151310617Y-119035817D01*
X151310617Y-118950102D01*
X151310617Y-118650102D02*
X152210617Y-118650102D01*
X151310617Y-118264388D02*
X151782045Y-118264388D01*
X151867760Y-118307245D01*
X151910617Y-118392960D01*
X151910617Y-118521531D01*
X151867760Y-118607245D01*
X151824902Y-118650102D01*
X151910617Y-117450102D02*
X151310617Y-117450102D01*
X151910617Y-117835817D02*
X151439188Y-117835817D01*
X151353474Y-117792960D01*
X151310617Y-117707245D01*
X151310617Y-117578674D01*
X151353474Y-117492960D01*
X151396331Y-117450102D01*
X151310617Y-117021531D02*
X152210617Y-117021531D01*
X151867760Y-117021531D02*
X151910617Y-116935817D01*
X151910617Y-116764388D01*
X151867760Y-116678674D01*
X151824902Y-116635817D01*
X151739188Y-116592960D01*
X151482045Y-116592960D01*
X151396331Y-116635817D01*
X151353474Y-116678674D01*
X151310617Y-116764388D01*
X151310617Y-116935817D01*
X151353474Y-117021531D01*
X151396331Y-116207245D02*
X151353474Y-116164388D01*
X151310617Y-116207245D01*
X151353474Y-116250102D01*
X151396331Y-116207245D01*
X151310617Y-116207245D01*
X151353474Y-115392960D02*
X151310617Y-115478674D01*
X151310617Y-115650102D01*
X151353474Y-115735817D01*
X151396331Y-115778674D01*
X151482045Y-115821531D01*
X151739188Y-115821531D01*
X151824902Y-115778674D01*
X151867760Y-115735817D01*
X151910617Y-115650102D01*
X151910617Y-115478674D01*
X151867760Y-115392960D01*
X151310617Y-114878674D02*
X151353474Y-114964388D01*
X151396331Y-115007245D01*
X151482045Y-115050102D01*
X151739188Y-115050102D01*
X151824902Y-115007245D01*
X151867760Y-114964388D01*
X151910617Y-114878674D01*
X151910617Y-114750102D01*
X151867760Y-114664388D01*
X151824902Y-114621531D01*
X151739188Y-114578674D01*
X151482045Y-114578674D01*
X151396331Y-114621531D01*
X151353474Y-114664388D01*
X151310617Y-114750102D01*
X151310617Y-114878674D01*
X151310617Y-114192960D02*
X151910617Y-114192960D01*
X151824902Y-114192960D02*
X151867760Y-114150102D01*
X151910617Y-114064388D01*
X151910617Y-113935817D01*
X151867760Y-113850102D01*
X151782045Y-113807245D01*
X151310617Y-113807245D01*
X151782045Y-113807245D02*
X151867760Y-113764388D01*
X151910617Y-113678674D01*
X151910617Y-113550102D01*
X151867760Y-113464388D01*
X151782045Y-113421531D01*
X151310617Y-113421531D01*
X152253474Y-112350102D02*
X151096331Y-113121531D01*
X151782045Y-111750102D02*
X151782045Y-112050102D01*
X151310617Y-112050102D02*
X152210617Y-112050102D01*
X152210617Y-111621531D01*
X151310617Y-111278674D02*
X151910617Y-111278674D01*
X151739188Y-111278674D02*
X151824902Y-111235817D01*
X151867760Y-111192960D01*
X151910617Y-111107245D01*
X151910617Y-111021531D01*
X151310617Y-110335817D02*
X151782045Y-110335817D01*
X151867760Y-110378674D01*
X151910617Y-110464388D01*
X151910617Y-110635817D01*
X151867760Y-110721531D01*
X151353474Y-110335817D02*
X151310617Y-110421531D01*
X151310617Y-110635817D01*
X151353474Y-110721531D01*
X151439188Y-110764388D01*
X151524902Y-110764388D01*
X151610617Y-110721531D01*
X151653474Y-110635817D01*
X151653474Y-110421531D01*
X151696331Y-110335817D01*
X151910617Y-109907245D02*
X151310617Y-109907245D01*
X151824902Y-109907245D02*
X151867760Y-109864388D01*
X151910617Y-109778674D01*
X151910617Y-109650102D01*
X151867760Y-109564388D01*
X151782045Y-109521531D01*
X151310617Y-109521531D01*
X151310617Y-109092960D02*
X152210617Y-109092960D01*
X151653474Y-109007245D02*
X151310617Y-108750102D01*
X151910617Y-108750102D02*
X151567760Y-109092960D01*
X151353474Y-108407245D02*
X151310617Y-108321531D01*
X151310617Y-108150102D01*
X151353474Y-108064388D01*
X151439188Y-108021531D01*
X151482045Y-108021531D01*
X151567760Y-108064388D01*
X151610617Y-108150102D01*
X151610617Y-108278674D01*
X151653474Y-108364388D01*
X151739188Y-108407245D01*
X151782045Y-108407245D01*
X151867760Y-108364388D01*
X151910617Y-108278674D01*
X151910617Y-108150102D01*
X151867760Y-108064388D01*
X152210617Y-107721531D02*
X152210617Y-107164388D01*
X151867760Y-107464388D01*
X151867760Y-107335817D01*
X151824902Y-107250102D01*
X151782045Y-107207245D01*
X151696331Y-107164388D01*
X151482045Y-107164388D01*
X151396331Y-107207245D01*
X151353474Y-107250102D01*
X151310617Y-107335817D01*
X151310617Y-107592960D01*
X151353474Y-107678674D01*
X151396331Y-107721531D01*
X151310617Y-106392960D02*
X152210617Y-106392960D01*
X151353474Y-106392960D02*
X151310617Y-106478674D01*
X151310617Y-106650102D01*
X151353474Y-106735817D01*
X151396331Y-106778674D01*
X151482045Y-106821531D01*
X151739188Y-106821531D01*
X151824902Y-106778674D01*
X151867760Y-106735817D01*
X151910617Y-106650102D01*
X151910617Y-106478674D01*
X151867760Y-106392960D01*
X151353474Y-106007245D02*
X151310617Y-105878674D01*
X151310617Y-105664388D01*
X151353474Y-105578674D01*
X151396331Y-105535817D01*
X151482045Y-105492960D01*
X151567760Y-105492960D01*
X151653474Y-105535817D01*
X151696331Y-105578674D01*
X151739188Y-105664388D01*
X151782045Y-105835817D01*
X151824902Y-105921531D01*
X151867760Y-105964388D01*
X151953474Y-106007245D01*
X152039188Y-106007245D01*
X152124902Y-105964388D01*
X152167760Y-105921531D01*
X152210617Y-105835817D01*
X152210617Y-105621531D01*
X152167760Y-105492960D01*
X151310617Y-105107245D02*
X152210617Y-105107245D01*
X151310617Y-104721531D02*
X151782045Y-104721531D01*
X151867760Y-104764388D01*
X151910617Y-104850102D01*
X151910617Y-104978674D01*
X151867760Y-105064388D01*
X151824902Y-105107245D01*
X151310617Y-104164388D02*
X151353474Y-104250102D01*
X151396331Y-104292960D01*
X151482045Y-104335817D01*
X151739188Y-104335817D01*
X151824902Y-104292960D01*
X151867760Y-104250102D01*
X151910617Y-104164388D01*
X151910617Y-104035817D01*
X151867760Y-103950102D01*
X151824902Y-103907245D01*
X151739188Y-103864388D01*
X151482045Y-103864388D01*
X151396331Y-103907245D01*
X151353474Y-103950102D01*
X151310617Y-104035817D01*
X151310617Y-104164388D01*
X151910617Y-103478674D02*
X151010617Y-103478674D01*
X151867760Y-103478674D02*
X151910617Y-103392960D01*
X151910617Y-103221531D01*
X151867760Y-103135817D01*
X151824902Y-103092960D01*
X151739188Y-103050102D01*
X151482045Y-103050102D01*
X151396331Y-103092960D01*
X151353474Y-103135817D01*
X151310617Y-103221531D01*
X151310617Y-103392960D01*
X151353474Y-103478674D01*
X152253474Y-102021531D02*
X151096331Y-102792960D01*
X151567760Y-101764388D02*
X151567760Y-101335817D01*
X151310617Y-101850102D02*
X152210617Y-101550102D01*
X151310617Y-101250102D01*
X151310617Y-100950102D02*
X151910617Y-100950102D01*
X151824902Y-100950102D02*
X151867760Y-100907245D01*
X151910617Y-100821531D01*
X151910617Y-100692960D01*
X151867760Y-100607245D01*
X151782045Y-100564388D01*
X151310617Y-100564388D01*
X151782045Y-100564388D02*
X151867760Y-100521531D01*
X151910617Y-100435817D01*
X151910617Y-100307245D01*
X151867760Y-100221531D01*
X151782045Y-100178674D01*
X151310617Y-100178674D01*
X151310617Y-99750102D02*
X151910617Y-99750102D01*
X152210617Y-99750102D02*
X152167760Y-99792960D01*
X152124902Y-99750102D01*
X152167760Y-99707245D01*
X152210617Y-99750102D01*
X152124902Y-99750102D01*
X151910617Y-98935817D02*
X151182045Y-98935817D01*
X151096331Y-98978674D01*
X151053474Y-99021531D01*
X151010617Y-99107245D01*
X151010617Y-99235817D01*
X151053474Y-99321531D01*
X151353474Y-98935817D02*
X151310617Y-99021531D01*
X151310617Y-99192960D01*
X151353474Y-99278674D01*
X151396331Y-99321531D01*
X151482045Y-99364388D01*
X151739188Y-99364388D01*
X151824902Y-99321531D01*
X151867760Y-99278674D01*
X151910617Y-99192960D01*
X151910617Y-99021531D01*
X151867760Y-98935817D01*
X151310617Y-98121531D02*
X151782045Y-98121531D01*
X151867760Y-98164388D01*
X151910617Y-98250102D01*
X151910617Y-98421531D01*
X151867760Y-98507245D01*
X151353474Y-98121531D02*
X151310617Y-98207245D01*
X151310617Y-98421531D01*
X151353474Y-98507245D01*
X151439188Y-98550102D01*
X151524902Y-98550102D01*
X151610617Y-98507245D01*
X151653474Y-98421531D01*
X151653474Y-98207245D01*
X151696331Y-98121531D01*
X152124902Y-97735817D02*
X152167760Y-97692960D01*
X152210617Y-97607245D01*
X152210617Y-97392960D01*
X152167760Y-97307245D01*
X152124902Y-97264388D01*
X152039188Y-97221531D01*
X151953474Y-97221531D01*
X151824902Y-97264388D01*
X151310617Y-97778674D01*
X151310617Y-97221531D01*
X151310617Y-96835817D02*
X152210617Y-96835817D01*
X151567760Y-96535817D01*
X152210617Y-96235817D01*
X151310617Y-96235817D01*
X151310617Y-95421531D02*
X151782045Y-95421531D01*
X151867760Y-95464388D01*
X151910617Y-95550102D01*
X151910617Y-95721531D01*
X151867760Y-95807245D01*
X151353474Y-95421531D02*
X151310617Y-95507245D01*
X151310617Y-95721531D01*
X151353474Y-95807245D01*
X151439188Y-95850102D01*
X151524902Y-95850102D01*
X151610617Y-95807245D01*
X151653474Y-95721531D01*
X151653474Y-95507245D01*
X151696331Y-95421531D01*
X151353474Y-94607245D02*
X151310617Y-94692960D01*
X151310617Y-94864388D01*
X151353474Y-94950102D01*
X151396331Y-94992960D01*
X151482045Y-95035817D01*
X151739188Y-95035817D01*
X151824902Y-94992960D01*
X151867760Y-94950102D01*
X151910617Y-94864388D01*
X151910617Y-94692960D01*
X151867760Y-94607245D01*
X151782045Y-93921531D02*
X151782045Y-94221531D01*
X151310617Y-94221531D02*
X152210617Y-94221531D01*
X152210617Y-93792960D01*
X151310617Y-93321531D02*
X151353474Y-93407245D01*
X151439188Y-93450102D01*
X152210617Y-93450102D01*
X151310617Y-92850102D02*
X151353474Y-92935817D01*
X151396331Y-92978674D01*
X151482045Y-93021531D01*
X151739188Y-93021531D01*
X151824902Y-92978674D01*
X151867760Y-92935817D01*
X151910617Y-92850102D01*
X151910617Y-92721531D01*
X151867760Y-92635817D01*
X151824902Y-92592960D01*
X151739188Y-92550102D01*
X151482045Y-92550102D01*
X151396331Y-92592960D01*
X151353474Y-92635817D01*
X151310617Y-92721531D01*
X151310617Y-92850102D01*
X151910617Y-92164388D02*
X151010617Y-92164388D01*
X151867760Y-92164388D02*
X151910617Y-92078674D01*
X151910617Y-91907245D01*
X151867760Y-91821531D01*
X151824902Y-91778674D01*
X151739188Y-91735817D01*
X151482045Y-91735817D01*
X151396331Y-91778674D01*
X151353474Y-91821531D01*
X151310617Y-91907245D01*
X151310617Y-92078674D01*
X151353474Y-92164388D01*
X151910617Y-91350102D02*
X151010617Y-91350102D01*
X151867760Y-91350102D02*
X151910617Y-91264388D01*
X151910617Y-91092960D01*
X151867760Y-91007245D01*
X151824902Y-90964388D01*
X151739188Y-90921531D01*
X151482045Y-90921531D01*
X151396331Y-90964388D01*
X151353474Y-91007245D01*
X151310617Y-91092960D01*
X151310617Y-91264388D01*
X151353474Y-91350102D01*
X151910617Y-90621531D02*
X151310617Y-90407245D01*
X151910617Y-90192960D02*
X151310617Y-90407245D01*
X151096331Y-90492960D01*
X151053474Y-90535817D01*
X151010617Y-90621531D01*
M02*
