%TF.GenerationSoftware,KiCad,Pcbnew,(5.1.9)-1*%
%TF.CreationDate,2021-07-05T16:45:00-04:00*%
%TF.ProjectId,Amiga2MacFloppy,416d6967-6132-44d6-9163-466c6f707079,1.0*%
%TF.SameCoordinates,Original*%
%TF.FileFunction,Copper,L1,Top*%
%TF.FilePolarity,Positive*%
%FSLAX46Y46*%
G04 Gerber Fmt 4.6, Leading zero omitted, Abs format (unit mm)*
G04 Created by KiCad (PCBNEW (5.1.9)-1) date 2021-07-05 16:45:00*
%MOMM*%
%LPD*%
G01*
G04 APERTURE LIST*
%TA.AperFunction,ComponentPad*%
%ADD10C,1.700000*%
%TD*%
%TA.AperFunction,SMDPad,CuDef*%
%ADD11R,3.480000X1.846667*%
%TD*%
%TA.AperFunction,ViaPad*%
%ADD12C,0.800000*%
%TD*%
%TA.AperFunction,Conductor*%
%ADD13C,1.200000*%
%TD*%
%TA.AperFunction,Conductor*%
%ADD14C,0.250000*%
%TD*%
%TA.AperFunction,NonConductor*%
%ADD15C,0.254000*%
%TD*%
%TA.AperFunction,NonConductor*%
%ADD16C,0.100000*%
%TD*%
G04 APERTURE END LIST*
D10*
%TO.P,J2,20*%
%TO.N,PWM*%
X143428000Y-97333000D03*
%TO.P,J2,18*%
%TO.N,WR*%
X143428000Y-99873000D03*
%TO.P,J2,16*%
%TO.N,RD*%
X143428000Y-102413000D03*
%TO.P,J2,14*%
%TO.N,_ENABLE*%
X143428000Y-104953000D03*
%TO.P,J2,12*%
%TO.N,SEL*%
X143428000Y-107493000D03*
%TO.P,J2,10*%
%TO.N,_DKWE*%
X143428000Y-110033000D03*
%TO.P,J2,8*%
%TO.N,PH3*%
X143428000Y-112573000D03*
%TO.P,J2,6*%
%TO.N,PH2*%
X143428000Y-115113000D03*
%TO.P,J2,4*%
%TO.N,DIR*%
X143428000Y-117653000D03*
%TO.P,J2,2*%
%TO.N,PH0*%
X143428000Y-120193000D03*
%TO.P,J2,19*%
%TO.N,N/C*%
X145968000Y-97333000D03*
%TO.P,J2,17*%
X145968000Y-99873000D03*
%TO.P,J2,15*%
%TO.N,+12V*%
X145968000Y-102413000D03*
%TO.P,J2,13*%
X145968000Y-104953000D03*
%TO.P,J2,11*%
%TO.N,PWM*%
X145968000Y-107493000D03*
%TO.P,J2,9*%
%TO.N,N/C*%
X145968000Y-110033000D03*
%TO.P,J2,7*%
%TO.N,GND*%
X145968000Y-112573000D03*
%TO.P,J2,5*%
X145968000Y-115113000D03*
%TO.P,J2,3*%
X145968000Y-117653000D03*
%TO.P,J2,1*%
%TA.AperFunction,ComponentPad*%
G36*
G01*
X146818000Y-119593000D02*
X146818000Y-120793000D01*
G75*
G02*
X146568000Y-121043000I-250000J0D01*
G01*
X145368000Y-121043000D01*
G75*
G02*
X145118000Y-120793000I0J250000D01*
G01*
X145118000Y-119593000D01*
G75*
G02*
X145368000Y-119343000I250000J0D01*
G01*
X146568000Y-119343000D01*
G75*
G02*
X146818000Y-119593000I0J-250000D01*
G01*
G37*
%TD.AperFunction*%
%TD*%
D11*
%TO.P,J5,1*%
%TO.N,GND*%
X158468000Y-120749000D03*
%TO.P,J5,2*%
X158468000Y-117979000D03*
%TO.P,J5,3*%
X158468000Y-115209000D03*
%TO.P,J5,4*%
X158468000Y-112439000D03*
%TO.P,J5,5*%
%TO.N,N/C*%
X158468000Y-109669000D03*
%TO.P,J5,6*%
%TO.N,PWM*%
X158468000Y-106899000D03*
%TO.P,J5,7*%
%TO.N,+12V*%
X158468000Y-104129000D03*
%TO.P,J5,8*%
X158468000Y-101359000D03*
%TO.P,J5,9*%
%TO.N,N/C*%
X158468000Y-98589000D03*
%TO.P,J5,10*%
%TO.N,PWM*%
X158468000Y-95819000D03*
%TD*%
D12*
%TO.N,RD*%
X147571600Y-96863000D03*
%TO.N,PH0*%
X142022900Y-118787900D03*
%TO.N,SEL*%
X151073700Y-96665800D03*
X154072900Y-103163000D03*
%TO.N,PH3*%
X147430800Y-110982000D03*
%TO.N,PH2*%
X147631300Y-121297700D03*
%TD*%
D13*
%TO.N,GND*%
X145968000Y-115113000D02*
X145968000Y-117653000D01*
X145968000Y-112573000D02*
X145968000Y-115113000D01*
X146345900Y-119815100D02*
X146345900Y-118030900D01*
X146345900Y-118030900D02*
X145968000Y-117653000D01*
X157097900Y-115209000D02*
X155727700Y-115209000D01*
X158468000Y-115209000D02*
X157097900Y-115209000D01*
X157097900Y-115209000D02*
X157097900Y-117979000D01*
X158468000Y-112439000D02*
X155727700Y-112439000D01*
X155727700Y-112439000D02*
X155727700Y-115209000D01*
X146345900Y-119815100D02*
X145968000Y-120193000D01*
X155727700Y-119815100D02*
X146345900Y-119815100D01*
X155727700Y-119815100D02*
X155727700Y-120749000D01*
X157097900Y-117979000D02*
X155727700Y-119349200D01*
X155727700Y-119349200D02*
X155727700Y-119815100D01*
X158468000Y-120749000D02*
X155727700Y-120749000D01*
X158468000Y-117979000D02*
X157097900Y-117979000D01*
%TO.N,+12V*%
X146792000Y-104129000D02*
X147226300Y-104563300D01*
X147226300Y-104563300D02*
X155293400Y-104563300D01*
X155293400Y-104563300D02*
X155727700Y-104129000D01*
X146792000Y-104129000D02*
X145968000Y-104953000D01*
X146792000Y-104129000D02*
X146792000Y-103237000D01*
X146792000Y-103237000D02*
X145968000Y-102413000D01*
X155727700Y-101359000D02*
X155727700Y-104129000D01*
X158468000Y-104129000D02*
X155727700Y-104129000D01*
X158468000Y-101359000D02*
X155727700Y-101359000D01*
D14*
%TO.N,RD*%
X147571600Y-96863000D02*
X146865900Y-96157300D01*
X146865900Y-96157300D02*
X142882800Y-96157300D01*
X142882800Y-96157300D02*
X142252600Y-96787500D01*
X142252600Y-96787500D02*
X142252600Y-101237600D01*
X142252600Y-101237600D02*
X143428000Y-102413000D01*
%TO.N,PWM*%
X156402700Y-95819000D02*
X150894800Y-95819000D01*
X150894800Y-95819000D02*
X148190200Y-98523600D01*
X148190200Y-98523600D02*
X144618600Y-98523600D01*
X144618600Y-98523600D02*
X143428000Y-97333000D01*
X158468000Y-95819000D02*
X156402700Y-95819000D01*
X158468000Y-106899000D02*
X156402700Y-106899000D01*
X145968000Y-107493000D02*
X155808700Y-107493000D01*
X155808700Y-107493000D02*
X156402700Y-106899000D01*
%TO.N,PH0*%
X142022900Y-118787900D02*
X143428000Y-120193000D01*
%TO.N,SEL*%
X154072900Y-103163000D02*
X154072900Y-99665000D01*
X154072900Y-99665000D02*
X151073700Y-96665800D01*
%TO.N,PH3*%
X143428000Y-112573000D02*
X144603400Y-111397600D01*
X144603400Y-111397600D02*
X144603400Y-109725600D01*
X144603400Y-109725600D02*
X145471400Y-108857600D01*
X145471400Y-108857600D02*
X146573600Y-108857600D01*
X146573600Y-108857600D02*
X147430800Y-109714800D01*
X147430800Y-109714800D02*
X147430800Y-110982000D01*
%TO.N,PH2*%
X143428000Y-115113000D02*
X141297200Y-117243800D01*
X141297200Y-117243800D02*
X141297200Y-119753400D01*
X141297200Y-119753400D02*
X143132900Y-121589100D01*
X143132900Y-121589100D02*
X147339900Y-121589100D01*
X147339900Y-121589100D02*
X147631300Y-121297700D01*
%TD*%
D15*
X159807760Y-94257595D02*
X156728000Y-94257595D01*
X156603518Y-94269855D01*
X156483820Y-94306165D01*
X156373506Y-94365130D01*
X156276815Y-94444482D01*
X156197463Y-94541173D01*
X156138498Y-94651487D01*
X156102188Y-94771185D01*
X156089928Y-94895667D01*
X156089928Y-95059000D01*
X150932122Y-95059000D01*
X150894799Y-95055324D01*
X150857477Y-95059000D01*
X150857467Y-95059000D01*
X150745814Y-95069997D01*
X150602553Y-95113454D01*
X150470523Y-95184026D01*
X150386883Y-95252668D01*
X150354799Y-95278999D01*
X150331001Y-95307997D01*
X148589850Y-97049149D01*
X148606600Y-96964939D01*
X148606600Y-96761061D01*
X148566826Y-96561102D01*
X148488805Y-96372744D01*
X148375537Y-96203226D01*
X148231374Y-96059063D01*
X148061856Y-95945795D01*
X147873498Y-95867774D01*
X147673539Y-95828000D01*
X147611401Y-95828000D01*
X147429703Y-95646302D01*
X147405901Y-95617299D01*
X147290176Y-95522326D01*
X147158147Y-95451754D01*
X147014886Y-95408297D01*
X146903233Y-95397300D01*
X146903222Y-95397300D01*
X146865900Y-95393624D01*
X146828578Y-95397300D01*
X142920122Y-95397300D01*
X142882799Y-95393624D01*
X142845476Y-95397300D01*
X142845467Y-95397300D01*
X142733814Y-95408297D01*
X142590553Y-95451754D01*
X142458524Y-95522326D01*
X142442485Y-95535489D01*
X142371796Y-95593501D01*
X142371792Y-95593505D01*
X142342799Y-95617299D01*
X142319005Y-95646292D01*
X141741602Y-96223697D01*
X141712599Y-96247499D01*
X141657471Y-96314674D01*
X141617626Y-96363224D01*
X141577270Y-96438724D01*
X141547054Y-96495254D01*
X141503597Y-96638515D01*
X141492600Y-96750168D01*
X141492600Y-96750178D01*
X141488924Y-96787500D01*
X141492600Y-96824823D01*
X141492601Y-101200268D01*
X141488924Y-101237600D01*
X141492601Y-101274933D01*
X141500783Y-101358000D01*
X141503598Y-101386585D01*
X141547054Y-101529846D01*
X141617626Y-101661876D01*
X141668243Y-101723552D01*
X141712600Y-101777601D01*
X141741598Y-101801399D01*
X141986791Y-102046592D01*
X141943000Y-102266740D01*
X141943000Y-102559260D01*
X142000068Y-102846158D01*
X142112010Y-103116411D01*
X142274525Y-103359632D01*
X142481368Y-103566475D01*
X142655760Y-103683000D01*
X142481368Y-103799525D01*
X142274525Y-104006368D01*
X142112010Y-104249589D01*
X142000068Y-104519842D01*
X141943000Y-104806740D01*
X141943000Y-105099260D01*
X142000068Y-105386158D01*
X142112010Y-105656411D01*
X142274525Y-105899632D01*
X142481368Y-106106475D01*
X142655760Y-106223000D01*
X142481368Y-106339525D01*
X142274525Y-106546368D01*
X142112010Y-106789589D01*
X142000068Y-107059842D01*
X141943000Y-107346740D01*
X141943000Y-107639260D01*
X142000068Y-107926158D01*
X142112010Y-108196411D01*
X142274525Y-108439632D01*
X142481368Y-108646475D01*
X142655760Y-108763000D01*
X142481368Y-108879525D01*
X142274525Y-109086368D01*
X142112010Y-109329589D01*
X142000068Y-109599842D01*
X141943000Y-109886740D01*
X141943000Y-110179260D01*
X142000068Y-110466158D01*
X142112010Y-110736411D01*
X142274525Y-110979632D01*
X142481368Y-111186475D01*
X142655760Y-111303000D01*
X142481368Y-111419525D01*
X142274525Y-111626368D01*
X142112010Y-111869589D01*
X142000068Y-112139842D01*
X141943000Y-112426740D01*
X141943000Y-112719260D01*
X142000068Y-113006158D01*
X142112010Y-113276411D01*
X142274525Y-113519632D01*
X142481368Y-113726475D01*
X142655760Y-113843000D01*
X142481368Y-113959525D01*
X142274525Y-114166368D01*
X142112010Y-114409589D01*
X142000068Y-114679842D01*
X141943000Y-114966740D01*
X141943000Y-115259260D01*
X141986790Y-115479408D01*
X140786203Y-116679996D01*
X140757199Y-116703799D01*
X140712599Y-116758145D01*
X140662226Y-116819524D01*
X140655296Y-116832489D01*
X140591654Y-116951554D01*
X140548197Y-117094815D01*
X140537200Y-117206468D01*
X140537200Y-117206478D01*
X140533524Y-117243800D01*
X140537200Y-117281123D01*
X140537201Y-119716068D01*
X140533524Y-119753400D01*
X140548198Y-119902385D01*
X140591654Y-120045646D01*
X140662226Y-120177676D01*
X140732004Y-120262700D01*
X140757200Y-120293401D01*
X140786198Y-120317199D01*
X142569101Y-122100103D01*
X142592899Y-122129101D01*
X142708624Y-122224074D01*
X142840653Y-122294646D01*
X142983914Y-122338103D01*
X143095567Y-122349100D01*
X143095577Y-122349100D01*
X143132900Y-122352776D01*
X143170223Y-122349100D01*
X147302578Y-122349100D01*
X147339900Y-122352776D01*
X147377222Y-122349100D01*
X147377233Y-122349100D01*
X147488886Y-122338103D01*
X147515673Y-122329977D01*
X147529361Y-122332700D01*
X147733239Y-122332700D01*
X147933198Y-122292926D01*
X148121556Y-122214905D01*
X148291074Y-122101637D01*
X148435237Y-121957474D01*
X148548505Y-121787956D01*
X148626526Y-121599598D01*
X148666300Y-121399639D01*
X148666300Y-121195761D01*
X148637326Y-121050100D01*
X154528467Y-121050100D01*
X154581189Y-121223901D01*
X154695867Y-121438449D01*
X154850198Y-121626502D01*
X155038251Y-121780833D01*
X155252799Y-121895511D01*
X155485598Y-121966130D01*
X155667035Y-121984000D01*
X155727700Y-121989975D01*
X155788365Y-121984000D01*
X156174571Y-121984000D01*
X156197463Y-122026827D01*
X156276815Y-122123518D01*
X156373506Y-122202870D01*
X156483820Y-122261835D01*
X156603518Y-122298145D01*
X156728000Y-122310405D01*
X159807761Y-122310405D01*
X159807761Y-127532960D01*
X131127760Y-127532960D01*
X131127760Y-124972832D01*
X131233000Y-124972832D01*
X131233000Y-125413088D01*
X131318890Y-125844885D01*
X131487369Y-126251629D01*
X131731962Y-126617689D01*
X132043271Y-126928998D01*
X132409331Y-127173591D01*
X132816075Y-127342070D01*
X133247872Y-127427960D01*
X133688128Y-127427960D01*
X134119925Y-127342070D01*
X134526669Y-127173591D01*
X134892729Y-126928998D01*
X135204038Y-126617689D01*
X135448631Y-126251629D01*
X135617110Y-125844885D01*
X135703000Y-125413088D01*
X135703000Y-124972832D01*
X135617110Y-124541035D01*
X135448631Y-124134291D01*
X135204038Y-123768231D01*
X134892729Y-123456922D01*
X134526669Y-123212329D01*
X134119925Y-123043850D01*
X133688128Y-122957960D01*
X133247872Y-122957960D01*
X132816075Y-123043850D01*
X132409331Y-123212329D01*
X132043271Y-123456922D01*
X131731962Y-123768231D01*
X131487369Y-124134291D01*
X131318890Y-124541035D01*
X131233000Y-124972832D01*
X131127760Y-124972832D01*
X131127760Y-90972872D01*
X131233000Y-90972872D01*
X131233000Y-91413128D01*
X131318890Y-91844925D01*
X131487369Y-92251669D01*
X131731962Y-92617729D01*
X132043271Y-92929038D01*
X132409331Y-93173631D01*
X132816075Y-93342110D01*
X133247872Y-93428000D01*
X133688128Y-93428000D01*
X134119925Y-93342110D01*
X134526669Y-93173631D01*
X134892729Y-92929038D01*
X135204038Y-92617729D01*
X135448631Y-92251669D01*
X135617110Y-91844925D01*
X135703000Y-91413128D01*
X135703000Y-90972872D01*
X135617110Y-90541075D01*
X135448631Y-90134331D01*
X135204038Y-89768271D01*
X134892729Y-89456962D01*
X134526669Y-89212369D01*
X134119925Y-89043890D01*
X133688128Y-88958000D01*
X133247872Y-88958000D01*
X132816075Y-89043890D01*
X132409331Y-89212369D01*
X132043271Y-89456962D01*
X131731962Y-89768271D01*
X131487369Y-90134331D01*
X131318890Y-90541075D01*
X131233000Y-90972872D01*
X131127760Y-90972872D01*
X131127760Y-88852960D01*
X159807760Y-88852960D01*
X159807760Y-94257595D01*
%TA.AperFunction,NonConductor*%
D16*
G36*
X159807760Y-94257595D02*
G01*
X156728000Y-94257595D01*
X156603518Y-94269855D01*
X156483820Y-94306165D01*
X156373506Y-94365130D01*
X156276815Y-94444482D01*
X156197463Y-94541173D01*
X156138498Y-94651487D01*
X156102188Y-94771185D01*
X156089928Y-94895667D01*
X156089928Y-95059000D01*
X150932122Y-95059000D01*
X150894799Y-95055324D01*
X150857477Y-95059000D01*
X150857467Y-95059000D01*
X150745814Y-95069997D01*
X150602553Y-95113454D01*
X150470523Y-95184026D01*
X150386883Y-95252668D01*
X150354799Y-95278999D01*
X150331001Y-95307997D01*
X148589850Y-97049149D01*
X148606600Y-96964939D01*
X148606600Y-96761061D01*
X148566826Y-96561102D01*
X148488805Y-96372744D01*
X148375537Y-96203226D01*
X148231374Y-96059063D01*
X148061856Y-95945795D01*
X147873498Y-95867774D01*
X147673539Y-95828000D01*
X147611401Y-95828000D01*
X147429703Y-95646302D01*
X147405901Y-95617299D01*
X147290176Y-95522326D01*
X147158147Y-95451754D01*
X147014886Y-95408297D01*
X146903233Y-95397300D01*
X146903222Y-95397300D01*
X146865900Y-95393624D01*
X146828578Y-95397300D01*
X142920122Y-95397300D01*
X142882799Y-95393624D01*
X142845476Y-95397300D01*
X142845467Y-95397300D01*
X142733814Y-95408297D01*
X142590553Y-95451754D01*
X142458524Y-95522326D01*
X142442485Y-95535489D01*
X142371796Y-95593501D01*
X142371792Y-95593505D01*
X142342799Y-95617299D01*
X142319005Y-95646292D01*
X141741602Y-96223697D01*
X141712599Y-96247499D01*
X141657471Y-96314674D01*
X141617626Y-96363224D01*
X141577270Y-96438724D01*
X141547054Y-96495254D01*
X141503597Y-96638515D01*
X141492600Y-96750168D01*
X141492600Y-96750178D01*
X141488924Y-96787500D01*
X141492600Y-96824823D01*
X141492601Y-101200268D01*
X141488924Y-101237600D01*
X141492601Y-101274933D01*
X141500783Y-101358000D01*
X141503598Y-101386585D01*
X141547054Y-101529846D01*
X141617626Y-101661876D01*
X141668243Y-101723552D01*
X141712600Y-101777601D01*
X141741598Y-101801399D01*
X141986791Y-102046592D01*
X141943000Y-102266740D01*
X141943000Y-102559260D01*
X142000068Y-102846158D01*
X142112010Y-103116411D01*
X142274525Y-103359632D01*
X142481368Y-103566475D01*
X142655760Y-103683000D01*
X142481368Y-103799525D01*
X142274525Y-104006368D01*
X142112010Y-104249589D01*
X142000068Y-104519842D01*
X141943000Y-104806740D01*
X141943000Y-105099260D01*
X142000068Y-105386158D01*
X142112010Y-105656411D01*
X142274525Y-105899632D01*
X142481368Y-106106475D01*
X142655760Y-106223000D01*
X142481368Y-106339525D01*
X142274525Y-106546368D01*
X142112010Y-106789589D01*
X142000068Y-107059842D01*
X141943000Y-107346740D01*
X141943000Y-107639260D01*
X142000068Y-107926158D01*
X142112010Y-108196411D01*
X142274525Y-108439632D01*
X142481368Y-108646475D01*
X142655760Y-108763000D01*
X142481368Y-108879525D01*
X142274525Y-109086368D01*
X142112010Y-109329589D01*
X142000068Y-109599842D01*
X141943000Y-109886740D01*
X141943000Y-110179260D01*
X142000068Y-110466158D01*
X142112010Y-110736411D01*
X142274525Y-110979632D01*
X142481368Y-111186475D01*
X142655760Y-111303000D01*
X142481368Y-111419525D01*
X142274525Y-111626368D01*
X142112010Y-111869589D01*
X142000068Y-112139842D01*
X141943000Y-112426740D01*
X141943000Y-112719260D01*
X142000068Y-113006158D01*
X142112010Y-113276411D01*
X142274525Y-113519632D01*
X142481368Y-113726475D01*
X142655760Y-113843000D01*
X142481368Y-113959525D01*
X142274525Y-114166368D01*
X142112010Y-114409589D01*
X142000068Y-114679842D01*
X141943000Y-114966740D01*
X141943000Y-115259260D01*
X141986790Y-115479408D01*
X140786203Y-116679996D01*
X140757199Y-116703799D01*
X140712599Y-116758145D01*
X140662226Y-116819524D01*
X140655296Y-116832489D01*
X140591654Y-116951554D01*
X140548197Y-117094815D01*
X140537200Y-117206468D01*
X140537200Y-117206478D01*
X140533524Y-117243800D01*
X140537200Y-117281123D01*
X140537201Y-119716068D01*
X140533524Y-119753400D01*
X140548198Y-119902385D01*
X140591654Y-120045646D01*
X140662226Y-120177676D01*
X140732004Y-120262700D01*
X140757200Y-120293401D01*
X140786198Y-120317199D01*
X142569101Y-122100103D01*
X142592899Y-122129101D01*
X142708624Y-122224074D01*
X142840653Y-122294646D01*
X142983914Y-122338103D01*
X143095567Y-122349100D01*
X143095577Y-122349100D01*
X143132900Y-122352776D01*
X143170223Y-122349100D01*
X147302578Y-122349100D01*
X147339900Y-122352776D01*
X147377222Y-122349100D01*
X147377233Y-122349100D01*
X147488886Y-122338103D01*
X147515673Y-122329977D01*
X147529361Y-122332700D01*
X147733239Y-122332700D01*
X147933198Y-122292926D01*
X148121556Y-122214905D01*
X148291074Y-122101637D01*
X148435237Y-121957474D01*
X148548505Y-121787956D01*
X148626526Y-121599598D01*
X148666300Y-121399639D01*
X148666300Y-121195761D01*
X148637326Y-121050100D01*
X154528467Y-121050100D01*
X154581189Y-121223901D01*
X154695867Y-121438449D01*
X154850198Y-121626502D01*
X155038251Y-121780833D01*
X155252799Y-121895511D01*
X155485598Y-121966130D01*
X155667035Y-121984000D01*
X155727700Y-121989975D01*
X155788365Y-121984000D01*
X156174571Y-121984000D01*
X156197463Y-122026827D01*
X156276815Y-122123518D01*
X156373506Y-122202870D01*
X156483820Y-122261835D01*
X156603518Y-122298145D01*
X156728000Y-122310405D01*
X159807761Y-122310405D01*
X159807761Y-127532960D01*
X131127760Y-127532960D01*
X131127760Y-124972832D01*
X131233000Y-124972832D01*
X131233000Y-125413088D01*
X131318890Y-125844885D01*
X131487369Y-126251629D01*
X131731962Y-126617689D01*
X132043271Y-126928998D01*
X132409331Y-127173591D01*
X132816075Y-127342070D01*
X133247872Y-127427960D01*
X133688128Y-127427960D01*
X134119925Y-127342070D01*
X134526669Y-127173591D01*
X134892729Y-126928998D01*
X135204038Y-126617689D01*
X135448631Y-126251629D01*
X135617110Y-125844885D01*
X135703000Y-125413088D01*
X135703000Y-124972832D01*
X135617110Y-124541035D01*
X135448631Y-124134291D01*
X135204038Y-123768231D01*
X134892729Y-123456922D01*
X134526669Y-123212329D01*
X134119925Y-123043850D01*
X133688128Y-122957960D01*
X133247872Y-122957960D01*
X132816075Y-123043850D01*
X132409331Y-123212329D01*
X132043271Y-123456922D01*
X131731962Y-123768231D01*
X131487369Y-124134291D01*
X131318890Y-124541035D01*
X131233000Y-124972832D01*
X131127760Y-124972832D01*
X131127760Y-90972872D01*
X131233000Y-90972872D01*
X131233000Y-91413128D01*
X131318890Y-91844925D01*
X131487369Y-92251669D01*
X131731962Y-92617729D01*
X132043271Y-92929038D01*
X132409331Y-93173631D01*
X132816075Y-93342110D01*
X133247872Y-93428000D01*
X133688128Y-93428000D01*
X134119925Y-93342110D01*
X134526669Y-93173631D01*
X134892729Y-92929038D01*
X135204038Y-92617729D01*
X135448631Y-92251669D01*
X135617110Y-91844925D01*
X135703000Y-91413128D01*
X135703000Y-90972872D01*
X135617110Y-90541075D01*
X135448631Y-90134331D01*
X135204038Y-89768271D01*
X134892729Y-89456962D01*
X134526669Y-89212369D01*
X134119925Y-89043890D01*
X133688128Y-88958000D01*
X133247872Y-88958000D01*
X132816075Y-89043890D01*
X132409331Y-89212369D01*
X132043271Y-89456962D01*
X131731962Y-89768271D01*
X131487369Y-90134331D01*
X131318890Y-90541075D01*
X131233000Y-90972872D01*
X131127760Y-90972872D01*
X131127760Y-88852960D01*
X159807760Y-88852960D01*
X159807760Y-94257595D01*
G37*
%TD.AperFunction*%
D15*
X144814525Y-118599632D02*
X145001608Y-118786715D01*
X144874614Y-118854595D01*
X144740038Y-118965038D01*
X144629595Y-119099614D01*
X144561715Y-119226608D01*
X144374632Y-119039525D01*
X144200240Y-118923000D01*
X144374632Y-118806475D01*
X144581475Y-118599632D01*
X144698000Y-118425240D01*
X144814525Y-118599632D01*
%TA.AperFunction,NonConductor*%
D16*
G36*
X144814525Y-118599632D02*
G01*
X145001608Y-118786715D01*
X144874614Y-118854595D01*
X144740038Y-118965038D01*
X144629595Y-119099614D01*
X144561715Y-119226608D01*
X144374632Y-119039525D01*
X144200240Y-118923000D01*
X144374632Y-118806475D01*
X144581475Y-118599632D01*
X144698000Y-118425240D01*
X144814525Y-118599632D01*
G37*
%TD.AperFunction*%
D15*
X156197463Y-108176827D02*
X156276815Y-108273518D01*
X156289587Y-108284000D01*
X156276815Y-108294482D01*
X156197463Y-108391173D01*
X156138498Y-108501487D01*
X156102188Y-108621185D01*
X156089928Y-108745667D01*
X156089928Y-110592333D01*
X156102188Y-110716815D01*
X156138498Y-110836513D01*
X156197463Y-110946827D01*
X156276815Y-111043518D01*
X156289587Y-111054000D01*
X156276815Y-111064482D01*
X156197463Y-111161173D01*
X156174571Y-111204000D01*
X155788365Y-111204000D01*
X155727700Y-111198025D01*
X155667035Y-111204000D01*
X155485598Y-111221870D01*
X155252799Y-111292489D01*
X155038251Y-111407167D01*
X154850198Y-111561498D01*
X154695867Y-111749551D01*
X154581189Y-111964099D01*
X154510570Y-112196898D01*
X154486725Y-112439000D01*
X154492700Y-112499666D01*
X154492701Y-115148325D01*
X154486725Y-115209000D01*
X154510570Y-115451102D01*
X154581189Y-115683901D01*
X154695867Y-115898449D01*
X154850198Y-116086502D01*
X155038251Y-116240833D01*
X155252799Y-116355511D01*
X155485598Y-116426130D01*
X155667035Y-116444000D01*
X155727700Y-116449975D01*
X155788365Y-116444000D01*
X155862900Y-116444000D01*
X155862901Y-117467445D01*
X154897325Y-118433022D01*
X154850198Y-118471698D01*
X154761235Y-118580100D01*
X147580900Y-118580100D01*
X147580900Y-118091562D01*
X147586875Y-118030899D01*
X147580900Y-117970235D01*
X147563030Y-117788798D01*
X147492411Y-117555999D01*
X147445246Y-117467760D01*
X147395932Y-117219842D01*
X147283990Y-116949589D01*
X147203000Y-116828379D01*
X147203000Y-115937621D01*
X147283990Y-115816411D01*
X147395932Y-115546158D01*
X147453000Y-115259260D01*
X147453000Y-114966740D01*
X147395932Y-114679842D01*
X147283990Y-114409589D01*
X147203000Y-114288379D01*
X147203000Y-113397621D01*
X147283990Y-113276411D01*
X147395932Y-113006158D01*
X147453000Y-112719260D01*
X147453000Y-112426740D01*
X147395932Y-112139842D01*
X147345049Y-112017000D01*
X147532739Y-112017000D01*
X147732698Y-111977226D01*
X147921056Y-111899205D01*
X148090574Y-111785937D01*
X148234737Y-111641774D01*
X148348005Y-111472256D01*
X148426026Y-111283898D01*
X148465800Y-111083939D01*
X148465800Y-110880061D01*
X148426026Y-110680102D01*
X148348005Y-110491744D01*
X148234737Y-110322226D01*
X148190800Y-110278289D01*
X148190800Y-109752123D01*
X148194476Y-109714800D01*
X148190800Y-109677477D01*
X148190800Y-109677467D01*
X148179803Y-109565814D01*
X148136346Y-109422553D01*
X148065774Y-109290524D01*
X147970801Y-109174799D01*
X147941804Y-109151002D01*
X147165117Y-108374316D01*
X147246178Y-108253000D01*
X155771378Y-108253000D01*
X155808700Y-108256676D01*
X155846022Y-108253000D01*
X155846033Y-108253000D01*
X155957686Y-108242003D01*
X156100947Y-108198546D01*
X156185045Y-108153594D01*
X156197463Y-108176827D01*
%TA.AperFunction,NonConductor*%
D16*
G36*
X156197463Y-108176827D02*
G01*
X156276815Y-108273518D01*
X156289587Y-108284000D01*
X156276815Y-108294482D01*
X156197463Y-108391173D01*
X156138498Y-108501487D01*
X156102188Y-108621185D01*
X156089928Y-108745667D01*
X156089928Y-110592333D01*
X156102188Y-110716815D01*
X156138498Y-110836513D01*
X156197463Y-110946827D01*
X156276815Y-111043518D01*
X156289587Y-111054000D01*
X156276815Y-111064482D01*
X156197463Y-111161173D01*
X156174571Y-111204000D01*
X155788365Y-111204000D01*
X155727700Y-111198025D01*
X155667035Y-111204000D01*
X155485598Y-111221870D01*
X155252799Y-111292489D01*
X155038251Y-111407167D01*
X154850198Y-111561498D01*
X154695867Y-111749551D01*
X154581189Y-111964099D01*
X154510570Y-112196898D01*
X154486725Y-112439000D01*
X154492700Y-112499666D01*
X154492701Y-115148325D01*
X154486725Y-115209000D01*
X154510570Y-115451102D01*
X154581189Y-115683901D01*
X154695867Y-115898449D01*
X154850198Y-116086502D01*
X155038251Y-116240833D01*
X155252799Y-116355511D01*
X155485598Y-116426130D01*
X155667035Y-116444000D01*
X155727700Y-116449975D01*
X155788365Y-116444000D01*
X155862900Y-116444000D01*
X155862901Y-117467445D01*
X154897325Y-118433022D01*
X154850198Y-118471698D01*
X154761235Y-118580100D01*
X147580900Y-118580100D01*
X147580900Y-118091562D01*
X147586875Y-118030899D01*
X147580900Y-117970235D01*
X147563030Y-117788798D01*
X147492411Y-117555999D01*
X147445246Y-117467760D01*
X147395932Y-117219842D01*
X147283990Y-116949589D01*
X147203000Y-116828379D01*
X147203000Y-115937621D01*
X147283990Y-115816411D01*
X147395932Y-115546158D01*
X147453000Y-115259260D01*
X147453000Y-114966740D01*
X147395932Y-114679842D01*
X147283990Y-114409589D01*
X147203000Y-114288379D01*
X147203000Y-113397621D01*
X147283990Y-113276411D01*
X147395932Y-113006158D01*
X147453000Y-112719260D01*
X147453000Y-112426740D01*
X147395932Y-112139842D01*
X147345049Y-112017000D01*
X147532739Y-112017000D01*
X147732698Y-111977226D01*
X147921056Y-111899205D01*
X148090574Y-111785937D01*
X148234737Y-111641774D01*
X148348005Y-111472256D01*
X148426026Y-111283898D01*
X148465800Y-111083939D01*
X148465800Y-110880061D01*
X148426026Y-110680102D01*
X148348005Y-110491744D01*
X148234737Y-110322226D01*
X148190800Y-110278289D01*
X148190800Y-109752123D01*
X148194476Y-109714800D01*
X148190800Y-109677477D01*
X148190800Y-109677467D01*
X148179803Y-109565814D01*
X148136346Y-109422553D01*
X148065774Y-109290524D01*
X147970801Y-109174799D01*
X147941804Y-109151002D01*
X147165117Y-108374316D01*
X147246178Y-108253000D01*
X155771378Y-108253000D01*
X155808700Y-108256676D01*
X155846022Y-108253000D01*
X155846033Y-108253000D01*
X155957686Y-108242003D01*
X156100947Y-108198546D01*
X156185045Y-108153594D01*
X156197463Y-108176827D01*
G37*
%TD.AperFunction*%
D15*
X144733000Y-115937622D02*
X144733001Y-116828378D01*
X144698000Y-116880760D01*
X144581475Y-116706368D01*
X144374632Y-116499525D01*
X144200240Y-116383000D01*
X144374632Y-116266475D01*
X144581475Y-116059632D01*
X144698000Y-115885240D01*
X144733000Y-115937622D01*
%TA.AperFunction,NonConductor*%
D16*
G36*
X144733000Y-115937622D02*
G01*
X144733001Y-116828378D01*
X144698000Y-116880760D01*
X144581475Y-116706368D01*
X144374632Y-116499525D01*
X144200240Y-116383000D01*
X144374632Y-116266475D01*
X144581475Y-116059632D01*
X144698000Y-115885240D01*
X144733000Y-115937622D01*
G37*
%TD.AperFunction*%
D15*
X144733000Y-113397622D02*
X144733001Y-114288378D01*
X144698000Y-114340760D01*
X144581475Y-114166368D01*
X144374632Y-113959525D01*
X144200240Y-113843000D01*
X144374632Y-113726475D01*
X144581475Y-113519632D01*
X144698000Y-113345240D01*
X144733000Y-113397622D01*
%TA.AperFunction,NonConductor*%
D16*
G36*
X144733000Y-113397622D02*
G01*
X144733001Y-114288378D01*
X144698000Y-114340760D01*
X144581475Y-114166368D01*
X144374632Y-113959525D01*
X144200240Y-113843000D01*
X144374632Y-113726475D01*
X144581475Y-113519632D01*
X144698000Y-113345240D01*
X144733000Y-113397622D01*
G37*
%TD.AperFunction*%
D15*
X144814525Y-108439632D02*
X144814546Y-108439653D01*
X144374653Y-108879546D01*
X144374632Y-108879525D01*
X144200240Y-108763000D01*
X144374632Y-108646475D01*
X144581475Y-108439632D01*
X144698000Y-108265240D01*
X144814525Y-108439632D01*
%TA.AperFunction,NonConductor*%
D16*
G36*
X144814525Y-108439632D02*
G01*
X144814546Y-108439653D01*
X144374653Y-108879546D01*
X144374632Y-108879525D01*
X144200240Y-108763000D01*
X144374632Y-108646475D01*
X144581475Y-108439632D01*
X144698000Y-108265240D01*
X144814525Y-108439632D01*
G37*
%TD.AperFunction*%
D15*
X156276815Y-105503518D02*
X156289587Y-105514000D01*
X156276815Y-105524482D01*
X156197463Y-105621173D01*
X156138498Y-105731487D01*
X156102188Y-105851185D01*
X156089928Y-105975667D01*
X156089928Y-106204425D01*
X155978424Y-106264026D01*
X155862699Y-106358999D01*
X155838900Y-106387998D01*
X155493899Y-106733000D01*
X147246178Y-106733000D01*
X147121475Y-106546368D01*
X146914632Y-106339525D01*
X146740240Y-106223000D01*
X146914632Y-106106475D01*
X147121475Y-105899632D01*
X147187729Y-105800476D01*
X147226300Y-105804275D01*
X147286965Y-105798300D01*
X155232735Y-105798300D01*
X155293400Y-105804275D01*
X155354065Y-105798300D01*
X155535502Y-105780430D01*
X155768301Y-105709811D01*
X155982849Y-105595133D01*
X156170902Y-105440802D01*
X156198124Y-105407632D01*
X156276815Y-105503518D01*
%TA.AperFunction,NonConductor*%
D16*
G36*
X156276815Y-105503518D02*
G01*
X156289587Y-105514000D01*
X156276815Y-105524482D01*
X156197463Y-105621173D01*
X156138498Y-105731487D01*
X156102188Y-105851185D01*
X156089928Y-105975667D01*
X156089928Y-106204425D01*
X155978424Y-106264026D01*
X155862699Y-106358999D01*
X155838900Y-106387998D01*
X155493899Y-106733000D01*
X147246178Y-106733000D01*
X147121475Y-106546368D01*
X146914632Y-106339525D01*
X146740240Y-106223000D01*
X146914632Y-106106475D01*
X147121475Y-105899632D01*
X147187729Y-105800476D01*
X147226300Y-105804275D01*
X147286965Y-105798300D01*
X155232735Y-105798300D01*
X155293400Y-105804275D01*
X155354065Y-105798300D01*
X155535502Y-105780430D01*
X155768301Y-105709811D01*
X155982849Y-105595133D01*
X156170902Y-105440802D01*
X156198124Y-105407632D01*
X156276815Y-105503518D01*
G37*
%TD.AperFunction*%
D15*
X144814525Y-105899632D02*
X145021368Y-106106475D01*
X145195760Y-106223000D01*
X145021368Y-106339525D01*
X144814525Y-106546368D01*
X144698000Y-106720760D01*
X144581475Y-106546368D01*
X144374632Y-106339525D01*
X144200240Y-106223000D01*
X144374632Y-106106475D01*
X144581475Y-105899632D01*
X144698000Y-105725240D01*
X144814525Y-105899632D01*
%TA.AperFunction,NonConductor*%
D16*
G36*
X144814525Y-105899632D02*
G01*
X145021368Y-106106475D01*
X145195760Y-106223000D01*
X145021368Y-106339525D01*
X144814525Y-106546368D01*
X144698000Y-106720760D01*
X144581475Y-106546368D01*
X144374632Y-106339525D01*
X144200240Y-106223000D01*
X144374632Y-106106475D01*
X144581475Y-105899632D01*
X144698000Y-105725240D01*
X144814525Y-105899632D01*
G37*
%TD.AperFunction*%
D15*
X144814525Y-103359632D02*
X145021368Y-103566475D01*
X145195760Y-103683000D01*
X145021368Y-103799525D01*
X144814525Y-104006368D01*
X144698000Y-104180760D01*
X144581475Y-104006368D01*
X144374632Y-103799525D01*
X144200240Y-103683000D01*
X144374632Y-103566475D01*
X144581475Y-103359632D01*
X144698000Y-103185240D01*
X144814525Y-103359632D01*
%TA.AperFunction,NonConductor*%
D16*
G36*
X144814525Y-103359632D02*
G01*
X145021368Y-103566475D01*
X145195760Y-103683000D01*
X145021368Y-103799525D01*
X144814525Y-104006368D01*
X144698000Y-104180760D01*
X144581475Y-104006368D01*
X144374632Y-103799525D01*
X144200240Y-103683000D01*
X144374632Y-103566475D01*
X144581475Y-103359632D01*
X144698000Y-103185240D01*
X144814525Y-103359632D01*
G37*
%TD.AperFunction*%
D15*
X150413926Y-97469737D02*
X150583444Y-97583005D01*
X150771802Y-97661026D01*
X150971761Y-97700800D01*
X151033899Y-97700800D01*
X153312901Y-99979803D01*
X153312900Y-102459289D01*
X153268963Y-102503226D01*
X153155695Y-102672744D01*
X153077674Y-102861102D01*
X153037900Y-103061061D01*
X153037900Y-103264939D01*
X153050503Y-103328300D01*
X148027000Y-103328300D01*
X148027000Y-103297665D01*
X148032975Y-103237000D01*
X148009130Y-102994897D01*
X147938511Y-102762100D01*
X147938511Y-102762099D01*
X147823833Y-102547551D01*
X147669502Y-102359498D01*
X147622374Y-102320821D01*
X147424372Y-102122819D01*
X147395932Y-101979842D01*
X147283990Y-101709589D01*
X147121475Y-101466368D01*
X146914632Y-101259525D01*
X146740240Y-101143000D01*
X146914632Y-101026475D01*
X147121475Y-100819632D01*
X147283990Y-100576411D01*
X147395932Y-100306158D01*
X147453000Y-100019260D01*
X147453000Y-99726740D01*
X147395932Y-99439842D01*
X147331215Y-99283600D01*
X148152878Y-99283600D01*
X148190200Y-99287276D01*
X148227522Y-99283600D01*
X148227533Y-99283600D01*
X148339186Y-99272603D01*
X148482447Y-99229146D01*
X148614476Y-99158574D01*
X148730201Y-99063601D01*
X148754004Y-99034597D01*
X150366395Y-97422206D01*
X150413926Y-97469737D01*
%TA.AperFunction,NonConductor*%
D16*
G36*
X150413926Y-97469737D02*
G01*
X150583444Y-97583005D01*
X150771802Y-97661026D01*
X150971761Y-97700800D01*
X151033899Y-97700800D01*
X153312901Y-99979803D01*
X153312900Y-102459289D01*
X153268963Y-102503226D01*
X153155695Y-102672744D01*
X153077674Y-102861102D01*
X153037900Y-103061061D01*
X153037900Y-103264939D01*
X153050503Y-103328300D01*
X148027000Y-103328300D01*
X148027000Y-103297665D01*
X148032975Y-103237000D01*
X148009130Y-102994897D01*
X147938511Y-102762100D01*
X147938511Y-102762099D01*
X147823833Y-102547551D01*
X147669502Y-102359498D01*
X147622374Y-102320821D01*
X147424372Y-102122819D01*
X147395932Y-101979842D01*
X147283990Y-101709589D01*
X147121475Y-101466368D01*
X146914632Y-101259525D01*
X146740240Y-101143000D01*
X146914632Y-101026475D01*
X147121475Y-100819632D01*
X147283990Y-100576411D01*
X147395932Y-100306158D01*
X147453000Y-100019260D01*
X147453000Y-99726740D01*
X147395932Y-99439842D01*
X147331215Y-99283600D01*
X148152878Y-99283600D01*
X148190200Y-99287276D01*
X148227522Y-99283600D01*
X148227533Y-99283600D01*
X148339186Y-99272603D01*
X148482447Y-99229146D01*
X148614476Y-99158574D01*
X148730201Y-99063601D01*
X148754004Y-99034597D01*
X150366395Y-97422206D01*
X150413926Y-97469737D01*
G37*
%TD.AperFunction*%
D15*
X144814525Y-100819632D02*
X145021368Y-101026475D01*
X145195760Y-101143000D01*
X145021368Y-101259525D01*
X144814525Y-101466368D01*
X144698000Y-101640760D01*
X144581475Y-101466368D01*
X144374632Y-101259525D01*
X144200240Y-101143000D01*
X144374632Y-101026475D01*
X144581475Y-100819632D01*
X144698000Y-100645240D01*
X144814525Y-100819632D01*
%TA.AperFunction,NonConductor*%
D16*
G36*
X144814525Y-100819632D02*
G01*
X145021368Y-101026475D01*
X145195760Y-101143000D01*
X145021368Y-101259525D01*
X144814525Y-101466368D01*
X144698000Y-101640760D01*
X144581475Y-101466368D01*
X144374632Y-101259525D01*
X144200240Y-101143000D01*
X144374632Y-101026475D01*
X144581475Y-100819632D01*
X144698000Y-100645240D01*
X144814525Y-100819632D01*
G37*
%TD.AperFunction*%
D15*
X156089928Y-96742333D02*
X156102188Y-96866815D01*
X156138498Y-96986513D01*
X156197463Y-97096827D01*
X156276815Y-97193518D01*
X156289587Y-97204000D01*
X156276815Y-97214482D01*
X156197463Y-97311173D01*
X156138498Y-97421487D01*
X156102188Y-97541185D01*
X156089928Y-97665667D01*
X156089928Y-99512333D01*
X156102188Y-99636815D01*
X156138498Y-99756513D01*
X156197463Y-99866827D01*
X156276815Y-99963518D01*
X156289587Y-99974000D01*
X156276815Y-99984482D01*
X156197463Y-100081173D01*
X156174571Y-100124000D01*
X155788365Y-100124000D01*
X155727700Y-100118025D01*
X155667035Y-100124000D01*
X155485598Y-100141870D01*
X155252799Y-100212489D01*
X155038251Y-100327167D01*
X154850198Y-100481498D01*
X154832900Y-100502576D01*
X154832900Y-99702322D01*
X154836576Y-99664999D01*
X154832900Y-99627676D01*
X154832900Y-99627667D01*
X154821903Y-99516014D01*
X154778446Y-99372753D01*
X154707874Y-99240724D01*
X154612901Y-99124999D01*
X154583903Y-99101201D01*
X152108700Y-96625999D01*
X152108700Y-96579000D01*
X156089928Y-96579000D01*
X156089928Y-96742333D01*
%TA.AperFunction,NonConductor*%
D16*
G36*
X156089928Y-96742333D02*
G01*
X156102188Y-96866815D01*
X156138498Y-96986513D01*
X156197463Y-97096827D01*
X156276815Y-97193518D01*
X156289587Y-97204000D01*
X156276815Y-97214482D01*
X156197463Y-97311173D01*
X156138498Y-97421487D01*
X156102188Y-97541185D01*
X156089928Y-97665667D01*
X156089928Y-99512333D01*
X156102188Y-99636815D01*
X156138498Y-99756513D01*
X156197463Y-99866827D01*
X156276815Y-99963518D01*
X156289587Y-99974000D01*
X156276815Y-99984482D01*
X156197463Y-100081173D01*
X156174571Y-100124000D01*
X155788365Y-100124000D01*
X155727700Y-100118025D01*
X155667035Y-100124000D01*
X155485598Y-100141870D01*
X155252799Y-100212489D01*
X155038251Y-100327167D01*
X154850198Y-100481498D01*
X154832900Y-100502576D01*
X154832900Y-99702322D01*
X154836576Y-99664999D01*
X154832900Y-99627676D01*
X154832900Y-99627667D01*
X154821903Y-99516014D01*
X154778446Y-99372753D01*
X154707874Y-99240724D01*
X154612901Y-99124999D01*
X154583903Y-99101201D01*
X152108700Y-96625999D01*
X152108700Y-96579000D01*
X156089928Y-96579000D01*
X156089928Y-96742333D01*
G37*
%TD.AperFunction*%
M02*
