M48
; DRILL file {KiCad (5.1.9)-1} date 07/05/21 16:45:06
; FORMAT={-:-/ absolute / inch / decimal}
; #@! TF.CreationDate,2021-07-05T16:45:06-04:00
; #@! TF.GenerationSoftware,Kicad,Pcbnew,(5.1.9)-1
; #@! TF.FileFunction,Plated,1,2,PTH
FMAT,2
INCH
T1C0.0157
T2C0.0394
%
G90
G05
T1
X5.5915Y-4.6767
X5.8044Y-4.3694
X5.8099Y-3.8135
X5.8123Y-4.7755
X5.9478Y-3.8057
X6.0659Y-4.0615
T2
X5.6468Y-3.832
X5.6468Y-3.932
X5.6468Y-4.032
X5.6468Y-4.132
X5.6468Y-4.232
X5.6468Y-4.332
X5.6468Y-4.432
X5.6468Y-4.532
X5.6468Y-4.632
X5.6468Y-4.732
X5.7468Y-3.832
X5.7468Y-3.932
X5.7468Y-4.032
X5.7468Y-4.132
X5.7468Y-4.232
X5.7468Y-4.332
X5.7468Y-4.432
X5.7468Y-4.532
X5.7468Y-4.632
X5.7468Y-4.732
T0
M30
