M48
; DRILL file {KiCad (5.1.9)-1} date 07/27/21 13:59:04
; FORMAT={-:-/ absolute / inch / decimal}
; #@! TF.CreationDate,2021-07-27T13:59:04-04:00
; #@! TF.GenerationSoftware,Kicad,Pcbnew,(5.1.9)-1
; #@! TF.FileFunction,Plated,1,2,PTH
FMAT,2
INCH
T1C0.0157
T2C0.0394
%
G90
G05
T1
X5.9607Y-4.7273
T2
X5.6287Y-3.8147
X5.6287Y-3.9147
X5.6287Y-4.0147
X5.6287Y-4.1147
X5.6287Y-4.2147
X5.6287Y-4.3147
X5.6287Y-4.4147
X5.6287Y-4.5147
X5.6287Y-4.6147
X5.6287Y-4.7147
X5.7287Y-3.8147
X5.7287Y-3.9147
X5.7287Y-4.0147
X5.7287Y-4.1147
X5.7287Y-4.2147
X5.7287Y-4.3147
X5.7287Y-4.4147
X5.7287Y-4.5147
X5.7287Y-4.6147
X5.7287Y-4.7147
T0
M30
