%TF.GenerationSoftware,KiCad,Pcbnew,(5.1.9)-1*%
%TF.CreationDate,2021-07-27T13:58:59-04:00*%
%TF.ProjectId,Amiga2MacFloppy,416d6967-6132-44d6-9163-466c6f707079,1.0*%
%TF.SameCoordinates,Original*%
%TF.FileFunction,Copper,L1,Top*%
%TF.FilePolarity,Positive*%
%FSLAX46Y46*%
G04 Gerber Fmt 4.6, Leading zero omitted, Abs format (unit mm)*
G04 Created by KiCad (PCBNEW (5.1.9)-1) date 2021-07-27 13:58:59*
%MOMM*%
%LPD*%
G01*
G04 APERTURE LIST*
%TA.AperFunction,SMDPad,CuDef*%
%ADD10R,3.480000X1.846667*%
%TD*%
%TA.AperFunction,ComponentPad*%
%ADD11C,1.700000*%
%TD*%
%TA.AperFunction,ViaPad*%
%ADD12C,0.800000*%
%TD*%
%TA.AperFunction,Conductor*%
%ADD13C,1.200000*%
%TD*%
%TA.AperFunction,Conductor*%
%ADD14C,0.250000*%
%TD*%
%TA.AperFunction,NonConductor*%
%ADD15C,0.254000*%
%TD*%
%TA.AperFunction,NonConductor*%
%ADD16C,0.100000*%
%TD*%
G04 APERTURE END LIST*
D10*
%TO.P,J1 DB19F,1*%
%TO.N,GND*%
X158268000Y-95637000D03*
%TO.P,J1 DB19F,2*%
X158268000Y-98407000D03*
%TO.P,J1 DB19F,3*%
X158268000Y-101177000D03*
%TO.P,J1 DB19F,4*%
X158268000Y-103947000D03*
%TO.P,J1 DB19F,5*%
%TO.N,N/C*%
X158268000Y-106717000D03*
%TO.P,J1 DB19F,6*%
%TO.N,+5V*%
X158268000Y-109487000D03*
%TO.P,J1 DB19F,7*%
%TO.N,+12V*%
X158268000Y-112257000D03*
%TO.P,J1 DB19F,8*%
X158268000Y-115027000D03*
%TO.P,J1 DB19F,9*%
%TO.N,N/C*%
X158268000Y-117797000D03*
%TO.P,J1 DB19F,10*%
%TO.N,PWM*%
X158268000Y-120567000D03*
%TD*%
D11*
%TO.P,J2 IDC 2x10,20*%
%TO.N,PWM*%
X145508000Y-119753000D03*
%TO.P,J2 IDC 2x10,18*%
%TO.N,WR*%
X145508000Y-117213000D03*
%TO.P,J2 IDC 2x10,16*%
%TO.N,RD*%
X145508000Y-114673000D03*
%TO.P,J2 IDC 2x10,14*%
%TO.N,_ENABLE*%
X145508000Y-112133000D03*
%TO.P,J2 IDC 2x10,12*%
%TO.N,SEL*%
X145508000Y-109593000D03*
%TO.P,J2 IDC 2x10,10*%
%TO.N,_DKWE*%
X145508000Y-107053000D03*
%TO.P,J2 IDC 2x10,8*%
%TO.N,PH3*%
X145508000Y-104513000D03*
%TO.P,J2 IDC 2x10,6*%
%TO.N,PH2*%
X145508000Y-101973000D03*
%TO.P,J2 IDC 2x10,4*%
%TO.N,DIR*%
X145508000Y-99433000D03*
%TO.P,J2 IDC 2x10,2*%
%TO.N,PH0*%
X145508000Y-96893000D03*
%TO.P,J2 IDC 2x10,19*%
%TO.N,N/C*%
X142968000Y-119753000D03*
%TO.P,J2 IDC 2x10,17*%
X142968000Y-117213000D03*
%TO.P,J2 IDC 2x10,15*%
%TO.N,+12V*%
X142968000Y-114673000D03*
%TO.P,J2 IDC 2x10,13*%
X142968000Y-112133000D03*
%TO.P,J2 IDC 2x10,11*%
%TO.N,+5V*%
X142968000Y-109593000D03*
%TO.P,J2 IDC 2x10,9*%
%TO.N,N/C*%
X142968000Y-107053000D03*
%TO.P,J2 IDC 2x10,7*%
%TO.N,GND*%
X142968000Y-104513000D03*
%TO.P,J2 IDC 2x10,5*%
X142968000Y-101973000D03*
%TO.P,J2 IDC 2x10,3*%
X142968000Y-99433000D03*
%TO.P,J2 IDC 2x10,1*%
%TA.AperFunction,ComponentPad*%
G36*
G01*
X142118000Y-97493000D02*
X142118000Y-96293000D01*
G75*
G02*
X142368000Y-96043000I250000J0D01*
G01*
X143568000Y-96043000D01*
G75*
G02*
X143818000Y-96293000I0J-250000D01*
G01*
X143818000Y-97493000D01*
G75*
G02*
X143568000Y-97743000I-250000J0D01*
G01*
X142368000Y-97743000D01*
G75*
G02*
X142118000Y-97493000I0J250000D01*
G01*
G37*
%TD.AperFunction*%
%TD*%
D12*
%TO.N,PWM*%
X151401900Y-120072700D03*
%TD*%
D13*
%TO.N,GND*%
X142968000Y-101973000D02*
X142968000Y-104513000D01*
X142968000Y-99433000D02*
X142968000Y-101973000D01*
X156897900Y-95637000D02*
X155527700Y-95637000D01*
X158268000Y-95637000D02*
X156897900Y-95637000D01*
X156897900Y-98407000D02*
X155527700Y-98407000D01*
X158268000Y-98407000D02*
X156897900Y-98407000D01*
X156897900Y-98407000D02*
X156897900Y-95637000D01*
X156897900Y-101177000D02*
X155527700Y-99806800D01*
X155527700Y-99806800D02*
X155527700Y-98407000D01*
X156897900Y-101177000D02*
X155527700Y-101177000D01*
X158268000Y-101177000D02*
X156897900Y-101177000D01*
X158268000Y-103947000D02*
X155527700Y-103947000D01*
X155527700Y-103947000D02*
X155527700Y-101177000D01*
X142968000Y-96893000D02*
X142968000Y-96795700D01*
X142968000Y-96795700D02*
X144726200Y-95037500D01*
X144726200Y-95037500D02*
X154928200Y-95037500D01*
X154928200Y-95037500D02*
X155527700Y-95637000D01*
X142968000Y-99433000D02*
X142968000Y-96893000D01*
%TO.N,+12V*%
X142968000Y-114673000D02*
X142836700Y-114673000D01*
X142836700Y-114673000D02*
X141104100Y-116405600D01*
X141104100Y-116405600D02*
X141104100Y-120567800D01*
X141104100Y-120567800D02*
X142192800Y-121656500D01*
X142192800Y-121656500D02*
X147528000Y-121656500D01*
X147528000Y-121656500D02*
X155527700Y-113656800D01*
X142968000Y-112133000D02*
X142968000Y-114673000D01*
X155527700Y-113656800D02*
X155527700Y-112257000D01*
X156897900Y-115027000D02*
X155527700Y-113656800D01*
X158268000Y-112257000D02*
X155527700Y-112257000D01*
X158268000Y-115027000D02*
X156897900Y-115027000D01*
D14*
%TO.N,PWM*%
X158268000Y-120567000D02*
X156202700Y-120567000D01*
X151401900Y-120072700D02*
X155708400Y-120072700D01*
X155708400Y-120072700D02*
X156202700Y-120567000D01*
%TO.N,+5V*%
X158268000Y-109487000D02*
X156202700Y-109487000D01*
X142968000Y-109593000D02*
X144165300Y-108395700D01*
X144165300Y-108395700D02*
X155111400Y-108395700D01*
X155111400Y-108395700D02*
X156202700Y-109487000D01*
%TD*%
D15*
X159807760Y-94075595D02*
X156528000Y-94075595D01*
X156403518Y-94087855D01*
X156283820Y-94124165D01*
X156173506Y-94183130D01*
X156076815Y-94262482D01*
X155997463Y-94359173D01*
X155997102Y-94359849D01*
X155844379Y-94207126D01*
X155805702Y-94159998D01*
X155617649Y-94005667D01*
X155403101Y-93890989D01*
X155170302Y-93820370D01*
X154988865Y-93802500D01*
X154928200Y-93796525D01*
X154867535Y-93802500D01*
X144786862Y-93802500D01*
X144726199Y-93796525D01*
X144665536Y-93802500D01*
X144665535Y-93802500D01*
X144484098Y-93820370D01*
X144251299Y-93890989D01*
X144036751Y-94005667D01*
X143848698Y-94159998D01*
X143810026Y-94207120D01*
X142612219Y-95404928D01*
X142368000Y-95404928D01*
X142194746Y-95421992D01*
X142028150Y-95472528D01*
X141874614Y-95554595D01*
X141740038Y-95665038D01*
X141629595Y-95799614D01*
X141547528Y-95953150D01*
X141496992Y-96119746D01*
X141479928Y-96293000D01*
X141479928Y-97493000D01*
X141496992Y-97666254D01*
X141547528Y-97832850D01*
X141629595Y-97986386D01*
X141733001Y-98112387D01*
X141733000Y-98608378D01*
X141652010Y-98729589D01*
X141540068Y-98999842D01*
X141483000Y-99286740D01*
X141483000Y-99579260D01*
X141540068Y-99866158D01*
X141652010Y-100136411D01*
X141733000Y-100257622D01*
X141733001Y-101148378D01*
X141652010Y-101269589D01*
X141540068Y-101539842D01*
X141483000Y-101826740D01*
X141483000Y-102119260D01*
X141540068Y-102406158D01*
X141652010Y-102676411D01*
X141733000Y-102797622D01*
X141733001Y-103688378D01*
X141652010Y-103809589D01*
X141540068Y-104079842D01*
X141483000Y-104366740D01*
X141483000Y-104659260D01*
X141540068Y-104946158D01*
X141652010Y-105216411D01*
X141814525Y-105459632D01*
X142021368Y-105666475D01*
X142195760Y-105783000D01*
X142021368Y-105899525D01*
X141814525Y-106106368D01*
X141652010Y-106349589D01*
X141540068Y-106619842D01*
X141483000Y-106906740D01*
X141483000Y-107199260D01*
X141540068Y-107486158D01*
X141652010Y-107756411D01*
X141814525Y-107999632D01*
X142021368Y-108206475D01*
X142195760Y-108323000D01*
X142021368Y-108439525D01*
X141814525Y-108646368D01*
X141652010Y-108889589D01*
X141540068Y-109159842D01*
X141483000Y-109446740D01*
X141483000Y-109739260D01*
X141540068Y-110026158D01*
X141652010Y-110296411D01*
X141814525Y-110539632D01*
X142021368Y-110746475D01*
X142195760Y-110863000D01*
X142021368Y-110979525D01*
X141814525Y-111186368D01*
X141652010Y-111429589D01*
X141540068Y-111699842D01*
X141483000Y-111986740D01*
X141483000Y-112279260D01*
X141540068Y-112566158D01*
X141652010Y-112836411D01*
X141733000Y-112957622D01*
X141733001Y-113848378D01*
X141652010Y-113969589D01*
X141551922Y-114211225D01*
X140273725Y-115489422D01*
X140226598Y-115528098D01*
X140072267Y-115716152D01*
X139957589Y-115930700D01*
X139939907Y-115988990D01*
X139886970Y-116163498D01*
X139863125Y-116405600D01*
X139869100Y-116466265D01*
X139869101Y-120507125D01*
X139863125Y-120567800D01*
X139886970Y-120809902D01*
X139941574Y-120989905D01*
X139957590Y-121042701D01*
X140072268Y-121257249D01*
X140226599Y-121445302D01*
X140273721Y-121483974D01*
X141276626Y-122486880D01*
X141315298Y-122534002D01*
X141503351Y-122688333D01*
X141717899Y-122803011D01*
X141950698Y-122873630D01*
X142132135Y-122891500D01*
X142132136Y-122891500D01*
X142192799Y-122897475D01*
X142253462Y-122891500D01*
X147467335Y-122891500D01*
X147528000Y-122897475D01*
X147588665Y-122891500D01*
X147770102Y-122873630D01*
X148002901Y-122803011D01*
X148217449Y-122688333D01*
X148405502Y-122534002D01*
X148444179Y-122486874D01*
X150450544Y-120480509D01*
X150484695Y-120562956D01*
X150597963Y-120732474D01*
X150742126Y-120876637D01*
X150911644Y-120989905D01*
X151100002Y-121067926D01*
X151299961Y-121107700D01*
X151503839Y-121107700D01*
X151703798Y-121067926D01*
X151892156Y-120989905D01*
X152061674Y-120876637D01*
X152105611Y-120832700D01*
X155393599Y-120832700D01*
X155638896Y-121077997D01*
X155662699Y-121107001D01*
X155778424Y-121201974D01*
X155889928Y-121261575D01*
X155889928Y-121490333D01*
X155902188Y-121614815D01*
X155938498Y-121734513D01*
X155997463Y-121844827D01*
X156076815Y-121941518D01*
X156173506Y-122020870D01*
X156283820Y-122079835D01*
X156403518Y-122116145D01*
X156528000Y-122128405D01*
X159807761Y-122128405D01*
X159807761Y-127532960D01*
X131127760Y-127532960D01*
X131127760Y-124972872D01*
X131233000Y-124972872D01*
X131233000Y-125413128D01*
X131318890Y-125844925D01*
X131487369Y-126251669D01*
X131731962Y-126617729D01*
X132043271Y-126929038D01*
X132409331Y-127173631D01*
X132816075Y-127342110D01*
X133247872Y-127428000D01*
X133688128Y-127428000D01*
X134119925Y-127342110D01*
X134526669Y-127173631D01*
X134892729Y-126929038D01*
X135204038Y-126617729D01*
X135448631Y-126251669D01*
X135617110Y-125844925D01*
X135703000Y-125413128D01*
X135703000Y-124972872D01*
X135617110Y-124541075D01*
X135448631Y-124134331D01*
X135204038Y-123768271D01*
X134892729Y-123456962D01*
X134526669Y-123212369D01*
X134119925Y-123043890D01*
X133688128Y-122958000D01*
X133247872Y-122958000D01*
X132816075Y-123043890D01*
X132409331Y-123212369D01*
X132043271Y-123456962D01*
X131731962Y-123768271D01*
X131487369Y-124134331D01*
X131318890Y-124541075D01*
X131233000Y-124972872D01*
X131127760Y-124972872D01*
X131127760Y-90972872D01*
X131233000Y-90972872D01*
X131233000Y-91413128D01*
X131318890Y-91844925D01*
X131487369Y-92251669D01*
X131731962Y-92617729D01*
X132043271Y-92929038D01*
X132409331Y-93173631D01*
X132816075Y-93342110D01*
X133247872Y-93428000D01*
X133688128Y-93428000D01*
X134119925Y-93342110D01*
X134526669Y-93173631D01*
X134892729Y-92929038D01*
X135204038Y-92617729D01*
X135448631Y-92251669D01*
X135617110Y-91844925D01*
X135703000Y-91413128D01*
X135703000Y-90972872D01*
X135617110Y-90541075D01*
X135448631Y-90134331D01*
X135204038Y-89768271D01*
X134892729Y-89456962D01*
X134526669Y-89212369D01*
X134119925Y-89043890D01*
X133688128Y-88958000D01*
X133247872Y-88958000D01*
X132816075Y-89043890D01*
X132409331Y-89212369D01*
X132043271Y-89456962D01*
X131731962Y-89768271D01*
X131487369Y-90134331D01*
X131318890Y-90541075D01*
X131233000Y-90972872D01*
X131127760Y-90972872D01*
X131127760Y-88852960D01*
X159807760Y-88852960D01*
X159807760Y-94075595D01*
%TA.AperFunction,NonConductor*%
D16*
G36*
X159807760Y-94075595D02*
G01*
X156528000Y-94075595D01*
X156403518Y-94087855D01*
X156283820Y-94124165D01*
X156173506Y-94183130D01*
X156076815Y-94262482D01*
X155997463Y-94359173D01*
X155997102Y-94359849D01*
X155844379Y-94207126D01*
X155805702Y-94159998D01*
X155617649Y-94005667D01*
X155403101Y-93890989D01*
X155170302Y-93820370D01*
X154988865Y-93802500D01*
X154928200Y-93796525D01*
X154867535Y-93802500D01*
X144786862Y-93802500D01*
X144726199Y-93796525D01*
X144665536Y-93802500D01*
X144665535Y-93802500D01*
X144484098Y-93820370D01*
X144251299Y-93890989D01*
X144036751Y-94005667D01*
X143848698Y-94159998D01*
X143810026Y-94207120D01*
X142612219Y-95404928D01*
X142368000Y-95404928D01*
X142194746Y-95421992D01*
X142028150Y-95472528D01*
X141874614Y-95554595D01*
X141740038Y-95665038D01*
X141629595Y-95799614D01*
X141547528Y-95953150D01*
X141496992Y-96119746D01*
X141479928Y-96293000D01*
X141479928Y-97493000D01*
X141496992Y-97666254D01*
X141547528Y-97832850D01*
X141629595Y-97986386D01*
X141733001Y-98112387D01*
X141733000Y-98608378D01*
X141652010Y-98729589D01*
X141540068Y-98999842D01*
X141483000Y-99286740D01*
X141483000Y-99579260D01*
X141540068Y-99866158D01*
X141652010Y-100136411D01*
X141733000Y-100257622D01*
X141733001Y-101148378D01*
X141652010Y-101269589D01*
X141540068Y-101539842D01*
X141483000Y-101826740D01*
X141483000Y-102119260D01*
X141540068Y-102406158D01*
X141652010Y-102676411D01*
X141733000Y-102797622D01*
X141733001Y-103688378D01*
X141652010Y-103809589D01*
X141540068Y-104079842D01*
X141483000Y-104366740D01*
X141483000Y-104659260D01*
X141540068Y-104946158D01*
X141652010Y-105216411D01*
X141814525Y-105459632D01*
X142021368Y-105666475D01*
X142195760Y-105783000D01*
X142021368Y-105899525D01*
X141814525Y-106106368D01*
X141652010Y-106349589D01*
X141540068Y-106619842D01*
X141483000Y-106906740D01*
X141483000Y-107199260D01*
X141540068Y-107486158D01*
X141652010Y-107756411D01*
X141814525Y-107999632D01*
X142021368Y-108206475D01*
X142195760Y-108323000D01*
X142021368Y-108439525D01*
X141814525Y-108646368D01*
X141652010Y-108889589D01*
X141540068Y-109159842D01*
X141483000Y-109446740D01*
X141483000Y-109739260D01*
X141540068Y-110026158D01*
X141652010Y-110296411D01*
X141814525Y-110539632D01*
X142021368Y-110746475D01*
X142195760Y-110863000D01*
X142021368Y-110979525D01*
X141814525Y-111186368D01*
X141652010Y-111429589D01*
X141540068Y-111699842D01*
X141483000Y-111986740D01*
X141483000Y-112279260D01*
X141540068Y-112566158D01*
X141652010Y-112836411D01*
X141733000Y-112957622D01*
X141733001Y-113848378D01*
X141652010Y-113969589D01*
X141551922Y-114211225D01*
X140273725Y-115489422D01*
X140226598Y-115528098D01*
X140072267Y-115716152D01*
X139957589Y-115930700D01*
X139939907Y-115988990D01*
X139886970Y-116163498D01*
X139863125Y-116405600D01*
X139869100Y-116466265D01*
X139869101Y-120507125D01*
X139863125Y-120567800D01*
X139886970Y-120809902D01*
X139941574Y-120989905D01*
X139957590Y-121042701D01*
X140072268Y-121257249D01*
X140226599Y-121445302D01*
X140273721Y-121483974D01*
X141276626Y-122486880D01*
X141315298Y-122534002D01*
X141503351Y-122688333D01*
X141717899Y-122803011D01*
X141950698Y-122873630D01*
X142132135Y-122891500D01*
X142132136Y-122891500D01*
X142192799Y-122897475D01*
X142253462Y-122891500D01*
X147467335Y-122891500D01*
X147528000Y-122897475D01*
X147588665Y-122891500D01*
X147770102Y-122873630D01*
X148002901Y-122803011D01*
X148217449Y-122688333D01*
X148405502Y-122534002D01*
X148444179Y-122486874D01*
X150450544Y-120480509D01*
X150484695Y-120562956D01*
X150597963Y-120732474D01*
X150742126Y-120876637D01*
X150911644Y-120989905D01*
X151100002Y-121067926D01*
X151299961Y-121107700D01*
X151503839Y-121107700D01*
X151703798Y-121067926D01*
X151892156Y-120989905D01*
X152061674Y-120876637D01*
X152105611Y-120832700D01*
X155393599Y-120832700D01*
X155638896Y-121077997D01*
X155662699Y-121107001D01*
X155778424Y-121201974D01*
X155889928Y-121261575D01*
X155889928Y-121490333D01*
X155902188Y-121614815D01*
X155938498Y-121734513D01*
X155997463Y-121844827D01*
X156076815Y-121941518D01*
X156173506Y-122020870D01*
X156283820Y-122079835D01*
X156403518Y-122116145D01*
X156528000Y-122128405D01*
X159807761Y-122128405D01*
X159807761Y-127532960D01*
X131127760Y-127532960D01*
X131127760Y-124972872D01*
X131233000Y-124972872D01*
X131233000Y-125413128D01*
X131318890Y-125844925D01*
X131487369Y-126251669D01*
X131731962Y-126617729D01*
X132043271Y-126929038D01*
X132409331Y-127173631D01*
X132816075Y-127342110D01*
X133247872Y-127428000D01*
X133688128Y-127428000D01*
X134119925Y-127342110D01*
X134526669Y-127173631D01*
X134892729Y-126929038D01*
X135204038Y-126617729D01*
X135448631Y-126251669D01*
X135617110Y-125844925D01*
X135703000Y-125413128D01*
X135703000Y-124972872D01*
X135617110Y-124541075D01*
X135448631Y-124134331D01*
X135204038Y-123768271D01*
X134892729Y-123456962D01*
X134526669Y-123212369D01*
X134119925Y-123043890D01*
X133688128Y-122958000D01*
X133247872Y-122958000D01*
X132816075Y-123043890D01*
X132409331Y-123212369D01*
X132043271Y-123456962D01*
X131731962Y-123768271D01*
X131487369Y-124134331D01*
X131318890Y-124541075D01*
X131233000Y-124972872D01*
X131127760Y-124972872D01*
X131127760Y-90972872D01*
X131233000Y-90972872D01*
X131233000Y-91413128D01*
X131318890Y-91844925D01*
X131487369Y-92251669D01*
X131731962Y-92617729D01*
X132043271Y-92929038D01*
X132409331Y-93173631D01*
X132816075Y-93342110D01*
X133247872Y-93428000D01*
X133688128Y-93428000D01*
X134119925Y-93342110D01*
X134526669Y-93173631D01*
X134892729Y-92929038D01*
X135204038Y-92617729D01*
X135448631Y-92251669D01*
X135617110Y-91844925D01*
X135703000Y-91413128D01*
X135703000Y-90972872D01*
X135617110Y-90541075D01*
X135448631Y-90134331D01*
X135204038Y-89768271D01*
X134892729Y-89456962D01*
X134526669Y-89212369D01*
X134119925Y-89043890D01*
X133688128Y-88958000D01*
X133247872Y-88958000D01*
X132816075Y-89043890D01*
X132409331Y-89212369D01*
X132043271Y-89456962D01*
X131731962Y-89768271D01*
X131487369Y-90134331D01*
X131318890Y-90541075D01*
X131233000Y-90972872D01*
X131127760Y-90972872D01*
X131127760Y-88852960D01*
X159807760Y-88852960D01*
X159807760Y-94075595D01*
G37*
%TD.AperFunction*%
D15*
X155638901Y-109998003D02*
X155662699Y-110027001D01*
X155778424Y-110121974D01*
X155889928Y-110181575D01*
X155889928Y-110410333D01*
X155902188Y-110534815D01*
X155938498Y-110654513D01*
X155997463Y-110764827D01*
X156076815Y-110861518D01*
X156089587Y-110872000D01*
X156076815Y-110882482D01*
X155997463Y-110979173D01*
X155974571Y-111022000D01*
X155588365Y-111022000D01*
X155527700Y-111016025D01*
X155467035Y-111022000D01*
X155285598Y-111039870D01*
X155052799Y-111110489D01*
X154838251Y-111225167D01*
X154650198Y-111379498D01*
X154495867Y-111567551D01*
X154381189Y-111782099D01*
X154310570Y-112014898D01*
X154286725Y-112257000D01*
X154292700Y-112317665D01*
X154292700Y-113145246D01*
X147016447Y-120421500D01*
X146838451Y-120421500D01*
X146935932Y-120186158D01*
X146993000Y-119899260D01*
X146993000Y-119606740D01*
X146935932Y-119319842D01*
X146823990Y-119049589D01*
X146661475Y-118806368D01*
X146454632Y-118599525D01*
X146280240Y-118483000D01*
X146454632Y-118366475D01*
X146661475Y-118159632D01*
X146823990Y-117916411D01*
X146935932Y-117646158D01*
X146993000Y-117359260D01*
X146993000Y-117066740D01*
X146935932Y-116779842D01*
X146823990Y-116509589D01*
X146661475Y-116266368D01*
X146454632Y-116059525D01*
X146280240Y-115943000D01*
X146454632Y-115826475D01*
X146661475Y-115619632D01*
X146823990Y-115376411D01*
X146935932Y-115106158D01*
X146993000Y-114819260D01*
X146993000Y-114526740D01*
X146935932Y-114239842D01*
X146823990Y-113969589D01*
X146661475Y-113726368D01*
X146454632Y-113519525D01*
X146280240Y-113403000D01*
X146454632Y-113286475D01*
X146661475Y-113079632D01*
X146823990Y-112836411D01*
X146935932Y-112566158D01*
X146993000Y-112279260D01*
X146993000Y-111986740D01*
X146935932Y-111699842D01*
X146823990Y-111429589D01*
X146661475Y-111186368D01*
X146454632Y-110979525D01*
X146280240Y-110863000D01*
X146454632Y-110746475D01*
X146661475Y-110539632D01*
X146823990Y-110296411D01*
X146935932Y-110026158D01*
X146993000Y-109739260D01*
X146993000Y-109446740D01*
X146935932Y-109159842D01*
X146934216Y-109155700D01*
X154796599Y-109155700D01*
X155638901Y-109998003D01*
%TA.AperFunction,NonConductor*%
D16*
G36*
X155638901Y-109998003D02*
G01*
X155662699Y-110027001D01*
X155778424Y-110121974D01*
X155889928Y-110181575D01*
X155889928Y-110410333D01*
X155902188Y-110534815D01*
X155938498Y-110654513D01*
X155997463Y-110764827D01*
X156076815Y-110861518D01*
X156089587Y-110872000D01*
X156076815Y-110882482D01*
X155997463Y-110979173D01*
X155974571Y-111022000D01*
X155588365Y-111022000D01*
X155527700Y-111016025D01*
X155467035Y-111022000D01*
X155285598Y-111039870D01*
X155052799Y-111110489D01*
X154838251Y-111225167D01*
X154650198Y-111379498D01*
X154495867Y-111567551D01*
X154381189Y-111782099D01*
X154310570Y-112014898D01*
X154286725Y-112257000D01*
X154292700Y-112317665D01*
X154292700Y-113145246D01*
X147016447Y-120421500D01*
X146838451Y-120421500D01*
X146935932Y-120186158D01*
X146993000Y-119899260D01*
X146993000Y-119606740D01*
X146935932Y-119319842D01*
X146823990Y-119049589D01*
X146661475Y-118806368D01*
X146454632Y-118599525D01*
X146280240Y-118483000D01*
X146454632Y-118366475D01*
X146661475Y-118159632D01*
X146823990Y-117916411D01*
X146935932Y-117646158D01*
X146993000Y-117359260D01*
X146993000Y-117066740D01*
X146935932Y-116779842D01*
X146823990Y-116509589D01*
X146661475Y-116266368D01*
X146454632Y-116059525D01*
X146280240Y-115943000D01*
X146454632Y-115826475D01*
X146661475Y-115619632D01*
X146823990Y-115376411D01*
X146935932Y-115106158D01*
X146993000Y-114819260D01*
X146993000Y-114526740D01*
X146935932Y-114239842D01*
X146823990Y-113969589D01*
X146661475Y-113726368D01*
X146454632Y-113519525D01*
X146280240Y-113403000D01*
X146454632Y-113286475D01*
X146661475Y-113079632D01*
X146823990Y-112836411D01*
X146935932Y-112566158D01*
X146993000Y-112279260D01*
X146993000Y-111986740D01*
X146935932Y-111699842D01*
X146823990Y-111429589D01*
X146661475Y-111186368D01*
X146454632Y-110979525D01*
X146280240Y-110863000D01*
X146454632Y-110746475D01*
X146661475Y-110539632D01*
X146823990Y-110296411D01*
X146935932Y-110026158D01*
X146993000Y-109739260D01*
X146993000Y-109446740D01*
X146935932Y-109159842D01*
X146934216Y-109155700D01*
X154796599Y-109155700D01*
X155638901Y-109998003D01*
G37*
%TD.AperFunction*%
D15*
X155889928Y-115765582D02*
X155889928Y-115950333D01*
X155902188Y-116074815D01*
X155938498Y-116194513D01*
X155997463Y-116304827D01*
X156076815Y-116401518D01*
X156089587Y-116412000D01*
X156076815Y-116422482D01*
X155997463Y-116519173D01*
X155938498Y-116629487D01*
X155902188Y-116749185D01*
X155889928Y-116873667D01*
X155889928Y-118720333D01*
X155902188Y-118844815D01*
X155938498Y-118964513D01*
X155997463Y-119074827D01*
X156076815Y-119171518D01*
X156089587Y-119182000D01*
X156076815Y-119192482D01*
X155997463Y-119289173D01*
X155962040Y-119355443D01*
X155857386Y-119323697D01*
X155745733Y-119312700D01*
X155745722Y-119312700D01*
X155708400Y-119309024D01*
X155671078Y-119312700D01*
X152105611Y-119312700D01*
X152061674Y-119268763D01*
X151892156Y-119155495D01*
X151809709Y-119121344D01*
X155527700Y-115403354D01*
X155889928Y-115765582D01*
%TA.AperFunction,NonConductor*%
D16*
G36*
X155889928Y-115765582D02*
G01*
X155889928Y-115950333D01*
X155902188Y-116074815D01*
X155938498Y-116194513D01*
X155997463Y-116304827D01*
X156076815Y-116401518D01*
X156089587Y-116412000D01*
X156076815Y-116422482D01*
X155997463Y-116519173D01*
X155938498Y-116629487D01*
X155902188Y-116749185D01*
X155889928Y-116873667D01*
X155889928Y-118720333D01*
X155902188Y-118844815D01*
X155938498Y-118964513D01*
X155997463Y-119074827D01*
X156076815Y-119171518D01*
X156089587Y-119182000D01*
X156076815Y-119192482D01*
X155997463Y-119289173D01*
X155962040Y-119355443D01*
X155857386Y-119323697D01*
X155745733Y-119312700D01*
X155745722Y-119312700D01*
X155708400Y-119309024D01*
X155671078Y-119312700D01*
X152105611Y-119312700D01*
X152061674Y-119268763D01*
X151892156Y-119155495D01*
X151809709Y-119121344D01*
X155527700Y-115403354D01*
X155889928Y-115765582D01*
G37*
%TD.AperFunction*%
D15*
X144354525Y-118159632D02*
X144561368Y-118366475D01*
X144735760Y-118483000D01*
X144561368Y-118599525D01*
X144354525Y-118806368D01*
X144238000Y-118980760D01*
X144121475Y-118806368D01*
X143914632Y-118599525D01*
X143740240Y-118483000D01*
X143914632Y-118366475D01*
X144121475Y-118159632D01*
X144238000Y-117985240D01*
X144354525Y-118159632D01*
%TA.AperFunction,NonConductor*%
D16*
G36*
X144354525Y-118159632D02*
G01*
X144561368Y-118366475D01*
X144735760Y-118483000D01*
X144561368Y-118599525D01*
X144354525Y-118806368D01*
X144238000Y-118980760D01*
X144121475Y-118806368D01*
X143914632Y-118599525D01*
X143740240Y-118483000D01*
X143914632Y-118366475D01*
X144121475Y-118159632D01*
X144238000Y-117985240D01*
X144354525Y-118159632D01*
G37*
%TD.AperFunction*%
D15*
X144354525Y-115619632D02*
X144561368Y-115826475D01*
X144735760Y-115943000D01*
X144561368Y-116059525D01*
X144354525Y-116266368D01*
X144238000Y-116440760D01*
X144121475Y-116266368D01*
X143914632Y-116059525D01*
X143740240Y-115943000D01*
X143914632Y-115826475D01*
X144121475Y-115619632D01*
X144238000Y-115445240D01*
X144354525Y-115619632D01*
%TA.AperFunction,NonConductor*%
D16*
G36*
X144354525Y-115619632D02*
G01*
X144561368Y-115826475D01*
X144735760Y-115943000D01*
X144561368Y-116059525D01*
X144354525Y-116266368D01*
X144238000Y-116440760D01*
X144121475Y-116266368D01*
X143914632Y-116059525D01*
X143740240Y-115943000D01*
X143914632Y-115826475D01*
X144121475Y-115619632D01*
X144238000Y-115445240D01*
X144354525Y-115619632D01*
G37*
%TD.AperFunction*%
D15*
X144354525Y-113079632D02*
X144561368Y-113286475D01*
X144735760Y-113403000D01*
X144561368Y-113519525D01*
X144354525Y-113726368D01*
X144238000Y-113900760D01*
X144203000Y-113848379D01*
X144203000Y-112957621D01*
X144238000Y-112905240D01*
X144354525Y-113079632D01*
%TA.AperFunction,NonConductor*%
D16*
G36*
X144354525Y-113079632D02*
G01*
X144561368Y-113286475D01*
X144735760Y-113403000D01*
X144561368Y-113519525D01*
X144354525Y-113726368D01*
X144238000Y-113900760D01*
X144203000Y-113848379D01*
X144203000Y-112957621D01*
X144238000Y-112905240D01*
X144354525Y-113079632D01*
G37*
%TD.AperFunction*%
D15*
X144354525Y-110539632D02*
X144561368Y-110746475D01*
X144735760Y-110863000D01*
X144561368Y-110979525D01*
X144354525Y-111186368D01*
X144238000Y-111360760D01*
X144121475Y-111186368D01*
X143914632Y-110979525D01*
X143740240Y-110863000D01*
X143914632Y-110746475D01*
X144121475Y-110539632D01*
X144238000Y-110365240D01*
X144354525Y-110539632D01*
%TA.AperFunction,NonConductor*%
D16*
G36*
X144354525Y-110539632D02*
G01*
X144561368Y-110746475D01*
X144735760Y-110863000D01*
X144561368Y-110979525D01*
X144354525Y-111186368D01*
X144238000Y-111360760D01*
X144121475Y-111186368D01*
X143914632Y-110979525D01*
X143740240Y-110863000D01*
X143914632Y-110746475D01*
X144121475Y-110539632D01*
X144238000Y-110365240D01*
X144354525Y-110539632D01*
G37*
%TD.AperFunction*%
D15*
X154611521Y-96467374D02*
X154650198Y-96514502D01*
X154838251Y-96668833D01*
X155052799Y-96783511D01*
X155285597Y-96854130D01*
X155527699Y-96877975D01*
X155588364Y-96872000D01*
X155662901Y-96872000D01*
X155662900Y-97172000D01*
X155588365Y-97172000D01*
X155527700Y-97166025D01*
X155467035Y-97172000D01*
X155285598Y-97189870D01*
X155052799Y-97260489D01*
X154838251Y-97375167D01*
X154650198Y-97529498D01*
X154495867Y-97717551D01*
X154381189Y-97932099D01*
X154310570Y-98164898D01*
X154286725Y-98407000D01*
X154292700Y-98467664D01*
X154292700Y-99746135D01*
X154286725Y-99806800D01*
X154310570Y-100048902D01*
X154334924Y-100129185D01*
X154381189Y-100281700D01*
X154493543Y-100491899D01*
X154381189Y-100702099D01*
X154310570Y-100934898D01*
X154286725Y-101177000D01*
X154292701Y-101237675D01*
X154292700Y-103886334D01*
X154286725Y-103947000D01*
X154310570Y-104189102D01*
X154381189Y-104421901D01*
X154495867Y-104636449D01*
X154593243Y-104755102D01*
X154650198Y-104824502D01*
X154838251Y-104978833D01*
X155052799Y-105093511D01*
X155285598Y-105164130D01*
X155527700Y-105187975D01*
X155588365Y-105182000D01*
X155974571Y-105182000D01*
X155997463Y-105224827D01*
X156076815Y-105321518D01*
X156089587Y-105332000D01*
X156076815Y-105342482D01*
X155997463Y-105439173D01*
X155938498Y-105549487D01*
X155902188Y-105669185D01*
X155889928Y-105793667D01*
X155889928Y-107640333D01*
X155902188Y-107764815D01*
X155938498Y-107884513D01*
X155997463Y-107994827D01*
X156076815Y-108091518D01*
X156089587Y-108102000D01*
X156076815Y-108112482D01*
X155998460Y-108207958D01*
X155675204Y-107884702D01*
X155651401Y-107855699D01*
X155535676Y-107760726D01*
X155403647Y-107690154D01*
X155260386Y-107646697D01*
X155148733Y-107635700D01*
X155148722Y-107635700D01*
X155111400Y-107632024D01*
X155074078Y-107635700D01*
X146873990Y-107635700D01*
X146935932Y-107486158D01*
X146993000Y-107199260D01*
X146993000Y-106906740D01*
X146935932Y-106619842D01*
X146823990Y-106349589D01*
X146661475Y-106106368D01*
X146454632Y-105899525D01*
X146280240Y-105783000D01*
X146454632Y-105666475D01*
X146661475Y-105459632D01*
X146823990Y-105216411D01*
X146935932Y-104946158D01*
X146993000Y-104659260D01*
X146993000Y-104366740D01*
X146935932Y-104079842D01*
X146823990Y-103809589D01*
X146661475Y-103566368D01*
X146454632Y-103359525D01*
X146280240Y-103243000D01*
X146454632Y-103126475D01*
X146661475Y-102919632D01*
X146823990Y-102676411D01*
X146935932Y-102406158D01*
X146993000Y-102119260D01*
X146993000Y-101826740D01*
X146935932Y-101539842D01*
X146823990Y-101269589D01*
X146661475Y-101026368D01*
X146454632Y-100819525D01*
X146280240Y-100703000D01*
X146454632Y-100586475D01*
X146661475Y-100379632D01*
X146823990Y-100136411D01*
X146935932Y-99866158D01*
X146993000Y-99579260D01*
X146993000Y-99286740D01*
X146935932Y-98999842D01*
X146823990Y-98729589D01*
X146661475Y-98486368D01*
X146454632Y-98279525D01*
X146280240Y-98163000D01*
X146454632Y-98046475D01*
X146661475Y-97839632D01*
X146823990Y-97596411D01*
X146935932Y-97326158D01*
X146993000Y-97039260D01*
X146993000Y-96746740D01*
X146935932Y-96459842D01*
X146858333Y-96272500D01*
X154416647Y-96272500D01*
X154611521Y-96467374D01*
%TA.AperFunction,NonConductor*%
D16*
G36*
X154611521Y-96467374D02*
G01*
X154650198Y-96514502D01*
X154838251Y-96668833D01*
X155052799Y-96783511D01*
X155285597Y-96854130D01*
X155527699Y-96877975D01*
X155588364Y-96872000D01*
X155662901Y-96872000D01*
X155662900Y-97172000D01*
X155588365Y-97172000D01*
X155527700Y-97166025D01*
X155467035Y-97172000D01*
X155285598Y-97189870D01*
X155052799Y-97260489D01*
X154838251Y-97375167D01*
X154650198Y-97529498D01*
X154495867Y-97717551D01*
X154381189Y-97932099D01*
X154310570Y-98164898D01*
X154286725Y-98407000D01*
X154292700Y-98467664D01*
X154292700Y-99746135D01*
X154286725Y-99806800D01*
X154310570Y-100048902D01*
X154334924Y-100129185D01*
X154381189Y-100281700D01*
X154493543Y-100491899D01*
X154381189Y-100702099D01*
X154310570Y-100934898D01*
X154286725Y-101177000D01*
X154292701Y-101237675D01*
X154292700Y-103886334D01*
X154286725Y-103947000D01*
X154310570Y-104189102D01*
X154381189Y-104421901D01*
X154495867Y-104636449D01*
X154593243Y-104755102D01*
X154650198Y-104824502D01*
X154838251Y-104978833D01*
X155052799Y-105093511D01*
X155285598Y-105164130D01*
X155527700Y-105187975D01*
X155588365Y-105182000D01*
X155974571Y-105182000D01*
X155997463Y-105224827D01*
X156076815Y-105321518D01*
X156089587Y-105332000D01*
X156076815Y-105342482D01*
X155997463Y-105439173D01*
X155938498Y-105549487D01*
X155902188Y-105669185D01*
X155889928Y-105793667D01*
X155889928Y-107640333D01*
X155902188Y-107764815D01*
X155938498Y-107884513D01*
X155997463Y-107994827D01*
X156076815Y-108091518D01*
X156089587Y-108102000D01*
X156076815Y-108112482D01*
X155998460Y-108207958D01*
X155675204Y-107884702D01*
X155651401Y-107855699D01*
X155535676Y-107760726D01*
X155403647Y-107690154D01*
X155260386Y-107646697D01*
X155148733Y-107635700D01*
X155148722Y-107635700D01*
X155111400Y-107632024D01*
X155074078Y-107635700D01*
X146873990Y-107635700D01*
X146935932Y-107486158D01*
X146993000Y-107199260D01*
X146993000Y-106906740D01*
X146935932Y-106619842D01*
X146823990Y-106349589D01*
X146661475Y-106106368D01*
X146454632Y-105899525D01*
X146280240Y-105783000D01*
X146454632Y-105666475D01*
X146661475Y-105459632D01*
X146823990Y-105216411D01*
X146935932Y-104946158D01*
X146993000Y-104659260D01*
X146993000Y-104366740D01*
X146935932Y-104079842D01*
X146823990Y-103809589D01*
X146661475Y-103566368D01*
X146454632Y-103359525D01*
X146280240Y-103243000D01*
X146454632Y-103126475D01*
X146661475Y-102919632D01*
X146823990Y-102676411D01*
X146935932Y-102406158D01*
X146993000Y-102119260D01*
X146993000Y-101826740D01*
X146935932Y-101539842D01*
X146823990Y-101269589D01*
X146661475Y-101026368D01*
X146454632Y-100819525D01*
X146280240Y-100703000D01*
X146454632Y-100586475D01*
X146661475Y-100379632D01*
X146823990Y-100136411D01*
X146935932Y-99866158D01*
X146993000Y-99579260D01*
X146993000Y-99286740D01*
X146935932Y-98999842D01*
X146823990Y-98729589D01*
X146661475Y-98486368D01*
X146454632Y-98279525D01*
X146280240Y-98163000D01*
X146454632Y-98046475D01*
X146661475Y-97839632D01*
X146823990Y-97596411D01*
X146935932Y-97326158D01*
X146993000Y-97039260D01*
X146993000Y-96746740D01*
X146935932Y-96459842D01*
X146858333Y-96272500D01*
X154416647Y-96272500D01*
X154611521Y-96467374D01*
G37*
%TD.AperFunction*%
D15*
X144354525Y-105459632D02*
X144561368Y-105666475D01*
X144735760Y-105783000D01*
X144561368Y-105899525D01*
X144354525Y-106106368D01*
X144238000Y-106280760D01*
X144121475Y-106106368D01*
X143914632Y-105899525D01*
X143740240Y-105783000D01*
X143914632Y-105666475D01*
X144121475Y-105459632D01*
X144238000Y-105285240D01*
X144354525Y-105459632D01*
%TA.AperFunction,NonConductor*%
D16*
G36*
X144354525Y-105459632D02*
G01*
X144561368Y-105666475D01*
X144735760Y-105783000D01*
X144561368Y-105899525D01*
X144354525Y-106106368D01*
X144238000Y-106280760D01*
X144121475Y-106106368D01*
X143914632Y-105899525D01*
X143740240Y-105783000D01*
X143914632Y-105666475D01*
X144121475Y-105459632D01*
X144238000Y-105285240D01*
X144354525Y-105459632D01*
G37*
%TD.AperFunction*%
D15*
X144354525Y-102919632D02*
X144561368Y-103126475D01*
X144735760Y-103243000D01*
X144561368Y-103359525D01*
X144354525Y-103566368D01*
X144238000Y-103740760D01*
X144203000Y-103688379D01*
X144203000Y-102797621D01*
X144238000Y-102745240D01*
X144354525Y-102919632D01*
%TA.AperFunction,NonConductor*%
D16*
G36*
X144354525Y-102919632D02*
G01*
X144561368Y-103126475D01*
X144735760Y-103243000D01*
X144561368Y-103359525D01*
X144354525Y-103566368D01*
X144238000Y-103740760D01*
X144203000Y-103688379D01*
X144203000Y-102797621D01*
X144238000Y-102745240D01*
X144354525Y-102919632D01*
G37*
%TD.AperFunction*%
D15*
X144354525Y-100379632D02*
X144561368Y-100586475D01*
X144735760Y-100703000D01*
X144561368Y-100819525D01*
X144354525Y-101026368D01*
X144238000Y-101200760D01*
X144203000Y-101148379D01*
X144203000Y-100257621D01*
X144238000Y-100205240D01*
X144354525Y-100379632D01*
%TA.AperFunction,NonConductor*%
D16*
G36*
X144354525Y-100379632D02*
G01*
X144561368Y-100586475D01*
X144735760Y-100703000D01*
X144561368Y-100819525D01*
X144354525Y-101026368D01*
X144238000Y-101200760D01*
X144203000Y-101148379D01*
X144203000Y-100257621D01*
X144238000Y-100205240D01*
X144354525Y-100379632D01*
G37*
%TD.AperFunction*%
D15*
X144561368Y-98046475D02*
X144735760Y-98163000D01*
X144561368Y-98279525D01*
X144354525Y-98486368D01*
X144238000Y-98660760D01*
X144203000Y-98608379D01*
X144203000Y-98112386D01*
X144306405Y-97986386D01*
X144374285Y-97859392D01*
X144561368Y-98046475D01*
%TA.AperFunction,NonConductor*%
D16*
G36*
X144561368Y-98046475D02*
G01*
X144735760Y-98163000D01*
X144561368Y-98279525D01*
X144354525Y-98486368D01*
X144238000Y-98660760D01*
X144203000Y-98608379D01*
X144203000Y-98112386D01*
X144306405Y-97986386D01*
X144374285Y-97859392D01*
X144561368Y-98046475D01*
G37*
%TD.AperFunction*%
M02*
