%TF.GenerationSoftware,KiCad,Pcbnew,(5.1.9)-1*%
%TF.CreationDate,2021-07-27T13:59:00-04:00*%
%TF.ProjectId,Amiga2MacFloppy,416d6967-6132-44d6-9163-466c6f707079,1.0*%
%TF.SameCoordinates,Original*%
%TF.FileFunction,Legend,Bot*%
%TF.FilePolarity,Positive*%
%FSLAX46Y46*%
G04 Gerber Fmt 4.6, Leading zero omitted, Abs format (unit mm)*
G04 Created by KiCad (PCBNEW (5.1.9)-1) date 2021-07-27 13:59:00*
%MOMM*%
%LPD*%
G01*
G04 APERTURE LIST*
%ADD10C,0.150000*%
%ADD11C,0.010000*%
G04 APERTURE END LIST*
D10*
X150653474Y-94607245D02*
X150653474Y-94307245D01*
X151124902Y-94307245D02*
X150224902Y-94307245D01*
X150224902Y-94735817D01*
X151124902Y-95078674D02*
X150524902Y-95078674D01*
X150696331Y-95078674D02*
X150610617Y-95121531D01*
X150567760Y-95164388D01*
X150524902Y-95250102D01*
X150524902Y-95335817D01*
X151124902Y-96021531D02*
X150653474Y-96021531D01*
X150567760Y-95978674D01*
X150524902Y-95892960D01*
X150524902Y-95721531D01*
X150567760Y-95635817D01*
X151082045Y-96021531D02*
X151124902Y-95935817D01*
X151124902Y-95721531D01*
X151082045Y-95635817D01*
X150996331Y-95592960D01*
X150910617Y-95592960D01*
X150824902Y-95635817D01*
X150782045Y-95721531D01*
X150782045Y-95935817D01*
X150739188Y-96021531D01*
X150524902Y-96450102D02*
X151124902Y-96450102D01*
X150610617Y-96450102D02*
X150567760Y-96492960D01*
X150524902Y-96578674D01*
X150524902Y-96707245D01*
X150567760Y-96792960D01*
X150653474Y-96835817D01*
X151124902Y-96835817D01*
X151124902Y-97264388D02*
X150224902Y-97264388D01*
X150782045Y-97350102D02*
X151124902Y-97607245D01*
X150524902Y-97607245D02*
X150867760Y-97264388D01*
X150224902Y-98035817D02*
X150396331Y-97950102D01*
X151082045Y-98378674D02*
X151124902Y-98464388D01*
X151124902Y-98635817D01*
X151082045Y-98721531D01*
X150996331Y-98764388D01*
X150953474Y-98764388D01*
X150867760Y-98721531D01*
X150824902Y-98635817D01*
X150824902Y-98507245D01*
X150782045Y-98421531D01*
X150696331Y-98378674D01*
X150653474Y-98378674D01*
X150567760Y-98421531D01*
X150524902Y-98507245D01*
X150524902Y-98635817D01*
X150567760Y-98721531D01*
X150224902Y-99750102D02*
X150224902Y-100307245D01*
X150567760Y-100007245D01*
X150567760Y-100135817D01*
X150610617Y-100221531D01*
X150653474Y-100264388D01*
X150739188Y-100307245D01*
X150953474Y-100307245D01*
X151039188Y-100264388D01*
X151082045Y-100221531D01*
X151124902Y-100135817D01*
X151124902Y-99878674D01*
X151082045Y-99792960D01*
X151039188Y-99750102D01*
X151124902Y-100692960D02*
X150224902Y-100692960D01*
X150224902Y-100907245D01*
X150267760Y-101035817D01*
X150353474Y-101121531D01*
X150439188Y-101164388D01*
X150610617Y-101207245D01*
X150739188Y-101207245D01*
X150910617Y-101164388D01*
X150996331Y-101121531D01*
X151082045Y-101035817D01*
X151124902Y-100907245D01*
X151124902Y-100692960D01*
X151082045Y-102235817D02*
X151124902Y-102364388D01*
X151124902Y-102578674D01*
X151082045Y-102664388D01*
X151039188Y-102707245D01*
X150953474Y-102750102D01*
X150867760Y-102750102D01*
X150782045Y-102707245D01*
X150739188Y-102664388D01*
X150696331Y-102578674D01*
X150653474Y-102407245D01*
X150610617Y-102321531D01*
X150567760Y-102278674D01*
X150482045Y-102235817D01*
X150396331Y-102235817D01*
X150310617Y-102278674D01*
X150267760Y-102321531D01*
X150224902Y-102407245D01*
X150224902Y-102621531D01*
X150267760Y-102750102D01*
X151124902Y-103135817D02*
X150224902Y-103135817D01*
X151124902Y-103521531D02*
X150653474Y-103521531D01*
X150567760Y-103478674D01*
X150524902Y-103392960D01*
X150524902Y-103264388D01*
X150567760Y-103178674D01*
X150610617Y-103135817D01*
X151124902Y-104078674D02*
X151082045Y-103992960D01*
X151039188Y-103950102D01*
X150953474Y-103907245D01*
X150696331Y-103907245D01*
X150610617Y-103950102D01*
X150567760Y-103992960D01*
X150524902Y-104078674D01*
X150524902Y-104207245D01*
X150567760Y-104292960D01*
X150610617Y-104335817D01*
X150696331Y-104378674D01*
X150953474Y-104378674D01*
X151039188Y-104335817D01*
X151082045Y-104292960D01*
X151124902Y-104207245D01*
X151124902Y-104078674D01*
X150524902Y-104764388D02*
X151424902Y-104764388D01*
X150567760Y-104764388D02*
X150524902Y-104850102D01*
X150524902Y-105021531D01*
X150567760Y-105107245D01*
X150610617Y-105150102D01*
X150696331Y-105192960D01*
X150953474Y-105192960D01*
X151039188Y-105150102D01*
X151082045Y-105107245D01*
X151124902Y-105021531D01*
X151124902Y-104850102D01*
X151082045Y-104764388D01*
X151124902Y-106992960D02*
X151124902Y-106950102D01*
X151082045Y-106864388D01*
X150953474Y-106735817D01*
X150696331Y-106521531D01*
X150567760Y-106435817D01*
X150439188Y-106392960D01*
X150353474Y-106392960D01*
X150267760Y-106435817D01*
X150224902Y-106521531D01*
X150224902Y-106564388D01*
X150267760Y-106650102D01*
X150353474Y-106692960D01*
X150396331Y-106692960D01*
X150482045Y-106650102D01*
X150524902Y-106607245D01*
X150696331Y-106350102D01*
X150739188Y-106307245D01*
X150824902Y-106264388D01*
X150953474Y-106264388D01*
X151039188Y-106307245D01*
X151082045Y-106350102D01*
X151124902Y-106435817D01*
X151124902Y-106564388D01*
X151082045Y-106650102D01*
X151039188Y-106692960D01*
X150867760Y-106821531D01*
X150739188Y-106864388D01*
X150653474Y-106864388D01*
X151124902Y-108064388D02*
X150224902Y-108064388D01*
X150224902Y-108278674D01*
X150267760Y-108407245D01*
X150353474Y-108492960D01*
X150439188Y-108535817D01*
X150610617Y-108578674D01*
X150739188Y-108578674D01*
X150910617Y-108535817D01*
X150996331Y-108492960D01*
X151082045Y-108407245D01*
X151124902Y-108278674D01*
X151124902Y-108064388D01*
X151124902Y-108964388D02*
X150524902Y-108964388D01*
X150696331Y-108964388D02*
X150610617Y-109007245D01*
X150567760Y-109050102D01*
X150524902Y-109135817D01*
X150524902Y-109221531D01*
X151039188Y-109521531D02*
X151082045Y-109564388D01*
X151124902Y-109521531D01*
X151082045Y-109478674D01*
X151039188Y-109521531D01*
X151124902Y-109521531D01*
X151124902Y-110635817D02*
X150224902Y-110635817D01*
X150224902Y-110850102D01*
X150267760Y-110978674D01*
X150353474Y-111064388D01*
X150439188Y-111107245D01*
X150610617Y-111150102D01*
X150739188Y-111150102D01*
X150910617Y-111107245D01*
X150996331Y-111064388D01*
X151082045Y-110978674D01*
X151124902Y-110850102D01*
X151124902Y-110635817D01*
X151124902Y-111921531D02*
X150653474Y-111921531D01*
X150567760Y-111878674D01*
X150524902Y-111792960D01*
X150524902Y-111621531D01*
X150567760Y-111535817D01*
X151082045Y-111921531D02*
X151124902Y-111835817D01*
X151124902Y-111621531D01*
X151082045Y-111535817D01*
X150996331Y-111492960D01*
X150910617Y-111492960D01*
X150824902Y-111535817D01*
X150782045Y-111621531D01*
X150782045Y-111835817D01*
X150739188Y-111921531D01*
X150524902Y-112264388D02*
X151124902Y-112478674D01*
X150524902Y-112692960D01*
X151082045Y-113378674D02*
X151124902Y-113292960D01*
X151124902Y-113121531D01*
X151082045Y-113035817D01*
X150996331Y-112992960D01*
X150653474Y-112992960D01*
X150567760Y-113035817D01*
X150524902Y-113121531D01*
X150524902Y-113292960D01*
X150567760Y-113378674D01*
X150653474Y-113421531D01*
X150739188Y-113421531D01*
X150824902Y-112992960D01*
X150224902Y-113850102D02*
X150396331Y-113764388D01*
X151082045Y-114192960D02*
X151124902Y-114278674D01*
X151124902Y-114450102D01*
X151082045Y-114535817D01*
X150996331Y-114578674D01*
X150953474Y-114578674D01*
X150867760Y-114535817D01*
X150824902Y-114450102D01*
X150824902Y-114321531D01*
X150782045Y-114235817D01*
X150696331Y-114192960D01*
X150653474Y-114192960D01*
X150567760Y-114235817D01*
X150524902Y-114321531D01*
X150524902Y-114450102D01*
X150567760Y-114535817D01*
X151124902Y-115650102D02*
X150224902Y-115650102D01*
X150224902Y-115864388D01*
X150267760Y-115992960D01*
X150353474Y-116078674D01*
X150439188Y-116121531D01*
X150610617Y-116164388D01*
X150739188Y-116164388D01*
X150910617Y-116121531D01*
X150996331Y-116078674D01*
X151082045Y-115992960D01*
X151124902Y-115864388D01*
X151124902Y-115650102D01*
X151124902Y-116550102D02*
X150524902Y-116550102D01*
X150224902Y-116550102D02*
X150267760Y-116507245D01*
X150310617Y-116550102D01*
X150267760Y-116592960D01*
X150224902Y-116550102D01*
X150310617Y-116550102D01*
X150524902Y-116892960D02*
X151124902Y-117107245D01*
X150524902Y-117321531D01*
X151082045Y-118007245D02*
X151124902Y-117921531D01*
X151124902Y-117750102D01*
X151082045Y-117664388D01*
X150996331Y-117621531D01*
X150653474Y-117621531D01*
X150567760Y-117664388D01*
X150524902Y-117750102D01*
X150524902Y-117921531D01*
X150567760Y-118007245D01*
X150653474Y-118050102D01*
X150739188Y-118050102D01*
X150824902Y-117621531D01*
X151124902Y-118435817D02*
X150524902Y-118435817D01*
X150696331Y-118435817D02*
X150610617Y-118478674D01*
X150567760Y-118521531D01*
X150524902Y-118607245D01*
X150524902Y-118692960D01*
X151082045Y-118950102D02*
X151124902Y-119035817D01*
X151124902Y-119207245D01*
X151082045Y-119292960D01*
X150996331Y-119335817D01*
X150953474Y-119335817D01*
X150867760Y-119292960D01*
X150824902Y-119207245D01*
X150824902Y-119078674D01*
X150782045Y-118992960D01*
X150696331Y-118950102D01*
X150653474Y-118950102D01*
X150567760Y-118992960D01*
X150524902Y-119078674D01*
X150524902Y-119207245D01*
X150567760Y-119292960D01*
X151124902Y-119721531D02*
X150524902Y-119721531D01*
X150224902Y-119721531D02*
X150267760Y-119678674D01*
X150310617Y-119721531D01*
X150267760Y-119764388D01*
X150224902Y-119721531D01*
X150310617Y-119721531D01*
X151124902Y-120278674D02*
X151082045Y-120192960D01*
X151039188Y-120150102D01*
X150953474Y-120107245D01*
X150696331Y-120107245D01*
X150610617Y-120150102D01*
X150567760Y-120192960D01*
X150524902Y-120278674D01*
X150524902Y-120407245D01*
X150567760Y-120492960D01*
X150610617Y-120535817D01*
X150696331Y-120578674D01*
X150953474Y-120578674D01*
X151039188Y-120535817D01*
X151082045Y-120492960D01*
X151124902Y-120407245D01*
X151124902Y-120278674D01*
X150524902Y-120964388D02*
X151124902Y-120964388D01*
X150610617Y-120964388D02*
X150567760Y-121007245D01*
X150524902Y-121092960D01*
X150524902Y-121221531D01*
X150567760Y-121307245D01*
X150653474Y-121350102D01*
X151124902Y-121350102D01*
X151082045Y-121735817D02*
X151124902Y-121821531D01*
X151124902Y-121992960D01*
X151082045Y-122078674D01*
X150996331Y-122121531D01*
X150953474Y-122121531D01*
X150867760Y-122078674D01*
X150824902Y-121992960D01*
X150824902Y-121864388D01*
X150782045Y-121778674D01*
X150696331Y-121735817D01*
X150653474Y-121735817D01*
X150567760Y-121778674D01*
X150524902Y-121864388D01*
X150524902Y-121992960D01*
X150567760Y-122078674D01*
X152624902Y-90278674D02*
X151724902Y-90278674D01*
X152624902Y-90664388D02*
X152153474Y-90664388D01*
X152067760Y-90621531D01*
X152024902Y-90535817D01*
X152024902Y-90407245D01*
X152067760Y-90321531D01*
X152110617Y-90278674D01*
X152024902Y-90964388D02*
X152024902Y-91307245D01*
X151724902Y-91092960D02*
X152496331Y-91092960D01*
X152582045Y-91135817D01*
X152624902Y-91221531D01*
X152624902Y-91307245D01*
X152024902Y-91478674D02*
X152024902Y-91821531D01*
X151724902Y-91607245D02*
X152496331Y-91607245D01*
X152582045Y-91650102D01*
X152624902Y-91735817D01*
X152624902Y-91821531D01*
X152024902Y-92121531D02*
X152924902Y-92121531D01*
X152067760Y-92121531D02*
X152024902Y-92207245D01*
X152024902Y-92378674D01*
X152067760Y-92464388D01*
X152110617Y-92507245D01*
X152196331Y-92550102D01*
X152453474Y-92550102D01*
X152539188Y-92507245D01*
X152582045Y-92464388D01*
X152624902Y-92378674D01*
X152624902Y-92207245D01*
X152582045Y-92121531D01*
X152582045Y-92892960D02*
X152624902Y-92978674D01*
X152624902Y-93150102D01*
X152582045Y-93235817D01*
X152496331Y-93278674D01*
X152453474Y-93278674D01*
X152367760Y-93235817D01*
X152324902Y-93150102D01*
X152324902Y-93021531D01*
X152282045Y-92935817D01*
X152196331Y-92892960D01*
X152153474Y-92892960D01*
X152067760Y-92935817D01*
X152024902Y-93021531D01*
X152024902Y-93150102D01*
X152067760Y-93235817D01*
X152539188Y-93664388D02*
X152582045Y-93707245D01*
X152624902Y-93664388D01*
X152582045Y-93621531D01*
X152539188Y-93664388D01*
X152624902Y-93664388D01*
X152067760Y-93664388D02*
X152110617Y-93707245D01*
X152153474Y-93664388D01*
X152110617Y-93621531D01*
X152067760Y-93664388D01*
X152153474Y-93664388D01*
X151682045Y-94735817D02*
X152839188Y-93964388D01*
X151682045Y-95678674D02*
X152839188Y-94907245D01*
X152024902Y-96364388D02*
X152753474Y-96364388D01*
X152839188Y-96321531D01*
X152882045Y-96278674D01*
X152924902Y-96192960D01*
X152924902Y-96064388D01*
X152882045Y-95978674D01*
X152582045Y-96364388D02*
X152624902Y-96278674D01*
X152624902Y-96107245D01*
X152582045Y-96021531D01*
X152539188Y-95978674D01*
X152453474Y-95935817D01*
X152196331Y-95935817D01*
X152110617Y-95978674D01*
X152067760Y-96021531D01*
X152024902Y-96107245D01*
X152024902Y-96278674D01*
X152067760Y-96364388D01*
X152624902Y-96792960D02*
X152024902Y-96792960D01*
X151724902Y-96792960D02*
X151767760Y-96750102D01*
X151810617Y-96792960D01*
X151767760Y-96835817D01*
X151724902Y-96792960D01*
X151810617Y-96792960D01*
X152024902Y-97092960D02*
X152024902Y-97435817D01*
X151724902Y-97221531D02*
X152496331Y-97221531D01*
X152582045Y-97264388D01*
X152624902Y-97350102D01*
X152624902Y-97435817D01*
X152624902Y-97735817D02*
X151724902Y-97735817D01*
X152624902Y-98121531D02*
X152153474Y-98121531D01*
X152067760Y-98078674D01*
X152024902Y-97992960D01*
X152024902Y-97864388D01*
X152067760Y-97778674D01*
X152110617Y-97735817D01*
X152024902Y-98935817D02*
X152624902Y-98935817D01*
X152024902Y-98550102D02*
X152496331Y-98550102D01*
X152582045Y-98592960D01*
X152624902Y-98678674D01*
X152624902Y-98807245D01*
X152582045Y-98892960D01*
X152539188Y-98935817D01*
X152624902Y-99364388D02*
X151724902Y-99364388D01*
X152067760Y-99364388D02*
X152024902Y-99450102D01*
X152024902Y-99621531D01*
X152067760Y-99707245D01*
X152110617Y-99750102D01*
X152196331Y-99792960D01*
X152453474Y-99792960D01*
X152539188Y-99750102D01*
X152582045Y-99707245D01*
X152624902Y-99621531D01*
X152624902Y-99450102D01*
X152582045Y-99364388D01*
X152539188Y-100178674D02*
X152582045Y-100221531D01*
X152624902Y-100178674D01*
X152582045Y-100135817D01*
X152539188Y-100178674D01*
X152624902Y-100178674D01*
X152582045Y-100992960D02*
X152624902Y-100907245D01*
X152624902Y-100735817D01*
X152582045Y-100650102D01*
X152539188Y-100607245D01*
X152453474Y-100564388D01*
X152196331Y-100564388D01*
X152110617Y-100607245D01*
X152067760Y-100650102D01*
X152024902Y-100735817D01*
X152024902Y-100907245D01*
X152067760Y-100992960D01*
X152624902Y-101507245D02*
X152582045Y-101421531D01*
X152539188Y-101378674D01*
X152453474Y-101335817D01*
X152196331Y-101335817D01*
X152110617Y-101378674D01*
X152067760Y-101421531D01*
X152024902Y-101507245D01*
X152024902Y-101635817D01*
X152067760Y-101721531D01*
X152110617Y-101764388D01*
X152196331Y-101807245D01*
X152453474Y-101807245D01*
X152539188Y-101764388D01*
X152582045Y-101721531D01*
X152624902Y-101635817D01*
X152624902Y-101507245D01*
X152624902Y-102192960D02*
X152024902Y-102192960D01*
X152110617Y-102192960D02*
X152067760Y-102235817D01*
X152024902Y-102321531D01*
X152024902Y-102450102D01*
X152067760Y-102535817D01*
X152153474Y-102578674D01*
X152624902Y-102578674D01*
X152153474Y-102578674D02*
X152067760Y-102621531D01*
X152024902Y-102707245D01*
X152024902Y-102835817D01*
X152067760Y-102921531D01*
X152153474Y-102964388D01*
X152624902Y-102964388D01*
X151682045Y-104035817D02*
X152839188Y-103264388D01*
X152153474Y-104635817D02*
X152153474Y-104335817D01*
X152624902Y-104335817D02*
X151724902Y-104335817D01*
X151724902Y-104764388D01*
X152624902Y-105107245D02*
X152024902Y-105107245D01*
X152196331Y-105107245D02*
X152110617Y-105150102D01*
X152067760Y-105192960D01*
X152024902Y-105278674D01*
X152024902Y-105364388D01*
X152624902Y-106050102D02*
X152153474Y-106050102D01*
X152067760Y-106007245D01*
X152024902Y-105921531D01*
X152024902Y-105750102D01*
X152067760Y-105664388D01*
X152582045Y-106050102D02*
X152624902Y-105964388D01*
X152624902Y-105750102D01*
X152582045Y-105664388D01*
X152496331Y-105621531D01*
X152410617Y-105621531D01*
X152324902Y-105664388D01*
X152282045Y-105750102D01*
X152282045Y-105964388D01*
X152239188Y-106050102D01*
X152024902Y-106478674D02*
X152624902Y-106478674D01*
X152110617Y-106478674D02*
X152067760Y-106521531D01*
X152024902Y-106607245D01*
X152024902Y-106735817D01*
X152067760Y-106821531D01*
X152153474Y-106864388D01*
X152624902Y-106864388D01*
X152624902Y-107292960D02*
X151724902Y-107292960D01*
X152282045Y-107378674D02*
X152624902Y-107635817D01*
X152024902Y-107635817D02*
X152367760Y-107292960D01*
X152582045Y-107978674D02*
X152624902Y-108064388D01*
X152624902Y-108235817D01*
X152582045Y-108321531D01*
X152496331Y-108364388D01*
X152453474Y-108364388D01*
X152367760Y-108321531D01*
X152324902Y-108235817D01*
X152324902Y-108107245D01*
X152282045Y-108021531D01*
X152196331Y-107978674D01*
X152153474Y-107978674D01*
X152067760Y-108021531D01*
X152024902Y-108107245D01*
X152024902Y-108235817D01*
X152067760Y-108321531D01*
X151724902Y-108664388D02*
X151724902Y-109221531D01*
X152067760Y-108921531D01*
X152067760Y-109050102D01*
X152110617Y-109135817D01*
X152153474Y-109178674D01*
X152239188Y-109221531D01*
X152453474Y-109221531D01*
X152539188Y-109178674D01*
X152582045Y-109135817D01*
X152624902Y-109050102D01*
X152624902Y-108792960D01*
X152582045Y-108707245D01*
X152539188Y-108664388D01*
X152624902Y-109992960D02*
X151724902Y-109992960D01*
X152582045Y-109992960D02*
X152624902Y-109907245D01*
X152624902Y-109735817D01*
X152582045Y-109650102D01*
X152539188Y-109607245D01*
X152453474Y-109564388D01*
X152196331Y-109564388D01*
X152110617Y-109607245D01*
X152067760Y-109650102D01*
X152024902Y-109735817D01*
X152024902Y-109907245D01*
X152067760Y-109992960D01*
X152582045Y-110378674D02*
X152624902Y-110507245D01*
X152624902Y-110721531D01*
X152582045Y-110807245D01*
X152539188Y-110850102D01*
X152453474Y-110892960D01*
X152367760Y-110892960D01*
X152282045Y-110850102D01*
X152239188Y-110807245D01*
X152196331Y-110721531D01*
X152153474Y-110550102D01*
X152110617Y-110464388D01*
X152067760Y-110421531D01*
X151982045Y-110378674D01*
X151896331Y-110378674D01*
X151810617Y-110421531D01*
X151767760Y-110464388D01*
X151724902Y-110550102D01*
X151724902Y-110764388D01*
X151767760Y-110892960D01*
X152624902Y-111278674D02*
X151724902Y-111278674D01*
X152624902Y-111664388D02*
X152153474Y-111664388D01*
X152067760Y-111621531D01*
X152024902Y-111535817D01*
X152024902Y-111407245D01*
X152067760Y-111321531D01*
X152110617Y-111278674D01*
X152624902Y-112221531D02*
X152582045Y-112135817D01*
X152539188Y-112092960D01*
X152453474Y-112050102D01*
X152196331Y-112050102D01*
X152110617Y-112092960D01*
X152067760Y-112135817D01*
X152024902Y-112221531D01*
X152024902Y-112350102D01*
X152067760Y-112435817D01*
X152110617Y-112478674D01*
X152196331Y-112521531D01*
X152453474Y-112521531D01*
X152539188Y-112478674D01*
X152582045Y-112435817D01*
X152624902Y-112350102D01*
X152624902Y-112221531D01*
X152024902Y-112907245D02*
X152924902Y-112907245D01*
X152067760Y-112907245D02*
X152024902Y-112992960D01*
X152024902Y-113164388D01*
X152067760Y-113250102D01*
X152110617Y-113292960D01*
X152196331Y-113335817D01*
X152453474Y-113335817D01*
X152539188Y-113292960D01*
X152582045Y-113250102D01*
X152624902Y-113164388D01*
X152624902Y-112992960D01*
X152582045Y-112907245D01*
X151682045Y-114364388D02*
X152839188Y-113592960D01*
X152367760Y-114621531D02*
X152367760Y-115050102D01*
X152624902Y-114535817D02*
X151724902Y-114835817D01*
X152624902Y-115135817D01*
X152624902Y-115435817D02*
X152024902Y-115435817D01*
X152110617Y-115435817D02*
X152067760Y-115478674D01*
X152024902Y-115564388D01*
X152024902Y-115692960D01*
X152067760Y-115778674D01*
X152153474Y-115821531D01*
X152624902Y-115821531D01*
X152153474Y-115821531D02*
X152067760Y-115864388D01*
X152024902Y-115950102D01*
X152024902Y-116078674D01*
X152067760Y-116164388D01*
X152153474Y-116207245D01*
X152624902Y-116207245D01*
X152624902Y-116635817D02*
X152024902Y-116635817D01*
X151724902Y-116635817D02*
X151767760Y-116592960D01*
X151810617Y-116635817D01*
X151767760Y-116678674D01*
X151724902Y-116635817D01*
X151810617Y-116635817D01*
X152024902Y-117450102D02*
X152753474Y-117450102D01*
X152839188Y-117407245D01*
X152882045Y-117364388D01*
X152924902Y-117278674D01*
X152924902Y-117150102D01*
X152882045Y-117064388D01*
X152582045Y-117450102D02*
X152624902Y-117364388D01*
X152624902Y-117192960D01*
X152582045Y-117107245D01*
X152539188Y-117064388D01*
X152453474Y-117021531D01*
X152196331Y-117021531D01*
X152110617Y-117064388D01*
X152067760Y-117107245D01*
X152024902Y-117192960D01*
X152024902Y-117364388D01*
X152067760Y-117450102D01*
X152624902Y-118264388D02*
X152153474Y-118264388D01*
X152067760Y-118221531D01*
X152024902Y-118135817D01*
X152024902Y-117964388D01*
X152067760Y-117878674D01*
X152582045Y-118264388D02*
X152624902Y-118178674D01*
X152624902Y-117964388D01*
X152582045Y-117878674D01*
X152496331Y-117835817D01*
X152410617Y-117835817D01*
X152324902Y-117878674D01*
X152282045Y-117964388D01*
X152282045Y-118178674D01*
X152239188Y-118264388D01*
X151810617Y-118650102D02*
X151767760Y-118692960D01*
X151724902Y-118778674D01*
X151724902Y-118992960D01*
X151767760Y-119078674D01*
X151810617Y-119121531D01*
X151896331Y-119164388D01*
X151982045Y-119164388D01*
X152110617Y-119121531D01*
X152624902Y-118607245D01*
X152624902Y-119164388D01*
X152624902Y-119550102D02*
X151724902Y-119550102D01*
X152367760Y-119850102D01*
X151724902Y-120150102D01*
X152624902Y-120150102D01*
X152624902Y-120964388D02*
X152153474Y-120964388D01*
X152067760Y-120921531D01*
X152024902Y-120835817D01*
X152024902Y-120664388D01*
X152067760Y-120578674D01*
X152582045Y-120964388D02*
X152624902Y-120878674D01*
X152624902Y-120664388D01*
X152582045Y-120578674D01*
X152496331Y-120535817D01*
X152410617Y-120535817D01*
X152324902Y-120578674D01*
X152282045Y-120664388D01*
X152282045Y-120878674D01*
X152239188Y-120964388D01*
X152582045Y-121778674D02*
X152624902Y-121692960D01*
X152624902Y-121521531D01*
X152582045Y-121435817D01*
X152539188Y-121392960D01*
X152453474Y-121350102D01*
X152196331Y-121350102D01*
X152110617Y-121392960D01*
X152067760Y-121435817D01*
X152024902Y-121521531D01*
X152024902Y-121692960D01*
X152067760Y-121778674D01*
X152153474Y-122464388D02*
X152153474Y-122164388D01*
X152624902Y-122164388D02*
X151724902Y-122164388D01*
X151724902Y-122592960D01*
X152624902Y-123064388D02*
X152582045Y-122978674D01*
X152496331Y-122935817D01*
X151724902Y-122935817D01*
X152624902Y-123535817D02*
X152582045Y-123450102D01*
X152539188Y-123407245D01*
X152453474Y-123364388D01*
X152196331Y-123364388D01*
X152110617Y-123407245D01*
X152067760Y-123450102D01*
X152024902Y-123535817D01*
X152024902Y-123664388D01*
X152067760Y-123750102D01*
X152110617Y-123792960D01*
X152196331Y-123835817D01*
X152453474Y-123835817D01*
X152539188Y-123792960D01*
X152582045Y-123750102D01*
X152624902Y-123664388D01*
X152624902Y-123535817D01*
X152024902Y-124221531D02*
X152924902Y-124221531D01*
X152067760Y-124221531D02*
X152024902Y-124307245D01*
X152024902Y-124478674D01*
X152067760Y-124564388D01*
X152110617Y-124607245D01*
X152196331Y-124650102D01*
X152453474Y-124650102D01*
X152539188Y-124607245D01*
X152582045Y-124564388D01*
X152624902Y-124478674D01*
X152624902Y-124307245D01*
X152582045Y-124221531D01*
X152024902Y-125035817D02*
X152924902Y-125035817D01*
X152067760Y-125035817D02*
X152024902Y-125121531D01*
X152024902Y-125292960D01*
X152067760Y-125378674D01*
X152110617Y-125421531D01*
X152196331Y-125464388D01*
X152453474Y-125464388D01*
X152539188Y-125421531D01*
X152582045Y-125378674D01*
X152624902Y-125292960D01*
X152624902Y-125121531D01*
X152582045Y-125035817D01*
X152024902Y-125764388D02*
X152624902Y-125978674D01*
X152024902Y-126192960D02*
X152624902Y-125978674D01*
X152839188Y-125892960D01*
X152882045Y-125850102D01*
X152924902Y-125764388D01*
D11*
%TO.C,Open Harware Logo BAck*%
G36*
X138752265Y-105261846D02*
G01*
X138789487Y-105336499D01*
X138858021Y-105402391D01*
X138883408Y-105420537D01*
X138916626Y-105440305D01*
X138952705Y-105453132D01*
X139000858Y-105460470D01*
X139070296Y-105463773D01*
X139161966Y-105464498D01*
X139287590Y-105461223D01*
X139381914Y-105449837D01*
X139452283Y-105428001D01*
X139506046Y-105393379D01*
X139550548Y-105343630D01*
X139553183Y-105339974D01*
X139580137Y-105290945D01*
X139593472Y-105231905D01*
X139596760Y-105156819D01*
X139596760Y-105034755D01*
X139715257Y-105034704D01*
X139781252Y-105033568D01*
X139819962Y-105026646D01*
X139843179Y-105008558D01*
X139862693Y-104973922D01*
X139866680Y-104965605D01*
X139885363Y-104926680D01*
X139897163Y-104896543D01*
X139898182Y-104874134D01*
X139884521Y-104858393D01*
X139852282Y-104848262D01*
X139797564Y-104842683D01*
X139716471Y-104840595D01*
X139605104Y-104840941D01*
X139459562Y-104842660D01*
X139416029Y-104843197D01*
X139265965Y-104845132D01*
X139167802Y-104846864D01*
X139167802Y-105034652D01*
X139251124Y-105035708D01*
X139305640Y-105040398D01*
X139341597Y-105051011D01*
X139369242Y-105069832D01*
X139382725Y-105082610D01*
X139422177Y-105134850D01*
X139425388Y-105181102D01*
X139392809Y-105228827D01*
X139391606Y-105230037D01*
X139366428Y-105249454D01*
X139332207Y-105261267D01*
X139279508Y-105267225D01*
X139198891Y-105269080D01*
X139181031Y-105269114D01*
X139069935Y-105264630D01*
X138992921Y-105250034D01*
X138945907Y-105223610D01*
X138924810Y-105183643D01*
X138922683Y-105160544D01*
X138932660Y-105105722D01*
X138965512Y-105068118D01*
X139025617Y-105045483D01*
X139117358Y-105035566D01*
X139167802Y-105034652D01*
X139167802Y-104846864D01*
X139149820Y-104847182D01*
X139062439Y-104849833D01*
X138998665Y-104853566D01*
X138953342Y-104858867D01*
X138921315Y-104866218D01*
X138897428Y-104876103D01*
X138876524Y-104889006D01*
X138868658Y-104894539D01*
X138794355Y-104967929D01*
X138752227Y-105060720D01*
X138740482Y-105168056D01*
X138752265Y-105261846D01*
G37*
X138752265Y-105261846D02*
X138789487Y-105336499D01*
X138858021Y-105402391D01*
X138883408Y-105420537D01*
X138916626Y-105440305D01*
X138952705Y-105453132D01*
X139000858Y-105460470D01*
X139070296Y-105463773D01*
X139161966Y-105464498D01*
X139287590Y-105461223D01*
X139381914Y-105449837D01*
X139452283Y-105428001D01*
X139506046Y-105393379D01*
X139550548Y-105343630D01*
X139553183Y-105339974D01*
X139580137Y-105290945D01*
X139593472Y-105231905D01*
X139596760Y-105156819D01*
X139596760Y-105034755D01*
X139715257Y-105034704D01*
X139781252Y-105033568D01*
X139819962Y-105026646D01*
X139843179Y-105008558D01*
X139862693Y-104973922D01*
X139866680Y-104965605D01*
X139885363Y-104926680D01*
X139897163Y-104896543D01*
X139898182Y-104874134D01*
X139884521Y-104858393D01*
X139852282Y-104848262D01*
X139797564Y-104842683D01*
X139716471Y-104840595D01*
X139605104Y-104840941D01*
X139459562Y-104842660D01*
X139416029Y-104843197D01*
X139265965Y-104845132D01*
X139167802Y-104846864D01*
X139167802Y-105034652D01*
X139251124Y-105035708D01*
X139305640Y-105040398D01*
X139341597Y-105051011D01*
X139369242Y-105069832D01*
X139382725Y-105082610D01*
X139422177Y-105134850D01*
X139425388Y-105181102D01*
X139392809Y-105228827D01*
X139391606Y-105230037D01*
X139366428Y-105249454D01*
X139332207Y-105261267D01*
X139279508Y-105267225D01*
X139198891Y-105269080D01*
X139181031Y-105269114D01*
X139069935Y-105264630D01*
X138992921Y-105250034D01*
X138945907Y-105223610D01*
X138924810Y-105183643D01*
X138922683Y-105160544D01*
X138932660Y-105105722D01*
X138965512Y-105068118D01*
X139025617Y-105045483D01*
X139117358Y-105035566D01*
X139167802Y-105034652D01*
X139167802Y-104846864D01*
X139149820Y-104847182D01*
X139062439Y-104849833D01*
X138998665Y-104853566D01*
X138953342Y-104858867D01*
X138921315Y-104866218D01*
X138897428Y-104876103D01*
X138876524Y-104889006D01*
X138868658Y-104894539D01*
X138794355Y-104967929D01*
X138752227Y-105060720D01*
X138740482Y-105168056D01*
X138752265Y-105261846D01*
G36*
X138762849Y-106764624D02*
G01*
X138799118Y-106827327D01*
X138835118Y-106870921D01*
X138872835Y-106902805D01*
X138918959Y-106924770D01*
X138980181Y-106938609D01*
X139063191Y-106946113D01*
X139174679Y-106949077D01*
X139254822Y-106949421D01*
X139549825Y-106949421D01*
X139624275Y-106783345D01*
X139301162Y-106773575D01*
X139180489Y-106769539D01*
X139092901Y-106765304D01*
X139032410Y-106760057D01*
X138993028Y-106752985D01*
X138968767Y-106743271D01*
X138953640Y-106730104D01*
X138950366Y-106725879D01*
X138924794Y-106661869D01*
X138934913Y-106597168D01*
X138961760Y-106558652D01*
X138980784Y-106542985D01*
X139005748Y-106532140D01*
X139043594Y-106525248D01*
X139101262Y-106521439D01*
X139185695Y-106519843D01*
X139273688Y-106519575D01*
X139384083Y-106519523D01*
X139462223Y-106517632D01*
X139514925Y-106511305D01*
X139549002Y-106497943D01*
X139571271Y-106474945D01*
X139588547Y-106439714D01*
X139606498Y-106392657D01*
X139626038Y-106341263D01*
X139279245Y-106347381D01*
X139154228Y-106349844D01*
X139061842Y-106352727D01*
X138995641Y-106356858D01*
X138949180Y-106363067D01*
X138916016Y-106372186D01*
X138889704Y-106385043D01*
X138866489Y-106400544D01*
X138792329Y-106475331D01*
X138749444Y-106566588D01*
X138739172Y-106665843D01*
X138762849Y-106764624D01*
G37*
X138762849Y-106764624D02*
X138799118Y-106827327D01*
X138835118Y-106870921D01*
X138872835Y-106902805D01*
X138918959Y-106924770D01*
X138980181Y-106938609D01*
X139063191Y-106946113D01*
X139174679Y-106949077D01*
X139254822Y-106949421D01*
X139549825Y-106949421D01*
X139624275Y-106783345D01*
X139301162Y-106773575D01*
X139180489Y-106769539D01*
X139092901Y-106765304D01*
X139032410Y-106760057D01*
X138993028Y-106752985D01*
X138968767Y-106743271D01*
X138953640Y-106730104D01*
X138950366Y-106725879D01*
X138924794Y-106661869D01*
X138934913Y-106597168D01*
X138961760Y-106558652D01*
X138980784Y-106542985D01*
X139005748Y-106532140D01*
X139043594Y-106525248D01*
X139101262Y-106521439D01*
X139185695Y-106519843D01*
X139273688Y-106519575D01*
X139384083Y-106519523D01*
X139462223Y-106517632D01*
X139514925Y-106511305D01*
X139549002Y-106497943D01*
X139571271Y-106474945D01*
X139588547Y-106439714D01*
X139606498Y-106392657D01*
X139626038Y-106341263D01*
X139279245Y-106347381D01*
X139154228Y-106349844D01*
X139061842Y-106352727D01*
X138995641Y-106356858D01*
X138949180Y-106363067D01*
X138916016Y-106372186D01*
X138889704Y-106385043D01*
X138866489Y-106400544D01*
X138792329Y-106475331D01*
X138749444Y-106566588D01*
X138739172Y-106665843D01*
X138762849Y-106764624D01*
G36*
X138755016Y-104509846D02*
G01*
X138803169Y-104601424D01*
X138880665Y-104669009D01*
X138930487Y-104693017D01*
X139005293Y-104711698D01*
X139099812Y-104721261D01*
X139202970Y-104722168D01*
X139303695Y-104714881D01*
X139390913Y-104699863D01*
X139453551Y-104677575D01*
X139464339Y-104670725D01*
X139544865Y-104589592D01*
X139593096Y-104493226D01*
X139607210Y-104388661D01*
X139585389Y-104282928D01*
X139572307Y-104253503D01*
X139531991Y-104196201D01*
X139478535Y-104145910D01*
X139471755Y-104141157D01*
X139439081Y-104121838D01*
X139404154Y-104109068D01*
X139358174Y-104101524D01*
X139292344Y-104097884D01*
X139197865Y-104096825D01*
X139176683Y-104096806D01*
X139169942Y-104096854D01*
X139169942Y-104292191D01*
X139259109Y-104293328D01*
X139318280Y-104297801D01*
X139356501Y-104307206D01*
X139382813Y-104323136D01*
X139391606Y-104331268D01*
X139425021Y-104378018D01*
X139423497Y-104423407D01*
X139394512Y-104469300D01*
X139363569Y-104496672D01*
X139318403Y-104512883D01*
X139247180Y-104521986D01*
X139238874Y-104522611D01*
X139109797Y-104524164D01*
X139013932Y-104507925D01*
X138951867Y-104474112D01*
X138924192Y-104422944D01*
X138922683Y-104404680D01*
X138930273Y-104356720D01*
X138956568Y-104323913D01*
X139006855Y-104303855D01*
X139086424Y-104294138D01*
X139169942Y-104292191D01*
X139169942Y-104096854D01*
X139076009Y-104097534D01*
X139005666Y-104100589D01*
X138956923Y-104107282D01*
X138921048Y-104118920D01*
X138889308Y-104136813D01*
X138883408Y-104140768D01*
X138803864Y-104207227D01*
X138757689Y-104279645D01*
X138739359Y-104367809D01*
X138738463Y-104397747D01*
X138755016Y-104509846D01*
G37*
X138755016Y-104509846D02*
X138803169Y-104601424D01*
X138880665Y-104669009D01*
X138930487Y-104693017D01*
X139005293Y-104711698D01*
X139099812Y-104721261D01*
X139202970Y-104722168D01*
X139303695Y-104714881D01*
X139390913Y-104699863D01*
X139453551Y-104677575D01*
X139464339Y-104670725D01*
X139544865Y-104589592D01*
X139593096Y-104493226D01*
X139607210Y-104388661D01*
X139585389Y-104282928D01*
X139572307Y-104253503D01*
X139531991Y-104196201D01*
X139478535Y-104145910D01*
X139471755Y-104141157D01*
X139439081Y-104121838D01*
X139404154Y-104109068D01*
X139358174Y-104101524D01*
X139292344Y-104097884D01*
X139197865Y-104096825D01*
X139176683Y-104096806D01*
X139169942Y-104096854D01*
X139169942Y-104292191D01*
X139259109Y-104293328D01*
X139318280Y-104297801D01*
X139356501Y-104307206D01*
X139382813Y-104323136D01*
X139391606Y-104331268D01*
X139425021Y-104378018D01*
X139423497Y-104423407D01*
X139394512Y-104469300D01*
X139363569Y-104496672D01*
X139318403Y-104512883D01*
X139247180Y-104521986D01*
X139238874Y-104522611D01*
X139109797Y-104524164D01*
X139013932Y-104507925D01*
X138951867Y-104474112D01*
X138924192Y-104422944D01*
X138922683Y-104404680D01*
X138930273Y-104356720D01*
X138956568Y-104323913D01*
X139006855Y-104303855D01*
X139086424Y-104294138D01*
X139169942Y-104292191D01*
X139169942Y-104096854D01*
X139076009Y-104097534D01*
X139005666Y-104100589D01*
X138956923Y-104107282D01*
X138921048Y-104118920D01*
X138889308Y-104136813D01*
X138883408Y-104140768D01*
X138803864Y-104207227D01*
X138757689Y-104279645D01*
X138739359Y-104367809D01*
X138738463Y-104397747D01*
X138755016Y-104509846D01*
G36*
X138767505Y-106027214D02*
G01*
X138819327Y-106104246D01*
X138894172Y-106163776D01*
X138989414Y-106199338D01*
X139059516Y-106206531D01*
X139088769Y-106205714D01*
X139111167Y-106198874D01*
X139131234Y-106180072D01*
X139153493Y-106143368D01*
X139182469Y-106082822D01*
X139222687Y-105992494D01*
X139222889Y-105992037D01*
X139260970Y-105908893D01*
X139294785Y-105840713D01*
X139320693Y-105794465D01*
X139335055Y-105777118D01*
X139335171Y-105777114D01*
X139366445Y-105792403D01*
X139400917Y-105828156D01*
X139425750Y-105869202D01*
X139430683Y-105889997D01*
X139413622Y-105946730D01*
X139370893Y-105995587D01*
X139323915Y-106019425D01*
X139289282Y-106042357D01*
X139249841Y-106087278D01*
X139215769Y-106140083D01*
X139197240Y-106186670D01*
X139196222Y-106196412D01*
X139212975Y-106207378D01*
X139255799Y-106208039D01*
X139313541Y-106199980D01*
X139375049Y-106184787D01*
X139429169Y-106164046D01*
X139431270Y-106162998D01*
X139518420Y-106100581D01*
X139577699Y-106019686D01*
X139606794Y-105927816D01*
X139603394Y-105832473D01*
X139565188Y-105741158D01*
X139562501Y-105737098D01*
X139497402Y-105665266D01*
X139412465Y-105618033D01*
X139300781Y-105591894D01*
X139269403Y-105588386D01*
X139121296Y-105582173D01*
X139052228Y-105589621D01*
X139052228Y-105777114D01*
X139095312Y-105779550D01*
X139107886Y-105792874D01*
X139098479Y-105826092D01*
X139076243Y-105878454D01*
X139048370Y-105936984D01*
X139047632Y-105938439D01*
X139021537Y-105988049D01*
X139004123Y-106007960D01*
X138985867Y-106003050D01*
X138961880Y-105982376D01*
X138927166Y-105929779D01*
X138924616Y-105873137D01*
X138949879Y-105822329D01*
X138998607Y-105787236D01*
X139052228Y-105777114D01*
X139052228Y-105589621D01*
X139002796Y-105594952D01*
X138908815Y-105627738D01*
X138842975Y-105673381D01*
X138776441Y-105755762D01*
X138743436Y-105846506D01*
X138741333Y-105939145D01*
X138767505Y-106027214D01*
G37*
X138767505Y-106027214D02*
X138819327Y-106104246D01*
X138894172Y-106163776D01*
X138989414Y-106199338D01*
X139059516Y-106206531D01*
X139088769Y-106205714D01*
X139111167Y-106198874D01*
X139131234Y-106180072D01*
X139153493Y-106143368D01*
X139182469Y-106082822D01*
X139222687Y-105992494D01*
X139222889Y-105992037D01*
X139260970Y-105908893D01*
X139294785Y-105840713D01*
X139320693Y-105794465D01*
X139335055Y-105777118D01*
X139335171Y-105777114D01*
X139366445Y-105792403D01*
X139400917Y-105828156D01*
X139425750Y-105869202D01*
X139430683Y-105889997D01*
X139413622Y-105946730D01*
X139370893Y-105995587D01*
X139323915Y-106019425D01*
X139289282Y-106042357D01*
X139249841Y-106087278D01*
X139215769Y-106140083D01*
X139197240Y-106186670D01*
X139196222Y-106196412D01*
X139212975Y-106207378D01*
X139255799Y-106208039D01*
X139313541Y-106199980D01*
X139375049Y-106184787D01*
X139429169Y-106164046D01*
X139431270Y-106162998D01*
X139518420Y-106100581D01*
X139577699Y-106019686D01*
X139606794Y-105927816D01*
X139603394Y-105832473D01*
X139565188Y-105741158D01*
X139562501Y-105737098D01*
X139497402Y-105665266D01*
X139412465Y-105618033D01*
X139300781Y-105591894D01*
X139269403Y-105588386D01*
X139121296Y-105582173D01*
X139052228Y-105589621D01*
X139052228Y-105777114D01*
X139095312Y-105779550D01*
X139107886Y-105792874D01*
X139098479Y-105826092D01*
X139076243Y-105878454D01*
X139048370Y-105936984D01*
X139047632Y-105938439D01*
X139021537Y-105988049D01*
X139004123Y-106007960D01*
X138985867Y-106003050D01*
X138961880Y-105982376D01*
X138927166Y-105929779D01*
X138924616Y-105873137D01*
X138949879Y-105822329D01*
X138998607Y-105787236D01*
X139052228Y-105777114D01*
X139052228Y-105589621D01*
X139002796Y-105594952D01*
X138908815Y-105627738D01*
X138842975Y-105673381D01*
X138776441Y-105755762D01*
X138743436Y-105846506D01*
X138741333Y-105939145D01*
X138767505Y-106027214D01*
G36*
X138659880Y-107652806D02*
G01*
X138739740Y-107658532D01*
X138786799Y-107665109D01*
X138807326Y-107674222D01*
X138807589Y-107687558D01*
X138805138Y-107691883D01*
X138787396Y-107749404D01*
X138788432Y-107824228D01*
X138806670Y-107900299D01*
X138830265Y-107947878D01*
X138867958Y-107996662D01*
X138910615Y-108032324D01*
X138964817Y-108056805D01*
X139037144Y-108072047D01*
X139134179Y-108079990D01*
X139262502Y-108082576D01*
X139287118Y-108082622D01*
X139563630Y-108082652D01*
X139585080Y-108021121D01*
X139599672Y-107977419D01*
X139606466Y-107953442D01*
X139606529Y-107952737D01*
X139588105Y-107950375D01*
X139537286Y-107948366D01*
X139460753Y-107946861D01*
X139365190Y-107946013D01*
X139307089Y-107945883D01*
X139192531Y-107945611D01*
X139110427Y-107944212D01*
X139054153Y-107940809D01*
X139017086Y-107934527D01*
X138992604Y-107924489D01*
X138974085Y-107909821D01*
X138965166Y-107900662D01*
X138929226Y-107837749D01*
X138926535Y-107769096D01*
X138956930Y-107706808D01*
X138967904Y-107695289D01*
X138988539Y-107678393D01*
X139013016Y-107666674D01*
X139048407Y-107659193D01*
X139101786Y-107655014D01*
X139180226Y-107653197D01*
X139288377Y-107652806D01*
X139563630Y-107652806D01*
X139585080Y-107591275D01*
X139599672Y-107547573D01*
X139606466Y-107523596D01*
X139606529Y-107522890D01*
X139587829Y-107521086D01*
X139535082Y-107519460D01*
X139453317Y-107518077D01*
X139347565Y-107517002D01*
X139222854Y-107516300D01*
X139084215Y-107516037D01*
X138549566Y-107516037D01*
X138495996Y-107643037D01*
X138659880Y-107652806D01*
G37*
X138659880Y-107652806D02*
X138739740Y-107658532D01*
X138786799Y-107665109D01*
X138807326Y-107674222D01*
X138807589Y-107687558D01*
X138805138Y-107691883D01*
X138787396Y-107749404D01*
X138788432Y-107824228D01*
X138806670Y-107900299D01*
X138830265Y-107947878D01*
X138867958Y-107996662D01*
X138910615Y-108032324D01*
X138964817Y-108056805D01*
X139037144Y-108072047D01*
X139134179Y-108079990D01*
X139262502Y-108082576D01*
X139287118Y-108082622D01*
X139563630Y-108082652D01*
X139585080Y-108021121D01*
X139599672Y-107977419D01*
X139606466Y-107953442D01*
X139606529Y-107952737D01*
X139588105Y-107950375D01*
X139537286Y-107948366D01*
X139460753Y-107946861D01*
X139365190Y-107946013D01*
X139307089Y-107945883D01*
X139192531Y-107945611D01*
X139110427Y-107944212D01*
X139054153Y-107940809D01*
X139017086Y-107934527D01*
X138992604Y-107924489D01*
X138974085Y-107909821D01*
X138965166Y-107900662D01*
X138929226Y-107837749D01*
X138926535Y-107769096D01*
X138956930Y-107706808D01*
X138967904Y-107695289D01*
X138988539Y-107678393D01*
X139013016Y-107666674D01*
X139048407Y-107659193D01*
X139101786Y-107655014D01*
X139180226Y-107653197D01*
X139288377Y-107652806D01*
X139563630Y-107652806D01*
X139585080Y-107591275D01*
X139599672Y-107547573D01*
X139606466Y-107523596D01*
X139606529Y-107522890D01*
X139587829Y-107521086D01*
X139535082Y-107519460D01*
X139453317Y-107518077D01*
X139347565Y-107517002D01*
X139222854Y-107516300D01*
X139084215Y-107516037D01*
X138549566Y-107516037D01*
X138495996Y-107643037D01*
X138659880Y-107652806D01*
G36*
X138794063Y-108546461D02*
G01*
X138822493Y-108623020D01*
X138823039Y-108623896D01*
X138857887Y-108671245D01*
X138898612Y-108706201D01*
X138951685Y-108730785D01*
X139023574Y-108747022D01*
X139120752Y-108756935D01*
X139249688Y-108762546D01*
X139268058Y-108763037D01*
X139545047Y-108770101D01*
X139575788Y-108710655D01*
X139596562Y-108667641D01*
X139606406Y-108641670D01*
X139606529Y-108640469D01*
X139588366Y-108635974D01*
X139539372Y-108632404D01*
X139467791Y-108630208D01*
X139409828Y-108629729D01*
X139315930Y-108629718D01*
X139256963Y-108625426D01*
X139228839Y-108610463D01*
X139227466Y-108578442D01*
X139248758Y-108522974D01*
X139287896Y-108439229D01*
X139320403Y-108377649D01*
X139348605Y-108345977D01*
X139379342Y-108336666D01*
X139380864Y-108336652D01*
X139433814Y-108352017D01*
X139462420Y-108397507D01*
X139466563Y-108467126D01*
X139465844Y-108517273D01*
X139480287Y-108543714D01*
X139514978Y-108560203D01*
X139559176Y-108569693D01*
X139584253Y-108556017D01*
X139587842Y-108550867D01*
X139602256Y-108502385D01*
X139604297Y-108434491D01*
X139594743Y-108364572D01*
X139577282Y-108315028D01*
X139519124Y-108246530D01*
X139438168Y-108207594D01*
X139374920Y-108199883D01*
X139317871Y-108205767D01*
X139271302Y-108227061D01*
X139229941Y-108269225D01*
X139188515Y-108337719D01*
X139141753Y-108438004D01*
X139139110Y-108444114D01*
X139097377Y-108534450D01*
X139063151Y-108590195D01*
X139032395Y-108614089D01*
X139001071Y-108608873D01*
X138965143Y-108577288D01*
X138956876Y-108567843D01*
X138924818Y-108504577D01*
X138926167Y-108439024D01*
X138957598Y-108381932D01*
X139015784Y-108344053D01*
X139027206Y-108340534D01*
X139082597Y-108306260D01*
X139109278Y-108262769D01*
X139135720Y-108199883D01*
X139067308Y-108199883D01*
X138967870Y-108219012D01*
X138876662Y-108275791D01*
X138846149Y-108305338D01*
X138806988Y-108372502D01*
X138789260Y-108457916D01*
X138794063Y-108546461D01*
G37*
X138794063Y-108546461D02*
X138822493Y-108623020D01*
X138823039Y-108623896D01*
X138857887Y-108671245D01*
X138898612Y-108706201D01*
X138951685Y-108730785D01*
X139023574Y-108747022D01*
X139120752Y-108756935D01*
X139249688Y-108762546D01*
X139268058Y-108763037D01*
X139545047Y-108770101D01*
X139575788Y-108710655D01*
X139596562Y-108667641D01*
X139606406Y-108641670D01*
X139606529Y-108640469D01*
X139588366Y-108635974D01*
X139539372Y-108632404D01*
X139467791Y-108630208D01*
X139409828Y-108629729D01*
X139315930Y-108629718D01*
X139256963Y-108625426D01*
X139228839Y-108610463D01*
X139227466Y-108578442D01*
X139248758Y-108522974D01*
X139287896Y-108439229D01*
X139320403Y-108377649D01*
X139348605Y-108345977D01*
X139379342Y-108336666D01*
X139380864Y-108336652D01*
X139433814Y-108352017D01*
X139462420Y-108397507D01*
X139466563Y-108467126D01*
X139465844Y-108517273D01*
X139480287Y-108543714D01*
X139514978Y-108560203D01*
X139559176Y-108569693D01*
X139584253Y-108556017D01*
X139587842Y-108550867D01*
X139602256Y-108502385D01*
X139604297Y-108434491D01*
X139594743Y-108364572D01*
X139577282Y-108315028D01*
X139519124Y-108246530D01*
X139438168Y-108207594D01*
X139374920Y-108199883D01*
X139317871Y-108205767D01*
X139271302Y-108227061D01*
X139229941Y-108269225D01*
X139188515Y-108337719D01*
X139141753Y-108438004D01*
X139139110Y-108444114D01*
X139097377Y-108534450D01*
X139063151Y-108590195D01*
X139032395Y-108614089D01*
X139001071Y-108608873D01*
X138965143Y-108577288D01*
X138956876Y-108567843D01*
X138924818Y-108504577D01*
X138926167Y-108439024D01*
X138957598Y-108381932D01*
X139015784Y-108344053D01*
X139027206Y-108340534D01*
X139082597Y-108306260D01*
X139109278Y-108262769D01*
X139135720Y-108199883D01*
X139067308Y-108199883D01*
X138967870Y-108219012D01*
X138876662Y-108275791D01*
X138846149Y-108305338D01*
X138806988Y-108372502D01*
X138789260Y-108457916D01*
X138794063Y-108546461D01*
G36*
X138792430Y-109206322D02*
G01*
X138825181Y-109295077D01*
X138883110Y-109366982D01*
X138923888Y-109395104D01*
X138998714Y-109425762D01*
X139052818Y-109425125D01*
X139089206Y-109392947D01*
X139095393Y-109381041D01*
X139114685Y-109329635D01*
X139109742Y-109303382D01*
X139077347Y-109294490D01*
X139059452Y-109294037D01*
X138993619Y-109277757D01*
X138947567Y-109235325D01*
X138925324Y-109176348D01*
X138930921Y-109110435D01*
X138959989Y-109056855D01*
X138976570Y-109038758D01*
X138996685Y-109025931D01*
X139027092Y-109017266D01*
X139074548Y-109011656D01*
X139145810Y-109007995D01*
X139247635Y-109005175D01*
X139279875Y-109004444D01*
X139390170Y-109001780D01*
X139467796Y-108998752D01*
X139519156Y-108994210D01*
X139550650Y-108987006D01*
X139568680Y-108975993D01*
X139579648Y-108960020D01*
X139584493Y-108949794D01*
X139601061Y-108906366D01*
X139606529Y-108880802D01*
X139588267Y-108872355D01*
X139533056Y-108867199D01*
X139440259Y-108865306D01*
X139309238Y-108866649D01*
X139289029Y-108867067D01*
X139169493Y-108870018D01*
X139082209Y-108873508D01*
X139020351Y-108878474D01*
X138977096Y-108885853D01*
X138945620Y-108896584D01*
X138919099Y-108911605D01*
X138907735Y-108919462D01*
X138857452Y-108964513D01*
X138818341Y-109014900D01*
X138814927Y-109021068D01*
X138787972Y-109111418D01*
X138792430Y-109206322D01*
G37*
X138792430Y-109206322D02*
X138825181Y-109295077D01*
X138883110Y-109366982D01*
X138923888Y-109395104D01*
X138998714Y-109425762D01*
X139052818Y-109425125D01*
X139089206Y-109392947D01*
X139095393Y-109381041D01*
X139114685Y-109329635D01*
X139109742Y-109303382D01*
X139077347Y-109294490D01*
X139059452Y-109294037D01*
X138993619Y-109277757D01*
X138947567Y-109235325D01*
X138925324Y-109176348D01*
X138930921Y-109110435D01*
X138959989Y-109056855D01*
X138976570Y-109038758D01*
X138996685Y-109025931D01*
X139027092Y-109017266D01*
X139074548Y-109011656D01*
X139145810Y-109007995D01*
X139247635Y-109005175D01*
X139279875Y-109004444D01*
X139390170Y-109001780D01*
X139467796Y-108998752D01*
X139519156Y-108994210D01*
X139550650Y-108987006D01*
X139568680Y-108975993D01*
X139579648Y-108960020D01*
X139584493Y-108949794D01*
X139601061Y-108906366D01*
X139606529Y-108880802D01*
X139588267Y-108872355D01*
X139533056Y-108867199D01*
X139440259Y-108865306D01*
X139309238Y-108866649D01*
X139289029Y-108867067D01*
X139169493Y-108870018D01*
X139082209Y-108873508D01*
X139020351Y-108878474D01*
X138977096Y-108885853D01*
X138945620Y-108896584D01*
X138919099Y-108911605D01*
X138907735Y-108919462D01*
X138857452Y-108964513D01*
X138818341Y-109014900D01*
X138814927Y-109021068D01*
X138787972Y-109111418D01*
X138792430Y-109206322D01*
G36*
X138948049Y-110095041D02*
G01*
X139094080Y-110094793D01*
X139206415Y-110093832D01*
X139290438Y-110091754D01*
X139351529Y-110088153D01*
X139395069Y-110082625D01*
X139426439Y-110074764D01*
X139451022Y-110064167D01*
X139465054Y-110056142D01*
X139541148Y-109989688D01*
X139588844Y-109905430D01*
X139605959Y-109812209D01*
X139590306Y-109718860D01*
X139562178Y-109663272D01*
X139513520Y-109604917D01*
X139454093Y-109565146D01*
X139376267Y-109541150D01*
X139272412Y-109530121D01*
X139196222Y-109528559D01*
X139190746Y-109528769D01*
X139190746Y-109665268D01*
X139278115Y-109666101D01*
X139335952Y-109669921D01*
X139373789Y-109678706D01*
X139401158Y-109694434D01*
X139421802Y-109713226D01*
X139461650Y-109776335D01*
X139465055Y-109844097D01*
X139431785Y-109908139D01*
X139427277Y-109913124D01*
X139403827Y-109934399D01*
X139375926Y-109947739D01*
X139334401Y-109954961D01*
X139270076Y-109957883D01*
X139198960Y-109958345D01*
X139109618Y-109957343D01*
X139050018Y-109953198D01*
X139010849Y-109944196D01*
X138982800Y-109928627D01*
X138967904Y-109915862D01*
X138930335Y-109856560D01*
X138925817Y-109788261D01*
X138954513Y-109723070D01*
X138965166Y-109710488D01*
X138988823Y-109689071D01*
X139017011Y-109675704D01*
X139059005Y-109668526D01*
X139124079Y-109665679D01*
X139190746Y-109665268D01*
X139190746Y-109528769D01*
X139073525Y-109533282D01*
X138981337Y-109549322D01*
X138912029Y-109579488D01*
X138857971Y-109626589D01*
X138830265Y-109663272D01*
X138800332Y-109729950D01*
X138786438Y-109807232D01*
X138790157Y-109879070D01*
X138805160Y-109919268D01*
X138809430Y-109935042D01*
X138793510Y-109945510D01*
X138750849Y-109952816D01*
X138685866Y-109958345D01*
X138613492Y-109964397D01*
X138569947Y-109972804D01*
X138545047Y-109988101D01*
X138528605Y-110014824D01*
X138521324Y-110031614D01*
X138494723Y-110095114D01*
X138948049Y-110095041D01*
G37*
X138948049Y-110095041D02*
X139094080Y-110094793D01*
X139206415Y-110093832D01*
X139290438Y-110091754D01*
X139351529Y-110088153D01*
X139395069Y-110082625D01*
X139426439Y-110074764D01*
X139451022Y-110064167D01*
X139465054Y-110056142D01*
X139541148Y-109989688D01*
X139588844Y-109905430D01*
X139605959Y-109812209D01*
X139590306Y-109718860D01*
X139562178Y-109663272D01*
X139513520Y-109604917D01*
X139454093Y-109565146D01*
X139376267Y-109541150D01*
X139272412Y-109530121D01*
X139196222Y-109528559D01*
X139190746Y-109528769D01*
X139190746Y-109665268D01*
X139278115Y-109666101D01*
X139335952Y-109669921D01*
X139373789Y-109678706D01*
X139401158Y-109694434D01*
X139421802Y-109713226D01*
X139461650Y-109776335D01*
X139465055Y-109844097D01*
X139431785Y-109908139D01*
X139427277Y-109913124D01*
X139403827Y-109934399D01*
X139375926Y-109947739D01*
X139334401Y-109954961D01*
X139270076Y-109957883D01*
X139198960Y-109958345D01*
X139109618Y-109957343D01*
X139050018Y-109953198D01*
X139010849Y-109944196D01*
X138982800Y-109928627D01*
X138967904Y-109915862D01*
X138930335Y-109856560D01*
X138925817Y-109788261D01*
X138954513Y-109723070D01*
X138965166Y-109710488D01*
X138988823Y-109689071D01*
X139017011Y-109675704D01*
X139059005Y-109668526D01*
X139124079Y-109665679D01*
X139190746Y-109665268D01*
X139190746Y-109528769D01*
X139073525Y-109533282D01*
X138981337Y-109549322D01*
X138912029Y-109579488D01*
X138857971Y-109626589D01*
X138830265Y-109663272D01*
X138800332Y-109729950D01*
X138786438Y-109807232D01*
X138790157Y-109879070D01*
X138805160Y-109919268D01*
X138809430Y-109935042D01*
X138793510Y-109945510D01*
X138750849Y-109952816D01*
X138685866Y-109958345D01*
X138613492Y-109964397D01*
X138569947Y-109972804D01*
X138545047Y-109988101D01*
X138528605Y-110014824D01*
X138521324Y-110031614D01*
X138494723Y-110095114D01*
X138948049Y-110095041D01*
G36*
X138804422Y-110888889D02*
G01*
X138855828Y-110891871D01*
X138933952Y-110894207D01*
X139032617Y-110895709D01*
X139136103Y-110896191D01*
X139486293Y-110896191D01*
X139548123Y-110834361D01*
X139586222Y-110791753D01*
X139601655Y-110754350D01*
X139600678Y-110703230D01*
X139598193Y-110682938D01*
X139590960Y-110619514D01*
X139586815Y-110567055D01*
X139586432Y-110554268D01*
X139588936Y-110511159D01*
X139595222Y-110449504D01*
X139598193Y-110425598D01*
X139602788Y-110366882D01*
X139592806Y-110327424D01*
X139561988Y-110288298D01*
X139548123Y-110274175D01*
X139486293Y-110212345D01*
X138831263Y-110212345D01*
X138808589Y-110262110D01*
X138791794Y-110304962D01*
X138785914Y-110330033D01*
X138804496Y-110336461D01*
X138856415Y-110342469D01*
X138935932Y-110347657D01*
X139037306Y-110351624D01*
X139122952Y-110353537D01*
X139459991Y-110358883D01*
X139466585Y-110405520D01*
X139461974Y-110447936D01*
X139447047Y-110468720D01*
X139419137Y-110474530D01*
X139359685Y-110479490D01*
X139276226Y-110483206D01*
X139176292Y-110485284D01*
X139124864Y-110485584D01*
X138828814Y-110485883D01*
X138807364Y-110547414D01*
X138792780Y-110590964D01*
X138785979Y-110614654D01*
X138785914Y-110615337D01*
X138804402Y-110617714D01*
X138855666Y-110620326D01*
X138933409Y-110622955D01*
X139031334Y-110625381D01*
X139122952Y-110627075D01*
X139459991Y-110632421D01*
X139459991Y-110749652D01*
X139152506Y-110755032D01*
X138845021Y-110760411D01*
X138815467Y-110817561D01*
X138795173Y-110859757D01*
X138785964Y-110884730D01*
X138785914Y-110885451D01*
X138804422Y-110888889D01*
G37*
X138804422Y-110888889D02*
X138855828Y-110891871D01*
X138933952Y-110894207D01*
X139032617Y-110895709D01*
X139136103Y-110896191D01*
X139486293Y-110896191D01*
X139548123Y-110834361D01*
X139586222Y-110791753D01*
X139601655Y-110754350D01*
X139600678Y-110703230D01*
X139598193Y-110682938D01*
X139590960Y-110619514D01*
X139586815Y-110567055D01*
X139586432Y-110554268D01*
X139588936Y-110511159D01*
X139595222Y-110449504D01*
X139598193Y-110425598D01*
X139602788Y-110366882D01*
X139592806Y-110327424D01*
X139561988Y-110288298D01*
X139548123Y-110274175D01*
X139486293Y-110212345D01*
X138831263Y-110212345D01*
X138808589Y-110262110D01*
X138791794Y-110304962D01*
X138785914Y-110330033D01*
X138804496Y-110336461D01*
X138856415Y-110342469D01*
X138935932Y-110347657D01*
X139037306Y-110351624D01*
X139122952Y-110353537D01*
X139459991Y-110358883D01*
X139466585Y-110405520D01*
X139461974Y-110447936D01*
X139447047Y-110468720D01*
X139419137Y-110474530D01*
X139359685Y-110479490D01*
X139276226Y-110483206D01*
X139176292Y-110485284D01*
X139124864Y-110485584D01*
X138828814Y-110485883D01*
X138807364Y-110547414D01*
X138792780Y-110590964D01*
X138785979Y-110614654D01*
X138785914Y-110615337D01*
X138804402Y-110617714D01*
X138855666Y-110620326D01*
X138933409Y-110622955D01*
X139031334Y-110625381D01*
X139122952Y-110627075D01*
X139459991Y-110632421D01*
X139459991Y-110749652D01*
X139152506Y-110755032D01*
X138845021Y-110760411D01*
X138815467Y-110817561D01*
X138795173Y-110859757D01*
X138785964Y-110884730D01*
X138785914Y-110885451D01*
X138804422Y-110888889D01*
G36*
X138801288Y-111380293D02*
G01*
X138826877Y-111436550D01*
X138857884Y-111480707D01*
X138892555Y-111513061D01*
X138937280Y-111535398D01*
X138998452Y-111549506D01*
X139082461Y-111557171D01*
X139195700Y-111560180D01*
X139270269Y-111560498D01*
X139561180Y-111560498D01*
X139583855Y-111510733D01*
X139600427Y-111471536D01*
X139606529Y-111452117D01*
X139588370Y-111448402D01*
X139539408Y-111445455D01*
X139467913Y-111443651D01*
X139411145Y-111443268D01*
X139329131Y-111441621D01*
X139264069Y-111437182D01*
X139224227Y-111430700D01*
X139215760Y-111425550D01*
X139224406Y-111390937D01*
X139246583Y-111336600D01*
X139276646Y-111273682D01*
X139308952Y-111213328D01*
X139337858Y-111166681D01*
X139357721Y-111144886D01*
X139357935Y-111144799D01*
X139394695Y-111146674D01*
X139429786Y-111163485D01*
X139458288Y-111192999D01*
X139467821Y-111236076D01*
X139466710Y-111272892D01*
X139465893Y-111325034D01*
X139478109Y-111352404D01*
X139510384Y-111368842D01*
X139516470Y-111370915D01*
X139562499Y-111378041D01*
X139590447Y-111358984D01*
X139603767Y-111309313D01*
X139606230Y-111255657D01*
X139587970Y-111159102D01*
X139561891Y-111109119D01*
X139500628Y-111047389D01*
X139425430Y-111014650D01*
X139345971Y-111011713D01*
X139271927Y-111039384D01*
X139225529Y-111081007D01*
X139199553Y-111122564D01*
X139166667Y-111187882D01*
X139133317Y-111263998D01*
X139128221Y-111276686D01*
X139091325Y-111360293D01*
X139058806Y-111408490D01*
X139026478Y-111423990D01*
X138990154Y-111409510D01*
X138961760Y-111384652D01*
X138926799Y-111325899D01*
X138924177Y-111261253D01*
X138951118Y-111201968D01*
X139004848Y-111159299D01*
X139018710Y-111153699D01*
X139069696Y-111121093D01*
X139107547Y-111073490D01*
X139138610Y-111013421D01*
X139050528Y-111013421D01*
X138996711Y-111016957D01*
X138954294Y-111032116D01*
X138909039Y-111065728D01*
X138874180Y-111097995D01*
X138824822Y-111148169D01*
X138798307Y-111187153D01*
X138787671Y-111229024D01*
X138785914Y-111276420D01*
X138801288Y-111380293D01*
G37*
X138801288Y-111380293D02*
X138826877Y-111436550D01*
X138857884Y-111480707D01*
X138892555Y-111513061D01*
X138937280Y-111535398D01*
X138998452Y-111549506D01*
X139082461Y-111557171D01*
X139195700Y-111560180D01*
X139270269Y-111560498D01*
X139561180Y-111560498D01*
X139583855Y-111510733D01*
X139600427Y-111471536D01*
X139606529Y-111452117D01*
X139588370Y-111448402D01*
X139539408Y-111445455D01*
X139467913Y-111443651D01*
X139411145Y-111443268D01*
X139329131Y-111441621D01*
X139264069Y-111437182D01*
X139224227Y-111430700D01*
X139215760Y-111425550D01*
X139224406Y-111390937D01*
X139246583Y-111336600D01*
X139276646Y-111273682D01*
X139308952Y-111213328D01*
X139337858Y-111166681D01*
X139357721Y-111144886D01*
X139357935Y-111144799D01*
X139394695Y-111146674D01*
X139429786Y-111163485D01*
X139458288Y-111192999D01*
X139467821Y-111236076D01*
X139466710Y-111272892D01*
X139465893Y-111325034D01*
X139478109Y-111352404D01*
X139510384Y-111368842D01*
X139516470Y-111370915D01*
X139562499Y-111378041D01*
X139590447Y-111358984D01*
X139603767Y-111309313D01*
X139606230Y-111255657D01*
X139587970Y-111159102D01*
X139561891Y-111109119D01*
X139500628Y-111047389D01*
X139425430Y-111014650D01*
X139345971Y-111011713D01*
X139271927Y-111039384D01*
X139225529Y-111081007D01*
X139199553Y-111122564D01*
X139166667Y-111187882D01*
X139133317Y-111263998D01*
X139128221Y-111276686D01*
X139091325Y-111360293D01*
X139058806Y-111408490D01*
X139026478Y-111423990D01*
X138990154Y-111409510D01*
X138961760Y-111384652D01*
X138926799Y-111325899D01*
X138924177Y-111261253D01*
X138951118Y-111201968D01*
X139004848Y-111159299D01*
X139018710Y-111153699D01*
X139069696Y-111121093D01*
X139107547Y-111073490D01*
X139138610Y-111013421D01*
X139050528Y-111013421D01*
X138996711Y-111016957D01*
X138954294Y-111032116D01*
X138909039Y-111065728D01*
X138874180Y-111097995D01*
X138824822Y-111148169D01*
X138798307Y-111187153D01*
X138787671Y-111229024D01*
X138785914Y-111276420D01*
X138801288Y-111380293D01*
G36*
X138804542Y-112063767D02*
G01*
X138814748Y-112087121D01*
X138858894Y-112142862D01*
X138922727Y-112190529D01*
X138990847Y-112220008D01*
X139024430Y-112224806D01*
X139071316Y-112208720D01*
X139096125Y-112173435D01*
X139111147Y-112135604D01*
X139113915Y-112118281D01*
X139093826Y-112109846D01*
X139050111Y-112093190D01*
X139030358Y-112085883D01*
X138962031Y-112044908D01*
X138927951Y-111985582D01*
X138928999Y-111909512D01*
X138930341Y-111903878D01*
X138949596Y-111863265D01*
X138987135Y-111833408D01*
X139047569Y-111813015D01*
X139135511Y-111800796D01*
X139255573Y-111795460D01*
X139319458Y-111794960D01*
X139420163Y-111794712D01*
X139488814Y-111793086D01*
X139532433Y-111788761D01*
X139558042Y-111780414D01*
X139572663Y-111766725D01*
X139583318Y-111746371D01*
X139583855Y-111745194D01*
X139600427Y-111705998D01*
X139606529Y-111686579D01*
X139588079Y-111683595D01*
X139537083Y-111681041D01*
X139460068Y-111679100D01*
X139363565Y-111677957D01*
X139292944Y-111677729D01*
X139156285Y-111678892D01*
X139052611Y-111683439D01*
X138975868Y-111692959D01*
X138920006Y-111709041D01*
X138878972Y-111733273D01*
X138846714Y-111767246D01*
X138824200Y-111800793D01*
X138794236Y-111881459D01*
X138787478Y-111975341D01*
X138804542Y-112063767D01*
G37*
X138804542Y-112063767D02*
X138814748Y-112087121D01*
X138858894Y-112142862D01*
X138922727Y-112190529D01*
X138990847Y-112220008D01*
X139024430Y-112224806D01*
X139071316Y-112208720D01*
X139096125Y-112173435D01*
X139111147Y-112135604D01*
X139113915Y-112118281D01*
X139093826Y-112109846D01*
X139050111Y-112093190D01*
X139030358Y-112085883D01*
X138962031Y-112044908D01*
X138927951Y-111985582D01*
X138928999Y-111909512D01*
X138930341Y-111903878D01*
X138949596Y-111863265D01*
X138987135Y-111833408D01*
X139047569Y-111813015D01*
X139135511Y-111800796D01*
X139255573Y-111795460D01*
X139319458Y-111794960D01*
X139420163Y-111794712D01*
X139488814Y-111793086D01*
X139532433Y-111788761D01*
X139558042Y-111780414D01*
X139572663Y-111766725D01*
X139583318Y-111746371D01*
X139583855Y-111745194D01*
X139600427Y-111705998D01*
X139606529Y-111686579D01*
X139588079Y-111683595D01*
X139537083Y-111681041D01*
X139460068Y-111679100D01*
X139363565Y-111677957D01*
X139292944Y-111677729D01*
X139156285Y-111678892D01*
X139052611Y-111683439D01*
X138975868Y-111692959D01*
X138920006Y-111709041D01*
X138878972Y-111733273D01*
X138846714Y-111767246D01*
X138824200Y-111800793D01*
X138794236Y-111881459D01*
X138787478Y-111975341D01*
X138804542Y-112063767D01*
G36*
X138815598Y-112738184D02*
G01*
X138866121Y-112815488D01*
X138911350Y-112852774D01*
X138993423Y-112882313D01*
X139058367Y-112884659D01*
X139145205Y-112879345D01*
X139232863Y-112679075D01*
X139277647Y-112581699D01*
X139313673Y-112518073D01*
X139344877Y-112484989D01*
X139375196Y-112479240D01*
X139408565Y-112497618D01*
X139430683Y-112517883D01*
X139466153Y-112576849D01*
X139468639Y-112640984D01*
X139440995Y-112699886D01*
X139386080Y-112743157D01*
X139366688Y-112750896D01*
X139306124Y-112787966D01*
X139280312Y-112830614D01*
X139258231Y-112889114D01*
X139341944Y-112889114D01*
X139398910Y-112883942D01*
X139446949Y-112863683D01*
X139502106Y-112821222D01*
X139509274Y-112814911D01*
X139558345Y-112767680D01*
X139584680Y-112727081D01*
X139596795Y-112676288D01*
X139600763Y-112634180D01*
X139601751Y-112558862D01*
X139589226Y-112505246D01*
X139570629Y-112471798D01*
X139529735Y-112419228D01*
X139485508Y-112382839D01*
X139429886Y-112359810D01*
X139354807Y-112347319D01*
X139252209Y-112342547D01*
X139200136Y-112342166D01*
X139137708Y-112343461D01*
X139137708Y-112461431D01*
X139171198Y-112462799D01*
X139176683Y-112466209D01*
X139169232Y-112488713D01*
X139149513Y-112537142D01*
X139121478Y-112601868D01*
X139115452Y-112615403D01*
X139073856Y-112697204D01*
X139037298Y-112742272D01*
X139003056Y-112752177D01*
X138968408Y-112728486D01*
X138953099Y-112708920D01*
X138922481Y-112638320D01*
X138927540Y-112572240D01*
X138964911Y-112516919D01*
X139031233Y-112478596D01*
X139083876Y-112466309D01*
X139137708Y-112461431D01*
X139137708Y-112343461D01*
X139078480Y-112344690D01*
X138988470Y-112353992D01*
X138922927Y-112372420D01*
X138874672Y-112402320D01*
X138836527Y-112446040D01*
X138824200Y-112465101D01*
X138792096Y-112551686D01*
X138790076Y-112646482D01*
X138815598Y-112738184D01*
G37*
X138815598Y-112738184D02*
X138866121Y-112815488D01*
X138911350Y-112852774D01*
X138993423Y-112882313D01*
X139058367Y-112884659D01*
X139145205Y-112879345D01*
X139232863Y-112679075D01*
X139277647Y-112581699D01*
X139313673Y-112518073D01*
X139344877Y-112484989D01*
X139375196Y-112479240D01*
X139408565Y-112497618D01*
X139430683Y-112517883D01*
X139466153Y-112576849D01*
X139468639Y-112640984D01*
X139440995Y-112699886D01*
X139386080Y-112743157D01*
X139366688Y-112750896D01*
X139306124Y-112787966D01*
X139280312Y-112830614D01*
X139258231Y-112889114D01*
X139341944Y-112889114D01*
X139398910Y-112883942D01*
X139446949Y-112863683D01*
X139502106Y-112821222D01*
X139509274Y-112814911D01*
X139558345Y-112767680D01*
X139584680Y-112727081D01*
X139596795Y-112676288D01*
X139600763Y-112634180D01*
X139601751Y-112558862D01*
X139589226Y-112505246D01*
X139570629Y-112471798D01*
X139529735Y-112419228D01*
X139485508Y-112382839D01*
X139429886Y-112359810D01*
X139354807Y-112347319D01*
X139252209Y-112342547D01*
X139200136Y-112342166D01*
X139137708Y-112343461D01*
X139137708Y-112461431D01*
X139171198Y-112462799D01*
X139176683Y-112466209D01*
X139169232Y-112488713D01*
X139149513Y-112537142D01*
X139121478Y-112601868D01*
X139115452Y-112615403D01*
X139073856Y-112697204D01*
X139037298Y-112742272D01*
X139003056Y-112752177D01*
X138968408Y-112728486D01*
X138953099Y-112708920D01*
X138922481Y-112638320D01*
X138927540Y-112572240D01*
X138964911Y-112516919D01*
X139031233Y-112478596D01*
X139083876Y-112466309D01*
X139137708Y-112461431D01*
X139137708Y-112343461D01*
X139078480Y-112344690D01*
X138988470Y-112353992D01*
X138922927Y-112372420D01*
X138874672Y-112402320D01*
X138836527Y-112446040D01*
X138824200Y-112465101D01*
X138792096Y-112551686D01*
X138790076Y-112646482D01*
X138815598Y-112738184D01*
G36*
X132455536Y-108632838D02*
G01*
X132456115Y-108738572D01*
X132457682Y-108815092D01*
X132460732Y-108867332D01*
X132465756Y-108900223D01*
X132473249Y-108918697D01*
X132483704Y-108927687D01*
X132497613Y-108932123D01*
X132499414Y-108932554D01*
X132531905Y-108939293D01*
X132596012Y-108951768D01*
X132684911Y-108968679D01*
X132791779Y-108988731D01*
X132909793Y-109010624D01*
X132913938Y-109011389D01*
X133029591Y-109033319D01*
X133131774Y-109053837D01*
X133214358Y-109071619D01*
X133271216Y-109085341D01*
X133296218Y-109093678D01*
X133296661Y-109094076D01*
X133308870Y-109118637D01*
X133329216Y-109169275D01*
X133353305Y-109235055D01*
X133353434Y-109235421D01*
X133384578Y-109318277D01*
X133424251Y-109415960D01*
X133464141Y-109508037D01*
X133466113Y-109512394D01*
X133534180Y-109662367D01*
X133307399Y-109994458D01*
X133238264Y-110096334D01*
X133176457Y-110188617D01*
X133125493Y-110265963D01*
X133088887Y-110323024D01*
X133070154Y-110354455D01*
X133068764Y-110357439D01*
X133074950Y-110380281D01*
X133104795Y-110422942D01*
X133159707Y-110487088D01*
X133241094Y-110574381D01*
X133327682Y-110663495D01*
X133413007Y-110749401D01*
X133490868Y-110826287D01*
X133556457Y-110889524D01*
X133604965Y-110934483D01*
X133631585Y-110956536D01*
X133632955Y-110957356D01*
X133651223Y-110959794D01*
X133681055Y-110950610D01*
X133726481Y-110927534D01*
X133791530Y-110888297D01*
X133880230Y-110830630D01*
X133994417Y-110753755D01*
X134094922Y-110685530D01*
X134185063Y-110624542D01*
X134259609Y-110574316D01*
X134313325Y-110538376D01*
X134340978Y-110520247D01*
X134342855Y-110519106D01*
X134369350Y-110521319D01*
X134420846Y-110538098D01*
X134487611Y-110566102D01*
X134508932Y-110576082D01*
X134603919Y-110619632D01*
X134711697Y-110666094D01*
X134804952Y-110703837D01*
X134874166Y-110731033D01*
X134926766Y-110752635D01*
X134954257Y-110765118D01*
X134956376Y-110766669D01*
X134959884Y-110789628D01*
X134969498Y-110843746D01*
X134983849Y-110921828D01*
X135001567Y-111016679D01*
X135021285Y-111121103D01*
X135041634Y-111227904D01*
X135061246Y-111329886D01*
X135078751Y-111419854D01*
X135092782Y-111490613D01*
X135101969Y-111534966D01*
X135104567Y-111545845D01*
X135110978Y-111557082D01*
X135125457Y-111565565D01*
X135152893Y-111571674D01*
X135198171Y-111575792D01*
X135266180Y-111578301D01*
X135361807Y-111579581D01*
X135489940Y-111580014D01*
X135542461Y-111580037D01*
X135969605Y-111580037D01*
X135989851Y-111477460D01*
X136000830Y-111420391D01*
X136016855Y-111335229D01*
X136035993Y-111232332D01*
X136056311Y-111122056D01*
X136061892Y-111091575D01*
X136081677Y-110989815D01*
X136101133Y-110901165D01*
X136118457Y-110833068D01*
X136131848Y-110792964D01*
X136135839Y-110786283D01*
X136164102Y-110769879D01*
X136218869Y-110746359D01*
X136289348Y-110720276D01*
X136304529Y-110715102D01*
X136398656Y-110680916D01*
X136504861Y-110638483D01*
X136600233Y-110596957D01*
X136600676Y-110596752D01*
X136750285Y-110527600D01*
X137419377Y-110982472D01*
X137711876Y-110690460D01*
X137798930Y-110602140D01*
X137875669Y-110521585D01*
X137937997Y-110453320D01*
X137981816Y-110401868D01*
X138003030Y-110371754D01*
X138004376Y-110367434D01*
X137993776Y-110342071D01*
X137964307Y-110290318D01*
X137919465Y-110217828D01*
X137862744Y-110130254D01*
X137799222Y-110035572D01*
X137734428Y-109939476D01*
X137678047Y-109853797D01*
X137633548Y-109783976D01*
X137604399Y-109735454D01*
X137594068Y-109713742D01*
X137602810Y-109687253D01*
X137625847Y-109637022D01*
X137658391Y-109573411D01*
X137662009Y-109566668D01*
X137704970Y-109481006D01*
X137726039Y-109422266D01*
X137726263Y-109385732D01*
X137706688Y-109366691D01*
X137706414Y-109366580D01*
X137683232Y-109357062D01*
X137628201Y-109334363D01*
X137545582Y-109300242D01*
X137439632Y-109256460D01*
X137314612Y-109204776D01*
X137174780Y-109146952D01*
X137039397Y-109090951D01*
X136889994Y-109029407D01*
X136751592Y-108972899D01*
X136628433Y-108923121D01*
X136524762Y-108881766D01*
X136444819Y-108850528D01*
X136392848Y-108831101D01*
X136373452Y-108825114D01*
X136351203Y-108840128D01*
X136315742Y-108879399D01*
X136276647Y-108931767D01*
X136153005Y-109080901D01*
X136011282Y-109197471D01*
X135854464Y-109280078D01*
X135685535Y-109327326D01*
X135507482Y-109337817D01*
X135425299Y-109330191D01*
X135254791Y-109288642D01*
X135104219Y-109217083D01*
X134975069Y-109119955D01*
X134868824Y-109001694D01*
X134786970Y-108866740D01*
X134730992Y-108719531D01*
X134702375Y-108564504D01*
X134702604Y-108406099D01*
X134733165Y-108248754D01*
X134795542Y-108096906D01*
X134891220Y-107954995D01*
X134945332Y-107895763D01*
X135084280Y-107782163D01*
X135236121Y-107703066D01*
X135396427Y-107657946D01*
X135560772Y-107646276D01*
X135724731Y-107667529D01*
X135883878Y-107721180D01*
X136033785Y-107806700D01*
X136170027Y-107923565D01*
X136276647Y-108054153D01*
X136317402Y-108108548D01*
X136352478Y-108146974D01*
X136373486Y-108160806D01*
X136396395Y-108153563D01*
X136451125Y-108132965D01*
X136533432Y-108100706D01*
X136639075Y-108058481D01*
X136763810Y-108007983D01*
X136903396Y-107950908D01*
X137039430Y-107894814D01*
X137188961Y-107832927D01*
X137327527Y-107775604D01*
X137450867Y-107724604D01*
X137554724Y-107681687D01*
X137634840Y-107648613D01*
X137686955Y-107627141D01*
X137706414Y-107619185D01*
X137726183Y-107600389D01*
X137726125Y-107564034D01*
X137705201Y-107505439D01*
X137662373Y-107419928D01*
X137662009Y-107419252D01*
X137628772Y-107354867D01*
X137604562Y-107302821D01*
X137594164Y-107273472D01*
X137594068Y-107272177D01*
X137604615Y-107250084D01*
X137633944Y-107201308D01*
X137678587Y-107131291D01*
X137735074Y-107045474D01*
X137799222Y-106950348D01*
X137864171Y-106853500D01*
X137920656Y-106766213D01*
X137965181Y-106694141D01*
X137994250Y-106642937D01*
X138004376Y-106618486D01*
X137991067Y-106595970D01*
X137953872Y-106550702D01*
X137896888Y-106487204D01*
X137824209Y-106409999D01*
X137739931Y-106323611D01*
X137711776Y-106295359D01*
X137419176Y-106003247D01*
X137092864Y-106225591D01*
X136992657Y-106293162D01*
X136902723Y-106352467D01*
X136828270Y-106400177D01*
X136774511Y-106432967D01*
X136746654Y-106447508D01*
X136744672Y-106447934D01*
X136718415Y-106440268D01*
X136665597Y-106419649D01*
X136595070Y-106389645D01*
X136547853Y-106368585D01*
X136457454Y-106329208D01*
X136366126Y-106292125D01*
X136288960Y-106263375D01*
X136265452Y-106255565D01*
X136202676Y-106233377D01*
X136154171Y-106211687D01*
X136135839Y-106199773D01*
X136124619Y-106173483D01*
X136108714Y-106116102D01*
X136089927Y-106035078D01*
X136070059Y-105937855D01*
X136061892Y-105894345D01*
X136041589Y-105783856D01*
X136021930Y-105677876D01*
X136004848Y-105586761D01*
X135992278Y-105520868D01*
X135989851Y-105508460D01*
X135969605Y-105405883D01*
X135542461Y-105405883D01*
X135402006Y-105406113D01*
X135295739Y-105407059D01*
X135218773Y-105409101D01*
X135166220Y-105412622D01*
X135133193Y-105418003D01*
X135114805Y-105425626D01*
X135106168Y-105435872D01*
X135104567Y-105440075D01*
X135098887Y-105465430D01*
X135087555Y-105521444D01*
X135071939Y-105600924D01*
X135053407Y-105696672D01*
X135033329Y-105801493D01*
X135013072Y-105908192D01*
X134994006Y-106009573D01*
X134977499Y-106098439D01*
X134964919Y-106167597D01*
X134957635Y-106209849D01*
X134956376Y-106219250D01*
X134939523Y-106227767D01*
X134894630Y-106246620D01*
X134830190Y-106272284D01*
X134804952Y-106282083D01*
X134707446Y-106321608D01*
X134599719Y-106368152D01*
X134508932Y-106409837D01*
X134439513Y-106440510D01*
X134382470Y-106460916D01*
X134347537Y-106467728D01*
X134342855Y-106466642D01*
X134320751Y-106452245D01*
X134271591Y-106419372D01*
X134200608Y-106371550D01*
X134113038Y-106312308D01*
X134014117Y-106245175D01*
X133994590Y-106231901D01*
X133878900Y-106154006D01*
X133790804Y-106096747D01*
X133726246Y-106057841D01*
X133681171Y-106035004D01*
X133651523Y-106025954D01*
X133633245Y-106028408D01*
X133633129Y-106028471D01*
X133609121Y-106047787D01*
X133562707Y-106090511D01*
X133498697Y-106152011D01*
X133421905Y-106227658D01*
X133337142Y-106312821D01*
X133327682Y-106322425D01*
X133223749Y-106429750D01*
X133147435Y-106512575D01*
X133097331Y-106572565D01*
X133072030Y-106611383D01*
X133068764Y-106628480D01*
X133083010Y-106653433D01*
X133115916Y-106705215D01*
X133163968Y-106778480D01*
X133223650Y-106867880D01*
X133291448Y-106968071D01*
X133307399Y-106991461D01*
X133534180Y-107323553D01*
X133466113Y-107473525D01*
X133426445Y-107564730D01*
X133386551Y-107662629D01*
X133354743Y-107746791D01*
X133353434Y-107750498D01*
X133329336Y-107816329D01*
X133308960Y-107867076D01*
X133296696Y-107891802D01*
X133296661Y-107891844D01*
X133274494Y-107899689D01*
X133219977Y-107913026D01*
X133139240Y-107930530D01*
X133038410Y-107950877D01*
X132923616Y-107972742D01*
X132913938Y-107974531D01*
X132795664Y-107996464D01*
X132688302Y-108016600D01*
X132598677Y-108033640D01*
X132533611Y-108046288D01*
X132499928Y-108053244D01*
X132499414Y-108053366D01*
X132485085Y-108057599D01*
X132474267Y-108065831D01*
X132466466Y-108082993D01*
X132461189Y-108114018D01*
X132457942Y-108163838D01*
X132456232Y-108237384D01*
X132455567Y-108339589D01*
X132455453Y-108475385D01*
X132455452Y-108492960D01*
X132455536Y-108632838D01*
G37*
X132455536Y-108632838D02*
X132456115Y-108738572D01*
X132457682Y-108815092D01*
X132460732Y-108867332D01*
X132465756Y-108900223D01*
X132473249Y-108918697D01*
X132483704Y-108927687D01*
X132497613Y-108932123D01*
X132499414Y-108932554D01*
X132531905Y-108939293D01*
X132596012Y-108951768D01*
X132684911Y-108968679D01*
X132791779Y-108988731D01*
X132909793Y-109010624D01*
X132913938Y-109011389D01*
X133029591Y-109033319D01*
X133131774Y-109053837D01*
X133214358Y-109071619D01*
X133271216Y-109085341D01*
X133296218Y-109093678D01*
X133296661Y-109094076D01*
X133308870Y-109118637D01*
X133329216Y-109169275D01*
X133353305Y-109235055D01*
X133353434Y-109235421D01*
X133384578Y-109318277D01*
X133424251Y-109415960D01*
X133464141Y-109508037D01*
X133466113Y-109512394D01*
X133534180Y-109662367D01*
X133307399Y-109994458D01*
X133238264Y-110096334D01*
X133176457Y-110188617D01*
X133125493Y-110265963D01*
X133088887Y-110323024D01*
X133070154Y-110354455D01*
X133068764Y-110357439D01*
X133074950Y-110380281D01*
X133104795Y-110422942D01*
X133159707Y-110487088D01*
X133241094Y-110574381D01*
X133327682Y-110663495D01*
X133413007Y-110749401D01*
X133490868Y-110826287D01*
X133556457Y-110889524D01*
X133604965Y-110934483D01*
X133631585Y-110956536D01*
X133632955Y-110957356D01*
X133651223Y-110959794D01*
X133681055Y-110950610D01*
X133726481Y-110927534D01*
X133791530Y-110888297D01*
X133880230Y-110830630D01*
X133994417Y-110753755D01*
X134094922Y-110685530D01*
X134185063Y-110624542D01*
X134259609Y-110574316D01*
X134313325Y-110538376D01*
X134340978Y-110520247D01*
X134342855Y-110519106D01*
X134369350Y-110521319D01*
X134420846Y-110538098D01*
X134487611Y-110566102D01*
X134508932Y-110576082D01*
X134603919Y-110619632D01*
X134711697Y-110666094D01*
X134804952Y-110703837D01*
X134874166Y-110731033D01*
X134926766Y-110752635D01*
X134954257Y-110765118D01*
X134956376Y-110766669D01*
X134959884Y-110789628D01*
X134969498Y-110843746D01*
X134983849Y-110921828D01*
X135001567Y-111016679D01*
X135021285Y-111121103D01*
X135041634Y-111227904D01*
X135061246Y-111329886D01*
X135078751Y-111419854D01*
X135092782Y-111490613D01*
X135101969Y-111534966D01*
X135104567Y-111545845D01*
X135110978Y-111557082D01*
X135125457Y-111565565D01*
X135152893Y-111571674D01*
X135198171Y-111575792D01*
X135266180Y-111578301D01*
X135361807Y-111579581D01*
X135489940Y-111580014D01*
X135542461Y-111580037D01*
X135969605Y-111580037D01*
X135989851Y-111477460D01*
X136000830Y-111420391D01*
X136016855Y-111335229D01*
X136035993Y-111232332D01*
X136056311Y-111122056D01*
X136061892Y-111091575D01*
X136081677Y-110989815D01*
X136101133Y-110901165D01*
X136118457Y-110833068D01*
X136131848Y-110792964D01*
X136135839Y-110786283D01*
X136164102Y-110769879D01*
X136218869Y-110746359D01*
X136289348Y-110720276D01*
X136304529Y-110715102D01*
X136398656Y-110680916D01*
X136504861Y-110638483D01*
X136600233Y-110596957D01*
X136600676Y-110596752D01*
X136750285Y-110527600D01*
X137419377Y-110982472D01*
X137711876Y-110690460D01*
X137798930Y-110602140D01*
X137875669Y-110521585D01*
X137937997Y-110453320D01*
X137981816Y-110401868D01*
X138003030Y-110371754D01*
X138004376Y-110367434D01*
X137993776Y-110342071D01*
X137964307Y-110290318D01*
X137919465Y-110217828D01*
X137862744Y-110130254D01*
X137799222Y-110035572D01*
X137734428Y-109939476D01*
X137678047Y-109853797D01*
X137633548Y-109783976D01*
X137604399Y-109735454D01*
X137594068Y-109713742D01*
X137602810Y-109687253D01*
X137625847Y-109637022D01*
X137658391Y-109573411D01*
X137662009Y-109566668D01*
X137704970Y-109481006D01*
X137726039Y-109422266D01*
X137726263Y-109385732D01*
X137706688Y-109366691D01*
X137706414Y-109366580D01*
X137683232Y-109357062D01*
X137628201Y-109334363D01*
X137545582Y-109300242D01*
X137439632Y-109256460D01*
X137314612Y-109204776D01*
X137174780Y-109146952D01*
X137039397Y-109090951D01*
X136889994Y-109029407D01*
X136751592Y-108972899D01*
X136628433Y-108923121D01*
X136524762Y-108881766D01*
X136444819Y-108850528D01*
X136392848Y-108831101D01*
X136373452Y-108825114D01*
X136351203Y-108840128D01*
X136315742Y-108879399D01*
X136276647Y-108931767D01*
X136153005Y-109080901D01*
X136011282Y-109197471D01*
X135854464Y-109280078D01*
X135685535Y-109327326D01*
X135507482Y-109337817D01*
X135425299Y-109330191D01*
X135254791Y-109288642D01*
X135104219Y-109217083D01*
X134975069Y-109119955D01*
X134868824Y-109001694D01*
X134786970Y-108866740D01*
X134730992Y-108719531D01*
X134702375Y-108564504D01*
X134702604Y-108406099D01*
X134733165Y-108248754D01*
X134795542Y-108096906D01*
X134891220Y-107954995D01*
X134945332Y-107895763D01*
X135084280Y-107782163D01*
X135236121Y-107703066D01*
X135396427Y-107657946D01*
X135560772Y-107646276D01*
X135724731Y-107667529D01*
X135883878Y-107721180D01*
X136033785Y-107806700D01*
X136170027Y-107923565D01*
X136276647Y-108054153D01*
X136317402Y-108108548D01*
X136352478Y-108146974D01*
X136373486Y-108160806D01*
X136396395Y-108153563D01*
X136451125Y-108132965D01*
X136533432Y-108100706D01*
X136639075Y-108058481D01*
X136763810Y-108007983D01*
X136903396Y-107950908D01*
X137039430Y-107894814D01*
X137188961Y-107832927D01*
X137327527Y-107775604D01*
X137450867Y-107724604D01*
X137554724Y-107681687D01*
X137634840Y-107648613D01*
X137686955Y-107627141D01*
X137706414Y-107619185D01*
X137726183Y-107600389D01*
X137726125Y-107564034D01*
X137705201Y-107505439D01*
X137662373Y-107419928D01*
X137662009Y-107419252D01*
X137628772Y-107354867D01*
X137604562Y-107302821D01*
X137594164Y-107273472D01*
X137594068Y-107272177D01*
X137604615Y-107250084D01*
X137633944Y-107201308D01*
X137678587Y-107131291D01*
X137735074Y-107045474D01*
X137799222Y-106950348D01*
X137864171Y-106853500D01*
X137920656Y-106766213D01*
X137965181Y-106694141D01*
X137994250Y-106642937D01*
X138004376Y-106618486D01*
X137991067Y-106595970D01*
X137953872Y-106550702D01*
X137896888Y-106487204D01*
X137824209Y-106409999D01*
X137739931Y-106323611D01*
X137711776Y-106295359D01*
X137419176Y-106003247D01*
X137092864Y-106225591D01*
X136992657Y-106293162D01*
X136902723Y-106352467D01*
X136828270Y-106400177D01*
X136774511Y-106432967D01*
X136746654Y-106447508D01*
X136744672Y-106447934D01*
X136718415Y-106440268D01*
X136665597Y-106419649D01*
X136595070Y-106389645D01*
X136547853Y-106368585D01*
X136457454Y-106329208D01*
X136366126Y-106292125D01*
X136288960Y-106263375D01*
X136265452Y-106255565D01*
X136202676Y-106233377D01*
X136154171Y-106211687D01*
X136135839Y-106199773D01*
X136124619Y-106173483D01*
X136108714Y-106116102D01*
X136089927Y-106035078D01*
X136070059Y-105937855D01*
X136061892Y-105894345D01*
X136041589Y-105783856D01*
X136021930Y-105677876D01*
X136004848Y-105586761D01*
X135992278Y-105520868D01*
X135989851Y-105508460D01*
X135969605Y-105405883D01*
X135542461Y-105405883D01*
X135402006Y-105406113D01*
X135295739Y-105407059D01*
X135218773Y-105409101D01*
X135166220Y-105412622D01*
X135133193Y-105418003D01*
X135114805Y-105425626D01*
X135106168Y-105435872D01*
X135104567Y-105440075D01*
X135098887Y-105465430D01*
X135087555Y-105521444D01*
X135071939Y-105600924D01*
X135053407Y-105696672D01*
X135033329Y-105801493D01*
X135013072Y-105908192D01*
X134994006Y-106009573D01*
X134977499Y-106098439D01*
X134964919Y-106167597D01*
X134957635Y-106209849D01*
X134956376Y-106219250D01*
X134939523Y-106227767D01*
X134894630Y-106246620D01*
X134830190Y-106272284D01*
X134804952Y-106282083D01*
X134707446Y-106321608D01*
X134599719Y-106368152D01*
X134508932Y-106409837D01*
X134439513Y-106440510D01*
X134382470Y-106460916D01*
X134347537Y-106467728D01*
X134342855Y-106466642D01*
X134320751Y-106452245D01*
X134271591Y-106419372D01*
X134200608Y-106371550D01*
X134113038Y-106312308D01*
X134014117Y-106245175D01*
X133994590Y-106231901D01*
X133878900Y-106154006D01*
X133790804Y-106096747D01*
X133726246Y-106057841D01*
X133681171Y-106035004D01*
X133651523Y-106025954D01*
X133633245Y-106028408D01*
X133633129Y-106028471D01*
X133609121Y-106047787D01*
X133562707Y-106090511D01*
X133498697Y-106152011D01*
X133421905Y-106227658D01*
X133337142Y-106312821D01*
X133327682Y-106322425D01*
X133223749Y-106429750D01*
X133147435Y-106512575D01*
X133097331Y-106572565D01*
X133072030Y-106611383D01*
X133068764Y-106628480D01*
X133083010Y-106653433D01*
X133115916Y-106705215D01*
X133163968Y-106778480D01*
X133223650Y-106867880D01*
X133291448Y-106968071D01*
X133307399Y-106991461D01*
X133534180Y-107323553D01*
X133466113Y-107473525D01*
X133426445Y-107564730D01*
X133386551Y-107662629D01*
X133354743Y-107746791D01*
X133353434Y-107750498D01*
X133329336Y-107816329D01*
X133308960Y-107867076D01*
X133296696Y-107891802D01*
X133296661Y-107891844D01*
X133274494Y-107899689D01*
X133219977Y-107913026D01*
X133139240Y-107930530D01*
X133038410Y-107950877D01*
X132923616Y-107972742D01*
X132913938Y-107974531D01*
X132795664Y-107996464D01*
X132688302Y-108016600D01*
X132598677Y-108033640D01*
X132533611Y-108046288D01*
X132499928Y-108053244D01*
X132499414Y-108053366D01*
X132485085Y-108057599D01*
X132474267Y-108065831D01*
X132466466Y-108082993D01*
X132461189Y-108114018D01*
X132457942Y-108163838D01*
X132456232Y-108237384D01*
X132455567Y-108339589D01*
X132455453Y-108475385D01*
X132455452Y-108492960D01*
X132455536Y-108632838D01*
%TD*%
M02*
