%TF.GenerationSoftware,KiCad,Pcbnew,(5.1.9)-1*%
%TF.CreationDate,2021-07-27T22:16:15-04:00*%
%TF.ProjectId,Amiga2MacFloppy,416d6967-6132-44d6-9163-466c6f707079,1.0*%
%TF.SameCoordinates,Original*%
%TF.FileFunction,Copper,L2,Bot*%
%TF.FilePolarity,Positive*%
%FSLAX46Y46*%
G04 Gerber Fmt 4.6, Leading zero omitted, Abs format (unit mm)*
G04 Created by KiCad (PCBNEW (5.1.9)-1) date 2021-07-27 22:16:15*
%MOMM*%
%LPD*%
G01*
G04 APERTURE LIST*
%TA.AperFunction,SMDPad,CuDef*%
%ADD10R,3.480000X1.846667*%
%TD*%
%TA.AperFunction,ComponentPad*%
%ADD11O,1.600000X1.600000*%
%TD*%
%TA.AperFunction,ComponentPad*%
%ADD12R,1.600000X1.600000*%
%TD*%
%TA.AperFunction,ComponentPad*%
%ADD13C,1.600000*%
%TD*%
%TA.AperFunction,ComponentPad*%
%ADD14C,1.700000*%
%TD*%
%TA.AperFunction,ViaPad*%
%ADD15C,0.800000*%
%TD*%
%TA.AperFunction,Conductor*%
%ADD16C,1.200000*%
%TD*%
%TA.AperFunction,Conductor*%
%ADD17C,0.250000*%
%TD*%
%TA.AperFunction,NonConductor*%
%ADD18C,0.254000*%
%TD*%
%TA.AperFunction,NonConductor*%
%ADD19C,0.100000*%
%TD*%
G04 APERTURE END LIST*
D10*
%TO.P,J3,13*%
%TO.N,PH2*%
X158468000Y-118904000D03*
%TO.P,J3,14*%
%TO.N,PH3*%
X158468000Y-116364000D03*
%TO.P,J3,15*%
%TO.N,SEL*%
X158468000Y-113594000D03*
%TO.P,J3,16*%
%TO.N,_DKWE*%
X158468000Y-110824000D03*
%TO.P,J3,17*%
%TO.N,_DKWD*%
X158468000Y-108054000D03*
%TO.P,J3,18*%
%TO.N,PH0*%
X158468000Y-105284000D03*
%TO.P,J3,19*%
%TO.N,DIR*%
X158468000Y-102514000D03*
%TO.P,J3,20*%
%TO.N,_SEL3*%
X158468000Y-99744000D03*
%TO.P,J3,21*%
%TO.N,_SEL1*%
X158468000Y-96974000D03*
%TO.P,J3,22*%
%TO.N,_INDEX*%
X158468000Y-94204000D03*
%TO.P,J3,23*%
%TO.N,+12V*%
X158468000Y-91434000D03*
%TD*%
%TO.P,J1,23*%
%TO.N,+12V*%
X118444000Y-90941000D03*
%TO.P,J1,22*%
%TO.N,_INDEX*%
X118444000Y-93711000D03*
%TO.P,J1,21*%
%TO.N,_SEL2*%
X118444000Y-96481000D03*
%TO.P,J1,20*%
%TO.N,Net-(J1-Pad20)*%
X118444000Y-99251000D03*
%TO.P,J1,19*%
%TO.N,DIR*%
X118444000Y-102021000D03*
%TO.P,J1,18*%
%TO.N,PH0*%
X118444000Y-104791000D03*
%TO.P,J1,17*%
%TO.N,_DKWD*%
X118444000Y-107561000D03*
%TO.P,J1,16*%
%TO.N,_DKWE*%
X118444000Y-110331000D03*
%TO.P,J1,15*%
%TO.N,SEL*%
X118444000Y-113101000D03*
%TO.P,J1,14*%
%TO.N,PH3*%
X118444000Y-115871000D03*
%TO.P,J1,13*%
%TO.N,PH2*%
X118444000Y-118670000D03*
%TD*%
D11*
%TO.P,D2,2*%
%TO.N,_DKRD*%
X148288000Y-122093000D03*
D12*
%TO.P,D2,1*%
%TO.N,Net-(D1-Pad1)*%
X140668000Y-122093000D03*
%TD*%
D11*
%TO.P,D1,2*%
%TO.N,_RDY*%
X135688000Y-122093000D03*
D12*
%TO.P,D1,1*%
%TO.N,Net-(D1-Pad1)*%
X128068000Y-122093000D03*
%TD*%
D13*
%TO.P,C1,2*%
%TO.N,GND*%
X134568000Y-118393000D03*
%TO.P,C1,1*%
%TO.N,+5V*%
X129568000Y-118393000D03*
%TD*%
%TO.P,C2,2*%
%TO.N,GND*%
X149568000Y-115893000D03*
%TO.P,C2,1*%
%TO.N,+5V*%
X144568000Y-115893000D03*
%TD*%
D14*
%TO.P,J2,20*%
%TO.N,+5V*%
X126940000Y-88233000D03*
%TO.P,J2,18*%
%TO.N,WR*%
X129480000Y-88233000D03*
%TO.P,J2,16*%
%TO.N,RD*%
X132020000Y-88233000D03*
%TO.P,J2,14*%
%TO.N,_ENABLE*%
X134560000Y-88233000D03*
%TO.P,J2,12*%
%TO.N,SEL*%
X137100000Y-88233000D03*
%TO.P,J2,10*%
%TO.N,_DKWE*%
X139640000Y-88233000D03*
%TO.P,J2,8*%
%TO.N,PH3*%
X142180000Y-88233000D03*
%TO.P,J2,6*%
%TO.N,PH2*%
X144720000Y-88233000D03*
%TO.P,J2,4*%
%TO.N,DIR*%
X147260000Y-88233000D03*
%TO.P,J2,2*%
%TO.N,PH0*%
X149800000Y-88233000D03*
%TO.P,J2,19*%
%TO.N,Net-(J2-Pad19)*%
X126940000Y-85693000D03*
%TO.P,J2,17*%
%TO.N,Net-(J2-Pad17)*%
X129480000Y-85693000D03*
%TO.P,J2,15*%
%TO.N,+12V*%
X132020000Y-85693000D03*
%TO.P,J2,13*%
X134560000Y-85693000D03*
%TO.P,J2,11*%
%TO.N,+5V*%
X137100000Y-85693000D03*
%TO.P,J2,9*%
%TO.N,Net-(J2-Pad9)*%
X139640000Y-85693000D03*
%TO.P,J2,7*%
%TO.N,GND*%
X142180000Y-85693000D03*
%TO.P,J2,5*%
X144720000Y-85693000D03*
%TO.P,J2,3*%
X147260000Y-85693000D03*
%TO.P,J2,1*%
%TA.AperFunction,ComponentPad*%
G36*
G01*
X149200000Y-84843000D02*
X150400000Y-84843000D01*
G75*
G02*
X150650000Y-85093000I0J-250000D01*
G01*
X150650000Y-86293000D01*
G75*
G02*
X150400000Y-86543000I-250000J0D01*
G01*
X149200000Y-86543000D01*
G75*
G02*
X148950000Y-86293000I0J250000D01*
G01*
X148950000Y-85093000D01*
G75*
G02*
X149200000Y-84843000I250000J0D01*
G01*
G37*
%TD.AperFunction*%
%TD*%
D11*
%TO.P,U2,14*%
%TO.N,+5V*%
X142137000Y-112684000D03*
%TO.P,U2,7*%
%TO.N,GND*%
X149757000Y-97444000D03*
%TO.P,U2,13*%
%TO.N,Net-(U2-Pad13)*%
X142137000Y-110144000D03*
%TO.P,U2,6*%
%TO.N,Net-(U2-Pad6)*%
X149757000Y-99984000D03*
%TO.P,U2,12*%
%TO.N,Net-(U2-Pad12)*%
X142137000Y-107604000D03*
%TO.P,U2,5*%
%TO.N,Net-(U2-Pad5)*%
X149757000Y-102524000D03*
%TO.P,U2,11*%
%TO.N,Net-(U2-Pad11)*%
X142137000Y-105064000D03*
%TO.P,U2,4*%
%TO.N,Net-(U2-Pad4)*%
X149757000Y-105064000D03*
%TO.P,U2,10*%
%TO.N,Net-(U2-Pad10)*%
X142137000Y-102524000D03*
%TO.P,U2,3*%
%TO.N,WR*%
X149757000Y-107604000D03*
%TO.P,U2,9*%
%TO.N,Net-(U2-Pad9)*%
X142137000Y-99984000D03*
%TO.P,U2,2*%
%TO.N,DIR*%
X149757000Y-110144000D03*
%TO.P,U2,8*%
%TO.N,Net-(U2-Pad8)*%
X142137000Y-97444000D03*
D12*
%TO.P,U2,1*%
%TO.N,_DKWD*%
X149757000Y-112684000D03*
%TD*%
D11*
%TO.P,U1,16*%
%TO.N,+5V*%
X127054000Y-115168000D03*
%TO.P,U1,8*%
%TO.N,GND*%
X134674000Y-97388000D03*
%TO.P,U1,15*%
X127054000Y-112628000D03*
%TO.P,U1,7*%
%TO.N,Net-(U1-Pad7)*%
X134674000Y-99928000D03*
%TO.P,U1,14*%
%TO.N,_MTRXD*%
X127054000Y-110088000D03*
%TO.P,U1,6*%
%TO.N,Net-(U1-Pad6)*%
X134674000Y-102468000D03*
%TO.P,U1,13*%
%TO.N,_SEL1*%
X127054000Y-107548000D03*
%TO.P,U1,5*%
%TO.N,Net-(U1-Pad5)*%
X134674000Y-105008000D03*
%TO.P,U1,12*%
%TO.N,_ENABLE*%
X127054000Y-105008000D03*
%TO.P,U1,4*%
%TO.N,Net-(D1-Pad1)*%
X134674000Y-107548000D03*
%TO.P,U1,11*%
%TO.N,Net-(U1-Pad11)*%
X127054000Y-102468000D03*
%TO.P,U1,3*%
%TO.N,GND*%
X134674000Y-110088000D03*
%TO.P,U1,10*%
%TO.N,Net-(U1-Pad10)*%
X127054000Y-99928000D03*
%TO.P,U1,2*%
%TO.N,RD*%
X134674000Y-112628000D03*
%TO.P,U1,9*%
%TO.N,Net-(U1-Pad9)*%
X127054000Y-97388000D03*
D12*
%TO.P,U1,1*%
%TO.N,GND*%
X134674000Y-115168000D03*
%TD*%
D15*
%TO.N,_SEL1*%
X135880000Y-94956300D03*
%TO.N,_SEL3*%
X120787900Y-98796500D03*
%TO.N,_DKWE*%
X139640000Y-108289000D03*
%TO.N,_DRES*%
X156127600Y-95083900D03*
X120807400Y-94629900D03*
%TO.N,_SEL2*%
X156108800Y-97993000D03*
%TO.N,WR*%
X147688600Y-92651000D03*
%TO.N,_MTRXD*%
X154052000Y-97388900D03*
X128547800Y-97519600D03*
%TO.N,PH0*%
X154279100Y-105568500D03*
%TO.N,SEL*%
X141428200Y-114306300D03*
%TO.N,PH3*%
X145426900Y-119451600D03*
%TO.N,PH2*%
X146165300Y-120276900D03*
%TD*%
D16*
%TO.N,GND*%
X149568000Y-115893000D02*
X147409700Y-118051300D01*
X147409700Y-118051300D02*
X143378700Y-118051300D01*
X143378700Y-118051300D02*
X143037000Y-118393000D01*
X143037000Y-118393000D02*
X134568000Y-118393000D01*
X127054000Y-112628000D02*
X128854300Y-112628000D01*
X131977900Y-112573400D02*
X128908900Y-112573400D01*
X128908900Y-112573400D02*
X128854300Y-112628000D01*
X132873700Y-115168000D02*
X132873700Y-113469200D01*
X132873700Y-113469200D02*
X131977900Y-112573400D01*
X131977900Y-112573400D02*
X132873700Y-111677600D01*
X132873700Y-111677600D02*
X132873700Y-110088000D01*
X144720000Y-85693000D02*
X142180000Y-85693000D01*
X147260000Y-85693000D02*
X144720000Y-85693000D01*
X149800000Y-85693000D02*
X147260000Y-85693000D01*
X134674000Y-110088000D02*
X132873700Y-110088000D01*
X134674000Y-115168000D02*
X132873700Y-115168000D01*
%TO.N,+12V*%
X134560000Y-85693000D02*
X134560000Y-85613600D01*
X134560000Y-85613600D02*
X136343200Y-83830400D01*
X136343200Y-83830400D02*
X150951300Y-83830400D01*
X150951300Y-83830400D02*
X152993700Y-85872800D01*
X152993700Y-85872800D02*
X152993700Y-88700000D01*
X152993700Y-88700000D02*
X155727700Y-91434000D01*
X134560000Y-85693000D02*
X132020000Y-85693000D01*
X158468000Y-91434000D02*
X155727700Y-91434000D01*
X132020000Y-85693000D02*
X132020000Y-85613600D01*
X132020000Y-85613600D02*
X130247500Y-83841100D01*
X130247500Y-83841100D02*
X126128200Y-83841100D01*
X126128200Y-83841100D02*
X123425300Y-86544000D01*
X123425300Y-86544000D02*
X123425300Y-88700000D01*
X123425300Y-88700000D02*
X121184300Y-90941000D01*
X118444000Y-90941000D02*
X121184300Y-90941000D01*
D17*
%TO.N,_SEL1*%
X158468000Y-96974000D02*
X156402700Y-96974000D01*
X135880000Y-94956300D02*
X154385000Y-94956300D01*
X154385000Y-94956300D02*
X156402700Y-96974000D01*
%TO.N,_SEL3*%
X156402700Y-99744000D02*
X155455200Y-98796500D01*
X155455200Y-98796500D02*
X120787900Y-98796500D01*
X158468000Y-99744000D02*
X156402700Y-99744000D01*
%TO.N,DIR*%
X118444000Y-102021000D02*
X120509300Y-102021000D01*
X120509300Y-102021000D02*
X121276300Y-101254000D01*
X121276300Y-101254000D02*
X142538900Y-101254000D01*
X142538900Y-101254000D02*
X148108400Y-106823500D01*
X148108400Y-106823500D02*
X148108400Y-107625100D01*
X148108400Y-107625100D02*
X149502000Y-109018700D01*
X149502000Y-109018700D02*
X149757000Y-109018700D01*
X149757000Y-110144000D02*
X149757000Y-109018700D01*
X149757000Y-109018700D02*
X150044800Y-109018700D01*
X150044800Y-109018700D02*
X150882300Y-108181200D01*
X150882300Y-108181200D02*
X150882300Y-107901900D01*
X150882300Y-107901900D02*
X156270200Y-102514000D01*
X156270200Y-102514000D02*
X158468000Y-102514000D01*
%TO.N,_DKWD*%
X149757000Y-112684000D02*
X150882300Y-112684000D01*
X150882300Y-112684000D02*
X155512300Y-108054000D01*
X155512300Y-108054000D02*
X158468000Y-108054000D01*
X149473800Y-112684000D02*
X149757000Y-112684000D01*
X149473800Y-112684000D02*
X148631700Y-112684000D01*
X118444000Y-107561000D02*
X120509300Y-107561000D01*
X148631700Y-112684000D02*
X148631700Y-112402700D01*
X148631700Y-112402700D02*
X142597600Y-106368600D01*
X142597600Y-106368600D02*
X121701700Y-106368600D01*
X121701700Y-106368600D02*
X120509300Y-107561000D01*
%TO.N,_DKWE*%
X139640000Y-108732900D02*
X139640000Y-108289000D01*
X158468000Y-110824000D02*
X154681700Y-110824000D01*
X154681700Y-110824000D02*
X151696300Y-113809400D01*
X151696300Y-113809400D02*
X146666100Y-113809400D01*
X146666100Y-113809400D02*
X144270700Y-111414000D01*
X144270700Y-111414000D02*
X141800400Y-111414000D01*
X141800400Y-111414000D02*
X139640000Y-109253600D01*
X139640000Y-109253600D02*
X139640000Y-108732900D01*
X139640000Y-108732900D02*
X122107400Y-108732900D01*
X122107400Y-108732900D02*
X120509300Y-110331000D01*
X118444000Y-110331000D02*
X120509300Y-110331000D01*
%TO.N,_DRES*%
X156127600Y-95083900D02*
X155274700Y-94231000D01*
X155274700Y-94231000D02*
X121206300Y-94231000D01*
X121206300Y-94231000D02*
X120807400Y-94629900D01*
%TO.N,_SEL2*%
X120509300Y-96481000D02*
X121437200Y-95553100D01*
X121437200Y-95553100D02*
X135451100Y-95553100D01*
X135451100Y-95553100D02*
X135579600Y-95681600D01*
X135579600Y-95681600D02*
X136180500Y-95681600D01*
X136180500Y-95681600D02*
X136244800Y-95617300D01*
X136244800Y-95617300D02*
X153733100Y-95617300D01*
X153733100Y-95617300D02*
X156108800Y-97993000D01*
X118444000Y-96481000D02*
X120509300Y-96481000D01*
%TO.N,WR*%
X147688600Y-92651000D02*
X133898000Y-92651000D01*
X133898000Y-92651000D02*
X129480000Y-88233000D01*
%TO.N,_MTRXD*%
X128547800Y-97519600D02*
X130063900Y-96003500D01*
X130063900Y-96003500D02*
X135264600Y-96003500D01*
X135264600Y-96003500D02*
X135393000Y-96131900D01*
X135393000Y-96131900D02*
X136367100Y-96131900D01*
X136367100Y-96131900D02*
X136431300Y-96067700D01*
X136431300Y-96067700D02*
X152730800Y-96067700D01*
X152730800Y-96067700D02*
X154052000Y-97388900D01*
%TO.N,PH0*%
X154279100Y-105568500D02*
X154279100Y-107277100D01*
X154279100Y-107277100D02*
X150272500Y-111283700D01*
X150272500Y-111283700D02*
X149294000Y-111283700D01*
X149294000Y-111283700D02*
X143955400Y-105945100D01*
X143955400Y-105945100D02*
X143955400Y-105251400D01*
X143955400Y-105251400D02*
X142573600Y-103869600D01*
X142573600Y-103869600D02*
X121430700Y-103869600D01*
X121430700Y-103869600D02*
X120509300Y-104791000D01*
X118444000Y-104791000D02*
X120509300Y-104791000D01*
X154279100Y-105568500D02*
X156118200Y-105568500D01*
X156118200Y-105568500D02*
X156402700Y-105284000D01*
X158468000Y-105284000D02*
X156402700Y-105284000D01*
%TO.N,SEL*%
X158468000Y-113594000D02*
X156402700Y-113594000D01*
X141428200Y-114306300D02*
X139223600Y-116510900D01*
X139223600Y-116510900D02*
X131485900Y-116510900D01*
X131485900Y-116510900D02*
X129014400Y-114039400D01*
X129014400Y-114039400D02*
X121447700Y-114039400D01*
X121447700Y-114039400D02*
X120509300Y-113101000D01*
X118444000Y-113101000D02*
X120509300Y-113101000D01*
X156402700Y-113594000D02*
X155690400Y-114306300D01*
X155690400Y-114306300D02*
X141428200Y-114306300D01*
%TO.N,PH3*%
X118444000Y-115871000D02*
X124210800Y-115871000D01*
X124210800Y-115871000D02*
X128097500Y-119757700D01*
X128097500Y-119757700D02*
X145120800Y-119757700D01*
X145120800Y-119757700D02*
X145426900Y-119451600D01*
X145426900Y-119451600D02*
X149097100Y-119451600D01*
X149097100Y-119451600D02*
X152184700Y-116364000D01*
X152184700Y-116364000D02*
X158468000Y-116364000D01*
%TO.N,PH2*%
X156402700Y-118904000D02*
X155029800Y-120276900D01*
X155029800Y-120276900D02*
X146165300Y-120276900D01*
X120509300Y-118670000D02*
X122116200Y-120276900D01*
X122116200Y-120276900D02*
X146165300Y-120276900D01*
X118444000Y-118670000D02*
X120509300Y-118670000D01*
X158468000Y-118904000D02*
X156402700Y-118904000D01*
%TO.N,Net-(D1-Pad1)*%
X140668000Y-122093000D02*
X139542700Y-122093000D01*
X128068000Y-122093000D02*
X129193300Y-122093000D01*
X129193300Y-122093000D02*
X130318600Y-120967700D01*
X130318600Y-120967700D02*
X138417400Y-120967700D01*
X138417400Y-120967700D02*
X139542700Y-122093000D01*
%TO.N,+5V*%
X137100000Y-85693000D02*
X135830000Y-86963000D01*
X135830000Y-86963000D02*
X135830000Y-88640400D01*
X135830000Y-88640400D02*
X135052200Y-89418200D01*
X135052200Y-89418200D02*
X131538800Y-89418200D01*
X131538800Y-89418200D02*
X130655400Y-88534800D01*
X130655400Y-88534800D02*
X130655400Y-87707400D01*
X130655400Y-87707400D02*
X130004000Y-87056000D01*
X130004000Y-87056000D02*
X128117000Y-87056000D01*
X128117000Y-87056000D02*
X126940000Y-88233000D01*
X144568000Y-115893000D02*
X143945600Y-115893000D01*
X143945600Y-115893000D02*
X142848500Y-116990100D01*
X142848500Y-116990100D02*
X129709500Y-116990100D01*
X129709500Y-116990100D02*
X129709500Y-116698200D01*
X129709500Y-116698200D02*
X128179300Y-115168000D01*
X129568000Y-118393000D02*
X129568000Y-117131600D01*
X129568000Y-117131600D02*
X129709500Y-116990100D01*
X127054000Y-115168000D02*
X128179300Y-115168000D01*
%TO.N,_INDEX*%
X120509300Y-93711000D02*
X155909700Y-93711000D01*
X155909700Y-93711000D02*
X156402700Y-94204000D01*
X158468000Y-94204000D02*
X156402700Y-94204000D01*
X118444000Y-93711000D02*
X120509300Y-93711000D01*
%TD*%
D18*
X121552401Y-120787903D02*
X121576199Y-120816901D01*
X121691924Y-120911874D01*
X121823953Y-120982446D01*
X121967214Y-121025903D01*
X122078867Y-121036900D01*
X122078875Y-121036900D01*
X122116200Y-121040576D01*
X122153525Y-121036900D01*
X126684869Y-121036900D01*
X126678498Y-121048820D01*
X126642188Y-121168518D01*
X126629928Y-121293000D01*
X126629928Y-122893000D01*
X126642188Y-123017482D01*
X126678498Y-123137180D01*
X126737463Y-123247494D01*
X126816815Y-123344185D01*
X126913506Y-123423537D01*
X127023820Y-123482502D01*
X127143518Y-123518812D01*
X127268000Y-123531072D01*
X128868000Y-123531072D01*
X128992482Y-123518812D01*
X129112180Y-123482502D01*
X129222494Y-123423537D01*
X129319185Y-123344185D01*
X129398537Y-123247494D01*
X129457502Y-123137180D01*
X129493812Y-123017482D01*
X129506072Y-122893000D01*
X129506072Y-122787575D01*
X129617576Y-122727974D01*
X129733301Y-122633001D01*
X129757104Y-122603998D01*
X130633402Y-121727700D01*
X134297550Y-121727700D01*
X134253000Y-121951665D01*
X134253000Y-122234335D01*
X134308147Y-122511574D01*
X134416320Y-122772727D01*
X134573363Y-123007759D01*
X134773241Y-123207637D01*
X135008273Y-123364680D01*
X135269426Y-123472853D01*
X135546665Y-123528000D01*
X135829335Y-123528000D01*
X136106574Y-123472853D01*
X136367727Y-123364680D01*
X136602759Y-123207637D01*
X136802637Y-123007759D01*
X136959680Y-122772727D01*
X137067853Y-122511574D01*
X137123000Y-122234335D01*
X137123000Y-121951665D01*
X137078450Y-121727700D01*
X138102599Y-121727700D01*
X138978901Y-122604003D01*
X139002699Y-122633001D01*
X139031697Y-122656799D01*
X139118424Y-122727974D01*
X139229928Y-122787575D01*
X139229928Y-122893000D01*
X139242188Y-123017482D01*
X139278498Y-123137180D01*
X139337463Y-123247494D01*
X139416815Y-123344185D01*
X139513506Y-123423537D01*
X139623820Y-123482502D01*
X139743518Y-123518812D01*
X139868000Y-123531072D01*
X141468000Y-123531072D01*
X141592482Y-123518812D01*
X141712180Y-123482502D01*
X141822494Y-123423537D01*
X141919185Y-123344185D01*
X141998537Y-123247494D01*
X142057502Y-123137180D01*
X142093812Y-123017482D01*
X142106072Y-122893000D01*
X142106072Y-121293000D01*
X142093812Y-121168518D01*
X142057502Y-121048820D01*
X142051131Y-121036900D01*
X145461589Y-121036900D01*
X145505526Y-121080837D01*
X145675044Y-121194105D01*
X145863402Y-121272126D01*
X146063361Y-121311900D01*
X146267239Y-121311900D01*
X146467198Y-121272126D01*
X146655556Y-121194105D01*
X146825074Y-121080837D01*
X146869011Y-121036900D01*
X147314704Y-121036900D01*
X147173363Y-121178241D01*
X147016320Y-121413273D01*
X146908147Y-121674426D01*
X146853000Y-121951665D01*
X146853000Y-122234335D01*
X146908147Y-122511574D01*
X147016320Y-122772727D01*
X147173363Y-123007759D01*
X147373241Y-123207637D01*
X147608273Y-123364680D01*
X147869426Y-123472853D01*
X148146665Y-123528000D01*
X148429335Y-123528000D01*
X148706574Y-123472853D01*
X148967727Y-123364680D01*
X149202759Y-123207637D01*
X149402637Y-123007759D01*
X149559680Y-122772727D01*
X149667853Y-122511574D01*
X149723000Y-122234335D01*
X149723000Y-121951665D01*
X149667853Y-121674426D01*
X149559680Y-121413273D01*
X149402637Y-121178241D01*
X149261296Y-121036900D01*
X154992478Y-121036900D01*
X155029800Y-121040576D01*
X155067122Y-121036900D01*
X155067133Y-121036900D01*
X155178786Y-121025903D01*
X155322047Y-120982446D01*
X155454076Y-120911874D01*
X155569801Y-120816901D01*
X155593604Y-120787897D01*
X156198460Y-120183042D01*
X156276815Y-120278518D01*
X156373506Y-120357870D01*
X156483820Y-120416835D01*
X156603518Y-120453145D01*
X156728000Y-120465405D01*
X159807761Y-120465405D01*
X159807761Y-128032960D01*
X117127760Y-128032960D01*
X117127760Y-125472872D01*
X117233000Y-125472872D01*
X117233000Y-125913128D01*
X117318890Y-126344925D01*
X117487369Y-126751669D01*
X117731962Y-127117729D01*
X118043271Y-127429038D01*
X118409331Y-127673631D01*
X118816075Y-127842110D01*
X119247872Y-127928000D01*
X119688128Y-127928000D01*
X120119925Y-127842110D01*
X120526669Y-127673631D01*
X120892729Y-127429038D01*
X121204038Y-127117729D01*
X121448631Y-126751669D01*
X121617110Y-126344925D01*
X121703000Y-125913128D01*
X121703000Y-125472872D01*
X155233000Y-125472872D01*
X155233000Y-125913128D01*
X155318890Y-126344925D01*
X155487369Y-126751669D01*
X155731962Y-127117729D01*
X156043271Y-127429038D01*
X156409331Y-127673631D01*
X156816075Y-127842110D01*
X157247872Y-127928000D01*
X157688128Y-127928000D01*
X158119925Y-127842110D01*
X158526669Y-127673631D01*
X158892729Y-127429038D01*
X159204038Y-127117729D01*
X159448631Y-126751669D01*
X159617110Y-126344925D01*
X159703000Y-125913128D01*
X159703000Y-125472872D01*
X159617110Y-125041075D01*
X159448631Y-124634331D01*
X159204038Y-124268271D01*
X158892729Y-123956962D01*
X158526669Y-123712369D01*
X158119925Y-123543890D01*
X157688128Y-123458000D01*
X157247872Y-123458000D01*
X156816075Y-123543890D01*
X156409331Y-123712369D01*
X156043271Y-123956962D01*
X155731962Y-124268271D01*
X155487369Y-124634331D01*
X155318890Y-125041075D01*
X155233000Y-125472872D01*
X121703000Y-125472872D01*
X121617110Y-125041075D01*
X121448631Y-124634331D01*
X121204038Y-124268271D01*
X120892729Y-123956962D01*
X120526669Y-123712369D01*
X120119925Y-123543890D01*
X119688128Y-123458000D01*
X119247872Y-123458000D01*
X118816075Y-123543890D01*
X118409331Y-123712369D01*
X118043271Y-123956962D01*
X117731962Y-124268271D01*
X117487369Y-124634331D01*
X117318890Y-125041075D01*
X117233000Y-125472872D01*
X117127760Y-125472872D01*
X117127760Y-120231405D01*
X120184000Y-120231405D01*
X120308482Y-120219145D01*
X120428180Y-120182835D01*
X120538494Y-120123870D01*
X120635185Y-120044518D01*
X120713540Y-119949042D01*
X121552401Y-120787903D01*
%TA.AperFunction,NonConductor*%
D19*
G36*
X121552401Y-120787903D02*
G01*
X121576199Y-120816901D01*
X121691924Y-120911874D01*
X121823953Y-120982446D01*
X121967214Y-121025903D01*
X122078867Y-121036900D01*
X122078875Y-121036900D01*
X122116200Y-121040576D01*
X122153525Y-121036900D01*
X126684869Y-121036900D01*
X126678498Y-121048820D01*
X126642188Y-121168518D01*
X126629928Y-121293000D01*
X126629928Y-122893000D01*
X126642188Y-123017482D01*
X126678498Y-123137180D01*
X126737463Y-123247494D01*
X126816815Y-123344185D01*
X126913506Y-123423537D01*
X127023820Y-123482502D01*
X127143518Y-123518812D01*
X127268000Y-123531072D01*
X128868000Y-123531072D01*
X128992482Y-123518812D01*
X129112180Y-123482502D01*
X129222494Y-123423537D01*
X129319185Y-123344185D01*
X129398537Y-123247494D01*
X129457502Y-123137180D01*
X129493812Y-123017482D01*
X129506072Y-122893000D01*
X129506072Y-122787575D01*
X129617576Y-122727974D01*
X129733301Y-122633001D01*
X129757104Y-122603998D01*
X130633402Y-121727700D01*
X134297550Y-121727700D01*
X134253000Y-121951665D01*
X134253000Y-122234335D01*
X134308147Y-122511574D01*
X134416320Y-122772727D01*
X134573363Y-123007759D01*
X134773241Y-123207637D01*
X135008273Y-123364680D01*
X135269426Y-123472853D01*
X135546665Y-123528000D01*
X135829335Y-123528000D01*
X136106574Y-123472853D01*
X136367727Y-123364680D01*
X136602759Y-123207637D01*
X136802637Y-123007759D01*
X136959680Y-122772727D01*
X137067853Y-122511574D01*
X137123000Y-122234335D01*
X137123000Y-121951665D01*
X137078450Y-121727700D01*
X138102599Y-121727700D01*
X138978901Y-122604003D01*
X139002699Y-122633001D01*
X139031697Y-122656799D01*
X139118424Y-122727974D01*
X139229928Y-122787575D01*
X139229928Y-122893000D01*
X139242188Y-123017482D01*
X139278498Y-123137180D01*
X139337463Y-123247494D01*
X139416815Y-123344185D01*
X139513506Y-123423537D01*
X139623820Y-123482502D01*
X139743518Y-123518812D01*
X139868000Y-123531072D01*
X141468000Y-123531072D01*
X141592482Y-123518812D01*
X141712180Y-123482502D01*
X141822494Y-123423537D01*
X141919185Y-123344185D01*
X141998537Y-123247494D01*
X142057502Y-123137180D01*
X142093812Y-123017482D01*
X142106072Y-122893000D01*
X142106072Y-121293000D01*
X142093812Y-121168518D01*
X142057502Y-121048820D01*
X142051131Y-121036900D01*
X145461589Y-121036900D01*
X145505526Y-121080837D01*
X145675044Y-121194105D01*
X145863402Y-121272126D01*
X146063361Y-121311900D01*
X146267239Y-121311900D01*
X146467198Y-121272126D01*
X146655556Y-121194105D01*
X146825074Y-121080837D01*
X146869011Y-121036900D01*
X147314704Y-121036900D01*
X147173363Y-121178241D01*
X147016320Y-121413273D01*
X146908147Y-121674426D01*
X146853000Y-121951665D01*
X146853000Y-122234335D01*
X146908147Y-122511574D01*
X147016320Y-122772727D01*
X147173363Y-123007759D01*
X147373241Y-123207637D01*
X147608273Y-123364680D01*
X147869426Y-123472853D01*
X148146665Y-123528000D01*
X148429335Y-123528000D01*
X148706574Y-123472853D01*
X148967727Y-123364680D01*
X149202759Y-123207637D01*
X149402637Y-123007759D01*
X149559680Y-122772727D01*
X149667853Y-122511574D01*
X149723000Y-122234335D01*
X149723000Y-121951665D01*
X149667853Y-121674426D01*
X149559680Y-121413273D01*
X149402637Y-121178241D01*
X149261296Y-121036900D01*
X154992478Y-121036900D01*
X155029800Y-121040576D01*
X155067122Y-121036900D01*
X155067133Y-121036900D01*
X155178786Y-121025903D01*
X155322047Y-120982446D01*
X155454076Y-120911874D01*
X155569801Y-120816901D01*
X155593604Y-120787897D01*
X156198460Y-120183042D01*
X156276815Y-120278518D01*
X156373506Y-120357870D01*
X156483820Y-120416835D01*
X156603518Y-120453145D01*
X156728000Y-120465405D01*
X159807761Y-120465405D01*
X159807761Y-128032960D01*
X117127760Y-128032960D01*
X117127760Y-125472872D01*
X117233000Y-125472872D01*
X117233000Y-125913128D01*
X117318890Y-126344925D01*
X117487369Y-126751669D01*
X117731962Y-127117729D01*
X118043271Y-127429038D01*
X118409331Y-127673631D01*
X118816075Y-127842110D01*
X119247872Y-127928000D01*
X119688128Y-127928000D01*
X120119925Y-127842110D01*
X120526669Y-127673631D01*
X120892729Y-127429038D01*
X121204038Y-127117729D01*
X121448631Y-126751669D01*
X121617110Y-126344925D01*
X121703000Y-125913128D01*
X121703000Y-125472872D01*
X155233000Y-125472872D01*
X155233000Y-125913128D01*
X155318890Y-126344925D01*
X155487369Y-126751669D01*
X155731962Y-127117729D01*
X156043271Y-127429038D01*
X156409331Y-127673631D01*
X156816075Y-127842110D01*
X157247872Y-127928000D01*
X157688128Y-127928000D01*
X158119925Y-127842110D01*
X158526669Y-127673631D01*
X158892729Y-127429038D01*
X159204038Y-127117729D01*
X159448631Y-126751669D01*
X159617110Y-126344925D01*
X159703000Y-125913128D01*
X159703000Y-125472872D01*
X159617110Y-125041075D01*
X159448631Y-124634331D01*
X159204038Y-124268271D01*
X158892729Y-123956962D01*
X158526669Y-123712369D01*
X158119925Y-123543890D01*
X157688128Y-123458000D01*
X157247872Y-123458000D01*
X156816075Y-123543890D01*
X156409331Y-123712369D01*
X156043271Y-123956962D01*
X155731962Y-124268271D01*
X155487369Y-124634331D01*
X155318890Y-125041075D01*
X155233000Y-125472872D01*
X121703000Y-125472872D01*
X121617110Y-125041075D01*
X121448631Y-124634331D01*
X121204038Y-124268271D01*
X120892729Y-123956962D01*
X120526669Y-123712369D01*
X120119925Y-123543890D01*
X119688128Y-123458000D01*
X119247872Y-123458000D01*
X118816075Y-123543890D01*
X118409331Y-123712369D01*
X118043271Y-123956962D01*
X117731962Y-124268271D01*
X117487369Y-124634331D01*
X117318890Y-125041075D01*
X117233000Y-125472872D01*
X117127760Y-125472872D01*
X117127760Y-120231405D01*
X120184000Y-120231405D01*
X120308482Y-120219145D01*
X120428180Y-120182835D01*
X120538494Y-120123870D01*
X120635185Y-120044518D01*
X120713540Y-119949042D01*
X121552401Y-120787903D01*
G37*
%TD.AperFunction*%
D18*
X126781898Y-119516900D02*
X122431002Y-119516900D01*
X121073104Y-118159003D01*
X121049301Y-118129999D01*
X120933576Y-118035026D01*
X120822072Y-117975425D01*
X120822072Y-117746667D01*
X120809812Y-117622185D01*
X120773502Y-117502487D01*
X120714537Y-117392173D01*
X120635185Y-117295482D01*
X120604744Y-117270500D01*
X120635185Y-117245518D01*
X120714537Y-117148827D01*
X120773502Y-117038513D01*
X120809812Y-116918815D01*
X120822072Y-116794333D01*
X120822072Y-116631000D01*
X123895999Y-116631000D01*
X126781898Y-119516900D01*
%TA.AperFunction,NonConductor*%
D19*
G36*
X126781898Y-119516900D02*
G01*
X122431002Y-119516900D01*
X121073104Y-118159003D01*
X121049301Y-118129999D01*
X120933576Y-118035026D01*
X120822072Y-117975425D01*
X120822072Y-117746667D01*
X120809812Y-117622185D01*
X120773502Y-117502487D01*
X120714537Y-117392173D01*
X120635185Y-117295482D01*
X120604744Y-117270500D01*
X120635185Y-117245518D01*
X120714537Y-117148827D01*
X120773502Y-117038513D01*
X120809812Y-116918815D01*
X120822072Y-116794333D01*
X120822072Y-116631000D01*
X123895999Y-116631000D01*
X126781898Y-119516900D01*
G37*
%TD.AperFunction*%
D18*
X156089928Y-117287333D02*
X156102188Y-117411815D01*
X156138498Y-117531513D01*
X156193279Y-117634000D01*
X156138498Y-117736487D01*
X156102188Y-117856185D01*
X156089928Y-117980667D01*
X156089928Y-118209425D01*
X155978424Y-118269026D01*
X155862699Y-118363999D01*
X155838901Y-118392997D01*
X154714999Y-119516900D01*
X150106601Y-119516900D01*
X152499502Y-117124000D01*
X156089928Y-117124000D01*
X156089928Y-117287333D01*
%TA.AperFunction,NonConductor*%
D19*
G36*
X156089928Y-117287333D02*
G01*
X156102188Y-117411815D01*
X156138498Y-117531513D01*
X156193279Y-117634000D01*
X156138498Y-117736487D01*
X156102188Y-117856185D01*
X156089928Y-117980667D01*
X156089928Y-118209425D01*
X155978424Y-118269026D01*
X155862699Y-118363999D01*
X155838901Y-118392997D01*
X154714999Y-119516900D01*
X150106601Y-119516900D01*
X152499502Y-117124000D01*
X156089928Y-117124000D01*
X156089928Y-117287333D01*
G37*
%TD.AperFunction*%
D18*
X133188147Y-117974426D02*
X133133000Y-118251665D01*
X133133000Y-118534335D01*
X133188147Y-118811574D01*
X133265243Y-118997700D01*
X130870757Y-118997700D01*
X130947853Y-118811574D01*
X131003000Y-118534335D01*
X131003000Y-118251665D01*
X130947853Y-117974426D01*
X130854934Y-117750100D01*
X133281066Y-117750100D01*
X133188147Y-117974426D01*
%TA.AperFunction,NonConductor*%
D19*
G36*
X133188147Y-117974426D02*
G01*
X133133000Y-118251665D01*
X133133000Y-118534335D01*
X133188147Y-118811574D01*
X133265243Y-118997700D01*
X130870757Y-118997700D01*
X130947853Y-118811574D01*
X131003000Y-118534335D01*
X131003000Y-118251665D01*
X130947853Y-117974426D01*
X130854934Y-117750100D01*
X133281066Y-117750100D01*
X133188147Y-117974426D01*
G37*
%TD.AperFunction*%
D18*
X120883900Y-114550402D02*
X120907699Y-114579401D01*
X120936697Y-114603199D01*
X121023423Y-114674374D01*
X121128569Y-114730576D01*
X121155453Y-114744946D01*
X121298714Y-114788403D01*
X121410367Y-114799400D01*
X121410377Y-114799400D01*
X121447699Y-114803076D01*
X121485022Y-114799400D01*
X125664206Y-114799400D01*
X125619000Y-115026665D01*
X125619000Y-115309335D01*
X125674147Y-115586574D01*
X125782320Y-115847727D01*
X125939363Y-116082759D01*
X126139241Y-116282637D01*
X126374273Y-116439680D01*
X126635426Y-116547853D01*
X126912665Y-116603000D01*
X127195335Y-116603000D01*
X127472574Y-116547853D01*
X127733727Y-116439680D01*
X127968759Y-116282637D01*
X128093947Y-116157449D01*
X128842299Y-116905800D01*
X128838351Y-116918815D01*
X128818998Y-116982614D01*
X128815991Y-117013147D01*
X128804324Y-117131600D01*
X128808001Y-117168932D01*
X128808001Y-117174956D01*
X128653241Y-117278363D01*
X128453363Y-117478241D01*
X128296320Y-117713273D01*
X128188147Y-117974426D01*
X128133000Y-118251665D01*
X128133000Y-118534335D01*
X128178704Y-118764102D01*
X124774604Y-115360003D01*
X124750801Y-115330999D01*
X124635076Y-115236026D01*
X124503047Y-115165454D01*
X124359786Y-115121997D01*
X124248133Y-115111000D01*
X124248122Y-115111000D01*
X124210800Y-115107324D01*
X124173478Y-115111000D01*
X120822072Y-115111000D01*
X120822072Y-114947667D01*
X120809812Y-114823185D01*
X120773502Y-114703487D01*
X120714537Y-114593173D01*
X120635185Y-114496482D01*
X120622413Y-114486000D01*
X120635185Y-114475518D01*
X120713540Y-114380042D01*
X120883900Y-114550402D01*
%TA.AperFunction,NonConductor*%
D19*
G36*
X120883900Y-114550402D02*
G01*
X120907699Y-114579401D01*
X120936697Y-114603199D01*
X121023423Y-114674374D01*
X121128569Y-114730576D01*
X121155453Y-114744946D01*
X121298714Y-114788403D01*
X121410367Y-114799400D01*
X121410377Y-114799400D01*
X121447699Y-114803076D01*
X121485022Y-114799400D01*
X125664206Y-114799400D01*
X125619000Y-115026665D01*
X125619000Y-115309335D01*
X125674147Y-115586574D01*
X125782320Y-115847727D01*
X125939363Y-116082759D01*
X126139241Y-116282637D01*
X126374273Y-116439680D01*
X126635426Y-116547853D01*
X126912665Y-116603000D01*
X127195335Y-116603000D01*
X127472574Y-116547853D01*
X127733727Y-116439680D01*
X127968759Y-116282637D01*
X128093947Y-116157449D01*
X128842299Y-116905800D01*
X128838351Y-116918815D01*
X128818998Y-116982614D01*
X128815991Y-117013147D01*
X128804324Y-117131600D01*
X128808001Y-117168932D01*
X128808001Y-117174956D01*
X128653241Y-117278363D01*
X128453363Y-117478241D01*
X128296320Y-117713273D01*
X128188147Y-117974426D01*
X128133000Y-118251665D01*
X128133000Y-118534335D01*
X128178704Y-118764102D01*
X124774604Y-115360003D01*
X124750801Y-115330999D01*
X124635076Y-115236026D01*
X124503047Y-115165454D01*
X124359786Y-115121997D01*
X124248133Y-115111000D01*
X124248122Y-115111000D01*
X124210800Y-115107324D01*
X124173478Y-115111000D01*
X120822072Y-115111000D01*
X120822072Y-114947667D01*
X120809812Y-114823185D01*
X120773502Y-114703487D01*
X120714537Y-114593173D01*
X120635185Y-114496482D01*
X120622413Y-114486000D01*
X120635185Y-114475518D01*
X120713540Y-114380042D01*
X120883900Y-114550402D01*
G37*
%TD.AperFunction*%
D18*
X148782299Y-118691600D02*
X148515953Y-118691600D01*
X149921820Y-117285733D01*
X149986574Y-117272853D01*
X150247727Y-117164680D01*
X150433041Y-117040857D01*
X148782299Y-118691600D01*
%TA.AperFunction,NonConductor*%
D19*
G36*
X148782299Y-118691600D02*
G01*
X148515953Y-118691600D01*
X149921820Y-117285733D01*
X149986574Y-117272853D01*
X150247727Y-117164680D01*
X150433041Y-117040857D01*
X148782299Y-118691600D01*
G37*
%TD.AperFunction*%
D18*
X148296320Y-115213273D02*
X148188147Y-115474426D01*
X148175267Y-115539180D01*
X146898147Y-116816300D01*
X145674096Y-116816300D01*
X145682637Y-116807759D01*
X145839680Y-116572727D01*
X145947853Y-116311574D01*
X146003000Y-116034335D01*
X146003000Y-115751665D01*
X145947853Y-115474426D01*
X145839680Y-115213273D01*
X145741476Y-115066300D01*
X148394524Y-115066300D01*
X148296320Y-115213273D01*
%TA.AperFunction,NonConductor*%
D19*
G36*
X148296320Y-115213273D02*
G01*
X148188147Y-115474426D01*
X148175267Y-115539180D01*
X146898147Y-116816300D01*
X145674096Y-116816300D01*
X145682637Y-116807759D01*
X145839680Y-116572727D01*
X145947853Y-116311574D01*
X146003000Y-116034335D01*
X146003000Y-115751665D01*
X145947853Y-115474426D01*
X145839680Y-115213273D01*
X145741476Y-115066300D01*
X148394524Y-115066300D01*
X148296320Y-115213273D01*
G37*
%TD.AperFunction*%
D18*
X156276815Y-114968518D02*
X156289587Y-114979000D01*
X156276815Y-114989482D01*
X156197463Y-115086173D01*
X156138498Y-115196487D01*
X156102188Y-115316185D01*
X156089928Y-115440667D01*
X156089928Y-115604000D01*
X152222025Y-115604000D01*
X152184700Y-115600324D01*
X152147375Y-115604000D01*
X152147367Y-115604000D01*
X152035714Y-115614997D01*
X151892453Y-115658454D01*
X151760424Y-115729026D01*
X151644699Y-115823999D01*
X151620901Y-115852997D01*
X150715858Y-116758041D01*
X150839680Y-116572727D01*
X150947853Y-116311574D01*
X151003000Y-116034335D01*
X151003000Y-115751665D01*
X150947853Y-115474426D01*
X150839680Y-115213273D01*
X150741476Y-115066300D01*
X155653078Y-115066300D01*
X155690400Y-115069976D01*
X155727722Y-115066300D01*
X155727733Y-115066300D01*
X155839386Y-115055303D01*
X155982647Y-115011846D01*
X156114676Y-114941274D01*
X156198201Y-114872727D01*
X156276815Y-114968518D01*
%TA.AperFunction,NonConductor*%
D19*
G36*
X156276815Y-114968518D02*
G01*
X156289587Y-114979000D01*
X156276815Y-114989482D01*
X156197463Y-115086173D01*
X156138498Y-115196487D01*
X156102188Y-115316185D01*
X156089928Y-115440667D01*
X156089928Y-115604000D01*
X152222025Y-115604000D01*
X152184700Y-115600324D01*
X152147375Y-115604000D01*
X152147367Y-115604000D01*
X152035714Y-115614997D01*
X151892453Y-115658454D01*
X151760424Y-115729026D01*
X151644699Y-115823999D01*
X151620901Y-115852997D01*
X150715858Y-116758041D01*
X150839680Y-116572727D01*
X150947853Y-116311574D01*
X151003000Y-116034335D01*
X151003000Y-115751665D01*
X150947853Y-115474426D01*
X150839680Y-115213273D01*
X150741476Y-115066300D01*
X155653078Y-115066300D01*
X155690400Y-115069976D01*
X155727722Y-115066300D01*
X155727733Y-115066300D01*
X155839386Y-115055303D01*
X155982647Y-115011846D01*
X156114676Y-114941274D01*
X156198201Y-114872727D01*
X156276815Y-114968518D01*
G37*
%TD.AperFunction*%
D18*
X143296320Y-115213273D02*
X143188147Y-115474426D01*
X143163012Y-115600786D01*
X142533699Y-116230100D01*
X140579201Y-116230100D01*
X141468002Y-115341300D01*
X141530139Y-115341300D01*
X141730098Y-115301526D01*
X141918456Y-115223505D01*
X142087974Y-115110237D01*
X142131911Y-115066300D01*
X143394524Y-115066300D01*
X143296320Y-115213273D01*
%TA.AperFunction,NonConductor*%
D19*
G36*
X143296320Y-115213273D02*
G01*
X143188147Y-115474426D01*
X143163012Y-115600786D01*
X142533699Y-116230100D01*
X140579201Y-116230100D01*
X141468002Y-115341300D01*
X141530139Y-115341300D01*
X141730098Y-115301526D01*
X141918456Y-115223505D01*
X142087974Y-115110237D01*
X142131911Y-115066300D01*
X143394524Y-115066300D01*
X143296320Y-115213273D01*
G37*
%TD.AperFunction*%
D18*
X138934454Y-109545846D02*
X139005026Y-109677876D01*
X139043081Y-109724246D01*
X139099999Y-109793601D01*
X139129003Y-109817404D01*
X141051601Y-111740003D01*
X141022363Y-111769241D01*
X140865320Y-112004273D01*
X140757147Y-112265426D01*
X140702000Y-112542665D01*
X140702000Y-112825335D01*
X140757147Y-113102574D01*
X140865320Y-113363727D01*
X140899454Y-113414813D01*
X140768426Y-113502363D01*
X140624263Y-113646526D01*
X140510995Y-113816044D01*
X140432974Y-114004402D01*
X140393200Y-114204361D01*
X140393200Y-114266498D01*
X138908799Y-115750900D01*
X136112072Y-115750900D01*
X136112072Y-114368000D01*
X136099812Y-114243518D01*
X136063502Y-114123820D01*
X136004537Y-114013506D01*
X135925185Y-113916815D01*
X135828494Y-113837463D01*
X135718180Y-113778498D01*
X135598482Y-113742188D01*
X135590039Y-113741357D01*
X135788637Y-113542759D01*
X135945680Y-113307727D01*
X136053853Y-113046574D01*
X136109000Y-112769335D01*
X136109000Y-112486665D01*
X136053853Y-112209426D01*
X135945680Y-111948273D01*
X135788637Y-111713241D01*
X135588759Y-111513363D01*
X135356241Y-111358000D01*
X135588759Y-111202637D01*
X135788637Y-111002759D01*
X135945680Y-110767727D01*
X136053853Y-110506574D01*
X136109000Y-110229335D01*
X136109000Y-109946665D01*
X136053853Y-109669426D01*
X135980734Y-109492900D01*
X138918393Y-109492900D01*
X138934454Y-109545846D01*
%TA.AperFunction,NonConductor*%
D19*
G36*
X138934454Y-109545846D02*
G01*
X139005026Y-109677876D01*
X139043081Y-109724246D01*
X139099999Y-109793601D01*
X139129003Y-109817404D01*
X141051601Y-111740003D01*
X141022363Y-111769241D01*
X140865320Y-112004273D01*
X140757147Y-112265426D01*
X140702000Y-112542665D01*
X140702000Y-112825335D01*
X140757147Y-113102574D01*
X140865320Y-113363727D01*
X140899454Y-113414813D01*
X140768426Y-113502363D01*
X140624263Y-113646526D01*
X140510995Y-113816044D01*
X140432974Y-114004402D01*
X140393200Y-114204361D01*
X140393200Y-114266498D01*
X138908799Y-115750900D01*
X136112072Y-115750900D01*
X136112072Y-114368000D01*
X136099812Y-114243518D01*
X136063502Y-114123820D01*
X136004537Y-114013506D01*
X135925185Y-113916815D01*
X135828494Y-113837463D01*
X135718180Y-113778498D01*
X135598482Y-113742188D01*
X135590039Y-113741357D01*
X135788637Y-113542759D01*
X135945680Y-113307727D01*
X136053853Y-113046574D01*
X136109000Y-112769335D01*
X136109000Y-112486665D01*
X136053853Y-112209426D01*
X135945680Y-111948273D01*
X135788637Y-111713241D01*
X135588759Y-111513363D01*
X135356241Y-111358000D01*
X135588759Y-111202637D01*
X135788637Y-111002759D01*
X135945680Y-110767727D01*
X136053853Y-110506574D01*
X136109000Y-110229335D01*
X136109000Y-109946665D01*
X136053853Y-109669426D01*
X135980734Y-109492900D01*
X138918393Y-109492900D01*
X138934454Y-109545846D01*
G37*
%TD.AperFunction*%
D18*
X131638700Y-113980753D02*
X131638700Y-115107335D01*
X131632725Y-115168000D01*
X131656570Y-115410102D01*
X131727189Y-115642901D01*
X131766788Y-115716987D01*
X129858201Y-113808400D01*
X131466347Y-113808400D01*
X131638700Y-113980753D01*
%TA.AperFunction,NonConductor*%
D19*
G36*
X131638700Y-113980753D02*
G01*
X131638700Y-115107335D01*
X131632725Y-115168000D01*
X131656570Y-115410102D01*
X131727189Y-115642901D01*
X131766788Y-115716987D01*
X129858201Y-113808400D01*
X131466347Y-113808400D01*
X131638700Y-113980753D01*
G37*
%TD.AperFunction*%
D18*
X145328198Y-113546300D02*
X143286689Y-113546300D01*
X143408680Y-113363727D01*
X143516853Y-113102574D01*
X143572000Y-112825335D01*
X143572000Y-112542665D01*
X143516853Y-112265426D01*
X143478983Y-112174000D01*
X143955899Y-112174000D01*
X145328198Y-113546300D01*
%TA.AperFunction,NonConductor*%
D19*
G36*
X145328198Y-113546300D02*
G01*
X143286689Y-113546300D01*
X143408680Y-113363727D01*
X143516853Y-113102574D01*
X143572000Y-112825335D01*
X143572000Y-112542665D01*
X143516853Y-112265426D01*
X143478983Y-112174000D01*
X143955899Y-112174000D01*
X145328198Y-113546300D01*
G37*
%TD.AperFunction*%
D18*
X156089928Y-111747333D02*
X156102188Y-111871815D01*
X156138498Y-111991513D01*
X156197463Y-112101827D01*
X156276815Y-112198518D01*
X156289587Y-112209000D01*
X156276815Y-112219482D01*
X156197463Y-112316173D01*
X156138498Y-112426487D01*
X156102188Y-112546185D01*
X156089928Y-112670667D01*
X156089928Y-112899425D01*
X155978424Y-112959026D01*
X155862699Y-113053999D01*
X155838901Y-113082998D01*
X155375599Y-113546300D01*
X153034201Y-113546300D01*
X154996502Y-111584000D01*
X156089928Y-111584000D01*
X156089928Y-111747333D01*
%TA.AperFunction,NonConductor*%
D19*
G36*
X156089928Y-111747333D02*
G01*
X156102188Y-111871815D01*
X156138498Y-111991513D01*
X156197463Y-112101827D01*
X156276815Y-112198518D01*
X156289587Y-112209000D01*
X156276815Y-112219482D01*
X156197463Y-112316173D01*
X156138498Y-112426487D01*
X156102188Y-112546185D01*
X156089928Y-112670667D01*
X156089928Y-112899425D01*
X155978424Y-112959026D01*
X155862699Y-113053999D01*
X155838901Y-113082998D01*
X155375599Y-113546300D01*
X153034201Y-113546300D01*
X154996502Y-111584000D01*
X156089928Y-111584000D01*
X156089928Y-111747333D01*
G37*
%TD.AperFunction*%
D18*
X125674147Y-109669426D02*
X125619000Y-109946665D01*
X125619000Y-110229335D01*
X125674147Y-110506574D01*
X125782320Y-110767727D01*
X125939363Y-111002759D01*
X126139241Y-111202637D01*
X126371759Y-111358000D01*
X126139241Y-111513363D01*
X125939363Y-111713241D01*
X125782320Y-111948273D01*
X125674147Y-112209426D01*
X125619000Y-112486665D01*
X125619000Y-112769335D01*
X125674147Y-113046574D01*
X125770587Y-113279400D01*
X121762502Y-113279400D01*
X121073104Y-112590002D01*
X121049301Y-112560999D01*
X120933576Y-112466026D01*
X120822072Y-112406425D01*
X120822072Y-112177667D01*
X120809812Y-112053185D01*
X120773502Y-111933487D01*
X120714537Y-111823173D01*
X120635185Y-111726482D01*
X120622413Y-111716000D01*
X120635185Y-111705518D01*
X120714537Y-111608827D01*
X120773502Y-111498513D01*
X120809812Y-111378815D01*
X120822072Y-111254333D01*
X120822072Y-111025575D01*
X120933576Y-110965974D01*
X121049301Y-110871001D01*
X121073104Y-110841997D01*
X122422202Y-109492900D01*
X125747266Y-109492900D01*
X125674147Y-109669426D01*
%TA.AperFunction,NonConductor*%
D19*
G36*
X125674147Y-109669426D02*
G01*
X125619000Y-109946665D01*
X125619000Y-110229335D01*
X125674147Y-110506574D01*
X125782320Y-110767727D01*
X125939363Y-111002759D01*
X126139241Y-111202637D01*
X126371759Y-111358000D01*
X126139241Y-111513363D01*
X125939363Y-111713241D01*
X125782320Y-111948273D01*
X125674147Y-112209426D01*
X125619000Y-112486665D01*
X125619000Y-112769335D01*
X125674147Y-113046574D01*
X125770587Y-113279400D01*
X121762502Y-113279400D01*
X121073104Y-112590002D01*
X121049301Y-112560999D01*
X120933576Y-112466026D01*
X120822072Y-112406425D01*
X120822072Y-112177667D01*
X120809812Y-112053185D01*
X120773502Y-111933487D01*
X120714537Y-111823173D01*
X120635185Y-111726482D01*
X120622413Y-111716000D01*
X120635185Y-111705518D01*
X120714537Y-111608827D01*
X120773502Y-111498513D01*
X120809812Y-111378815D01*
X120822072Y-111254333D01*
X120822072Y-111025575D01*
X120933576Y-110965974D01*
X121049301Y-110871001D01*
X121073104Y-110841997D01*
X122422202Y-109492900D01*
X125747266Y-109492900D01*
X125674147Y-109669426D01*
G37*
%TD.AperFunction*%
D18*
X147871281Y-112717083D02*
X147882697Y-112832986D01*
X147926154Y-112976247D01*
X147965256Y-113049400D01*
X146980902Y-113049400D01*
X144834504Y-110903003D01*
X144810701Y-110873999D01*
X144694976Y-110779026D01*
X144562947Y-110708454D01*
X144419686Y-110664997D01*
X144308033Y-110654000D01*
X144308022Y-110654000D01*
X144270700Y-110650324D01*
X144233378Y-110654000D01*
X143478983Y-110654000D01*
X143516853Y-110562574D01*
X143572000Y-110285335D01*
X143572000Y-110002665D01*
X143516853Y-109725426D01*
X143408680Y-109464273D01*
X143251637Y-109229241D01*
X143051759Y-109029363D01*
X142819241Y-108874000D01*
X143051759Y-108718637D01*
X143251637Y-108518759D01*
X143408680Y-108283727D01*
X143417246Y-108263047D01*
X147871281Y-112717083D01*
%TA.AperFunction,NonConductor*%
D19*
G36*
X147871281Y-112717083D02*
G01*
X147882697Y-112832986D01*
X147926154Y-112976247D01*
X147965256Y-113049400D01*
X146980902Y-113049400D01*
X144834504Y-110903003D01*
X144810701Y-110873999D01*
X144694976Y-110779026D01*
X144562947Y-110708454D01*
X144419686Y-110664997D01*
X144308033Y-110654000D01*
X144308022Y-110654000D01*
X144270700Y-110650324D01*
X144233378Y-110654000D01*
X143478983Y-110654000D01*
X143516853Y-110562574D01*
X143572000Y-110285335D01*
X143572000Y-110002665D01*
X143516853Y-109725426D01*
X143408680Y-109464273D01*
X143251637Y-109229241D01*
X143051759Y-109029363D01*
X142819241Y-108874000D01*
X143051759Y-108718637D01*
X143251637Y-108518759D01*
X143408680Y-108283727D01*
X143417246Y-108263047D01*
X147871281Y-112717083D01*
G37*
%TD.AperFunction*%
D18*
X131727189Y-109613099D02*
X131656570Y-109845898D01*
X131632725Y-110088000D01*
X131638700Y-110148665D01*
X131638700Y-111166047D01*
X131466347Y-111338400D01*
X128969564Y-111338400D01*
X128908899Y-111332425D01*
X128695298Y-111353463D01*
X128666798Y-111356270D01*
X128545716Y-111393000D01*
X127788623Y-111393000D01*
X127736241Y-111358000D01*
X127968759Y-111202637D01*
X128168637Y-111002759D01*
X128325680Y-110767727D01*
X128433853Y-110506574D01*
X128489000Y-110229335D01*
X128489000Y-109946665D01*
X128433853Y-109669426D01*
X128360734Y-109492900D01*
X131791437Y-109492900D01*
X131727189Y-109613099D01*
%TA.AperFunction,NonConductor*%
D19*
G36*
X131727189Y-109613099D02*
G01*
X131656570Y-109845898D01*
X131632725Y-110088000D01*
X131638700Y-110148665D01*
X131638700Y-111166047D01*
X131466347Y-111338400D01*
X128969564Y-111338400D01*
X128908899Y-111332425D01*
X128695298Y-111353463D01*
X128666798Y-111356270D01*
X128545716Y-111393000D01*
X127788623Y-111393000D01*
X127736241Y-111358000D01*
X127968759Y-111202637D01*
X128168637Y-111002759D01*
X128325680Y-110767727D01*
X128433853Y-110506574D01*
X128489000Y-110229335D01*
X128489000Y-109946665D01*
X128433853Y-109669426D01*
X128360734Y-109492900D01*
X131791437Y-109492900D01*
X131727189Y-109613099D01*
G37*
%TD.AperFunction*%
D18*
X156089928Y-108977333D02*
X156102188Y-109101815D01*
X156138498Y-109221513D01*
X156197463Y-109331827D01*
X156276815Y-109428518D01*
X156289587Y-109439000D01*
X156276815Y-109449482D01*
X156197463Y-109546173D01*
X156138498Y-109656487D01*
X156102188Y-109776185D01*
X156089928Y-109900667D01*
X156089928Y-110064000D01*
X154719022Y-110064000D01*
X154681699Y-110060324D01*
X154644376Y-110064000D01*
X154644367Y-110064000D01*
X154569753Y-110071349D01*
X155827102Y-108814000D01*
X156089928Y-108814000D01*
X156089928Y-108977333D01*
%TA.AperFunction,NonConductor*%
D19*
G36*
X156089928Y-108977333D02*
G01*
X156102188Y-109101815D01*
X156138498Y-109221513D01*
X156197463Y-109331827D01*
X156276815Y-109428518D01*
X156289587Y-109439000D01*
X156276815Y-109449482D01*
X156197463Y-109546173D01*
X156138498Y-109656487D01*
X156102188Y-109776185D01*
X156089928Y-109900667D01*
X156089928Y-110064000D01*
X154719022Y-110064000D01*
X154681699Y-110060324D01*
X154644376Y-110064000D01*
X154644367Y-110064000D01*
X154569753Y-110071349D01*
X155827102Y-108814000D01*
X156089928Y-108814000D01*
X156089928Y-108977333D01*
G37*
%TD.AperFunction*%
D18*
X153519101Y-106962297D02*
X151024052Y-109457347D01*
X150886627Y-109251675D01*
X151393304Y-108744998D01*
X151422301Y-108721201D01*
X151517274Y-108605476D01*
X151587846Y-108473447D01*
X151631303Y-108330186D01*
X151642300Y-108218533D01*
X151642300Y-108218523D01*
X151642499Y-108216502D01*
X153519100Y-106339901D01*
X153519101Y-106962297D01*
%TA.AperFunction,NonConductor*%
D19*
G36*
X153519101Y-106962297D02*
G01*
X151024052Y-109457347D01*
X150886627Y-109251675D01*
X151393304Y-108744998D01*
X151422301Y-108721201D01*
X151517274Y-108605476D01*
X151587846Y-108473447D01*
X151631303Y-108330186D01*
X151642300Y-108218533D01*
X151642300Y-108218523D01*
X151642499Y-108216502D01*
X153519100Y-106339901D01*
X153519101Y-106962297D01*
G37*
%TD.AperFunction*%
D18*
X140757147Y-107185426D02*
X140702000Y-107462665D01*
X140702000Y-107745335D01*
X140757147Y-108022574D01*
X140865320Y-108283727D01*
X141022363Y-108518759D01*
X141222241Y-108718637D01*
X141454759Y-108874000D01*
X141222241Y-109029363D01*
X141022363Y-109229241D01*
X140889414Y-109428213D01*
X140426956Y-108965755D01*
X140443937Y-108948774D01*
X140557205Y-108779256D01*
X140635226Y-108590898D01*
X140675000Y-108390939D01*
X140675000Y-108187061D01*
X140635226Y-107987102D01*
X140557205Y-107798744D01*
X140443937Y-107629226D01*
X140299774Y-107485063D01*
X140130256Y-107371795D01*
X139941898Y-107293774D01*
X139741939Y-107254000D01*
X139538061Y-107254000D01*
X139338102Y-107293774D01*
X139149744Y-107371795D01*
X138980226Y-107485063D01*
X138836063Y-107629226D01*
X138722795Y-107798744D01*
X138650657Y-107972900D01*
X136051233Y-107972900D01*
X136053853Y-107966574D01*
X136109000Y-107689335D01*
X136109000Y-107406665D01*
X136053853Y-107129426D01*
X136053511Y-107128600D01*
X140780685Y-107128600D01*
X140757147Y-107185426D01*
%TA.AperFunction,NonConductor*%
D19*
G36*
X140757147Y-107185426D02*
G01*
X140702000Y-107462665D01*
X140702000Y-107745335D01*
X140757147Y-108022574D01*
X140865320Y-108283727D01*
X141022363Y-108518759D01*
X141222241Y-108718637D01*
X141454759Y-108874000D01*
X141222241Y-109029363D01*
X141022363Y-109229241D01*
X140889414Y-109428213D01*
X140426956Y-108965755D01*
X140443937Y-108948774D01*
X140557205Y-108779256D01*
X140635226Y-108590898D01*
X140675000Y-108390939D01*
X140675000Y-108187061D01*
X140635226Y-107987102D01*
X140557205Y-107798744D01*
X140443937Y-107629226D01*
X140299774Y-107485063D01*
X140130256Y-107371795D01*
X139941898Y-107293774D01*
X139741939Y-107254000D01*
X139538061Y-107254000D01*
X139338102Y-107293774D01*
X139149744Y-107371795D01*
X138980226Y-107485063D01*
X138836063Y-107629226D01*
X138722795Y-107798744D01*
X138650657Y-107972900D01*
X136051233Y-107972900D01*
X136053853Y-107966574D01*
X136109000Y-107689335D01*
X136109000Y-107406665D01*
X136053853Y-107129426D01*
X136053511Y-107128600D01*
X140780685Y-107128600D01*
X140757147Y-107185426D01*
G37*
%TD.AperFunction*%
D18*
X147348400Y-107138303D02*
X147348400Y-107587778D01*
X147344724Y-107625100D01*
X147348400Y-107662422D01*
X147348400Y-107662433D01*
X147359397Y-107774086D01*
X147386844Y-107864567D01*
X147402854Y-107917346D01*
X147473426Y-108049376D01*
X147535325Y-108124799D01*
X147568400Y-108165101D01*
X147597398Y-108188899D01*
X148640511Y-109232013D01*
X148510977Y-109425875D01*
X144715400Y-105630299D01*
X144715400Y-105288722D01*
X144719076Y-105251399D01*
X144715400Y-105214076D01*
X144715400Y-105214067D01*
X144704403Y-105102414D01*
X144660946Y-104959153D01*
X144590374Y-104827124D01*
X144495401Y-104711399D01*
X144466403Y-104687601D01*
X143234599Y-103455797D01*
X143251637Y-103438759D01*
X143408680Y-103203727D01*
X143410187Y-103200089D01*
X147348400Y-107138303D01*
%TA.AperFunction,NonConductor*%
D19*
G36*
X147348400Y-107138303D02*
G01*
X147348400Y-107587778D01*
X147344724Y-107625100D01*
X147348400Y-107662422D01*
X147348400Y-107662433D01*
X147359397Y-107774086D01*
X147386844Y-107864567D01*
X147402854Y-107917346D01*
X147473426Y-108049376D01*
X147535325Y-108124799D01*
X147568400Y-108165101D01*
X147597398Y-108188899D01*
X148640511Y-109232013D01*
X148510977Y-109425875D01*
X144715400Y-105630299D01*
X144715400Y-105288722D01*
X144719076Y-105251399D01*
X144715400Y-105214076D01*
X144715400Y-105214067D01*
X144704403Y-105102414D01*
X144660946Y-104959153D01*
X144590374Y-104827124D01*
X144495401Y-104711399D01*
X144466403Y-104687601D01*
X143234599Y-103455797D01*
X143251637Y-103438759D01*
X143408680Y-103203727D01*
X143410187Y-103200089D01*
X147348400Y-107138303D01*
G37*
%TD.AperFunction*%
D18*
X125674147Y-107129426D02*
X125619000Y-107406665D01*
X125619000Y-107689335D01*
X125674147Y-107966574D01*
X125676767Y-107972900D01*
X122144725Y-107972900D01*
X122107400Y-107969224D01*
X122070075Y-107972900D01*
X122070067Y-107972900D01*
X121958414Y-107983897D01*
X121815153Y-108027354D01*
X121683124Y-108097926D01*
X121567399Y-108192899D01*
X121543601Y-108221897D01*
X120713540Y-109051958D01*
X120635185Y-108956482D01*
X120622413Y-108946000D01*
X120635185Y-108935518D01*
X120714537Y-108838827D01*
X120773502Y-108728513D01*
X120809812Y-108608815D01*
X120822072Y-108484333D01*
X120822072Y-108255575D01*
X120933576Y-108195974D01*
X121049301Y-108101001D01*
X121073104Y-108071997D01*
X122016502Y-107128600D01*
X125674489Y-107128600D01*
X125674147Y-107129426D01*
%TA.AperFunction,NonConductor*%
D19*
G36*
X125674147Y-107129426D02*
G01*
X125619000Y-107406665D01*
X125619000Y-107689335D01*
X125674147Y-107966574D01*
X125676767Y-107972900D01*
X122144725Y-107972900D01*
X122107400Y-107969224D01*
X122070075Y-107972900D01*
X122070067Y-107972900D01*
X121958414Y-107983897D01*
X121815153Y-108027354D01*
X121683124Y-108097926D01*
X121567399Y-108192899D01*
X121543601Y-108221897D01*
X120713540Y-109051958D01*
X120635185Y-108956482D01*
X120622413Y-108946000D01*
X120635185Y-108935518D01*
X120714537Y-108838827D01*
X120773502Y-108728513D01*
X120809812Y-108608815D01*
X120822072Y-108484333D01*
X120822072Y-108255575D01*
X120933576Y-108195974D01*
X121049301Y-108101001D01*
X121073104Y-108071997D01*
X122016502Y-107128600D01*
X125674489Y-107128600D01*
X125674147Y-107129426D01*
G37*
%TD.AperFunction*%
D18*
X133294147Y-107129426D02*
X133239000Y-107406665D01*
X133239000Y-107689335D01*
X133294147Y-107966574D01*
X133296767Y-107972900D01*
X128431233Y-107972900D01*
X128433853Y-107966574D01*
X128489000Y-107689335D01*
X128489000Y-107406665D01*
X128433853Y-107129426D01*
X128433511Y-107128600D01*
X133294489Y-107128600D01*
X133294147Y-107129426D01*
%TA.AperFunction,NonConductor*%
D19*
G36*
X133294147Y-107129426D02*
G01*
X133239000Y-107406665D01*
X133239000Y-107689335D01*
X133294147Y-107966574D01*
X133296767Y-107972900D01*
X128431233Y-107972900D01*
X128433853Y-107966574D01*
X128489000Y-107689335D01*
X128489000Y-107406665D01*
X128433853Y-107129426D01*
X128433511Y-107128600D01*
X133294489Y-107128600D01*
X133294147Y-107129426D01*
G37*
%TD.AperFunction*%
D18*
X156102067Y-106330587D02*
X156102188Y-106331815D01*
X156138498Y-106451513D01*
X156197463Y-106561827D01*
X156276815Y-106658518D01*
X156289587Y-106669000D01*
X156276815Y-106679482D01*
X156197463Y-106776173D01*
X156138498Y-106886487D01*
X156102188Y-107006185D01*
X156089928Y-107130667D01*
X156089928Y-107294000D01*
X155549625Y-107294000D01*
X155512300Y-107290324D01*
X155474975Y-107294000D01*
X155474967Y-107294000D01*
X155363314Y-107304997D01*
X155220053Y-107348454D01*
X155088024Y-107419026D01*
X155011093Y-107482162D01*
X155028103Y-107426086D01*
X155039100Y-107314433D01*
X155039100Y-107314424D01*
X155042776Y-107277101D01*
X155039100Y-107239778D01*
X155039100Y-106328500D01*
X156080878Y-106328500D01*
X156102067Y-106330587D01*
%TA.AperFunction,NonConductor*%
D19*
G36*
X156102067Y-106330587D02*
G01*
X156102188Y-106331815D01*
X156138498Y-106451513D01*
X156197463Y-106561827D01*
X156276815Y-106658518D01*
X156289587Y-106669000D01*
X156276815Y-106679482D01*
X156197463Y-106776173D01*
X156138498Y-106886487D01*
X156102188Y-107006185D01*
X156089928Y-107130667D01*
X156089928Y-107294000D01*
X155549625Y-107294000D01*
X155512300Y-107290324D01*
X155474975Y-107294000D01*
X155474967Y-107294000D01*
X155363314Y-107304997D01*
X155220053Y-107348454D01*
X155088024Y-107419026D01*
X155011093Y-107482162D01*
X155028103Y-107426086D01*
X155039100Y-107314433D01*
X155039100Y-107314424D01*
X155042776Y-107277101D01*
X155039100Y-107239778D01*
X155039100Y-106328500D01*
X156080878Y-106328500D01*
X156102067Y-106330587D01*
G37*
%TD.AperFunction*%
D18*
X155838901Y-100255003D02*
X155862699Y-100284001D01*
X155978424Y-100378974D01*
X156089928Y-100438575D01*
X156089928Y-100667333D01*
X156102188Y-100791815D01*
X156138498Y-100911513D01*
X156197463Y-101021827D01*
X156276815Y-101118518D01*
X156289587Y-101129000D01*
X156276815Y-101139482D01*
X156197463Y-101236173D01*
X156138498Y-101346487D01*
X156102188Y-101466185D01*
X156089928Y-101590667D01*
X156089928Y-101774487D01*
X155977953Y-101808454D01*
X155845924Y-101879026D01*
X155730199Y-101973999D01*
X155706401Y-102002997D01*
X150931126Y-106778273D01*
X150871637Y-106689241D01*
X150671759Y-106489363D01*
X150439241Y-106334000D01*
X150671759Y-106178637D01*
X150871637Y-105978759D01*
X151028680Y-105743727D01*
X151136853Y-105482574D01*
X151192000Y-105205335D01*
X151192000Y-104922665D01*
X151136853Y-104645426D01*
X151028680Y-104384273D01*
X150871637Y-104149241D01*
X150671759Y-103949363D01*
X150439241Y-103794000D01*
X150671759Y-103638637D01*
X150871637Y-103438759D01*
X151028680Y-103203727D01*
X151136853Y-102942574D01*
X151192000Y-102665335D01*
X151192000Y-102382665D01*
X151136853Y-102105426D01*
X151028680Y-101844273D01*
X150871637Y-101609241D01*
X150671759Y-101409363D01*
X150439241Y-101254000D01*
X150671759Y-101098637D01*
X150871637Y-100898759D01*
X151028680Y-100663727D01*
X151136853Y-100402574D01*
X151192000Y-100125335D01*
X151192000Y-99842665D01*
X151136853Y-99565426D01*
X151133156Y-99556500D01*
X155140399Y-99556500D01*
X155838901Y-100255003D01*
%TA.AperFunction,NonConductor*%
D19*
G36*
X155838901Y-100255003D02*
G01*
X155862699Y-100284001D01*
X155978424Y-100378974D01*
X156089928Y-100438575D01*
X156089928Y-100667333D01*
X156102188Y-100791815D01*
X156138498Y-100911513D01*
X156197463Y-101021827D01*
X156276815Y-101118518D01*
X156289587Y-101129000D01*
X156276815Y-101139482D01*
X156197463Y-101236173D01*
X156138498Y-101346487D01*
X156102188Y-101466185D01*
X156089928Y-101590667D01*
X156089928Y-101774487D01*
X155977953Y-101808454D01*
X155845924Y-101879026D01*
X155730199Y-101973999D01*
X155706401Y-102002997D01*
X150931126Y-106778273D01*
X150871637Y-106689241D01*
X150671759Y-106489363D01*
X150439241Y-106334000D01*
X150671759Y-106178637D01*
X150871637Y-105978759D01*
X151028680Y-105743727D01*
X151136853Y-105482574D01*
X151192000Y-105205335D01*
X151192000Y-104922665D01*
X151136853Y-104645426D01*
X151028680Y-104384273D01*
X150871637Y-104149241D01*
X150671759Y-103949363D01*
X150439241Y-103794000D01*
X150671759Y-103638637D01*
X150871637Y-103438759D01*
X151028680Y-103203727D01*
X151136853Y-102942574D01*
X151192000Y-102665335D01*
X151192000Y-102382665D01*
X151136853Y-102105426D01*
X151028680Y-101844273D01*
X150871637Y-101609241D01*
X150671759Y-101409363D01*
X150439241Y-101254000D01*
X150671759Y-101098637D01*
X150871637Y-100898759D01*
X151028680Y-100663727D01*
X151136853Y-100402574D01*
X151192000Y-100125335D01*
X151192000Y-99842665D01*
X151136853Y-99565426D01*
X151133156Y-99556500D01*
X155140399Y-99556500D01*
X155838901Y-100255003D01*
G37*
%TD.AperFunction*%
D18*
X148377147Y-99565426D02*
X148322000Y-99842665D01*
X148322000Y-100125335D01*
X148377147Y-100402574D01*
X148485320Y-100663727D01*
X148642363Y-100898759D01*
X148842241Y-101098637D01*
X149074759Y-101254000D01*
X148842241Y-101409363D01*
X148642363Y-101609241D01*
X148485320Y-101844273D01*
X148377147Y-102105426D01*
X148322000Y-102382665D01*
X148322000Y-102665335D01*
X148377147Y-102942574D01*
X148485320Y-103203727D01*
X148642363Y-103438759D01*
X148842241Y-103638637D01*
X149074759Y-103794000D01*
X148842241Y-103949363D01*
X148642363Y-104149241D01*
X148485320Y-104384273D01*
X148377147Y-104645426D01*
X148322000Y-104922665D01*
X148322000Y-105205335D01*
X148377147Y-105482574D01*
X148485320Y-105743727D01*
X148642363Y-105978759D01*
X148842241Y-106178637D01*
X149074759Y-106334000D01*
X148842241Y-106489363D01*
X148809210Y-106522394D01*
X148743374Y-106399224D01*
X148730211Y-106383185D01*
X148672199Y-106312496D01*
X148672195Y-106312492D01*
X148648401Y-106283499D01*
X148619409Y-106259706D01*
X143254370Y-100894669D01*
X143408680Y-100663727D01*
X143516853Y-100402574D01*
X143572000Y-100125335D01*
X143572000Y-99842665D01*
X143516853Y-99565426D01*
X143513156Y-99556500D01*
X148380844Y-99556500D01*
X148377147Y-99565426D01*
%TA.AperFunction,NonConductor*%
D19*
G36*
X148377147Y-99565426D02*
G01*
X148322000Y-99842665D01*
X148322000Y-100125335D01*
X148377147Y-100402574D01*
X148485320Y-100663727D01*
X148642363Y-100898759D01*
X148842241Y-101098637D01*
X149074759Y-101254000D01*
X148842241Y-101409363D01*
X148642363Y-101609241D01*
X148485320Y-101844273D01*
X148377147Y-102105426D01*
X148322000Y-102382665D01*
X148322000Y-102665335D01*
X148377147Y-102942574D01*
X148485320Y-103203727D01*
X148642363Y-103438759D01*
X148842241Y-103638637D01*
X149074759Y-103794000D01*
X148842241Y-103949363D01*
X148642363Y-104149241D01*
X148485320Y-104384273D01*
X148377147Y-104645426D01*
X148322000Y-104922665D01*
X148322000Y-105205335D01*
X148377147Y-105482574D01*
X148485320Y-105743727D01*
X148642363Y-105978759D01*
X148842241Y-106178637D01*
X149074759Y-106334000D01*
X148842241Y-106489363D01*
X148809210Y-106522394D01*
X148743374Y-106399224D01*
X148730211Y-106383185D01*
X148672199Y-106312496D01*
X148672195Y-106312492D01*
X148648401Y-106283499D01*
X148619409Y-106259706D01*
X143254370Y-100894669D01*
X143408680Y-100663727D01*
X143516853Y-100402574D01*
X143572000Y-100125335D01*
X143572000Y-99842665D01*
X143516853Y-99565426D01*
X143513156Y-99556500D01*
X148380844Y-99556500D01*
X148377147Y-99565426D01*
G37*
%TD.AperFunction*%
D18*
X125619000Y-104866665D02*
X125619000Y-105149335D01*
X125674147Y-105426574D01*
X125749545Y-105608600D01*
X121739022Y-105608600D01*
X121701699Y-105604924D01*
X121664376Y-105608600D01*
X121664367Y-105608600D01*
X121552714Y-105619597D01*
X121409453Y-105663054D01*
X121277424Y-105733626D01*
X121161699Y-105828599D01*
X121137901Y-105857597D01*
X120713540Y-106281958D01*
X120635185Y-106186482D01*
X120622413Y-106176000D01*
X120635185Y-106165518D01*
X120714537Y-106068827D01*
X120773502Y-105958513D01*
X120809812Y-105838815D01*
X120822072Y-105714333D01*
X120822072Y-105485575D01*
X120933576Y-105425974D01*
X121049301Y-105331001D01*
X121073103Y-105301998D01*
X121745502Y-104629600D01*
X125666156Y-104629600D01*
X125619000Y-104866665D01*
%TA.AperFunction,NonConductor*%
D19*
G36*
X125619000Y-104866665D02*
G01*
X125619000Y-105149335D01*
X125674147Y-105426574D01*
X125749545Y-105608600D01*
X121739022Y-105608600D01*
X121701699Y-105604924D01*
X121664376Y-105608600D01*
X121664367Y-105608600D01*
X121552714Y-105619597D01*
X121409453Y-105663054D01*
X121277424Y-105733626D01*
X121161699Y-105828599D01*
X121137901Y-105857597D01*
X120713540Y-106281958D01*
X120635185Y-106186482D01*
X120622413Y-106176000D01*
X120635185Y-106165518D01*
X120714537Y-106068827D01*
X120773502Y-105958513D01*
X120809812Y-105838815D01*
X120822072Y-105714333D01*
X120822072Y-105485575D01*
X120933576Y-105425974D01*
X121049301Y-105331001D01*
X121073103Y-105301998D01*
X121745502Y-104629600D01*
X125666156Y-104629600D01*
X125619000Y-104866665D01*
G37*
%TD.AperFunction*%
D18*
X140757147Y-104645426D02*
X140702000Y-104922665D01*
X140702000Y-105205335D01*
X140757147Y-105482574D01*
X140809349Y-105608600D01*
X135978455Y-105608600D01*
X136053853Y-105426574D01*
X136109000Y-105149335D01*
X136109000Y-104866665D01*
X136061844Y-104629600D01*
X140763702Y-104629600D01*
X140757147Y-104645426D01*
%TA.AperFunction,NonConductor*%
D19*
G36*
X140757147Y-104645426D02*
G01*
X140702000Y-104922665D01*
X140702000Y-105205335D01*
X140757147Y-105482574D01*
X140809349Y-105608600D01*
X135978455Y-105608600D01*
X136053853Y-105426574D01*
X136109000Y-105149335D01*
X136109000Y-104866665D01*
X136061844Y-104629600D01*
X140763702Y-104629600D01*
X140757147Y-104645426D01*
G37*
%TD.AperFunction*%
D18*
X133239000Y-104866665D02*
X133239000Y-105149335D01*
X133294147Y-105426574D01*
X133369545Y-105608600D01*
X128358455Y-105608600D01*
X128433853Y-105426574D01*
X128489000Y-105149335D01*
X128489000Y-104866665D01*
X128441844Y-104629600D01*
X133286156Y-104629600D01*
X133239000Y-104866665D01*
%TA.AperFunction,NonConductor*%
D19*
G36*
X133239000Y-104866665D02*
G01*
X133239000Y-105149335D01*
X133294147Y-105426574D01*
X133369545Y-105608600D01*
X128358455Y-105608600D01*
X128433853Y-105426574D01*
X128489000Y-105149335D01*
X128489000Y-104866665D01*
X128441844Y-104629600D01*
X133286156Y-104629600D01*
X133239000Y-104866665D01*
G37*
%TD.AperFunction*%
D18*
X156197463Y-103791827D02*
X156276815Y-103888518D01*
X156289587Y-103899000D01*
X156276815Y-103909482D01*
X156197463Y-104006173D01*
X156138498Y-104116487D01*
X156102188Y-104236185D01*
X156089928Y-104360667D01*
X156089928Y-104589425D01*
X155978424Y-104649026D01*
X155862699Y-104743999D01*
X155838896Y-104773003D01*
X155803399Y-104808500D01*
X155050502Y-104808500D01*
X156152080Y-103706922D01*
X156197463Y-103791827D01*
%TA.AperFunction,NonConductor*%
D19*
G36*
X156197463Y-103791827D02*
G01*
X156276815Y-103888518D01*
X156289587Y-103899000D01*
X156276815Y-103909482D01*
X156197463Y-104006173D01*
X156138498Y-104116487D01*
X156102188Y-104236185D01*
X156089928Y-104360667D01*
X156089928Y-104589425D01*
X155978424Y-104649026D01*
X155862699Y-104743999D01*
X155838896Y-104773003D01*
X155803399Y-104808500D01*
X155050502Y-104808500D01*
X156152080Y-103706922D01*
X156197463Y-103791827D01*
G37*
%TD.AperFunction*%
D18*
X125674147Y-102049426D02*
X125619000Y-102326665D01*
X125619000Y-102609335D01*
X125674147Y-102886574D01*
X125766527Y-103109600D01*
X121468022Y-103109600D01*
X121430699Y-103105924D01*
X121393376Y-103109600D01*
X121393367Y-103109600D01*
X121281714Y-103120597D01*
X121138453Y-103164054D01*
X121006424Y-103234626D01*
X120990385Y-103247789D01*
X120919696Y-103305801D01*
X120919692Y-103305805D01*
X120890699Y-103329599D01*
X120866905Y-103358592D01*
X120713540Y-103511958D01*
X120635185Y-103416482D01*
X120622413Y-103406000D01*
X120635185Y-103395518D01*
X120714537Y-103298827D01*
X120773502Y-103188513D01*
X120809812Y-103068815D01*
X120822072Y-102944333D01*
X120822072Y-102715575D01*
X120933576Y-102655974D01*
X121049301Y-102561001D01*
X121073103Y-102531998D01*
X121591102Y-102014000D01*
X125688821Y-102014000D01*
X125674147Y-102049426D01*
%TA.AperFunction,NonConductor*%
D19*
G36*
X125674147Y-102049426D02*
G01*
X125619000Y-102326665D01*
X125619000Y-102609335D01*
X125674147Y-102886574D01*
X125766527Y-103109600D01*
X121468022Y-103109600D01*
X121430699Y-103105924D01*
X121393376Y-103109600D01*
X121393367Y-103109600D01*
X121281714Y-103120597D01*
X121138453Y-103164054D01*
X121006424Y-103234626D01*
X120990385Y-103247789D01*
X120919696Y-103305801D01*
X120919692Y-103305805D01*
X120890699Y-103329599D01*
X120866905Y-103358592D01*
X120713540Y-103511958D01*
X120635185Y-103416482D01*
X120622413Y-103406000D01*
X120635185Y-103395518D01*
X120714537Y-103298827D01*
X120773502Y-103188513D01*
X120809812Y-103068815D01*
X120822072Y-102944333D01*
X120822072Y-102715575D01*
X120933576Y-102655974D01*
X121049301Y-102561001D01*
X121073103Y-102531998D01*
X121591102Y-102014000D01*
X125688821Y-102014000D01*
X125674147Y-102049426D01*
G37*
%TD.AperFunction*%
D18*
X140757147Y-102105426D02*
X140702000Y-102382665D01*
X140702000Y-102665335D01*
X140757147Y-102942574D01*
X140826331Y-103109600D01*
X135961473Y-103109600D01*
X136053853Y-102886574D01*
X136109000Y-102609335D01*
X136109000Y-102326665D01*
X136053853Y-102049426D01*
X136039179Y-102014000D01*
X140795017Y-102014000D01*
X140757147Y-102105426D01*
%TA.AperFunction,NonConductor*%
D19*
G36*
X140757147Y-102105426D02*
G01*
X140702000Y-102382665D01*
X140702000Y-102665335D01*
X140757147Y-102942574D01*
X140826331Y-103109600D01*
X135961473Y-103109600D01*
X136053853Y-102886574D01*
X136109000Y-102609335D01*
X136109000Y-102326665D01*
X136053853Y-102049426D01*
X136039179Y-102014000D01*
X140795017Y-102014000D01*
X140757147Y-102105426D01*
G37*
%TD.AperFunction*%
D18*
X133294147Y-102049426D02*
X133239000Y-102326665D01*
X133239000Y-102609335D01*
X133294147Y-102886574D01*
X133386527Y-103109600D01*
X128341473Y-103109600D01*
X128433853Y-102886574D01*
X128489000Y-102609335D01*
X128489000Y-102326665D01*
X128433853Y-102049426D01*
X128419179Y-102014000D01*
X133308821Y-102014000D01*
X133294147Y-102049426D01*
%TA.AperFunction,NonConductor*%
D19*
G36*
X133294147Y-102049426D02*
G01*
X133239000Y-102326665D01*
X133239000Y-102609335D01*
X133294147Y-102886574D01*
X133386527Y-103109600D01*
X128341473Y-103109600D01*
X128433853Y-102886574D01*
X128489000Y-102609335D01*
X128489000Y-102326665D01*
X128433853Y-102049426D01*
X128419179Y-102014000D01*
X133308821Y-102014000D01*
X133294147Y-102049426D01*
G37*
%TD.AperFunction*%
D18*
X125619000Y-99786665D02*
X125619000Y-100069335D01*
X125674147Y-100346574D01*
X125735213Y-100494000D01*
X121313623Y-100494000D01*
X121276300Y-100490324D01*
X121238977Y-100494000D01*
X121238967Y-100494000D01*
X121127314Y-100504997D01*
X120984053Y-100548454D01*
X120852024Y-100619026D01*
X120736299Y-100713999D01*
X120713447Y-100741845D01*
X120635185Y-100646482D01*
X120622413Y-100636000D01*
X120635185Y-100625518D01*
X120714537Y-100528827D01*
X120773502Y-100418513D01*
X120809812Y-100298815D01*
X120822072Y-100174333D01*
X120822072Y-99831500D01*
X120889839Y-99831500D01*
X121089798Y-99791726D01*
X121278156Y-99713705D01*
X121447674Y-99600437D01*
X121491611Y-99556500D01*
X125664783Y-99556500D01*
X125619000Y-99786665D01*
%TA.AperFunction,NonConductor*%
D19*
G36*
X125619000Y-99786665D02*
G01*
X125619000Y-100069335D01*
X125674147Y-100346574D01*
X125735213Y-100494000D01*
X121313623Y-100494000D01*
X121276300Y-100490324D01*
X121238977Y-100494000D01*
X121238967Y-100494000D01*
X121127314Y-100504997D01*
X120984053Y-100548454D01*
X120852024Y-100619026D01*
X120736299Y-100713999D01*
X120713447Y-100741845D01*
X120635185Y-100646482D01*
X120622413Y-100636000D01*
X120635185Y-100625518D01*
X120714537Y-100528827D01*
X120773502Y-100418513D01*
X120809812Y-100298815D01*
X120822072Y-100174333D01*
X120822072Y-99831500D01*
X120889839Y-99831500D01*
X121089798Y-99791726D01*
X121278156Y-99713705D01*
X121447674Y-99600437D01*
X121491611Y-99556500D01*
X125664783Y-99556500D01*
X125619000Y-99786665D01*
G37*
%TD.AperFunction*%
D18*
X133239000Y-99786665D02*
X133239000Y-100069335D01*
X133294147Y-100346574D01*
X133355213Y-100494000D01*
X128372787Y-100494000D01*
X128433853Y-100346574D01*
X128489000Y-100069335D01*
X128489000Y-99786665D01*
X128443217Y-99556500D01*
X133284783Y-99556500D01*
X133239000Y-99786665D01*
%TA.AperFunction,NonConductor*%
D19*
G36*
X133239000Y-99786665D02*
G01*
X133239000Y-100069335D01*
X133294147Y-100346574D01*
X133355213Y-100494000D01*
X128372787Y-100494000D01*
X128433853Y-100346574D01*
X128489000Y-100069335D01*
X128489000Y-99786665D01*
X128443217Y-99556500D01*
X133284783Y-99556500D01*
X133239000Y-99786665D01*
G37*
%TD.AperFunction*%
D18*
X140757147Y-99565426D02*
X140702000Y-99842665D01*
X140702000Y-100125335D01*
X140757147Y-100402574D01*
X140795017Y-100494000D01*
X135992787Y-100494000D01*
X136053853Y-100346574D01*
X136109000Y-100069335D01*
X136109000Y-99786665D01*
X136063217Y-99556500D01*
X140760844Y-99556500D01*
X140757147Y-99565426D01*
%TA.AperFunction,NonConductor*%
D19*
G36*
X140757147Y-99565426D02*
G01*
X140702000Y-99842665D01*
X140702000Y-100125335D01*
X140757147Y-100402574D01*
X140795017Y-100494000D01*
X135992787Y-100494000D01*
X136053853Y-100346574D01*
X136109000Y-100069335D01*
X136109000Y-99786665D01*
X136063217Y-99556500D01*
X140760844Y-99556500D01*
X140757147Y-99565426D01*
G37*
%TD.AperFunction*%
D18*
X153017000Y-97428702D02*
X153017000Y-97490839D01*
X153056774Y-97690798D01*
X153134795Y-97879156D01*
X153239929Y-98036500D01*
X151064811Y-98036500D01*
X151136853Y-97862574D01*
X151192000Y-97585335D01*
X151192000Y-97302665D01*
X151136853Y-97025426D01*
X151054952Y-96827700D01*
X152415999Y-96827700D01*
X153017000Y-97428702D01*
%TA.AperFunction,NonConductor*%
D19*
G36*
X153017000Y-97428702D02*
G01*
X153017000Y-97490839D01*
X153056774Y-97690798D01*
X153134795Y-97879156D01*
X153239929Y-98036500D01*
X151064811Y-98036500D01*
X151136853Y-97862574D01*
X151192000Y-97585335D01*
X151192000Y-97302665D01*
X151136853Y-97025426D01*
X151054952Y-96827700D01*
X152415999Y-96827700D01*
X153017000Y-97428702D01*
G37*
%TD.AperFunction*%
D18*
X155073800Y-98032802D02*
X155073800Y-98036500D01*
X154864071Y-98036500D01*
X154949558Y-97908560D01*
X155073800Y-98032802D01*
%TA.AperFunction,NonConductor*%
D19*
G36*
X155073800Y-98032802D02*
G01*
X155073800Y-98036500D01*
X154864071Y-98036500D01*
X154949558Y-97908560D01*
X155073800Y-98032802D01*
G37*
%TD.AperFunction*%
D18*
X140757147Y-97025426D02*
X140702000Y-97302665D01*
X140702000Y-97585335D01*
X140757147Y-97862574D01*
X140829189Y-98036500D01*
X135958615Y-98036500D01*
X136053853Y-97806574D01*
X136109000Y-97529335D01*
X136109000Y-97246665D01*
X136053853Y-96969426D01*
X136021741Y-96891900D01*
X136329778Y-96891900D01*
X136367100Y-96895576D01*
X136404422Y-96891900D01*
X136404433Y-96891900D01*
X136516086Y-96880903D01*
X136659347Y-96837446D01*
X136677580Y-96827700D01*
X140839048Y-96827700D01*
X140757147Y-97025426D01*
%TA.AperFunction,NonConductor*%
D19*
G36*
X140757147Y-97025426D02*
G01*
X140702000Y-97302665D01*
X140702000Y-97585335D01*
X140757147Y-97862574D01*
X140829189Y-98036500D01*
X135958615Y-98036500D01*
X136053853Y-97806574D01*
X136109000Y-97529335D01*
X136109000Y-97246665D01*
X136053853Y-96969426D01*
X136021741Y-96891900D01*
X136329778Y-96891900D01*
X136367100Y-96895576D01*
X136404422Y-96891900D01*
X136404433Y-96891900D01*
X136516086Y-96880903D01*
X136659347Y-96837446D01*
X136677580Y-96827700D01*
X140839048Y-96827700D01*
X140757147Y-97025426D01*
G37*
%TD.AperFunction*%
D18*
X148377147Y-97025426D02*
X148322000Y-97302665D01*
X148322000Y-97585335D01*
X148377147Y-97862574D01*
X148449189Y-98036500D01*
X143444811Y-98036500D01*
X143516853Y-97862574D01*
X143572000Y-97585335D01*
X143572000Y-97302665D01*
X143516853Y-97025426D01*
X143434952Y-96827700D01*
X148459048Y-96827700D01*
X148377147Y-97025426D01*
%TA.AperFunction,NonConductor*%
D19*
G36*
X148377147Y-97025426D02*
G01*
X148322000Y-97302665D01*
X148322000Y-97585335D01*
X148377147Y-97862574D01*
X148449189Y-98036500D01*
X143444811Y-98036500D01*
X143516853Y-97862574D01*
X143572000Y-97585335D01*
X143572000Y-97302665D01*
X143516853Y-97025426D01*
X143434952Y-96827700D01*
X148459048Y-96827700D01*
X148377147Y-97025426D01*
G37*
%TD.AperFunction*%
D18*
X133294147Y-96969426D02*
X133239000Y-97246665D01*
X133239000Y-97529335D01*
X133294147Y-97806574D01*
X133389385Y-98036500D01*
X129447202Y-98036500D01*
X129465005Y-98009856D01*
X129543026Y-97821498D01*
X129582800Y-97621539D01*
X129582800Y-97559401D01*
X130378702Y-96763500D01*
X133379444Y-96763500D01*
X133294147Y-96969426D01*
%TA.AperFunction,NonConductor*%
D19*
G36*
X133294147Y-96969426D02*
G01*
X133239000Y-97246665D01*
X133239000Y-97529335D01*
X133294147Y-97806574D01*
X133389385Y-98036500D01*
X129447202Y-98036500D01*
X129465005Y-98009856D01*
X129543026Y-97821498D01*
X129582800Y-97621539D01*
X129582800Y-97559401D01*
X130378702Y-96763500D01*
X133379444Y-96763500D01*
X133294147Y-96969426D01*
G37*
%TD.AperFunction*%
D18*
X125939363Y-96473241D02*
X125782320Y-96708273D01*
X125674147Y-96969426D01*
X125619000Y-97246665D01*
X125619000Y-97529335D01*
X125674147Y-97806574D01*
X125769385Y-98036500D01*
X121491611Y-98036500D01*
X121447674Y-97992563D01*
X121278156Y-97879295D01*
X121089798Y-97801274D01*
X120889839Y-97761500D01*
X120712343Y-97761500D01*
X120714537Y-97758827D01*
X120773502Y-97648513D01*
X120809812Y-97528815D01*
X120822072Y-97404333D01*
X120822072Y-97175575D01*
X120933576Y-97115974D01*
X121049301Y-97021001D01*
X121073103Y-96991998D01*
X121752002Y-96313100D01*
X126099504Y-96313100D01*
X125939363Y-96473241D01*
%TA.AperFunction,NonConductor*%
D19*
G36*
X125939363Y-96473241D02*
G01*
X125782320Y-96708273D01*
X125674147Y-96969426D01*
X125619000Y-97246665D01*
X125619000Y-97529335D01*
X125674147Y-97806574D01*
X125769385Y-98036500D01*
X121491611Y-98036500D01*
X121447674Y-97992563D01*
X121278156Y-97879295D01*
X121089798Y-97801274D01*
X120889839Y-97761500D01*
X120712343Y-97761500D01*
X120714537Y-97758827D01*
X120773502Y-97648513D01*
X120809812Y-97528815D01*
X120822072Y-97404333D01*
X120822072Y-97175575D01*
X120933576Y-97115974D01*
X121049301Y-97021001D01*
X121073103Y-96991998D01*
X121752002Y-96313100D01*
X126099504Y-96313100D01*
X125939363Y-96473241D01*
G37*
%TD.AperFunction*%
D18*
X128507999Y-96484600D02*
X128445861Y-96484600D01*
X128245902Y-96524374D01*
X128212146Y-96538356D01*
X128168637Y-96473241D01*
X128008496Y-96313100D01*
X128679499Y-96313100D01*
X128507999Y-96484600D01*
%TA.AperFunction,NonConductor*%
D19*
G36*
X128507999Y-96484600D02*
G01*
X128445861Y-96484600D01*
X128245902Y-96524374D01*
X128212146Y-96538356D01*
X128168637Y-96473241D01*
X128008496Y-96313100D01*
X128679499Y-96313100D01*
X128507999Y-96484600D01*
G37*
%TD.AperFunction*%
D18*
X151758700Y-86384354D02*
X151758701Y-88639325D01*
X151752725Y-88700000D01*
X151776570Y-88942102D01*
X151847189Y-89174899D01*
X151847190Y-89174901D01*
X151961868Y-89389449D01*
X152116199Y-89577502D01*
X152163321Y-89616174D01*
X154811526Y-92264380D01*
X154850198Y-92311502D01*
X155038251Y-92465833D01*
X155252799Y-92580511D01*
X155457462Y-92642595D01*
X155485598Y-92651130D01*
X155727700Y-92674975D01*
X155788365Y-92669000D01*
X156174571Y-92669000D01*
X156197463Y-92711827D01*
X156276815Y-92808518D01*
X156289587Y-92819000D01*
X156276815Y-92829482D01*
X156197463Y-92926173D01*
X156161624Y-92993222D01*
X156058686Y-92961997D01*
X155947033Y-92951000D01*
X155947022Y-92951000D01*
X155909700Y-92947324D01*
X155872378Y-92951000D01*
X148684204Y-92951000D01*
X148723600Y-92752939D01*
X148723600Y-92549061D01*
X148683826Y-92349102D01*
X148605805Y-92160744D01*
X148492537Y-91991226D01*
X148348374Y-91847063D01*
X148178856Y-91733795D01*
X147990498Y-91655774D01*
X147790539Y-91616000D01*
X147586661Y-91616000D01*
X147386702Y-91655774D01*
X147198344Y-91733795D01*
X147028826Y-91847063D01*
X146984889Y-91891000D01*
X134212802Y-91891000D01*
X132500002Y-90178200D01*
X135014878Y-90178200D01*
X135052200Y-90181876D01*
X135089522Y-90178200D01*
X135089533Y-90178200D01*
X135201186Y-90167203D01*
X135344447Y-90123746D01*
X135476476Y-90053174D01*
X135592201Y-89958201D01*
X135616003Y-89929198D01*
X136156580Y-89388621D01*
X136396589Y-89548990D01*
X136666842Y-89660932D01*
X136953740Y-89718000D01*
X137246260Y-89718000D01*
X137533158Y-89660932D01*
X137803411Y-89548990D01*
X138046632Y-89386475D01*
X138253475Y-89179632D01*
X138370000Y-89005240D01*
X138486525Y-89179632D01*
X138693368Y-89386475D01*
X138936589Y-89548990D01*
X139206842Y-89660932D01*
X139493740Y-89718000D01*
X139786260Y-89718000D01*
X140073158Y-89660932D01*
X140343411Y-89548990D01*
X140586632Y-89386475D01*
X140793475Y-89179632D01*
X140910000Y-89005240D01*
X141026525Y-89179632D01*
X141233368Y-89386475D01*
X141476589Y-89548990D01*
X141746842Y-89660932D01*
X142033740Y-89718000D01*
X142326260Y-89718000D01*
X142613158Y-89660932D01*
X142883411Y-89548990D01*
X143126632Y-89386475D01*
X143333475Y-89179632D01*
X143450000Y-89005240D01*
X143566525Y-89179632D01*
X143773368Y-89386475D01*
X144016589Y-89548990D01*
X144286842Y-89660932D01*
X144573740Y-89718000D01*
X144866260Y-89718000D01*
X145153158Y-89660932D01*
X145423411Y-89548990D01*
X145666632Y-89386475D01*
X145873475Y-89179632D01*
X145990000Y-89005240D01*
X146106525Y-89179632D01*
X146313368Y-89386475D01*
X146556589Y-89548990D01*
X146826842Y-89660932D01*
X147113740Y-89718000D01*
X147406260Y-89718000D01*
X147693158Y-89660932D01*
X147963411Y-89548990D01*
X148206632Y-89386475D01*
X148413475Y-89179632D01*
X148530000Y-89005240D01*
X148646525Y-89179632D01*
X148853368Y-89386475D01*
X149096589Y-89548990D01*
X149366842Y-89660932D01*
X149653740Y-89718000D01*
X149946260Y-89718000D01*
X150233158Y-89660932D01*
X150503411Y-89548990D01*
X150746632Y-89386475D01*
X150953475Y-89179632D01*
X151115990Y-88936411D01*
X151227932Y-88666158D01*
X151285000Y-88379260D01*
X151285000Y-88086740D01*
X151227932Y-87799842D01*
X151115990Y-87529589D01*
X150953475Y-87286368D01*
X150766392Y-87099285D01*
X150893386Y-87031405D01*
X151027962Y-86920962D01*
X151138405Y-86786386D01*
X151220472Y-86632850D01*
X151271008Y-86466254D01*
X151288072Y-86293000D01*
X151288072Y-85913726D01*
X151758700Y-86384354D01*
%TA.AperFunction,NonConductor*%
D19*
G36*
X151758700Y-86384354D02*
G01*
X151758701Y-88639325D01*
X151752725Y-88700000D01*
X151776570Y-88942102D01*
X151847189Y-89174899D01*
X151847190Y-89174901D01*
X151961868Y-89389449D01*
X152116199Y-89577502D01*
X152163321Y-89616174D01*
X154811526Y-92264380D01*
X154850198Y-92311502D01*
X155038251Y-92465833D01*
X155252799Y-92580511D01*
X155457462Y-92642595D01*
X155485598Y-92651130D01*
X155727700Y-92674975D01*
X155788365Y-92669000D01*
X156174571Y-92669000D01*
X156197463Y-92711827D01*
X156276815Y-92808518D01*
X156289587Y-92819000D01*
X156276815Y-92829482D01*
X156197463Y-92926173D01*
X156161624Y-92993222D01*
X156058686Y-92961997D01*
X155947033Y-92951000D01*
X155947022Y-92951000D01*
X155909700Y-92947324D01*
X155872378Y-92951000D01*
X148684204Y-92951000D01*
X148723600Y-92752939D01*
X148723600Y-92549061D01*
X148683826Y-92349102D01*
X148605805Y-92160744D01*
X148492537Y-91991226D01*
X148348374Y-91847063D01*
X148178856Y-91733795D01*
X147990498Y-91655774D01*
X147790539Y-91616000D01*
X147586661Y-91616000D01*
X147386702Y-91655774D01*
X147198344Y-91733795D01*
X147028826Y-91847063D01*
X146984889Y-91891000D01*
X134212802Y-91891000D01*
X132500002Y-90178200D01*
X135014878Y-90178200D01*
X135052200Y-90181876D01*
X135089522Y-90178200D01*
X135089533Y-90178200D01*
X135201186Y-90167203D01*
X135344447Y-90123746D01*
X135476476Y-90053174D01*
X135592201Y-89958201D01*
X135616003Y-89929198D01*
X136156580Y-89388621D01*
X136396589Y-89548990D01*
X136666842Y-89660932D01*
X136953740Y-89718000D01*
X137246260Y-89718000D01*
X137533158Y-89660932D01*
X137803411Y-89548990D01*
X138046632Y-89386475D01*
X138253475Y-89179632D01*
X138370000Y-89005240D01*
X138486525Y-89179632D01*
X138693368Y-89386475D01*
X138936589Y-89548990D01*
X139206842Y-89660932D01*
X139493740Y-89718000D01*
X139786260Y-89718000D01*
X140073158Y-89660932D01*
X140343411Y-89548990D01*
X140586632Y-89386475D01*
X140793475Y-89179632D01*
X140910000Y-89005240D01*
X141026525Y-89179632D01*
X141233368Y-89386475D01*
X141476589Y-89548990D01*
X141746842Y-89660932D01*
X142033740Y-89718000D01*
X142326260Y-89718000D01*
X142613158Y-89660932D01*
X142883411Y-89548990D01*
X143126632Y-89386475D01*
X143333475Y-89179632D01*
X143450000Y-89005240D01*
X143566525Y-89179632D01*
X143773368Y-89386475D01*
X144016589Y-89548990D01*
X144286842Y-89660932D01*
X144573740Y-89718000D01*
X144866260Y-89718000D01*
X145153158Y-89660932D01*
X145423411Y-89548990D01*
X145666632Y-89386475D01*
X145873475Y-89179632D01*
X145990000Y-89005240D01*
X146106525Y-89179632D01*
X146313368Y-89386475D01*
X146556589Y-89548990D01*
X146826842Y-89660932D01*
X147113740Y-89718000D01*
X147406260Y-89718000D01*
X147693158Y-89660932D01*
X147963411Y-89548990D01*
X148206632Y-89386475D01*
X148413475Y-89179632D01*
X148530000Y-89005240D01*
X148646525Y-89179632D01*
X148853368Y-89386475D01*
X149096589Y-89548990D01*
X149366842Y-89660932D01*
X149653740Y-89718000D01*
X149946260Y-89718000D01*
X150233158Y-89660932D01*
X150503411Y-89548990D01*
X150746632Y-89386475D01*
X150953475Y-89179632D01*
X151115990Y-88936411D01*
X151227932Y-88666158D01*
X151285000Y-88379260D01*
X151285000Y-88086740D01*
X151227932Y-87799842D01*
X151115990Y-87529589D01*
X150953475Y-87286368D01*
X150766392Y-87099285D01*
X150893386Y-87031405D01*
X151027962Y-86920962D01*
X151138405Y-86786386D01*
X151220472Y-86632850D01*
X151271008Y-86466254D01*
X151288072Y-86293000D01*
X151288072Y-85913726D01*
X151758700Y-86384354D01*
G37*
%TD.AperFunction*%
D18*
X125624010Y-86396411D02*
X125786525Y-86639632D01*
X125993368Y-86846475D01*
X126167760Y-86963000D01*
X125993368Y-87079525D01*
X125786525Y-87286368D01*
X125624010Y-87529589D01*
X125512068Y-87799842D01*
X125455000Y-88086740D01*
X125455000Y-88379260D01*
X125512068Y-88666158D01*
X125624010Y-88936411D01*
X125786525Y-89179632D01*
X125993368Y-89386475D01*
X126236589Y-89548990D01*
X126506842Y-89660932D01*
X126793740Y-89718000D01*
X127086260Y-89718000D01*
X127373158Y-89660932D01*
X127643411Y-89548990D01*
X127886632Y-89386475D01*
X128093475Y-89179632D01*
X128210000Y-89005240D01*
X128326525Y-89179632D01*
X128533368Y-89386475D01*
X128776589Y-89548990D01*
X129046842Y-89660932D01*
X129333740Y-89718000D01*
X129626260Y-89718000D01*
X129846408Y-89674209D01*
X133123198Y-92951000D01*
X120822072Y-92951000D01*
X120822072Y-92787667D01*
X120809812Y-92663185D01*
X120773502Y-92543487D01*
X120714537Y-92433173D01*
X120635185Y-92336482D01*
X120622413Y-92326000D01*
X120635185Y-92315518D01*
X120714537Y-92218827D01*
X120737429Y-92176000D01*
X121123635Y-92176000D01*
X121184300Y-92181975D01*
X121244965Y-92176000D01*
X121426402Y-92158130D01*
X121659201Y-92087511D01*
X121873749Y-91972833D01*
X122061802Y-91818502D01*
X122100479Y-91771374D01*
X124255674Y-89616179D01*
X124302802Y-89577502D01*
X124457133Y-89389449D01*
X124571811Y-89174901D01*
X124642430Y-88942102D01*
X124660300Y-88760665D01*
X124666275Y-88700000D01*
X124660300Y-88639335D01*
X124660300Y-87055553D01*
X125534804Y-86181049D01*
X125624010Y-86396411D01*
%TA.AperFunction,NonConductor*%
D19*
G36*
X125624010Y-86396411D02*
G01*
X125786525Y-86639632D01*
X125993368Y-86846475D01*
X126167760Y-86963000D01*
X125993368Y-87079525D01*
X125786525Y-87286368D01*
X125624010Y-87529589D01*
X125512068Y-87799842D01*
X125455000Y-88086740D01*
X125455000Y-88379260D01*
X125512068Y-88666158D01*
X125624010Y-88936411D01*
X125786525Y-89179632D01*
X125993368Y-89386475D01*
X126236589Y-89548990D01*
X126506842Y-89660932D01*
X126793740Y-89718000D01*
X127086260Y-89718000D01*
X127373158Y-89660932D01*
X127643411Y-89548990D01*
X127886632Y-89386475D01*
X128093475Y-89179632D01*
X128210000Y-89005240D01*
X128326525Y-89179632D01*
X128533368Y-89386475D01*
X128776589Y-89548990D01*
X129046842Y-89660932D01*
X129333740Y-89718000D01*
X129626260Y-89718000D01*
X129846408Y-89674209D01*
X133123198Y-92951000D01*
X120822072Y-92951000D01*
X120822072Y-92787667D01*
X120809812Y-92663185D01*
X120773502Y-92543487D01*
X120714537Y-92433173D01*
X120635185Y-92336482D01*
X120622413Y-92326000D01*
X120635185Y-92315518D01*
X120714537Y-92218827D01*
X120737429Y-92176000D01*
X121123635Y-92176000D01*
X121184300Y-92181975D01*
X121244965Y-92176000D01*
X121426402Y-92158130D01*
X121659201Y-92087511D01*
X121873749Y-91972833D01*
X122061802Y-91818502D01*
X122100479Y-91771374D01*
X124255674Y-89616179D01*
X124302802Y-89577502D01*
X124457133Y-89389449D01*
X124571811Y-89174901D01*
X124642430Y-88942102D01*
X124660300Y-88760665D01*
X124666275Y-88700000D01*
X124660300Y-88639335D01*
X124660300Y-87055553D01*
X125534804Y-86181049D01*
X125624010Y-86396411D01*
G37*
%TD.AperFunction*%
D18*
X155307761Y-88160531D02*
X155304567Y-88192960D01*
X155317310Y-88322343D01*
X155355050Y-88446753D01*
X155416335Y-88561410D01*
X155498812Y-88661908D01*
X155599310Y-88744385D01*
X155713967Y-88805670D01*
X155838377Y-88843410D01*
X155935341Y-88852960D01*
X155967760Y-88856153D01*
X156000179Y-88852960D01*
X159807760Y-88852960D01*
X159807760Y-89872595D01*
X156728000Y-89872595D01*
X156603518Y-89884855D01*
X156483820Y-89921165D01*
X156373506Y-89980130D01*
X156276815Y-90059482D01*
X156197463Y-90156173D01*
X156197102Y-90156848D01*
X154228700Y-88188447D01*
X154228700Y-85933465D01*
X154234675Y-85872800D01*
X154210830Y-85630698D01*
X154187241Y-85552935D01*
X154140211Y-85397899D01*
X154025533Y-85183351D01*
X153871202Y-84995298D01*
X153824081Y-84956627D01*
X151867478Y-83000025D01*
X151828802Y-82952898D01*
X151640749Y-82798567D01*
X151426201Y-82683889D01*
X151193402Y-82613270D01*
X151011965Y-82595400D01*
X150951300Y-82589425D01*
X150890635Y-82595400D01*
X136403865Y-82595400D01*
X136343200Y-82589425D01*
X136282535Y-82595400D01*
X136101098Y-82613270D01*
X135868299Y-82683889D01*
X135653751Y-82798567D01*
X135465698Y-82952898D01*
X135427021Y-83000026D01*
X134170704Y-84256343D01*
X134126842Y-84265068D01*
X133856589Y-84377010D01*
X133735379Y-84458000D01*
X132844621Y-84458000D01*
X132723411Y-84377010D01*
X132453158Y-84265068D01*
X132409296Y-84256343D01*
X131163679Y-83010726D01*
X131125002Y-82963598D01*
X130936949Y-82809267D01*
X130722401Y-82694589D01*
X130489602Y-82623970D01*
X130308165Y-82606100D01*
X130247500Y-82600125D01*
X130186835Y-82606100D01*
X126188865Y-82606100D01*
X126128200Y-82600125D01*
X126067535Y-82606100D01*
X125886098Y-82623970D01*
X125653299Y-82694589D01*
X125438751Y-82809267D01*
X125250698Y-82963598D01*
X125212026Y-83010720D01*
X122594925Y-85627822D01*
X122547798Y-85666498D01*
X122393467Y-85854552D01*
X122278789Y-86069100D01*
X122272904Y-86088500D01*
X122208170Y-86301898D01*
X122184325Y-86544000D01*
X122190300Y-86604666D01*
X122190301Y-88188446D01*
X120714898Y-89663849D01*
X120714537Y-89663173D01*
X120635185Y-89566482D01*
X120538494Y-89487130D01*
X120428180Y-89428165D01*
X120308482Y-89391855D01*
X120184000Y-89379595D01*
X117127760Y-89379595D01*
X117127760Y-88852960D01*
X120935341Y-88852960D01*
X120967760Y-88856153D01*
X121000179Y-88852960D01*
X121097143Y-88843410D01*
X121221553Y-88805670D01*
X121336210Y-88744385D01*
X121436708Y-88661908D01*
X121519185Y-88561410D01*
X121580470Y-88446753D01*
X121618210Y-88322343D01*
X121630953Y-88192960D01*
X121627760Y-88160541D01*
X121627760Y-81352960D01*
X155307760Y-81352960D01*
X155307761Y-88160531D01*
%TA.AperFunction,NonConductor*%
D19*
G36*
X155307761Y-88160531D02*
G01*
X155304567Y-88192960D01*
X155317310Y-88322343D01*
X155355050Y-88446753D01*
X155416335Y-88561410D01*
X155498812Y-88661908D01*
X155599310Y-88744385D01*
X155713967Y-88805670D01*
X155838377Y-88843410D01*
X155935341Y-88852960D01*
X155967760Y-88856153D01*
X156000179Y-88852960D01*
X159807760Y-88852960D01*
X159807760Y-89872595D01*
X156728000Y-89872595D01*
X156603518Y-89884855D01*
X156483820Y-89921165D01*
X156373506Y-89980130D01*
X156276815Y-90059482D01*
X156197463Y-90156173D01*
X156197102Y-90156848D01*
X154228700Y-88188447D01*
X154228700Y-85933465D01*
X154234675Y-85872800D01*
X154210830Y-85630698D01*
X154187241Y-85552935D01*
X154140211Y-85397899D01*
X154025533Y-85183351D01*
X153871202Y-84995298D01*
X153824081Y-84956627D01*
X151867478Y-83000025D01*
X151828802Y-82952898D01*
X151640749Y-82798567D01*
X151426201Y-82683889D01*
X151193402Y-82613270D01*
X151011965Y-82595400D01*
X150951300Y-82589425D01*
X150890635Y-82595400D01*
X136403865Y-82595400D01*
X136343200Y-82589425D01*
X136282535Y-82595400D01*
X136101098Y-82613270D01*
X135868299Y-82683889D01*
X135653751Y-82798567D01*
X135465698Y-82952898D01*
X135427021Y-83000026D01*
X134170704Y-84256343D01*
X134126842Y-84265068D01*
X133856589Y-84377010D01*
X133735379Y-84458000D01*
X132844621Y-84458000D01*
X132723411Y-84377010D01*
X132453158Y-84265068D01*
X132409296Y-84256343D01*
X131163679Y-83010726D01*
X131125002Y-82963598D01*
X130936949Y-82809267D01*
X130722401Y-82694589D01*
X130489602Y-82623970D01*
X130308165Y-82606100D01*
X130247500Y-82600125D01*
X130186835Y-82606100D01*
X126188865Y-82606100D01*
X126128200Y-82600125D01*
X126067535Y-82606100D01*
X125886098Y-82623970D01*
X125653299Y-82694589D01*
X125438751Y-82809267D01*
X125250698Y-82963598D01*
X125212026Y-83010720D01*
X122594925Y-85627822D01*
X122547798Y-85666498D01*
X122393467Y-85854552D01*
X122278789Y-86069100D01*
X122272904Y-86088500D01*
X122208170Y-86301898D01*
X122184325Y-86544000D01*
X122190300Y-86604666D01*
X122190301Y-88188446D01*
X120714898Y-89663849D01*
X120714537Y-89663173D01*
X120635185Y-89566482D01*
X120538494Y-89487130D01*
X120428180Y-89428165D01*
X120308482Y-89391855D01*
X120184000Y-89379595D01*
X117127760Y-89379595D01*
X117127760Y-88852960D01*
X120935341Y-88852960D01*
X120967760Y-88856153D01*
X121000179Y-88852960D01*
X121097143Y-88843410D01*
X121221553Y-88805670D01*
X121336210Y-88744385D01*
X121436708Y-88661908D01*
X121519185Y-88561410D01*
X121580470Y-88446753D01*
X121618210Y-88322343D01*
X121630953Y-88192960D01*
X121627760Y-88160541D01*
X121627760Y-81352960D01*
X155307760Y-81352960D01*
X155307761Y-88160531D01*
G37*
%TD.AperFunction*%
D18*
X133787760Y-86963000D02*
X133613368Y-87079525D01*
X133406525Y-87286368D01*
X133290000Y-87460760D01*
X133173475Y-87286368D01*
X132966632Y-87079525D01*
X132792240Y-86963000D01*
X132844621Y-86928000D01*
X133735379Y-86928000D01*
X133787760Y-86963000D01*
%TA.AperFunction,NonConductor*%
D19*
G36*
X133787760Y-86963000D02*
G01*
X133613368Y-87079525D01*
X133406525Y-87286368D01*
X133290000Y-87460760D01*
X133173475Y-87286368D01*
X132966632Y-87079525D01*
X132792240Y-86963000D01*
X132844621Y-86928000D01*
X133735379Y-86928000D01*
X133787760Y-86963000D01*
G37*
%TD.AperFunction*%
D18*
X148706614Y-87031405D02*
X148833608Y-87099285D01*
X148646525Y-87286368D01*
X148530000Y-87460760D01*
X148413475Y-87286368D01*
X148206632Y-87079525D01*
X148032240Y-86963000D01*
X148084621Y-86928000D01*
X148580614Y-86928000D01*
X148706614Y-87031405D01*
%TA.AperFunction,NonConductor*%
D19*
G36*
X148706614Y-87031405D02*
G01*
X148833608Y-87099285D01*
X148646525Y-87286368D01*
X148530000Y-87460760D01*
X148413475Y-87286368D01*
X148206632Y-87079525D01*
X148032240Y-86963000D01*
X148084621Y-86928000D01*
X148580614Y-86928000D01*
X148706614Y-87031405D01*
G37*
%TD.AperFunction*%
D18*
X146487760Y-86963000D02*
X146313368Y-87079525D01*
X146106525Y-87286368D01*
X145990000Y-87460760D01*
X145873475Y-87286368D01*
X145666632Y-87079525D01*
X145492240Y-86963000D01*
X145544621Y-86928000D01*
X146435379Y-86928000D01*
X146487760Y-86963000D01*
%TA.AperFunction,NonConductor*%
D19*
G36*
X146487760Y-86963000D02*
G01*
X146313368Y-87079525D01*
X146106525Y-87286368D01*
X145990000Y-87460760D01*
X145873475Y-87286368D01*
X145666632Y-87079525D01*
X145492240Y-86963000D01*
X145544621Y-86928000D01*
X146435379Y-86928000D01*
X146487760Y-86963000D01*
G37*
%TD.AperFunction*%
D18*
X143947760Y-86963000D02*
X143773368Y-87079525D01*
X143566525Y-87286368D01*
X143450000Y-87460760D01*
X143333475Y-87286368D01*
X143126632Y-87079525D01*
X142952240Y-86963000D01*
X143004621Y-86928000D01*
X143895379Y-86928000D01*
X143947760Y-86963000D01*
%TA.AperFunction,NonConductor*%
D19*
G36*
X143947760Y-86963000D02*
G01*
X143773368Y-87079525D01*
X143566525Y-87286368D01*
X143450000Y-87460760D01*
X143333475Y-87286368D01*
X143126632Y-87079525D01*
X142952240Y-86963000D01*
X143004621Y-86928000D01*
X143895379Y-86928000D01*
X143947760Y-86963000D01*
G37*
%TD.AperFunction*%
D18*
X141026525Y-86639632D02*
X141233368Y-86846475D01*
X141407760Y-86963000D01*
X141233368Y-87079525D01*
X141026525Y-87286368D01*
X140910000Y-87460760D01*
X140793475Y-87286368D01*
X140586632Y-87079525D01*
X140412240Y-86963000D01*
X140586632Y-86846475D01*
X140793475Y-86639632D01*
X140910000Y-86465240D01*
X141026525Y-86639632D01*
%TA.AperFunction,NonConductor*%
D19*
G36*
X141026525Y-86639632D02*
G01*
X141233368Y-86846475D01*
X141407760Y-86963000D01*
X141233368Y-87079525D01*
X141026525Y-87286368D01*
X140910000Y-87460760D01*
X140793475Y-87286368D01*
X140586632Y-87079525D01*
X140412240Y-86963000D01*
X140586632Y-86846475D01*
X140793475Y-86639632D01*
X140910000Y-86465240D01*
X141026525Y-86639632D01*
G37*
%TD.AperFunction*%
D18*
X138486525Y-86639632D02*
X138693368Y-86846475D01*
X138867760Y-86963000D01*
X138693368Y-87079525D01*
X138486525Y-87286368D01*
X138370000Y-87460760D01*
X138253475Y-87286368D01*
X138046632Y-87079525D01*
X137872240Y-86963000D01*
X138046632Y-86846475D01*
X138253475Y-86639632D01*
X138370000Y-86465240D01*
X138486525Y-86639632D01*
%TA.AperFunction,NonConductor*%
D19*
G36*
X138486525Y-86639632D02*
G01*
X138693368Y-86846475D01*
X138867760Y-86963000D01*
X138693368Y-87079525D01*
X138486525Y-87286368D01*
X138370000Y-87460760D01*
X138253475Y-87286368D01*
X138046632Y-87079525D01*
X137872240Y-86963000D01*
X138046632Y-86846475D01*
X138253475Y-86639632D01*
X138370000Y-86465240D01*
X138486525Y-86639632D01*
G37*
%TD.AperFunction*%
D18*
X130866525Y-86639632D02*
X131073368Y-86846475D01*
X131247760Y-86963000D01*
X131090728Y-87067926D01*
X130645074Y-86622273D01*
X130750000Y-86465240D01*
X130866525Y-86639632D01*
%TA.AperFunction,NonConductor*%
D19*
G36*
X130866525Y-86639632D02*
G01*
X131073368Y-86846475D01*
X131247760Y-86963000D01*
X131090728Y-87067926D01*
X130645074Y-86622273D01*
X130750000Y-86465240D01*
X130866525Y-86639632D01*
G37*
%TD.AperFunction*%
M02*
