%TF.GenerationSoftware,KiCad,Pcbnew,(5.1.9)-1*%
%TF.CreationDate,2021-05-27T14:44:41-04:00*%
%TF.ProjectId,Aimga2MacFloppy,41696d67-6132-44d6-9163-466c6f707079,1.0*%
%TF.SameCoordinates,Original*%
%TF.FileFunction,Legend,Top*%
%TF.FilePolarity,Positive*%
%FSLAX46Y46*%
G04 Gerber Fmt 4.6, Leading zero omitted, Abs format (unit mm)*
G04 Created by KiCad (PCBNEW (5.1.9)-1) date 2021-05-27 14:44:41*
%MOMM*%
%LPD*%
G01*
G04 APERTURE LIST*
%ADD10C,0.250000*%
%ADD11C,0.150000*%
%ADD12C,0.120000*%
G04 APERTURE END LIST*
D10*
X122850617Y-128192960D02*
X123564902Y-128192960D01*
X122707760Y-128621531D02*
X123207760Y-127121531D01*
X123707760Y-128621531D01*
X124207760Y-128621531D02*
X124207760Y-127621531D01*
X124207760Y-127764388D02*
X124279188Y-127692960D01*
X124422045Y-127621531D01*
X124636331Y-127621531D01*
X124779188Y-127692960D01*
X124850617Y-127835817D01*
X124850617Y-128621531D01*
X124850617Y-127835817D02*
X124922045Y-127692960D01*
X125064902Y-127621531D01*
X125279188Y-127621531D01*
X125422045Y-127692960D01*
X125493474Y-127835817D01*
X125493474Y-128621531D01*
X126207760Y-128621531D02*
X126207760Y-127621531D01*
X126207760Y-127121531D02*
X126136331Y-127192960D01*
X126207760Y-127264388D01*
X126279188Y-127192960D01*
X126207760Y-127121531D01*
X126207760Y-127264388D01*
X127564902Y-127621531D02*
X127564902Y-128835817D01*
X127493474Y-128978674D01*
X127422045Y-129050102D01*
X127279188Y-129121531D01*
X127064902Y-129121531D01*
X126922045Y-129050102D01*
X127564902Y-128550102D02*
X127422045Y-128621531D01*
X127136331Y-128621531D01*
X126993474Y-128550102D01*
X126922045Y-128478674D01*
X126850617Y-128335817D01*
X126850617Y-127907245D01*
X126922045Y-127764388D01*
X126993474Y-127692960D01*
X127136331Y-127621531D01*
X127422045Y-127621531D01*
X127564902Y-127692960D01*
X128922045Y-128621531D02*
X128922045Y-127835817D01*
X128850617Y-127692960D01*
X128707760Y-127621531D01*
X128422045Y-127621531D01*
X128279188Y-127692960D01*
X128922045Y-128550102D02*
X128779188Y-128621531D01*
X128422045Y-128621531D01*
X128279188Y-128550102D01*
X128207760Y-128407245D01*
X128207760Y-128264388D01*
X128279188Y-128121531D01*
X128422045Y-128050102D01*
X128779188Y-128050102D01*
X128922045Y-127978674D01*
X129564902Y-127264388D02*
X129636331Y-127192960D01*
X129779188Y-127121531D01*
X130136331Y-127121531D01*
X130279188Y-127192960D01*
X130350617Y-127264388D01*
X130422045Y-127407245D01*
X130422045Y-127550102D01*
X130350617Y-127764388D01*
X129493474Y-128621531D01*
X130422045Y-128621531D01*
X131064902Y-128621531D02*
X131064902Y-127121531D01*
X131564902Y-128192960D01*
X132064902Y-127121531D01*
X132064902Y-128621531D01*
X133422045Y-128621531D02*
X133422045Y-127835817D01*
X133350617Y-127692960D01*
X133207760Y-127621531D01*
X132922045Y-127621531D01*
X132779188Y-127692960D01*
X133422045Y-128550102D02*
X133279188Y-128621531D01*
X132922045Y-128621531D01*
X132779188Y-128550102D01*
X132707760Y-128407245D01*
X132707760Y-128264388D01*
X132779188Y-128121531D01*
X132922045Y-128050102D01*
X133279188Y-128050102D01*
X133422045Y-127978674D01*
X134779188Y-128550102D02*
X134636331Y-128621531D01*
X134350617Y-128621531D01*
X134207760Y-128550102D01*
X134136331Y-128478674D01*
X134064902Y-128335817D01*
X134064902Y-127907245D01*
X134136331Y-127764388D01*
X134207760Y-127692960D01*
X134350617Y-127621531D01*
X134636331Y-127621531D01*
X134779188Y-127692960D01*
X135922045Y-127835817D02*
X135422045Y-127835817D01*
X135422045Y-128621531D02*
X135422045Y-127121531D01*
X136136331Y-127121531D01*
X136922045Y-128621531D02*
X136779188Y-128550102D01*
X136707760Y-128407245D01*
X136707760Y-127121531D01*
X137707760Y-128621531D02*
X137564902Y-128550102D01*
X137493474Y-128478674D01*
X137422045Y-128335817D01*
X137422045Y-127907245D01*
X137493474Y-127764388D01*
X137564902Y-127692960D01*
X137707760Y-127621531D01*
X137922045Y-127621531D01*
X138064902Y-127692960D01*
X138136331Y-127764388D01*
X138207760Y-127907245D01*
X138207760Y-128335817D01*
X138136331Y-128478674D01*
X138064902Y-128550102D01*
X137922045Y-128621531D01*
X137707760Y-128621531D01*
X138850617Y-127621531D02*
X138850617Y-129121531D01*
X138850617Y-127692960D02*
X138993474Y-127621531D01*
X139279188Y-127621531D01*
X139422045Y-127692960D01*
X139493474Y-127764388D01*
X139564902Y-127907245D01*
X139564902Y-128335817D01*
X139493474Y-128478674D01*
X139422045Y-128550102D01*
X139279188Y-128621531D01*
X138993474Y-128621531D01*
X138850617Y-128550102D01*
X140207760Y-127621531D02*
X140207760Y-129121531D01*
X140207760Y-127692960D02*
X140350617Y-127621531D01*
X140636331Y-127621531D01*
X140779188Y-127692960D01*
X140850617Y-127764388D01*
X140922045Y-127907245D01*
X140922045Y-128335817D01*
X140850617Y-128478674D01*
X140779188Y-128550102D01*
X140636331Y-128621531D01*
X140350617Y-128621531D01*
X140207760Y-128550102D01*
X141422045Y-127621531D02*
X141779188Y-128621531D01*
X142136331Y-127621531D02*
X141779188Y-128621531D01*
X141636331Y-128978674D01*
X141564902Y-129050102D01*
X141422045Y-129121531D01*
D11*
X123022521Y-130081531D02*
X122689188Y-130081531D01*
X122689188Y-130605340D02*
X122689188Y-129605340D01*
X123165379Y-129605340D01*
X123546331Y-130605340D02*
X123546331Y-129938674D01*
X123546331Y-130129150D02*
X123593950Y-130033912D01*
X123641569Y-129986293D01*
X123736807Y-129938674D01*
X123832045Y-129938674D01*
X124593950Y-130605340D02*
X124593950Y-130081531D01*
X124546331Y-129986293D01*
X124451093Y-129938674D01*
X124260617Y-129938674D01*
X124165379Y-129986293D01*
X124593950Y-130557721D02*
X124498712Y-130605340D01*
X124260617Y-130605340D01*
X124165379Y-130557721D01*
X124117760Y-130462483D01*
X124117760Y-130367245D01*
X124165379Y-130272007D01*
X124260617Y-130224388D01*
X124498712Y-130224388D01*
X124593950Y-130176769D01*
X125070140Y-129938674D02*
X125070140Y-130605340D01*
X125070140Y-130033912D02*
X125117760Y-129986293D01*
X125212998Y-129938674D01*
X125355855Y-129938674D01*
X125451093Y-129986293D01*
X125498712Y-130081531D01*
X125498712Y-130605340D01*
X125974902Y-130605340D02*
X125974902Y-129605340D01*
X126070140Y-130224388D02*
X126355855Y-130605340D01*
X126355855Y-129938674D02*
X125974902Y-130319626D01*
X126832045Y-129605340D02*
X126736807Y-129795817D01*
X127212998Y-130557721D02*
X127308236Y-130605340D01*
X127498712Y-130605340D01*
X127593950Y-130557721D01*
X127641569Y-130462483D01*
X127641569Y-130414864D01*
X127593950Y-130319626D01*
X127498712Y-130272007D01*
X127355855Y-130272007D01*
X127260617Y-130224388D01*
X127212998Y-130129150D01*
X127212998Y-130081531D01*
X127260617Y-129986293D01*
X127355855Y-129938674D01*
X127498712Y-129938674D01*
X127593950Y-129986293D01*
X128736807Y-129605340D02*
X129355855Y-129605340D01*
X129022521Y-129986293D01*
X129165379Y-129986293D01*
X129260617Y-130033912D01*
X129308236Y-130081531D01*
X129355855Y-130176769D01*
X129355855Y-130414864D01*
X129308236Y-130510102D01*
X129260617Y-130557721D01*
X129165379Y-130605340D01*
X128879664Y-130605340D01*
X128784426Y-130557721D01*
X128736807Y-130510102D01*
X129784426Y-130605340D02*
X129784426Y-129605340D01*
X130022521Y-129605340D01*
X130165379Y-129652960D01*
X130260617Y-129748198D01*
X130308236Y-129843436D01*
X130355855Y-130033912D01*
X130355855Y-130176769D01*
X130308236Y-130367245D01*
X130260617Y-130462483D01*
X130165379Y-130557721D01*
X130022521Y-130605340D01*
X129784426Y-130605340D01*
X131498712Y-130557721D02*
X131641569Y-130605340D01*
X131879664Y-130605340D01*
X131974902Y-130557721D01*
X132022521Y-130510102D01*
X132070140Y-130414864D01*
X132070140Y-130319626D01*
X132022521Y-130224388D01*
X131974902Y-130176769D01*
X131879664Y-130129150D01*
X131689188Y-130081531D01*
X131593950Y-130033912D01*
X131546331Y-129986293D01*
X131498712Y-129891055D01*
X131498712Y-129795817D01*
X131546331Y-129700579D01*
X131593950Y-129652960D01*
X131689188Y-129605340D01*
X131927283Y-129605340D01*
X132070140Y-129652960D01*
X132498712Y-130605340D02*
X132498712Y-129605340D01*
X132927283Y-130605340D02*
X132927283Y-130081531D01*
X132879664Y-129986293D01*
X132784426Y-129938674D01*
X132641569Y-129938674D01*
X132546331Y-129986293D01*
X132498712Y-130033912D01*
X133546331Y-130605340D02*
X133451093Y-130557721D01*
X133403474Y-130510102D01*
X133355855Y-130414864D01*
X133355855Y-130129150D01*
X133403474Y-130033912D01*
X133451093Y-129986293D01*
X133546331Y-129938674D01*
X133689188Y-129938674D01*
X133784426Y-129986293D01*
X133832045Y-130033912D01*
X133879664Y-130129150D01*
X133879664Y-130414864D01*
X133832045Y-130510102D01*
X133784426Y-130557721D01*
X133689188Y-130605340D01*
X133546331Y-130605340D01*
X134308236Y-129938674D02*
X134308236Y-130938674D01*
X134308236Y-129986293D02*
X134403474Y-129938674D01*
X134593950Y-129938674D01*
X134689188Y-129986293D01*
X134736807Y-130033912D01*
X134784426Y-130129150D01*
X134784426Y-130414864D01*
X134736807Y-130510102D01*
X134689188Y-130557721D01*
X134593950Y-130605340D01*
X134403474Y-130605340D01*
X134308236Y-130557721D01*
X136784426Y-130605340D02*
X136736807Y-130605340D01*
X136641569Y-130557721D01*
X136498712Y-130414864D01*
X136260617Y-130129150D01*
X136165379Y-129986293D01*
X136117760Y-129843436D01*
X136117760Y-129748198D01*
X136165379Y-129652960D01*
X136260617Y-129605340D01*
X136308236Y-129605340D01*
X136403474Y-129652960D01*
X136451093Y-129748198D01*
X136451093Y-129795817D01*
X136403474Y-129891055D01*
X136355855Y-129938674D01*
X136070140Y-130129150D01*
X136022521Y-130176769D01*
X135974902Y-130272007D01*
X135974902Y-130414864D01*
X136022521Y-130510102D01*
X136070140Y-130557721D01*
X136165379Y-130605340D01*
X136308236Y-130605340D01*
X136403474Y-130557721D01*
X136451093Y-130510102D01*
X136593950Y-130319626D01*
X136641569Y-130176769D01*
X136641569Y-130081531D01*
X137974902Y-130605340D02*
X137974902Y-129605340D01*
X138212998Y-129605340D01*
X138355855Y-129652960D01*
X138451093Y-129748198D01*
X138498712Y-129843436D01*
X138546331Y-130033912D01*
X138546331Y-130176769D01*
X138498712Y-130367245D01*
X138451093Y-130462483D01*
X138355855Y-130557721D01*
X138212998Y-130605340D01*
X137974902Y-130605340D01*
X138974902Y-130605340D02*
X138974902Y-129938674D01*
X138974902Y-130129150D02*
X139022521Y-130033912D01*
X139070140Y-129986293D01*
X139165379Y-129938674D01*
X139260617Y-129938674D01*
X139593950Y-130510102D02*
X139641569Y-130557721D01*
X139593950Y-130605340D01*
X139546331Y-130557721D01*
X139593950Y-130510102D01*
X139593950Y-130605340D01*
X140832045Y-130605340D02*
X140832045Y-129605340D01*
X141070140Y-129605340D01*
X141212998Y-129652960D01*
X141308236Y-129748198D01*
X141355855Y-129843436D01*
X141403474Y-130033912D01*
X141403474Y-130176769D01*
X141355855Y-130367245D01*
X141308236Y-130462483D01*
X141212998Y-130557721D01*
X141070140Y-130605340D01*
X140832045Y-130605340D01*
X142260617Y-130605340D02*
X142260617Y-130081531D01*
X142212998Y-129986293D01*
X142117760Y-129938674D01*
X141927283Y-129938674D01*
X141832045Y-129986293D01*
X142260617Y-130557721D02*
X142165379Y-130605340D01*
X141927283Y-130605340D01*
X141832045Y-130557721D01*
X141784426Y-130462483D01*
X141784426Y-130367245D01*
X141832045Y-130272007D01*
X141927283Y-130224388D01*
X142165379Y-130224388D01*
X142260617Y-130176769D01*
X142641569Y-129938674D02*
X142879664Y-130605340D01*
X143117760Y-129938674D01*
X143879664Y-130557721D02*
X143784426Y-130605340D01*
X143593950Y-130605340D01*
X143498712Y-130557721D01*
X143451093Y-130462483D01*
X143451093Y-130081531D01*
X143498712Y-129986293D01*
X143593950Y-129938674D01*
X143784426Y-129938674D01*
X143879664Y-129986293D01*
X143927283Y-130081531D01*
X143927283Y-130176769D01*
X143451093Y-130272007D01*
X144403474Y-129605340D02*
X144308236Y-129795817D01*
X144784426Y-130557721D02*
X144879664Y-130605340D01*
X145070140Y-130605340D01*
X145165379Y-130557721D01*
X145212998Y-130462483D01*
X145212998Y-130414864D01*
X145165379Y-130319626D01*
X145070140Y-130272007D01*
X144927283Y-130272007D01*
X144832045Y-130224388D01*
X144784426Y-130129150D01*
X144784426Y-130081531D01*
X144832045Y-129986293D01*
X144927283Y-129938674D01*
X145070140Y-129938674D01*
X145165379Y-129986293D01*
X146403474Y-130605340D02*
X146403474Y-129605340D01*
X146641569Y-129605340D01*
X146784426Y-129652960D01*
X146879664Y-129748198D01*
X146927283Y-129843436D01*
X146974902Y-130033912D01*
X146974902Y-130176769D01*
X146927283Y-130367245D01*
X146879664Y-130462483D01*
X146784426Y-130557721D01*
X146641569Y-130605340D01*
X146403474Y-130605340D01*
X147403474Y-130605340D02*
X147403474Y-129938674D01*
X147403474Y-129605340D02*
X147355855Y-129652960D01*
X147403474Y-129700579D01*
X147451093Y-129652960D01*
X147403474Y-129605340D01*
X147403474Y-129700579D01*
X147784426Y-129938674D02*
X148022521Y-130605340D01*
X148260617Y-129938674D01*
X149022521Y-130557721D02*
X148927283Y-130605340D01*
X148736807Y-130605340D01*
X148641569Y-130557721D01*
X148593950Y-130462483D01*
X148593950Y-130081531D01*
X148641569Y-129986293D01*
X148736807Y-129938674D01*
X148927283Y-129938674D01*
X149022521Y-129986293D01*
X149070140Y-130081531D01*
X149070140Y-130176769D01*
X148593950Y-130272007D01*
X149498712Y-130605340D02*
X149498712Y-129938674D01*
X149498712Y-130129150D02*
X149546331Y-130033912D01*
X149593950Y-129986293D01*
X149689188Y-129938674D01*
X149784426Y-129938674D01*
X150070140Y-130557721D02*
X150165379Y-130605340D01*
X150355855Y-130605340D01*
X150451093Y-130557721D01*
X150498712Y-130462483D01*
X150498712Y-130414864D01*
X150451093Y-130319626D01*
X150355855Y-130272007D01*
X150212998Y-130272007D01*
X150117760Y-130224388D01*
X150070140Y-130129150D01*
X150070140Y-130081531D01*
X150117760Y-129986293D01*
X150212998Y-129938674D01*
X150355855Y-129938674D01*
X150451093Y-129986293D01*
X150927283Y-130605340D02*
X150927283Y-129938674D01*
X150927283Y-129605340D02*
X150879664Y-129652960D01*
X150927283Y-129700579D01*
X150974902Y-129652960D01*
X150927283Y-129605340D01*
X150927283Y-129700579D01*
X151546331Y-130605340D02*
X151451093Y-130557721D01*
X151403474Y-130510102D01*
X151355855Y-130414864D01*
X151355855Y-130129150D01*
X151403474Y-130033912D01*
X151451093Y-129986293D01*
X151546331Y-129938674D01*
X151689188Y-129938674D01*
X151784426Y-129986293D01*
X151832045Y-130033912D01*
X151879664Y-130129150D01*
X151879664Y-130414864D01*
X151832045Y-130510102D01*
X151784426Y-130557721D01*
X151689188Y-130605340D01*
X151546331Y-130605340D01*
X152308236Y-129938674D02*
X152308236Y-130605340D01*
X152308236Y-130033912D02*
X152355855Y-129986293D01*
X152451093Y-129938674D01*
X152593950Y-129938674D01*
X152689188Y-129986293D01*
X152736807Y-130081531D01*
X152736807Y-130605340D01*
X153165379Y-130557721D02*
X153260617Y-130605340D01*
X153451093Y-130605340D01*
X153546331Y-130557721D01*
X153593950Y-130462483D01*
X153593950Y-130414864D01*
X153546331Y-130319626D01*
X153451093Y-130272007D01*
X153308236Y-130272007D01*
X153212998Y-130224388D01*
X153165379Y-130129150D01*
X153165379Y-130081531D01*
X153212998Y-129986293D01*
X153308236Y-129938674D01*
X153451093Y-129938674D01*
X153546331Y-129986293D01*
D12*
%TO.C,D2*%
X144428000Y-119803000D02*
X144428000Y-122043000D01*
X144668000Y-119803000D02*
X144668000Y-122043000D01*
X144548000Y-119803000D02*
X144548000Y-122043000D01*
X148718000Y-120923000D02*
X148068000Y-120923000D01*
X143178000Y-120923000D02*
X143828000Y-120923000D01*
X148068000Y-119803000D02*
X143828000Y-119803000D01*
X148068000Y-122043000D02*
X148068000Y-119803000D01*
X143828000Y-122043000D02*
X148068000Y-122043000D01*
X143828000Y-119803000D02*
X143828000Y-122043000D01*
%TO.C,D1*%
X144428000Y-123803000D02*
X144428000Y-126043000D01*
X144668000Y-123803000D02*
X144668000Y-126043000D01*
X144548000Y-123803000D02*
X144548000Y-126043000D01*
X148718000Y-124923000D02*
X148068000Y-124923000D01*
X143178000Y-124923000D02*
X143828000Y-124923000D01*
X148068000Y-123803000D02*
X143828000Y-123803000D01*
X148068000Y-126043000D02*
X148068000Y-123803000D01*
X143828000Y-126043000D02*
X148068000Y-126043000D01*
X143828000Y-123803000D02*
X143828000Y-126043000D01*
%TO.C,C1*%
X134528000Y-117463000D02*
X134528000Y-120203000D01*
X127288000Y-117463000D02*
X127288000Y-120203000D01*
X127288000Y-120203000D02*
X134528000Y-120203000D01*
X127288000Y-117463000D02*
X134528000Y-117463000D01*
%TO.C,C2*%
X149608000Y-114973000D02*
X149608000Y-117713000D01*
X142368000Y-114973000D02*
X142368000Y-117713000D01*
X142368000Y-117713000D02*
X149608000Y-117713000D01*
X142368000Y-114973000D02*
X149608000Y-114973000D01*
%TO.C,J1*%
X116412000Y-121233333D02*
X120444000Y-121233333D01*
X120444000Y-121233333D02*
X120444000Y-88420667D01*
X120444000Y-88420667D02*
X116412000Y-88420667D01*
%TO.C,J3*%
X156500000Y-121179333D02*
X160240000Y-121179333D01*
X156500000Y-88112667D02*
X156500000Y-121179333D01*
X160240000Y-88112667D02*
X156500000Y-88112667D01*
%TO.C,R460*%
X129041000Y-124591000D02*
X129041000Y-126431000D01*
X129041000Y-126431000D02*
X132881000Y-126431000D01*
X132881000Y-126431000D02*
X132881000Y-124591000D01*
X132881000Y-124591000D02*
X129041000Y-124591000D01*
X128091000Y-125511000D02*
X129041000Y-125511000D01*
X133831000Y-125511000D02*
X132881000Y-125511000D01*
%TO.C,J2*%
X155010000Y-79903000D02*
X155010000Y-89023000D01*
X155010000Y-89023000D02*
X121730000Y-89023000D01*
X121730000Y-89023000D02*
X121730000Y-79903000D01*
X121730000Y-79903000D02*
X155010000Y-79903000D01*
X140420000Y-79903000D02*
X140420000Y-81213000D01*
X140420000Y-81213000D02*
X153710000Y-81213000D01*
X153710000Y-81213000D02*
X153710000Y-87713000D01*
X153710000Y-87713000D02*
X123030000Y-87713000D01*
X123030000Y-87713000D02*
X123030000Y-81213000D01*
X123030000Y-81213000D02*
X136320000Y-81213000D01*
X136320000Y-81213000D02*
X136320000Y-81213000D01*
X136320000Y-81213000D02*
X136320000Y-79903000D01*
X149800000Y-79513000D02*
X150300000Y-78513000D01*
X150300000Y-78513000D02*
X149300000Y-78513000D01*
X149300000Y-78513000D02*
X149800000Y-79513000D01*
%TO.C,U2*%
X143297000Y-114014000D02*
X144947000Y-114014000D01*
X143297000Y-96114000D02*
X143297000Y-114014000D01*
X148597000Y-96114000D02*
X143297000Y-96114000D01*
X148597000Y-114014000D02*
X148597000Y-96114000D01*
X146947000Y-114014000D02*
X148597000Y-114014000D01*
X144947000Y-114014000D02*
G75*
G02*
X146947000Y-114014000I1000000J0D01*
G01*
%TO.C,U1*%
X128214000Y-116498000D02*
X129864000Y-116498000D01*
X128214000Y-96058000D02*
X128214000Y-116498000D01*
X133514000Y-96058000D02*
X128214000Y-96058000D01*
X133514000Y-116498000D02*
X133514000Y-96058000D01*
X131864000Y-116498000D02*
X133514000Y-116498000D01*
X129864000Y-116498000D02*
G75*
G02*
X131864000Y-116498000I1000000J0D01*
G01*
%TO.C,D2*%
D11*
X139019904Y-121535380D02*
X139019904Y-120535380D01*
X139258000Y-120535380D01*
X139400857Y-120583000D01*
X139496095Y-120678238D01*
X139543714Y-120773476D01*
X139591333Y-120963952D01*
X139591333Y-121106809D01*
X139543714Y-121297285D01*
X139496095Y-121392523D01*
X139400857Y-121487761D01*
X139258000Y-121535380D01*
X139019904Y-121535380D01*
X139972285Y-120630619D02*
X140019904Y-120583000D01*
X140115142Y-120535380D01*
X140353238Y-120535380D01*
X140448476Y-120583000D01*
X140496095Y-120630619D01*
X140543714Y-120725857D01*
X140543714Y-120821095D01*
X140496095Y-120963952D01*
X139924666Y-121535380D01*
X140543714Y-121535380D01*
X141876095Y-119575380D02*
X141876095Y-118575380D01*
X142447523Y-119575380D02*
X142018952Y-119003952D01*
X142447523Y-118575380D02*
X141876095Y-119146809D01*
%TO.C,D1*%
X139039904Y-125525380D02*
X139039904Y-124525380D01*
X139278000Y-124525380D01*
X139420857Y-124573000D01*
X139516095Y-124668238D01*
X139563714Y-124763476D01*
X139611333Y-124953952D01*
X139611333Y-125096809D01*
X139563714Y-125287285D01*
X139516095Y-125382523D01*
X139420857Y-125477761D01*
X139278000Y-125525380D01*
X139039904Y-125525380D01*
X140563714Y-125525380D02*
X139992285Y-125525380D01*
X140278000Y-125525380D02*
X140278000Y-124525380D01*
X140182761Y-124668238D01*
X140087523Y-124763476D01*
X139992285Y-124811095D01*
X141876095Y-123575380D02*
X141876095Y-122575380D01*
X142447523Y-123575380D02*
X142018952Y-123003952D01*
X142447523Y-122575380D02*
X141876095Y-123146809D01*
%TO.C,C1*%
X125871093Y-119270102D02*
X125823474Y-119317721D01*
X125680617Y-119365340D01*
X125585379Y-119365340D01*
X125442521Y-119317721D01*
X125347283Y-119222483D01*
X125299664Y-119127245D01*
X125252045Y-118936769D01*
X125252045Y-118793912D01*
X125299664Y-118603436D01*
X125347283Y-118508198D01*
X125442521Y-118412960D01*
X125585379Y-118365340D01*
X125680617Y-118365340D01*
X125823474Y-118412960D01*
X125871093Y-118460579D01*
X126823474Y-119365340D02*
X126252045Y-119365340D01*
X126537760Y-119365340D02*
X126537760Y-118365340D01*
X126442521Y-118508198D01*
X126347283Y-118603436D01*
X126252045Y-118651055D01*
%TO.C,C2*%
X140871093Y-116820102D02*
X140823474Y-116867721D01*
X140680617Y-116915340D01*
X140585379Y-116915340D01*
X140442521Y-116867721D01*
X140347283Y-116772483D01*
X140299664Y-116677245D01*
X140252045Y-116486769D01*
X140252045Y-116343912D01*
X140299664Y-116153436D01*
X140347283Y-116058198D01*
X140442521Y-115962960D01*
X140585379Y-115915340D01*
X140680617Y-115915340D01*
X140823474Y-115962960D01*
X140871093Y-116010579D01*
X141252045Y-116010579D02*
X141299664Y-115962960D01*
X141394902Y-115915340D01*
X141632998Y-115915340D01*
X141728236Y-115962960D01*
X141775855Y-116010579D01*
X141823474Y-116105817D01*
X141823474Y-116201055D01*
X141775855Y-116343912D01*
X141204426Y-116915340D01*
X141823474Y-116915340D01*
%TO.C,J1*%
X121269480Y-105028233D02*
X121983766Y-105028233D01*
X122126623Y-105075852D01*
X122221861Y-105171090D01*
X122269480Y-105313947D01*
X122269480Y-105409185D01*
X122269480Y-104028233D02*
X122269480Y-104599661D01*
X122269480Y-104313947D02*
X121269480Y-104313947D01*
X121412338Y-104409185D01*
X121507576Y-104504423D01*
X121555195Y-104599661D01*
%TO.C,J3*%
X154843380Y-104943733D02*
X155557666Y-104943733D01*
X155700523Y-104991352D01*
X155795761Y-105086590D01*
X155843380Y-105229447D01*
X155843380Y-105324685D01*
X154843380Y-104562780D02*
X154843380Y-103943733D01*
X155224333Y-104277066D01*
X155224333Y-104134209D01*
X155271952Y-104038971D01*
X155319571Y-103991352D01*
X155414809Y-103943733D01*
X155652904Y-103943733D01*
X155748142Y-103991352D01*
X155795761Y-104038971D01*
X155843380Y-104134209D01*
X155843380Y-104419923D01*
X155795761Y-104515161D01*
X155748142Y-104562780D01*
%TO.C,R460*%
X129841952Y-124043380D02*
X129508619Y-123567190D01*
X129270523Y-124043380D02*
X129270523Y-123043380D01*
X129651476Y-123043380D01*
X129746714Y-123091000D01*
X129794333Y-123138619D01*
X129841952Y-123233857D01*
X129841952Y-123376714D01*
X129794333Y-123471952D01*
X129746714Y-123519571D01*
X129651476Y-123567190D01*
X129270523Y-123567190D01*
X130699095Y-123376714D02*
X130699095Y-124043380D01*
X130461000Y-122995761D02*
X130222904Y-123710047D01*
X130841952Y-123710047D01*
X131651476Y-123043380D02*
X131461000Y-123043380D01*
X131365761Y-123091000D01*
X131318142Y-123138619D01*
X131222904Y-123281476D01*
X131175285Y-123471952D01*
X131175285Y-123852904D01*
X131222904Y-123948142D01*
X131270523Y-123995761D01*
X131365761Y-124043380D01*
X131556238Y-124043380D01*
X131651476Y-123995761D01*
X131699095Y-123948142D01*
X131746714Y-123852904D01*
X131746714Y-123614809D01*
X131699095Y-123519571D01*
X131651476Y-123471952D01*
X131556238Y-123424333D01*
X131365761Y-123424333D01*
X131270523Y-123471952D01*
X131222904Y-123519571D01*
X131175285Y-123614809D01*
X132365761Y-123043380D02*
X132461000Y-123043380D01*
X132556238Y-123091000D01*
X132603857Y-123138619D01*
X132651476Y-123233857D01*
X132699095Y-123424333D01*
X132699095Y-123662428D01*
X132651476Y-123852904D01*
X132603857Y-123948142D01*
X132556238Y-123995761D01*
X132461000Y-124043380D01*
X132365761Y-124043380D01*
X132270523Y-123995761D01*
X132222904Y-123948142D01*
X132175285Y-123852904D01*
X132127666Y-123662428D01*
X132127666Y-123424333D01*
X132175285Y-123233857D01*
X132222904Y-123138619D01*
X132270523Y-123091000D01*
X132365761Y-123043380D01*
X124825333Y-125963380D02*
X124492000Y-125487190D01*
X124253904Y-125963380D02*
X124253904Y-124963380D01*
X124634857Y-124963380D01*
X124730095Y-125011000D01*
X124777714Y-125058619D01*
X124825333Y-125153857D01*
X124825333Y-125296714D01*
X124777714Y-125391952D01*
X124730095Y-125439571D01*
X124634857Y-125487190D01*
X124253904Y-125487190D01*
X125777714Y-125963380D02*
X125206285Y-125963380D01*
X125492000Y-125963380D02*
X125492000Y-124963380D01*
X125396761Y-125106238D01*
X125301523Y-125201476D01*
X125206285Y-125249095D01*
%TO.C,J2*%
X138250066Y-89787880D02*
X138250066Y-90502166D01*
X138202447Y-90645023D01*
X138107209Y-90740261D01*
X137964352Y-90787880D01*
X137869114Y-90787880D01*
X138678638Y-89883119D02*
X138726257Y-89835500D01*
X138821495Y-89787880D01*
X139059590Y-89787880D01*
X139154828Y-89835500D01*
X139202447Y-89883119D01*
X139250066Y-89978357D01*
X139250066Y-90073595D01*
X139202447Y-90216452D01*
X138631019Y-90787880D01*
X139250066Y-90787880D01*
%TO.C,U2*%
X145185095Y-92451380D02*
X145185095Y-93260904D01*
X145232714Y-93356142D01*
X145280333Y-93403761D01*
X145375571Y-93451380D01*
X145566047Y-93451380D01*
X145661285Y-93403761D01*
X145708904Y-93356142D01*
X145756523Y-93260904D01*
X145756523Y-92451380D01*
X146185095Y-92546619D02*
X146232714Y-92499000D01*
X146327952Y-92451380D01*
X146566047Y-92451380D01*
X146661285Y-92499000D01*
X146708904Y-92546619D01*
X146756523Y-92641857D01*
X146756523Y-92737095D01*
X146708904Y-92879952D01*
X146137476Y-93451380D01*
X146756523Y-93451380D01*
X142827952Y-93975380D02*
X143494619Y-93975380D01*
X143066047Y-94975380D01*
X144304142Y-94308714D02*
X144304142Y-94975380D01*
X144066047Y-93927761D02*
X143827952Y-94642047D01*
X144447000Y-94642047D01*
X145304142Y-94975380D02*
X144827952Y-94975380D01*
X144827952Y-93975380D01*
X145589857Y-94927761D02*
X145732714Y-94975380D01*
X145970809Y-94975380D01*
X146066047Y-94927761D01*
X146113666Y-94880142D01*
X146161285Y-94784904D01*
X146161285Y-94689666D01*
X146113666Y-94594428D01*
X146066047Y-94546809D01*
X145970809Y-94499190D01*
X145780333Y-94451571D01*
X145685095Y-94403952D01*
X145637476Y-94356333D01*
X145589857Y-94261095D01*
X145589857Y-94165857D01*
X145637476Y-94070619D01*
X145685095Y-94023000D01*
X145780333Y-93975380D01*
X146018428Y-93975380D01*
X146161285Y-94023000D01*
X146494619Y-93975380D02*
X147113666Y-93975380D01*
X146780333Y-94356333D01*
X146923190Y-94356333D01*
X147018428Y-94403952D01*
X147066047Y-94451571D01*
X147113666Y-94546809D01*
X147113666Y-94784904D01*
X147066047Y-94880142D01*
X147018428Y-94927761D01*
X146923190Y-94975380D01*
X146637476Y-94975380D01*
X146542238Y-94927761D01*
X146494619Y-94880142D01*
X147589857Y-94975380D02*
X147780333Y-94975380D01*
X147875571Y-94927761D01*
X147923190Y-94880142D01*
X148018428Y-94737285D01*
X148066047Y-94546809D01*
X148066047Y-94165857D01*
X148018428Y-94070619D01*
X147970809Y-94023000D01*
X147875571Y-93975380D01*
X147685095Y-93975380D01*
X147589857Y-94023000D01*
X147542238Y-94070619D01*
X147494619Y-94165857D01*
X147494619Y-94403952D01*
X147542238Y-94499190D01*
X147589857Y-94546809D01*
X147685095Y-94594428D01*
X147875571Y-94594428D01*
X147970809Y-94546809D01*
X148018428Y-94499190D01*
X148066047Y-94403952D01*
X148399380Y-93975380D02*
X149018428Y-93975380D01*
X148685095Y-94356333D01*
X148827952Y-94356333D01*
X148923190Y-94403952D01*
X148970809Y-94451571D01*
X149018428Y-94546809D01*
X149018428Y-94784904D01*
X148970809Y-94880142D01*
X148923190Y-94927761D01*
X148827952Y-94975380D01*
X148542238Y-94975380D01*
X148447000Y-94927761D01*
X148399380Y-94880142D01*
X145185095Y-104516380D02*
X145185095Y-105325904D01*
X145232714Y-105421142D01*
X145280333Y-105468761D01*
X145375571Y-105516380D01*
X145566047Y-105516380D01*
X145661285Y-105468761D01*
X145708904Y-105421142D01*
X145756523Y-105325904D01*
X145756523Y-104516380D01*
X146185095Y-104611619D02*
X146232714Y-104564000D01*
X146327952Y-104516380D01*
X146566047Y-104516380D01*
X146661285Y-104564000D01*
X146708904Y-104611619D01*
X146756523Y-104706857D01*
X146756523Y-104802095D01*
X146708904Y-104944952D01*
X146137476Y-105516380D01*
X146756523Y-105516380D01*
%TO.C,U1*%
X130198595Y-92578380D02*
X130198595Y-93387904D01*
X130246214Y-93483142D01*
X130293833Y-93530761D01*
X130389071Y-93578380D01*
X130579547Y-93578380D01*
X130674785Y-93530761D01*
X130722404Y-93483142D01*
X130770023Y-93387904D01*
X130770023Y-92578380D01*
X131770023Y-93578380D02*
X131198595Y-93578380D01*
X131484309Y-93578380D02*
X131484309Y-92578380D01*
X131389071Y-92721238D01*
X131293833Y-92816476D01*
X131198595Y-92864095D01*
X127841452Y-93975380D02*
X128508119Y-93975380D01*
X128079547Y-94975380D01*
X129317642Y-94308714D02*
X129317642Y-94975380D01*
X129079547Y-93927761D02*
X128841452Y-94642047D01*
X129460500Y-94642047D01*
X130317642Y-94975380D02*
X129841452Y-94975380D01*
X129841452Y-93975380D01*
X130603357Y-94927761D02*
X130746214Y-94975380D01*
X130984309Y-94975380D01*
X131079547Y-94927761D01*
X131127166Y-94880142D01*
X131174785Y-94784904D01*
X131174785Y-94689666D01*
X131127166Y-94594428D01*
X131079547Y-94546809D01*
X130984309Y-94499190D01*
X130793833Y-94451571D01*
X130698595Y-94403952D01*
X130650976Y-94356333D01*
X130603357Y-94261095D01*
X130603357Y-94165857D01*
X130650976Y-94070619D01*
X130698595Y-94023000D01*
X130793833Y-93975380D01*
X131031928Y-93975380D01*
X131174785Y-94023000D01*
X132127166Y-94975380D02*
X131555738Y-94975380D01*
X131841452Y-94975380D02*
X131841452Y-93975380D01*
X131746214Y-94118238D01*
X131650976Y-94213476D01*
X131555738Y-94261095D01*
X132460500Y-93975380D02*
X133079547Y-93975380D01*
X132746214Y-94356333D01*
X132889071Y-94356333D01*
X132984309Y-94403952D01*
X133031928Y-94451571D01*
X133079547Y-94546809D01*
X133079547Y-94784904D01*
X133031928Y-94880142D01*
X132984309Y-94927761D01*
X132889071Y-94975380D01*
X132603357Y-94975380D01*
X132508119Y-94927761D01*
X132460500Y-94880142D01*
X133555738Y-94975380D02*
X133746214Y-94975380D01*
X133841452Y-94927761D01*
X133889071Y-94880142D01*
X133984309Y-94737285D01*
X134031928Y-94546809D01*
X134031928Y-94165857D01*
X133984309Y-94070619D01*
X133936690Y-94023000D01*
X133841452Y-93975380D01*
X133650976Y-93975380D01*
X133555738Y-94023000D01*
X133508119Y-94070619D01*
X133460500Y-94165857D01*
X133460500Y-94403952D01*
X133508119Y-94499190D01*
X133555738Y-94546809D01*
X133650976Y-94594428D01*
X133841452Y-94594428D01*
X133936690Y-94546809D01*
X133984309Y-94499190D01*
X134031928Y-94403952D01*
X130102095Y-105730380D02*
X130102095Y-106539904D01*
X130149714Y-106635142D01*
X130197333Y-106682761D01*
X130292571Y-106730380D01*
X130483047Y-106730380D01*
X130578285Y-106682761D01*
X130625904Y-106635142D01*
X130673523Y-106539904D01*
X130673523Y-105730380D01*
X131673523Y-106730380D02*
X131102095Y-106730380D01*
X131387809Y-106730380D02*
X131387809Y-105730380D01*
X131292571Y-105873238D01*
X131197333Y-105968476D01*
X131102095Y-106016095D01*
%TD*%
M02*
