M48
; DRILL file {KiCad (5.1.9)-1} date 05/27/21 14:44:46
; FORMAT={-:-/ absolute / inch / decimal}
; #@! TF.CreationDate,2021-05-27T14:44:46-04:00
; #@! TF.GenerationSoftware,Kicad,Pcbnew,(5.1.9)-1
; #@! TF.FileFunction,Plated,1,2,PTH
FMAT,2
INCH
T1C0.0157
T2C0.0276
T3C0.0315
T4C0.0394
%
G90
G05
T1
X4.7637Y-3.7254
X5.1248Y-3.995
X5.5676Y-4.5802
X5.7752Y-4.4794
X5.785Y-3.6784
X5.937Y-4.538
X5.9921Y-4.5529
X6.073Y-3.8579
X6.0833Y-4.1572
X6.1333Y-3.9925
X6.1477Y-3.7316
T2
X5.0059Y-4.9414
X5.3059Y-4.9414
T3
X5.0021Y-3.8342
X5.0021Y-3.9342
X5.0021Y-4.0342
X5.0021Y-4.1342
X5.0021Y-4.2342
X5.0021Y-4.3342
X5.0021Y-4.4342
X5.0021Y-4.5342
X5.0554Y-4.6785
X5.2523Y-4.6785
X5.3021Y-3.8342
X5.3021Y-3.9342
X5.3021Y-4.0342
X5.3021Y-4.1342
X5.3021Y-4.2342
X5.3021Y-4.3342
X5.3021Y-4.4342
X5.3021Y-4.5342
X5.5959Y-3.8364
X5.5959Y-3.9364
X5.5959Y-4.0364
X5.5959Y-4.1364
X5.5959Y-4.2364
X5.5959Y-4.3364
X5.5959Y-4.4364
X5.596Y-4.7607
X5.596Y-4.9182
X5.6491Y-4.5804
X5.846Y-4.5804
X5.8959Y-3.8364
X5.8959Y-3.9364
X5.8959Y-4.0364
X5.8959Y-4.1364
X5.8959Y-4.2364
X5.8959Y-4.3364
X5.8959Y-4.4364
X5.896Y-4.7607
X5.896Y-4.9182
T4
X4.9976Y-3.2753
X4.9976Y-3.3753
X5.0976Y-3.2753
X5.0976Y-3.3753
X5.1976Y-3.2753
X5.1976Y-3.3753
X5.2976Y-3.2753
X5.2976Y-3.3753
X5.3976Y-3.2753
X5.3976Y-3.3753
X5.4976Y-3.2753
X5.4976Y-3.3753
X5.5976Y-3.2753
X5.5976Y-3.3753
X5.6976Y-3.2753
X5.6976Y-3.3753
X5.7976Y-3.2753
X5.7976Y-3.3753
X5.8976Y-3.2753
X5.8976Y-3.3753
T0
M30
