%TF.GenerationSoftware,KiCad,Pcbnew,(5.1.9)-1*%
%TF.CreationDate,2021-05-27T14:44:41-04:00*%
%TF.ProjectId,Aimga2MacFloppy,41696d67-6132-44d6-9163-466c6f707079,1.0*%
%TF.SameCoordinates,Original*%
%TF.FileFunction,Legend,Bot*%
%TF.FilePolarity,Positive*%
%FSLAX46Y46*%
G04 Gerber Fmt 4.6, Leading zero omitted, Abs format (unit mm)*
G04 Created by KiCad (PCBNEW (5.1.9)-1) date 2021-05-27 14:44:41*
%MOMM*%
%LPD*%
G01*
G04 APERTURE LIST*
%ADD10C,0.150000*%
G04 APERTURE END LIST*
D10*
X152991474Y-99495531D02*
X152991474Y-99195531D01*
X153462902Y-99195531D02*
X152562902Y-99195531D01*
X152562902Y-99624102D01*
X153462902Y-99966960D02*
X152862902Y-99966960D01*
X153034331Y-99966960D02*
X152948617Y-100009817D01*
X152905760Y-100052674D01*
X152862902Y-100138388D01*
X152862902Y-100224102D01*
X153462902Y-100909817D02*
X152991474Y-100909817D01*
X152905760Y-100866960D01*
X152862902Y-100781245D01*
X152862902Y-100609817D01*
X152905760Y-100524102D01*
X153420045Y-100909817D02*
X153462902Y-100824102D01*
X153462902Y-100609817D01*
X153420045Y-100524102D01*
X153334331Y-100481245D01*
X153248617Y-100481245D01*
X153162902Y-100524102D01*
X153120045Y-100609817D01*
X153120045Y-100824102D01*
X153077188Y-100909817D01*
X152862902Y-101338388D02*
X153462902Y-101338388D01*
X152948617Y-101338388D02*
X152905760Y-101381245D01*
X152862902Y-101466960D01*
X152862902Y-101595531D01*
X152905760Y-101681245D01*
X152991474Y-101724102D01*
X153462902Y-101724102D01*
X153462902Y-102152674D02*
X152562902Y-102152674D01*
X153120045Y-102238388D02*
X153462902Y-102495531D01*
X152862902Y-102495531D02*
X153205760Y-102152674D01*
X152562902Y-102924102D02*
X152734331Y-102838388D01*
X153420045Y-103266960D02*
X153462902Y-103352674D01*
X153462902Y-103524102D01*
X153420045Y-103609817D01*
X153334331Y-103652674D01*
X153291474Y-103652674D01*
X153205760Y-103609817D01*
X153162902Y-103524102D01*
X153162902Y-103395531D01*
X153120045Y-103309817D01*
X153034331Y-103266960D01*
X152991474Y-103266960D01*
X152905760Y-103309817D01*
X152862902Y-103395531D01*
X152862902Y-103524102D01*
X152905760Y-103609817D01*
X152562902Y-104638388D02*
X152562902Y-105195531D01*
X152905760Y-104895531D01*
X152905760Y-105024102D01*
X152948617Y-105109817D01*
X152991474Y-105152674D01*
X153077188Y-105195531D01*
X153291474Y-105195531D01*
X153377188Y-105152674D01*
X153420045Y-105109817D01*
X153462902Y-105024102D01*
X153462902Y-104766960D01*
X153420045Y-104681245D01*
X153377188Y-104638388D01*
X153462902Y-105581245D02*
X152562902Y-105581245D01*
X152562902Y-105795531D01*
X152605760Y-105924102D01*
X152691474Y-106009817D01*
X152777188Y-106052674D01*
X152948617Y-106095531D01*
X153077188Y-106095531D01*
X153248617Y-106052674D01*
X153334331Y-106009817D01*
X153420045Y-105924102D01*
X153462902Y-105795531D01*
X153462902Y-105581245D01*
X153420045Y-107124102D02*
X153462902Y-107252674D01*
X153462902Y-107466960D01*
X153420045Y-107552674D01*
X153377188Y-107595531D01*
X153291474Y-107638388D01*
X153205760Y-107638388D01*
X153120045Y-107595531D01*
X153077188Y-107552674D01*
X153034331Y-107466960D01*
X152991474Y-107295531D01*
X152948617Y-107209817D01*
X152905760Y-107166960D01*
X152820045Y-107124102D01*
X152734331Y-107124102D01*
X152648617Y-107166960D01*
X152605760Y-107209817D01*
X152562902Y-107295531D01*
X152562902Y-107509817D01*
X152605760Y-107638388D01*
X153462902Y-108024102D02*
X152562902Y-108024102D01*
X153462902Y-108409817D02*
X152991474Y-108409817D01*
X152905760Y-108366960D01*
X152862902Y-108281245D01*
X152862902Y-108152674D01*
X152905760Y-108066960D01*
X152948617Y-108024102D01*
X153462902Y-108966960D02*
X153420045Y-108881245D01*
X153377188Y-108838388D01*
X153291474Y-108795531D01*
X153034331Y-108795531D01*
X152948617Y-108838388D01*
X152905760Y-108881245D01*
X152862902Y-108966960D01*
X152862902Y-109095531D01*
X152905760Y-109181245D01*
X152948617Y-109224102D01*
X153034331Y-109266960D01*
X153291474Y-109266960D01*
X153377188Y-109224102D01*
X153420045Y-109181245D01*
X153462902Y-109095531D01*
X153462902Y-108966960D01*
X152862902Y-109652674D02*
X153762902Y-109652674D01*
X152905760Y-109652674D02*
X152862902Y-109738388D01*
X152862902Y-109909817D01*
X152905760Y-109995531D01*
X152948617Y-110038388D01*
X153034331Y-110081245D01*
X153291474Y-110081245D01*
X153377188Y-110038388D01*
X153420045Y-109995531D01*
X153462902Y-109909817D01*
X153462902Y-109738388D01*
X153420045Y-109652674D01*
X154962902Y-86702674D02*
X154062902Y-86702674D01*
X154962902Y-87088388D02*
X154491474Y-87088388D01*
X154405760Y-87045531D01*
X154362902Y-86959817D01*
X154362902Y-86831245D01*
X154405760Y-86745531D01*
X154448617Y-86702674D01*
X154362902Y-87388388D02*
X154362902Y-87731245D01*
X154062902Y-87516960D02*
X154834331Y-87516960D01*
X154920045Y-87559817D01*
X154962902Y-87645531D01*
X154962902Y-87731245D01*
X154362902Y-87902674D02*
X154362902Y-88245531D01*
X154062902Y-88031245D02*
X154834331Y-88031245D01*
X154920045Y-88074102D01*
X154962902Y-88159817D01*
X154962902Y-88245531D01*
X154362902Y-88545531D02*
X155262902Y-88545531D01*
X154405760Y-88545531D02*
X154362902Y-88631245D01*
X154362902Y-88802674D01*
X154405760Y-88888388D01*
X154448617Y-88931245D01*
X154534331Y-88974102D01*
X154791474Y-88974102D01*
X154877188Y-88931245D01*
X154920045Y-88888388D01*
X154962902Y-88802674D01*
X154962902Y-88631245D01*
X154920045Y-88545531D01*
X154920045Y-89316960D02*
X154962902Y-89402674D01*
X154962902Y-89574102D01*
X154920045Y-89659817D01*
X154834331Y-89702674D01*
X154791474Y-89702674D01*
X154705760Y-89659817D01*
X154662902Y-89574102D01*
X154662902Y-89445531D01*
X154620045Y-89359817D01*
X154534331Y-89316960D01*
X154491474Y-89316960D01*
X154405760Y-89359817D01*
X154362902Y-89445531D01*
X154362902Y-89574102D01*
X154405760Y-89659817D01*
X154877188Y-90088388D02*
X154920045Y-90131245D01*
X154962902Y-90088388D01*
X154920045Y-90045531D01*
X154877188Y-90088388D01*
X154962902Y-90088388D01*
X154405760Y-90088388D02*
X154448617Y-90131245D01*
X154491474Y-90088388D01*
X154448617Y-90045531D01*
X154405760Y-90088388D01*
X154491474Y-90088388D01*
X154020045Y-91159817D02*
X155177188Y-90388388D01*
X154020045Y-92102674D02*
X155177188Y-91331245D01*
X154362902Y-92788388D02*
X155091474Y-92788388D01*
X155177188Y-92745531D01*
X155220045Y-92702674D01*
X155262902Y-92616960D01*
X155262902Y-92488388D01*
X155220045Y-92402674D01*
X154920045Y-92788388D02*
X154962902Y-92702674D01*
X154962902Y-92531245D01*
X154920045Y-92445531D01*
X154877188Y-92402674D01*
X154791474Y-92359817D01*
X154534331Y-92359817D01*
X154448617Y-92402674D01*
X154405760Y-92445531D01*
X154362902Y-92531245D01*
X154362902Y-92702674D01*
X154405760Y-92788388D01*
X154962902Y-93216960D02*
X154362902Y-93216960D01*
X154062902Y-93216960D02*
X154105760Y-93174102D01*
X154148617Y-93216960D01*
X154105760Y-93259817D01*
X154062902Y-93216960D01*
X154148617Y-93216960D01*
X154362902Y-93516960D02*
X154362902Y-93859817D01*
X154062902Y-93645531D02*
X154834331Y-93645531D01*
X154920045Y-93688388D01*
X154962902Y-93774102D01*
X154962902Y-93859817D01*
X154962902Y-94159817D02*
X154062902Y-94159817D01*
X154962902Y-94545531D02*
X154491474Y-94545531D01*
X154405760Y-94502674D01*
X154362902Y-94416960D01*
X154362902Y-94288388D01*
X154405760Y-94202674D01*
X154448617Y-94159817D01*
X154362902Y-95359817D02*
X154962902Y-95359817D01*
X154362902Y-94974102D02*
X154834331Y-94974102D01*
X154920045Y-95016960D01*
X154962902Y-95102674D01*
X154962902Y-95231245D01*
X154920045Y-95316960D01*
X154877188Y-95359817D01*
X154962902Y-95788388D02*
X154062902Y-95788388D01*
X154405760Y-95788388D02*
X154362902Y-95874102D01*
X154362902Y-96045531D01*
X154405760Y-96131245D01*
X154448617Y-96174102D01*
X154534331Y-96216960D01*
X154791474Y-96216960D01*
X154877188Y-96174102D01*
X154920045Y-96131245D01*
X154962902Y-96045531D01*
X154962902Y-95874102D01*
X154920045Y-95788388D01*
X154877188Y-96602674D02*
X154920045Y-96645531D01*
X154962902Y-96602674D01*
X154920045Y-96559817D01*
X154877188Y-96602674D01*
X154962902Y-96602674D01*
X154920045Y-97416960D02*
X154962902Y-97331245D01*
X154962902Y-97159817D01*
X154920045Y-97074102D01*
X154877188Y-97031245D01*
X154791474Y-96988388D01*
X154534331Y-96988388D01*
X154448617Y-97031245D01*
X154405760Y-97074102D01*
X154362902Y-97159817D01*
X154362902Y-97331245D01*
X154405760Y-97416960D01*
X154962902Y-97931245D02*
X154920045Y-97845531D01*
X154877188Y-97802674D01*
X154791474Y-97759817D01*
X154534331Y-97759817D01*
X154448617Y-97802674D01*
X154405760Y-97845531D01*
X154362902Y-97931245D01*
X154362902Y-98059817D01*
X154405760Y-98145531D01*
X154448617Y-98188388D01*
X154534331Y-98231245D01*
X154791474Y-98231245D01*
X154877188Y-98188388D01*
X154920045Y-98145531D01*
X154962902Y-98059817D01*
X154962902Y-97931245D01*
X154962902Y-98616960D02*
X154362902Y-98616960D01*
X154448617Y-98616960D02*
X154405760Y-98659817D01*
X154362902Y-98745531D01*
X154362902Y-98874102D01*
X154405760Y-98959817D01*
X154491474Y-99002674D01*
X154962902Y-99002674D01*
X154491474Y-99002674D02*
X154405760Y-99045531D01*
X154362902Y-99131245D01*
X154362902Y-99259817D01*
X154405760Y-99345531D01*
X154491474Y-99388388D01*
X154962902Y-99388388D01*
X154020045Y-100459817D02*
X155177188Y-99688388D01*
X154491474Y-101059817D02*
X154491474Y-100759817D01*
X154962902Y-100759817D02*
X154062902Y-100759817D01*
X154062902Y-101188388D01*
X154962902Y-101531245D02*
X154362902Y-101531245D01*
X154534331Y-101531245D02*
X154448617Y-101574102D01*
X154405760Y-101616960D01*
X154362902Y-101702674D01*
X154362902Y-101788388D01*
X154962902Y-102474102D02*
X154491474Y-102474102D01*
X154405760Y-102431245D01*
X154362902Y-102345531D01*
X154362902Y-102174102D01*
X154405760Y-102088388D01*
X154920045Y-102474102D02*
X154962902Y-102388388D01*
X154962902Y-102174102D01*
X154920045Y-102088388D01*
X154834331Y-102045531D01*
X154748617Y-102045531D01*
X154662902Y-102088388D01*
X154620045Y-102174102D01*
X154620045Y-102388388D01*
X154577188Y-102474102D01*
X154362902Y-102902674D02*
X154962902Y-102902674D01*
X154448617Y-102902674D02*
X154405760Y-102945531D01*
X154362902Y-103031245D01*
X154362902Y-103159817D01*
X154405760Y-103245531D01*
X154491474Y-103288388D01*
X154962902Y-103288388D01*
X154962902Y-103716960D02*
X154062902Y-103716960D01*
X154620045Y-103802674D02*
X154962902Y-104059817D01*
X154362902Y-104059817D02*
X154705760Y-103716960D01*
X154920045Y-104402674D02*
X154962902Y-104488388D01*
X154962902Y-104659817D01*
X154920045Y-104745531D01*
X154834331Y-104788388D01*
X154791474Y-104788388D01*
X154705760Y-104745531D01*
X154662902Y-104659817D01*
X154662902Y-104531245D01*
X154620045Y-104445531D01*
X154534331Y-104402674D01*
X154491474Y-104402674D01*
X154405760Y-104445531D01*
X154362902Y-104531245D01*
X154362902Y-104659817D01*
X154405760Y-104745531D01*
X154062902Y-105088388D02*
X154062902Y-105645531D01*
X154405760Y-105345531D01*
X154405760Y-105474102D01*
X154448617Y-105559817D01*
X154491474Y-105602674D01*
X154577188Y-105645531D01*
X154791474Y-105645531D01*
X154877188Y-105602674D01*
X154920045Y-105559817D01*
X154962902Y-105474102D01*
X154962902Y-105216960D01*
X154920045Y-105131245D01*
X154877188Y-105088388D01*
X154962902Y-106416960D02*
X154062902Y-106416960D01*
X154920045Y-106416960D02*
X154962902Y-106331245D01*
X154962902Y-106159817D01*
X154920045Y-106074102D01*
X154877188Y-106031245D01*
X154791474Y-105988388D01*
X154534331Y-105988388D01*
X154448617Y-106031245D01*
X154405760Y-106074102D01*
X154362902Y-106159817D01*
X154362902Y-106331245D01*
X154405760Y-106416960D01*
X154920045Y-106802674D02*
X154962902Y-106931245D01*
X154962902Y-107145531D01*
X154920045Y-107231245D01*
X154877188Y-107274102D01*
X154791474Y-107316960D01*
X154705760Y-107316960D01*
X154620045Y-107274102D01*
X154577188Y-107231245D01*
X154534331Y-107145531D01*
X154491474Y-106974102D01*
X154448617Y-106888388D01*
X154405760Y-106845531D01*
X154320045Y-106802674D01*
X154234331Y-106802674D01*
X154148617Y-106845531D01*
X154105760Y-106888388D01*
X154062902Y-106974102D01*
X154062902Y-107188388D01*
X154105760Y-107316960D01*
X154962902Y-107702674D02*
X154062902Y-107702674D01*
X154962902Y-108088388D02*
X154491474Y-108088388D01*
X154405760Y-108045531D01*
X154362902Y-107959817D01*
X154362902Y-107831245D01*
X154405760Y-107745531D01*
X154448617Y-107702674D01*
X154962902Y-108645531D02*
X154920045Y-108559817D01*
X154877188Y-108516960D01*
X154791474Y-108474102D01*
X154534331Y-108474102D01*
X154448617Y-108516960D01*
X154405760Y-108559817D01*
X154362902Y-108645531D01*
X154362902Y-108774102D01*
X154405760Y-108859817D01*
X154448617Y-108902674D01*
X154534331Y-108945531D01*
X154791474Y-108945531D01*
X154877188Y-108902674D01*
X154920045Y-108859817D01*
X154962902Y-108774102D01*
X154962902Y-108645531D01*
X154362902Y-109331245D02*
X155262902Y-109331245D01*
X154405760Y-109331245D02*
X154362902Y-109416960D01*
X154362902Y-109588388D01*
X154405760Y-109674102D01*
X154448617Y-109716960D01*
X154534331Y-109759817D01*
X154791474Y-109759817D01*
X154877188Y-109716960D01*
X154920045Y-109674102D01*
X154962902Y-109588388D01*
X154962902Y-109416960D01*
X154920045Y-109331245D01*
X154020045Y-110788388D02*
X155177188Y-110016960D01*
X154705760Y-111045531D02*
X154705760Y-111474102D01*
X154962902Y-110959817D02*
X154062902Y-111259817D01*
X154962902Y-111559817D01*
X154962902Y-111859817D02*
X154362902Y-111859817D01*
X154448617Y-111859817D02*
X154405760Y-111902674D01*
X154362902Y-111988388D01*
X154362902Y-112116960D01*
X154405760Y-112202674D01*
X154491474Y-112245531D01*
X154962902Y-112245531D01*
X154491474Y-112245531D02*
X154405760Y-112288388D01*
X154362902Y-112374102D01*
X154362902Y-112502674D01*
X154405760Y-112588388D01*
X154491474Y-112631245D01*
X154962902Y-112631245D01*
X154962902Y-113059817D02*
X154362902Y-113059817D01*
X154062902Y-113059817D02*
X154105760Y-113016960D01*
X154148617Y-113059817D01*
X154105760Y-113102674D01*
X154062902Y-113059817D01*
X154148617Y-113059817D01*
X154362902Y-113874102D02*
X155091474Y-113874102D01*
X155177188Y-113831245D01*
X155220045Y-113788388D01*
X155262902Y-113702674D01*
X155262902Y-113574102D01*
X155220045Y-113488388D01*
X154920045Y-113874102D02*
X154962902Y-113788388D01*
X154962902Y-113616960D01*
X154920045Y-113531245D01*
X154877188Y-113488388D01*
X154791474Y-113445531D01*
X154534331Y-113445531D01*
X154448617Y-113488388D01*
X154405760Y-113531245D01*
X154362902Y-113616960D01*
X154362902Y-113788388D01*
X154405760Y-113874102D01*
X154962902Y-114688388D02*
X154491474Y-114688388D01*
X154405760Y-114645531D01*
X154362902Y-114559817D01*
X154362902Y-114388388D01*
X154405760Y-114302674D01*
X154920045Y-114688388D02*
X154962902Y-114602674D01*
X154962902Y-114388388D01*
X154920045Y-114302674D01*
X154834331Y-114259817D01*
X154748617Y-114259817D01*
X154662902Y-114302674D01*
X154620045Y-114388388D01*
X154620045Y-114602674D01*
X154577188Y-114688388D01*
X154148617Y-115074102D02*
X154105760Y-115116960D01*
X154062902Y-115202674D01*
X154062902Y-115416960D01*
X154105760Y-115502674D01*
X154148617Y-115545531D01*
X154234331Y-115588388D01*
X154320045Y-115588388D01*
X154448617Y-115545531D01*
X154962902Y-115031245D01*
X154962902Y-115588388D01*
X154962902Y-115974102D02*
X154062902Y-115974102D01*
X154705760Y-116274102D01*
X154062902Y-116574102D01*
X154962902Y-116574102D01*
X154962902Y-117388388D02*
X154491474Y-117388388D01*
X154405760Y-117345531D01*
X154362902Y-117259817D01*
X154362902Y-117088388D01*
X154405760Y-117002674D01*
X154920045Y-117388388D02*
X154962902Y-117302674D01*
X154962902Y-117088388D01*
X154920045Y-117002674D01*
X154834331Y-116959817D01*
X154748617Y-116959817D01*
X154662902Y-117002674D01*
X154620045Y-117088388D01*
X154620045Y-117302674D01*
X154577188Y-117388388D01*
X154920045Y-118202674D02*
X154962902Y-118116960D01*
X154962902Y-117945531D01*
X154920045Y-117859817D01*
X154877188Y-117816960D01*
X154791474Y-117774102D01*
X154534331Y-117774102D01*
X154448617Y-117816960D01*
X154405760Y-117859817D01*
X154362902Y-117945531D01*
X154362902Y-118116960D01*
X154405760Y-118202674D01*
X154491474Y-118888388D02*
X154491474Y-118588388D01*
X154962902Y-118588388D02*
X154062902Y-118588388D01*
X154062902Y-119016960D01*
X154962902Y-119488388D02*
X154920045Y-119402674D01*
X154834331Y-119359817D01*
X154062902Y-119359817D01*
X154962902Y-119959817D02*
X154920045Y-119874102D01*
X154877188Y-119831245D01*
X154791474Y-119788388D01*
X154534331Y-119788388D01*
X154448617Y-119831245D01*
X154405760Y-119874102D01*
X154362902Y-119959817D01*
X154362902Y-120088388D01*
X154405760Y-120174102D01*
X154448617Y-120216960D01*
X154534331Y-120259817D01*
X154791474Y-120259817D01*
X154877188Y-120216960D01*
X154920045Y-120174102D01*
X154962902Y-120088388D01*
X154962902Y-119959817D01*
X154362902Y-120645531D02*
X155262902Y-120645531D01*
X154405760Y-120645531D02*
X154362902Y-120731245D01*
X154362902Y-120902674D01*
X154405760Y-120988388D01*
X154448617Y-121031245D01*
X154534331Y-121074102D01*
X154791474Y-121074102D01*
X154877188Y-121031245D01*
X154920045Y-120988388D01*
X154962902Y-120902674D01*
X154962902Y-120731245D01*
X154920045Y-120645531D01*
X154362902Y-121459817D02*
X155262902Y-121459817D01*
X154405760Y-121459817D02*
X154362902Y-121545531D01*
X154362902Y-121716960D01*
X154405760Y-121802674D01*
X154448617Y-121845531D01*
X154534331Y-121888388D01*
X154791474Y-121888388D01*
X154877188Y-121845531D01*
X154920045Y-121802674D01*
X154962902Y-121716960D01*
X154962902Y-121545531D01*
X154920045Y-121459817D01*
X154362902Y-122188388D02*
X154962902Y-122402674D01*
X154362902Y-122616960D02*
X154962902Y-122402674D01*
X155177188Y-122316960D01*
X155220045Y-122274102D01*
X155262902Y-122188388D01*
M02*
