M48
; DRILL file {KiCad (5.1.9)-1} date 07/27/21 22:16:19
; FORMAT={-:-/ absolute / inch / decimal}
; #@! TF.CreationDate,2021-07-27T22:16:19-04:00
; #@! TF.GenerationSoftware,Kicad,Pcbnew,(5.1.9)-1
; #@! TF.FileFunction,Plated,1,2,PTH
FMAT,2
INCH
T1C0.0157
T2C0.0315
T3C0.0394
%
G90
G05
T1
X4.7554Y-3.8896
X4.7562Y-3.7256
X5.0609Y-3.8394
X5.3496Y-3.7384
X5.4976Y-4.2633
X5.568Y-4.5002
X5.7255Y-4.7028
X5.7545Y-4.7353
X5.8145Y-3.6477
X6.065Y-3.8342
X6.074Y-4.1562
X6.146Y-3.858
X6.1468Y-3.7435
T2
X5.0021Y-3.8342
X5.0021Y-3.9342
X5.0021Y-4.0342
X5.0021Y-4.1342
X5.0021Y-4.2342
X5.0021Y-4.3342
X5.0021Y-4.4342
X5.0021Y-4.5342
X5.042Y-4.8068
X5.1011Y-4.6611
X5.298Y-4.6611
X5.3021Y-3.8342
X5.3021Y-3.9342
X5.3021Y-4.0342
X5.3021Y-4.1342
X5.3021Y-4.2342
X5.3021Y-4.3342
X5.3021Y-4.4342
X5.3021Y-4.5342
X5.342Y-4.8068
X5.5381Y-4.8068
X5.5959Y-3.8364
X5.5959Y-3.9364
X5.5959Y-4.0364
X5.5959Y-4.1364
X5.5959Y-4.2364
X5.5959Y-4.3364
X5.5959Y-4.4364
X5.6917Y-4.5627
X5.8381Y-4.8068
X5.8885Y-4.5627
X5.8959Y-3.8364
X5.8959Y-3.9364
X5.8959Y-4.0364
X5.8959Y-4.1364
X5.8959Y-4.2364
X5.8959Y-4.3364
X5.8959Y-4.4364
T3
X4.9976Y-3.3737
X4.9976Y-3.4737
X5.0976Y-3.3737
X5.0976Y-3.4737
X5.1976Y-3.3737
X5.1976Y-3.4737
X5.2976Y-3.3737
X5.2976Y-3.4737
X5.3976Y-3.3737
X5.3976Y-3.4737
X5.4976Y-3.3737
X5.4976Y-3.4737
X5.5976Y-3.3737
X5.5976Y-3.4737
X5.6976Y-3.3737
X5.6976Y-3.4737
X5.7976Y-3.3737
X5.7976Y-3.4737
X5.8976Y-3.3737
X5.8976Y-3.4737
T0
M30
