%TF.GenerationSoftware,KiCad,Pcbnew,(5.1.9)-1*%
%TF.CreationDate,2021-07-27T14:06:03-04:00*%
%TF.ProjectId,Amiga2MacFloppy,416d6967-6132-44d6-9163-466c6f707079,1.0*%
%TF.SameCoordinates,Original*%
%TF.FileFunction,Copper,L2,Bot*%
%TF.FilePolarity,Positive*%
%FSLAX46Y46*%
G04 Gerber Fmt 4.6, Leading zero omitted, Abs format (unit mm)*
G04 Created by KiCad (PCBNEW (5.1.9)-1) date 2021-07-27 14:06:03*
%MOMM*%
%LPD*%
G01*
G04 APERTURE LIST*
%TA.AperFunction,SMDPad,CuDef*%
%ADD10R,3.480000X1.846667*%
%TD*%
%TA.AperFunction,ComponentPad*%
%ADD11O,1.600000X1.600000*%
%TD*%
%TA.AperFunction,ComponentPad*%
%ADD12R,1.600000X1.600000*%
%TD*%
%TA.AperFunction,ComponentPad*%
%ADD13C,1.600000*%
%TD*%
%TA.AperFunction,ComponentPad*%
%ADD14C,1.700000*%
%TD*%
%TA.AperFunction,ViaPad*%
%ADD15C,0.800000*%
%TD*%
%TA.AperFunction,Conductor*%
%ADD16C,1.200000*%
%TD*%
%TA.AperFunction,Conductor*%
%ADD17C,0.250000*%
%TD*%
%TA.AperFunction,NonConductor*%
%ADD18C,0.254000*%
%TD*%
%TA.AperFunction,NonConductor*%
%ADD19C,0.100000*%
%TD*%
G04 APERTURE END LIST*
D10*
%TO.P,J3,13*%
%TO.N,PH2*%
X158468000Y-118904000D03*
%TO.P,J3,14*%
%TO.N,PH3*%
X158468000Y-116364000D03*
%TO.P,J3,15*%
%TO.N,SEL*%
X158468000Y-113594000D03*
%TO.P,J3,16*%
%TO.N,_DKWE*%
X158468000Y-110824000D03*
%TO.P,J3,17*%
%TO.N,_DKWD*%
X158468000Y-108054000D03*
%TO.P,J3,18*%
%TO.N,PH0*%
X158468000Y-105284000D03*
%TO.P,J3,19*%
%TO.N,DIR*%
X158468000Y-102514000D03*
%TO.P,J3,20*%
%TO.N,_SEL3*%
X158468000Y-99744000D03*
%TO.P,J3,21*%
%TO.N,_SEL1*%
X158468000Y-96974000D03*
%TO.P,J3,22*%
%TO.N,N/C*%
X158468000Y-94204000D03*
%TO.P,J3,23*%
%TO.N,+12V*%
X158468000Y-91434000D03*
%TD*%
%TO.P,J1,23*%
%TO.N,+12V*%
X118444000Y-90941000D03*
%TO.P,J1,22*%
%TO.N,N/C*%
X118444000Y-93711000D03*
%TO.P,J1,21*%
%TO.N,_SEL2*%
X118444000Y-96481000D03*
%TO.P,J1,20*%
%TO.N,N/C*%
X118444000Y-99251000D03*
%TO.P,J1,19*%
%TO.N,DIR*%
X118444000Y-102021000D03*
%TO.P,J1,18*%
%TO.N,PH0*%
X118444000Y-104791000D03*
%TO.P,J1,17*%
%TO.N,_DKWD*%
X118444000Y-107561000D03*
%TO.P,J1,16*%
%TO.N,_DKWE*%
X118444000Y-110331000D03*
%TO.P,J1,15*%
%TO.N,SEL*%
X118444000Y-113101000D03*
%TO.P,J1,14*%
%TO.N,PH3*%
X118444000Y-115871000D03*
%TO.P,J1,13*%
%TO.N,PH2*%
X118444000Y-118670000D03*
%TD*%
D11*
%TO.P,D2,2*%
%TO.N,_DKRD*%
X148288000Y-122093000D03*
D12*
%TO.P,D2,1*%
%TO.N,Net-(D1-Pad1)*%
X140668000Y-122093000D03*
%TD*%
D11*
%TO.P,D1,2*%
%TO.N,_RDY*%
X135688000Y-122093000D03*
D12*
%TO.P,D1,1*%
%TO.N,Net-(D1-Pad1)*%
X128068000Y-122093000D03*
%TD*%
D13*
%TO.P,C1,2*%
%TO.N,GND*%
X134568000Y-118393000D03*
%TO.P,C1,1*%
%TO.N,+5V*%
X129568000Y-118393000D03*
%TD*%
%TO.P,C2,2*%
%TO.N,GND*%
X149568000Y-115893000D03*
%TO.P,C2,1*%
%TO.N,+5V*%
X144568000Y-115893000D03*
%TD*%
D14*
%TO.P,J2,20*%
%TO.N,+5V*%
X126940000Y-88233000D03*
%TO.P,J2,18*%
%TO.N,WR*%
X129480000Y-88233000D03*
%TO.P,J2,16*%
%TO.N,RD*%
X132020000Y-88233000D03*
%TO.P,J2,14*%
%TO.N,_ENABLE*%
X134560000Y-88233000D03*
%TO.P,J2,12*%
%TO.N,SEL*%
X137100000Y-88233000D03*
%TO.P,J2,10*%
%TO.N,_DKWE*%
X139640000Y-88233000D03*
%TO.P,J2,8*%
%TO.N,PH3*%
X142180000Y-88233000D03*
%TO.P,J2,6*%
%TO.N,PH2*%
X144720000Y-88233000D03*
%TO.P,J2,4*%
%TO.N,DIR*%
X147260000Y-88233000D03*
%TO.P,J2,2*%
%TO.N,PH0*%
X149800000Y-88233000D03*
%TO.P,J2,19*%
%TO.N,N/C*%
X126940000Y-85693000D03*
%TO.P,J2,17*%
X129480000Y-85693000D03*
%TO.P,J2,15*%
%TO.N,+12V*%
X132020000Y-85693000D03*
%TO.P,J2,13*%
X134560000Y-85693000D03*
%TO.P,J2,11*%
%TO.N,+5V*%
X137100000Y-85693000D03*
%TO.P,J2,9*%
%TO.N,N/C*%
X139640000Y-85693000D03*
%TO.P,J2,7*%
%TO.N,GND*%
X142180000Y-85693000D03*
%TO.P,J2,5*%
X144720000Y-85693000D03*
%TO.P,J2,3*%
X147260000Y-85693000D03*
%TO.P,J2,1*%
%TA.AperFunction,ComponentPad*%
G36*
G01*
X149200000Y-84843000D02*
X150400000Y-84843000D01*
G75*
G02*
X150650000Y-85093000I0J-250000D01*
G01*
X150650000Y-86293000D01*
G75*
G02*
X150400000Y-86543000I-250000J0D01*
G01*
X149200000Y-86543000D01*
G75*
G02*
X148950000Y-86293000I0J250000D01*
G01*
X148950000Y-85093000D01*
G75*
G02*
X149200000Y-84843000I250000J0D01*
G01*
G37*
%TD.AperFunction*%
%TD*%
D11*
%TO.P,U2,14*%
%TO.N,+5V*%
X142137000Y-112684000D03*
%TO.P,U2,7*%
%TO.N,GND*%
X149757000Y-97444000D03*
%TO.P,U2,13*%
%TO.N,N/C*%
X142137000Y-110144000D03*
%TO.P,U2,6*%
X149757000Y-99984000D03*
%TO.P,U2,12*%
X142137000Y-107604000D03*
%TO.P,U2,5*%
X149757000Y-102524000D03*
%TO.P,U2,11*%
X142137000Y-105064000D03*
%TO.P,U2,4*%
X149757000Y-105064000D03*
%TO.P,U2,10*%
X142137000Y-102524000D03*
%TO.P,U2,3*%
%TO.N,WR*%
X149757000Y-107604000D03*
%TO.P,U2,9*%
%TO.N,N/C*%
X142137000Y-99984000D03*
%TO.P,U2,2*%
%TO.N,DIR*%
X149757000Y-110144000D03*
%TO.P,U2,8*%
%TO.N,N/C*%
X142137000Y-97444000D03*
D12*
%TO.P,U2,1*%
%TO.N,_DKWD*%
X149757000Y-112684000D03*
%TD*%
D11*
%TO.P,U1,16*%
%TO.N,+5V*%
X127054000Y-115168000D03*
%TO.P,U1,8*%
%TO.N,GND*%
X134674000Y-97388000D03*
%TO.P,U1,15*%
X127054000Y-112628000D03*
%TO.P,U1,7*%
%TO.N,N/C*%
X134674000Y-99928000D03*
%TO.P,U1,14*%
%TO.N,_MTRXD*%
X127054000Y-110088000D03*
%TO.P,U1,6*%
%TO.N,N/C*%
X134674000Y-102468000D03*
%TO.P,U1,13*%
%TO.N,_SEL1*%
X127054000Y-107548000D03*
%TO.P,U1,5*%
%TO.N,N/C*%
X134674000Y-105008000D03*
%TO.P,U1,12*%
%TO.N,_ENABLE*%
X127054000Y-105008000D03*
%TO.P,U1,4*%
%TO.N,Net-(D1-Pad1)*%
X134674000Y-107548000D03*
%TO.P,U1,11*%
%TO.N,N/C*%
X127054000Y-102468000D03*
%TO.P,U1,3*%
%TO.N,GND*%
X134674000Y-110088000D03*
%TO.P,U1,10*%
%TO.N,N/C*%
X127054000Y-99928000D03*
%TO.P,U1,2*%
%TO.N,RD*%
X134674000Y-112628000D03*
%TO.P,U1,9*%
%TO.N,N/C*%
X127054000Y-97388000D03*
D12*
%TO.P,U1,1*%
%TO.N,GND*%
X134674000Y-115168000D03*
%TD*%
D15*
%TO.N,_SEL3*%
X130317400Y-101387500D03*
%TO.N,DIR*%
X145849600Y-94583700D03*
%TO.N,_DKWE*%
X144263000Y-109529600D03*
%TO.N,_DRES*%
X152632800Y-94922900D03*
X120801600Y-93408100D03*
%TO.N,_SEL2*%
X152125400Y-96115300D03*
%TO.N,WR*%
X146584500Y-92681400D03*
%TO.N,_MTRXD*%
X156097300Y-101417000D03*
%TO.N,PH0*%
X154553000Y-105106900D03*
%TO.N,SEL*%
X144342300Y-112768900D03*
%TO.N,PH3*%
X148957300Y-118362100D03*
%TO.N,PH2*%
X150799900Y-117835100D03*
%TD*%
D16*
%TO.N,GND*%
X149800000Y-85693000D02*
X147260000Y-85693000D01*
X134568000Y-118393000D02*
X145525300Y-118393000D01*
X145525300Y-118393000D02*
X148025300Y-115893000D01*
X148025300Y-115893000D02*
X149568000Y-115893000D01*
X136474300Y-97388000D02*
X138228800Y-95633500D01*
X138228800Y-95633500D02*
X144919200Y-95633500D01*
X144919200Y-95633500D02*
X146729700Y-97444000D01*
X146729700Y-97444000D02*
X147956700Y-97444000D01*
X131661100Y-112628000D02*
X128854300Y-112628000D01*
X132873700Y-110088000D02*
X132873700Y-111415400D01*
X132873700Y-111415400D02*
X131661100Y-112628000D01*
X132873700Y-115168000D02*
X132873700Y-113840600D01*
X132873700Y-113840600D02*
X131661100Y-112628000D01*
X134674000Y-115168000D02*
X132873700Y-115168000D01*
X134674000Y-110088000D02*
X132873700Y-110088000D01*
X127054000Y-112628000D02*
X128854300Y-112628000D01*
X144720000Y-85693000D02*
X142180000Y-85693000D01*
X147260000Y-85693000D02*
X144720000Y-85693000D01*
X149757000Y-97444000D02*
X147956700Y-97444000D01*
X134674000Y-97388000D02*
X136474300Y-97388000D01*
%TO.N,+12V*%
X134560000Y-85634700D02*
X134560000Y-85613600D01*
X134560000Y-85613600D02*
X136343200Y-83830400D01*
X136343200Y-83830400D02*
X150951300Y-83830400D01*
X150951300Y-83830400D02*
X153730500Y-86609600D01*
X153730500Y-86609600D02*
X153730500Y-89436800D01*
X153730500Y-89436800D02*
X155727700Y-91434000D01*
X134560000Y-85693000D02*
X134560000Y-85634700D01*
X134560000Y-85634700D02*
X132020000Y-85634700D01*
X132020000Y-85634700D02*
X132020000Y-85613600D01*
X132020000Y-85613600D02*
X130247500Y-83841100D01*
X130247500Y-83841100D02*
X126128200Y-83841100D01*
X126128200Y-83841100D02*
X122009000Y-87960300D01*
X122009000Y-87960300D02*
X122009000Y-90116300D01*
X122009000Y-90116300D02*
X121184300Y-90941000D01*
X132020000Y-85693000D02*
X132020000Y-85634700D01*
X158468000Y-91434000D02*
X155727700Y-91434000D01*
X118444000Y-90941000D02*
X121184300Y-90941000D01*
D17*
%TO.N,_SEL1*%
X156402700Y-96974000D02*
X152239300Y-101137400D01*
X152239300Y-101137400D02*
X131093100Y-101137400D01*
X131093100Y-101137400D02*
X130617900Y-100662200D01*
X130617900Y-100662200D02*
X130017000Y-100662200D01*
X130017000Y-100662200D02*
X129592100Y-101087100D01*
X129592100Y-101087100D02*
X129592100Y-104166000D01*
X129592100Y-104166000D02*
X127335400Y-106422700D01*
X127335400Y-106422700D02*
X127054000Y-106422700D01*
X158468000Y-96974000D02*
X156402700Y-96974000D01*
X127054000Y-107548000D02*
X127054000Y-106422700D01*
%TO.N,_SEL3*%
X156402700Y-99744000D02*
X152495200Y-103651500D01*
X152495200Y-103651500D02*
X132581400Y-103651500D01*
X132581400Y-103651500D02*
X130317400Y-101387500D01*
X158468000Y-99744000D02*
X156402700Y-99744000D01*
%TO.N,DIR*%
X156402700Y-102514000D02*
X156120200Y-102514000D01*
X156120200Y-102514000D02*
X150882300Y-107751900D01*
X150882300Y-107751900D02*
X150882300Y-110144000D01*
X158468000Y-102514000D02*
X156402700Y-102514000D01*
X149757000Y-110144000D02*
X150882300Y-110144000D01*
X120509300Y-102021000D02*
X128046600Y-94483700D01*
X128046600Y-94483700D02*
X145749600Y-94483700D01*
X145749600Y-94483700D02*
X145849600Y-94583700D01*
X118444000Y-102021000D02*
X120509300Y-102021000D01*
%TO.N,_DKWD*%
X149757000Y-112684000D02*
X150882300Y-112684000D01*
X150882300Y-112684000D02*
X155512300Y-108054000D01*
X155512300Y-108054000D02*
X158468000Y-108054000D01*
X149194400Y-112684000D02*
X149757000Y-112684000D01*
X149194400Y-112684000D02*
X148631700Y-112684000D01*
X148631700Y-112684000D02*
X144710300Y-108762600D01*
X144710300Y-108762600D02*
X132372900Y-108762600D01*
X132372900Y-108762600D02*
X129920700Y-111214800D01*
X129920700Y-111214800D02*
X124429300Y-111214800D01*
X124429300Y-111214800D02*
X120775500Y-107561000D01*
X120775500Y-107561000D02*
X118444000Y-107561000D01*
%TO.N,_DKWE*%
X118444000Y-110331000D02*
X121347500Y-110331000D01*
X121347500Y-110331000D02*
X125055900Y-114039400D01*
X125055900Y-114039400D02*
X130108600Y-114039400D01*
X130108600Y-114039400D02*
X132562600Y-116493400D01*
X132562600Y-116493400D02*
X135766700Y-116493400D01*
X135766700Y-116493400D02*
X140966700Y-111293400D01*
X140966700Y-111293400D02*
X142586300Y-111293400D01*
X142586300Y-111293400D02*
X144263000Y-109616700D01*
X144263000Y-109616700D02*
X144263000Y-109529600D01*
X158468000Y-110824000D02*
X154681700Y-110824000D01*
X154681700Y-110824000D02*
X151696300Y-113809400D01*
X151696300Y-113809400D02*
X148542800Y-113809400D01*
X148542800Y-113809400D02*
X144263000Y-109529600D01*
%TO.N,_DRES*%
X152632800Y-94922900D02*
X151118000Y-93408100D01*
X151118000Y-93408100D02*
X120801600Y-93408100D01*
%TO.N,_SEL2*%
X118444000Y-96481000D02*
X124545100Y-96481000D01*
X124545100Y-96481000D02*
X127167700Y-93858400D01*
X127167700Y-93858400D02*
X149868500Y-93858400D01*
X149868500Y-93858400D02*
X152125400Y-96115300D01*
%TO.N,WR*%
X129480000Y-88233000D02*
X133928400Y-92681400D01*
X133928400Y-92681400D02*
X146584500Y-92681400D01*
%TO.N,_MTRXD*%
X127054000Y-110088000D02*
X128179300Y-110088000D01*
X128179300Y-110088000D02*
X131852100Y-106415200D01*
X131852100Y-106415200D02*
X151099100Y-106415200D01*
X151099100Y-106415200D02*
X156097300Y-101417000D01*
%TO.N,PH0*%
X149800000Y-88233000D02*
X153367800Y-91800800D01*
X153367800Y-91800800D02*
X153367800Y-95937200D01*
X153367800Y-95937200D02*
X150535600Y-98769400D01*
X150535600Y-98769400D02*
X130012800Y-98769400D01*
X130012800Y-98769400D02*
X127584200Y-101198000D01*
X127584200Y-101198000D02*
X126638000Y-101198000D01*
X126638000Y-101198000D02*
X123045000Y-104791000D01*
X123045000Y-104791000D02*
X118444000Y-104791000D01*
X158468000Y-105284000D02*
X156402700Y-105284000D01*
X154553000Y-105106900D02*
X156225600Y-105106900D01*
X156225600Y-105106900D02*
X156402700Y-105284000D01*
%TO.N,SEL*%
X118444000Y-113101000D02*
X122396000Y-113101000D01*
X122396000Y-113101000D02*
X126238800Y-116943800D01*
X126238800Y-116943800D02*
X140167400Y-116943800D01*
X140167400Y-116943800D02*
X144342300Y-112768900D01*
X158468000Y-113594000D02*
X156402700Y-113594000D01*
X144342300Y-112768900D02*
X145833200Y-114259800D01*
X145833200Y-114259800D02*
X155736900Y-114259800D01*
X155736900Y-114259800D02*
X156402700Y-113594000D01*
%TO.N,PH3*%
X118444000Y-115871000D02*
X124452300Y-115871000D01*
X124452300Y-115871000D02*
X128316100Y-119734800D01*
X128316100Y-119734800D02*
X147584600Y-119734800D01*
X147584600Y-119734800D02*
X148957300Y-118362100D01*
X148957300Y-118362100D02*
X148973300Y-118362100D01*
X148973300Y-118362100D02*
X150971400Y-116364000D01*
X150971400Y-116364000D02*
X158468000Y-116364000D01*
%TO.N,PH2*%
X120509300Y-118670000D02*
X122057400Y-120218100D01*
X122057400Y-120218100D02*
X148416900Y-120218100D01*
X148416900Y-120218100D02*
X150799900Y-117835100D01*
X118444000Y-118670000D02*
X120509300Y-118670000D01*
X158468000Y-118904000D02*
X156402700Y-118904000D01*
X150799900Y-117835100D02*
X155333800Y-117835100D01*
X155333800Y-117835100D02*
X156402700Y-118904000D01*
%TO.N,Net-(D1-Pad1)*%
X129193300Y-122093000D02*
X130318600Y-120967700D01*
X130318600Y-120967700D02*
X138417400Y-120967700D01*
X138417400Y-120967700D02*
X139542700Y-122093000D01*
X140668000Y-122093000D02*
X139542700Y-122093000D01*
X128068000Y-122093000D02*
X129193300Y-122093000D01*
%TO.N,+5V*%
X137100000Y-85693000D02*
X135830000Y-86963000D01*
X135830000Y-86963000D02*
X135830000Y-88635100D01*
X135830000Y-88635100D02*
X135034600Y-89430500D01*
X135034600Y-89430500D02*
X131551100Y-89430500D01*
X131551100Y-89430500D02*
X130655400Y-88534800D01*
X130655400Y-88534800D02*
X130655400Y-87707400D01*
X130655400Y-87707400D02*
X130004000Y-87056000D01*
X130004000Y-87056000D02*
X128117000Y-87056000D01*
X128117000Y-87056000D02*
X126940000Y-88233000D01*
%TD*%
D18*
X155838901Y-119415003D02*
X155862699Y-119444001D01*
X155891697Y-119467799D01*
X155978423Y-119538974D01*
X156061025Y-119583126D01*
X156089928Y-119598575D01*
X156089928Y-119827333D01*
X156102188Y-119951815D01*
X156138498Y-120071513D01*
X156197463Y-120181827D01*
X156276815Y-120278518D01*
X156373506Y-120357870D01*
X156483820Y-120416835D01*
X156603518Y-120453145D01*
X156728000Y-120465405D01*
X159807761Y-120465405D01*
X159807761Y-128032960D01*
X117127760Y-128032960D01*
X117127760Y-125472872D01*
X117233000Y-125472872D01*
X117233000Y-125913128D01*
X117318890Y-126344925D01*
X117487369Y-126751669D01*
X117731962Y-127117729D01*
X118043271Y-127429038D01*
X118409331Y-127673631D01*
X118816075Y-127842110D01*
X119247872Y-127928000D01*
X119688128Y-127928000D01*
X120119925Y-127842110D01*
X120526669Y-127673631D01*
X120892729Y-127429038D01*
X121204038Y-127117729D01*
X121448631Y-126751669D01*
X121617110Y-126344925D01*
X121703000Y-125913128D01*
X121703000Y-125472872D01*
X155233000Y-125472872D01*
X155233000Y-125913128D01*
X155318890Y-126344925D01*
X155487369Y-126751669D01*
X155731962Y-127117729D01*
X156043271Y-127429038D01*
X156409331Y-127673631D01*
X156816075Y-127842110D01*
X157247872Y-127928000D01*
X157688128Y-127928000D01*
X158119925Y-127842110D01*
X158526669Y-127673631D01*
X158892729Y-127429038D01*
X159204038Y-127117729D01*
X159448631Y-126751669D01*
X159617110Y-126344925D01*
X159703000Y-125913128D01*
X159703000Y-125472872D01*
X159617110Y-125041075D01*
X159448631Y-124634331D01*
X159204038Y-124268271D01*
X158892729Y-123956962D01*
X158526669Y-123712369D01*
X158119925Y-123543890D01*
X157688128Y-123458000D01*
X157247872Y-123458000D01*
X156816075Y-123543890D01*
X156409331Y-123712369D01*
X156043271Y-123956962D01*
X155731962Y-124268271D01*
X155487369Y-124634331D01*
X155318890Y-125041075D01*
X155233000Y-125472872D01*
X121703000Y-125472872D01*
X121617110Y-125041075D01*
X121448631Y-124634331D01*
X121204038Y-124268271D01*
X120892729Y-123956962D01*
X120526669Y-123712369D01*
X120119925Y-123543890D01*
X119688128Y-123458000D01*
X119247872Y-123458000D01*
X118816075Y-123543890D01*
X118409331Y-123712369D01*
X118043271Y-123956962D01*
X117731962Y-124268271D01*
X117487369Y-124634331D01*
X117318890Y-125041075D01*
X117233000Y-125472872D01*
X117127760Y-125472872D01*
X117127760Y-120231405D01*
X120184000Y-120231405D01*
X120308482Y-120219145D01*
X120428180Y-120182835D01*
X120538494Y-120123870D01*
X120635185Y-120044518D01*
X120713540Y-119949042D01*
X121493601Y-120729103D01*
X121517399Y-120758101D01*
X121546397Y-120781899D01*
X121633123Y-120853074D01*
X121765153Y-120923646D01*
X121908414Y-120967103D01*
X122020067Y-120978100D01*
X122020077Y-120978100D01*
X122057399Y-120981776D01*
X122094722Y-120978100D01*
X126716299Y-120978100D01*
X126678498Y-121048820D01*
X126642188Y-121168518D01*
X126629928Y-121293000D01*
X126629928Y-122893000D01*
X126642188Y-123017482D01*
X126678498Y-123137180D01*
X126737463Y-123247494D01*
X126816815Y-123344185D01*
X126913506Y-123423537D01*
X127023820Y-123482502D01*
X127143518Y-123518812D01*
X127268000Y-123531072D01*
X128868000Y-123531072D01*
X128992482Y-123518812D01*
X129112180Y-123482502D01*
X129222494Y-123423537D01*
X129319185Y-123344185D01*
X129398537Y-123247494D01*
X129457502Y-123137180D01*
X129493812Y-123017482D01*
X129506072Y-122893000D01*
X129506072Y-122787575D01*
X129617576Y-122727974D01*
X129733301Y-122633001D01*
X129757104Y-122603998D01*
X130633402Y-121727700D01*
X134297550Y-121727700D01*
X134253000Y-121951665D01*
X134253000Y-122234335D01*
X134308147Y-122511574D01*
X134416320Y-122772727D01*
X134573363Y-123007759D01*
X134773241Y-123207637D01*
X135008273Y-123364680D01*
X135269426Y-123472853D01*
X135546665Y-123528000D01*
X135829335Y-123528000D01*
X136106574Y-123472853D01*
X136367727Y-123364680D01*
X136602759Y-123207637D01*
X136802637Y-123007759D01*
X136959680Y-122772727D01*
X137067853Y-122511574D01*
X137123000Y-122234335D01*
X137123000Y-121951665D01*
X137078450Y-121727700D01*
X138102599Y-121727700D01*
X138978901Y-122604003D01*
X139002699Y-122633001D01*
X139031697Y-122656799D01*
X139118424Y-122727974D01*
X139229928Y-122787575D01*
X139229928Y-122893000D01*
X139242188Y-123017482D01*
X139278498Y-123137180D01*
X139337463Y-123247494D01*
X139416815Y-123344185D01*
X139513506Y-123423537D01*
X139623820Y-123482502D01*
X139743518Y-123518812D01*
X139868000Y-123531072D01*
X141468000Y-123531072D01*
X141592482Y-123518812D01*
X141712180Y-123482502D01*
X141822494Y-123423537D01*
X141919185Y-123344185D01*
X141998537Y-123247494D01*
X142057502Y-123137180D01*
X142093812Y-123017482D01*
X142106072Y-122893000D01*
X142106072Y-121293000D01*
X142093812Y-121168518D01*
X142057502Y-121048820D01*
X142019701Y-120978100D01*
X147373635Y-120978100D01*
X147373241Y-120978363D01*
X147173363Y-121178241D01*
X147016320Y-121413273D01*
X146908147Y-121674426D01*
X146853000Y-121951665D01*
X146853000Y-122234335D01*
X146908147Y-122511574D01*
X147016320Y-122772727D01*
X147173363Y-123007759D01*
X147373241Y-123207637D01*
X147608273Y-123364680D01*
X147869426Y-123472853D01*
X148146665Y-123528000D01*
X148429335Y-123528000D01*
X148706574Y-123472853D01*
X148967727Y-123364680D01*
X149202759Y-123207637D01*
X149402637Y-123007759D01*
X149559680Y-122772727D01*
X149667853Y-122511574D01*
X149723000Y-122234335D01*
X149723000Y-121951665D01*
X149667853Y-121674426D01*
X149559680Y-121413273D01*
X149402637Y-121178241D01*
X149202759Y-120978363D01*
X148967727Y-120821320D01*
X148909338Y-120797135D01*
X148956901Y-120758101D01*
X148980704Y-120729097D01*
X150839702Y-118870100D01*
X150901839Y-118870100D01*
X151101798Y-118830326D01*
X151290156Y-118752305D01*
X151459674Y-118639037D01*
X151503611Y-118595100D01*
X155018999Y-118595100D01*
X155838901Y-119415003D01*
%TA.AperFunction,NonConductor*%
D19*
G36*
X155838901Y-119415003D02*
G01*
X155862699Y-119444001D01*
X155891697Y-119467799D01*
X155978423Y-119538974D01*
X156061025Y-119583126D01*
X156089928Y-119598575D01*
X156089928Y-119827333D01*
X156102188Y-119951815D01*
X156138498Y-120071513D01*
X156197463Y-120181827D01*
X156276815Y-120278518D01*
X156373506Y-120357870D01*
X156483820Y-120416835D01*
X156603518Y-120453145D01*
X156728000Y-120465405D01*
X159807761Y-120465405D01*
X159807761Y-128032960D01*
X117127760Y-128032960D01*
X117127760Y-125472872D01*
X117233000Y-125472872D01*
X117233000Y-125913128D01*
X117318890Y-126344925D01*
X117487369Y-126751669D01*
X117731962Y-127117729D01*
X118043271Y-127429038D01*
X118409331Y-127673631D01*
X118816075Y-127842110D01*
X119247872Y-127928000D01*
X119688128Y-127928000D01*
X120119925Y-127842110D01*
X120526669Y-127673631D01*
X120892729Y-127429038D01*
X121204038Y-127117729D01*
X121448631Y-126751669D01*
X121617110Y-126344925D01*
X121703000Y-125913128D01*
X121703000Y-125472872D01*
X155233000Y-125472872D01*
X155233000Y-125913128D01*
X155318890Y-126344925D01*
X155487369Y-126751669D01*
X155731962Y-127117729D01*
X156043271Y-127429038D01*
X156409331Y-127673631D01*
X156816075Y-127842110D01*
X157247872Y-127928000D01*
X157688128Y-127928000D01*
X158119925Y-127842110D01*
X158526669Y-127673631D01*
X158892729Y-127429038D01*
X159204038Y-127117729D01*
X159448631Y-126751669D01*
X159617110Y-126344925D01*
X159703000Y-125913128D01*
X159703000Y-125472872D01*
X159617110Y-125041075D01*
X159448631Y-124634331D01*
X159204038Y-124268271D01*
X158892729Y-123956962D01*
X158526669Y-123712369D01*
X158119925Y-123543890D01*
X157688128Y-123458000D01*
X157247872Y-123458000D01*
X156816075Y-123543890D01*
X156409331Y-123712369D01*
X156043271Y-123956962D01*
X155731962Y-124268271D01*
X155487369Y-124634331D01*
X155318890Y-125041075D01*
X155233000Y-125472872D01*
X121703000Y-125472872D01*
X121617110Y-125041075D01*
X121448631Y-124634331D01*
X121204038Y-124268271D01*
X120892729Y-123956962D01*
X120526669Y-123712369D01*
X120119925Y-123543890D01*
X119688128Y-123458000D01*
X119247872Y-123458000D01*
X118816075Y-123543890D01*
X118409331Y-123712369D01*
X118043271Y-123956962D01*
X117731962Y-124268271D01*
X117487369Y-124634331D01*
X117318890Y-125041075D01*
X117233000Y-125472872D01*
X117127760Y-125472872D01*
X117127760Y-120231405D01*
X120184000Y-120231405D01*
X120308482Y-120219145D01*
X120428180Y-120182835D01*
X120538494Y-120123870D01*
X120635185Y-120044518D01*
X120713540Y-119949042D01*
X121493601Y-120729103D01*
X121517399Y-120758101D01*
X121546397Y-120781899D01*
X121633123Y-120853074D01*
X121765153Y-120923646D01*
X121908414Y-120967103D01*
X122020067Y-120978100D01*
X122020077Y-120978100D01*
X122057399Y-120981776D01*
X122094722Y-120978100D01*
X126716299Y-120978100D01*
X126678498Y-121048820D01*
X126642188Y-121168518D01*
X126629928Y-121293000D01*
X126629928Y-122893000D01*
X126642188Y-123017482D01*
X126678498Y-123137180D01*
X126737463Y-123247494D01*
X126816815Y-123344185D01*
X126913506Y-123423537D01*
X127023820Y-123482502D01*
X127143518Y-123518812D01*
X127268000Y-123531072D01*
X128868000Y-123531072D01*
X128992482Y-123518812D01*
X129112180Y-123482502D01*
X129222494Y-123423537D01*
X129319185Y-123344185D01*
X129398537Y-123247494D01*
X129457502Y-123137180D01*
X129493812Y-123017482D01*
X129506072Y-122893000D01*
X129506072Y-122787575D01*
X129617576Y-122727974D01*
X129733301Y-122633001D01*
X129757104Y-122603998D01*
X130633402Y-121727700D01*
X134297550Y-121727700D01*
X134253000Y-121951665D01*
X134253000Y-122234335D01*
X134308147Y-122511574D01*
X134416320Y-122772727D01*
X134573363Y-123007759D01*
X134773241Y-123207637D01*
X135008273Y-123364680D01*
X135269426Y-123472853D01*
X135546665Y-123528000D01*
X135829335Y-123528000D01*
X136106574Y-123472853D01*
X136367727Y-123364680D01*
X136602759Y-123207637D01*
X136802637Y-123007759D01*
X136959680Y-122772727D01*
X137067853Y-122511574D01*
X137123000Y-122234335D01*
X137123000Y-121951665D01*
X137078450Y-121727700D01*
X138102599Y-121727700D01*
X138978901Y-122604003D01*
X139002699Y-122633001D01*
X139031697Y-122656799D01*
X139118424Y-122727974D01*
X139229928Y-122787575D01*
X139229928Y-122893000D01*
X139242188Y-123017482D01*
X139278498Y-123137180D01*
X139337463Y-123247494D01*
X139416815Y-123344185D01*
X139513506Y-123423537D01*
X139623820Y-123482502D01*
X139743518Y-123518812D01*
X139868000Y-123531072D01*
X141468000Y-123531072D01*
X141592482Y-123518812D01*
X141712180Y-123482502D01*
X141822494Y-123423537D01*
X141919185Y-123344185D01*
X141998537Y-123247494D01*
X142057502Y-123137180D01*
X142093812Y-123017482D01*
X142106072Y-122893000D01*
X142106072Y-121293000D01*
X142093812Y-121168518D01*
X142057502Y-121048820D01*
X142019701Y-120978100D01*
X147373635Y-120978100D01*
X147373241Y-120978363D01*
X147173363Y-121178241D01*
X147016320Y-121413273D01*
X146908147Y-121674426D01*
X146853000Y-121951665D01*
X146853000Y-122234335D01*
X146908147Y-122511574D01*
X147016320Y-122772727D01*
X147173363Y-123007759D01*
X147373241Y-123207637D01*
X147608273Y-123364680D01*
X147869426Y-123472853D01*
X148146665Y-123528000D01*
X148429335Y-123528000D01*
X148706574Y-123472853D01*
X148967727Y-123364680D01*
X149202759Y-123207637D01*
X149402637Y-123007759D01*
X149559680Y-122772727D01*
X149667853Y-122511574D01*
X149723000Y-122234335D01*
X149723000Y-121951665D01*
X149667853Y-121674426D01*
X149559680Y-121413273D01*
X149402637Y-121178241D01*
X149202759Y-120978363D01*
X148967727Y-120821320D01*
X148909338Y-120797135D01*
X148956901Y-120758101D01*
X148980704Y-120729097D01*
X150839702Y-118870100D01*
X150901839Y-118870100D01*
X151101798Y-118830326D01*
X151290156Y-118752305D01*
X151459674Y-118639037D01*
X151503611Y-118595100D01*
X155018999Y-118595100D01*
X155838901Y-119415003D01*
G37*
%TD.AperFunction*%
D18*
X126964598Y-119458100D02*
X122372202Y-119458100D01*
X121073104Y-118159003D01*
X121049301Y-118129999D01*
X120933576Y-118035026D01*
X120822072Y-117975425D01*
X120822072Y-117746667D01*
X120809812Y-117622185D01*
X120773502Y-117502487D01*
X120714537Y-117392173D01*
X120635185Y-117295482D01*
X120604744Y-117270500D01*
X120635185Y-117245518D01*
X120714537Y-117148827D01*
X120773502Y-117038513D01*
X120809812Y-116918815D01*
X120822072Y-116794333D01*
X120822072Y-116631000D01*
X124137499Y-116631000D01*
X126964598Y-119458100D01*
%TA.AperFunction,NonConductor*%
D19*
G36*
X126964598Y-119458100D02*
G01*
X122372202Y-119458100D01*
X121073104Y-118159003D01*
X121049301Y-118129999D01*
X120933576Y-118035026D01*
X120822072Y-117975425D01*
X120822072Y-117746667D01*
X120809812Y-117622185D01*
X120773502Y-117502487D01*
X120714537Y-117392173D01*
X120635185Y-117295482D01*
X120604744Y-117270500D01*
X120635185Y-117245518D01*
X120714537Y-117148827D01*
X120773502Y-117038513D01*
X120809812Y-116918815D01*
X120822072Y-116794333D01*
X120822072Y-116631000D01*
X124137499Y-116631000D01*
X126964598Y-119458100D01*
G37*
%TD.AperFunction*%
D18*
X148888273Y-117164680D02*
X149035101Y-117225498D01*
X148933499Y-117327100D01*
X148855361Y-117327100D01*
X148655402Y-117366874D01*
X148467044Y-117444895D01*
X148297526Y-117558163D01*
X148153363Y-117702326D01*
X148040095Y-117871844D01*
X147962074Y-118060202D01*
X147922300Y-118260161D01*
X147922300Y-118322298D01*
X147269799Y-118974800D01*
X146690053Y-118974800D01*
X148536854Y-117128000D01*
X148833377Y-117128000D01*
X148888273Y-117164680D01*
%TA.AperFunction,NonConductor*%
D19*
G36*
X148888273Y-117164680D02*
G01*
X149035101Y-117225498D01*
X148933499Y-117327100D01*
X148855361Y-117327100D01*
X148655402Y-117366874D01*
X148467044Y-117444895D01*
X148297526Y-117558163D01*
X148153363Y-117702326D01*
X148040095Y-117871844D01*
X147962074Y-118060202D01*
X147922300Y-118260161D01*
X147922300Y-118322298D01*
X147269799Y-118974800D01*
X146690053Y-118974800D01*
X148536854Y-117128000D01*
X148833377Y-117128000D01*
X148888273Y-117164680D01*
G37*
%TD.AperFunction*%
D18*
X133296320Y-117713273D02*
X133188147Y-117974426D01*
X133133000Y-118251665D01*
X133133000Y-118534335D01*
X133188147Y-118811574D01*
X133255757Y-118974800D01*
X130880243Y-118974800D01*
X130947853Y-118811574D01*
X131003000Y-118534335D01*
X131003000Y-118251665D01*
X130947853Y-117974426D01*
X130839680Y-117713273D01*
X130833350Y-117703800D01*
X133302650Y-117703800D01*
X133296320Y-117713273D01*
%TA.AperFunction,NonConductor*%
D19*
G36*
X133296320Y-117713273D02*
G01*
X133188147Y-117974426D01*
X133133000Y-118251665D01*
X133133000Y-118534335D01*
X133188147Y-118811574D01*
X133255757Y-118974800D01*
X130880243Y-118974800D01*
X130947853Y-118811574D01*
X131003000Y-118534335D01*
X131003000Y-118251665D01*
X130947853Y-117974426D01*
X130839680Y-117713273D01*
X130833350Y-117703800D01*
X133302650Y-117703800D01*
X133296320Y-117713273D01*
G37*
%TD.AperFunction*%
D18*
X128296320Y-117713273D02*
X128188147Y-117974426D01*
X128133000Y-118251665D01*
X128133000Y-118476898D01*
X127359902Y-117703800D01*
X128302650Y-117703800D01*
X128296320Y-117713273D01*
%TA.AperFunction,NonConductor*%
D19*
G36*
X128296320Y-117713273D02*
G01*
X128188147Y-117974426D01*
X128133000Y-118251665D01*
X128133000Y-118476898D01*
X127359902Y-117703800D01*
X128302650Y-117703800D01*
X128296320Y-117713273D01*
G37*
%TD.AperFunction*%
D18*
X156089928Y-117287333D02*
X156102188Y-117411815D01*
X156138498Y-117531513D01*
X156176948Y-117603447D01*
X155897604Y-117324102D01*
X155873801Y-117295099D01*
X155758076Y-117200126D01*
X155626047Y-117129554D01*
X155607738Y-117124000D01*
X156089928Y-117124000D01*
X156089928Y-117287333D01*
%TA.AperFunction,NonConductor*%
D19*
G36*
X156089928Y-117287333D02*
G01*
X156102188Y-117411815D01*
X156138498Y-117531513D01*
X156176948Y-117603447D01*
X155897604Y-117324102D01*
X155873801Y-117295099D01*
X155758076Y-117200126D01*
X155626047Y-117129554D01*
X155607738Y-117124000D01*
X156089928Y-117124000D01*
X156089928Y-117287333D01*
G37*
%TD.AperFunction*%
D18*
X145029544Y-114530946D02*
X144986574Y-114513147D01*
X144709335Y-114458000D01*
X144426665Y-114458000D01*
X144149426Y-114513147D01*
X143888273Y-114621320D01*
X143653241Y-114778363D01*
X143453363Y-114978241D01*
X143296320Y-115213273D01*
X143188147Y-115474426D01*
X143133000Y-115751665D01*
X143133000Y-116034335D01*
X143188147Y-116311574D01*
X143296320Y-116572727D01*
X143453363Y-116807759D01*
X143653241Y-117007637D01*
X143878276Y-117158000D01*
X141028001Y-117158000D01*
X144342300Y-113843702D01*
X145029544Y-114530946D01*
%TA.AperFunction,NonConductor*%
D19*
G36*
X145029544Y-114530946D02*
G01*
X144986574Y-114513147D01*
X144709335Y-114458000D01*
X144426665Y-114458000D01*
X144149426Y-114513147D01*
X143888273Y-114621320D01*
X143653241Y-114778363D01*
X143453363Y-114978241D01*
X143296320Y-115213273D01*
X143188147Y-115474426D01*
X143133000Y-115751665D01*
X143133000Y-116034335D01*
X143188147Y-116311574D01*
X143296320Y-116572727D01*
X143453363Y-116807759D01*
X143653241Y-117007637D01*
X143878276Y-117158000D01*
X141028001Y-117158000D01*
X144342300Y-113843702D01*
X145029544Y-114530946D01*
G37*
%TD.AperFunction*%
D18*
X145795867Y-115019800D02*
X145795877Y-115019800D01*
X145833199Y-115023476D01*
X145870522Y-115019800D01*
X147144267Y-115019800D01*
X147109126Y-115062620D01*
X145969625Y-116202122D01*
X146003000Y-116034335D01*
X146003000Y-115751665D01*
X145947853Y-115474426D01*
X145839680Y-115213273D01*
X145704385Y-115010790D01*
X145795867Y-115019800D01*
%TA.AperFunction,NonConductor*%
D19*
G36*
X145795867Y-115019800D02*
G01*
X145795877Y-115019800D01*
X145833199Y-115023476D01*
X145870522Y-115019800D01*
X147144267Y-115019800D01*
X147109126Y-115062620D01*
X145969625Y-116202122D01*
X146003000Y-116034335D01*
X146003000Y-115751665D01*
X145947853Y-115474426D01*
X145839680Y-115213273D01*
X145704385Y-115010790D01*
X145795867Y-115019800D01*
G37*
%TD.AperFunction*%
D18*
X140702000Y-112825335D02*
X140757147Y-113102574D01*
X140865320Y-113363727D01*
X141022363Y-113598759D01*
X141222241Y-113798637D01*
X141457273Y-113955680D01*
X141718426Y-114063853D01*
X141930384Y-114106015D01*
X139852599Y-116183800D01*
X137151101Y-116183800D01*
X140702000Y-112632902D01*
X140702000Y-112825335D01*
%TA.AperFunction,NonConductor*%
D19*
G36*
X140702000Y-112825335D02*
G01*
X140757147Y-113102574D01*
X140865320Y-113363727D01*
X141022363Y-113598759D01*
X141222241Y-113798637D01*
X141457273Y-113955680D01*
X141718426Y-114063853D01*
X141930384Y-114106015D01*
X139852599Y-116183800D01*
X137151101Y-116183800D01*
X140702000Y-112632902D01*
X140702000Y-112825335D01*
G37*
%TD.AperFunction*%
D18*
X131178198Y-116183800D02*
X128067596Y-116183800D01*
X128168637Y-116082759D01*
X128325680Y-115847727D01*
X128433853Y-115586574D01*
X128489000Y-115309335D01*
X128489000Y-115026665D01*
X128443794Y-114799400D01*
X129793799Y-114799400D01*
X131178198Y-116183800D01*
%TA.AperFunction,NonConductor*%
D19*
G36*
X131178198Y-116183800D02*
G01*
X128067596Y-116183800D01*
X128168637Y-116082759D01*
X128325680Y-115847727D01*
X128433853Y-115586574D01*
X128489000Y-115309335D01*
X128489000Y-115026665D01*
X128443794Y-114799400D01*
X129793799Y-114799400D01*
X131178198Y-116183800D01*
G37*
%TD.AperFunction*%
D18*
X156197463Y-114871827D02*
X156276815Y-114968518D01*
X156289587Y-114979000D01*
X156276815Y-114989482D01*
X156197463Y-115086173D01*
X156138498Y-115196487D01*
X156102188Y-115316185D01*
X156089928Y-115440667D01*
X156089928Y-115604000D01*
X151008722Y-115604000D01*
X150972926Y-115600474D01*
X150947853Y-115474426D01*
X150839680Y-115213273D01*
X150710406Y-115019800D01*
X155699578Y-115019800D01*
X155736900Y-115023476D01*
X155774222Y-115019800D01*
X155774233Y-115019800D01*
X155885886Y-115008803D01*
X156029147Y-114965346D01*
X156161176Y-114894774D01*
X156194924Y-114867078D01*
X156197463Y-114871827D01*
%TA.AperFunction,NonConductor*%
D19*
G36*
X156197463Y-114871827D02*
G01*
X156276815Y-114968518D01*
X156289587Y-114979000D01*
X156276815Y-114989482D01*
X156197463Y-115086173D01*
X156138498Y-115196487D01*
X156102188Y-115316185D01*
X156089928Y-115440667D01*
X156089928Y-115604000D01*
X151008722Y-115604000D01*
X150972926Y-115600474D01*
X150947853Y-115474426D01*
X150839680Y-115213273D01*
X150710406Y-115019800D01*
X155699578Y-115019800D01*
X155736900Y-115023476D01*
X155774222Y-115019800D01*
X155774233Y-115019800D01*
X155885886Y-115008803D01*
X156029147Y-114965346D01*
X156161176Y-114894774D01*
X156194924Y-114867078D01*
X156197463Y-114871827D01*
G37*
%TD.AperFunction*%
D18*
X125619000Y-115026665D02*
X125619000Y-115249198D01*
X125169202Y-114799400D01*
X125664206Y-114799400D01*
X125619000Y-115026665D01*
%TA.AperFunction,NonConductor*%
D19*
G36*
X125619000Y-115026665D02*
G01*
X125619000Y-115249198D01*
X125169202Y-114799400D01*
X125664206Y-114799400D01*
X125619000Y-115026665D01*
G37*
%TD.AperFunction*%
D18*
X123331199Y-115111000D02*
X120822072Y-115111000D01*
X120822072Y-114947667D01*
X120809812Y-114823185D01*
X120773502Y-114703487D01*
X120714537Y-114593173D01*
X120635185Y-114496482D01*
X120622413Y-114486000D01*
X120635185Y-114475518D01*
X120714537Y-114378827D01*
X120773502Y-114268513D01*
X120809812Y-114148815D01*
X120822072Y-114024333D01*
X120822072Y-113861000D01*
X122081199Y-113861000D01*
X123331199Y-115111000D01*
%TA.AperFunction,NonConductor*%
D19*
G36*
X123331199Y-115111000D02*
G01*
X120822072Y-115111000D01*
X120822072Y-114947667D01*
X120809812Y-114823185D01*
X120773502Y-114703487D01*
X120714537Y-114593173D01*
X120635185Y-114496482D01*
X120622413Y-114486000D01*
X120635185Y-114475518D01*
X120714537Y-114378827D01*
X120773502Y-114268513D01*
X120809812Y-114148815D01*
X120822072Y-114024333D01*
X120822072Y-113861000D01*
X122081199Y-113861000D01*
X123331199Y-115111000D01*
G37*
%TD.AperFunction*%
D18*
X140757147Y-109725426D02*
X140702000Y-110002665D01*
X140702000Y-110285335D01*
X140757147Y-110562574D01*
X140757219Y-110562748D01*
X140674453Y-110587854D01*
X140542424Y-110658426D01*
X140426699Y-110753399D01*
X140402901Y-110782397D01*
X136112072Y-115073227D01*
X136112072Y-114368000D01*
X136099812Y-114243518D01*
X136063502Y-114123820D01*
X136004537Y-114013506D01*
X135925185Y-113916815D01*
X135828494Y-113837463D01*
X135718180Y-113778498D01*
X135598482Y-113742188D01*
X135590039Y-113741357D01*
X135788637Y-113542759D01*
X135945680Y-113307727D01*
X136053853Y-113046574D01*
X136109000Y-112769335D01*
X136109000Y-112486665D01*
X136053853Y-112209426D01*
X135945680Y-111948273D01*
X135788637Y-111713241D01*
X135588759Y-111513363D01*
X135356241Y-111358000D01*
X135588759Y-111202637D01*
X135788637Y-111002759D01*
X135945680Y-110767727D01*
X136053853Y-110506574D01*
X136109000Y-110229335D01*
X136109000Y-109946665D01*
X136053853Y-109669426D01*
X135993036Y-109522600D01*
X140841160Y-109522600D01*
X140757147Y-109725426D01*
%TA.AperFunction,NonConductor*%
D19*
G36*
X140757147Y-109725426D02*
G01*
X140702000Y-110002665D01*
X140702000Y-110285335D01*
X140757147Y-110562574D01*
X140757219Y-110562748D01*
X140674453Y-110587854D01*
X140542424Y-110658426D01*
X140426699Y-110753399D01*
X140402901Y-110782397D01*
X136112072Y-115073227D01*
X136112072Y-114368000D01*
X136099812Y-114243518D01*
X136063502Y-114123820D01*
X136004537Y-114013506D01*
X135925185Y-113916815D01*
X135828494Y-113837463D01*
X135718180Y-113778498D01*
X135598482Y-113742188D01*
X135590039Y-113741357D01*
X135788637Y-113542759D01*
X135945680Y-113307727D01*
X136053853Y-113046574D01*
X136109000Y-112769335D01*
X136109000Y-112486665D01*
X136053853Y-112209426D01*
X135945680Y-111948273D01*
X135788637Y-111713241D01*
X135588759Y-111513363D01*
X135356241Y-111358000D01*
X135588759Y-111202637D01*
X135788637Y-111002759D01*
X135945680Y-110767727D01*
X136053853Y-110506574D01*
X136109000Y-110229335D01*
X136109000Y-109946665D01*
X136053853Y-109669426D01*
X135993036Y-109522600D01*
X140841160Y-109522600D01*
X140757147Y-109725426D01*
G37*
%TD.AperFunction*%
D18*
X131638700Y-114352154D02*
X131638700Y-114494699D01*
X131007001Y-113863000D01*
X131149547Y-113863000D01*
X131638700Y-114352154D01*
%TA.AperFunction,NonConductor*%
D19*
G36*
X131638700Y-114352154D02*
G01*
X131638700Y-114494699D01*
X131007001Y-113863000D01*
X131149547Y-113863000D01*
X131638700Y-114352154D01*
G37*
%TD.AperFunction*%
D18*
X147158398Y-113499800D02*
X146148002Y-113499800D01*
X145377300Y-112729099D01*
X145377300Y-112666961D01*
X145337526Y-112467002D01*
X145259505Y-112278644D01*
X145146237Y-112109126D01*
X145002074Y-111964963D01*
X144832556Y-111851695D01*
X144644198Y-111773674D01*
X144444239Y-111733900D01*
X144240361Y-111733900D01*
X144040402Y-111773674D01*
X143852044Y-111851695D01*
X143682526Y-111964963D01*
X143538363Y-112109126D01*
X143485119Y-112188812D01*
X143408680Y-112004273D01*
X143251637Y-111769241D01*
X143218449Y-111736053D01*
X144306550Y-110647951D01*
X147158398Y-113499800D01*
%TA.AperFunction,NonConductor*%
D19*
G36*
X147158398Y-113499800D02*
G01*
X146148002Y-113499800D01*
X145377300Y-112729099D01*
X145377300Y-112666961D01*
X145337526Y-112467002D01*
X145259505Y-112278644D01*
X145146237Y-112109126D01*
X145002074Y-111964963D01*
X144832556Y-111851695D01*
X144644198Y-111773674D01*
X144444239Y-111733900D01*
X144240361Y-111733900D01*
X144040402Y-111773674D01*
X143852044Y-111851695D01*
X143682526Y-111964963D01*
X143538363Y-112109126D01*
X143485119Y-112188812D01*
X143408680Y-112004273D01*
X143251637Y-111769241D01*
X143218449Y-111736053D01*
X144306550Y-110647951D01*
X147158398Y-113499800D01*
G37*
%TD.AperFunction*%
D18*
X156089928Y-111747333D02*
X156102188Y-111871815D01*
X156138498Y-111991513D01*
X156197463Y-112101827D01*
X156276815Y-112198518D01*
X156289587Y-112209000D01*
X156276815Y-112219482D01*
X156197463Y-112316173D01*
X156138498Y-112426487D01*
X156102188Y-112546185D01*
X156089928Y-112670667D01*
X156089928Y-112899425D01*
X155978424Y-112959026D01*
X155978422Y-112959027D01*
X155978423Y-112959027D01*
X155891696Y-113030201D01*
X155891692Y-113030205D01*
X155862699Y-113053999D01*
X155838905Y-113082992D01*
X155422098Y-113499800D01*
X153080701Y-113499800D01*
X154996502Y-111584000D01*
X156089928Y-111584000D01*
X156089928Y-111747333D01*
%TA.AperFunction,NonConductor*%
D19*
G36*
X156089928Y-111747333D02*
G01*
X156102188Y-111871815D01*
X156138498Y-111991513D01*
X156197463Y-112101827D01*
X156276815Y-112198518D01*
X156289587Y-112209000D01*
X156276815Y-112219482D01*
X156197463Y-112316173D01*
X156138498Y-112426487D01*
X156102188Y-112546185D01*
X156089928Y-112670667D01*
X156089928Y-112899425D01*
X155978424Y-112959026D01*
X155978422Y-112959027D01*
X155978423Y-112959027D01*
X155891696Y-113030201D01*
X155891692Y-113030205D01*
X155862699Y-113053999D01*
X155838905Y-113082992D01*
X155422098Y-113499800D01*
X153080701Y-113499800D01*
X154996502Y-111584000D01*
X156089928Y-111584000D01*
X156089928Y-111747333D01*
G37*
%TD.AperFunction*%
D18*
X123865501Y-111725803D02*
X123889299Y-111754801D01*
X123918297Y-111778599D01*
X124005024Y-111849774D01*
X124137053Y-111920346D01*
X124280314Y-111963803D01*
X124429300Y-111978477D01*
X124466633Y-111974800D01*
X125771332Y-111974800D01*
X125674147Y-112209426D01*
X125619000Y-112486665D01*
X125619000Y-112769335D01*
X125674147Y-113046574D01*
X125770587Y-113279400D01*
X125370702Y-113279400D01*
X121911304Y-109820003D01*
X121887501Y-109790999D01*
X121771776Y-109696026D01*
X121639747Y-109625454D01*
X121496486Y-109581997D01*
X121384833Y-109571000D01*
X121384822Y-109571000D01*
X121347500Y-109567324D01*
X121310178Y-109571000D01*
X120822072Y-109571000D01*
X120822072Y-109407667D01*
X120809812Y-109283185D01*
X120773502Y-109163487D01*
X120714537Y-109053173D01*
X120635185Y-108956482D01*
X120622413Y-108946000D01*
X120635185Y-108935518D01*
X120714537Y-108838827D01*
X120773502Y-108728513D01*
X120795545Y-108655846D01*
X123865501Y-111725803D01*
%TA.AperFunction,NonConductor*%
D19*
G36*
X123865501Y-111725803D02*
G01*
X123889299Y-111754801D01*
X123918297Y-111778599D01*
X124005024Y-111849774D01*
X124137053Y-111920346D01*
X124280314Y-111963803D01*
X124429300Y-111978477D01*
X124466633Y-111974800D01*
X125771332Y-111974800D01*
X125674147Y-112209426D01*
X125619000Y-112486665D01*
X125619000Y-112769335D01*
X125674147Y-113046574D01*
X125770587Y-113279400D01*
X125370702Y-113279400D01*
X121911304Y-109820003D01*
X121887501Y-109790999D01*
X121771776Y-109696026D01*
X121639747Y-109625454D01*
X121496486Y-109581997D01*
X121384833Y-109571000D01*
X121384822Y-109571000D01*
X121347500Y-109567324D01*
X121310178Y-109571000D01*
X120822072Y-109571000D01*
X120822072Y-109407667D01*
X120809812Y-109283185D01*
X120773502Y-109163487D01*
X120714537Y-109053173D01*
X120635185Y-108956482D01*
X120622413Y-108946000D01*
X120635185Y-108935518D01*
X120714537Y-108838827D01*
X120773502Y-108728513D01*
X120795545Y-108655846D01*
X123865501Y-111725803D01*
G37*
%TD.AperFunction*%
D18*
X122282699Y-112341000D02*
X120822072Y-112341000D01*
X120822072Y-112177667D01*
X120809812Y-112053185D01*
X120773502Y-111933487D01*
X120714537Y-111823173D01*
X120635185Y-111726482D01*
X120622413Y-111716000D01*
X120635185Y-111705518D01*
X120714537Y-111608827D01*
X120773502Y-111498513D01*
X120809812Y-111378815D01*
X120822072Y-111254333D01*
X120822072Y-111091000D01*
X121032699Y-111091000D01*
X122282699Y-112341000D01*
%TA.AperFunction,NonConductor*%
D19*
G36*
X122282699Y-112341000D02*
G01*
X120822072Y-112341000D01*
X120822072Y-112177667D01*
X120809812Y-112053185D01*
X120773502Y-111933487D01*
X120714537Y-111823173D01*
X120635185Y-111726482D01*
X120622413Y-111716000D01*
X120635185Y-111705518D01*
X120714537Y-111608827D01*
X120773502Y-111498513D01*
X120809812Y-111378815D01*
X120822072Y-111254333D01*
X120822072Y-111091000D01*
X121032699Y-111091000D01*
X122282699Y-112341000D01*
G37*
%TD.AperFunction*%
D18*
X148377147Y-107185426D02*
X148322000Y-107462665D01*
X148322000Y-107745335D01*
X148377147Y-108022574D01*
X148485320Y-108283727D01*
X148642363Y-108518759D01*
X148842241Y-108718637D01*
X149074759Y-108874000D01*
X148842241Y-109029363D01*
X148642363Y-109229241D01*
X148485320Y-109464273D01*
X148377147Y-109725426D01*
X148322000Y-110002665D01*
X148322000Y-110285335D01*
X148377147Y-110562574D01*
X148485320Y-110823727D01*
X148642363Y-111058759D01*
X148840961Y-111257357D01*
X148832518Y-111258188D01*
X148712820Y-111294498D01*
X148602506Y-111353463D01*
X148505815Y-111432815D01*
X148483053Y-111460551D01*
X145274104Y-108251603D01*
X145250301Y-108222599D01*
X145134576Y-108127626D01*
X145002547Y-108057054D01*
X144859286Y-108013597D01*
X144747633Y-108002600D01*
X144747622Y-108002600D01*
X144710300Y-107998924D01*
X144672978Y-108002600D01*
X143520826Y-108002600D01*
X143572000Y-107745335D01*
X143572000Y-107462665D01*
X143516853Y-107185426D01*
X143512617Y-107175200D01*
X148381383Y-107175200D01*
X148377147Y-107185426D01*
%TA.AperFunction,NonConductor*%
D19*
G36*
X148377147Y-107185426D02*
G01*
X148322000Y-107462665D01*
X148322000Y-107745335D01*
X148377147Y-108022574D01*
X148485320Y-108283727D01*
X148642363Y-108518759D01*
X148842241Y-108718637D01*
X149074759Y-108874000D01*
X148842241Y-109029363D01*
X148642363Y-109229241D01*
X148485320Y-109464273D01*
X148377147Y-109725426D01*
X148322000Y-110002665D01*
X148322000Y-110285335D01*
X148377147Y-110562574D01*
X148485320Y-110823727D01*
X148642363Y-111058759D01*
X148840961Y-111257357D01*
X148832518Y-111258188D01*
X148712820Y-111294498D01*
X148602506Y-111353463D01*
X148505815Y-111432815D01*
X148483053Y-111460551D01*
X145274104Y-108251603D01*
X145250301Y-108222599D01*
X145134576Y-108127626D01*
X145002547Y-108057054D01*
X144859286Y-108013597D01*
X144747633Y-108002600D01*
X144747622Y-108002600D01*
X144710300Y-107998924D01*
X144672978Y-108002600D01*
X143520826Y-108002600D01*
X143572000Y-107745335D01*
X143572000Y-107462665D01*
X143516853Y-107185426D01*
X143512617Y-107175200D01*
X148381383Y-107175200D01*
X148377147Y-107185426D01*
G37*
%TD.AperFunction*%
D18*
X153893226Y-105910837D02*
X154062744Y-106024105D01*
X154251102Y-106102126D01*
X154451061Y-106141900D01*
X154654939Y-106141900D01*
X154854898Y-106102126D01*
X155043256Y-106024105D01*
X155212774Y-105910837D01*
X155256711Y-105866900D01*
X155914972Y-105866900D01*
X155978424Y-105918974D01*
X156089928Y-105978575D01*
X156089928Y-106207333D01*
X156102188Y-106331815D01*
X156138498Y-106451513D01*
X156197463Y-106561827D01*
X156276815Y-106658518D01*
X156289587Y-106669000D01*
X156276815Y-106679482D01*
X156197463Y-106776173D01*
X156138498Y-106886487D01*
X156102188Y-107006185D01*
X156089928Y-107130667D01*
X156089928Y-107294000D01*
X155549625Y-107294000D01*
X155512300Y-107290324D01*
X155474975Y-107294000D01*
X155474967Y-107294000D01*
X155363314Y-107304997D01*
X155220053Y-107348454D01*
X155088024Y-107419026D01*
X154972299Y-107513999D01*
X154948501Y-107542997D01*
X151030948Y-111460551D01*
X151008185Y-111432815D01*
X150911494Y-111353463D01*
X150801180Y-111294498D01*
X150681482Y-111258188D01*
X150673039Y-111257357D01*
X150871637Y-111058759D01*
X150978947Y-110898158D01*
X151031286Y-110893003D01*
X151174547Y-110849546D01*
X151306576Y-110778974D01*
X151422301Y-110684001D01*
X151517274Y-110568276D01*
X151587846Y-110436247D01*
X151631303Y-110292986D01*
X151642300Y-110181333D01*
X151645977Y-110144000D01*
X151642300Y-110106667D01*
X151642300Y-108066701D01*
X153845695Y-105863306D01*
X153893226Y-105910837D01*
%TA.AperFunction,NonConductor*%
D19*
G36*
X153893226Y-105910837D02*
G01*
X154062744Y-106024105D01*
X154251102Y-106102126D01*
X154451061Y-106141900D01*
X154654939Y-106141900D01*
X154854898Y-106102126D01*
X155043256Y-106024105D01*
X155212774Y-105910837D01*
X155256711Y-105866900D01*
X155914972Y-105866900D01*
X155978424Y-105918974D01*
X156089928Y-105978575D01*
X156089928Y-106207333D01*
X156102188Y-106331815D01*
X156138498Y-106451513D01*
X156197463Y-106561827D01*
X156276815Y-106658518D01*
X156289587Y-106669000D01*
X156276815Y-106679482D01*
X156197463Y-106776173D01*
X156138498Y-106886487D01*
X156102188Y-107006185D01*
X156089928Y-107130667D01*
X156089928Y-107294000D01*
X155549625Y-107294000D01*
X155512300Y-107290324D01*
X155474975Y-107294000D01*
X155474967Y-107294000D01*
X155363314Y-107304997D01*
X155220053Y-107348454D01*
X155088024Y-107419026D01*
X154972299Y-107513999D01*
X154948501Y-107542997D01*
X151030948Y-111460551D01*
X151008185Y-111432815D01*
X150911494Y-111353463D01*
X150801180Y-111294498D01*
X150681482Y-111258188D01*
X150673039Y-111257357D01*
X150871637Y-111058759D01*
X150978947Y-110898158D01*
X151031286Y-110893003D01*
X151174547Y-110849546D01*
X151306576Y-110778974D01*
X151422301Y-110684001D01*
X151517274Y-110568276D01*
X151587846Y-110436247D01*
X151631303Y-110292986D01*
X151642300Y-110181333D01*
X151645977Y-110144000D01*
X151642300Y-110106667D01*
X151642300Y-108066701D01*
X153845695Y-105863306D01*
X153893226Y-105910837D01*
G37*
%TD.AperFunction*%
D18*
X131638700Y-110903846D02*
X131149547Y-111393000D01*
X130817301Y-111393000D01*
X131638700Y-110571602D01*
X131638700Y-110903846D01*
%TA.AperFunction,NonConductor*%
D19*
G36*
X131638700Y-110903846D02*
G01*
X131149547Y-111393000D01*
X130817301Y-111393000D01*
X131638700Y-110571602D01*
X131638700Y-110903846D01*
G37*
%TD.AperFunction*%
D18*
X133239000Y-107406665D02*
X133239000Y-107689335D01*
X133294147Y-107966574D01*
X133309069Y-108002600D01*
X132410222Y-108002600D01*
X132372899Y-107998924D01*
X132335576Y-108002600D01*
X132335567Y-108002600D01*
X132223914Y-108013597D01*
X132080653Y-108057054D01*
X131948624Y-108127626D01*
X131948622Y-108127627D01*
X131948623Y-108127627D01*
X131861896Y-108198801D01*
X131861892Y-108198805D01*
X131832899Y-108222599D01*
X131809105Y-108251592D01*
X129605899Y-110454800D01*
X128887301Y-110454800D01*
X132166902Y-107175200D01*
X133285042Y-107175200D01*
X133239000Y-107406665D01*
%TA.AperFunction,NonConductor*%
D19*
G36*
X133239000Y-107406665D02*
G01*
X133239000Y-107689335D01*
X133294147Y-107966574D01*
X133309069Y-108002600D01*
X132410222Y-108002600D01*
X132372899Y-107998924D01*
X132335576Y-108002600D01*
X132335567Y-108002600D01*
X132223914Y-108013597D01*
X132080653Y-108057054D01*
X131948624Y-108127626D01*
X131948622Y-108127627D01*
X131948623Y-108127627D01*
X131861896Y-108198801D01*
X131861892Y-108198805D01*
X131832899Y-108222599D01*
X131809105Y-108251592D01*
X129605899Y-110454800D01*
X128887301Y-110454800D01*
X132166902Y-107175200D01*
X133285042Y-107175200D01*
X133239000Y-107406665D01*
G37*
%TD.AperFunction*%
D18*
X125782320Y-103147727D02*
X125939363Y-103382759D01*
X126139241Y-103582637D01*
X126371759Y-103738000D01*
X126139241Y-103893363D01*
X125939363Y-104093241D01*
X125782320Y-104328273D01*
X125674147Y-104589426D01*
X125619000Y-104866665D01*
X125619000Y-105149335D01*
X125674147Y-105426574D01*
X125782320Y-105687727D01*
X125939363Y-105922759D01*
X126139241Y-106122637D01*
X126315167Y-106240187D01*
X126304997Y-106273714D01*
X126299842Y-106326053D01*
X126139241Y-106433363D01*
X125939363Y-106633241D01*
X125782320Y-106868273D01*
X125674147Y-107129426D01*
X125619000Y-107406665D01*
X125619000Y-107689335D01*
X125674147Y-107966574D01*
X125782320Y-108227727D01*
X125939363Y-108462759D01*
X126139241Y-108662637D01*
X126371759Y-108818000D01*
X126139241Y-108973363D01*
X125939363Y-109173241D01*
X125782320Y-109408273D01*
X125674147Y-109669426D01*
X125619000Y-109946665D01*
X125619000Y-110229335D01*
X125663848Y-110454800D01*
X124744102Y-110454800D01*
X121339304Y-107050003D01*
X121315501Y-107020999D01*
X121199776Y-106926026D01*
X121067747Y-106855454D01*
X120924486Y-106811997D01*
X120822072Y-106801910D01*
X120822072Y-106637667D01*
X120809812Y-106513185D01*
X120773502Y-106393487D01*
X120714537Y-106283173D01*
X120635185Y-106186482D01*
X120622413Y-106176000D01*
X120635185Y-106165518D01*
X120714537Y-106068827D01*
X120773502Y-105958513D01*
X120809812Y-105838815D01*
X120822072Y-105714333D01*
X120822072Y-105551000D01*
X123007678Y-105551000D01*
X123045000Y-105554676D01*
X123082322Y-105551000D01*
X123082333Y-105551000D01*
X123193986Y-105540003D01*
X123337247Y-105496546D01*
X123469276Y-105425974D01*
X123585001Y-105331001D01*
X123608804Y-105301997D01*
X125776683Y-103134118D01*
X125782320Y-103147727D01*
%TA.AperFunction,NonConductor*%
D19*
G36*
X125782320Y-103147727D02*
G01*
X125939363Y-103382759D01*
X126139241Y-103582637D01*
X126371759Y-103738000D01*
X126139241Y-103893363D01*
X125939363Y-104093241D01*
X125782320Y-104328273D01*
X125674147Y-104589426D01*
X125619000Y-104866665D01*
X125619000Y-105149335D01*
X125674147Y-105426574D01*
X125782320Y-105687727D01*
X125939363Y-105922759D01*
X126139241Y-106122637D01*
X126315167Y-106240187D01*
X126304997Y-106273714D01*
X126299842Y-106326053D01*
X126139241Y-106433363D01*
X125939363Y-106633241D01*
X125782320Y-106868273D01*
X125674147Y-107129426D01*
X125619000Y-107406665D01*
X125619000Y-107689335D01*
X125674147Y-107966574D01*
X125782320Y-108227727D01*
X125939363Y-108462759D01*
X126139241Y-108662637D01*
X126371759Y-108818000D01*
X126139241Y-108973363D01*
X125939363Y-109173241D01*
X125782320Y-109408273D01*
X125674147Y-109669426D01*
X125619000Y-109946665D01*
X125619000Y-110229335D01*
X125663848Y-110454800D01*
X124744102Y-110454800D01*
X121339304Y-107050003D01*
X121315501Y-107020999D01*
X121199776Y-106926026D01*
X121067747Y-106855454D01*
X120924486Y-106811997D01*
X120822072Y-106801910D01*
X120822072Y-106637667D01*
X120809812Y-106513185D01*
X120773502Y-106393487D01*
X120714537Y-106283173D01*
X120635185Y-106186482D01*
X120622413Y-106176000D01*
X120635185Y-106165518D01*
X120714537Y-106068827D01*
X120773502Y-105958513D01*
X120809812Y-105838815D01*
X120822072Y-105714333D01*
X120822072Y-105551000D01*
X123007678Y-105551000D01*
X123045000Y-105554676D01*
X123082322Y-105551000D01*
X123082333Y-105551000D01*
X123193986Y-105540003D01*
X123337247Y-105496546D01*
X123469276Y-105425974D01*
X123585001Y-105331001D01*
X123608804Y-105301997D01*
X125776683Y-103134118D01*
X125782320Y-103147727D01*
G37*
%TD.AperFunction*%
D18*
X156089928Y-108977333D02*
X156102188Y-109101815D01*
X156138498Y-109221513D01*
X156197463Y-109331827D01*
X156276815Y-109428518D01*
X156289587Y-109439000D01*
X156276815Y-109449482D01*
X156197463Y-109546173D01*
X156138498Y-109656487D01*
X156102188Y-109776185D01*
X156089928Y-109900667D01*
X156089928Y-110064000D01*
X154719022Y-110064000D01*
X154681699Y-110060324D01*
X154644376Y-110064000D01*
X154644367Y-110064000D01*
X154569753Y-110071349D01*
X155827102Y-108814000D01*
X156089928Y-108814000D01*
X156089928Y-108977333D01*
%TA.AperFunction,NonConductor*%
D19*
G36*
X156089928Y-108977333D02*
G01*
X156102188Y-109101815D01*
X156138498Y-109221513D01*
X156197463Y-109331827D01*
X156276815Y-109428518D01*
X156289587Y-109439000D01*
X156276815Y-109449482D01*
X156197463Y-109546173D01*
X156138498Y-109656487D01*
X156102188Y-109776185D01*
X156089928Y-109900667D01*
X156089928Y-110064000D01*
X154719022Y-110064000D01*
X154681699Y-110060324D01*
X154644376Y-110064000D01*
X154644367Y-110064000D01*
X154569753Y-110071349D01*
X155827102Y-108814000D01*
X156089928Y-108814000D01*
X156089928Y-108977333D01*
G37*
%TD.AperFunction*%
D18*
X132017601Y-104162503D02*
X132041399Y-104191501D01*
X132070397Y-104215299D01*
X132157124Y-104286474D01*
X132289153Y-104357046D01*
X132432414Y-104400503D01*
X132581400Y-104415177D01*
X132618733Y-104411500D01*
X133367846Y-104411500D01*
X133294147Y-104589426D01*
X133239000Y-104866665D01*
X133239000Y-105149335D01*
X133294147Y-105426574D01*
X133388847Y-105655200D01*
X131889433Y-105655200D01*
X131852100Y-105651523D01*
X131814767Y-105655200D01*
X131703114Y-105666197D01*
X131559853Y-105709654D01*
X131427824Y-105780226D01*
X131312099Y-105875199D01*
X131288301Y-105904197D01*
X128093947Y-109098551D01*
X127968759Y-108973363D01*
X127736241Y-108818000D01*
X127968759Y-108662637D01*
X128168637Y-108462759D01*
X128325680Y-108227727D01*
X128433853Y-107966574D01*
X128489000Y-107689335D01*
X128489000Y-107406665D01*
X128433853Y-107129426D01*
X128325680Y-106868273D01*
X128181063Y-106651838D01*
X130103103Y-104729799D01*
X130132101Y-104706001D01*
X130227074Y-104590276D01*
X130297646Y-104458247D01*
X130341103Y-104314986D01*
X130352100Y-104203333D01*
X130352100Y-104203325D01*
X130355776Y-104166000D01*
X130352100Y-104128675D01*
X130352100Y-102497001D01*
X132017601Y-104162503D01*
%TA.AperFunction,NonConductor*%
D19*
G36*
X132017601Y-104162503D02*
G01*
X132041399Y-104191501D01*
X132070397Y-104215299D01*
X132157124Y-104286474D01*
X132289153Y-104357046D01*
X132432414Y-104400503D01*
X132581400Y-104415177D01*
X132618733Y-104411500D01*
X133367846Y-104411500D01*
X133294147Y-104589426D01*
X133239000Y-104866665D01*
X133239000Y-105149335D01*
X133294147Y-105426574D01*
X133388847Y-105655200D01*
X131889433Y-105655200D01*
X131852100Y-105651523D01*
X131814767Y-105655200D01*
X131703114Y-105666197D01*
X131559853Y-105709654D01*
X131427824Y-105780226D01*
X131312099Y-105875199D01*
X131288301Y-105904197D01*
X128093947Y-109098551D01*
X127968759Y-108973363D01*
X127736241Y-108818000D01*
X127968759Y-108662637D01*
X128168637Y-108462759D01*
X128325680Y-108227727D01*
X128433853Y-107966574D01*
X128489000Y-107689335D01*
X128489000Y-107406665D01*
X128433853Y-107129426D01*
X128325680Y-106868273D01*
X128181063Y-106651838D01*
X130103103Y-104729799D01*
X130132101Y-104706001D01*
X130227074Y-104590276D01*
X130297646Y-104458247D01*
X130341103Y-104314986D01*
X130352100Y-104203333D01*
X130352100Y-104203325D01*
X130355776Y-104166000D01*
X130352100Y-104128675D01*
X130352100Y-102497001D01*
X132017601Y-104162503D01*
G37*
%TD.AperFunction*%
D18*
X140757147Y-107185426D02*
X140702000Y-107462665D01*
X140702000Y-107745335D01*
X140753174Y-108002600D01*
X136038931Y-108002600D01*
X136053853Y-107966574D01*
X136109000Y-107689335D01*
X136109000Y-107406665D01*
X136062958Y-107175200D01*
X140761383Y-107175200D01*
X140757147Y-107185426D01*
%TA.AperFunction,NonConductor*%
D19*
G36*
X140757147Y-107185426D02*
G01*
X140702000Y-107462665D01*
X140702000Y-107745335D01*
X140753174Y-108002600D01*
X136038931Y-108002600D01*
X136053853Y-107966574D01*
X136109000Y-107689335D01*
X136109000Y-107406665D01*
X136062958Y-107175200D01*
X140761383Y-107175200D01*
X140757147Y-107185426D01*
G37*
%TD.AperFunction*%
D18*
X148377147Y-104645426D02*
X148322000Y-104922665D01*
X148322000Y-105205335D01*
X148377147Y-105482574D01*
X148448651Y-105655200D01*
X143445349Y-105655200D01*
X143516853Y-105482574D01*
X143572000Y-105205335D01*
X143572000Y-104922665D01*
X143516853Y-104645426D01*
X143419958Y-104411500D01*
X148474042Y-104411500D01*
X148377147Y-104645426D01*
%TA.AperFunction,NonConductor*%
D19*
G36*
X148377147Y-104645426D02*
G01*
X148322000Y-104922665D01*
X148322000Y-105205335D01*
X148377147Y-105482574D01*
X148448651Y-105655200D01*
X143445349Y-105655200D01*
X143516853Y-105482574D01*
X143572000Y-105205335D01*
X143572000Y-104922665D01*
X143516853Y-104645426D01*
X143419958Y-104411500D01*
X148474042Y-104411500D01*
X148377147Y-104645426D01*
G37*
%TD.AperFunction*%
D18*
X140757147Y-104645426D02*
X140702000Y-104922665D01*
X140702000Y-105205335D01*
X140757147Y-105482574D01*
X140828651Y-105655200D01*
X135959153Y-105655200D01*
X136053853Y-105426574D01*
X136109000Y-105149335D01*
X136109000Y-104866665D01*
X136053853Y-104589426D01*
X135980154Y-104411500D01*
X140854042Y-104411500D01*
X140757147Y-104645426D01*
%TA.AperFunction,NonConductor*%
D19*
G36*
X140757147Y-104645426D02*
G01*
X140702000Y-104922665D01*
X140702000Y-105205335D01*
X140757147Y-105482574D01*
X140828651Y-105655200D01*
X135959153Y-105655200D01*
X136053853Y-105426574D01*
X136109000Y-105149335D01*
X136109000Y-104866665D01*
X136053853Y-104589426D01*
X135980154Y-104411500D01*
X140854042Y-104411500D01*
X140757147Y-104645426D01*
G37*
%TD.AperFunction*%
D18*
X151181530Y-105257968D02*
X151192000Y-105205335D01*
X151192000Y-104922665D01*
X151136853Y-104645426D01*
X151039958Y-104411500D01*
X152027999Y-104411500D01*
X151181530Y-105257968D01*
%TA.AperFunction,NonConductor*%
D19*
G36*
X151181530Y-105257968D02*
G01*
X151192000Y-105205335D01*
X151192000Y-104922665D01*
X151136853Y-104645426D01*
X151039958Y-104411500D01*
X152027999Y-104411500D01*
X151181530Y-105257968D01*
G37*
%TD.AperFunction*%
D18*
X128832100Y-101049768D02*
X128832100Y-101049778D01*
X128828424Y-101087100D01*
X128832100Y-101124423D01*
X128832101Y-103851197D01*
X128334275Y-104349023D01*
X128325680Y-104328273D01*
X128168637Y-104093241D01*
X127968759Y-103893363D01*
X127736241Y-103738000D01*
X127968759Y-103582637D01*
X128168637Y-103382759D01*
X128325680Y-103147727D01*
X128433853Y-102886574D01*
X128489000Y-102609335D01*
X128489000Y-102326665D01*
X128433853Y-102049426D01*
X128325680Y-101788273D01*
X128222760Y-101634241D01*
X128834817Y-101022185D01*
X128832100Y-101049768D01*
%TA.AperFunction,NonConductor*%
D19*
G36*
X128832100Y-101049768D02*
G01*
X128832100Y-101049778D01*
X128828424Y-101087100D01*
X128832100Y-101124423D01*
X128832101Y-103851197D01*
X128334275Y-104349023D01*
X128325680Y-104328273D01*
X128168637Y-104093241D01*
X127968759Y-103893363D01*
X127736241Y-103738000D01*
X127968759Y-103582637D01*
X128168637Y-103382759D01*
X128325680Y-103147727D01*
X128433853Y-102886574D01*
X128489000Y-102609335D01*
X128489000Y-102326665D01*
X128433853Y-102049426D01*
X128325680Y-101788273D01*
X128222760Y-101634241D01*
X128834817Y-101022185D01*
X128832100Y-101049768D01*
G37*
%TD.AperFunction*%
D18*
X156138498Y-103681513D02*
X156197463Y-103791827D01*
X156276815Y-103888518D01*
X156289587Y-103899000D01*
X156276815Y-103909482D01*
X156197463Y-104006173D01*
X156138498Y-104116487D01*
X156102188Y-104236185D01*
X156091284Y-104346900D01*
X155362102Y-104346900D01*
X156112661Y-103596341D01*
X156138498Y-103681513D01*
%TA.AperFunction,NonConductor*%
D19*
G36*
X156138498Y-103681513D02*
G01*
X156197463Y-103791827D01*
X156276815Y-103888518D01*
X156289587Y-103899000D01*
X156276815Y-103909482D01*
X156197463Y-104006173D01*
X156138498Y-104116487D01*
X156102188Y-104236185D01*
X156091284Y-104346900D01*
X155362102Y-104346900D01*
X156112661Y-103596341D01*
X156138498Y-103681513D01*
G37*
%TD.AperFunction*%
D18*
X125782320Y-98067727D02*
X125939363Y-98302759D01*
X126139241Y-98502637D01*
X126371759Y-98658000D01*
X126139241Y-98813363D01*
X125939363Y-99013241D01*
X125782320Y-99248273D01*
X125674147Y-99509426D01*
X125619000Y-99786665D01*
X125619000Y-100069335D01*
X125674147Y-100346574D01*
X125782320Y-100607727D01*
X125930982Y-100830216D01*
X122730199Y-104031000D01*
X120822072Y-104031000D01*
X120822072Y-103867667D01*
X120809812Y-103743185D01*
X120773502Y-103623487D01*
X120714537Y-103513173D01*
X120635185Y-103416482D01*
X120622413Y-103406000D01*
X120635185Y-103395518D01*
X120714537Y-103298827D01*
X120773502Y-103188513D01*
X120809812Y-103068815D01*
X120822072Y-102944333D01*
X120822072Y-102715575D01*
X120933576Y-102655974D01*
X121049301Y-102561001D01*
X121073104Y-102531997D01*
X125710577Y-97894524D01*
X125782320Y-98067727D01*
%TA.AperFunction,NonConductor*%
D19*
G36*
X125782320Y-98067727D02*
G01*
X125939363Y-98302759D01*
X126139241Y-98502637D01*
X126371759Y-98658000D01*
X126139241Y-98813363D01*
X125939363Y-99013241D01*
X125782320Y-99248273D01*
X125674147Y-99509426D01*
X125619000Y-99786665D01*
X125619000Y-100069335D01*
X125674147Y-100346574D01*
X125782320Y-100607727D01*
X125930982Y-100830216D01*
X122730199Y-104031000D01*
X120822072Y-104031000D01*
X120822072Y-103867667D01*
X120809812Y-103743185D01*
X120773502Y-103623487D01*
X120714537Y-103513173D01*
X120635185Y-103416482D01*
X120622413Y-103406000D01*
X120635185Y-103395518D01*
X120714537Y-103298827D01*
X120773502Y-103188513D01*
X120809812Y-103068815D01*
X120822072Y-102944333D01*
X120822072Y-102715575D01*
X120933576Y-102655974D01*
X121049301Y-102561001D01*
X121073104Y-102531997D01*
X125710577Y-97894524D01*
X125782320Y-98067727D01*
G37*
%TD.AperFunction*%
D18*
X133294147Y-102049426D02*
X133239000Y-102326665D01*
X133239000Y-102609335D01*
X133294147Y-102886574D01*
X133296187Y-102891500D01*
X132896202Y-102891500D01*
X131902101Y-101897400D01*
X133357118Y-101897400D01*
X133294147Y-102049426D01*
%TA.AperFunction,NonConductor*%
D19*
G36*
X133294147Y-102049426D02*
G01*
X133239000Y-102326665D01*
X133239000Y-102609335D01*
X133294147Y-102886574D01*
X133296187Y-102891500D01*
X132896202Y-102891500D01*
X131902101Y-101897400D01*
X133357118Y-101897400D01*
X133294147Y-102049426D01*
G37*
%TD.AperFunction*%
D18*
X140757147Y-102105426D02*
X140702000Y-102382665D01*
X140702000Y-102665335D01*
X140746988Y-102891500D01*
X136051813Y-102891500D01*
X136053853Y-102886574D01*
X136109000Y-102609335D01*
X136109000Y-102326665D01*
X136053853Y-102049426D01*
X135990882Y-101897400D01*
X140843314Y-101897400D01*
X140757147Y-102105426D01*
%TA.AperFunction,NonConductor*%
D19*
G36*
X140757147Y-102105426D02*
G01*
X140702000Y-102382665D01*
X140702000Y-102665335D01*
X140746988Y-102891500D01*
X136051813Y-102891500D01*
X136053853Y-102886574D01*
X136109000Y-102609335D01*
X136109000Y-102326665D01*
X136053853Y-102049426D01*
X135990882Y-101897400D01*
X140843314Y-101897400D01*
X140757147Y-102105426D01*
G37*
%TD.AperFunction*%
D18*
X148377147Y-102105426D02*
X148322000Y-102382665D01*
X148322000Y-102665335D01*
X148366988Y-102891500D01*
X143527012Y-102891500D01*
X143572000Y-102665335D01*
X143572000Y-102382665D01*
X143516853Y-102105426D01*
X143430686Y-101897400D01*
X148463314Y-101897400D01*
X148377147Y-102105426D01*
%TA.AperFunction,NonConductor*%
D19*
G36*
X148377147Y-102105426D02*
G01*
X148322000Y-102382665D01*
X148322000Y-102665335D01*
X148366988Y-102891500D01*
X143527012Y-102891500D01*
X143572000Y-102665335D01*
X143572000Y-102382665D01*
X143516853Y-102105426D01*
X143430686Y-101897400D01*
X148463314Y-101897400D01*
X148377147Y-102105426D01*
G37*
%TD.AperFunction*%
D18*
X156276815Y-98348518D02*
X156289587Y-98359000D01*
X156276815Y-98369482D01*
X156197463Y-98466173D01*
X156138498Y-98576487D01*
X156102188Y-98696185D01*
X156089928Y-98820667D01*
X156089928Y-99049425D01*
X155978424Y-99109026D01*
X155978422Y-99109027D01*
X155978423Y-99109027D01*
X155891696Y-99180201D01*
X155891692Y-99180205D01*
X155862699Y-99203999D01*
X155838905Y-99232992D01*
X152180399Y-102891500D01*
X151147012Y-102891500D01*
X151192000Y-102665335D01*
X151192000Y-102382665D01*
X151136853Y-102105426D01*
X151050686Y-101897400D01*
X152201978Y-101897400D01*
X152239300Y-101901076D01*
X152276622Y-101897400D01*
X152276633Y-101897400D01*
X152388286Y-101886403D01*
X152531547Y-101842946D01*
X152663576Y-101772374D01*
X152779301Y-101677401D01*
X152803104Y-101648397D01*
X156198460Y-98253042D01*
X156276815Y-98348518D01*
%TA.AperFunction,NonConductor*%
D19*
G36*
X156276815Y-98348518D02*
G01*
X156289587Y-98359000D01*
X156276815Y-98369482D01*
X156197463Y-98466173D01*
X156138498Y-98576487D01*
X156102188Y-98696185D01*
X156089928Y-98820667D01*
X156089928Y-99049425D01*
X155978424Y-99109026D01*
X155978422Y-99109027D01*
X155978423Y-99109027D01*
X155891696Y-99180201D01*
X155891692Y-99180205D01*
X155862699Y-99203999D01*
X155838905Y-99232992D01*
X152180399Y-102891500D01*
X151147012Y-102891500D01*
X151192000Y-102665335D01*
X151192000Y-102382665D01*
X151136853Y-102105426D01*
X151050686Y-101897400D01*
X152201978Y-101897400D01*
X152239300Y-101901076D01*
X152276622Y-101897400D01*
X152276633Y-101897400D01*
X152388286Y-101886403D01*
X152531547Y-101842946D01*
X152663576Y-101772374D01*
X152779301Y-101677401D01*
X152803104Y-101648397D01*
X156198460Y-98253042D01*
X156276815Y-98348518D01*
G37*
%TD.AperFunction*%
D18*
X120713540Y-100741959D02*
X120635185Y-100646482D01*
X120622413Y-100636000D01*
X120635185Y-100625518D01*
X120714537Y-100528827D01*
X120773502Y-100418513D01*
X120809812Y-100298815D01*
X120822072Y-100174333D01*
X120822072Y-98327667D01*
X120809812Y-98203185D01*
X120773502Y-98083487D01*
X120714537Y-97973173D01*
X120635185Y-97876482D01*
X120622413Y-97866000D01*
X120635185Y-97855518D01*
X120714537Y-97758827D01*
X120773502Y-97648513D01*
X120809812Y-97528815D01*
X120822072Y-97404333D01*
X120822072Y-97241000D01*
X124214498Y-97241000D01*
X120713540Y-100741959D01*
%TA.AperFunction,NonConductor*%
D19*
G36*
X120713540Y-100741959D02*
G01*
X120635185Y-100646482D01*
X120622413Y-100636000D01*
X120635185Y-100625518D01*
X120714537Y-100528827D01*
X120773502Y-100418513D01*
X120809812Y-100298815D01*
X120822072Y-100174333D01*
X120822072Y-98327667D01*
X120809812Y-98203185D01*
X120773502Y-98083487D01*
X120714537Y-97973173D01*
X120635185Y-97876482D01*
X120622413Y-97866000D01*
X120635185Y-97855518D01*
X120714537Y-97758827D01*
X120773502Y-97648513D01*
X120809812Y-97528815D01*
X120822072Y-97404333D01*
X120822072Y-97241000D01*
X124214498Y-97241000D01*
X120713540Y-100741959D01*
G37*
%TD.AperFunction*%
D18*
X140757147Y-99565426D02*
X140702000Y-99842665D01*
X140702000Y-100125335D01*
X140752140Y-100377400D01*
X136041084Y-100377400D01*
X136053853Y-100346574D01*
X136109000Y-100069335D01*
X136109000Y-99786665D01*
X136057826Y-99529400D01*
X140772069Y-99529400D01*
X140757147Y-99565426D01*
%TA.AperFunction,NonConductor*%
D19*
G36*
X140757147Y-99565426D02*
G01*
X140702000Y-99842665D01*
X140702000Y-100125335D01*
X140752140Y-100377400D01*
X136041084Y-100377400D01*
X136053853Y-100346574D01*
X136109000Y-100069335D01*
X136109000Y-99786665D01*
X136057826Y-99529400D01*
X140772069Y-99529400D01*
X140757147Y-99565426D01*
G37*
%TD.AperFunction*%
D18*
X154811526Y-92264380D02*
X154850198Y-92311502D01*
X155038251Y-92465833D01*
X155252799Y-92580511D01*
X155485598Y-92651130D01*
X155667035Y-92669000D01*
X155667044Y-92669000D01*
X155727699Y-92674974D01*
X155788354Y-92669000D01*
X156174571Y-92669000D01*
X156197463Y-92711827D01*
X156276815Y-92808518D01*
X156289587Y-92819000D01*
X156276815Y-92829482D01*
X156197463Y-92926173D01*
X156138498Y-93036487D01*
X156102188Y-93156185D01*
X156089928Y-93280667D01*
X156089928Y-95127333D01*
X156102188Y-95251815D01*
X156138498Y-95371513D01*
X156197463Y-95481827D01*
X156276815Y-95578518D01*
X156289587Y-95589000D01*
X156276815Y-95599482D01*
X156197463Y-95696173D01*
X156138498Y-95806487D01*
X156102188Y-95926185D01*
X156089928Y-96050667D01*
X156089928Y-96279425D01*
X155978424Y-96339026D01*
X155862699Y-96433999D01*
X155838901Y-96462997D01*
X151924499Y-100377400D01*
X151141860Y-100377400D01*
X151192000Y-100125335D01*
X151192000Y-99842665D01*
X151136853Y-99565426D01*
X151042169Y-99336838D01*
X151075601Y-99309401D01*
X151099404Y-99280397D01*
X153878803Y-96500999D01*
X153907801Y-96477201D01*
X154002774Y-96361476D01*
X154073346Y-96229447D01*
X154116803Y-96086186D01*
X154127800Y-95974533D01*
X154127800Y-95974525D01*
X154131476Y-95937200D01*
X154127800Y-95899875D01*
X154127800Y-91838122D01*
X154131476Y-91800799D01*
X154127800Y-91763476D01*
X154127800Y-91763467D01*
X154116803Y-91651814D01*
X154081030Y-91533883D01*
X154811526Y-92264380D01*
%TA.AperFunction,NonConductor*%
D19*
G36*
X154811526Y-92264380D02*
G01*
X154850198Y-92311502D01*
X155038251Y-92465833D01*
X155252799Y-92580511D01*
X155485598Y-92651130D01*
X155667035Y-92669000D01*
X155667044Y-92669000D01*
X155727699Y-92674974D01*
X155788354Y-92669000D01*
X156174571Y-92669000D01*
X156197463Y-92711827D01*
X156276815Y-92808518D01*
X156289587Y-92819000D01*
X156276815Y-92829482D01*
X156197463Y-92926173D01*
X156138498Y-93036487D01*
X156102188Y-93156185D01*
X156089928Y-93280667D01*
X156089928Y-95127333D01*
X156102188Y-95251815D01*
X156138498Y-95371513D01*
X156197463Y-95481827D01*
X156276815Y-95578518D01*
X156289587Y-95589000D01*
X156276815Y-95599482D01*
X156197463Y-95696173D01*
X156138498Y-95806487D01*
X156102188Y-95926185D01*
X156089928Y-96050667D01*
X156089928Y-96279425D01*
X155978424Y-96339026D01*
X155862699Y-96433999D01*
X155838901Y-96462997D01*
X151924499Y-100377400D01*
X151141860Y-100377400D01*
X151192000Y-100125335D01*
X151192000Y-99842665D01*
X151136853Y-99565426D01*
X151042169Y-99336838D01*
X151075601Y-99309401D01*
X151099404Y-99280397D01*
X153878803Y-96500999D01*
X153907801Y-96477201D01*
X154002774Y-96361476D01*
X154073346Y-96229447D01*
X154116803Y-96086186D01*
X154127800Y-95974533D01*
X154127800Y-95974525D01*
X154131476Y-95937200D01*
X154127800Y-95899875D01*
X154127800Y-91838122D01*
X154131476Y-91800799D01*
X154127800Y-91763476D01*
X154127800Y-91763467D01*
X154116803Y-91651814D01*
X154081030Y-91533883D01*
X154811526Y-92264380D01*
G37*
%TD.AperFunction*%
D18*
X148377147Y-99565426D02*
X148322000Y-99842665D01*
X148322000Y-100125335D01*
X148372140Y-100377400D01*
X143521860Y-100377400D01*
X143572000Y-100125335D01*
X143572000Y-99842665D01*
X143516853Y-99565426D01*
X143501931Y-99529400D01*
X148392069Y-99529400D01*
X148377147Y-99565426D01*
%TA.AperFunction,NonConductor*%
D19*
G36*
X148377147Y-99565426D02*
G01*
X148322000Y-99842665D01*
X148322000Y-100125335D01*
X148372140Y-100377400D01*
X143521860Y-100377400D01*
X143572000Y-100125335D01*
X143572000Y-99842665D01*
X143516853Y-99565426D01*
X143501931Y-99529400D01*
X148392069Y-99529400D01*
X148377147Y-99565426D01*
G37*
%TD.AperFunction*%
D18*
X133239000Y-99786665D02*
X133239000Y-100069335D01*
X133294147Y-100346574D01*
X133306916Y-100377400D01*
X131407901Y-100377400D01*
X131181704Y-100151203D01*
X131157901Y-100122199D01*
X131042176Y-100027226D01*
X130910147Y-99956654D01*
X130766886Y-99913197D01*
X130655233Y-99902200D01*
X130655222Y-99902200D01*
X130617900Y-99898524D01*
X130580578Y-99902200D01*
X130054322Y-99902200D01*
X130016999Y-99898524D01*
X129979676Y-99902200D01*
X129979667Y-99902200D01*
X129952085Y-99904917D01*
X130327602Y-99529400D01*
X133290174Y-99529400D01*
X133239000Y-99786665D01*
%TA.AperFunction,NonConductor*%
D19*
G36*
X133239000Y-99786665D02*
G01*
X133239000Y-100069335D01*
X133294147Y-100346574D01*
X133306916Y-100377400D01*
X131407901Y-100377400D01*
X131181704Y-100151203D01*
X131157901Y-100122199D01*
X131042176Y-100027226D01*
X130910147Y-99956654D01*
X130766886Y-99913197D01*
X130655233Y-99902200D01*
X130655222Y-99902200D01*
X130617900Y-99898524D01*
X130580578Y-99902200D01*
X130054322Y-99902200D01*
X130016999Y-99898524D01*
X129979676Y-99902200D01*
X129979667Y-99902200D01*
X129952085Y-99904917D01*
X130327602Y-99529400D01*
X133290174Y-99529400D01*
X133239000Y-99786665D01*
G37*
%TD.AperFunction*%
D18*
X135962747Y-96153000D02*
X135408623Y-96153000D01*
X135353727Y-96116320D01*
X135092574Y-96008147D01*
X134815335Y-95953000D01*
X134532665Y-95953000D01*
X134255426Y-96008147D01*
X133994273Y-96116320D01*
X133759241Y-96273363D01*
X133559363Y-96473241D01*
X133402320Y-96708273D01*
X133294147Y-96969426D01*
X133239000Y-97246665D01*
X133239000Y-97529335D01*
X133294147Y-97806574D01*
X133378160Y-98009400D01*
X130050122Y-98009400D01*
X130012799Y-98005724D01*
X129975476Y-98009400D01*
X129975467Y-98009400D01*
X129863814Y-98020397D01*
X129720553Y-98063854D01*
X129588523Y-98134426D01*
X129579888Y-98141513D01*
X129472799Y-98229399D01*
X129449001Y-98258397D01*
X128364765Y-99342633D01*
X128325680Y-99248273D01*
X128168637Y-99013241D01*
X127968759Y-98813363D01*
X127736241Y-98658000D01*
X127968759Y-98502637D01*
X128168637Y-98302759D01*
X128325680Y-98067727D01*
X128433853Y-97806574D01*
X128489000Y-97529335D01*
X128489000Y-97246665D01*
X128433853Y-96969426D01*
X128325680Y-96708273D01*
X128168637Y-96473241D01*
X127968759Y-96273363D01*
X127733727Y-96116320D01*
X127560525Y-96044577D01*
X128361402Y-95243700D01*
X136872046Y-95243700D01*
X135962747Y-96153000D01*
%TA.AperFunction,NonConductor*%
D19*
G36*
X135962747Y-96153000D02*
G01*
X135408623Y-96153000D01*
X135353727Y-96116320D01*
X135092574Y-96008147D01*
X134815335Y-95953000D01*
X134532665Y-95953000D01*
X134255426Y-96008147D01*
X133994273Y-96116320D01*
X133759241Y-96273363D01*
X133559363Y-96473241D01*
X133402320Y-96708273D01*
X133294147Y-96969426D01*
X133239000Y-97246665D01*
X133239000Y-97529335D01*
X133294147Y-97806574D01*
X133378160Y-98009400D01*
X130050122Y-98009400D01*
X130012799Y-98005724D01*
X129975476Y-98009400D01*
X129975467Y-98009400D01*
X129863814Y-98020397D01*
X129720553Y-98063854D01*
X129588523Y-98134426D01*
X129579888Y-98141513D01*
X129472799Y-98229399D01*
X129449001Y-98258397D01*
X128364765Y-99342633D01*
X128325680Y-99248273D01*
X128168637Y-99013241D01*
X127968759Y-98813363D01*
X127736241Y-98658000D01*
X127968759Y-98502637D01*
X128168637Y-98302759D01*
X128325680Y-98067727D01*
X128433853Y-97806574D01*
X128489000Y-97529335D01*
X128489000Y-97246665D01*
X128433853Y-96969426D01*
X128325680Y-96708273D01*
X128168637Y-96473241D01*
X127968759Y-96273363D01*
X127733727Y-96116320D01*
X127560525Y-96044577D01*
X128361402Y-95243700D01*
X136872046Y-95243700D01*
X135962747Y-96153000D01*
G37*
%TD.AperFunction*%
D18*
X145548547Y-98009400D02*
X143456036Y-98009400D01*
X143516853Y-97862574D01*
X143572000Y-97585335D01*
X143572000Y-97302665D01*
X143516853Y-97025426D01*
X143451852Y-96868500D01*
X144407647Y-96868500D01*
X145548547Y-98009400D01*
%TA.AperFunction,NonConductor*%
D19*
G36*
X145548547Y-98009400D02*
G01*
X143456036Y-98009400D01*
X143516853Y-97862574D01*
X143572000Y-97585335D01*
X143572000Y-97302665D01*
X143516853Y-97025426D01*
X143451852Y-96868500D01*
X144407647Y-96868500D01*
X145548547Y-98009400D01*
G37*
%TD.AperFunction*%
D18*
X140757147Y-97025426D02*
X140702000Y-97302665D01*
X140702000Y-97585335D01*
X140757147Y-97862574D01*
X140817964Y-98009400D01*
X137599453Y-98009400D01*
X138740354Y-96868500D01*
X140822148Y-96868500D01*
X140757147Y-97025426D01*
%TA.AperFunction,NonConductor*%
D19*
G36*
X140757147Y-97025426D02*
G01*
X140702000Y-97302665D01*
X140702000Y-97585335D01*
X140757147Y-97862574D01*
X140817964Y-98009400D01*
X137599453Y-98009400D01*
X138740354Y-96868500D01*
X140822148Y-96868500D01*
X140757147Y-97025426D01*
G37*
%TD.AperFunction*%
D18*
X151090400Y-96155102D02*
X151090400Y-96217239D01*
X151130174Y-96417198D01*
X151208195Y-96605556D01*
X151321463Y-96775074D01*
X151388294Y-96841905D01*
X151148122Y-97082077D01*
X151136853Y-97025426D01*
X151028680Y-96764273D01*
X150871637Y-96529241D01*
X150671759Y-96329363D01*
X150436727Y-96172320D01*
X150175574Y-96064147D01*
X149898335Y-96009000D01*
X149615665Y-96009000D01*
X149338426Y-96064147D01*
X149077273Y-96172320D01*
X149022377Y-96209000D01*
X147241253Y-96209000D01*
X146455732Y-95423479D01*
X146509374Y-95387637D01*
X146653537Y-95243474D01*
X146766805Y-95073956D01*
X146844826Y-94885598D01*
X146884600Y-94685639D01*
X146884600Y-94618400D01*
X149553699Y-94618400D01*
X151090400Y-96155102D01*
%TA.AperFunction,NonConductor*%
D19*
G36*
X151090400Y-96155102D02*
G01*
X151090400Y-96217239D01*
X151130174Y-96417198D01*
X151208195Y-96605556D01*
X151321463Y-96775074D01*
X151388294Y-96841905D01*
X151148122Y-97082077D01*
X151136853Y-97025426D01*
X151028680Y-96764273D01*
X150871637Y-96529241D01*
X150671759Y-96329363D01*
X150436727Y-96172320D01*
X150175574Y-96064147D01*
X149898335Y-96009000D01*
X149615665Y-96009000D01*
X149338426Y-96064147D01*
X149077273Y-96172320D01*
X149022377Y-96209000D01*
X147241253Y-96209000D01*
X146455732Y-95423479D01*
X146509374Y-95387637D01*
X146653537Y-95243474D01*
X146766805Y-95073956D01*
X146844826Y-94885598D01*
X146884600Y-94685639D01*
X146884600Y-94618400D01*
X149553699Y-94618400D01*
X151090400Y-96155102D01*
G37*
%TD.AperFunction*%
D18*
X124230299Y-95721000D02*
X120822072Y-95721000D01*
X120822072Y-95557667D01*
X120809812Y-95433185D01*
X120773502Y-95313487D01*
X120714537Y-95203173D01*
X120635185Y-95106482D01*
X120622413Y-95096000D01*
X120635185Y-95085518D01*
X120714537Y-94988827D01*
X120773502Y-94878513D01*
X120809812Y-94758815D01*
X120822072Y-94634333D01*
X120822072Y-94443100D01*
X120903539Y-94443100D01*
X121103498Y-94403326D01*
X121291856Y-94325305D01*
X121461374Y-94212037D01*
X121505311Y-94168100D01*
X125783198Y-94168100D01*
X124230299Y-95721000D01*
%TA.AperFunction,NonConductor*%
D19*
G36*
X124230299Y-95721000D02*
G01*
X120822072Y-95721000D01*
X120822072Y-95557667D01*
X120809812Y-95433185D01*
X120773502Y-95313487D01*
X120714537Y-95203173D01*
X120635185Y-95106482D01*
X120622413Y-95096000D01*
X120635185Y-95085518D01*
X120714537Y-94988827D01*
X120773502Y-94878513D01*
X120809812Y-94758815D01*
X120822072Y-94634333D01*
X120822072Y-94443100D01*
X120903539Y-94443100D01*
X121103498Y-94403326D01*
X121291856Y-94325305D01*
X121461374Y-94212037D01*
X121505311Y-94168100D01*
X125783198Y-94168100D01*
X124230299Y-95721000D01*
G37*
%TD.AperFunction*%
D18*
X148646525Y-89179632D02*
X148853368Y-89386475D01*
X149096589Y-89548990D01*
X149366842Y-89660932D01*
X149653740Y-89718000D01*
X149946260Y-89718000D01*
X150166408Y-89674209D01*
X152607800Y-92115602D01*
X152607800Y-93823099D01*
X151681804Y-92897103D01*
X151658001Y-92868099D01*
X151542276Y-92773126D01*
X151410247Y-92702554D01*
X151266986Y-92659097D01*
X151155333Y-92648100D01*
X151155322Y-92648100D01*
X151118000Y-92644424D01*
X151080678Y-92648100D01*
X147619500Y-92648100D01*
X147619500Y-92579461D01*
X147579726Y-92379502D01*
X147501705Y-92191144D01*
X147388437Y-92021626D01*
X147244274Y-91877463D01*
X147074756Y-91764195D01*
X146886398Y-91686174D01*
X146686439Y-91646400D01*
X146482561Y-91646400D01*
X146282602Y-91686174D01*
X146094244Y-91764195D01*
X145924726Y-91877463D01*
X145880789Y-91921400D01*
X134243202Y-91921400D01*
X132512302Y-90190500D01*
X134997278Y-90190500D01*
X135034600Y-90194176D01*
X135071922Y-90190500D01*
X135071933Y-90190500D01*
X135183586Y-90179503D01*
X135326847Y-90136046D01*
X135458876Y-90065474D01*
X135574601Y-89970501D01*
X135598403Y-89941498D01*
X136153404Y-89386499D01*
X136396589Y-89548990D01*
X136666842Y-89660932D01*
X136953740Y-89718000D01*
X137246260Y-89718000D01*
X137533158Y-89660932D01*
X137803411Y-89548990D01*
X138046632Y-89386475D01*
X138253475Y-89179632D01*
X138370000Y-89005240D01*
X138486525Y-89179632D01*
X138693368Y-89386475D01*
X138936589Y-89548990D01*
X139206842Y-89660932D01*
X139493740Y-89718000D01*
X139786260Y-89718000D01*
X140073158Y-89660932D01*
X140343411Y-89548990D01*
X140586632Y-89386475D01*
X140793475Y-89179632D01*
X140910000Y-89005240D01*
X141026525Y-89179632D01*
X141233368Y-89386475D01*
X141476589Y-89548990D01*
X141746842Y-89660932D01*
X142033740Y-89718000D01*
X142326260Y-89718000D01*
X142613158Y-89660932D01*
X142883411Y-89548990D01*
X143126632Y-89386475D01*
X143333475Y-89179632D01*
X143450000Y-89005240D01*
X143566525Y-89179632D01*
X143773368Y-89386475D01*
X144016589Y-89548990D01*
X144286842Y-89660932D01*
X144573740Y-89718000D01*
X144866260Y-89718000D01*
X145153158Y-89660932D01*
X145423411Y-89548990D01*
X145666632Y-89386475D01*
X145873475Y-89179632D01*
X145990000Y-89005240D01*
X146106525Y-89179632D01*
X146313368Y-89386475D01*
X146556589Y-89548990D01*
X146826842Y-89660932D01*
X147113740Y-89718000D01*
X147406260Y-89718000D01*
X147693158Y-89660932D01*
X147963411Y-89548990D01*
X148206632Y-89386475D01*
X148413475Y-89179632D01*
X148530000Y-89005240D01*
X148646525Y-89179632D01*
%TA.AperFunction,NonConductor*%
D19*
G36*
X148646525Y-89179632D02*
G01*
X148853368Y-89386475D01*
X149096589Y-89548990D01*
X149366842Y-89660932D01*
X149653740Y-89718000D01*
X149946260Y-89718000D01*
X150166408Y-89674209D01*
X152607800Y-92115602D01*
X152607800Y-93823099D01*
X151681804Y-92897103D01*
X151658001Y-92868099D01*
X151542276Y-92773126D01*
X151410247Y-92702554D01*
X151266986Y-92659097D01*
X151155333Y-92648100D01*
X151155322Y-92648100D01*
X151118000Y-92644424D01*
X151080678Y-92648100D01*
X147619500Y-92648100D01*
X147619500Y-92579461D01*
X147579726Y-92379502D01*
X147501705Y-92191144D01*
X147388437Y-92021626D01*
X147244274Y-91877463D01*
X147074756Y-91764195D01*
X146886398Y-91686174D01*
X146686439Y-91646400D01*
X146482561Y-91646400D01*
X146282602Y-91686174D01*
X146094244Y-91764195D01*
X145924726Y-91877463D01*
X145880789Y-91921400D01*
X134243202Y-91921400D01*
X132512302Y-90190500D01*
X134997278Y-90190500D01*
X135034600Y-90194176D01*
X135071922Y-90190500D01*
X135071933Y-90190500D01*
X135183586Y-90179503D01*
X135326847Y-90136046D01*
X135458876Y-90065474D01*
X135574601Y-89970501D01*
X135598403Y-89941498D01*
X136153404Y-89386499D01*
X136396589Y-89548990D01*
X136666842Y-89660932D01*
X136953740Y-89718000D01*
X137246260Y-89718000D01*
X137533158Y-89660932D01*
X137803411Y-89548990D01*
X138046632Y-89386475D01*
X138253475Y-89179632D01*
X138370000Y-89005240D01*
X138486525Y-89179632D01*
X138693368Y-89386475D01*
X138936589Y-89548990D01*
X139206842Y-89660932D01*
X139493740Y-89718000D01*
X139786260Y-89718000D01*
X140073158Y-89660932D01*
X140343411Y-89548990D01*
X140586632Y-89386475D01*
X140793475Y-89179632D01*
X140910000Y-89005240D01*
X141026525Y-89179632D01*
X141233368Y-89386475D01*
X141476589Y-89548990D01*
X141746842Y-89660932D01*
X142033740Y-89718000D01*
X142326260Y-89718000D01*
X142613158Y-89660932D01*
X142883411Y-89548990D01*
X143126632Y-89386475D01*
X143333475Y-89179632D01*
X143450000Y-89005240D01*
X143566525Y-89179632D01*
X143773368Y-89386475D01*
X144016589Y-89548990D01*
X144286842Y-89660932D01*
X144573740Y-89718000D01*
X144866260Y-89718000D01*
X145153158Y-89660932D01*
X145423411Y-89548990D01*
X145666632Y-89386475D01*
X145873475Y-89179632D01*
X145990000Y-89005240D01*
X146106525Y-89179632D01*
X146313368Y-89386475D01*
X146556589Y-89548990D01*
X146826842Y-89660932D01*
X147113740Y-89718000D01*
X147406260Y-89718000D01*
X147693158Y-89660932D01*
X147963411Y-89548990D01*
X148206632Y-89386475D01*
X148413475Y-89179632D01*
X148530000Y-89005240D01*
X148646525Y-89179632D01*
G37*
%TD.AperFunction*%
D18*
X125624010Y-86396411D02*
X125786525Y-86639632D01*
X125993368Y-86846475D01*
X126167760Y-86963000D01*
X125993368Y-87079525D01*
X125786525Y-87286368D01*
X125624010Y-87529589D01*
X125512068Y-87799842D01*
X125455000Y-88086740D01*
X125455000Y-88379260D01*
X125512068Y-88666158D01*
X125624010Y-88936411D01*
X125786525Y-89179632D01*
X125993368Y-89386475D01*
X126236589Y-89548990D01*
X126506842Y-89660932D01*
X126793740Y-89718000D01*
X127086260Y-89718000D01*
X127373158Y-89660932D01*
X127643411Y-89548990D01*
X127886632Y-89386475D01*
X128093475Y-89179632D01*
X128210000Y-89005240D01*
X128326525Y-89179632D01*
X128533368Y-89386475D01*
X128776589Y-89548990D01*
X129046842Y-89660932D01*
X129333740Y-89718000D01*
X129626260Y-89718000D01*
X129846408Y-89674209D01*
X132820298Y-92648100D01*
X121505311Y-92648100D01*
X121461374Y-92604163D01*
X121291856Y-92490895D01*
X121103498Y-92412874D01*
X120903539Y-92373100D01*
X120699661Y-92373100D01*
X120670067Y-92378986D01*
X120635185Y-92336482D01*
X120622413Y-92326000D01*
X120635185Y-92315518D01*
X120714537Y-92218827D01*
X120737429Y-92176000D01*
X121123635Y-92176000D01*
X121184300Y-92181975D01*
X121244965Y-92176000D01*
X121426402Y-92158130D01*
X121659201Y-92087511D01*
X121873749Y-91972833D01*
X122061802Y-91818502D01*
X122100479Y-91771374D01*
X122839374Y-91032479D01*
X122886502Y-90993802D01*
X123040833Y-90805749D01*
X123155511Y-90591201D01*
X123226130Y-90358402D01*
X123244000Y-90176965D01*
X123249975Y-90116300D01*
X123244000Y-90055635D01*
X123244000Y-88471853D01*
X125534804Y-86181049D01*
X125624010Y-86396411D01*
%TA.AperFunction,NonConductor*%
D19*
G36*
X125624010Y-86396411D02*
G01*
X125786525Y-86639632D01*
X125993368Y-86846475D01*
X126167760Y-86963000D01*
X125993368Y-87079525D01*
X125786525Y-87286368D01*
X125624010Y-87529589D01*
X125512068Y-87799842D01*
X125455000Y-88086740D01*
X125455000Y-88379260D01*
X125512068Y-88666158D01*
X125624010Y-88936411D01*
X125786525Y-89179632D01*
X125993368Y-89386475D01*
X126236589Y-89548990D01*
X126506842Y-89660932D01*
X126793740Y-89718000D01*
X127086260Y-89718000D01*
X127373158Y-89660932D01*
X127643411Y-89548990D01*
X127886632Y-89386475D01*
X128093475Y-89179632D01*
X128210000Y-89005240D01*
X128326525Y-89179632D01*
X128533368Y-89386475D01*
X128776589Y-89548990D01*
X129046842Y-89660932D01*
X129333740Y-89718000D01*
X129626260Y-89718000D01*
X129846408Y-89674209D01*
X132820298Y-92648100D01*
X121505311Y-92648100D01*
X121461374Y-92604163D01*
X121291856Y-92490895D01*
X121103498Y-92412874D01*
X120903539Y-92373100D01*
X120699661Y-92373100D01*
X120670067Y-92378986D01*
X120635185Y-92336482D01*
X120622413Y-92326000D01*
X120635185Y-92315518D01*
X120714537Y-92218827D01*
X120737429Y-92176000D01*
X121123635Y-92176000D01*
X121184300Y-92181975D01*
X121244965Y-92176000D01*
X121426402Y-92158130D01*
X121659201Y-92087511D01*
X121873749Y-91972833D01*
X122061802Y-91818502D01*
X122100479Y-91771374D01*
X122839374Y-91032479D01*
X122886502Y-90993802D01*
X123040833Y-90805749D01*
X123155511Y-90591201D01*
X123226130Y-90358402D01*
X123244000Y-90176965D01*
X123249975Y-90116300D01*
X123244000Y-90055635D01*
X123244000Y-88471853D01*
X125534804Y-86181049D01*
X125624010Y-86396411D01*
G37*
%TD.AperFunction*%
D18*
X155307761Y-88160531D02*
X155304567Y-88192960D01*
X155317310Y-88322343D01*
X155355050Y-88446753D01*
X155416335Y-88561410D01*
X155498812Y-88661908D01*
X155599310Y-88744385D01*
X155713967Y-88805670D01*
X155838377Y-88843410D01*
X155935341Y-88852960D01*
X155967760Y-88856153D01*
X156000179Y-88852960D01*
X159807760Y-88852960D01*
X159807760Y-89872595D01*
X156728000Y-89872595D01*
X156603518Y-89884855D01*
X156483820Y-89921165D01*
X156373506Y-89980130D01*
X156276815Y-90059482D01*
X156197463Y-90156173D01*
X156197102Y-90156848D01*
X154965500Y-88925247D01*
X154965500Y-86670254D01*
X154971474Y-86609599D01*
X154965500Y-86548944D01*
X154965500Y-86548935D01*
X154947630Y-86367498D01*
X154877011Y-86134699D01*
X154762333Y-85920151D01*
X154608002Y-85732098D01*
X154560881Y-85693427D01*
X151867478Y-83000025D01*
X151828802Y-82952898D01*
X151640749Y-82798567D01*
X151426201Y-82683889D01*
X151193402Y-82613270D01*
X151011965Y-82595400D01*
X150951300Y-82589425D01*
X150890635Y-82595400D01*
X136403865Y-82595400D01*
X136343200Y-82589425D01*
X136282535Y-82595400D01*
X136101098Y-82613270D01*
X135868299Y-82683889D01*
X135653751Y-82798567D01*
X135465698Y-82952898D01*
X135427021Y-83000026D01*
X134170704Y-84256343D01*
X134126842Y-84265068D01*
X133856589Y-84377010D01*
X133822631Y-84399700D01*
X132757369Y-84399700D01*
X132723411Y-84377010D01*
X132453158Y-84265068D01*
X132409296Y-84256343D01*
X131163679Y-83010726D01*
X131125002Y-82963598D01*
X130936949Y-82809267D01*
X130722401Y-82694589D01*
X130489602Y-82623970D01*
X130308165Y-82606100D01*
X130247500Y-82600125D01*
X130186835Y-82606100D01*
X126188865Y-82606100D01*
X126128200Y-82600125D01*
X126067535Y-82606100D01*
X125886098Y-82623970D01*
X125653299Y-82694589D01*
X125438751Y-82809267D01*
X125250698Y-82963598D01*
X125212021Y-83010726D01*
X121627760Y-86594987D01*
X121627760Y-81352960D01*
X155307760Y-81352960D01*
X155307761Y-88160531D01*
%TA.AperFunction,NonConductor*%
D19*
G36*
X155307761Y-88160531D02*
G01*
X155304567Y-88192960D01*
X155317310Y-88322343D01*
X155355050Y-88446753D01*
X155416335Y-88561410D01*
X155498812Y-88661908D01*
X155599310Y-88744385D01*
X155713967Y-88805670D01*
X155838377Y-88843410D01*
X155935341Y-88852960D01*
X155967760Y-88856153D01*
X156000179Y-88852960D01*
X159807760Y-88852960D01*
X159807760Y-89872595D01*
X156728000Y-89872595D01*
X156603518Y-89884855D01*
X156483820Y-89921165D01*
X156373506Y-89980130D01*
X156276815Y-90059482D01*
X156197463Y-90156173D01*
X156197102Y-90156848D01*
X154965500Y-88925247D01*
X154965500Y-86670254D01*
X154971474Y-86609599D01*
X154965500Y-86548944D01*
X154965500Y-86548935D01*
X154947630Y-86367498D01*
X154877011Y-86134699D01*
X154762333Y-85920151D01*
X154608002Y-85732098D01*
X154560881Y-85693427D01*
X151867478Y-83000025D01*
X151828802Y-82952898D01*
X151640749Y-82798567D01*
X151426201Y-82683889D01*
X151193402Y-82613270D01*
X151011965Y-82595400D01*
X150951300Y-82589425D01*
X150890635Y-82595400D01*
X136403865Y-82595400D01*
X136343200Y-82589425D01*
X136282535Y-82595400D01*
X136101098Y-82613270D01*
X135868299Y-82683889D01*
X135653751Y-82798567D01*
X135465698Y-82952898D01*
X135427021Y-83000026D01*
X134170704Y-84256343D01*
X134126842Y-84265068D01*
X133856589Y-84377010D01*
X133822631Y-84399700D01*
X132757369Y-84399700D01*
X132723411Y-84377010D01*
X132453158Y-84265068D01*
X132409296Y-84256343D01*
X131163679Y-83010726D01*
X131125002Y-82963598D01*
X130936949Y-82809267D01*
X130722401Y-82694589D01*
X130489602Y-82623970D01*
X130308165Y-82606100D01*
X130247500Y-82600125D01*
X130186835Y-82606100D01*
X126188865Y-82606100D01*
X126128200Y-82600125D01*
X126067535Y-82606100D01*
X125886098Y-82623970D01*
X125653299Y-82694589D01*
X125438751Y-82809267D01*
X125250698Y-82963598D01*
X125212021Y-83010726D01*
X121627760Y-86594987D01*
X121627760Y-81352960D01*
X155307760Y-81352960D01*
X155307761Y-88160531D01*
G37*
%TD.AperFunction*%
D18*
X152495500Y-87121154D02*
X152495501Y-89376125D01*
X152489525Y-89436800D01*
X152513370Y-89678902D01*
X152575846Y-89884855D01*
X152583990Y-89911701D01*
X152618998Y-89977196D01*
X151241209Y-88599408D01*
X151285000Y-88379260D01*
X151285000Y-88086740D01*
X151227932Y-87799842D01*
X151115990Y-87529589D01*
X150953475Y-87286368D01*
X150766392Y-87099285D01*
X150893386Y-87031405D01*
X151027962Y-86920962D01*
X151138405Y-86786386D01*
X151220472Y-86632850D01*
X151271008Y-86466254D01*
X151288072Y-86293000D01*
X151288072Y-85913725D01*
X152495500Y-87121154D01*
%TA.AperFunction,NonConductor*%
D19*
G36*
X152495500Y-87121154D02*
G01*
X152495501Y-89376125D01*
X152489525Y-89436800D01*
X152513370Y-89678902D01*
X152575846Y-89884855D01*
X152583990Y-89911701D01*
X152618998Y-89977196D01*
X151241209Y-88599408D01*
X151285000Y-88379260D01*
X151285000Y-88086740D01*
X151227932Y-87799842D01*
X151115990Y-87529589D01*
X150953475Y-87286368D01*
X150766392Y-87099285D01*
X150893386Y-87031405D01*
X151027962Y-86920962D01*
X151138405Y-86786386D01*
X151220472Y-86632850D01*
X151271008Y-86466254D01*
X151288072Y-86293000D01*
X151288072Y-85913725D01*
X152495500Y-87121154D01*
G37*
%TD.AperFunction*%
D18*
X120774001Y-89604746D02*
X120714898Y-89663849D01*
X120714537Y-89663173D01*
X120635185Y-89566482D01*
X120538494Y-89487130D01*
X120428180Y-89428165D01*
X120308482Y-89391855D01*
X120184000Y-89379595D01*
X117127760Y-89379595D01*
X117127760Y-88852960D01*
X120774000Y-88852960D01*
X120774001Y-89604746D01*
%TA.AperFunction,NonConductor*%
D19*
G36*
X120774001Y-89604746D02*
G01*
X120714898Y-89663849D01*
X120714537Y-89663173D01*
X120635185Y-89566482D01*
X120538494Y-89487130D01*
X120428180Y-89428165D01*
X120308482Y-89391855D01*
X120184000Y-89379595D01*
X117127760Y-89379595D01*
X117127760Y-88852960D01*
X120774000Y-88852960D01*
X120774001Y-89604746D01*
G37*
%TD.AperFunction*%
D18*
X138486525Y-86639632D02*
X138693368Y-86846475D01*
X138867760Y-86963000D01*
X138693368Y-87079525D01*
X138486525Y-87286368D01*
X138370000Y-87460760D01*
X138253475Y-87286368D01*
X138046632Y-87079525D01*
X137872240Y-86963000D01*
X138046632Y-86846475D01*
X138253475Y-86639632D01*
X138370000Y-86465240D01*
X138486525Y-86639632D01*
%TA.AperFunction,NonConductor*%
D19*
G36*
X138486525Y-86639632D02*
G01*
X138693368Y-86846475D01*
X138867760Y-86963000D01*
X138693368Y-87079525D01*
X138486525Y-87286368D01*
X138370000Y-87460760D01*
X138253475Y-87286368D01*
X138046632Y-87079525D01*
X137872240Y-86963000D01*
X138046632Y-86846475D01*
X138253475Y-86639632D01*
X138370000Y-86465240D01*
X138486525Y-86639632D01*
G37*
%TD.AperFunction*%
D18*
X133787760Y-86963000D02*
X133613368Y-87079525D01*
X133406525Y-87286368D01*
X133290000Y-87460760D01*
X133173475Y-87286368D01*
X132966632Y-87079525D01*
X132792240Y-86963000D01*
X132931873Y-86869700D01*
X133648127Y-86869700D01*
X133787760Y-86963000D01*
%TA.AperFunction,NonConductor*%
D19*
G36*
X133787760Y-86963000D02*
G01*
X133613368Y-87079525D01*
X133406525Y-87286368D01*
X133290000Y-87460760D01*
X133173475Y-87286368D01*
X132966632Y-87079525D01*
X132792240Y-86963000D01*
X132931873Y-86869700D01*
X133648127Y-86869700D01*
X133787760Y-86963000D01*
G37*
%TD.AperFunction*%
D18*
X141026525Y-86639632D02*
X141233368Y-86846475D01*
X141407760Y-86963000D01*
X141233368Y-87079525D01*
X141026525Y-87286368D01*
X140910000Y-87460760D01*
X140793475Y-87286368D01*
X140586632Y-87079525D01*
X140412240Y-86963000D01*
X140586632Y-86846475D01*
X140793475Y-86639632D01*
X140910000Y-86465240D01*
X141026525Y-86639632D01*
%TA.AperFunction,NonConductor*%
D19*
G36*
X141026525Y-86639632D02*
G01*
X141233368Y-86846475D01*
X141407760Y-86963000D01*
X141233368Y-87079525D01*
X141026525Y-87286368D01*
X140910000Y-87460760D01*
X140793475Y-87286368D01*
X140586632Y-87079525D01*
X140412240Y-86963000D01*
X140586632Y-86846475D01*
X140793475Y-86639632D01*
X140910000Y-86465240D01*
X141026525Y-86639632D01*
G37*
%TD.AperFunction*%
D18*
X143947760Y-86963000D02*
X143773368Y-87079525D01*
X143566525Y-87286368D01*
X143450000Y-87460760D01*
X143333475Y-87286368D01*
X143126632Y-87079525D01*
X142952240Y-86963000D01*
X143004621Y-86928000D01*
X143895379Y-86928000D01*
X143947760Y-86963000D01*
%TA.AperFunction,NonConductor*%
D19*
G36*
X143947760Y-86963000D02*
G01*
X143773368Y-87079525D01*
X143566525Y-87286368D01*
X143450000Y-87460760D01*
X143333475Y-87286368D01*
X143126632Y-87079525D01*
X142952240Y-86963000D01*
X143004621Y-86928000D01*
X143895379Y-86928000D01*
X143947760Y-86963000D01*
G37*
%TD.AperFunction*%
D18*
X146487760Y-86963000D02*
X146313368Y-87079525D01*
X146106525Y-87286368D01*
X145990000Y-87460760D01*
X145873475Y-87286368D01*
X145666632Y-87079525D01*
X145492240Y-86963000D01*
X145544621Y-86928000D01*
X146435379Y-86928000D01*
X146487760Y-86963000D01*
%TA.AperFunction,NonConductor*%
D19*
G36*
X146487760Y-86963000D02*
G01*
X146313368Y-87079525D01*
X146106525Y-87286368D01*
X145990000Y-87460760D01*
X145873475Y-87286368D01*
X145666632Y-87079525D01*
X145492240Y-86963000D01*
X145544621Y-86928000D01*
X146435379Y-86928000D01*
X146487760Y-86963000D01*
G37*
%TD.AperFunction*%
D18*
X148706614Y-87031405D02*
X148833608Y-87099285D01*
X148646525Y-87286368D01*
X148530000Y-87460760D01*
X148413475Y-87286368D01*
X148206632Y-87079525D01*
X148032240Y-86963000D01*
X148084621Y-86928000D01*
X148580614Y-86928000D01*
X148706614Y-87031405D01*
%TA.AperFunction,NonConductor*%
D19*
G36*
X148706614Y-87031405D02*
G01*
X148833608Y-87099285D01*
X148646525Y-87286368D01*
X148530000Y-87460760D01*
X148413475Y-87286368D01*
X148206632Y-87079525D01*
X148032240Y-86963000D01*
X148084621Y-86928000D01*
X148580614Y-86928000D01*
X148706614Y-87031405D01*
G37*
%TD.AperFunction*%
D18*
X130866525Y-86639632D02*
X131073368Y-86846475D01*
X131247760Y-86963000D01*
X131090728Y-87067926D01*
X130645074Y-86622273D01*
X130750000Y-86465240D01*
X130866525Y-86639632D01*
%TA.AperFunction,NonConductor*%
D19*
G36*
X130866525Y-86639632D02*
G01*
X131073368Y-86846475D01*
X131247760Y-86963000D01*
X131090728Y-87067926D01*
X130645074Y-86622273D01*
X130750000Y-86465240D01*
X130866525Y-86639632D01*
G37*
%TD.AperFunction*%
M02*
