%TF.GenerationSoftware,KiCad,Pcbnew,(5.1.9)-1*%
%TF.CreationDate,2021-07-27T14:06:03-04:00*%
%TF.ProjectId,Amiga2MacFloppy,416d6967-6132-44d6-9163-466c6f707079,1.0*%
%TF.SameCoordinates,Original*%
%TF.FileFunction,Soldermask,Top*%
%TF.FilePolarity,Negative*%
%FSLAX46Y46*%
G04 Gerber Fmt 4.6, Leading zero omitted, Abs format (unit mm)*
G04 Created by KiCad (PCBNEW (5.1.9)-1) date 2021-07-27 14:06:03*
%MOMM*%
%LPD*%
G01*
G04 APERTURE LIST*
%ADD10R,3.480000X1.846667*%
%ADD11O,1.600000X1.600000*%
%ADD12R,1.600000X1.600000*%
%ADD13C,1.600000*%
%ADD14C,3.200000*%
%ADD15C,1.700000*%
G04 APERTURE END LIST*
D10*
%TO.C,J3*%
X158468000Y-120289000D03*
X158468000Y-117519000D03*
X158468000Y-114749000D03*
X158468000Y-111979000D03*
X158468000Y-109209000D03*
X158468000Y-106439000D03*
X158468000Y-103669000D03*
X158468000Y-100899000D03*
X158468000Y-98129000D03*
X158468000Y-95359000D03*
X158468000Y-92589000D03*
X158468000Y-89819000D03*
%TD*%
%TO.C,J1*%
X118444000Y-89580000D03*
X118444000Y-92350000D03*
X118444000Y-95120000D03*
X118444000Y-97890000D03*
X118444000Y-100660000D03*
X118444000Y-103430000D03*
X118444000Y-106200000D03*
X118444000Y-108970000D03*
X118444000Y-111740000D03*
X118444000Y-114510000D03*
X118444000Y-117280000D03*
X118444000Y-120050000D03*
%TD*%
D11*
%TO.C,D2*%
X148288000Y-122093000D03*
D12*
X140668000Y-122093000D03*
%TD*%
D11*
%TO.C,D1*%
X135688000Y-122093000D03*
D12*
X128068000Y-122093000D03*
%TD*%
D13*
%TO.C,C1*%
X134568000Y-118393000D03*
X129568000Y-118393000D03*
%TD*%
%TO.C,C2*%
X149568000Y-115893000D03*
X144568000Y-115893000D03*
%TD*%
D14*
%TO.C,Hole2*%
X157468000Y-125693000D03*
%TD*%
%TO.C,Hole1*%
X119468000Y-125693000D03*
%TD*%
D15*
%TO.C,J2*%
X126940000Y-88233000D03*
X129480000Y-88233000D03*
X132020000Y-88233000D03*
X134560000Y-88233000D03*
X137100000Y-88233000D03*
X139640000Y-88233000D03*
X142180000Y-88233000D03*
X144720000Y-88233000D03*
X147260000Y-88233000D03*
X149800000Y-88233000D03*
X126940000Y-85693000D03*
X129480000Y-85693000D03*
X132020000Y-85693000D03*
X134560000Y-85693000D03*
X137100000Y-85693000D03*
X139640000Y-85693000D03*
X142180000Y-85693000D03*
X144720000Y-85693000D03*
X147260000Y-85693000D03*
G36*
G01*
X149200000Y-84843000D02*
X150400000Y-84843000D01*
G75*
G02*
X150650000Y-85093000I0J-250000D01*
G01*
X150650000Y-86293000D01*
G75*
G02*
X150400000Y-86543000I-250000J0D01*
G01*
X149200000Y-86543000D01*
G75*
G02*
X148950000Y-86293000I0J250000D01*
G01*
X148950000Y-85093000D01*
G75*
G02*
X149200000Y-84843000I250000J0D01*
G01*
G37*
%TD*%
D11*
%TO.C,U2*%
X142137000Y-112684000D03*
X149757000Y-97444000D03*
X142137000Y-110144000D03*
X149757000Y-99984000D03*
X142137000Y-107604000D03*
X149757000Y-102524000D03*
X142137000Y-105064000D03*
X149757000Y-105064000D03*
X142137000Y-102524000D03*
X149757000Y-107604000D03*
X142137000Y-99984000D03*
X149757000Y-110144000D03*
X142137000Y-97444000D03*
D12*
X149757000Y-112684000D03*
%TD*%
D11*
%TO.C,U1*%
X127054000Y-115168000D03*
X134674000Y-97388000D03*
X127054000Y-112628000D03*
X134674000Y-99928000D03*
X127054000Y-110088000D03*
X134674000Y-102468000D03*
X127054000Y-107548000D03*
X134674000Y-105008000D03*
X127054000Y-105008000D03*
X134674000Y-107548000D03*
X127054000Y-102468000D03*
X134674000Y-110088000D03*
X127054000Y-99928000D03*
X134674000Y-112628000D03*
X127054000Y-97388000D03*
D12*
X134674000Y-115168000D03*
%TD*%
M02*
