M48
; DRILL file {KiCad (5.1.9)-1} date 07/27/21 14:06:10
; FORMAT={-:-/ absolute / inch / decimal}
; #@! TF.CreationDate,2021-07-27T14:06:10-04:00
; #@! TF.GenerationSoftware,Kicad,Pcbnew,(5.1.9)-1
; #@! TF.FileFunction,Plated,1,2,PTH
FMAT,2
INCH
T1C0.0157
T2C0.0315
T3C0.0394
%
G90
G05
T1
X4.756Y-3.6775
X5.1306Y-3.9916
X5.6796Y-4.3122
X5.6828Y-4.4397
X5.7421Y-3.7238
X5.771Y-3.6489
X5.8645Y-4.6599
X5.937Y-4.6392
X5.9892Y-3.7841
X6.0092Y-3.7371
X6.0848Y-4.1381
X6.1456Y-3.9928
T2
X5.0021Y-3.8342
X5.0021Y-3.9342
X5.0021Y-4.0342
X5.0021Y-4.1342
X5.0021Y-4.2342
X5.0021Y-4.3342
X5.0021Y-4.4342
X5.0021Y-4.5342
X5.042Y-4.8068
X5.1011Y-4.6611
X5.298Y-4.6611
X5.3021Y-3.8342
X5.3021Y-3.9342
X5.3021Y-4.0342
X5.3021Y-4.1342
X5.3021Y-4.2342
X5.3021Y-4.3342
X5.3021Y-4.4342
X5.3021Y-4.5342
X5.342Y-4.8068
X5.5381Y-4.8068
X5.5959Y-3.8364
X5.5959Y-3.9364
X5.5959Y-4.0364
X5.5959Y-4.1364
X5.5959Y-4.2364
X5.5959Y-4.3364
X5.5959Y-4.4364
X5.6917Y-4.5627
X5.8381Y-4.8068
X5.8885Y-4.5627
X5.8959Y-3.8364
X5.8959Y-3.9364
X5.8959Y-4.0364
X5.8959Y-4.1364
X5.8959Y-4.2364
X5.8959Y-4.3364
X5.8959Y-4.4364
T3
X4.9976Y-3.3737
X4.9976Y-3.4737
X5.0976Y-3.3737
X5.0976Y-3.4737
X5.1976Y-3.3737
X5.1976Y-3.4737
X5.2976Y-3.3737
X5.2976Y-3.4737
X5.3976Y-3.3737
X5.3976Y-3.4737
X5.4976Y-3.3737
X5.4976Y-3.4737
X5.5976Y-3.3737
X5.5976Y-3.4737
X5.6976Y-3.3737
X5.6976Y-3.4737
X5.7976Y-3.3737
X5.7976Y-3.4737
X5.8976Y-3.3737
X5.8976Y-3.4737
T0
M30
