%TF.GenerationSoftware,KiCad,Pcbnew,(5.1.9)-1*%
%TF.CreationDate,2021-07-05T16:47:05-04:00*%
%TF.ProjectId,Amiga2MacFloppy,416d6967-6132-44d6-9163-466c6f707079,1.0*%
%TF.SameCoordinates,Original*%
%TF.FileFunction,Legend,Top*%
%TF.FilePolarity,Positive*%
%FSLAX46Y46*%
G04 Gerber Fmt 4.6, Leading zero omitted, Abs format (unit mm)*
G04 Created by KiCad (PCBNEW (5.1.9)-1) date 2021-07-05 16:47:05*
%MOMM*%
%LPD*%
G01*
G04 APERTURE LIST*
%ADD10C,0.250000*%
%ADD11C,0.150000*%
%ADD12C,0.120000*%
G04 APERTURE END LIST*
D10*
X123860617Y-126942960D02*
X124574902Y-126942960D01*
X123717760Y-127371531D02*
X124217760Y-125871531D01*
X124717760Y-127371531D01*
X125217760Y-127371531D02*
X125217760Y-126371531D01*
X125217760Y-126514388D02*
X125289188Y-126442960D01*
X125432045Y-126371531D01*
X125646331Y-126371531D01*
X125789188Y-126442960D01*
X125860617Y-126585817D01*
X125860617Y-127371531D01*
X125860617Y-126585817D02*
X125932045Y-126442960D01*
X126074902Y-126371531D01*
X126289188Y-126371531D01*
X126432045Y-126442960D01*
X126503474Y-126585817D01*
X126503474Y-127371531D01*
X127217760Y-127371531D02*
X127217760Y-126371531D01*
X127217760Y-125871531D02*
X127146331Y-125942960D01*
X127217760Y-126014388D01*
X127289188Y-125942960D01*
X127217760Y-125871531D01*
X127217760Y-126014388D01*
X128574902Y-126371531D02*
X128574902Y-127585817D01*
X128503474Y-127728674D01*
X128432045Y-127800102D01*
X128289188Y-127871531D01*
X128074902Y-127871531D01*
X127932045Y-127800102D01*
X128574902Y-127300102D02*
X128432045Y-127371531D01*
X128146331Y-127371531D01*
X128003474Y-127300102D01*
X127932045Y-127228674D01*
X127860617Y-127085817D01*
X127860617Y-126657245D01*
X127932045Y-126514388D01*
X128003474Y-126442960D01*
X128146331Y-126371531D01*
X128432045Y-126371531D01*
X128574902Y-126442960D01*
X129932045Y-127371531D02*
X129932045Y-126585817D01*
X129860617Y-126442960D01*
X129717760Y-126371531D01*
X129432045Y-126371531D01*
X129289188Y-126442960D01*
X129932045Y-127300102D02*
X129789188Y-127371531D01*
X129432045Y-127371531D01*
X129289188Y-127300102D01*
X129217760Y-127157245D01*
X129217760Y-127014388D01*
X129289188Y-126871531D01*
X129432045Y-126800102D01*
X129789188Y-126800102D01*
X129932045Y-126728674D01*
X130574902Y-126014388D02*
X130646331Y-125942960D01*
X130789188Y-125871531D01*
X131146331Y-125871531D01*
X131289188Y-125942960D01*
X131360617Y-126014388D01*
X131432045Y-126157245D01*
X131432045Y-126300102D01*
X131360617Y-126514388D01*
X130503474Y-127371531D01*
X131432045Y-127371531D01*
X132074902Y-127371531D02*
X132074902Y-125871531D01*
X132574902Y-126942960D01*
X133074902Y-125871531D01*
X133074902Y-127371531D01*
X134432045Y-127371531D02*
X134432045Y-126585817D01*
X134360617Y-126442960D01*
X134217760Y-126371531D01*
X133932045Y-126371531D01*
X133789188Y-126442960D01*
X134432045Y-127300102D02*
X134289188Y-127371531D01*
X133932045Y-127371531D01*
X133789188Y-127300102D01*
X133717760Y-127157245D01*
X133717760Y-127014388D01*
X133789188Y-126871531D01*
X133932045Y-126800102D01*
X134289188Y-126800102D01*
X134432045Y-126728674D01*
X135789188Y-127300102D02*
X135646331Y-127371531D01*
X135360617Y-127371531D01*
X135217760Y-127300102D01*
X135146331Y-127228674D01*
X135074902Y-127085817D01*
X135074902Y-126657245D01*
X135146331Y-126514388D01*
X135217760Y-126442960D01*
X135360617Y-126371531D01*
X135646331Y-126371531D01*
X135789188Y-126442960D01*
X136932045Y-126585817D02*
X136432045Y-126585817D01*
X136432045Y-127371531D02*
X136432045Y-125871531D01*
X137146331Y-125871531D01*
X137932045Y-127371531D02*
X137789188Y-127300102D01*
X137717760Y-127157245D01*
X137717760Y-125871531D01*
X138717760Y-127371531D02*
X138574902Y-127300102D01*
X138503474Y-127228674D01*
X138432045Y-127085817D01*
X138432045Y-126657245D01*
X138503474Y-126514388D01*
X138574902Y-126442960D01*
X138717760Y-126371531D01*
X138932045Y-126371531D01*
X139074902Y-126442960D01*
X139146331Y-126514388D01*
X139217760Y-126657245D01*
X139217760Y-127085817D01*
X139146331Y-127228674D01*
X139074902Y-127300102D01*
X138932045Y-127371531D01*
X138717760Y-127371531D01*
X139860617Y-126371531D02*
X139860617Y-127871531D01*
X139860617Y-126442960D02*
X140003474Y-126371531D01*
X140289188Y-126371531D01*
X140432045Y-126442960D01*
X140503474Y-126514388D01*
X140574902Y-126657245D01*
X140574902Y-127085817D01*
X140503474Y-127228674D01*
X140432045Y-127300102D01*
X140289188Y-127371531D01*
X140003474Y-127371531D01*
X139860617Y-127300102D01*
X141217760Y-126371531D02*
X141217760Y-127871531D01*
X141217760Y-126442960D02*
X141360617Y-126371531D01*
X141646331Y-126371531D01*
X141789188Y-126442960D01*
X141860617Y-126514388D01*
X141932045Y-126657245D01*
X141932045Y-127085817D01*
X141860617Y-127228674D01*
X141789188Y-127300102D01*
X141646331Y-127371531D01*
X141360617Y-127371531D01*
X141217760Y-127300102D01*
X142432045Y-126371531D02*
X142789188Y-127371531D01*
X143146331Y-126371531D02*
X142789188Y-127371531D01*
X142646331Y-127728674D01*
X142574902Y-127800102D01*
X142432045Y-127871531D01*
D11*
X153039188Y-95597721D02*
X153039188Y-95264388D01*
X152515379Y-95264388D02*
X153515379Y-95264388D01*
X153515379Y-95740579D01*
X152515379Y-96121531D02*
X153182045Y-96121531D01*
X152991569Y-96121531D02*
X153086807Y-96169150D01*
X153134426Y-96216769D01*
X153182045Y-96312007D01*
X153182045Y-96407245D01*
X152515379Y-97169150D02*
X153039188Y-97169150D01*
X153134426Y-97121531D01*
X153182045Y-97026293D01*
X153182045Y-96835817D01*
X153134426Y-96740579D01*
X152562998Y-97169150D02*
X152515379Y-97073912D01*
X152515379Y-96835817D01*
X152562998Y-96740579D01*
X152658236Y-96692960D01*
X152753474Y-96692960D01*
X152848712Y-96740579D01*
X152896331Y-96835817D01*
X152896331Y-97073912D01*
X152943950Y-97169150D01*
X153182045Y-97645340D02*
X152515379Y-97645340D01*
X153086807Y-97645340D02*
X153134426Y-97692960D01*
X153182045Y-97788198D01*
X153182045Y-97931055D01*
X153134426Y-98026293D01*
X153039188Y-98073912D01*
X152515379Y-98073912D01*
X152515379Y-98550102D02*
X153515379Y-98550102D01*
X152896331Y-98645340D02*
X152515379Y-98931055D01*
X153182045Y-98931055D02*
X152801093Y-98550102D01*
X153515379Y-99407245D02*
X153324902Y-99312007D01*
X152562998Y-99788198D02*
X152515379Y-99883436D01*
X152515379Y-100073912D01*
X152562998Y-100169150D01*
X152658236Y-100216769D01*
X152705855Y-100216769D01*
X152801093Y-100169150D01*
X152848712Y-100073912D01*
X152848712Y-99931055D01*
X152896331Y-99835817D01*
X152991569Y-99788198D01*
X153039188Y-99788198D01*
X153134426Y-99835817D01*
X153182045Y-99931055D01*
X153182045Y-100073912D01*
X153134426Y-100169150D01*
X153515379Y-101312007D02*
X153515379Y-101931055D01*
X153134426Y-101597721D01*
X153134426Y-101740579D01*
X153086807Y-101835817D01*
X153039188Y-101883436D01*
X152943950Y-101931055D01*
X152705855Y-101931055D01*
X152610617Y-101883436D01*
X152562998Y-101835817D01*
X152515379Y-101740579D01*
X152515379Y-101454864D01*
X152562998Y-101359626D01*
X152610617Y-101312007D01*
X152515379Y-102359626D02*
X153515379Y-102359626D01*
X153515379Y-102597721D01*
X153467760Y-102740579D01*
X153372521Y-102835817D01*
X153277283Y-102883436D01*
X153086807Y-102931055D01*
X152943950Y-102931055D01*
X152753474Y-102883436D01*
X152658236Y-102835817D01*
X152562998Y-102740579D01*
X152515379Y-102597721D01*
X152515379Y-102359626D01*
X152562998Y-104073912D02*
X152515379Y-104216769D01*
X152515379Y-104454864D01*
X152562998Y-104550102D01*
X152610617Y-104597721D01*
X152705855Y-104645340D01*
X152801093Y-104645340D01*
X152896331Y-104597721D01*
X152943950Y-104550102D01*
X152991569Y-104454864D01*
X153039188Y-104264388D01*
X153086807Y-104169150D01*
X153134426Y-104121531D01*
X153229664Y-104073912D01*
X153324902Y-104073912D01*
X153420140Y-104121531D01*
X153467760Y-104169150D01*
X153515379Y-104264388D01*
X153515379Y-104502483D01*
X153467760Y-104645340D01*
X152515379Y-105073912D02*
X153515379Y-105073912D01*
X152515379Y-105502483D02*
X153039188Y-105502483D01*
X153134426Y-105454864D01*
X153182045Y-105359626D01*
X153182045Y-105216769D01*
X153134426Y-105121531D01*
X153086807Y-105073912D01*
X152515379Y-106121531D02*
X152562998Y-106026293D01*
X152610617Y-105978674D01*
X152705855Y-105931055D01*
X152991569Y-105931055D01*
X153086807Y-105978674D01*
X153134426Y-106026293D01*
X153182045Y-106121531D01*
X153182045Y-106264388D01*
X153134426Y-106359626D01*
X153086807Y-106407245D01*
X152991569Y-106454864D01*
X152705855Y-106454864D01*
X152610617Y-106407245D01*
X152562998Y-106359626D01*
X152515379Y-106264388D01*
X152515379Y-106121531D01*
X153182045Y-106883436D02*
X152182045Y-106883436D01*
X153134426Y-106883436D02*
X153182045Y-106978674D01*
X153182045Y-107169150D01*
X153134426Y-107264388D01*
X153086807Y-107312007D01*
X152991569Y-107359626D01*
X152705855Y-107359626D01*
X152610617Y-107312007D01*
X152562998Y-107264388D01*
X152515379Y-107169150D01*
X152515379Y-106978674D01*
X152562998Y-106883436D01*
X152515379Y-109359626D02*
X152515379Y-109312007D01*
X152562998Y-109216769D01*
X152705855Y-109073912D01*
X152991569Y-108835817D01*
X153134426Y-108740579D01*
X153277283Y-108692960D01*
X153372521Y-108692960D01*
X153467760Y-108740579D01*
X153515379Y-108835817D01*
X153515379Y-108883436D01*
X153467760Y-108978674D01*
X153372521Y-109026293D01*
X153324902Y-109026293D01*
X153229664Y-108978674D01*
X153182045Y-108931055D01*
X152991569Y-108645340D01*
X152943950Y-108597721D01*
X152848712Y-108550102D01*
X152705855Y-108550102D01*
X152610617Y-108597721D01*
X152562998Y-108645340D01*
X152515379Y-108740579D01*
X152515379Y-108883436D01*
X152562998Y-108978674D01*
X152610617Y-109026293D01*
X152801093Y-109169150D01*
X152943950Y-109216769D01*
X153039188Y-109216769D01*
X152515379Y-110550102D02*
X153515379Y-110550102D01*
X153515379Y-110788198D01*
X153467760Y-110931055D01*
X153372521Y-111026293D01*
X153277283Y-111073912D01*
X153086807Y-111121531D01*
X152943950Y-111121531D01*
X152753474Y-111073912D01*
X152658236Y-111026293D01*
X152562998Y-110931055D01*
X152515379Y-110788198D01*
X152515379Y-110550102D01*
X152515379Y-111550102D02*
X153182045Y-111550102D01*
X152991569Y-111550102D02*
X153086807Y-111597721D01*
X153134426Y-111645340D01*
X153182045Y-111740579D01*
X153182045Y-111835817D01*
X152610617Y-112169150D02*
X152562998Y-112216769D01*
X152515379Y-112169150D01*
X152562998Y-112121531D01*
X152610617Y-112169150D01*
X152515379Y-112169150D01*
X152515379Y-113407245D02*
X153515379Y-113407245D01*
X153515379Y-113645340D01*
X153467760Y-113788198D01*
X153372521Y-113883436D01*
X153277283Y-113931055D01*
X153086807Y-113978674D01*
X152943950Y-113978674D01*
X152753474Y-113931055D01*
X152658236Y-113883436D01*
X152562998Y-113788198D01*
X152515379Y-113645340D01*
X152515379Y-113407245D01*
X152515379Y-114835817D02*
X153039188Y-114835817D01*
X153134426Y-114788198D01*
X153182045Y-114692960D01*
X153182045Y-114502483D01*
X153134426Y-114407245D01*
X152562998Y-114835817D02*
X152515379Y-114740579D01*
X152515379Y-114502483D01*
X152562998Y-114407245D01*
X152658236Y-114359626D01*
X152753474Y-114359626D01*
X152848712Y-114407245D01*
X152896331Y-114502483D01*
X152896331Y-114740579D01*
X152943950Y-114835817D01*
X153182045Y-115216769D02*
X152515379Y-115454864D01*
X153182045Y-115692960D01*
X152562998Y-116454864D02*
X152515379Y-116359626D01*
X152515379Y-116169150D01*
X152562998Y-116073912D01*
X152658236Y-116026293D01*
X153039188Y-116026293D01*
X153134426Y-116073912D01*
X153182045Y-116169150D01*
X153182045Y-116359626D01*
X153134426Y-116454864D01*
X153039188Y-116502483D01*
X152943950Y-116502483D01*
X152848712Y-116026293D01*
X153515379Y-116978674D02*
X153324902Y-116883436D01*
X152562998Y-117359626D02*
X152515379Y-117454864D01*
X152515379Y-117645340D01*
X152562998Y-117740579D01*
X152658236Y-117788198D01*
X152705855Y-117788198D01*
X152801093Y-117740579D01*
X152848712Y-117645340D01*
X152848712Y-117502483D01*
X152896331Y-117407245D01*
X152991569Y-117359626D01*
X153039188Y-117359626D01*
X153134426Y-117407245D01*
X153182045Y-117502483D01*
X153182045Y-117645340D01*
X153134426Y-117740579D01*
X152515379Y-118978674D02*
X153515379Y-118978674D01*
X153515379Y-119216769D01*
X153467760Y-119359626D01*
X153372521Y-119454864D01*
X153277283Y-119502483D01*
X153086807Y-119550102D01*
X152943950Y-119550102D01*
X152753474Y-119502483D01*
X152658236Y-119454864D01*
X152562998Y-119359626D01*
X152515379Y-119216769D01*
X152515379Y-118978674D01*
X152515379Y-119978674D02*
X153182045Y-119978674D01*
X153515379Y-119978674D02*
X153467760Y-119931055D01*
X153420140Y-119978674D01*
X153467760Y-120026293D01*
X153515379Y-119978674D01*
X153420140Y-119978674D01*
X153182045Y-120359626D02*
X152515379Y-120597721D01*
X153182045Y-120835817D01*
X152562998Y-121597721D02*
X152515379Y-121502483D01*
X152515379Y-121312007D01*
X152562998Y-121216769D01*
X152658236Y-121169150D01*
X153039188Y-121169150D01*
X153134426Y-121216769D01*
X153182045Y-121312007D01*
X153182045Y-121502483D01*
X153134426Y-121597721D01*
X153039188Y-121645340D01*
X152943950Y-121645340D01*
X152848712Y-121169150D01*
X152515379Y-122073912D02*
X153182045Y-122073912D01*
X152991569Y-122073912D02*
X153086807Y-122121531D01*
X153134426Y-122169150D01*
X153182045Y-122264388D01*
X153182045Y-122359626D01*
X152562998Y-122645340D02*
X152515379Y-122740579D01*
X152515379Y-122931055D01*
X152562998Y-123026293D01*
X152658236Y-123073912D01*
X152705855Y-123073912D01*
X152801093Y-123026293D01*
X152848712Y-122931055D01*
X152848712Y-122788198D01*
X152896331Y-122692960D01*
X152991569Y-122645340D01*
X153039188Y-122645340D01*
X153134426Y-122692960D01*
X153182045Y-122788198D01*
X153182045Y-122931055D01*
X153134426Y-123026293D01*
X152515379Y-123502483D02*
X153182045Y-123502483D01*
X153515379Y-123502483D02*
X153467760Y-123454864D01*
X153420140Y-123502483D01*
X153467760Y-123550102D01*
X153515379Y-123502483D01*
X153420140Y-123502483D01*
X152515379Y-124121531D02*
X152562998Y-124026293D01*
X152610617Y-123978674D01*
X152705855Y-123931055D01*
X152991569Y-123931055D01*
X153086807Y-123978674D01*
X153134426Y-124026293D01*
X153182045Y-124121531D01*
X153182045Y-124264388D01*
X153134426Y-124359626D01*
X153086807Y-124407245D01*
X152991569Y-124454864D01*
X152705855Y-124454864D01*
X152610617Y-124407245D01*
X152562998Y-124359626D01*
X152515379Y-124264388D01*
X152515379Y-124121531D01*
X153182045Y-124883436D02*
X152515379Y-124883436D01*
X153086807Y-124883436D02*
X153134426Y-124931055D01*
X153182045Y-125026293D01*
X153182045Y-125169150D01*
X153134426Y-125264388D01*
X153039188Y-125312007D01*
X152515379Y-125312007D01*
X152562998Y-125740579D02*
X152515379Y-125835817D01*
X152515379Y-126026293D01*
X152562998Y-126121531D01*
X152658236Y-126169150D01*
X152705855Y-126169150D01*
X152801093Y-126121531D01*
X152848712Y-126026293D01*
X152848712Y-125883436D01*
X152896331Y-125788198D01*
X152991569Y-125740579D01*
X153039188Y-125740579D01*
X153134426Y-125788198D01*
X153182045Y-125883436D01*
X153182045Y-126026293D01*
X153134426Y-126121531D01*
D12*
%TO.C,J3*%
X160208000Y-88405667D02*
X156468000Y-88405667D01*
X156468000Y-88405667D02*
X156468000Y-121472333D01*
X156468000Y-121472333D02*
X160208000Y-121472333D01*
%TO.C,D2*%
X143828000Y-118803000D02*
X143828000Y-121043000D01*
X143828000Y-121043000D02*
X148068000Y-121043000D01*
X148068000Y-121043000D02*
X148068000Y-118803000D01*
X148068000Y-118803000D02*
X143828000Y-118803000D01*
X143178000Y-119923000D02*
X143828000Y-119923000D01*
X148718000Y-119923000D02*
X148068000Y-119923000D01*
X144548000Y-118803000D02*
X144548000Y-121043000D01*
X144668000Y-118803000D02*
X144668000Y-121043000D01*
X144428000Y-118803000D02*
X144428000Y-121043000D01*
%TO.C,D1*%
X143828000Y-122803000D02*
X143828000Y-125043000D01*
X143828000Y-125043000D02*
X148068000Y-125043000D01*
X148068000Y-125043000D02*
X148068000Y-122803000D01*
X148068000Y-122803000D02*
X143828000Y-122803000D01*
X143178000Y-123923000D02*
X143828000Y-123923000D01*
X148718000Y-123923000D02*
X148068000Y-123923000D01*
X144548000Y-122803000D02*
X144548000Y-125043000D01*
X144668000Y-122803000D02*
X144668000Y-125043000D01*
X144428000Y-122803000D02*
X144428000Y-125043000D01*
%TO.C,C1*%
X127288000Y-117463000D02*
X134528000Y-117463000D01*
X127288000Y-120203000D02*
X134528000Y-120203000D01*
X127288000Y-117463000D02*
X127288000Y-120203000D01*
X134528000Y-117463000D02*
X134528000Y-120203000D01*
%TO.C,C2*%
X142368000Y-114973000D02*
X149608000Y-114973000D01*
X142368000Y-117713000D02*
X149608000Y-117713000D01*
X142368000Y-114973000D02*
X142368000Y-117713000D01*
X149608000Y-114973000D02*
X149608000Y-117713000D01*
%TO.C,J1*%
X120444000Y-88420667D02*
X116412000Y-88420667D01*
X120444000Y-121233333D02*
X120444000Y-88420667D01*
X116412000Y-121233333D02*
X120444000Y-121233333D01*
%TO.C,R460*%
X133831000Y-123693000D02*
X132881000Y-123693000D01*
X128091000Y-123693000D02*
X129041000Y-123693000D01*
X132881000Y-122773000D02*
X129041000Y-122773000D01*
X132881000Y-124613000D02*
X132881000Y-122773000D01*
X129041000Y-124613000D02*
X132881000Y-124613000D01*
X129041000Y-122773000D02*
X129041000Y-124613000D01*
%TO.C,J2*%
X149300000Y-81013000D02*
X149800000Y-82013000D01*
X150300000Y-81013000D02*
X149300000Y-81013000D01*
X149800000Y-82013000D02*
X150300000Y-81013000D01*
X136320000Y-83713000D02*
X136320000Y-82403000D01*
X136320000Y-83713000D02*
X136320000Y-83713000D01*
X123030000Y-83713000D02*
X136320000Y-83713000D01*
X123030000Y-90213000D02*
X123030000Y-83713000D01*
X153710000Y-90213000D02*
X123030000Y-90213000D01*
X153710000Y-83713000D02*
X153710000Y-90213000D01*
X140420000Y-83713000D02*
X153710000Y-83713000D01*
X140420000Y-82403000D02*
X140420000Y-83713000D01*
X121730000Y-82403000D02*
X155010000Y-82403000D01*
X121730000Y-91523000D02*
X121730000Y-82403000D01*
X155010000Y-91523000D02*
X121730000Y-91523000D01*
X155010000Y-82403000D02*
X155010000Y-91523000D01*
%TO.C,U2*%
X146947000Y-114014000D02*
X148597000Y-114014000D01*
X148597000Y-114014000D02*
X148597000Y-96114000D01*
X148597000Y-96114000D02*
X143297000Y-96114000D01*
X143297000Y-96114000D02*
X143297000Y-114014000D01*
X143297000Y-114014000D02*
X144947000Y-114014000D01*
X144947000Y-114014000D02*
G75*
G02*
X146947000Y-114014000I1000000J0D01*
G01*
%TO.C,U1*%
X131864000Y-116498000D02*
X133514000Y-116498000D01*
X133514000Y-116498000D02*
X133514000Y-96058000D01*
X133514000Y-96058000D02*
X128214000Y-96058000D01*
X128214000Y-96058000D02*
X128214000Y-116498000D01*
X128214000Y-116498000D02*
X129864000Y-116498000D01*
X129864000Y-116498000D02*
G75*
G02*
X131864000Y-116498000I1000000J0D01*
G01*
%TO.C,J3*%
D11*
X154811380Y-105236733D02*
X155525666Y-105236733D01*
X155668523Y-105284352D01*
X155763761Y-105379590D01*
X155811380Y-105522447D01*
X155811380Y-105617685D01*
X154811380Y-104855780D02*
X154811380Y-104236733D01*
X155192333Y-104570066D01*
X155192333Y-104427209D01*
X155239952Y-104331971D01*
X155287571Y-104284352D01*
X155382809Y-104236733D01*
X155620904Y-104236733D01*
X155716142Y-104284352D01*
X155763761Y-104331971D01*
X155811380Y-104427209D01*
X155811380Y-104712923D01*
X155763761Y-104808161D01*
X155716142Y-104855780D01*
%TO.C,D2*%
X139019904Y-120535380D02*
X139019904Y-119535380D01*
X139258000Y-119535380D01*
X139400857Y-119583000D01*
X139496095Y-119678238D01*
X139543714Y-119773476D01*
X139591333Y-119963952D01*
X139591333Y-120106809D01*
X139543714Y-120297285D01*
X139496095Y-120392523D01*
X139400857Y-120487761D01*
X139258000Y-120535380D01*
X139019904Y-120535380D01*
X139972285Y-119630619D02*
X140019904Y-119583000D01*
X140115142Y-119535380D01*
X140353238Y-119535380D01*
X140448476Y-119583000D01*
X140496095Y-119630619D01*
X140543714Y-119725857D01*
X140543714Y-119821095D01*
X140496095Y-119963952D01*
X139924666Y-120535380D01*
X140543714Y-120535380D01*
%TO.C,D1*%
X139039904Y-124525380D02*
X139039904Y-123525380D01*
X139278000Y-123525380D01*
X139420857Y-123573000D01*
X139516095Y-123668238D01*
X139563714Y-123763476D01*
X139611333Y-123953952D01*
X139611333Y-124096809D01*
X139563714Y-124287285D01*
X139516095Y-124382523D01*
X139420857Y-124477761D01*
X139278000Y-124525380D01*
X139039904Y-124525380D01*
X140563714Y-124525380D02*
X139992285Y-124525380D01*
X140278000Y-124525380D02*
X140278000Y-123525380D01*
X140182761Y-123668238D01*
X140087523Y-123763476D01*
X139992285Y-123811095D01*
%TO.C,C1*%
X125871093Y-119270102D02*
X125823474Y-119317721D01*
X125680617Y-119365340D01*
X125585379Y-119365340D01*
X125442521Y-119317721D01*
X125347283Y-119222483D01*
X125299664Y-119127245D01*
X125252045Y-118936769D01*
X125252045Y-118793912D01*
X125299664Y-118603436D01*
X125347283Y-118508198D01*
X125442521Y-118412960D01*
X125585379Y-118365340D01*
X125680617Y-118365340D01*
X125823474Y-118412960D01*
X125871093Y-118460579D01*
X126823474Y-119365340D02*
X126252045Y-119365340D01*
X126537760Y-119365340D02*
X126537760Y-118365340D01*
X126442521Y-118508198D01*
X126347283Y-118603436D01*
X126252045Y-118651055D01*
%TO.C,C2*%
X140871093Y-116820102D02*
X140823474Y-116867721D01*
X140680617Y-116915340D01*
X140585379Y-116915340D01*
X140442521Y-116867721D01*
X140347283Y-116772483D01*
X140299664Y-116677245D01*
X140252045Y-116486769D01*
X140252045Y-116343912D01*
X140299664Y-116153436D01*
X140347283Y-116058198D01*
X140442521Y-115962960D01*
X140585379Y-115915340D01*
X140680617Y-115915340D01*
X140823474Y-115962960D01*
X140871093Y-116010579D01*
X141252045Y-116010579D02*
X141299664Y-115962960D01*
X141394902Y-115915340D01*
X141632998Y-115915340D01*
X141728236Y-115962960D01*
X141775855Y-116010579D01*
X141823474Y-116105817D01*
X141823474Y-116201055D01*
X141775855Y-116343912D01*
X141204426Y-116915340D01*
X141823474Y-116915340D01*
%TO.C,J1*%
X121269480Y-105028233D02*
X121983766Y-105028233D01*
X122126623Y-105075852D01*
X122221861Y-105171090D01*
X122269480Y-105313947D01*
X122269480Y-105409185D01*
X122269480Y-104028233D02*
X122269480Y-104599661D01*
X122269480Y-104313947D02*
X121269480Y-104313947D01*
X121412338Y-104409185D01*
X121507576Y-104504423D01*
X121555195Y-104599661D01*
%TO.C,R460*%
X129841952Y-122225380D02*
X129508619Y-121749190D01*
X129270523Y-122225380D02*
X129270523Y-121225380D01*
X129651476Y-121225380D01*
X129746714Y-121273000D01*
X129794333Y-121320619D01*
X129841952Y-121415857D01*
X129841952Y-121558714D01*
X129794333Y-121653952D01*
X129746714Y-121701571D01*
X129651476Y-121749190D01*
X129270523Y-121749190D01*
X130699095Y-121558714D02*
X130699095Y-122225380D01*
X130461000Y-121177761D02*
X130222904Y-121892047D01*
X130841952Y-121892047D01*
X131651476Y-121225380D02*
X131461000Y-121225380D01*
X131365761Y-121273000D01*
X131318142Y-121320619D01*
X131222904Y-121463476D01*
X131175285Y-121653952D01*
X131175285Y-122034904D01*
X131222904Y-122130142D01*
X131270523Y-122177761D01*
X131365761Y-122225380D01*
X131556238Y-122225380D01*
X131651476Y-122177761D01*
X131699095Y-122130142D01*
X131746714Y-122034904D01*
X131746714Y-121796809D01*
X131699095Y-121701571D01*
X131651476Y-121653952D01*
X131556238Y-121606333D01*
X131365761Y-121606333D01*
X131270523Y-121653952D01*
X131222904Y-121701571D01*
X131175285Y-121796809D01*
X132365761Y-121225380D02*
X132461000Y-121225380D01*
X132556238Y-121273000D01*
X132603857Y-121320619D01*
X132651476Y-121415857D01*
X132699095Y-121606333D01*
X132699095Y-121844428D01*
X132651476Y-122034904D01*
X132603857Y-122130142D01*
X132556238Y-122177761D01*
X132461000Y-122225380D01*
X132365761Y-122225380D01*
X132270523Y-122177761D01*
X132222904Y-122130142D01*
X132175285Y-122034904D01*
X132127666Y-121844428D01*
X132127666Y-121606333D01*
X132175285Y-121415857D01*
X132222904Y-121320619D01*
X132270523Y-121273000D01*
X132365761Y-121225380D01*
X124825333Y-124145380D02*
X124492000Y-123669190D01*
X124253904Y-124145380D02*
X124253904Y-123145380D01*
X124634857Y-123145380D01*
X124730095Y-123193000D01*
X124777714Y-123240619D01*
X124825333Y-123335857D01*
X124825333Y-123478714D01*
X124777714Y-123573952D01*
X124730095Y-123621571D01*
X124634857Y-123669190D01*
X124253904Y-123669190D01*
X125777714Y-124145380D02*
X125206285Y-124145380D01*
X125492000Y-124145380D02*
X125492000Y-123145380D01*
X125396761Y-123288238D01*
X125301523Y-123383476D01*
X125206285Y-123431095D01*
%TO.C,J2*%
X138250066Y-92287880D02*
X138250066Y-93002166D01*
X138202447Y-93145023D01*
X138107209Y-93240261D01*
X137964352Y-93287880D01*
X137869114Y-93287880D01*
X138678638Y-92383119D02*
X138726257Y-92335500D01*
X138821495Y-92287880D01*
X139059590Y-92287880D01*
X139154828Y-92335500D01*
X139202447Y-92383119D01*
X139250066Y-92478357D01*
X139250066Y-92573595D01*
X139202447Y-92716452D01*
X138631019Y-93287880D01*
X139250066Y-93287880D01*
%TO.C,U2*%
X145185095Y-93145340D02*
X145185095Y-93954864D01*
X145232714Y-94050102D01*
X145280333Y-94097721D01*
X145375571Y-94145340D01*
X145566047Y-94145340D01*
X145661285Y-94097721D01*
X145708904Y-94050102D01*
X145756523Y-93954864D01*
X145756523Y-93145340D01*
X146185095Y-93240579D02*
X146232714Y-93192960D01*
X146327952Y-93145340D01*
X146566047Y-93145340D01*
X146661285Y-93192960D01*
X146708904Y-93240579D01*
X146756523Y-93335817D01*
X146756523Y-93431055D01*
X146708904Y-93573912D01*
X146137476Y-94145340D01*
X146756523Y-94145340D01*
X142848712Y-94645340D02*
X143515379Y-94645340D01*
X143086807Y-95645340D01*
X144324902Y-94978674D02*
X144324902Y-95645340D01*
X144086807Y-94597721D02*
X143848712Y-95312007D01*
X144467760Y-95312007D01*
X145324902Y-95645340D02*
X144848712Y-95645340D01*
X144848712Y-94645340D01*
X145610617Y-95597721D02*
X145753474Y-95645340D01*
X145991569Y-95645340D01*
X146086807Y-95597721D01*
X146134426Y-95550102D01*
X146182045Y-95454864D01*
X146182045Y-95359626D01*
X146134426Y-95264388D01*
X146086807Y-95216769D01*
X145991569Y-95169150D01*
X145801093Y-95121531D01*
X145705855Y-95073912D01*
X145658236Y-95026293D01*
X145610617Y-94931055D01*
X145610617Y-94835817D01*
X145658236Y-94740579D01*
X145705855Y-94692960D01*
X145801093Y-94645340D01*
X146039188Y-94645340D01*
X146182045Y-94692960D01*
X146515379Y-94645340D02*
X147134426Y-94645340D01*
X146801093Y-95026293D01*
X146943950Y-95026293D01*
X147039188Y-95073912D01*
X147086807Y-95121531D01*
X147134426Y-95216769D01*
X147134426Y-95454864D01*
X147086807Y-95550102D01*
X147039188Y-95597721D01*
X146943950Y-95645340D01*
X146658236Y-95645340D01*
X146562998Y-95597721D01*
X146515379Y-95550102D01*
X147610617Y-95645340D02*
X147801093Y-95645340D01*
X147896331Y-95597721D01*
X147943950Y-95550102D01*
X148039188Y-95407245D01*
X148086807Y-95216769D01*
X148086807Y-94835817D01*
X148039188Y-94740579D01*
X147991569Y-94692960D01*
X147896331Y-94645340D01*
X147705855Y-94645340D01*
X147610617Y-94692960D01*
X147562998Y-94740579D01*
X147515379Y-94835817D01*
X147515379Y-95073912D01*
X147562998Y-95169150D01*
X147610617Y-95216769D01*
X147705855Y-95264388D01*
X147896331Y-95264388D01*
X147991569Y-95216769D01*
X148039188Y-95169150D01*
X148086807Y-95073912D01*
X148420140Y-94645340D02*
X149039188Y-94645340D01*
X148705855Y-95026293D01*
X148848712Y-95026293D01*
X148943950Y-95073912D01*
X148991569Y-95121531D01*
X149039188Y-95216769D01*
X149039188Y-95454864D01*
X148991569Y-95550102D01*
X148943950Y-95597721D01*
X148848712Y-95645340D01*
X148562998Y-95645340D01*
X148467760Y-95597721D01*
X148420140Y-95550102D01*
X145185095Y-107145340D02*
X145185095Y-107954864D01*
X145232714Y-108050102D01*
X145280333Y-108097721D01*
X145375571Y-108145340D01*
X145566047Y-108145340D01*
X145661285Y-108097721D01*
X145708904Y-108050102D01*
X145756523Y-107954864D01*
X145756523Y-107145340D01*
X146185095Y-107240579D02*
X146232714Y-107192960D01*
X146327952Y-107145340D01*
X146566047Y-107145340D01*
X146661285Y-107192960D01*
X146708904Y-107240579D01*
X146756523Y-107335817D01*
X146756523Y-107431055D01*
X146708904Y-107573912D01*
X146137476Y-108145340D01*
X146756523Y-108145340D01*
%TO.C,U1*%
X130198595Y-93145340D02*
X130198595Y-93954864D01*
X130246214Y-94050102D01*
X130293833Y-94097721D01*
X130389071Y-94145340D01*
X130579547Y-94145340D01*
X130674785Y-94097721D01*
X130722404Y-94050102D01*
X130770023Y-93954864D01*
X130770023Y-93145340D01*
X131770023Y-94145340D02*
X131198595Y-94145340D01*
X131484309Y-94145340D02*
X131484309Y-93145340D01*
X131389071Y-93288198D01*
X131293833Y-93383436D01*
X131198595Y-93431055D01*
X127848712Y-94645340D02*
X128515379Y-94645340D01*
X128086807Y-95645340D01*
X129324902Y-94978674D02*
X129324902Y-95645340D01*
X129086807Y-94597721D02*
X128848712Y-95312007D01*
X129467760Y-95312007D01*
X130324902Y-95645340D02*
X129848712Y-95645340D01*
X129848712Y-94645340D01*
X130610617Y-95597721D02*
X130753474Y-95645340D01*
X130991569Y-95645340D01*
X131086807Y-95597721D01*
X131134426Y-95550102D01*
X131182045Y-95454864D01*
X131182045Y-95359626D01*
X131134426Y-95264388D01*
X131086807Y-95216769D01*
X130991569Y-95169150D01*
X130801093Y-95121531D01*
X130705855Y-95073912D01*
X130658236Y-95026293D01*
X130610617Y-94931055D01*
X130610617Y-94835817D01*
X130658236Y-94740579D01*
X130705855Y-94692960D01*
X130801093Y-94645340D01*
X131039188Y-94645340D01*
X131182045Y-94692960D01*
X132134426Y-95645340D02*
X131562998Y-95645340D01*
X131848712Y-95645340D02*
X131848712Y-94645340D01*
X131753474Y-94788198D01*
X131658236Y-94883436D01*
X131562998Y-94931055D01*
X132467760Y-94645340D02*
X133086807Y-94645340D01*
X132753474Y-95026293D01*
X132896331Y-95026293D01*
X132991569Y-95073912D01*
X133039188Y-95121531D01*
X133086807Y-95216769D01*
X133086807Y-95454864D01*
X133039188Y-95550102D01*
X132991569Y-95597721D01*
X132896331Y-95645340D01*
X132610617Y-95645340D01*
X132515379Y-95597721D01*
X132467760Y-95550102D01*
X133562998Y-95645340D02*
X133753474Y-95645340D01*
X133848712Y-95597721D01*
X133896331Y-95550102D01*
X133991569Y-95407245D01*
X134039188Y-95216769D01*
X134039188Y-94835817D01*
X133991569Y-94740579D01*
X133943950Y-94692960D01*
X133848712Y-94645340D01*
X133658236Y-94645340D01*
X133562998Y-94692960D01*
X133515379Y-94740579D01*
X133467760Y-94835817D01*
X133467760Y-95073912D01*
X133515379Y-95169150D01*
X133562998Y-95216769D01*
X133658236Y-95264388D01*
X133848712Y-95264388D01*
X133943950Y-95216769D01*
X133991569Y-95169150D01*
X134039188Y-95073912D01*
X130205855Y-109145340D02*
X130205855Y-109954864D01*
X130253474Y-110050102D01*
X130301093Y-110097721D01*
X130396331Y-110145340D01*
X130586807Y-110145340D01*
X130682045Y-110097721D01*
X130729664Y-110050102D01*
X130777283Y-109954864D01*
X130777283Y-109145340D01*
X131777283Y-110145340D02*
X131205855Y-110145340D01*
X131491569Y-110145340D02*
X131491569Y-109145340D01*
X131396331Y-109288198D01*
X131301093Y-109383436D01*
X131205855Y-109431055D01*
%TD*%
M02*
