%TF.GenerationSoftware,KiCad,Pcbnew,(5.1.9)-1*%
%TF.CreationDate,2021-07-05T16:47:05-04:00*%
%TF.ProjectId,Amiga2MacFloppy,416d6967-6132-44d6-9163-466c6f707079,1.0*%
%TF.SameCoordinates,Original*%
%TF.FileFunction,Copper,L2,Bot*%
%TF.FilePolarity,Positive*%
%FSLAX46Y46*%
G04 Gerber Fmt 4.6, Leading zero omitted, Abs format (unit mm)*
G04 Created by KiCad (PCBNEW (5.1.9)-1) date 2021-07-05 16:47:05*
%MOMM*%
%LPD*%
G01*
G04 APERTURE LIST*
%TA.AperFunction,SMDPad,CuDef*%
%ADD10R,3.480000X1.846667*%
%TD*%
%TA.AperFunction,ComponentPad*%
%ADD11O,1.600000X1.600000*%
%TD*%
%TA.AperFunction,ComponentPad*%
%ADD12R,1.600000X1.600000*%
%TD*%
%TA.AperFunction,ComponentPad*%
%ADD13C,1.600000*%
%TD*%
%TA.AperFunction,ComponentPad*%
%ADD14O,1.400000X1.400000*%
%TD*%
%TA.AperFunction,ComponentPad*%
%ADD15C,1.400000*%
%TD*%
%TA.AperFunction,ComponentPad*%
%ADD16C,1.700000*%
%TD*%
%TA.AperFunction,ViaPad*%
%ADD17C,0.800000*%
%TD*%
%TA.AperFunction,Conductor*%
%ADD18C,1.200000*%
%TD*%
%TA.AperFunction,Conductor*%
%ADD19C,0.250000*%
%TD*%
%TA.AperFunction,NonConductor*%
%ADD20C,0.254000*%
%TD*%
%TA.AperFunction,NonConductor*%
%ADD21C,0.100000*%
%TD*%
G04 APERTURE END LIST*
D10*
%TO.P,J3,13*%
%TO.N,PH2*%
X158468000Y-118904000D03*
%TO.P,J3,14*%
%TO.N,PH3*%
X158468000Y-116364000D03*
%TO.P,J3,15*%
%TO.N,SEL*%
X158468000Y-113594000D03*
%TO.P,J3,16*%
%TO.N,_DKWE*%
X158468000Y-110824000D03*
%TO.P,J3,17*%
%TO.N,_DKWD*%
X158468000Y-108054000D03*
%TO.P,J3,18*%
%TO.N,PH0*%
X158468000Y-105284000D03*
%TO.P,J3,19*%
%TO.N,DIR*%
X158468000Y-102514000D03*
%TO.P,J3,20*%
%TO.N,_SEL3*%
X158468000Y-99744000D03*
%TO.P,J3,21*%
%TO.N,_SEL1*%
X158468000Y-96974000D03*
%TO.P,J3,22*%
%TO.N,_INDEX*%
X158468000Y-94204000D03*
%TO.P,J3,23*%
%TO.N,+12V*%
X158468000Y-91434000D03*
%TD*%
D11*
%TO.P,D2,2*%
%TO.N,_DKRD*%
X149758000Y-119923000D03*
D12*
%TO.P,D2,1*%
%TO.N,Net-(D1-Pad1)*%
X142138000Y-119923000D03*
%TD*%
D11*
%TO.P,D1,2*%
%TO.N,_RDY*%
X149758000Y-123923000D03*
D12*
%TO.P,D1,1*%
%TO.N,Net-(D1-Pad1)*%
X142138000Y-123923000D03*
%TD*%
D13*
%TO.P,C1,2*%
%TO.N,GND*%
X133408000Y-118833000D03*
%TO.P,C1,1*%
%TO.N,PWM*%
X128408000Y-118833000D03*
%TD*%
%TO.P,C2,2*%
%TO.N,GND*%
X148488000Y-116343000D03*
%TO.P,C2,1*%
%TO.N,PWM*%
X143488000Y-116343000D03*
%TD*%
D10*
%TO.P,J1,23*%
%TO.N,+12V*%
X118444000Y-90941000D03*
%TO.P,J1,22*%
%TO.N,_INDEX*%
X118444000Y-93711000D03*
%TO.P,J1,21*%
%TO.N,_SEL2*%
X118444000Y-96481000D03*
%TO.P,J1,20*%
%TO.N,Net-(J1-Pad20)*%
X118444000Y-99251000D03*
%TO.P,J1,19*%
%TO.N,DIR*%
X118444000Y-102021000D03*
%TO.P,J1,18*%
%TO.N,PH0*%
X118444000Y-104791000D03*
%TO.P,J1,17*%
%TO.N,_DKWD*%
X118444000Y-107561000D03*
%TO.P,J1,16*%
%TO.N,_DKWE*%
X118444000Y-110331000D03*
%TO.P,J1,15*%
%TO.N,SEL*%
X118444000Y-113101000D03*
%TO.P,J1,14*%
%TO.N,PH3*%
X118444000Y-115871000D03*
%TO.P,J1,13*%
%TO.N,PH2*%
X118444000Y-118670000D03*
%TD*%
D14*
%TO.P,R460,2*%
%TO.N,GND*%
X134771000Y-123693000D03*
D15*
%TO.P,R460,1*%
%TO.N,_SEL2*%
X127151000Y-123693000D03*
%TD*%
D16*
%TO.P,J2,20*%
%TO.N,PWM*%
X126940000Y-88233000D03*
%TO.P,J2,18*%
%TO.N,WR*%
X129480000Y-88233000D03*
%TO.P,J2,16*%
%TO.N,RD*%
X132020000Y-88233000D03*
%TO.P,J2,14*%
%TO.N,_ENABLE*%
X134560000Y-88233000D03*
%TO.P,J2,12*%
%TO.N,SEL*%
X137100000Y-88233000D03*
%TO.P,J2,10*%
%TO.N,_DKWE*%
X139640000Y-88233000D03*
%TO.P,J2,8*%
%TO.N,PH3*%
X142180000Y-88233000D03*
%TO.P,J2,6*%
%TO.N,PH2*%
X144720000Y-88233000D03*
%TO.P,J2,4*%
%TO.N,DIR*%
X147260000Y-88233000D03*
%TO.P,J2,2*%
%TO.N,PH0*%
X149800000Y-88233000D03*
%TO.P,J2,19*%
%TO.N,Net-(J2-Pad19)*%
X126940000Y-85693000D03*
%TO.P,J2,17*%
%TO.N,Net-(J2-Pad17)*%
X129480000Y-85693000D03*
%TO.P,J2,15*%
%TO.N,+12V*%
X132020000Y-85693000D03*
%TO.P,J2,13*%
X134560000Y-85693000D03*
%TO.P,J2,11*%
%TO.N,PWM*%
X137100000Y-85693000D03*
%TO.P,J2,9*%
%TO.N,Net-(J2-Pad9)*%
X139640000Y-85693000D03*
%TO.P,J2,7*%
%TO.N,GND*%
X142180000Y-85693000D03*
%TO.P,J2,5*%
X144720000Y-85693000D03*
%TO.P,J2,3*%
X147260000Y-85693000D03*
%TO.P,J2,1*%
%TA.AperFunction,ComponentPad*%
G36*
G01*
X149200000Y-84843000D02*
X150400000Y-84843000D01*
G75*
G02*
X150650000Y-85093000I0J-250000D01*
G01*
X150650000Y-86293000D01*
G75*
G02*
X150400000Y-86543000I-250000J0D01*
G01*
X149200000Y-86543000D01*
G75*
G02*
X148950000Y-86293000I0J250000D01*
G01*
X148950000Y-85093000D01*
G75*
G02*
X149200000Y-84843000I250000J0D01*
G01*
G37*
%TD.AperFunction*%
%TD*%
D11*
%TO.P,U2,14*%
%TO.N,PWM*%
X142137000Y-112684000D03*
%TO.P,U2,7*%
%TO.N,GND*%
X149757000Y-97444000D03*
%TO.P,U2,13*%
%TO.N,Net-(U2-Pad13)*%
X142137000Y-110144000D03*
%TO.P,U2,6*%
%TO.N,Net-(U2-Pad6)*%
X149757000Y-99984000D03*
%TO.P,U2,12*%
%TO.N,Net-(U2-Pad12)*%
X142137000Y-107604000D03*
%TO.P,U2,5*%
%TO.N,Net-(U2-Pad5)*%
X149757000Y-102524000D03*
%TO.P,U2,11*%
%TO.N,Net-(U2-Pad11)*%
X142137000Y-105064000D03*
%TO.P,U2,4*%
%TO.N,Net-(U2-Pad4)*%
X149757000Y-105064000D03*
%TO.P,U2,10*%
%TO.N,Net-(U2-Pad10)*%
X142137000Y-102524000D03*
%TO.P,U2,3*%
%TO.N,WR*%
X149757000Y-107604000D03*
%TO.P,U2,9*%
%TO.N,Net-(U2-Pad9)*%
X142137000Y-99984000D03*
%TO.P,U2,2*%
%TO.N,DIR*%
X149757000Y-110144000D03*
%TO.P,U2,8*%
%TO.N,Net-(U2-Pad8)*%
X142137000Y-97444000D03*
D12*
%TO.P,U2,1*%
%TO.N,_DKWD*%
X149757000Y-112684000D03*
%TD*%
D11*
%TO.P,U1,16*%
%TO.N,PWM*%
X127054000Y-115168000D03*
%TO.P,U1,8*%
%TO.N,GND*%
X134674000Y-97388000D03*
%TO.P,U1,15*%
X127054000Y-112628000D03*
%TO.P,U1,7*%
%TO.N,Net-(U1-Pad7)*%
X134674000Y-99928000D03*
%TO.P,U1,14*%
%TO.N,_MTRXD*%
X127054000Y-110088000D03*
%TO.P,U1,6*%
%TO.N,Net-(U1-Pad6)*%
X134674000Y-102468000D03*
%TO.P,U1,13*%
%TO.N,_SEL1*%
X127054000Y-107548000D03*
%TO.P,U1,5*%
%TO.N,Net-(U1-Pad5)*%
X134674000Y-105008000D03*
%TO.P,U1,12*%
%TO.N,_ENABLE*%
X127054000Y-105008000D03*
%TO.P,U1,4*%
%TO.N,Net-(D1-Pad1)*%
X134674000Y-107548000D03*
%TO.P,U1,11*%
%TO.N,Net-(U1-Pad11)*%
X127054000Y-102468000D03*
%TO.P,U1,3*%
%TO.N,GND*%
X134674000Y-110088000D03*
%TO.P,U1,10*%
%TO.N,Net-(U1-Pad10)*%
X127054000Y-99928000D03*
%TO.P,U1,2*%
%TO.N,RD*%
X134674000Y-112628000D03*
%TO.P,U1,9*%
%TO.N,Net-(U1-Pad9)*%
X127054000Y-97388000D03*
D12*
%TO.P,U1,1*%
%TO.N,GND*%
X134674000Y-115168000D03*
%TD*%
D17*
%TO.N,_SEL3*%
X130719400Y-103714700D03*
%TO.N,DIR*%
X144893600Y-94911900D03*
%TO.N,_DKWE*%
X140819700Y-111062200D03*
%TO.N,_DRES*%
X156114900Y-96073500D03*
X120823700Y-95120000D03*
%TO.N,_SEL2*%
X155210300Y-97074700D03*
X122244300Y-97962600D03*
%TO.N,WR*%
X145775400Y-92110300D03*
%TO.N,_MTRXD*%
X153552200Y-99380500D03*
X121068000Y-100430100D03*
%TO.N,PWM*%
X137846700Y-90708400D03*
%TO.N,PH0*%
X155179600Y-105622500D03*
%TO.N,SEL*%
X139047100Y-114058200D03*
%TO.N,PH3*%
X142797800Y-115017800D03*
%TO.N,PH2*%
X151486600Y-115786600D03*
%TO.N,_ENABLE*%
X133009500Y-97277500D03*
%TD*%
D18*
%TO.N,GND*%
X136474300Y-97388000D02*
X138228800Y-95633500D01*
X138228800Y-95633500D02*
X143635000Y-95633500D01*
X143635000Y-95633500D02*
X145445500Y-97444000D01*
X145445500Y-97444000D02*
X147956700Y-97444000D01*
X131117300Y-112628000D02*
X128454200Y-112628000D01*
X132873700Y-110088000D02*
X132873700Y-110871600D01*
X132873700Y-110871600D02*
X131117300Y-112628000D01*
X132873700Y-115168000D02*
X132873700Y-114384400D01*
X132873700Y-114384400D02*
X131117300Y-112628000D01*
X134771000Y-123693000D02*
X136471300Y-123693000D01*
X136471300Y-123693000D02*
X138502700Y-125724400D01*
X138502700Y-125724400D02*
X143379700Y-125724400D01*
X143379700Y-125724400D02*
X146708400Y-122395700D01*
X146708400Y-122395700D02*
X146708400Y-118122600D01*
X146708400Y-118122600D02*
X148488000Y-116343000D01*
X144720000Y-85693000D02*
X142180000Y-85693000D01*
X147260000Y-85693000D02*
X144720000Y-85693000D01*
X149800000Y-85693000D02*
X147260000Y-85693000D01*
X149757000Y-97444000D02*
X147956700Y-97444000D01*
X134674000Y-97388000D02*
X136474300Y-97388000D01*
X134674000Y-110088000D02*
X132873700Y-110088000D01*
X134674000Y-115168000D02*
X132873700Y-115168000D01*
X127054000Y-112628000D02*
X128454200Y-112628000D01*
%TO.N,+12V*%
X132020000Y-85693000D02*
X132020000Y-85613600D01*
X132020000Y-85613600D02*
X130247500Y-83841100D01*
X130247500Y-83841100D02*
X126128200Y-83841100D01*
X126128200Y-83841100D02*
X123425300Y-86544000D01*
X123425300Y-86544000D02*
X123425300Y-88700000D01*
X123425300Y-88700000D02*
X121184300Y-90941000D01*
X134560000Y-85693000D02*
X132020000Y-85693000D01*
X118444000Y-90941000D02*
X121184300Y-90941000D01*
X134560000Y-85693000D02*
X134560000Y-85613600D01*
X134560000Y-85613600D02*
X136343200Y-83830400D01*
X136343200Y-83830400D02*
X150951300Y-83830400D01*
X150951300Y-83830400D02*
X152993700Y-85872800D01*
X152993700Y-85872800D02*
X152993700Y-88700000D01*
X152993700Y-88700000D02*
X155727700Y-91434000D01*
X158468000Y-91434000D02*
X155727700Y-91434000D01*
D19*
%TO.N,_INDEX*%
X120509300Y-93711000D02*
X121566500Y-92653800D01*
X121566500Y-92653800D02*
X145293200Y-92653800D01*
X145293200Y-92653800D02*
X145475000Y-92835600D01*
X145475000Y-92835600D02*
X155034300Y-92835600D01*
X155034300Y-92835600D02*
X156402700Y-94204000D01*
X158468000Y-94204000D02*
X156402700Y-94204000D01*
X118444000Y-93711000D02*
X120509300Y-93711000D01*
%TO.N,_SEL1*%
X127054000Y-106422700D02*
X127335400Y-106422700D01*
X127335400Y-106422700D02*
X128552500Y-105205600D01*
X128552500Y-105205600D02*
X128552500Y-104808000D01*
X128552500Y-104808000D02*
X132251100Y-101109400D01*
X132251100Y-101109400D02*
X152849100Y-101109400D01*
X152849100Y-101109400D02*
X156402700Y-97555800D01*
X156402700Y-97555800D02*
X156402700Y-96974000D01*
X158468000Y-96974000D02*
X156402700Y-96974000D01*
X127054000Y-107548000D02*
X127054000Y-106422700D01*
%TO.N,_SEL3*%
X156402700Y-99744000D02*
X152432000Y-103714700D01*
X152432000Y-103714700D02*
X130719400Y-103714700D01*
X158468000Y-99744000D02*
X156402700Y-99744000D01*
%TO.N,DIR*%
X120509300Y-102021000D02*
X128022100Y-94508200D01*
X128022100Y-94508200D02*
X144489900Y-94508200D01*
X144489900Y-94508200D02*
X144893600Y-94911900D01*
X158468000Y-102514000D02*
X156402700Y-102514000D01*
X149757000Y-110144000D02*
X149757000Y-109018700D01*
X149757000Y-109018700D02*
X149992100Y-109018700D01*
X149992100Y-109018700D02*
X156402700Y-102608100D01*
X156402700Y-102608100D02*
X156402700Y-102514000D01*
X118444000Y-102021000D02*
X120509300Y-102021000D01*
%TO.N,_DKWD*%
X149757000Y-112684000D02*
X150882300Y-112684000D01*
X150882300Y-112684000D02*
X155512300Y-108054000D01*
X155512300Y-108054000D02*
X158468000Y-108054000D01*
X149473800Y-112684000D02*
X149757000Y-112684000D01*
X149473800Y-112684000D02*
X148631700Y-112684000D01*
X148631700Y-112684000D02*
X144685600Y-108737900D01*
X144685600Y-108737900D02*
X131241700Y-108737900D01*
X131241700Y-108737900D02*
X128758900Y-111220700D01*
X128758900Y-111220700D02*
X124439200Y-111220700D01*
X124439200Y-111220700D02*
X120779500Y-107561000D01*
X120779500Y-107561000D02*
X118444000Y-107561000D01*
%TO.N,_DKWE*%
X118444000Y-110331000D02*
X121186300Y-110331000D01*
X121186300Y-110331000D02*
X124894700Y-114039400D01*
X124894700Y-114039400D02*
X129744900Y-114039400D01*
X129744900Y-114039400D02*
X132198900Y-116493400D01*
X132198900Y-116493400D02*
X135722200Y-116493400D01*
X135722200Y-116493400D02*
X137160500Y-115055100D01*
X137160500Y-115055100D02*
X137160500Y-114721400D01*
X137160500Y-114721400D02*
X140819700Y-111062200D01*
X140819700Y-111062200D02*
X141171500Y-111414000D01*
X141171500Y-111414000D02*
X144270700Y-111414000D01*
X144270700Y-111414000D02*
X146666100Y-113809400D01*
X146666100Y-113809400D02*
X151696300Y-113809400D01*
X151696300Y-113809400D02*
X154681700Y-110824000D01*
X154681700Y-110824000D02*
X158468000Y-110824000D01*
%TO.N,_DRES*%
X120823700Y-95120000D02*
X122839600Y-93104100D01*
X122839600Y-93104100D02*
X145106600Y-93104100D01*
X145106600Y-93104100D02*
X145288400Y-93285900D01*
X145288400Y-93285900D02*
X153327300Y-93285900D01*
X153327300Y-93285900D02*
X156114900Y-96073500D01*
%TO.N,_SEL2*%
X122244300Y-97962600D02*
X126652500Y-93554400D01*
X126652500Y-93554400D02*
X144920000Y-93554400D01*
X144920000Y-93554400D02*
X145101800Y-93736200D01*
X145101800Y-93736200D02*
X151871800Y-93736200D01*
X151871800Y-93736200D02*
X155210300Y-97074700D01*
X120396700Y-96481000D02*
X120762700Y-96481000D01*
X120762700Y-96481000D02*
X122244300Y-97962600D01*
X118444000Y-96481000D02*
X120396700Y-96481000D01*
%TO.N,WR*%
X145775400Y-92110300D02*
X143240900Y-89575800D01*
X143240900Y-89575800D02*
X130822800Y-89575800D01*
X130822800Y-89575800D02*
X129480000Y-88233000D01*
%TO.N,_MTRXD*%
X121068000Y-100430100D02*
X127493400Y-94004700D01*
X127493400Y-94004700D02*
X144733400Y-94004700D01*
X144733400Y-94004700D02*
X144915200Y-94186500D01*
X144915200Y-94186500D02*
X148443600Y-94186500D01*
X148443600Y-94186500D02*
X153552200Y-99295100D01*
X153552200Y-99295100D02*
X153552200Y-99380500D01*
%TO.N,PWM*%
X137846700Y-90708400D02*
X129415400Y-90708400D01*
X129415400Y-90708400D02*
X126940000Y-88233000D01*
X128408000Y-118833000D02*
X129759700Y-120184700D01*
X129759700Y-120184700D02*
X139646300Y-120184700D01*
X139646300Y-120184700D02*
X143488000Y-116343000D01*
%TO.N,PH0*%
X118444000Y-104791000D02*
X121963700Y-104791000D01*
X121963700Y-104791000D02*
X125854500Y-108681800D01*
X125854500Y-108681800D02*
X128605600Y-108681800D01*
X128605600Y-108681800D02*
X130866700Y-106420700D01*
X130866700Y-106420700D02*
X143498400Y-106420700D01*
X143498400Y-106420700D02*
X148367800Y-111290100D01*
X148367800Y-111290100D02*
X150206100Y-111290100D01*
X150206100Y-111290100D02*
X155179600Y-106316600D01*
X155179600Y-106316600D02*
X155179600Y-105622500D01*
X158468000Y-105284000D02*
X156402700Y-105284000D01*
X155179600Y-105622500D02*
X156064200Y-105622500D01*
X156064200Y-105622500D02*
X156402700Y-105284000D01*
%TO.N,SEL*%
X118444000Y-113101000D02*
X120509300Y-113101000D01*
X120509300Y-113101000D02*
X124381500Y-116973200D01*
X124381500Y-116973200D02*
X136132100Y-116973200D01*
X136132100Y-116973200D02*
X139047100Y-114058200D01*
X158468000Y-113594000D02*
X156402700Y-113594000D01*
X139047100Y-114058200D02*
X139268900Y-114280000D01*
X139268900Y-114280000D02*
X155716700Y-114280000D01*
X155716700Y-114280000D02*
X156402700Y-113594000D01*
%TO.N,PH3*%
X120509300Y-115871000D02*
X122067800Y-117429500D01*
X122067800Y-117429500D02*
X140386100Y-117429500D01*
X140386100Y-117429500D02*
X142797800Y-115017800D01*
X142797800Y-115017800D02*
X142854300Y-114961300D01*
X142854300Y-114961300D02*
X155000000Y-114961300D01*
X155000000Y-114961300D02*
X156402700Y-116364000D01*
X118444000Y-115871000D02*
X120509300Y-115871000D01*
X158468000Y-116364000D02*
X156402700Y-116364000D01*
%TO.N,PH2*%
X153664400Y-118215800D02*
X155714500Y-118215800D01*
X155714500Y-118215800D02*
X156402700Y-118904000D01*
X120509300Y-118670000D02*
X128696800Y-126857500D01*
X128696800Y-126857500D02*
X145022700Y-126857500D01*
X145022700Y-126857500D02*
X153664400Y-118215800D01*
X151486600Y-115786600D02*
X153664400Y-117964400D01*
X153664400Y-117964400D02*
X153664400Y-118215800D01*
X158468000Y-118904000D02*
X156402700Y-118904000D01*
X118444000Y-118670000D02*
X120509300Y-118670000D01*
%TO.N,_ENABLE*%
X127054000Y-105008000D02*
X127054000Y-103882700D01*
X127054000Y-103882700D02*
X127335300Y-103882700D01*
X127335300Y-103882700D02*
X133009500Y-98208500D01*
X133009500Y-98208500D02*
X133009500Y-97277500D01*
%TO.N,Net-(D1-Pad1)*%
X142138000Y-123923000D02*
X142138000Y-119923000D01*
%TD*%
D20*
X155838901Y-119415002D02*
X155862699Y-119444001D01*
X155978424Y-119538974D01*
X156089928Y-119598575D01*
X156089928Y-119827333D01*
X156102188Y-119951815D01*
X156138498Y-120071513D01*
X156197463Y-120181827D01*
X156276815Y-120278518D01*
X156373506Y-120357870D01*
X156483820Y-120416835D01*
X156603518Y-120453145D01*
X156728000Y-120465405D01*
X159807761Y-120465405D01*
X159807761Y-128032960D01*
X117127760Y-128032960D01*
X117127760Y-125472872D01*
X117233000Y-125472872D01*
X117233000Y-125913128D01*
X117318890Y-126344925D01*
X117487369Y-126751669D01*
X117731962Y-127117729D01*
X118043271Y-127429038D01*
X118409331Y-127673631D01*
X118816075Y-127842110D01*
X119247872Y-127928000D01*
X119688128Y-127928000D01*
X120119925Y-127842110D01*
X120526669Y-127673631D01*
X120892729Y-127429038D01*
X121204038Y-127117729D01*
X121448631Y-126751669D01*
X121617110Y-126344925D01*
X121703000Y-125913128D01*
X121703000Y-125472872D01*
X121617110Y-125041075D01*
X121448631Y-124634331D01*
X121204038Y-124268271D01*
X120892729Y-123956962D01*
X120526669Y-123712369D01*
X120119925Y-123543890D01*
X119688128Y-123458000D01*
X119247872Y-123458000D01*
X118816075Y-123543890D01*
X118409331Y-123712369D01*
X118043271Y-123956962D01*
X117731962Y-124268271D01*
X117487369Y-124634331D01*
X117318890Y-125041075D01*
X117233000Y-125472872D01*
X117127760Y-125472872D01*
X117127760Y-120231405D01*
X120184000Y-120231405D01*
X120308482Y-120219145D01*
X120428180Y-120182835D01*
X120538494Y-120123870D01*
X120635185Y-120044518D01*
X120713540Y-119949041D01*
X128133001Y-127368503D01*
X128156799Y-127397501D01*
X128185797Y-127421299D01*
X128272524Y-127492474D01*
X128404553Y-127563046D01*
X128547814Y-127606503D01*
X128696800Y-127621177D01*
X128734133Y-127617500D01*
X144985378Y-127617500D01*
X145022700Y-127621176D01*
X145060022Y-127617500D01*
X145060033Y-127617500D01*
X145171686Y-127606503D01*
X145314947Y-127563046D01*
X145446976Y-127492474D01*
X145562701Y-127397501D01*
X145586504Y-127368497D01*
X147482129Y-125472872D01*
X155233000Y-125472872D01*
X155233000Y-125913128D01*
X155318890Y-126344925D01*
X155487369Y-126751669D01*
X155731962Y-127117729D01*
X156043271Y-127429038D01*
X156409331Y-127673631D01*
X156816075Y-127842110D01*
X157247872Y-127928000D01*
X157688128Y-127928000D01*
X158119925Y-127842110D01*
X158526669Y-127673631D01*
X158892729Y-127429038D01*
X159204038Y-127117729D01*
X159448631Y-126751669D01*
X159617110Y-126344925D01*
X159703000Y-125913128D01*
X159703000Y-125472872D01*
X159617110Y-125041075D01*
X159448631Y-124634331D01*
X159204038Y-124268271D01*
X158892729Y-123956962D01*
X158526669Y-123712369D01*
X158119925Y-123543890D01*
X157688128Y-123458000D01*
X157247872Y-123458000D01*
X156816075Y-123543890D01*
X156409331Y-123712369D01*
X156043271Y-123956962D01*
X155731962Y-124268271D01*
X155487369Y-124634331D01*
X155318890Y-125041075D01*
X155233000Y-125472872D01*
X147482129Y-125472872D01*
X148447059Y-124507942D01*
X148486320Y-124602727D01*
X148643363Y-124837759D01*
X148843241Y-125037637D01*
X149078273Y-125194680D01*
X149339426Y-125302853D01*
X149616665Y-125358000D01*
X149899335Y-125358000D01*
X150176574Y-125302853D01*
X150437727Y-125194680D01*
X150672759Y-125037637D01*
X150872637Y-124837759D01*
X151029680Y-124602727D01*
X151137853Y-124341574D01*
X151193000Y-124064335D01*
X151193000Y-123781665D01*
X151137853Y-123504426D01*
X151029680Y-123243273D01*
X150872637Y-123008241D01*
X150672759Y-122808363D01*
X150437727Y-122651320D01*
X150342943Y-122612059D01*
X153979202Y-118975800D01*
X155399699Y-118975800D01*
X155838901Y-119415002D01*
%TA.AperFunction,NonConductor*%
D21*
G36*
X155838901Y-119415002D02*
G01*
X155862699Y-119444001D01*
X155978424Y-119538974D01*
X156089928Y-119598575D01*
X156089928Y-119827333D01*
X156102188Y-119951815D01*
X156138498Y-120071513D01*
X156197463Y-120181827D01*
X156276815Y-120278518D01*
X156373506Y-120357870D01*
X156483820Y-120416835D01*
X156603518Y-120453145D01*
X156728000Y-120465405D01*
X159807761Y-120465405D01*
X159807761Y-128032960D01*
X117127760Y-128032960D01*
X117127760Y-125472872D01*
X117233000Y-125472872D01*
X117233000Y-125913128D01*
X117318890Y-126344925D01*
X117487369Y-126751669D01*
X117731962Y-127117729D01*
X118043271Y-127429038D01*
X118409331Y-127673631D01*
X118816075Y-127842110D01*
X119247872Y-127928000D01*
X119688128Y-127928000D01*
X120119925Y-127842110D01*
X120526669Y-127673631D01*
X120892729Y-127429038D01*
X121204038Y-127117729D01*
X121448631Y-126751669D01*
X121617110Y-126344925D01*
X121703000Y-125913128D01*
X121703000Y-125472872D01*
X121617110Y-125041075D01*
X121448631Y-124634331D01*
X121204038Y-124268271D01*
X120892729Y-123956962D01*
X120526669Y-123712369D01*
X120119925Y-123543890D01*
X119688128Y-123458000D01*
X119247872Y-123458000D01*
X118816075Y-123543890D01*
X118409331Y-123712369D01*
X118043271Y-123956962D01*
X117731962Y-124268271D01*
X117487369Y-124634331D01*
X117318890Y-125041075D01*
X117233000Y-125472872D01*
X117127760Y-125472872D01*
X117127760Y-120231405D01*
X120184000Y-120231405D01*
X120308482Y-120219145D01*
X120428180Y-120182835D01*
X120538494Y-120123870D01*
X120635185Y-120044518D01*
X120713540Y-119949041D01*
X128133001Y-127368503D01*
X128156799Y-127397501D01*
X128185797Y-127421299D01*
X128272524Y-127492474D01*
X128404553Y-127563046D01*
X128547814Y-127606503D01*
X128696800Y-127621177D01*
X128734133Y-127617500D01*
X144985378Y-127617500D01*
X145022700Y-127621176D01*
X145060022Y-127617500D01*
X145060033Y-127617500D01*
X145171686Y-127606503D01*
X145314947Y-127563046D01*
X145446976Y-127492474D01*
X145562701Y-127397501D01*
X145586504Y-127368497D01*
X147482129Y-125472872D01*
X155233000Y-125472872D01*
X155233000Y-125913128D01*
X155318890Y-126344925D01*
X155487369Y-126751669D01*
X155731962Y-127117729D01*
X156043271Y-127429038D01*
X156409331Y-127673631D01*
X156816075Y-127842110D01*
X157247872Y-127928000D01*
X157688128Y-127928000D01*
X158119925Y-127842110D01*
X158526669Y-127673631D01*
X158892729Y-127429038D01*
X159204038Y-127117729D01*
X159448631Y-126751669D01*
X159617110Y-126344925D01*
X159703000Y-125913128D01*
X159703000Y-125472872D01*
X159617110Y-125041075D01*
X159448631Y-124634331D01*
X159204038Y-124268271D01*
X158892729Y-123956962D01*
X158526669Y-123712369D01*
X158119925Y-123543890D01*
X157688128Y-123458000D01*
X157247872Y-123458000D01*
X156816075Y-123543890D01*
X156409331Y-123712369D01*
X156043271Y-123956962D01*
X155731962Y-124268271D01*
X155487369Y-124634331D01*
X155318890Y-125041075D01*
X155233000Y-125472872D01*
X147482129Y-125472872D01*
X148447059Y-124507942D01*
X148486320Y-124602727D01*
X148643363Y-124837759D01*
X148843241Y-125037637D01*
X149078273Y-125194680D01*
X149339426Y-125302853D01*
X149616665Y-125358000D01*
X149899335Y-125358000D01*
X150176574Y-125302853D01*
X150437727Y-125194680D01*
X150672759Y-125037637D01*
X150872637Y-124837759D01*
X151029680Y-124602727D01*
X151137853Y-124341574D01*
X151193000Y-124064335D01*
X151193000Y-123781665D01*
X151137853Y-123504426D01*
X151029680Y-123243273D01*
X150872637Y-123008241D01*
X150672759Y-122808363D01*
X150437727Y-122651320D01*
X150342943Y-122612059D01*
X153979202Y-118975800D01*
X155399699Y-118975800D01*
X155838901Y-119415002D01*
G37*
%TD.AperFunction*%
D20*
X121504001Y-117940503D02*
X121527799Y-117969501D01*
X121643524Y-118064474D01*
X121775553Y-118135046D01*
X121918814Y-118178503D01*
X122030467Y-118189500D01*
X122030477Y-118189500D01*
X122067800Y-118193176D01*
X122105123Y-118189500D01*
X127121314Y-118189500D01*
X127028147Y-118414426D01*
X126973000Y-118691665D01*
X126973000Y-118974335D01*
X127028147Y-119251574D01*
X127136320Y-119512727D01*
X127293363Y-119747759D01*
X127493241Y-119947637D01*
X127728273Y-120104680D01*
X127989426Y-120212853D01*
X128266665Y-120268000D01*
X128549335Y-120268000D01*
X128731886Y-120231688D01*
X129195905Y-120695708D01*
X129219699Y-120724701D01*
X129248692Y-120748495D01*
X129248696Y-120748499D01*
X129319385Y-120806511D01*
X129335424Y-120819674D01*
X129467453Y-120890246D01*
X129610714Y-120933703D01*
X129722367Y-120944700D01*
X129722376Y-120944700D01*
X129759699Y-120948376D01*
X129797022Y-120944700D01*
X139608978Y-120944700D01*
X139646300Y-120948376D01*
X139683622Y-120944700D01*
X139683633Y-120944700D01*
X139795286Y-120933703D01*
X139938547Y-120890246D01*
X140070576Y-120819674D01*
X140186301Y-120724701D01*
X140210104Y-120695697D01*
X140699928Y-120205873D01*
X140699928Y-120723000D01*
X140712188Y-120847482D01*
X140748498Y-120967180D01*
X140807463Y-121077494D01*
X140886815Y-121174185D01*
X140983506Y-121253537D01*
X141093820Y-121312502D01*
X141213518Y-121348812D01*
X141338000Y-121361072D01*
X141378001Y-121361072D01*
X141378000Y-122484928D01*
X141338000Y-122484928D01*
X141213518Y-122497188D01*
X141093820Y-122533498D01*
X140983506Y-122592463D01*
X140886815Y-122671815D01*
X140807463Y-122768506D01*
X140748498Y-122878820D01*
X140712188Y-122998518D01*
X140699928Y-123123000D01*
X140699928Y-124489400D01*
X139014254Y-124489400D01*
X137387478Y-122862625D01*
X137348802Y-122815498D01*
X137160749Y-122661167D01*
X136946201Y-122546489D01*
X136713402Y-122475870D01*
X136531965Y-122458000D01*
X136471300Y-122452025D01*
X136410635Y-122458000D01*
X135277967Y-122458000D01*
X135160405Y-122409304D01*
X134902486Y-122358000D01*
X134639514Y-122358000D01*
X134381595Y-122409304D01*
X134138641Y-122509939D01*
X133919987Y-122656038D01*
X133734038Y-122841987D01*
X133587939Y-123060641D01*
X133487304Y-123303595D01*
X133436000Y-123561514D01*
X133436000Y-123824486D01*
X133487304Y-124082405D01*
X133587939Y-124325359D01*
X133734038Y-124544013D01*
X133919987Y-124729962D01*
X134138641Y-124876061D01*
X134381595Y-124976696D01*
X134639514Y-125028000D01*
X134902486Y-125028000D01*
X135160405Y-124976696D01*
X135277967Y-124928000D01*
X135959747Y-124928000D01*
X137129246Y-126097500D01*
X129011602Y-126097500D01*
X127787438Y-124873336D01*
X128002013Y-124729962D01*
X128187962Y-124544013D01*
X128334061Y-124325359D01*
X128434696Y-124082405D01*
X128486000Y-123824486D01*
X128486000Y-123561514D01*
X128434696Y-123303595D01*
X128334061Y-123060641D01*
X128187962Y-122841987D01*
X128002013Y-122656038D01*
X127783359Y-122509939D01*
X127540405Y-122409304D01*
X127282486Y-122358000D01*
X127019514Y-122358000D01*
X126761595Y-122409304D01*
X126518641Y-122509939D01*
X126299987Y-122656038D01*
X126114038Y-122841987D01*
X125970664Y-123056563D01*
X121073104Y-118159003D01*
X121049301Y-118129999D01*
X120933576Y-118035026D01*
X120822072Y-117975425D01*
X120822072Y-117746667D01*
X120809812Y-117622185D01*
X120773502Y-117502487D01*
X120714537Y-117392173D01*
X120635185Y-117295482D01*
X120604744Y-117270500D01*
X120635185Y-117245518D01*
X120713540Y-117150042D01*
X121504001Y-117940503D01*
%TA.AperFunction,NonConductor*%
D21*
G36*
X121504001Y-117940503D02*
G01*
X121527799Y-117969501D01*
X121643524Y-118064474D01*
X121775553Y-118135046D01*
X121918814Y-118178503D01*
X122030467Y-118189500D01*
X122030477Y-118189500D01*
X122067800Y-118193176D01*
X122105123Y-118189500D01*
X127121314Y-118189500D01*
X127028147Y-118414426D01*
X126973000Y-118691665D01*
X126973000Y-118974335D01*
X127028147Y-119251574D01*
X127136320Y-119512727D01*
X127293363Y-119747759D01*
X127493241Y-119947637D01*
X127728273Y-120104680D01*
X127989426Y-120212853D01*
X128266665Y-120268000D01*
X128549335Y-120268000D01*
X128731886Y-120231688D01*
X129195905Y-120695708D01*
X129219699Y-120724701D01*
X129248692Y-120748495D01*
X129248696Y-120748499D01*
X129319385Y-120806511D01*
X129335424Y-120819674D01*
X129467453Y-120890246D01*
X129610714Y-120933703D01*
X129722367Y-120944700D01*
X129722376Y-120944700D01*
X129759699Y-120948376D01*
X129797022Y-120944700D01*
X139608978Y-120944700D01*
X139646300Y-120948376D01*
X139683622Y-120944700D01*
X139683633Y-120944700D01*
X139795286Y-120933703D01*
X139938547Y-120890246D01*
X140070576Y-120819674D01*
X140186301Y-120724701D01*
X140210104Y-120695697D01*
X140699928Y-120205873D01*
X140699928Y-120723000D01*
X140712188Y-120847482D01*
X140748498Y-120967180D01*
X140807463Y-121077494D01*
X140886815Y-121174185D01*
X140983506Y-121253537D01*
X141093820Y-121312502D01*
X141213518Y-121348812D01*
X141338000Y-121361072D01*
X141378001Y-121361072D01*
X141378000Y-122484928D01*
X141338000Y-122484928D01*
X141213518Y-122497188D01*
X141093820Y-122533498D01*
X140983506Y-122592463D01*
X140886815Y-122671815D01*
X140807463Y-122768506D01*
X140748498Y-122878820D01*
X140712188Y-122998518D01*
X140699928Y-123123000D01*
X140699928Y-124489400D01*
X139014254Y-124489400D01*
X137387478Y-122862625D01*
X137348802Y-122815498D01*
X137160749Y-122661167D01*
X136946201Y-122546489D01*
X136713402Y-122475870D01*
X136531965Y-122458000D01*
X136471300Y-122452025D01*
X136410635Y-122458000D01*
X135277967Y-122458000D01*
X135160405Y-122409304D01*
X134902486Y-122358000D01*
X134639514Y-122358000D01*
X134381595Y-122409304D01*
X134138641Y-122509939D01*
X133919987Y-122656038D01*
X133734038Y-122841987D01*
X133587939Y-123060641D01*
X133487304Y-123303595D01*
X133436000Y-123561514D01*
X133436000Y-123824486D01*
X133487304Y-124082405D01*
X133587939Y-124325359D01*
X133734038Y-124544013D01*
X133919987Y-124729962D01*
X134138641Y-124876061D01*
X134381595Y-124976696D01*
X134639514Y-125028000D01*
X134902486Y-125028000D01*
X135160405Y-124976696D01*
X135277967Y-124928000D01*
X135959747Y-124928000D01*
X137129246Y-126097500D01*
X129011602Y-126097500D01*
X127787438Y-124873336D01*
X128002013Y-124729962D01*
X128187962Y-124544013D01*
X128334061Y-124325359D01*
X128434696Y-124082405D01*
X128486000Y-123824486D01*
X128486000Y-123561514D01*
X128434696Y-123303595D01*
X128334061Y-123060641D01*
X128187962Y-122841987D01*
X128002013Y-122656038D01*
X127783359Y-122509939D01*
X127540405Y-122409304D01*
X127282486Y-122358000D01*
X127019514Y-122358000D01*
X126761595Y-122409304D01*
X126518641Y-122509939D01*
X126299987Y-122656038D01*
X126114038Y-122841987D01*
X125970664Y-123056563D01*
X121073104Y-118159003D01*
X121049301Y-118129999D01*
X120933576Y-118035026D01*
X120822072Y-117975425D01*
X120822072Y-117746667D01*
X120809812Y-117622185D01*
X120773502Y-117502487D01*
X120714537Y-117392173D01*
X120635185Y-117295482D01*
X120604744Y-117270500D01*
X120635185Y-117245518D01*
X120713540Y-117150042D01*
X121504001Y-117940503D01*
G37*
%TD.AperFunction*%
D20*
X147108147Y-115924426D02*
X147095266Y-115989180D01*
X145878021Y-117206426D01*
X145830899Y-117245098D01*
X145676568Y-117433151D01*
X145573396Y-117626173D01*
X145561889Y-117647701D01*
X145491270Y-117880498D01*
X145467425Y-118122600D01*
X145473401Y-118183275D01*
X145473400Y-121884146D01*
X143576072Y-123781475D01*
X143576072Y-123123000D01*
X143563812Y-122998518D01*
X143527502Y-122878820D01*
X143468537Y-122768506D01*
X143389185Y-122671815D01*
X143292494Y-122592463D01*
X143182180Y-122533498D01*
X143062482Y-122497188D01*
X142938000Y-122484928D01*
X142898000Y-122484928D01*
X142898000Y-121361072D01*
X142938000Y-121361072D01*
X143062482Y-121348812D01*
X143182180Y-121312502D01*
X143292494Y-121253537D01*
X143389185Y-121174185D01*
X143468537Y-121077494D01*
X143527502Y-120967180D01*
X143563812Y-120847482D01*
X143576072Y-120723000D01*
X143576072Y-119123000D01*
X143563812Y-118998518D01*
X143527502Y-118878820D01*
X143468537Y-118768506D01*
X143389185Y-118671815D01*
X143292494Y-118592463D01*
X143182180Y-118533498D01*
X143062482Y-118497188D01*
X142938000Y-118484928D01*
X142420874Y-118484928D01*
X143164114Y-117741688D01*
X143346665Y-117778000D01*
X143629335Y-117778000D01*
X143906574Y-117722853D01*
X144167727Y-117614680D01*
X144402759Y-117457637D01*
X144602637Y-117257759D01*
X144759680Y-117022727D01*
X144867853Y-116761574D01*
X144923000Y-116484335D01*
X144923000Y-116201665D01*
X144867853Y-115924426D01*
X144783716Y-115721300D01*
X147192284Y-115721300D01*
X147108147Y-115924426D01*
%TA.AperFunction,NonConductor*%
D21*
G36*
X147108147Y-115924426D02*
G01*
X147095266Y-115989180D01*
X145878021Y-117206426D01*
X145830899Y-117245098D01*
X145676568Y-117433151D01*
X145573396Y-117626173D01*
X145561889Y-117647701D01*
X145491270Y-117880498D01*
X145467425Y-118122600D01*
X145473401Y-118183275D01*
X145473400Y-121884146D01*
X143576072Y-123781475D01*
X143576072Y-123123000D01*
X143563812Y-122998518D01*
X143527502Y-122878820D01*
X143468537Y-122768506D01*
X143389185Y-122671815D01*
X143292494Y-122592463D01*
X143182180Y-122533498D01*
X143062482Y-122497188D01*
X142938000Y-122484928D01*
X142898000Y-122484928D01*
X142898000Y-121361072D01*
X142938000Y-121361072D01*
X143062482Y-121348812D01*
X143182180Y-121312502D01*
X143292494Y-121253537D01*
X143389185Y-121174185D01*
X143468537Y-121077494D01*
X143527502Y-120967180D01*
X143563812Y-120847482D01*
X143576072Y-120723000D01*
X143576072Y-119123000D01*
X143563812Y-118998518D01*
X143527502Y-118878820D01*
X143468537Y-118768506D01*
X143389185Y-118671815D01*
X143292494Y-118592463D01*
X143182180Y-118533498D01*
X143062482Y-118497188D01*
X142938000Y-118484928D01*
X142420874Y-118484928D01*
X143164114Y-117741688D01*
X143346665Y-117778000D01*
X143629335Y-117778000D01*
X143906574Y-117722853D01*
X144167727Y-117614680D01*
X144402759Y-117457637D01*
X144602637Y-117257759D01*
X144759680Y-117022727D01*
X144867853Y-116761574D01*
X144923000Y-116484335D01*
X144923000Y-116201665D01*
X144867853Y-115924426D01*
X144783716Y-115721300D01*
X147192284Y-115721300D01*
X147108147Y-115924426D01*
G37*
%TD.AperFunction*%
D20*
X150451600Y-115888539D02*
X150491374Y-116088498D01*
X150569395Y-116276856D01*
X150682663Y-116446374D01*
X150826826Y-116590537D01*
X150996344Y-116703805D01*
X151184702Y-116781826D01*
X151384661Y-116821600D01*
X151446799Y-116821600D01*
X152715298Y-118090100D01*
X151164917Y-119640482D01*
X151137853Y-119504426D01*
X151029680Y-119243273D01*
X150872637Y-119008241D01*
X150672759Y-118808363D01*
X150437727Y-118651320D01*
X150176574Y-118543147D01*
X149899335Y-118488000D01*
X149616665Y-118488000D01*
X149339426Y-118543147D01*
X149078273Y-118651320D01*
X148843241Y-118808363D01*
X148643363Y-119008241D01*
X148486320Y-119243273D01*
X148378147Y-119504426D01*
X148323000Y-119781665D01*
X148323000Y-120064335D01*
X148378147Y-120341574D01*
X148486320Y-120602727D01*
X148643363Y-120837759D01*
X148843241Y-121037637D01*
X149078273Y-121194680D01*
X149339426Y-121302853D01*
X149475482Y-121329917D01*
X147763179Y-123042219D01*
X147854911Y-122870601D01*
X147925530Y-122637802D01*
X147943400Y-122456365D01*
X147943400Y-122456364D01*
X147949375Y-122395700D01*
X147943400Y-122335035D01*
X147943400Y-118634153D01*
X148841820Y-117735734D01*
X148906574Y-117722853D01*
X149167727Y-117614680D01*
X149402759Y-117457637D01*
X149602637Y-117257759D01*
X149759680Y-117022727D01*
X149867853Y-116761574D01*
X149923000Y-116484335D01*
X149923000Y-116201665D01*
X149867853Y-115924426D01*
X149783716Y-115721300D01*
X150451600Y-115721300D01*
X150451600Y-115888539D01*
%TA.AperFunction,NonConductor*%
D21*
G36*
X150451600Y-115888539D02*
G01*
X150491374Y-116088498D01*
X150569395Y-116276856D01*
X150682663Y-116446374D01*
X150826826Y-116590537D01*
X150996344Y-116703805D01*
X151184702Y-116781826D01*
X151384661Y-116821600D01*
X151446799Y-116821600D01*
X152715298Y-118090100D01*
X151164917Y-119640482D01*
X151137853Y-119504426D01*
X151029680Y-119243273D01*
X150872637Y-119008241D01*
X150672759Y-118808363D01*
X150437727Y-118651320D01*
X150176574Y-118543147D01*
X149899335Y-118488000D01*
X149616665Y-118488000D01*
X149339426Y-118543147D01*
X149078273Y-118651320D01*
X148843241Y-118808363D01*
X148643363Y-119008241D01*
X148486320Y-119243273D01*
X148378147Y-119504426D01*
X148323000Y-119781665D01*
X148323000Y-120064335D01*
X148378147Y-120341574D01*
X148486320Y-120602727D01*
X148643363Y-120837759D01*
X148843241Y-121037637D01*
X149078273Y-121194680D01*
X149339426Y-121302853D01*
X149475482Y-121329917D01*
X147763179Y-123042219D01*
X147854911Y-122870601D01*
X147925530Y-122637802D01*
X147943400Y-122456365D01*
X147943400Y-122456364D01*
X147949375Y-122395700D01*
X147943400Y-122335035D01*
X147943400Y-118634153D01*
X148841820Y-117735734D01*
X148906574Y-117722853D01*
X149167727Y-117614680D01*
X149402759Y-117457637D01*
X149602637Y-117257759D01*
X149759680Y-117022727D01*
X149867853Y-116761574D01*
X149923000Y-116484335D01*
X149923000Y-116201665D01*
X149867853Y-115924426D01*
X149783716Y-115721300D01*
X150451600Y-115721300D01*
X150451600Y-115888539D01*
G37*
%TD.AperFunction*%
D20*
X132028147Y-118414426D02*
X131973000Y-118691665D01*
X131973000Y-118974335D01*
X132028147Y-119251574D01*
X132099858Y-119424700D01*
X130074503Y-119424700D01*
X129806688Y-119156886D01*
X129843000Y-118974335D01*
X129843000Y-118691665D01*
X129787853Y-118414426D01*
X129694686Y-118189500D01*
X132121314Y-118189500D01*
X132028147Y-118414426D01*
%TA.AperFunction,NonConductor*%
D21*
G36*
X132028147Y-118414426D02*
G01*
X131973000Y-118691665D01*
X131973000Y-118974335D01*
X132028147Y-119251574D01*
X132099858Y-119424700D01*
X130074503Y-119424700D01*
X129806688Y-119156886D01*
X129843000Y-118974335D01*
X129843000Y-118691665D01*
X129787853Y-118414426D01*
X129694686Y-118189500D01*
X132121314Y-118189500D01*
X132028147Y-118414426D01*
G37*
%TD.AperFunction*%
D20*
X139331499Y-119424700D02*
X134716142Y-119424700D01*
X134787853Y-119251574D01*
X134843000Y-118974335D01*
X134843000Y-118691665D01*
X134787853Y-118414426D01*
X134694686Y-118189500D01*
X140348778Y-118189500D01*
X140386100Y-118193176D01*
X140423422Y-118189500D01*
X140423433Y-118189500D01*
X140535086Y-118178503D01*
X140596249Y-118159950D01*
X139331499Y-119424700D01*
%TA.AperFunction,NonConductor*%
D21*
G36*
X139331499Y-119424700D02*
G01*
X134716142Y-119424700D01*
X134787853Y-119251574D01*
X134843000Y-118974335D01*
X134843000Y-118691665D01*
X134787853Y-118414426D01*
X134694686Y-118189500D01*
X140348778Y-118189500D01*
X140386100Y-118193176D01*
X140423422Y-118189500D01*
X140423433Y-118189500D01*
X140535086Y-118178503D01*
X140596249Y-118159950D01*
X139331499Y-119424700D01*
G37*
%TD.AperFunction*%
D20*
X155838901Y-116875003D02*
X155862699Y-116904001D01*
X155978424Y-116998974D01*
X156089928Y-117058575D01*
X156089928Y-117287333D01*
X156102188Y-117411815D01*
X156138498Y-117531513D01*
X156185238Y-117618957D01*
X156138776Y-117580826D01*
X156006747Y-117510254D01*
X155863486Y-117466797D01*
X155751833Y-117455800D01*
X155751822Y-117455800D01*
X155714500Y-117452124D01*
X155677178Y-117455800D01*
X154230171Y-117455800D01*
X154204401Y-117424399D01*
X154175404Y-117400602D01*
X152521600Y-115746799D01*
X152521600Y-115721300D01*
X154685199Y-115721300D01*
X155838901Y-116875003D01*
%TA.AperFunction,NonConductor*%
D21*
G36*
X155838901Y-116875003D02*
G01*
X155862699Y-116904001D01*
X155978424Y-116998974D01*
X156089928Y-117058575D01*
X156089928Y-117287333D01*
X156102188Y-117411815D01*
X156138498Y-117531513D01*
X156185238Y-117618957D01*
X156138776Y-117580826D01*
X156006747Y-117510254D01*
X155863486Y-117466797D01*
X155751833Y-117455800D01*
X155751822Y-117455800D01*
X155714500Y-117452124D01*
X155677178Y-117455800D01*
X154230171Y-117455800D01*
X154204401Y-117424399D01*
X154175404Y-117400602D01*
X152521600Y-115746799D01*
X152521600Y-115721300D01*
X154685199Y-115721300D01*
X155838901Y-116875003D01*
G37*
%TD.AperFunction*%
D20*
X123002998Y-116669500D02*
X122382602Y-116669500D01*
X121073104Y-115360003D01*
X121049301Y-115330999D01*
X120933576Y-115236026D01*
X120822072Y-115176425D01*
X120822072Y-114947667D01*
X120809812Y-114823185D01*
X120773502Y-114703487D01*
X120714537Y-114593173D01*
X120635185Y-114496482D01*
X120622413Y-114486000D01*
X120635185Y-114475518D01*
X120713540Y-114380041D01*
X123002998Y-116669500D01*
%TA.AperFunction,NonConductor*%
D21*
G36*
X123002998Y-116669500D02*
G01*
X122382602Y-116669500D01*
X121073104Y-115360003D01*
X121049301Y-115330999D01*
X120933576Y-115236026D01*
X120822072Y-115176425D01*
X120822072Y-114947667D01*
X120809812Y-114823185D01*
X120773502Y-114703487D01*
X120714537Y-114593173D01*
X120635185Y-114496482D01*
X120622413Y-114486000D01*
X120635185Y-114475518D01*
X120713540Y-114380041D01*
X123002998Y-116669500D01*
G37*
%TD.AperFunction*%
D20*
X140071299Y-116669500D02*
X137510601Y-116669500D01*
X139086902Y-115093200D01*
X139149039Y-115093200D01*
X139348998Y-115053426D01*
X139381411Y-115040000D01*
X141700798Y-115040000D01*
X140071299Y-116669500D01*
%TA.AperFunction,NonConductor*%
D21*
G36*
X140071299Y-116669500D02*
G01*
X137510601Y-116669500D01*
X139086902Y-115093200D01*
X139149039Y-115093200D01*
X139348998Y-115053426D01*
X139381411Y-115040000D01*
X141700798Y-115040000D01*
X140071299Y-116669500D01*
G37*
%TD.AperFunction*%
D20*
X124330900Y-114550402D02*
X124354699Y-114579401D01*
X124383697Y-114603199D01*
X124470424Y-114674374D01*
X124602453Y-114744946D01*
X124745714Y-114788403D01*
X124894700Y-114803077D01*
X124932033Y-114799400D01*
X125664206Y-114799400D01*
X125619000Y-115026665D01*
X125619000Y-115309335D01*
X125674147Y-115586574D01*
X125782320Y-115847727D01*
X125939363Y-116082759D01*
X126069804Y-116213200D01*
X124696302Y-116213200D01*
X121073104Y-112590003D01*
X121049301Y-112560999D01*
X120933576Y-112466026D01*
X120822072Y-112406425D01*
X120822072Y-112177667D01*
X120809812Y-112053185D01*
X120773502Y-111933487D01*
X120714537Y-111823173D01*
X120635185Y-111726482D01*
X120622413Y-111716000D01*
X120635185Y-111705518D01*
X120714537Y-111608827D01*
X120773502Y-111498513D01*
X120809812Y-111378815D01*
X120822072Y-111254333D01*
X120822072Y-111091000D01*
X120871499Y-111091000D01*
X124330900Y-114550402D01*
%TA.AperFunction,NonConductor*%
D21*
G36*
X124330900Y-114550402D02*
G01*
X124354699Y-114579401D01*
X124383697Y-114603199D01*
X124470424Y-114674374D01*
X124602453Y-114744946D01*
X124745714Y-114788403D01*
X124894700Y-114803077D01*
X124932033Y-114799400D01*
X125664206Y-114799400D01*
X125619000Y-115026665D01*
X125619000Y-115309335D01*
X125674147Y-115586574D01*
X125782320Y-115847727D01*
X125939363Y-116082759D01*
X126069804Y-116213200D01*
X124696302Y-116213200D01*
X121073104Y-112590003D01*
X121049301Y-112560999D01*
X120933576Y-112466026D01*
X120822072Y-112406425D01*
X120822072Y-112177667D01*
X120809812Y-112053185D01*
X120773502Y-111933487D01*
X120714537Y-111823173D01*
X120635185Y-111726482D01*
X120622413Y-111716000D01*
X120635185Y-111705518D01*
X120714537Y-111608827D01*
X120773502Y-111498513D01*
X120809812Y-111378815D01*
X120822072Y-111254333D01*
X120822072Y-111091000D01*
X120871499Y-111091000D01*
X124330900Y-114550402D01*
G37*
%TD.AperFunction*%
D20*
X130843898Y-116213200D02*
X128038196Y-116213200D01*
X128168637Y-116082759D01*
X128325680Y-115847727D01*
X128433853Y-115586574D01*
X128489000Y-115309335D01*
X128489000Y-115026665D01*
X128443794Y-114799400D01*
X129430099Y-114799400D01*
X130843898Y-116213200D01*
%TA.AperFunction,NonConductor*%
D21*
G36*
X130843898Y-116213200D02*
G01*
X128038196Y-116213200D01*
X128168637Y-116082759D01*
X128325680Y-115847727D01*
X128433853Y-115586574D01*
X128489000Y-115309335D01*
X128489000Y-115026665D01*
X128443794Y-114799400D01*
X129430099Y-114799400D01*
X130843898Y-116213200D01*
G37*
%TD.AperFunction*%
D20*
X156197463Y-114871827D02*
X156276815Y-114968518D01*
X156289587Y-114979000D01*
X156276815Y-114989482D01*
X156198460Y-115084958D01*
X156067663Y-114954161D01*
X156140976Y-114914974D01*
X156196270Y-114869595D01*
X156197463Y-114871827D01*
%TA.AperFunction,NonConductor*%
D21*
G36*
X156197463Y-114871827D02*
G01*
X156276815Y-114968518D01*
X156289587Y-114979000D01*
X156276815Y-114989482D01*
X156198460Y-115084958D01*
X156067663Y-114954161D01*
X156140976Y-114914974D01*
X156196270Y-114869595D01*
X156197463Y-114871827D01*
G37*
%TD.AperFunction*%
D20*
X140757147Y-109725426D02*
X140702000Y-110002665D01*
X140702000Y-110030335D01*
X140517802Y-110066974D01*
X140329444Y-110144995D01*
X140159926Y-110258263D01*
X140015763Y-110402426D01*
X139902495Y-110571944D01*
X139824474Y-110760302D01*
X139784700Y-110960261D01*
X139784700Y-111022398D01*
X136649502Y-114157597D01*
X136620499Y-114181399D01*
X136525526Y-114297124D01*
X136454954Y-114429153D01*
X136411497Y-114572414D01*
X136400500Y-114684067D01*
X136400500Y-114684078D01*
X136396824Y-114721400D01*
X136398848Y-114741950D01*
X136112072Y-115028726D01*
X136112072Y-114368000D01*
X136099812Y-114243518D01*
X136063502Y-114123820D01*
X136004537Y-114013506D01*
X135925185Y-113916815D01*
X135828494Y-113837463D01*
X135718180Y-113778498D01*
X135598482Y-113742188D01*
X135590039Y-113741357D01*
X135788637Y-113542759D01*
X135945680Y-113307727D01*
X136053853Y-113046574D01*
X136109000Y-112769335D01*
X136109000Y-112486665D01*
X136053853Y-112209426D01*
X135945680Y-111948273D01*
X135788637Y-111713241D01*
X135588759Y-111513363D01*
X135356241Y-111358000D01*
X135588759Y-111202637D01*
X135788637Y-111002759D01*
X135945680Y-110767727D01*
X136053853Y-110506574D01*
X136109000Y-110229335D01*
X136109000Y-109946665D01*
X136053853Y-109669426D01*
X135982805Y-109497900D01*
X140851391Y-109497900D01*
X140757147Y-109725426D01*
%TA.AperFunction,NonConductor*%
D21*
G36*
X140757147Y-109725426D02*
G01*
X140702000Y-110002665D01*
X140702000Y-110030335D01*
X140517802Y-110066974D01*
X140329444Y-110144995D01*
X140159926Y-110258263D01*
X140015763Y-110402426D01*
X139902495Y-110571944D01*
X139824474Y-110760302D01*
X139784700Y-110960261D01*
X139784700Y-111022398D01*
X136649502Y-114157597D01*
X136620499Y-114181399D01*
X136525526Y-114297124D01*
X136454954Y-114429153D01*
X136411497Y-114572414D01*
X136400500Y-114684067D01*
X136400500Y-114684078D01*
X136396824Y-114721400D01*
X136398848Y-114741950D01*
X136112072Y-115028726D01*
X136112072Y-114368000D01*
X136099812Y-114243518D01*
X136063502Y-114123820D01*
X136004537Y-114013506D01*
X135925185Y-113916815D01*
X135828494Y-113837463D01*
X135718180Y-113778498D01*
X135598482Y-113742188D01*
X135590039Y-113741357D01*
X135788637Y-113542759D01*
X135945680Y-113307727D01*
X136053853Y-113046574D01*
X136109000Y-112769335D01*
X136109000Y-112486665D01*
X136053853Y-112209426D01*
X135945680Y-111948273D01*
X135788637Y-111713241D01*
X135588759Y-111513363D01*
X135356241Y-111358000D01*
X135588759Y-111202637D01*
X135788637Y-111002759D01*
X135945680Y-110767727D01*
X136053853Y-110506574D01*
X136109000Y-110229335D01*
X136109000Y-109946665D01*
X136053853Y-109669426D01*
X135982805Y-109497900D01*
X140851391Y-109497900D01*
X140757147Y-109725426D01*
G37*
%TD.AperFunction*%
D20*
X140757147Y-112265426D02*
X140702000Y-112542665D01*
X140702000Y-112825335D01*
X140757147Y-113102574D01*
X140865320Y-113363727D01*
X140969738Y-113520000D01*
X139932270Y-113520000D01*
X139851037Y-113398426D01*
X139706874Y-113254263D01*
X139704215Y-113252486D01*
X140803725Y-112152977D01*
X140757147Y-112265426D01*
%TA.AperFunction,NonConductor*%
D21*
G36*
X140757147Y-112265426D02*
G01*
X140702000Y-112542665D01*
X140702000Y-112825335D01*
X140757147Y-113102574D01*
X140865320Y-113363727D01*
X140969738Y-113520000D01*
X139932270Y-113520000D01*
X139851037Y-113398426D01*
X139706874Y-113254263D01*
X139704215Y-113252486D01*
X140803725Y-112152977D01*
X140757147Y-112265426D01*
G37*
%TD.AperFunction*%
D20*
X145301898Y-113520000D02*
X143304262Y-113520000D01*
X143408680Y-113363727D01*
X143516853Y-113102574D01*
X143572000Y-112825335D01*
X143572000Y-112542665D01*
X143516853Y-112265426D01*
X143478983Y-112174000D01*
X143955899Y-112174000D01*
X145301898Y-113520000D01*
%TA.AperFunction,NonConductor*%
D21*
G36*
X145301898Y-113520000D02*
G01*
X143304262Y-113520000D01*
X143408680Y-113363727D01*
X143516853Y-113102574D01*
X143572000Y-112825335D01*
X143572000Y-112542665D01*
X143516853Y-112265426D01*
X143478983Y-112174000D01*
X143955899Y-112174000D01*
X145301898Y-113520000D01*
G37*
%TD.AperFunction*%
D20*
X156089928Y-111747333D02*
X156102188Y-111871815D01*
X156138498Y-111991513D01*
X156197463Y-112101827D01*
X156276815Y-112198518D01*
X156289587Y-112209000D01*
X156276815Y-112219482D01*
X156197463Y-112316173D01*
X156138498Y-112426487D01*
X156102188Y-112546185D01*
X156089928Y-112670667D01*
X156089928Y-112899425D01*
X155978424Y-112959026D01*
X155862699Y-113053999D01*
X155838901Y-113082998D01*
X155401899Y-113520000D01*
X153060501Y-113520000D01*
X154996502Y-111584000D01*
X156089928Y-111584000D01*
X156089928Y-111747333D01*
%TA.AperFunction,NonConductor*%
D21*
G36*
X156089928Y-111747333D02*
G01*
X156102188Y-111871815D01*
X156138498Y-111991513D01*
X156197463Y-112101827D01*
X156276815Y-112198518D01*
X156289587Y-112209000D01*
X156276815Y-112219482D01*
X156197463Y-112316173D01*
X156138498Y-112426487D01*
X156102188Y-112546185D01*
X156089928Y-112670667D01*
X156089928Y-112899425D01*
X155978424Y-112959026D01*
X155862699Y-113053999D01*
X155838901Y-113082998D01*
X155401899Y-113520000D01*
X153060501Y-113520000D01*
X154996502Y-111584000D01*
X156089928Y-111584000D01*
X156089928Y-111747333D01*
G37*
%TD.AperFunction*%
D20*
X123875405Y-111731708D02*
X123899199Y-111760701D01*
X123928192Y-111784495D01*
X123928196Y-111784499D01*
X123975321Y-111823173D01*
X124014924Y-111855674D01*
X124146953Y-111926246D01*
X124290214Y-111969703D01*
X124401867Y-111980700D01*
X124401876Y-111980700D01*
X124439199Y-111984376D01*
X124476522Y-111980700D01*
X125768888Y-111980700D01*
X125674147Y-112209426D01*
X125619000Y-112486665D01*
X125619000Y-112769335D01*
X125674147Y-113046574D01*
X125770587Y-113279400D01*
X125209502Y-113279400D01*
X121750104Y-109820003D01*
X121726301Y-109790999D01*
X121610576Y-109696026D01*
X121478547Y-109625454D01*
X121335286Y-109581997D01*
X121223633Y-109571000D01*
X121223622Y-109571000D01*
X121186300Y-109567324D01*
X121148978Y-109571000D01*
X120822072Y-109571000D01*
X120822072Y-109407667D01*
X120809812Y-109283185D01*
X120773502Y-109163487D01*
X120714537Y-109053173D01*
X120635185Y-108956482D01*
X120622413Y-108946000D01*
X120635185Y-108935518D01*
X120714537Y-108838827D01*
X120773502Y-108728513D01*
X120796476Y-108652777D01*
X123875405Y-111731708D01*
%TA.AperFunction,NonConductor*%
D21*
G36*
X123875405Y-111731708D02*
G01*
X123899199Y-111760701D01*
X123928192Y-111784495D01*
X123928196Y-111784499D01*
X123975321Y-111823173D01*
X124014924Y-111855674D01*
X124146953Y-111926246D01*
X124290214Y-111969703D01*
X124401867Y-111980700D01*
X124401876Y-111980700D01*
X124439199Y-111984376D01*
X124476522Y-111980700D01*
X125768888Y-111980700D01*
X125674147Y-112209426D01*
X125619000Y-112486665D01*
X125619000Y-112769335D01*
X125674147Y-113046574D01*
X125770587Y-113279400D01*
X125209502Y-113279400D01*
X121750104Y-109820003D01*
X121726301Y-109790999D01*
X121610576Y-109696026D01*
X121478547Y-109625454D01*
X121335286Y-109581997D01*
X121223633Y-109571000D01*
X121223622Y-109571000D01*
X121186300Y-109567324D01*
X121148978Y-109571000D01*
X120822072Y-109571000D01*
X120822072Y-109407667D01*
X120809812Y-109283185D01*
X120773502Y-109163487D01*
X120714537Y-109053173D01*
X120635185Y-108956482D01*
X120622413Y-108946000D01*
X120635185Y-108935518D01*
X120714537Y-108838827D01*
X120773502Y-108728513D01*
X120796476Y-108652777D01*
X123875405Y-111731708D01*
G37*
%TD.AperFunction*%
D20*
X133294147Y-112209426D02*
X133239000Y-112486665D01*
X133239000Y-112769335D01*
X133294147Y-113046574D01*
X133302434Y-113066580D01*
X132863853Y-112628000D01*
X133302434Y-112189420D01*
X133294147Y-112209426D01*
%TA.AperFunction,NonConductor*%
D21*
G36*
X133294147Y-112209426D02*
G01*
X133239000Y-112486665D01*
X133239000Y-112769335D01*
X133294147Y-113046574D01*
X133302434Y-113066580D01*
X132863853Y-112628000D01*
X133302434Y-112189420D01*
X133294147Y-112209426D01*
G37*
%TD.AperFunction*%
D20*
X147922298Y-113049400D02*
X146980902Y-113049400D01*
X144834504Y-110903003D01*
X144810701Y-110873999D01*
X144694976Y-110779026D01*
X144562947Y-110708454D01*
X144419686Y-110664997D01*
X144308033Y-110654000D01*
X144308022Y-110654000D01*
X144270700Y-110650324D01*
X144233378Y-110654000D01*
X143478983Y-110654000D01*
X143516853Y-110562574D01*
X143572000Y-110285335D01*
X143572000Y-110002665D01*
X143516853Y-109725426D01*
X143422609Y-109497900D01*
X144370799Y-109497900D01*
X147922298Y-113049400D01*
%TA.AperFunction,NonConductor*%
D21*
G36*
X147922298Y-113049400D02*
G01*
X146980902Y-113049400D01*
X144834504Y-110903003D01*
X144810701Y-110873999D01*
X144694976Y-110779026D01*
X144562947Y-110708454D01*
X144419686Y-110664997D01*
X144308033Y-110654000D01*
X144308022Y-110654000D01*
X144270700Y-110650324D01*
X144233378Y-110654000D01*
X143478983Y-110654000D01*
X143516853Y-110562574D01*
X143572000Y-110285335D01*
X143572000Y-110002665D01*
X143516853Y-109725426D01*
X143422609Y-109497900D01*
X144370799Y-109497900D01*
X147922298Y-113049400D01*
G37*
%TD.AperFunction*%
D20*
X131727189Y-109613099D02*
X131656570Y-109845898D01*
X131632725Y-110088000D01*
X131638700Y-110148665D01*
X131638700Y-110360046D01*
X130605747Y-111393000D01*
X129661401Y-111393000D01*
X131556503Y-109497900D01*
X131788764Y-109497900D01*
X131727189Y-109613099D01*
%TA.AperFunction,NonConductor*%
D21*
G36*
X131727189Y-109613099D02*
G01*
X131656570Y-109845898D01*
X131632725Y-110088000D01*
X131638700Y-110148665D01*
X131638700Y-110360046D01*
X130605747Y-111393000D01*
X129661401Y-111393000D01*
X131556503Y-109497900D01*
X131788764Y-109497900D01*
X131727189Y-109613099D01*
G37*
%TD.AperFunction*%
D20*
X125290701Y-109192803D02*
X125314499Y-109221801D01*
X125343497Y-109245599D01*
X125430223Y-109316774D01*
X125535178Y-109372874D01*
X125562253Y-109387346D01*
X125705514Y-109430803D01*
X125770343Y-109437188D01*
X125674147Y-109669426D01*
X125619000Y-109946665D01*
X125619000Y-110229335D01*
X125665022Y-110460700D01*
X124754003Y-110460700D01*
X121343304Y-107050003D01*
X121319501Y-107020999D01*
X121203776Y-106926026D01*
X121071747Y-106855454D01*
X120928486Y-106811997D01*
X120822072Y-106801516D01*
X120822072Y-106637667D01*
X120809812Y-106513185D01*
X120773502Y-106393487D01*
X120714537Y-106283173D01*
X120635185Y-106186482D01*
X120622413Y-106176000D01*
X120635185Y-106165518D01*
X120714537Y-106068827D01*
X120773502Y-105958513D01*
X120809812Y-105838815D01*
X120822072Y-105714333D01*
X120822072Y-105551000D01*
X121648899Y-105551000D01*
X125290701Y-109192803D01*
%TA.AperFunction,NonConductor*%
D21*
G36*
X125290701Y-109192803D02*
G01*
X125314499Y-109221801D01*
X125343497Y-109245599D01*
X125430223Y-109316774D01*
X125535178Y-109372874D01*
X125562253Y-109387346D01*
X125705514Y-109430803D01*
X125770343Y-109437188D01*
X125674147Y-109669426D01*
X125619000Y-109946665D01*
X125619000Y-110229335D01*
X125665022Y-110460700D01*
X124754003Y-110460700D01*
X121343304Y-107050003D01*
X121319501Y-107020999D01*
X121203776Y-106926026D01*
X121071747Y-106855454D01*
X120928486Y-106811997D01*
X120822072Y-106801516D01*
X120822072Y-106637667D01*
X120809812Y-106513185D01*
X120773502Y-106393487D01*
X120714537Y-106283173D01*
X120635185Y-106186482D01*
X120622413Y-106176000D01*
X120635185Y-106165518D01*
X120714537Y-106068827D01*
X120773502Y-105958513D01*
X120809812Y-105838815D01*
X120822072Y-105714333D01*
X120822072Y-105551000D01*
X121648899Y-105551000D01*
X125290701Y-109192803D01*
G37*
%TD.AperFunction*%
D20*
X133239000Y-107406665D02*
X133239000Y-107689335D01*
X133294147Y-107966574D01*
X133298838Y-107977900D01*
X131279022Y-107977900D01*
X131241699Y-107974224D01*
X131204376Y-107977900D01*
X131204367Y-107977900D01*
X131092714Y-107988897D01*
X130949453Y-108032354D01*
X130817424Y-108102926D01*
X130817422Y-108102927D01*
X130817423Y-108102927D01*
X130730696Y-108174101D01*
X130730692Y-108174105D01*
X130701699Y-108197899D01*
X130677905Y-108226892D01*
X128444099Y-110460700D01*
X128442978Y-110460700D01*
X128489000Y-110229335D01*
X128489000Y-109946665D01*
X128433853Y-109669426D01*
X128339567Y-109441800D01*
X128568278Y-109441800D01*
X128605600Y-109445476D01*
X128642922Y-109441800D01*
X128642933Y-109441800D01*
X128754586Y-109430803D01*
X128897847Y-109387346D01*
X129029876Y-109316774D01*
X129145601Y-109221801D01*
X129169404Y-109192797D01*
X131181502Y-107180700D01*
X133283948Y-107180700D01*
X133239000Y-107406665D01*
%TA.AperFunction,NonConductor*%
D21*
G36*
X133239000Y-107406665D02*
G01*
X133239000Y-107689335D01*
X133294147Y-107966574D01*
X133298838Y-107977900D01*
X131279022Y-107977900D01*
X131241699Y-107974224D01*
X131204376Y-107977900D01*
X131204367Y-107977900D01*
X131092714Y-107988897D01*
X130949453Y-108032354D01*
X130817424Y-108102926D01*
X130817422Y-108102927D01*
X130817423Y-108102927D01*
X130730696Y-108174101D01*
X130730692Y-108174105D01*
X130701699Y-108197899D01*
X130677905Y-108226892D01*
X128444099Y-110460700D01*
X128442978Y-110460700D01*
X128489000Y-110229335D01*
X128489000Y-109946665D01*
X128433853Y-109669426D01*
X128339567Y-109441800D01*
X128568278Y-109441800D01*
X128605600Y-109445476D01*
X128642922Y-109441800D01*
X128642933Y-109441800D01*
X128754586Y-109430803D01*
X128897847Y-109387346D01*
X129029876Y-109316774D01*
X129145601Y-109221801D01*
X129169404Y-109192797D01*
X131181502Y-107180700D01*
X133283948Y-107180700D01*
X133239000Y-107406665D01*
G37*
%TD.AperFunction*%
D20*
X148377147Y-104645426D02*
X148322000Y-104922665D01*
X148322000Y-105205335D01*
X148377147Y-105482574D01*
X148485320Y-105743727D01*
X148642363Y-105978759D01*
X148842241Y-106178637D01*
X149074759Y-106334000D01*
X148842241Y-106489363D01*
X148642363Y-106689241D01*
X148485320Y-106924273D01*
X148377147Y-107185426D01*
X148322000Y-107462665D01*
X148322000Y-107745335D01*
X148377147Y-108022574D01*
X148485320Y-108283727D01*
X148642363Y-108518759D01*
X148842241Y-108718637D01*
X149018167Y-108836187D01*
X149007997Y-108869714D01*
X149002842Y-108922053D01*
X148842241Y-109029363D01*
X148642363Y-109229241D01*
X148485320Y-109464273D01*
X148377147Y-109725426D01*
X148322000Y-110002665D01*
X148322000Y-110169498D01*
X144062204Y-105909703D01*
X144038401Y-105880699D01*
X143922676Y-105785726D01*
X143790647Y-105715154D01*
X143647386Y-105671697D01*
X143535733Y-105660700D01*
X143535722Y-105660700D01*
X143498400Y-105657024D01*
X143461078Y-105660700D01*
X143443071Y-105660700D01*
X143516853Y-105482574D01*
X143572000Y-105205335D01*
X143572000Y-104922665D01*
X143516853Y-104645426D01*
X143446136Y-104474700D01*
X148447864Y-104474700D01*
X148377147Y-104645426D01*
%TA.AperFunction,NonConductor*%
D21*
G36*
X148377147Y-104645426D02*
G01*
X148322000Y-104922665D01*
X148322000Y-105205335D01*
X148377147Y-105482574D01*
X148485320Y-105743727D01*
X148642363Y-105978759D01*
X148842241Y-106178637D01*
X149074759Y-106334000D01*
X148842241Y-106489363D01*
X148642363Y-106689241D01*
X148485320Y-106924273D01*
X148377147Y-107185426D01*
X148322000Y-107462665D01*
X148322000Y-107745335D01*
X148377147Y-108022574D01*
X148485320Y-108283727D01*
X148642363Y-108518759D01*
X148842241Y-108718637D01*
X149018167Y-108836187D01*
X149007997Y-108869714D01*
X149002842Y-108922053D01*
X148842241Y-109029363D01*
X148642363Y-109229241D01*
X148485320Y-109464273D01*
X148377147Y-109725426D01*
X148322000Y-110002665D01*
X148322000Y-110169498D01*
X144062204Y-105909703D01*
X144038401Y-105880699D01*
X143922676Y-105785726D01*
X143790647Y-105715154D01*
X143647386Y-105671697D01*
X143535733Y-105660700D01*
X143535722Y-105660700D01*
X143498400Y-105657024D01*
X143461078Y-105660700D01*
X143443071Y-105660700D01*
X143516853Y-105482574D01*
X143572000Y-105205335D01*
X143572000Y-104922665D01*
X143516853Y-104645426D01*
X143446136Y-104474700D01*
X148447864Y-104474700D01*
X148377147Y-104645426D01*
G37*
%TD.AperFunction*%
D20*
X156089928Y-108977333D02*
X156102188Y-109101815D01*
X156138498Y-109221513D01*
X156197463Y-109331827D01*
X156276815Y-109428518D01*
X156289587Y-109439000D01*
X156276815Y-109449482D01*
X156197463Y-109546173D01*
X156138498Y-109656487D01*
X156102188Y-109776185D01*
X156089928Y-109900667D01*
X156089928Y-110064000D01*
X154719022Y-110064000D01*
X154681699Y-110060324D01*
X154644376Y-110064000D01*
X154644367Y-110064000D01*
X154569753Y-110071349D01*
X155827102Y-108814000D01*
X156089928Y-108814000D01*
X156089928Y-108977333D01*
%TA.AperFunction,NonConductor*%
D21*
G36*
X156089928Y-108977333D02*
G01*
X156102188Y-109101815D01*
X156138498Y-109221513D01*
X156197463Y-109331827D01*
X156276815Y-109428518D01*
X156289587Y-109439000D01*
X156276815Y-109449482D01*
X156197463Y-109546173D01*
X156138498Y-109656487D01*
X156102188Y-109776185D01*
X156089928Y-109900667D01*
X156089928Y-110064000D01*
X154719022Y-110064000D01*
X154681699Y-110060324D01*
X154644376Y-110064000D01*
X154644367Y-110064000D01*
X154569753Y-110071349D01*
X155827102Y-108814000D01*
X156089928Y-108814000D01*
X156089928Y-108977333D01*
G37*
%TD.AperFunction*%
D20*
X154184374Y-105924398D02*
X154262395Y-106112756D01*
X154280919Y-106140479D01*
X151000019Y-109421379D01*
X150871637Y-109229241D01*
X150863999Y-109221603D01*
X154180530Y-105905072D01*
X154184374Y-105924398D01*
%TA.AperFunction,NonConductor*%
D21*
G36*
X154184374Y-105924398D02*
G01*
X154262395Y-106112756D01*
X154280919Y-106140479D01*
X151000019Y-109421379D01*
X150871637Y-109229241D01*
X150863999Y-109221603D01*
X154180530Y-105905072D01*
X154184374Y-105924398D01*
G37*
%TD.AperFunction*%
D20*
X143980799Y-107977900D02*
X143525739Y-107977900D01*
X143572000Y-107745335D01*
X143572000Y-107569101D01*
X143980799Y-107977900D01*
%TA.AperFunction,NonConductor*%
D21*
G36*
X143980799Y-107977900D02*
G01*
X143525739Y-107977900D01*
X143572000Y-107745335D01*
X143572000Y-107569101D01*
X143980799Y-107977900D01*
G37*
%TD.AperFunction*%
D20*
X140757147Y-107185426D02*
X140702000Y-107462665D01*
X140702000Y-107745335D01*
X140748261Y-107977900D01*
X136049162Y-107977900D01*
X136053853Y-107966574D01*
X136109000Y-107689335D01*
X136109000Y-107406665D01*
X136064052Y-107180700D01*
X140759105Y-107180700D01*
X140757147Y-107185426D01*
%TA.AperFunction,NonConductor*%
D21*
G36*
X140757147Y-107185426D02*
G01*
X140702000Y-107462665D01*
X140702000Y-107745335D01*
X140748261Y-107977900D01*
X136049162Y-107977900D01*
X136053853Y-107966574D01*
X136109000Y-107689335D01*
X136109000Y-107406665D01*
X136064052Y-107180700D01*
X140759105Y-107180700D01*
X140757147Y-107185426D01*
G37*
%TD.AperFunction*%
D20*
X130059626Y-104518637D02*
X130229144Y-104631905D01*
X130417502Y-104709926D01*
X130617461Y-104749700D01*
X130821339Y-104749700D01*
X131021298Y-104709926D01*
X131209656Y-104631905D01*
X131379174Y-104518637D01*
X131423111Y-104474700D01*
X133341668Y-104474700D01*
X133294147Y-104589426D01*
X133239000Y-104866665D01*
X133239000Y-105149335D01*
X133294147Y-105426574D01*
X133391125Y-105660700D01*
X130904022Y-105660700D01*
X130866699Y-105657024D01*
X130829376Y-105660700D01*
X130829367Y-105660700D01*
X130717714Y-105671697D01*
X130574453Y-105715154D01*
X130442424Y-105785726D01*
X130326699Y-105880699D01*
X130302901Y-105909697D01*
X128480492Y-107732107D01*
X128489000Y-107689335D01*
X128489000Y-107406665D01*
X128433853Y-107129426D01*
X128325680Y-106868273D01*
X128181063Y-106651838D01*
X129063504Y-105769398D01*
X129092501Y-105745601D01*
X129187474Y-105629876D01*
X129258046Y-105497847D01*
X129301503Y-105354586D01*
X129312500Y-105242933D01*
X129312500Y-105242924D01*
X129316176Y-105205601D01*
X129312500Y-105168278D01*
X129312500Y-105122801D01*
X129988145Y-104447156D01*
X130059626Y-104518637D01*
%TA.AperFunction,NonConductor*%
D21*
G36*
X130059626Y-104518637D02*
G01*
X130229144Y-104631905D01*
X130417502Y-104709926D01*
X130617461Y-104749700D01*
X130821339Y-104749700D01*
X131021298Y-104709926D01*
X131209656Y-104631905D01*
X131379174Y-104518637D01*
X131423111Y-104474700D01*
X133341668Y-104474700D01*
X133294147Y-104589426D01*
X133239000Y-104866665D01*
X133239000Y-105149335D01*
X133294147Y-105426574D01*
X133391125Y-105660700D01*
X130904022Y-105660700D01*
X130866699Y-105657024D01*
X130829376Y-105660700D01*
X130829367Y-105660700D01*
X130717714Y-105671697D01*
X130574453Y-105715154D01*
X130442424Y-105785726D01*
X130326699Y-105880699D01*
X130302901Y-105909697D01*
X128480492Y-107732107D01*
X128489000Y-107689335D01*
X128489000Y-107406665D01*
X128433853Y-107129426D01*
X128325680Y-106868273D01*
X128181063Y-106651838D01*
X129063504Y-105769398D01*
X129092501Y-105745601D01*
X129187474Y-105629876D01*
X129258046Y-105497847D01*
X129301503Y-105354586D01*
X129312500Y-105242933D01*
X129312500Y-105242924D01*
X129316176Y-105205601D01*
X129312500Y-105168278D01*
X129312500Y-105122801D01*
X129988145Y-104447156D01*
X130059626Y-104518637D01*
G37*
%TD.AperFunction*%
D20*
X125782320Y-98067727D02*
X125939363Y-98302759D01*
X126139241Y-98502637D01*
X126371759Y-98658000D01*
X126139241Y-98813363D01*
X125939363Y-99013241D01*
X125782320Y-99248273D01*
X125674147Y-99509426D01*
X125619000Y-99786665D01*
X125619000Y-100069335D01*
X125674147Y-100346574D01*
X125782320Y-100607727D01*
X125939363Y-100842759D01*
X126139241Y-101042637D01*
X126371759Y-101198000D01*
X126139241Y-101353363D01*
X125939363Y-101553241D01*
X125782320Y-101788273D01*
X125674147Y-102049426D01*
X125619000Y-102326665D01*
X125619000Y-102609335D01*
X125674147Y-102886574D01*
X125782320Y-103147727D01*
X125939363Y-103382759D01*
X126139241Y-103582637D01*
X126315167Y-103700187D01*
X126304997Y-103733714D01*
X126299842Y-103786053D01*
X126139241Y-103893363D01*
X125939363Y-104093241D01*
X125782320Y-104328273D01*
X125674147Y-104589426D01*
X125619000Y-104866665D01*
X125619000Y-105149335D01*
X125674147Y-105426574D01*
X125782320Y-105687727D01*
X125939363Y-105922759D01*
X126139241Y-106122637D01*
X126315167Y-106240187D01*
X126304997Y-106273714D01*
X126299842Y-106326053D01*
X126139241Y-106433363D01*
X125939363Y-106633241D01*
X125782320Y-106868273D01*
X125674147Y-107129426D01*
X125624835Y-107377333D01*
X122527504Y-104280003D01*
X122503701Y-104250999D01*
X122387976Y-104156026D01*
X122255947Y-104085454D01*
X122112686Y-104041997D01*
X122001033Y-104031000D01*
X122001022Y-104031000D01*
X121963700Y-104027324D01*
X121926378Y-104031000D01*
X120822072Y-104031000D01*
X120822072Y-103867667D01*
X120809812Y-103743185D01*
X120773502Y-103623487D01*
X120714537Y-103513173D01*
X120635185Y-103416482D01*
X120622413Y-103406000D01*
X120635185Y-103395518D01*
X120714537Y-103298827D01*
X120773502Y-103188513D01*
X120809812Y-103068815D01*
X120822072Y-102944333D01*
X120822072Y-102715575D01*
X120933576Y-102655974D01*
X121049301Y-102561001D01*
X121073104Y-102531997D01*
X125710577Y-97894524D01*
X125782320Y-98067727D01*
%TA.AperFunction,NonConductor*%
D21*
G36*
X125782320Y-98067727D02*
G01*
X125939363Y-98302759D01*
X126139241Y-98502637D01*
X126371759Y-98658000D01*
X126139241Y-98813363D01*
X125939363Y-99013241D01*
X125782320Y-99248273D01*
X125674147Y-99509426D01*
X125619000Y-99786665D01*
X125619000Y-100069335D01*
X125674147Y-100346574D01*
X125782320Y-100607727D01*
X125939363Y-100842759D01*
X126139241Y-101042637D01*
X126371759Y-101198000D01*
X126139241Y-101353363D01*
X125939363Y-101553241D01*
X125782320Y-101788273D01*
X125674147Y-102049426D01*
X125619000Y-102326665D01*
X125619000Y-102609335D01*
X125674147Y-102886574D01*
X125782320Y-103147727D01*
X125939363Y-103382759D01*
X126139241Y-103582637D01*
X126315167Y-103700187D01*
X126304997Y-103733714D01*
X126299842Y-103786053D01*
X126139241Y-103893363D01*
X125939363Y-104093241D01*
X125782320Y-104328273D01*
X125674147Y-104589426D01*
X125619000Y-104866665D01*
X125619000Y-105149335D01*
X125674147Y-105426574D01*
X125782320Y-105687727D01*
X125939363Y-105922759D01*
X126139241Y-106122637D01*
X126315167Y-106240187D01*
X126304997Y-106273714D01*
X126299842Y-106326053D01*
X126139241Y-106433363D01*
X125939363Y-106633241D01*
X125782320Y-106868273D01*
X125674147Y-107129426D01*
X125624835Y-107377333D01*
X122527504Y-104280003D01*
X122503701Y-104250999D01*
X122387976Y-104156026D01*
X122255947Y-104085454D01*
X122112686Y-104041997D01*
X122001033Y-104031000D01*
X122001022Y-104031000D01*
X121963700Y-104027324D01*
X121926378Y-104031000D01*
X120822072Y-104031000D01*
X120822072Y-103867667D01*
X120809812Y-103743185D01*
X120773502Y-103623487D01*
X120714537Y-103513173D01*
X120635185Y-103416482D01*
X120622413Y-103406000D01*
X120635185Y-103395518D01*
X120714537Y-103298827D01*
X120773502Y-103188513D01*
X120809812Y-103068815D01*
X120822072Y-102944333D01*
X120822072Y-102715575D01*
X120933576Y-102655974D01*
X121049301Y-102561001D01*
X121073104Y-102531997D01*
X125710577Y-97894524D01*
X125782320Y-98067727D01*
G37*
%TD.AperFunction*%
D20*
X156138498Y-106451513D02*
X156197463Y-106561827D01*
X156276815Y-106658518D01*
X156289587Y-106669000D01*
X156276815Y-106679482D01*
X156197463Y-106776173D01*
X156138498Y-106886487D01*
X156102188Y-107006185D01*
X156089928Y-107130667D01*
X156089928Y-107294000D01*
X155549625Y-107294000D01*
X155512300Y-107290324D01*
X155474975Y-107294000D01*
X155474967Y-107294000D01*
X155363314Y-107304997D01*
X155223634Y-107347368D01*
X155690604Y-106880398D01*
X155719601Y-106856601D01*
X155765232Y-106801000D01*
X155814574Y-106740877D01*
X155885146Y-106608847D01*
X155899409Y-106561827D01*
X155928603Y-106465586D01*
X155936786Y-106382500D01*
X156026878Y-106382500D01*
X156064200Y-106386176D01*
X156101522Y-106382500D01*
X156101533Y-106382500D01*
X156117098Y-106380967D01*
X156138498Y-106451513D01*
%TA.AperFunction,NonConductor*%
D21*
G36*
X156138498Y-106451513D02*
G01*
X156197463Y-106561827D01*
X156276815Y-106658518D01*
X156289587Y-106669000D01*
X156276815Y-106679482D01*
X156197463Y-106776173D01*
X156138498Y-106886487D01*
X156102188Y-107006185D01*
X156089928Y-107130667D01*
X156089928Y-107294000D01*
X155549625Y-107294000D01*
X155512300Y-107290324D01*
X155474975Y-107294000D01*
X155474967Y-107294000D01*
X155363314Y-107304997D01*
X155223634Y-107347368D01*
X155690604Y-106880398D01*
X155719601Y-106856601D01*
X155765232Y-106801000D01*
X155814574Y-106740877D01*
X155885146Y-106608847D01*
X155899409Y-106561827D01*
X155928603Y-106465586D01*
X155936786Y-106382500D01*
X156026878Y-106382500D01*
X156064200Y-106386176D01*
X156101522Y-106382500D01*
X156101533Y-106382500D01*
X156117098Y-106380967D01*
X156138498Y-106451513D01*
G37*
%TD.AperFunction*%
D20*
X156276815Y-101118518D02*
X156289587Y-101129000D01*
X156276815Y-101139482D01*
X156197463Y-101236173D01*
X156138498Y-101346487D01*
X156102188Y-101466185D01*
X156089928Y-101590667D01*
X156089928Y-101819425D01*
X155978424Y-101879026D01*
X155862699Y-101973999D01*
X155767726Y-102089724D01*
X155697154Y-102221753D01*
X155689713Y-102246284D01*
X151021889Y-106914110D01*
X150871637Y-106689241D01*
X150671759Y-106489363D01*
X150439241Y-106334000D01*
X150671759Y-106178637D01*
X150871637Y-105978759D01*
X151028680Y-105743727D01*
X151136853Y-105482574D01*
X151192000Y-105205335D01*
X151192000Y-104922665D01*
X151136853Y-104645426D01*
X151066136Y-104474700D01*
X152394678Y-104474700D01*
X152432000Y-104478376D01*
X152469322Y-104474700D01*
X152469333Y-104474700D01*
X152580986Y-104463703D01*
X152724247Y-104420246D01*
X152856276Y-104349674D01*
X152972001Y-104254701D01*
X152995804Y-104225697D01*
X156198460Y-101023042D01*
X156276815Y-101118518D01*
%TA.AperFunction,NonConductor*%
D21*
G36*
X156276815Y-101118518D02*
G01*
X156289587Y-101129000D01*
X156276815Y-101139482D01*
X156197463Y-101236173D01*
X156138498Y-101346487D01*
X156102188Y-101466185D01*
X156089928Y-101590667D01*
X156089928Y-101819425D01*
X155978424Y-101879026D01*
X155862699Y-101973999D01*
X155767726Y-102089724D01*
X155697154Y-102221753D01*
X155689713Y-102246284D01*
X151021889Y-106914110D01*
X150871637Y-106689241D01*
X150671759Y-106489363D01*
X150439241Y-106334000D01*
X150671759Y-106178637D01*
X150871637Y-105978759D01*
X151028680Y-105743727D01*
X151136853Y-105482574D01*
X151192000Y-105205335D01*
X151192000Y-104922665D01*
X151136853Y-104645426D01*
X151066136Y-104474700D01*
X152394678Y-104474700D01*
X152432000Y-104478376D01*
X152469322Y-104474700D01*
X152469333Y-104474700D01*
X152580986Y-104463703D01*
X152724247Y-104420246D01*
X152856276Y-104349674D01*
X152972001Y-104254701D01*
X152995804Y-104225697D01*
X156198460Y-101023042D01*
X156276815Y-101118518D01*
G37*
%TD.AperFunction*%
D20*
X140757147Y-104645426D02*
X140702000Y-104922665D01*
X140702000Y-105205335D01*
X140757147Y-105482574D01*
X140830929Y-105660700D01*
X135956875Y-105660700D01*
X136053853Y-105426574D01*
X136109000Y-105149335D01*
X136109000Y-104866665D01*
X136053853Y-104589426D01*
X136006332Y-104474700D01*
X140827864Y-104474700D01*
X140757147Y-104645426D01*
%TA.AperFunction,NonConductor*%
D21*
G36*
X140757147Y-104645426D02*
G01*
X140702000Y-104922665D01*
X140702000Y-105205335D01*
X140757147Y-105482574D01*
X140830929Y-105660700D01*
X135956875Y-105660700D01*
X136053853Y-105426574D01*
X136109000Y-105149335D01*
X136109000Y-104866665D01*
X136053853Y-104589426D01*
X136006332Y-104474700D01*
X140827864Y-104474700D01*
X140757147Y-104645426D01*
G37*
%TD.AperFunction*%
D20*
X156276815Y-103888518D02*
X156289587Y-103899000D01*
X156276815Y-103909482D01*
X156197463Y-104006173D01*
X156138498Y-104116487D01*
X156102188Y-104236185D01*
X156089928Y-104360667D01*
X156089928Y-104589425D01*
X155978424Y-104649026D01*
X155862699Y-104743999D01*
X155838896Y-104773003D01*
X155811776Y-104800123D01*
X155669856Y-104705295D01*
X155481498Y-104627274D01*
X155462173Y-104623430D01*
X156240876Y-103844726D01*
X156276815Y-103888518D01*
%TA.AperFunction,NonConductor*%
D21*
G36*
X156276815Y-103888518D02*
G01*
X156289587Y-103899000D01*
X156276815Y-103909482D01*
X156197463Y-104006173D01*
X156138498Y-104116487D01*
X156102188Y-104236185D01*
X156089928Y-104360667D01*
X156089928Y-104589425D01*
X155978424Y-104649026D01*
X155862699Y-104743999D01*
X155838896Y-104773003D01*
X155811776Y-104800123D01*
X155669856Y-104705295D01*
X155481498Y-104627274D01*
X155462173Y-104623430D01*
X156240876Y-103844726D01*
X156276815Y-103888518D01*
G37*
%TD.AperFunction*%
D20*
X140757147Y-102105426D02*
X140702000Y-102382665D01*
X140702000Y-102665335D01*
X140757147Y-102942574D01*
X140762170Y-102954700D01*
X136025634Y-102954700D01*
X136053853Y-102886574D01*
X136109000Y-102609335D01*
X136109000Y-102326665D01*
X136053853Y-102049426D01*
X135979284Y-101869400D01*
X140854912Y-101869400D01*
X140757147Y-102105426D01*
%TA.AperFunction,NonConductor*%
D21*
G36*
X140757147Y-102105426D02*
G01*
X140702000Y-102382665D01*
X140702000Y-102665335D01*
X140757147Y-102942574D01*
X140762170Y-102954700D01*
X136025634Y-102954700D01*
X136053853Y-102886574D01*
X136109000Y-102609335D01*
X136109000Y-102326665D01*
X136053853Y-102049426D01*
X135979284Y-101869400D01*
X140854912Y-101869400D01*
X140757147Y-102105426D01*
G37*
%TD.AperFunction*%
D20*
X156089928Y-99049425D02*
X155978424Y-99109026D01*
X155862699Y-99203999D01*
X155838901Y-99232997D01*
X152117199Y-102954700D01*
X151131830Y-102954700D01*
X151136853Y-102942574D01*
X151192000Y-102665335D01*
X151192000Y-102382665D01*
X151136853Y-102105426D01*
X151039088Y-101869400D01*
X152811778Y-101869400D01*
X152849100Y-101873076D01*
X152886422Y-101869400D01*
X152886433Y-101869400D01*
X152998086Y-101858403D01*
X153141347Y-101814946D01*
X153273376Y-101744374D01*
X153389101Y-101649401D01*
X153412904Y-101620397D01*
X156089928Y-98943374D01*
X156089928Y-99049425D01*
%TA.AperFunction,NonConductor*%
D21*
G36*
X156089928Y-99049425D02*
G01*
X155978424Y-99109026D01*
X155862699Y-99203999D01*
X155838901Y-99232997D01*
X152117199Y-102954700D01*
X151131830Y-102954700D01*
X151136853Y-102942574D01*
X151192000Y-102665335D01*
X151192000Y-102382665D01*
X151136853Y-102105426D01*
X151039088Y-101869400D01*
X152811778Y-101869400D01*
X152849100Y-101873076D01*
X152886422Y-101869400D01*
X152886433Y-101869400D01*
X152998086Y-101858403D01*
X153141347Y-101814946D01*
X153273376Y-101744374D01*
X153389101Y-101649401D01*
X153412904Y-101620397D01*
X156089928Y-98943374D01*
X156089928Y-99049425D01*
G37*
%TD.AperFunction*%
D20*
X133294147Y-102049426D02*
X133239000Y-102326665D01*
X133239000Y-102609335D01*
X133294147Y-102886574D01*
X133322366Y-102954700D01*
X131480602Y-102954700D01*
X132565902Y-101869400D01*
X133368716Y-101869400D01*
X133294147Y-102049426D01*
%TA.AperFunction,NonConductor*%
D21*
G36*
X133294147Y-102049426D02*
G01*
X133239000Y-102326665D01*
X133239000Y-102609335D01*
X133294147Y-102886574D01*
X133322366Y-102954700D01*
X131480602Y-102954700D01*
X132565902Y-101869400D01*
X133368716Y-101869400D01*
X133294147Y-102049426D01*
G37*
%TD.AperFunction*%
D20*
X148377147Y-102105426D02*
X148322000Y-102382665D01*
X148322000Y-102665335D01*
X148377147Y-102942574D01*
X148382170Y-102954700D01*
X143511830Y-102954700D01*
X143516853Y-102942574D01*
X143572000Y-102665335D01*
X143572000Y-102382665D01*
X143516853Y-102105426D01*
X143419088Y-101869400D01*
X148474912Y-101869400D01*
X148377147Y-102105426D01*
%TA.AperFunction,NonConductor*%
D21*
G36*
X148377147Y-102105426D02*
G01*
X148322000Y-102382665D01*
X148322000Y-102665335D01*
X148377147Y-102942574D01*
X148382170Y-102954700D01*
X143511830Y-102954700D01*
X143516853Y-102942574D01*
X143572000Y-102665335D01*
X143572000Y-102382665D01*
X143516853Y-102105426D01*
X143419088Y-101869400D01*
X148474912Y-101869400D01*
X148377147Y-102105426D01*
G37*
%TD.AperFunction*%
D20*
X135962747Y-96153000D02*
X135408623Y-96153000D01*
X135353727Y-96116320D01*
X135092574Y-96008147D01*
X134815335Y-95953000D01*
X134532665Y-95953000D01*
X134255426Y-96008147D01*
X133994273Y-96116320D01*
X133759241Y-96273363D01*
X133603194Y-96429410D01*
X133499756Y-96360295D01*
X133311398Y-96282274D01*
X133111439Y-96242500D01*
X132907561Y-96242500D01*
X132707602Y-96282274D01*
X132519244Y-96360295D01*
X132349726Y-96473563D01*
X132205563Y-96617726D01*
X132092295Y-96787244D01*
X132014274Y-96975602D01*
X131974500Y-97175561D01*
X131974500Y-97379439D01*
X132014274Y-97579398D01*
X132092295Y-97767756D01*
X132205563Y-97937274D01*
X132205744Y-97937455D01*
X128334246Y-101808953D01*
X128325680Y-101788273D01*
X128168637Y-101553241D01*
X127968759Y-101353363D01*
X127736241Y-101198000D01*
X127968759Y-101042637D01*
X128168637Y-100842759D01*
X128325680Y-100607727D01*
X128433853Y-100346574D01*
X128489000Y-100069335D01*
X128489000Y-99786665D01*
X128433853Y-99509426D01*
X128325680Y-99248273D01*
X128168637Y-99013241D01*
X127968759Y-98813363D01*
X127736241Y-98658000D01*
X127968759Y-98502637D01*
X128168637Y-98302759D01*
X128325680Y-98067727D01*
X128433853Y-97806574D01*
X128489000Y-97529335D01*
X128489000Y-97246665D01*
X128433853Y-96969426D01*
X128325680Y-96708273D01*
X128168637Y-96473241D01*
X127968759Y-96273363D01*
X127733727Y-96116320D01*
X127560525Y-96044577D01*
X128336902Y-95268200D01*
X136847546Y-95268200D01*
X135962747Y-96153000D01*
%TA.AperFunction,NonConductor*%
D21*
G36*
X135962747Y-96153000D02*
G01*
X135408623Y-96153000D01*
X135353727Y-96116320D01*
X135092574Y-96008147D01*
X134815335Y-95953000D01*
X134532665Y-95953000D01*
X134255426Y-96008147D01*
X133994273Y-96116320D01*
X133759241Y-96273363D01*
X133603194Y-96429410D01*
X133499756Y-96360295D01*
X133311398Y-96282274D01*
X133111439Y-96242500D01*
X132907561Y-96242500D01*
X132707602Y-96282274D01*
X132519244Y-96360295D01*
X132349726Y-96473563D01*
X132205563Y-96617726D01*
X132092295Y-96787244D01*
X132014274Y-96975602D01*
X131974500Y-97175561D01*
X131974500Y-97379439D01*
X132014274Y-97579398D01*
X132092295Y-97767756D01*
X132205563Y-97937274D01*
X132205744Y-97937455D01*
X128334246Y-101808953D01*
X128325680Y-101788273D01*
X128168637Y-101553241D01*
X127968759Y-101353363D01*
X127736241Y-101198000D01*
X127968759Y-101042637D01*
X128168637Y-100842759D01*
X128325680Y-100607727D01*
X128433853Y-100346574D01*
X128489000Y-100069335D01*
X128489000Y-99786665D01*
X128433853Y-99509426D01*
X128325680Y-99248273D01*
X128168637Y-99013241D01*
X127968759Y-98813363D01*
X127736241Y-98658000D01*
X127968759Y-98502637D01*
X128168637Y-98302759D01*
X128325680Y-98067727D01*
X128433853Y-97806574D01*
X128489000Y-97529335D01*
X128489000Y-97246665D01*
X128433853Y-96969426D01*
X128325680Y-96708273D01*
X128168637Y-96473241D01*
X127968759Y-96273363D01*
X127733727Y-96116320D01*
X127560525Y-96044577D01*
X128336902Y-95268200D01*
X136847546Y-95268200D01*
X135962747Y-96153000D01*
G37*
%TD.AperFunction*%
D20*
X133759241Y-98502637D02*
X133991759Y-98658000D01*
X133759241Y-98813363D01*
X133559363Y-99013241D01*
X133402320Y-99248273D01*
X133294147Y-99509426D01*
X133239000Y-99786665D01*
X133239000Y-100069335D01*
X133294147Y-100346574D01*
X133295318Y-100349400D01*
X132288422Y-100349400D01*
X132251099Y-100345724D01*
X132213776Y-100349400D01*
X132213767Y-100349400D01*
X132102114Y-100360397D01*
X131958853Y-100403854D01*
X131826824Y-100474426D01*
X131779711Y-100513090D01*
X133520504Y-98772298D01*
X133549501Y-98748501D01*
X133644474Y-98632776D01*
X133715046Y-98500747D01*
X133724892Y-98468288D01*
X133759241Y-98502637D01*
%TA.AperFunction,NonConductor*%
D21*
G36*
X133759241Y-98502637D02*
G01*
X133991759Y-98658000D01*
X133759241Y-98813363D01*
X133559363Y-99013241D01*
X133402320Y-99248273D01*
X133294147Y-99509426D01*
X133239000Y-99786665D01*
X133239000Y-100069335D01*
X133294147Y-100346574D01*
X133295318Y-100349400D01*
X132288422Y-100349400D01*
X132251099Y-100345724D01*
X132213776Y-100349400D01*
X132213767Y-100349400D01*
X132102114Y-100360397D01*
X131958853Y-100403854D01*
X131826824Y-100474426D01*
X131779711Y-100513090D01*
X133520504Y-98772298D01*
X133549501Y-98748501D01*
X133644474Y-98632776D01*
X133715046Y-98500747D01*
X133724892Y-98468288D01*
X133759241Y-98502637D01*
G37*
%TD.AperFunction*%
D20*
X140757147Y-97025426D02*
X140702000Y-97302665D01*
X140702000Y-97585335D01*
X140757147Y-97862574D01*
X140865320Y-98123727D01*
X141022363Y-98358759D01*
X141222241Y-98558637D01*
X141454759Y-98714000D01*
X141222241Y-98869363D01*
X141022363Y-99069241D01*
X140865320Y-99304273D01*
X140757147Y-99565426D01*
X140702000Y-99842665D01*
X140702000Y-100125335D01*
X140746570Y-100349400D01*
X136052682Y-100349400D01*
X136053853Y-100346574D01*
X136109000Y-100069335D01*
X136109000Y-99786665D01*
X136053853Y-99509426D01*
X135945680Y-99248273D01*
X135788637Y-99013241D01*
X135588759Y-98813363D01*
X135356241Y-98658000D01*
X135408623Y-98623000D01*
X136413635Y-98623000D01*
X136474300Y-98628975D01*
X136534965Y-98623000D01*
X136716402Y-98605130D01*
X136949201Y-98534511D01*
X137163749Y-98419833D01*
X137351802Y-98265502D01*
X137390478Y-98218375D01*
X138740354Y-96868500D01*
X140822148Y-96868500D01*
X140757147Y-97025426D01*
%TA.AperFunction,NonConductor*%
D21*
G36*
X140757147Y-97025426D02*
G01*
X140702000Y-97302665D01*
X140702000Y-97585335D01*
X140757147Y-97862574D01*
X140865320Y-98123727D01*
X141022363Y-98358759D01*
X141222241Y-98558637D01*
X141454759Y-98714000D01*
X141222241Y-98869363D01*
X141022363Y-99069241D01*
X140865320Y-99304273D01*
X140757147Y-99565426D01*
X140702000Y-99842665D01*
X140702000Y-100125335D01*
X140746570Y-100349400D01*
X136052682Y-100349400D01*
X136053853Y-100346574D01*
X136109000Y-100069335D01*
X136109000Y-99786665D01*
X136053853Y-99509426D01*
X135945680Y-99248273D01*
X135788637Y-99013241D01*
X135588759Y-98813363D01*
X135356241Y-98658000D01*
X135408623Y-98623000D01*
X136413635Y-98623000D01*
X136474300Y-98628975D01*
X136534965Y-98623000D01*
X136716402Y-98605130D01*
X136949201Y-98534511D01*
X137163749Y-98419833D01*
X137351802Y-98265502D01*
X137390478Y-98218375D01*
X138740354Y-96868500D01*
X140822148Y-96868500D01*
X140757147Y-97025426D01*
G37*
%TD.AperFunction*%
D20*
X152517200Y-99334903D02*
X152517200Y-99482439D01*
X152556974Y-99682398D01*
X152634995Y-99870756D01*
X152748263Y-100040274D01*
X152795844Y-100087855D01*
X152534299Y-100349400D01*
X151147430Y-100349400D01*
X151192000Y-100125335D01*
X151192000Y-99842665D01*
X151136853Y-99565426D01*
X151028680Y-99304273D01*
X150871637Y-99069241D01*
X150671759Y-98869363D01*
X150439241Y-98714000D01*
X150671759Y-98558637D01*
X150871637Y-98358759D01*
X151028680Y-98123727D01*
X151109912Y-97927615D01*
X152517200Y-99334903D01*
%TA.AperFunction,NonConductor*%
D21*
G36*
X152517200Y-99334903D02*
G01*
X152517200Y-99482439D01*
X152556974Y-99682398D01*
X152634995Y-99870756D01*
X152748263Y-100040274D01*
X152795844Y-100087855D01*
X152534299Y-100349400D01*
X151147430Y-100349400D01*
X151192000Y-100125335D01*
X151192000Y-99842665D01*
X151136853Y-99565426D01*
X151028680Y-99304273D01*
X150871637Y-99069241D01*
X150671759Y-98869363D01*
X150439241Y-98714000D01*
X150671759Y-98558637D01*
X150871637Y-98358759D01*
X151028680Y-98123727D01*
X151109912Y-97927615D01*
X152517200Y-99334903D01*
G37*
%TD.AperFunction*%
D20*
X144529321Y-98274374D02*
X144567998Y-98321502D01*
X144756051Y-98475833D01*
X144970599Y-98590511D01*
X145109928Y-98632776D01*
X145203398Y-98661130D01*
X145445500Y-98684975D01*
X145506165Y-98679000D01*
X149022377Y-98679000D01*
X149074759Y-98714000D01*
X148842241Y-98869363D01*
X148642363Y-99069241D01*
X148485320Y-99304273D01*
X148377147Y-99565426D01*
X148322000Y-99842665D01*
X148322000Y-100125335D01*
X148366570Y-100349400D01*
X143527430Y-100349400D01*
X143572000Y-100125335D01*
X143572000Y-99842665D01*
X143516853Y-99565426D01*
X143408680Y-99304273D01*
X143251637Y-99069241D01*
X143051759Y-98869363D01*
X142819241Y-98714000D01*
X143051759Y-98558637D01*
X143251637Y-98358759D01*
X143408680Y-98123727D01*
X143516853Y-97862574D01*
X143572000Y-97585335D01*
X143572000Y-97317053D01*
X144529321Y-98274374D01*
%TA.AperFunction,NonConductor*%
D21*
G36*
X144529321Y-98274374D02*
G01*
X144567998Y-98321502D01*
X144756051Y-98475833D01*
X144970599Y-98590511D01*
X145109928Y-98632776D01*
X145203398Y-98661130D01*
X145445500Y-98684975D01*
X145506165Y-98679000D01*
X149022377Y-98679000D01*
X149074759Y-98714000D01*
X148842241Y-98869363D01*
X148642363Y-99069241D01*
X148485320Y-99304273D01*
X148377147Y-99565426D01*
X148322000Y-99842665D01*
X148322000Y-100125335D01*
X148366570Y-100349400D01*
X143527430Y-100349400D01*
X143572000Y-100125335D01*
X143572000Y-99842665D01*
X143516853Y-99565426D01*
X143408680Y-99304273D01*
X143251637Y-99069241D01*
X143051759Y-98869363D01*
X142819241Y-98714000D01*
X143051759Y-98558637D01*
X143251637Y-98358759D01*
X143408680Y-98123727D01*
X143516853Y-97862574D01*
X143572000Y-97585335D01*
X143572000Y-97317053D01*
X144529321Y-98274374D01*
G37*
%TD.AperFunction*%
D20*
X121209300Y-98002402D02*
X121209300Y-98064539D01*
X121249074Y-98264498D01*
X121327095Y-98452856D01*
X121440363Y-98622374D01*
X121584526Y-98766537D01*
X121627828Y-98795471D01*
X121028199Y-99395100D01*
X120966061Y-99395100D01*
X120822072Y-99423741D01*
X120822072Y-98327667D01*
X120809812Y-98203185D01*
X120773502Y-98083487D01*
X120714537Y-97973173D01*
X120635185Y-97876482D01*
X120622413Y-97866000D01*
X120635185Y-97855518D01*
X120714537Y-97758827D01*
X120773502Y-97648513D01*
X120792566Y-97585667D01*
X121209300Y-98002402D01*
%TA.AperFunction,NonConductor*%
D21*
G36*
X121209300Y-98002402D02*
G01*
X121209300Y-98064539D01*
X121249074Y-98264498D01*
X121327095Y-98452856D01*
X121440363Y-98622374D01*
X121584526Y-98766537D01*
X121627828Y-98795471D01*
X121028199Y-99395100D01*
X120966061Y-99395100D01*
X120822072Y-99423741D01*
X120822072Y-98327667D01*
X120809812Y-98203185D01*
X120773502Y-98083487D01*
X120714537Y-97973173D01*
X120635185Y-97876482D01*
X120622413Y-97866000D01*
X120635185Y-97855518D01*
X120714537Y-97758827D01*
X120773502Y-97648513D01*
X120792566Y-97585667D01*
X121209300Y-98002402D01*
G37*
%TD.AperFunction*%
D20*
X154175300Y-97114502D02*
X154175300Y-97176639D01*
X154215074Y-97376598D01*
X154293095Y-97564956D01*
X154406363Y-97734474D01*
X154550526Y-97878637D01*
X154720044Y-97991905D01*
X154841489Y-98042209D01*
X154259555Y-98624144D01*
X154211974Y-98576563D01*
X154042456Y-98463295D01*
X153854098Y-98385274D01*
X153683179Y-98351276D01*
X149828101Y-94496200D01*
X151556999Y-94496200D01*
X154175300Y-97114502D01*
%TA.AperFunction,NonConductor*%
D21*
G36*
X154175300Y-97114502D02*
G01*
X154175300Y-97176639D01*
X154215074Y-97376598D01*
X154293095Y-97564956D01*
X154406363Y-97734474D01*
X154550526Y-97878637D01*
X154720044Y-97991905D01*
X154841489Y-98042209D01*
X154259555Y-98624144D01*
X154211974Y-98576563D01*
X154042456Y-98463295D01*
X153854098Y-98385274D01*
X153683179Y-98351276D01*
X149828101Y-94496200D01*
X151556999Y-94496200D01*
X154175300Y-97114502D01*
G37*
%TD.AperFunction*%
D20*
X122244300Y-96887799D02*
X121361763Y-96005262D01*
X121483474Y-95923937D01*
X121627637Y-95779774D01*
X121740905Y-95610256D01*
X121818926Y-95421898D01*
X121858700Y-95221939D01*
X121858700Y-95159801D01*
X123154402Y-93864100D01*
X125267998Y-93864100D01*
X122244300Y-96887799D01*
%TA.AperFunction,NonConductor*%
D21*
G36*
X122244300Y-96887799D02*
G01*
X121361763Y-96005262D01*
X121483474Y-95923937D01*
X121627637Y-95779774D01*
X121740905Y-95610256D01*
X121818926Y-95421898D01*
X121858700Y-95221939D01*
X121858700Y-95159801D01*
X123154402Y-93864100D01*
X125267998Y-93864100D01*
X122244300Y-96887799D01*
G37*
%TD.AperFunction*%
D20*
X149273386Y-96091087D02*
X149077273Y-96172320D01*
X149022377Y-96209000D01*
X145957053Y-96209000D01*
X145499732Y-95751679D01*
X145553374Y-95715837D01*
X145697537Y-95571674D01*
X145810805Y-95402156D01*
X145888826Y-95213798D01*
X145928600Y-95013839D01*
X145928600Y-94946500D01*
X148128799Y-94946500D01*
X149273386Y-96091087D01*
%TA.AperFunction,NonConductor*%
D21*
G36*
X149273386Y-96091087D02*
G01*
X149077273Y-96172320D01*
X149022377Y-96209000D01*
X145957053Y-96209000D01*
X145499732Y-95751679D01*
X145553374Y-95715837D01*
X145697537Y-95571674D01*
X145810805Y-95402156D01*
X145888826Y-95213798D01*
X145928600Y-95013839D01*
X145928600Y-94946500D01*
X148128799Y-94946500D01*
X149273386Y-96091087D01*
G37*
%TD.AperFunction*%
D20*
X155838901Y-94715003D02*
X155862699Y-94744001D01*
X155978424Y-94838974D01*
X156089928Y-94898575D01*
X156089928Y-94973726D01*
X154711801Y-93595600D01*
X154719499Y-93595600D01*
X155838901Y-94715003D01*
%TA.AperFunction,NonConductor*%
D21*
G36*
X155838901Y-94715003D02*
G01*
X155862699Y-94744001D01*
X155978424Y-94838974D01*
X156089928Y-94898575D01*
X156089928Y-94973726D01*
X154711801Y-93595600D01*
X154719499Y-93595600D01*
X155838901Y-94715003D01*
G37*
%TD.AperFunction*%
D20*
X156197463Y-92711827D02*
X156276815Y-92808518D01*
X156289587Y-92819000D01*
X156276815Y-92829482D01*
X156198460Y-92924958D01*
X155942501Y-92669000D01*
X156174571Y-92669000D01*
X156197463Y-92711827D01*
%TA.AperFunction,NonConductor*%
D21*
G36*
X156197463Y-92711827D02*
G01*
X156276815Y-92808518D01*
X156289587Y-92819000D01*
X156276815Y-92829482D01*
X156198460Y-92924958D01*
X155942501Y-92669000D01*
X156174571Y-92669000D01*
X156197463Y-92711827D01*
G37*
%TD.AperFunction*%
D20*
X120713540Y-92431958D02*
X120635185Y-92336482D01*
X120622413Y-92326000D01*
X120635185Y-92315518D01*
X120714537Y-92218827D01*
X120737429Y-92176000D01*
X120969498Y-92176000D01*
X120713540Y-92431958D01*
%TA.AperFunction,NonConductor*%
D21*
G36*
X120713540Y-92431958D02*
G01*
X120635185Y-92336482D01*
X120622413Y-92326000D01*
X120635185Y-92315518D01*
X120714537Y-92218827D01*
X120737429Y-92176000D01*
X120969498Y-92176000D01*
X120713540Y-92431958D01*
G37*
%TD.AperFunction*%
D20*
X151758700Y-86384354D02*
X151758701Y-88639325D01*
X151752725Y-88700000D01*
X151776570Y-88942102D01*
X151847189Y-89174899D01*
X151847190Y-89174901D01*
X151961868Y-89389449D01*
X152116199Y-89577502D01*
X152163321Y-89616174D01*
X154622746Y-92075600D01*
X146810400Y-92075600D01*
X146810400Y-92008361D01*
X146770626Y-91808402D01*
X146692605Y-91620044D01*
X146579337Y-91450526D01*
X146435174Y-91306363D01*
X146265656Y-91193095D01*
X146077298Y-91115074D01*
X145877339Y-91075300D01*
X145815202Y-91075300D01*
X144429138Y-89689237D01*
X144573740Y-89718000D01*
X144866260Y-89718000D01*
X145153158Y-89660932D01*
X145423411Y-89548990D01*
X145666632Y-89386475D01*
X145873475Y-89179632D01*
X145990000Y-89005240D01*
X146106525Y-89179632D01*
X146313368Y-89386475D01*
X146556589Y-89548990D01*
X146826842Y-89660932D01*
X147113740Y-89718000D01*
X147406260Y-89718000D01*
X147693158Y-89660932D01*
X147963411Y-89548990D01*
X148206632Y-89386475D01*
X148413475Y-89179632D01*
X148530000Y-89005240D01*
X148646525Y-89179632D01*
X148853368Y-89386475D01*
X149096589Y-89548990D01*
X149366842Y-89660932D01*
X149653740Y-89718000D01*
X149946260Y-89718000D01*
X150233158Y-89660932D01*
X150503411Y-89548990D01*
X150746632Y-89386475D01*
X150953475Y-89179632D01*
X151115990Y-88936411D01*
X151227932Y-88666158D01*
X151285000Y-88379260D01*
X151285000Y-88086740D01*
X151227932Y-87799842D01*
X151115990Y-87529589D01*
X150953475Y-87286368D01*
X150766392Y-87099285D01*
X150893386Y-87031405D01*
X151027962Y-86920962D01*
X151138405Y-86786386D01*
X151220472Y-86632850D01*
X151271008Y-86466254D01*
X151288072Y-86293000D01*
X151288072Y-85913726D01*
X151758700Y-86384354D01*
%TA.AperFunction,NonConductor*%
D21*
G36*
X151758700Y-86384354D02*
G01*
X151758701Y-88639325D01*
X151752725Y-88700000D01*
X151776570Y-88942102D01*
X151847189Y-89174899D01*
X151847190Y-89174901D01*
X151961868Y-89389449D01*
X152116199Y-89577502D01*
X152163321Y-89616174D01*
X154622746Y-92075600D01*
X146810400Y-92075600D01*
X146810400Y-92008361D01*
X146770626Y-91808402D01*
X146692605Y-91620044D01*
X146579337Y-91450526D01*
X146435174Y-91306363D01*
X146265656Y-91193095D01*
X146077298Y-91115074D01*
X145877339Y-91075300D01*
X145815202Y-91075300D01*
X144429138Y-89689237D01*
X144573740Y-89718000D01*
X144866260Y-89718000D01*
X145153158Y-89660932D01*
X145423411Y-89548990D01*
X145666632Y-89386475D01*
X145873475Y-89179632D01*
X145990000Y-89005240D01*
X146106525Y-89179632D01*
X146313368Y-89386475D01*
X146556589Y-89548990D01*
X146826842Y-89660932D01*
X147113740Y-89718000D01*
X147406260Y-89718000D01*
X147693158Y-89660932D01*
X147963411Y-89548990D01*
X148206632Y-89386475D01*
X148413475Y-89179632D01*
X148530000Y-89005240D01*
X148646525Y-89179632D01*
X148853368Y-89386475D01*
X149096589Y-89548990D01*
X149366842Y-89660932D01*
X149653740Y-89718000D01*
X149946260Y-89718000D01*
X150233158Y-89660932D01*
X150503411Y-89548990D01*
X150746632Y-89386475D01*
X150953475Y-89179632D01*
X151115990Y-88936411D01*
X151227932Y-88666158D01*
X151285000Y-88379260D01*
X151285000Y-88086740D01*
X151227932Y-87799842D01*
X151115990Y-87529589D01*
X150953475Y-87286368D01*
X150766392Y-87099285D01*
X150893386Y-87031405D01*
X151027962Y-86920962D01*
X151138405Y-86786386D01*
X151220472Y-86632850D01*
X151271008Y-86466254D01*
X151288072Y-86293000D01*
X151288072Y-85913726D01*
X151758700Y-86384354D01*
G37*
%TD.AperFunction*%
D20*
X125624010Y-86396411D02*
X125786525Y-86639632D01*
X125993368Y-86846475D01*
X126167760Y-86963000D01*
X125993368Y-87079525D01*
X125786525Y-87286368D01*
X125624010Y-87529589D01*
X125512068Y-87799842D01*
X125455000Y-88086740D01*
X125455000Y-88379260D01*
X125512068Y-88666158D01*
X125624010Y-88936411D01*
X125786525Y-89179632D01*
X125993368Y-89386475D01*
X126236589Y-89548990D01*
X126506842Y-89660932D01*
X126793740Y-89718000D01*
X127086260Y-89718000D01*
X127306408Y-89674209D01*
X128851601Y-91219403D01*
X128875399Y-91248401D01*
X128991124Y-91343374D01*
X129123153Y-91413946D01*
X129266414Y-91457403D01*
X129378067Y-91468400D01*
X129378076Y-91468400D01*
X129415399Y-91472076D01*
X129452722Y-91468400D01*
X137142989Y-91468400D01*
X137186926Y-91512337D01*
X137356444Y-91625605D01*
X137544802Y-91703626D01*
X137744761Y-91743400D01*
X137948639Y-91743400D01*
X138148598Y-91703626D01*
X138336956Y-91625605D01*
X138506474Y-91512337D01*
X138650637Y-91368174D01*
X138763905Y-91198656D01*
X138841926Y-91010298D01*
X138881700Y-90810339D01*
X138881700Y-90606461D01*
X138841926Y-90406502D01*
X138812640Y-90335800D01*
X142926099Y-90335800D01*
X144484098Y-91893800D01*
X121970051Y-91893800D01*
X122061802Y-91818502D01*
X122100479Y-91771374D01*
X124255674Y-89616179D01*
X124302802Y-89577502D01*
X124457133Y-89389449D01*
X124571811Y-89174901D01*
X124642430Y-88942102D01*
X124660300Y-88760665D01*
X124666275Y-88700000D01*
X124660300Y-88639335D01*
X124660300Y-87055553D01*
X125534804Y-86181049D01*
X125624010Y-86396411D01*
%TA.AperFunction,NonConductor*%
D21*
G36*
X125624010Y-86396411D02*
G01*
X125786525Y-86639632D01*
X125993368Y-86846475D01*
X126167760Y-86963000D01*
X125993368Y-87079525D01*
X125786525Y-87286368D01*
X125624010Y-87529589D01*
X125512068Y-87799842D01*
X125455000Y-88086740D01*
X125455000Y-88379260D01*
X125512068Y-88666158D01*
X125624010Y-88936411D01*
X125786525Y-89179632D01*
X125993368Y-89386475D01*
X126236589Y-89548990D01*
X126506842Y-89660932D01*
X126793740Y-89718000D01*
X127086260Y-89718000D01*
X127306408Y-89674209D01*
X128851601Y-91219403D01*
X128875399Y-91248401D01*
X128991124Y-91343374D01*
X129123153Y-91413946D01*
X129266414Y-91457403D01*
X129378067Y-91468400D01*
X129378076Y-91468400D01*
X129415399Y-91472076D01*
X129452722Y-91468400D01*
X137142989Y-91468400D01*
X137186926Y-91512337D01*
X137356444Y-91625605D01*
X137544802Y-91703626D01*
X137744761Y-91743400D01*
X137948639Y-91743400D01*
X138148598Y-91703626D01*
X138336956Y-91625605D01*
X138506474Y-91512337D01*
X138650637Y-91368174D01*
X138763905Y-91198656D01*
X138841926Y-91010298D01*
X138881700Y-90810339D01*
X138881700Y-90606461D01*
X138841926Y-90406502D01*
X138812640Y-90335800D01*
X142926099Y-90335800D01*
X144484098Y-91893800D01*
X121970051Y-91893800D01*
X122061802Y-91818502D01*
X122100479Y-91771374D01*
X124255674Y-89616179D01*
X124302802Y-89577502D01*
X124457133Y-89389449D01*
X124571811Y-89174901D01*
X124642430Y-88942102D01*
X124660300Y-88760665D01*
X124666275Y-88700000D01*
X124660300Y-88639335D01*
X124660300Y-87055553D01*
X125534804Y-86181049D01*
X125624010Y-86396411D01*
G37*
%TD.AperFunction*%
D20*
X155307761Y-88160531D02*
X155304567Y-88192960D01*
X155317310Y-88322343D01*
X155355050Y-88446753D01*
X155416335Y-88561410D01*
X155498812Y-88661908D01*
X155599310Y-88744385D01*
X155713967Y-88805670D01*
X155838377Y-88843410D01*
X155935341Y-88852960D01*
X155967760Y-88856153D01*
X156000179Y-88852960D01*
X159807760Y-88852960D01*
X159807760Y-89872595D01*
X156728000Y-89872595D01*
X156603518Y-89884855D01*
X156483820Y-89921165D01*
X156373506Y-89980130D01*
X156276815Y-90059482D01*
X156197463Y-90156173D01*
X156197102Y-90156848D01*
X154228700Y-88188447D01*
X154228700Y-85933465D01*
X154234675Y-85872800D01*
X154210830Y-85630698D01*
X154187241Y-85552935D01*
X154140211Y-85397899D01*
X154025533Y-85183351D01*
X153871202Y-84995298D01*
X153824081Y-84956627D01*
X151867478Y-83000025D01*
X151828802Y-82952898D01*
X151640749Y-82798567D01*
X151426201Y-82683889D01*
X151193402Y-82613270D01*
X151011965Y-82595400D01*
X150951300Y-82589425D01*
X150890635Y-82595400D01*
X136403865Y-82595400D01*
X136343200Y-82589425D01*
X136282535Y-82595400D01*
X136101098Y-82613270D01*
X135868299Y-82683889D01*
X135653751Y-82798567D01*
X135465698Y-82952898D01*
X135427021Y-83000026D01*
X134170704Y-84256343D01*
X134126842Y-84265068D01*
X133856589Y-84377010D01*
X133735379Y-84458000D01*
X132844621Y-84458000D01*
X132723411Y-84377010D01*
X132453158Y-84265068D01*
X132409296Y-84256343D01*
X131163679Y-83010726D01*
X131125002Y-82963598D01*
X130936949Y-82809267D01*
X130722401Y-82694589D01*
X130489602Y-82623970D01*
X130308165Y-82606100D01*
X130247500Y-82600125D01*
X130186835Y-82606100D01*
X126188865Y-82606100D01*
X126128200Y-82600125D01*
X126067535Y-82606100D01*
X125886098Y-82623970D01*
X125653299Y-82694589D01*
X125438751Y-82809267D01*
X125250698Y-82963598D01*
X125212026Y-83010720D01*
X122594925Y-85627822D01*
X122547798Y-85666498D01*
X122393467Y-85854552D01*
X122278789Y-86069100D01*
X122272904Y-86088500D01*
X122208170Y-86301898D01*
X122184325Y-86544000D01*
X122190300Y-86604666D01*
X122190301Y-88188446D01*
X120714898Y-89663849D01*
X120714537Y-89663173D01*
X120635185Y-89566482D01*
X120538494Y-89487130D01*
X120428180Y-89428165D01*
X120308482Y-89391855D01*
X120184000Y-89379595D01*
X117127760Y-89379595D01*
X117127760Y-88852960D01*
X120935341Y-88852960D01*
X120967760Y-88856153D01*
X121000179Y-88852960D01*
X121097143Y-88843410D01*
X121221553Y-88805670D01*
X121336210Y-88744385D01*
X121436708Y-88661908D01*
X121519185Y-88561410D01*
X121580470Y-88446753D01*
X121618210Y-88322343D01*
X121630953Y-88192960D01*
X121627760Y-88160541D01*
X121627760Y-81352960D01*
X155307760Y-81352960D01*
X155307761Y-88160531D01*
%TA.AperFunction,NonConductor*%
D21*
G36*
X155307761Y-88160531D02*
G01*
X155304567Y-88192960D01*
X155317310Y-88322343D01*
X155355050Y-88446753D01*
X155416335Y-88561410D01*
X155498812Y-88661908D01*
X155599310Y-88744385D01*
X155713967Y-88805670D01*
X155838377Y-88843410D01*
X155935341Y-88852960D01*
X155967760Y-88856153D01*
X156000179Y-88852960D01*
X159807760Y-88852960D01*
X159807760Y-89872595D01*
X156728000Y-89872595D01*
X156603518Y-89884855D01*
X156483820Y-89921165D01*
X156373506Y-89980130D01*
X156276815Y-90059482D01*
X156197463Y-90156173D01*
X156197102Y-90156848D01*
X154228700Y-88188447D01*
X154228700Y-85933465D01*
X154234675Y-85872800D01*
X154210830Y-85630698D01*
X154187241Y-85552935D01*
X154140211Y-85397899D01*
X154025533Y-85183351D01*
X153871202Y-84995298D01*
X153824081Y-84956627D01*
X151867478Y-83000025D01*
X151828802Y-82952898D01*
X151640749Y-82798567D01*
X151426201Y-82683889D01*
X151193402Y-82613270D01*
X151011965Y-82595400D01*
X150951300Y-82589425D01*
X150890635Y-82595400D01*
X136403865Y-82595400D01*
X136343200Y-82589425D01*
X136282535Y-82595400D01*
X136101098Y-82613270D01*
X135868299Y-82683889D01*
X135653751Y-82798567D01*
X135465698Y-82952898D01*
X135427021Y-83000026D01*
X134170704Y-84256343D01*
X134126842Y-84265068D01*
X133856589Y-84377010D01*
X133735379Y-84458000D01*
X132844621Y-84458000D01*
X132723411Y-84377010D01*
X132453158Y-84265068D01*
X132409296Y-84256343D01*
X131163679Y-83010726D01*
X131125002Y-82963598D01*
X130936949Y-82809267D01*
X130722401Y-82694589D01*
X130489602Y-82623970D01*
X130308165Y-82606100D01*
X130247500Y-82600125D01*
X130186835Y-82606100D01*
X126188865Y-82606100D01*
X126128200Y-82600125D01*
X126067535Y-82606100D01*
X125886098Y-82623970D01*
X125653299Y-82694589D01*
X125438751Y-82809267D01*
X125250698Y-82963598D01*
X125212026Y-83010720D01*
X122594925Y-85627822D01*
X122547798Y-85666498D01*
X122393467Y-85854552D01*
X122278789Y-86069100D01*
X122272904Y-86088500D01*
X122208170Y-86301898D01*
X122184325Y-86544000D01*
X122190300Y-86604666D01*
X122190301Y-88188446D01*
X120714898Y-89663849D01*
X120714537Y-89663173D01*
X120635185Y-89566482D01*
X120538494Y-89487130D01*
X120428180Y-89428165D01*
X120308482Y-89391855D01*
X120184000Y-89379595D01*
X117127760Y-89379595D01*
X117127760Y-88852960D01*
X120935341Y-88852960D01*
X120967760Y-88856153D01*
X121000179Y-88852960D01*
X121097143Y-88843410D01*
X121221553Y-88805670D01*
X121336210Y-88744385D01*
X121436708Y-88661908D01*
X121519185Y-88561410D01*
X121580470Y-88446753D01*
X121618210Y-88322343D01*
X121630953Y-88192960D01*
X121627760Y-88160541D01*
X121627760Y-81352960D01*
X155307760Y-81352960D01*
X155307761Y-88160531D01*
G37*
%TD.AperFunction*%
D20*
X130120598Y-89948400D02*
X129730202Y-89948400D01*
X129499802Y-89718000D01*
X129626260Y-89718000D01*
X129846408Y-89674210D01*
X130120598Y-89948400D01*
%TA.AperFunction,NonConductor*%
D21*
G36*
X130120598Y-89948400D02*
G01*
X129730202Y-89948400D01*
X129499802Y-89718000D01*
X129626260Y-89718000D01*
X129846408Y-89674210D01*
X130120598Y-89948400D01*
G37*
%TD.AperFunction*%
D20*
X141026525Y-86639632D02*
X141233368Y-86846475D01*
X141407760Y-86963000D01*
X141233368Y-87079525D01*
X141026525Y-87286368D01*
X140910000Y-87460760D01*
X140793475Y-87286368D01*
X140586632Y-87079525D01*
X140412240Y-86963000D01*
X140586632Y-86846475D01*
X140793475Y-86639632D01*
X140910000Y-86465240D01*
X141026525Y-86639632D01*
%TA.AperFunction,NonConductor*%
D21*
G36*
X141026525Y-86639632D02*
G01*
X141233368Y-86846475D01*
X141407760Y-86963000D01*
X141233368Y-87079525D01*
X141026525Y-87286368D01*
X140910000Y-87460760D01*
X140793475Y-87286368D01*
X140586632Y-87079525D01*
X140412240Y-86963000D01*
X140586632Y-86846475D01*
X140793475Y-86639632D01*
X140910000Y-86465240D01*
X141026525Y-86639632D01*
G37*
%TD.AperFunction*%
D20*
X146487760Y-86963000D02*
X146313368Y-87079525D01*
X146106525Y-87286368D01*
X145990000Y-87460760D01*
X145873475Y-87286368D01*
X145666632Y-87079525D01*
X145492240Y-86963000D01*
X145544621Y-86928000D01*
X146435379Y-86928000D01*
X146487760Y-86963000D01*
%TA.AperFunction,NonConductor*%
D21*
G36*
X146487760Y-86963000D02*
G01*
X146313368Y-87079525D01*
X146106525Y-87286368D01*
X145990000Y-87460760D01*
X145873475Y-87286368D01*
X145666632Y-87079525D01*
X145492240Y-86963000D01*
X145544621Y-86928000D01*
X146435379Y-86928000D01*
X146487760Y-86963000D01*
G37*
%TD.AperFunction*%
D20*
X128326525Y-86639632D02*
X128533368Y-86846475D01*
X128707760Y-86963000D01*
X128533368Y-87079525D01*
X128326525Y-87286368D01*
X128210000Y-87460760D01*
X128093475Y-87286368D01*
X127886632Y-87079525D01*
X127712240Y-86963000D01*
X127886632Y-86846475D01*
X128093475Y-86639632D01*
X128210000Y-86465240D01*
X128326525Y-86639632D01*
%TA.AperFunction,NonConductor*%
D21*
G36*
X128326525Y-86639632D02*
G01*
X128533368Y-86846475D01*
X128707760Y-86963000D01*
X128533368Y-87079525D01*
X128326525Y-87286368D01*
X128210000Y-87460760D01*
X128093475Y-87286368D01*
X127886632Y-87079525D01*
X127712240Y-86963000D01*
X127886632Y-86846475D01*
X128093475Y-86639632D01*
X128210000Y-86465240D01*
X128326525Y-86639632D01*
G37*
%TD.AperFunction*%
D20*
X130866525Y-86639632D02*
X131073368Y-86846475D01*
X131247760Y-86963000D01*
X131073368Y-87079525D01*
X130866525Y-87286368D01*
X130750000Y-87460760D01*
X130633475Y-87286368D01*
X130426632Y-87079525D01*
X130252240Y-86963000D01*
X130426632Y-86846475D01*
X130633475Y-86639632D01*
X130750000Y-86465240D01*
X130866525Y-86639632D01*
%TA.AperFunction,NonConductor*%
D21*
G36*
X130866525Y-86639632D02*
G01*
X131073368Y-86846475D01*
X131247760Y-86963000D01*
X131073368Y-87079525D01*
X130866525Y-87286368D01*
X130750000Y-87460760D01*
X130633475Y-87286368D01*
X130426632Y-87079525D01*
X130252240Y-86963000D01*
X130426632Y-86846475D01*
X130633475Y-86639632D01*
X130750000Y-86465240D01*
X130866525Y-86639632D01*
G37*
%TD.AperFunction*%
D20*
X133787760Y-86963000D02*
X133613368Y-87079525D01*
X133406525Y-87286368D01*
X133290000Y-87460760D01*
X133173475Y-87286368D01*
X132966632Y-87079525D01*
X132792240Y-86963000D01*
X132844621Y-86928000D01*
X133735379Y-86928000D01*
X133787760Y-86963000D01*
%TA.AperFunction,NonConductor*%
D21*
G36*
X133787760Y-86963000D02*
G01*
X133613368Y-87079525D01*
X133406525Y-87286368D01*
X133290000Y-87460760D01*
X133173475Y-87286368D01*
X132966632Y-87079525D01*
X132792240Y-86963000D01*
X132844621Y-86928000D01*
X133735379Y-86928000D01*
X133787760Y-86963000D01*
G37*
%TD.AperFunction*%
D20*
X135946525Y-86639632D02*
X136153368Y-86846475D01*
X136327760Y-86963000D01*
X136153368Y-87079525D01*
X135946525Y-87286368D01*
X135830000Y-87460760D01*
X135713475Y-87286368D01*
X135506632Y-87079525D01*
X135332240Y-86963000D01*
X135506632Y-86846475D01*
X135713475Y-86639632D01*
X135830000Y-86465240D01*
X135946525Y-86639632D01*
%TA.AperFunction,NonConductor*%
D21*
G36*
X135946525Y-86639632D02*
G01*
X136153368Y-86846475D01*
X136327760Y-86963000D01*
X136153368Y-87079525D01*
X135946525Y-87286368D01*
X135830000Y-87460760D01*
X135713475Y-87286368D01*
X135506632Y-87079525D01*
X135332240Y-86963000D01*
X135506632Y-86846475D01*
X135713475Y-86639632D01*
X135830000Y-86465240D01*
X135946525Y-86639632D01*
G37*
%TD.AperFunction*%
D20*
X138486525Y-86639632D02*
X138693368Y-86846475D01*
X138867760Y-86963000D01*
X138693368Y-87079525D01*
X138486525Y-87286368D01*
X138370000Y-87460760D01*
X138253475Y-87286368D01*
X138046632Y-87079525D01*
X137872240Y-86963000D01*
X138046632Y-86846475D01*
X138253475Y-86639632D01*
X138370000Y-86465240D01*
X138486525Y-86639632D01*
%TA.AperFunction,NonConductor*%
D21*
G36*
X138486525Y-86639632D02*
G01*
X138693368Y-86846475D01*
X138867760Y-86963000D01*
X138693368Y-87079525D01*
X138486525Y-87286368D01*
X138370000Y-87460760D01*
X138253475Y-87286368D01*
X138046632Y-87079525D01*
X137872240Y-86963000D01*
X138046632Y-86846475D01*
X138253475Y-86639632D01*
X138370000Y-86465240D01*
X138486525Y-86639632D01*
G37*
%TD.AperFunction*%
D20*
X148706614Y-87031405D02*
X148833608Y-87099285D01*
X148646525Y-87286368D01*
X148530000Y-87460760D01*
X148413475Y-87286368D01*
X148206632Y-87079525D01*
X148032240Y-86963000D01*
X148084621Y-86928000D01*
X148580614Y-86928000D01*
X148706614Y-87031405D01*
%TA.AperFunction,NonConductor*%
D21*
G36*
X148706614Y-87031405D02*
G01*
X148833608Y-87099285D01*
X148646525Y-87286368D01*
X148530000Y-87460760D01*
X148413475Y-87286368D01*
X148206632Y-87079525D01*
X148032240Y-86963000D01*
X148084621Y-86928000D01*
X148580614Y-86928000D01*
X148706614Y-87031405D01*
G37*
%TD.AperFunction*%
D20*
X143947760Y-86963000D02*
X143773368Y-87079525D01*
X143566525Y-87286368D01*
X143450000Y-87460760D01*
X143333475Y-87286368D01*
X143126632Y-87079525D01*
X142952240Y-86963000D01*
X143004621Y-86928000D01*
X143895379Y-86928000D01*
X143947760Y-86963000D01*
%TA.AperFunction,NonConductor*%
D21*
G36*
X143947760Y-86963000D02*
G01*
X143773368Y-87079525D01*
X143566525Y-87286368D01*
X143450000Y-87460760D01*
X143333475Y-87286368D01*
X143126632Y-87079525D01*
X142952240Y-86963000D01*
X143004621Y-86928000D01*
X143895379Y-86928000D01*
X143947760Y-86963000D01*
G37*
%TD.AperFunction*%
M02*
