M48
; DRILL file {KiCad (5.1.9)-1} date 07/05/21 16:47:11
; FORMAT={-:-/ absolute / inch / decimal}
; #@! TF.CreationDate,2021-07-05T16:47:11-04:00
; #@! TF.GenerationSoftware,Kicad,Pcbnew,(5.1.9)-1
; #@! TF.FileFunction,Plated,1,2,PTH
FMAT,2
INCH
T1C0.0157
T2C0.0276
T3C0.0315
T4C0.0394
%
G90
G05
T1
X4.7568Y-3.7449
X4.7665Y-3.9539
X4.8128Y-3.8568
X5.1464Y-4.0833
X5.2366Y-3.8298
X5.427Y-3.5712
X5.4743Y-4.4905
X5.5441Y-4.3725
X5.622Y-4.5283
X5.7045Y-3.7367
X5.7392Y-3.6264
X5.964Y-4.5585
X6.0454Y-3.9126
X6.1094Y-4.1584
X6.1106Y-3.8218
X6.1463Y-3.7824
T2
X5.0059Y-4.8698
X5.3059Y-4.8698
T3
X5.0021Y-3.8342
X5.0021Y-3.9342
X5.0021Y-4.0342
X5.0021Y-4.1342
X5.0021Y-4.2342
X5.0021Y-4.3342
X5.0021Y-4.4342
X5.0021Y-4.5342
X5.0554Y-4.6785
X5.2523Y-4.6785
X5.3021Y-3.8342
X5.3021Y-3.9342
X5.3021Y-4.0342
X5.3021Y-4.1342
X5.3021Y-4.2342
X5.3021Y-4.3342
X5.3021Y-4.4342
X5.3021Y-4.5342
X5.5959Y-3.8364
X5.5959Y-3.9364
X5.5959Y-4.0364
X5.5959Y-4.1364
X5.5959Y-4.2364
X5.5959Y-4.3364
X5.5959Y-4.4364
X5.596Y-4.7214
X5.596Y-4.8789
X5.6491Y-4.5804
X5.846Y-4.5804
X5.8959Y-3.8364
X5.8959Y-3.9364
X5.8959Y-4.0364
X5.8959Y-4.1364
X5.8959Y-4.2364
X5.8959Y-4.3364
X5.8959Y-4.4364
X5.896Y-4.7214
X5.896Y-4.8789
T4
X4.9976Y-3.3737
X4.9976Y-3.4737
X5.0976Y-3.3737
X5.0976Y-3.4737
X5.1976Y-3.3737
X5.1976Y-3.4737
X5.2976Y-3.3737
X5.2976Y-3.4737
X5.3976Y-3.3737
X5.3976Y-3.4737
X5.4976Y-3.3737
X5.4976Y-3.4737
X5.5976Y-3.3737
X5.5976Y-3.4737
X5.6976Y-3.3737
X5.6976Y-3.4737
X5.7976Y-3.3737
X5.7976Y-3.4737
X5.8976Y-3.3737
X5.8976Y-3.4737
T0
M30
