%TF.GenerationSoftware,KiCad,Pcbnew,(5.1.9)-1*%
%TF.CreationDate,2021-07-05T16:47:05-04:00*%
%TF.ProjectId,Amiga2MacFloppy,416d6967-6132-44d6-9163-466c6f707079,1.0*%
%TF.SameCoordinates,Original*%
%TF.FileFunction,Legend,Bot*%
%TF.FilePolarity,Positive*%
%FSLAX46Y46*%
G04 Gerber Fmt 4.6, Leading zero omitted, Abs format (unit mm)*
G04 Created by KiCad (PCBNEW (5.1.9)-1) date 2021-07-05 16:47:05*
%MOMM*%
%LPD*%
G01*
G04 APERTURE LIST*
%ADD10C,0.150000*%
G04 APERTURE END LIST*
D10*
X154620045Y-118202674D02*
X154620045Y-118502674D01*
X154148617Y-118502674D02*
X155048617Y-118502674D01*
X155048617Y-118074102D01*
X154148617Y-117731245D02*
X154748617Y-117731245D01*
X154577188Y-117731245D02*
X154662902Y-117688388D01*
X154705760Y-117645531D01*
X154748617Y-117559817D01*
X154748617Y-117474102D01*
X154148617Y-116788388D02*
X154620045Y-116788388D01*
X154705760Y-116831245D01*
X154748617Y-116916960D01*
X154748617Y-117088388D01*
X154705760Y-117174102D01*
X154191474Y-116788388D02*
X154148617Y-116874102D01*
X154148617Y-117088388D01*
X154191474Y-117174102D01*
X154277188Y-117216960D01*
X154362902Y-117216960D01*
X154448617Y-117174102D01*
X154491474Y-117088388D01*
X154491474Y-116874102D01*
X154534331Y-116788388D01*
X154748617Y-116359817D02*
X154148617Y-116359817D01*
X154662902Y-116359817D02*
X154705760Y-116316960D01*
X154748617Y-116231245D01*
X154748617Y-116102674D01*
X154705760Y-116016960D01*
X154620045Y-115974102D01*
X154148617Y-115974102D01*
X154148617Y-115545531D02*
X155048617Y-115545531D01*
X154491474Y-115459817D02*
X154148617Y-115202674D01*
X154748617Y-115202674D02*
X154405760Y-115545531D01*
X155048617Y-114774102D02*
X154877188Y-114859817D01*
X154191474Y-114431245D02*
X154148617Y-114345531D01*
X154148617Y-114174102D01*
X154191474Y-114088388D01*
X154277188Y-114045531D01*
X154320045Y-114045531D01*
X154405760Y-114088388D01*
X154448617Y-114174102D01*
X154448617Y-114302674D01*
X154491474Y-114388388D01*
X154577188Y-114431245D01*
X154620045Y-114431245D01*
X154705760Y-114388388D01*
X154748617Y-114302674D01*
X154748617Y-114174102D01*
X154705760Y-114088388D01*
X155048617Y-113059817D02*
X155048617Y-112502674D01*
X154705760Y-112802674D01*
X154705760Y-112674102D01*
X154662902Y-112588388D01*
X154620045Y-112545531D01*
X154534331Y-112502674D01*
X154320045Y-112502674D01*
X154234331Y-112545531D01*
X154191474Y-112588388D01*
X154148617Y-112674102D01*
X154148617Y-112931245D01*
X154191474Y-113016960D01*
X154234331Y-113059817D01*
X154148617Y-112116960D02*
X155048617Y-112116960D01*
X155048617Y-111902674D01*
X155005760Y-111774102D01*
X154920045Y-111688388D01*
X154834331Y-111645531D01*
X154662902Y-111602674D01*
X154534331Y-111602674D01*
X154362902Y-111645531D01*
X154277188Y-111688388D01*
X154191474Y-111774102D01*
X154148617Y-111902674D01*
X154148617Y-112116960D01*
X154191474Y-110574102D02*
X154148617Y-110445531D01*
X154148617Y-110231245D01*
X154191474Y-110145531D01*
X154234331Y-110102674D01*
X154320045Y-110059817D01*
X154405760Y-110059817D01*
X154491474Y-110102674D01*
X154534331Y-110145531D01*
X154577188Y-110231245D01*
X154620045Y-110402674D01*
X154662902Y-110488388D01*
X154705760Y-110531245D01*
X154791474Y-110574102D01*
X154877188Y-110574102D01*
X154962902Y-110531245D01*
X155005760Y-110488388D01*
X155048617Y-110402674D01*
X155048617Y-110188388D01*
X155005760Y-110059817D01*
X154148617Y-109674102D02*
X155048617Y-109674102D01*
X154148617Y-109288388D02*
X154620045Y-109288388D01*
X154705760Y-109331245D01*
X154748617Y-109416960D01*
X154748617Y-109545531D01*
X154705760Y-109631245D01*
X154662902Y-109674102D01*
X154148617Y-108731245D02*
X154191474Y-108816960D01*
X154234331Y-108859817D01*
X154320045Y-108902674D01*
X154577188Y-108902674D01*
X154662902Y-108859817D01*
X154705760Y-108816960D01*
X154748617Y-108731245D01*
X154748617Y-108602674D01*
X154705760Y-108516960D01*
X154662902Y-108474102D01*
X154577188Y-108431245D01*
X154320045Y-108431245D01*
X154234331Y-108474102D01*
X154191474Y-108516960D01*
X154148617Y-108602674D01*
X154148617Y-108731245D01*
X154748617Y-108045531D02*
X153848617Y-108045531D01*
X154705760Y-108045531D02*
X154748617Y-107959817D01*
X154748617Y-107788388D01*
X154705760Y-107702674D01*
X154662902Y-107659817D01*
X154577188Y-107616960D01*
X154320045Y-107616960D01*
X154234331Y-107659817D01*
X154191474Y-107702674D01*
X154148617Y-107788388D01*
X154148617Y-107959817D01*
X154191474Y-108045531D01*
X154148617Y-105816960D02*
X154148617Y-105859817D01*
X154191474Y-105945531D01*
X154320045Y-106074102D01*
X154577188Y-106288388D01*
X154705760Y-106374102D01*
X154834331Y-106416960D01*
X154920045Y-106416960D01*
X155005760Y-106374102D01*
X155048617Y-106288388D01*
X155048617Y-106245531D01*
X155005760Y-106159817D01*
X154920045Y-106116960D01*
X154877188Y-106116960D01*
X154791474Y-106159817D01*
X154748617Y-106202674D01*
X154577188Y-106459817D01*
X154534331Y-106502674D01*
X154448617Y-106545531D01*
X154320045Y-106545531D01*
X154234331Y-106502674D01*
X154191474Y-106459817D01*
X154148617Y-106374102D01*
X154148617Y-106245531D01*
X154191474Y-106159817D01*
X154234331Y-106116960D01*
X154405760Y-105988388D01*
X154534331Y-105945531D01*
X154620045Y-105945531D01*
X154148617Y-104745531D02*
X155048617Y-104745531D01*
X155048617Y-104531245D01*
X155005760Y-104402674D01*
X154920045Y-104316960D01*
X154834331Y-104274102D01*
X154662902Y-104231245D01*
X154534331Y-104231245D01*
X154362902Y-104274102D01*
X154277188Y-104316960D01*
X154191474Y-104402674D01*
X154148617Y-104531245D01*
X154148617Y-104745531D01*
X154148617Y-103845531D02*
X154748617Y-103845531D01*
X154577188Y-103845531D02*
X154662902Y-103802674D01*
X154705760Y-103759817D01*
X154748617Y-103674102D01*
X154748617Y-103588388D01*
X154234331Y-103288388D02*
X154191474Y-103245531D01*
X154148617Y-103288388D01*
X154191474Y-103331245D01*
X154234331Y-103288388D01*
X154148617Y-103288388D01*
X154148617Y-102174102D02*
X155048617Y-102174102D01*
X155048617Y-101959817D01*
X155005760Y-101831245D01*
X154920045Y-101745531D01*
X154834331Y-101702674D01*
X154662902Y-101659817D01*
X154534331Y-101659817D01*
X154362902Y-101702674D01*
X154277188Y-101745531D01*
X154191474Y-101831245D01*
X154148617Y-101959817D01*
X154148617Y-102174102D01*
X154148617Y-100888388D02*
X154620045Y-100888388D01*
X154705760Y-100931245D01*
X154748617Y-101016960D01*
X154748617Y-101188388D01*
X154705760Y-101274102D01*
X154191474Y-100888388D02*
X154148617Y-100974102D01*
X154148617Y-101188388D01*
X154191474Y-101274102D01*
X154277188Y-101316960D01*
X154362902Y-101316960D01*
X154448617Y-101274102D01*
X154491474Y-101188388D01*
X154491474Y-100974102D01*
X154534331Y-100888388D01*
X154748617Y-100545531D02*
X154148617Y-100331245D01*
X154748617Y-100116960D01*
X154191474Y-99431245D02*
X154148617Y-99516960D01*
X154148617Y-99688388D01*
X154191474Y-99774102D01*
X154277188Y-99816960D01*
X154620045Y-99816960D01*
X154705760Y-99774102D01*
X154748617Y-99688388D01*
X154748617Y-99516960D01*
X154705760Y-99431245D01*
X154620045Y-99388388D01*
X154534331Y-99388388D01*
X154448617Y-99816960D01*
X155048617Y-98959817D02*
X154877188Y-99045531D01*
X154191474Y-98616960D02*
X154148617Y-98531245D01*
X154148617Y-98359817D01*
X154191474Y-98274102D01*
X154277188Y-98231245D01*
X154320045Y-98231245D01*
X154405760Y-98274102D01*
X154448617Y-98359817D01*
X154448617Y-98488388D01*
X154491474Y-98574102D01*
X154577188Y-98616960D01*
X154620045Y-98616960D01*
X154705760Y-98574102D01*
X154748617Y-98488388D01*
X154748617Y-98359817D01*
X154705760Y-98274102D01*
X154148617Y-97159817D02*
X155048617Y-97159817D01*
X155048617Y-96945531D01*
X155005760Y-96816960D01*
X154920045Y-96731245D01*
X154834331Y-96688388D01*
X154662902Y-96645531D01*
X154534331Y-96645531D01*
X154362902Y-96688388D01*
X154277188Y-96731245D01*
X154191474Y-96816960D01*
X154148617Y-96945531D01*
X154148617Y-97159817D01*
X154148617Y-96259817D02*
X154748617Y-96259817D01*
X155048617Y-96259817D02*
X155005760Y-96302674D01*
X154962902Y-96259817D01*
X155005760Y-96216960D01*
X155048617Y-96259817D01*
X154962902Y-96259817D01*
X154748617Y-95916960D02*
X154148617Y-95702674D01*
X154748617Y-95488388D01*
X154191474Y-94802674D02*
X154148617Y-94888388D01*
X154148617Y-95059817D01*
X154191474Y-95145531D01*
X154277188Y-95188388D01*
X154620045Y-95188388D01*
X154705760Y-95145531D01*
X154748617Y-95059817D01*
X154748617Y-94888388D01*
X154705760Y-94802674D01*
X154620045Y-94759817D01*
X154534331Y-94759817D01*
X154448617Y-95188388D01*
X154148617Y-94374102D02*
X154748617Y-94374102D01*
X154577188Y-94374102D02*
X154662902Y-94331245D01*
X154705760Y-94288388D01*
X154748617Y-94202674D01*
X154748617Y-94116960D01*
X154191474Y-93859817D02*
X154148617Y-93774102D01*
X154148617Y-93602674D01*
X154191474Y-93516960D01*
X154277188Y-93474102D01*
X154320045Y-93474102D01*
X154405760Y-93516960D01*
X154448617Y-93602674D01*
X154448617Y-93731245D01*
X154491474Y-93816960D01*
X154577188Y-93859817D01*
X154620045Y-93859817D01*
X154705760Y-93816960D01*
X154748617Y-93731245D01*
X154748617Y-93602674D01*
X154705760Y-93516960D01*
X154148617Y-93088388D02*
X154748617Y-93088388D01*
X155048617Y-93088388D02*
X155005760Y-93131245D01*
X154962902Y-93088388D01*
X155005760Y-93045531D01*
X155048617Y-93088388D01*
X154962902Y-93088388D01*
X154148617Y-92531245D02*
X154191474Y-92616960D01*
X154234331Y-92659817D01*
X154320045Y-92702674D01*
X154577188Y-92702674D01*
X154662902Y-92659817D01*
X154705760Y-92616960D01*
X154748617Y-92531245D01*
X154748617Y-92402674D01*
X154705760Y-92316960D01*
X154662902Y-92274102D01*
X154577188Y-92231245D01*
X154320045Y-92231245D01*
X154234331Y-92274102D01*
X154191474Y-92316960D01*
X154148617Y-92402674D01*
X154148617Y-92531245D01*
X154748617Y-91845531D02*
X154148617Y-91845531D01*
X154662902Y-91845531D02*
X154705760Y-91802674D01*
X154748617Y-91716960D01*
X154748617Y-91588388D01*
X154705760Y-91502674D01*
X154620045Y-91459817D01*
X154148617Y-91459817D01*
X154191474Y-91074102D02*
X154148617Y-90988388D01*
X154148617Y-90816960D01*
X154191474Y-90731245D01*
X154277188Y-90688388D01*
X154320045Y-90688388D01*
X154405760Y-90731245D01*
X154448617Y-90816960D01*
X154448617Y-90945531D01*
X154491474Y-91031245D01*
X154577188Y-91074102D01*
X154620045Y-91074102D01*
X154705760Y-91031245D01*
X154748617Y-90945531D01*
X154748617Y-90816960D01*
X154705760Y-90731245D01*
X152648617Y-122531245D02*
X153548617Y-122531245D01*
X152648617Y-122145531D02*
X153120045Y-122145531D01*
X153205760Y-122188388D01*
X153248617Y-122274102D01*
X153248617Y-122402674D01*
X153205760Y-122488388D01*
X153162902Y-122531245D01*
X153248617Y-121845531D02*
X153248617Y-121502674D01*
X153548617Y-121716960D02*
X152777188Y-121716960D01*
X152691474Y-121674102D01*
X152648617Y-121588388D01*
X152648617Y-121502674D01*
X153248617Y-121331245D02*
X153248617Y-120988388D01*
X153548617Y-121202674D02*
X152777188Y-121202674D01*
X152691474Y-121159817D01*
X152648617Y-121074102D01*
X152648617Y-120988388D01*
X153248617Y-120688388D02*
X152348617Y-120688388D01*
X153205760Y-120688388D02*
X153248617Y-120602674D01*
X153248617Y-120431245D01*
X153205760Y-120345531D01*
X153162902Y-120302674D01*
X153077188Y-120259817D01*
X152820045Y-120259817D01*
X152734331Y-120302674D01*
X152691474Y-120345531D01*
X152648617Y-120431245D01*
X152648617Y-120602674D01*
X152691474Y-120688388D01*
X152691474Y-119916960D02*
X152648617Y-119831245D01*
X152648617Y-119659817D01*
X152691474Y-119574102D01*
X152777188Y-119531245D01*
X152820045Y-119531245D01*
X152905760Y-119574102D01*
X152948617Y-119659817D01*
X152948617Y-119788388D01*
X152991474Y-119874102D01*
X153077188Y-119916960D01*
X153120045Y-119916960D01*
X153205760Y-119874102D01*
X153248617Y-119788388D01*
X153248617Y-119659817D01*
X153205760Y-119574102D01*
X152734331Y-119145531D02*
X152691474Y-119102674D01*
X152648617Y-119145531D01*
X152691474Y-119188388D01*
X152734331Y-119145531D01*
X152648617Y-119145531D01*
X153205760Y-119145531D02*
X153162902Y-119102674D01*
X153120045Y-119145531D01*
X153162902Y-119188388D01*
X153205760Y-119145531D01*
X153120045Y-119145531D01*
X153591474Y-118074102D02*
X152434331Y-118845531D01*
X153591474Y-117131245D02*
X152434331Y-117902674D01*
X153248617Y-116445531D02*
X152520045Y-116445531D01*
X152434331Y-116488388D01*
X152391474Y-116531245D01*
X152348617Y-116616960D01*
X152348617Y-116745531D01*
X152391474Y-116831245D01*
X152691474Y-116445531D02*
X152648617Y-116531245D01*
X152648617Y-116702674D01*
X152691474Y-116788388D01*
X152734331Y-116831245D01*
X152820045Y-116874102D01*
X153077188Y-116874102D01*
X153162902Y-116831245D01*
X153205760Y-116788388D01*
X153248617Y-116702674D01*
X153248617Y-116531245D01*
X153205760Y-116445531D01*
X152648617Y-116016960D02*
X153248617Y-116016960D01*
X153548617Y-116016960D02*
X153505760Y-116059817D01*
X153462902Y-116016960D01*
X153505760Y-115974102D01*
X153548617Y-116016960D01*
X153462902Y-116016960D01*
X153248617Y-115716960D02*
X153248617Y-115374102D01*
X153548617Y-115588388D02*
X152777188Y-115588388D01*
X152691474Y-115545531D01*
X152648617Y-115459817D01*
X152648617Y-115374102D01*
X152648617Y-115074102D02*
X153548617Y-115074102D01*
X152648617Y-114688388D02*
X153120045Y-114688388D01*
X153205760Y-114731245D01*
X153248617Y-114816960D01*
X153248617Y-114945531D01*
X153205760Y-115031245D01*
X153162902Y-115074102D01*
X153248617Y-113874102D02*
X152648617Y-113874102D01*
X153248617Y-114259817D02*
X152777188Y-114259817D01*
X152691474Y-114216960D01*
X152648617Y-114131245D01*
X152648617Y-114002674D01*
X152691474Y-113916960D01*
X152734331Y-113874102D01*
X152648617Y-113445531D02*
X153548617Y-113445531D01*
X153205760Y-113445531D02*
X153248617Y-113359817D01*
X153248617Y-113188388D01*
X153205760Y-113102674D01*
X153162902Y-113059817D01*
X153077188Y-113016960D01*
X152820045Y-113016960D01*
X152734331Y-113059817D01*
X152691474Y-113102674D01*
X152648617Y-113188388D01*
X152648617Y-113359817D01*
X152691474Y-113445531D01*
X152734331Y-112631245D02*
X152691474Y-112588388D01*
X152648617Y-112631245D01*
X152691474Y-112674102D01*
X152734331Y-112631245D01*
X152648617Y-112631245D01*
X152691474Y-111816960D02*
X152648617Y-111902674D01*
X152648617Y-112074102D01*
X152691474Y-112159817D01*
X152734331Y-112202674D01*
X152820045Y-112245531D01*
X153077188Y-112245531D01*
X153162902Y-112202674D01*
X153205760Y-112159817D01*
X153248617Y-112074102D01*
X153248617Y-111902674D01*
X153205760Y-111816960D01*
X152648617Y-111302674D02*
X152691474Y-111388388D01*
X152734331Y-111431245D01*
X152820045Y-111474102D01*
X153077188Y-111474102D01*
X153162902Y-111431245D01*
X153205760Y-111388388D01*
X153248617Y-111302674D01*
X153248617Y-111174102D01*
X153205760Y-111088388D01*
X153162902Y-111045531D01*
X153077188Y-111002674D01*
X152820045Y-111002674D01*
X152734331Y-111045531D01*
X152691474Y-111088388D01*
X152648617Y-111174102D01*
X152648617Y-111302674D01*
X152648617Y-110616960D02*
X153248617Y-110616960D01*
X153162902Y-110616960D02*
X153205760Y-110574102D01*
X153248617Y-110488388D01*
X153248617Y-110359817D01*
X153205760Y-110274102D01*
X153120045Y-110231245D01*
X152648617Y-110231245D01*
X153120045Y-110231245D02*
X153205760Y-110188388D01*
X153248617Y-110102674D01*
X153248617Y-109974102D01*
X153205760Y-109888388D01*
X153120045Y-109845531D01*
X152648617Y-109845531D01*
X153591474Y-108774102D02*
X152434331Y-109545531D01*
X153120045Y-108174102D02*
X153120045Y-108474102D01*
X152648617Y-108474102D02*
X153548617Y-108474102D01*
X153548617Y-108045531D01*
X152648617Y-107702674D02*
X153248617Y-107702674D01*
X153077188Y-107702674D02*
X153162902Y-107659817D01*
X153205760Y-107616960D01*
X153248617Y-107531245D01*
X153248617Y-107445531D01*
X152648617Y-106759817D02*
X153120045Y-106759817D01*
X153205760Y-106802674D01*
X153248617Y-106888388D01*
X153248617Y-107059817D01*
X153205760Y-107145531D01*
X152691474Y-106759817D02*
X152648617Y-106845531D01*
X152648617Y-107059817D01*
X152691474Y-107145531D01*
X152777188Y-107188388D01*
X152862902Y-107188388D01*
X152948617Y-107145531D01*
X152991474Y-107059817D01*
X152991474Y-106845531D01*
X153034331Y-106759817D01*
X153248617Y-106331245D02*
X152648617Y-106331245D01*
X153162902Y-106331245D02*
X153205760Y-106288388D01*
X153248617Y-106202674D01*
X153248617Y-106074102D01*
X153205760Y-105988388D01*
X153120045Y-105945531D01*
X152648617Y-105945531D01*
X152648617Y-105516960D02*
X153548617Y-105516960D01*
X152991474Y-105431245D02*
X152648617Y-105174102D01*
X153248617Y-105174102D02*
X152905760Y-105516960D01*
X152691474Y-104831245D02*
X152648617Y-104745531D01*
X152648617Y-104574102D01*
X152691474Y-104488388D01*
X152777188Y-104445531D01*
X152820045Y-104445531D01*
X152905760Y-104488388D01*
X152948617Y-104574102D01*
X152948617Y-104702674D01*
X152991474Y-104788388D01*
X153077188Y-104831245D01*
X153120045Y-104831245D01*
X153205760Y-104788388D01*
X153248617Y-104702674D01*
X153248617Y-104574102D01*
X153205760Y-104488388D01*
X153548617Y-104145531D02*
X153548617Y-103588388D01*
X153205760Y-103888388D01*
X153205760Y-103759817D01*
X153162902Y-103674102D01*
X153120045Y-103631245D01*
X153034331Y-103588388D01*
X152820045Y-103588388D01*
X152734331Y-103631245D01*
X152691474Y-103674102D01*
X152648617Y-103759817D01*
X152648617Y-104016960D01*
X152691474Y-104102674D01*
X152734331Y-104145531D01*
X152648617Y-102816960D02*
X153548617Y-102816960D01*
X152691474Y-102816960D02*
X152648617Y-102902674D01*
X152648617Y-103074102D01*
X152691474Y-103159817D01*
X152734331Y-103202674D01*
X152820045Y-103245531D01*
X153077188Y-103245531D01*
X153162902Y-103202674D01*
X153205760Y-103159817D01*
X153248617Y-103074102D01*
X153248617Y-102902674D01*
X153205760Y-102816960D01*
X152691474Y-102431245D02*
X152648617Y-102302674D01*
X152648617Y-102088388D01*
X152691474Y-102002674D01*
X152734331Y-101959817D01*
X152820045Y-101916960D01*
X152905760Y-101916960D01*
X152991474Y-101959817D01*
X153034331Y-102002674D01*
X153077188Y-102088388D01*
X153120045Y-102259817D01*
X153162902Y-102345531D01*
X153205760Y-102388388D01*
X153291474Y-102431245D01*
X153377188Y-102431245D01*
X153462902Y-102388388D01*
X153505760Y-102345531D01*
X153548617Y-102259817D01*
X153548617Y-102045531D01*
X153505760Y-101916960D01*
X152648617Y-101531245D02*
X153548617Y-101531245D01*
X152648617Y-101145531D02*
X153120045Y-101145531D01*
X153205760Y-101188388D01*
X153248617Y-101274102D01*
X153248617Y-101402674D01*
X153205760Y-101488388D01*
X153162902Y-101531245D01*
X152648617Y-100588388D02*
X152691474Y-100674102D01*
X152734331Y-100716960D01*
X152820045Y-100759817D01*
X153077188Y-100759817D01*
X153162902Y-100716960D01*
X153205760Y-100674102D01*
X153248617Y-100588388D01*
X153248617Y-100459817D01*
X153205760Y-100374102D01*
X153162902Y-100331245D01*
X153077188Y-100288388D01*
X152820045Y-100288388D01*
X152734331Y-100331245D01*
X152691474Y-100374102D01*
X152648617Y-100459817D01*
X152648617Y-100588388D01*
X153248617Y-99902674D02*
X152348617Y-99902674D01*
X153205760Y-99902674D02*
X153248617Y-99816960D01*
X153248617Y-99645531D01*
X153205760Y-99559817D01*
X153162902Y-99516960D01*
X153077188Y-99474102D01*
X152820045Y-99474102D01*
X152734331Y-99516960D01*
X152691474Y-99559817D01*
X152648617Y-99645531D01*
X152648617Y-99816960D01*
X152691474Y-99902674D01*
X153591474Y-98445531D02*
X152434331Y-99216960D01*
X152905760Y-98188388D02*
X152905760Y-97759817D01*
X152648617Y-98274102D02*
X153548617Y-97974102D01*
X152648617Y-97674102D01*
X152648617Y-97374102D02*
X153248617Y-97374102D01*
X153162902Y-97374102D02*
X153205760Y-97331245D01*
X153248617Y-97245531D01*
X153248617Y-97116960D01*
X153205760Y-97031245D01*
X153120045Y-96988388D01*
X152648617Y-96988388D01*
X153120045Y-96988388D02*
X153205760Y-96945531D01*
X153248617Y-96859817D01*
X153248617Y-96731245D01*
X153205760Y-96645531D01*
X153120045Y-96602674D01*
X152648617Y-96602674D01*
X152648617Y-96174102D02*
X153248617Y-96174102D01*
X153548617Y-96174102D02*
X153505760Y-96216960D01*
X153462902Y-96174102D01*
X153505760Y-96131245D01*
X153548617Y-96174102D01*
X153462902Y-96174102D01*
X153248617Y-95359817D02*
X152520045Y-95359817D01*
X152434331Y-95402674D01*
X152391474Y-95445531D01*
X152348617Y-95531245D01*
X152348617Y-95659817D01*
X152391474Y-95745531D01*
X152691474Y-95359817D02*
X152648617Y-95445531D01*
X152648617Y-95616960D01*
X152691474Y-95702674D01*
X152734331Y-95745531D01*
X152820045Y-95788388D01*
X153077188Y-95788388D01*
X153162902Y-95745531D01*
X153205760Y-95702674D01*
X153248617Y-95616960D01*
X153248617Y-95445531D01*
X153205760Y-95359817D01*
X152648617Y-94545531D02*
X153120045Y-94545531D01*
X153205760Y-94588388D01*
X153248617Y-94674102D01*
X153248617Y-94845531D01*
X153205760Y-94931245D01*
X152691474Y-94545531D02*
X152648617Y-94631245D01*
X152648617Y-94845531D01*
X152691474Y-94931245D01*
X152777188Y-94974102D01*
X152862902Y-94974102D01*
X152948617Y-94931245D01*
X152991474Y-94845531D01*
X152991474Y-94631245D01*
X153034331Y-94545531D01*
X153462902Y-94159817D02*
X153505760Y-94116960D01*
X153548617Y-94031245D01*
X153548617Y-93816960D01*
X153505760Y-93731245D01*
X153462902Y-93688388D01*
X153377188Y-93645531D01*
X153291474Y-93645531D01*
X153162902Y-93688388D01*
X152648617Y-94202674D01*
X152648617Y-93645531D01*
X152648617Y-93259817D02*
X153548617Y-93259817D01*
X152905760Y-92959817D01*
X153548617Y-92659817D01*
X152648617Y-92659817D01*
X152648617Y-91845531D02*
X153120045Y-91845531D01*
X153205760Y-91888388D01*
X153248617Y-91974102D01*
X153248617Y-92145531D01*
X153205760Y-92231245D01*
X152691474Y-91845531D02*
X152648617Y-91931245D01*
X152648617Y-92145531D01*
X152691474Y-92231245D01*
X152777188Y-92274102D01*
X152862902Y-92274102D01*
X152948617Y-92231245D01*
X152991474Y-92145531D01*
X152991474Y-91931245D01*
X153034331Y-91845531D01*
X152691474Y-91031245D02*
X152648617Y-91116960D01*
X152648617Y-91288388D01*
X152691474Y-91374102D01*
X152734331Y-91416960D01*
X152820045Y-91459817D01*
X153077188Y-91459817D01*
X153162902Y-91416960D01*
X153205760Y-91374102D01*
X153248617Y-91288388D01*
X153248617Y-91116960D01*
X153205760Y-91031245D01*
X153120045Y-90345531D02*
X153120045Y-90645531D01*
X152648617Y-90645531D02*
X153548617Y-90645531D01*
X153548617Y-90216960D01*
X152648617Y-89745531D02*
X152691474Y-89831245D01*
X152777188Y-89874102D01*
X153548617Y-89874102D01*
X152648617Y-89274102D02*
X152691474Y-89359817D01*
X152734331Y-89402674D01*
X152820045Y-89445531D01*
X153077188Y-89445531D01*
X153162902Y-89402674D01*
X153205760Y-89359817D01*
X153248617Y-89274102D01*
X153248617Y-89145531D01*
X153205760Y-89059817D01*
X153162902Y-89016960D01*
X153077188Y-88974102D01*
X152820045Y-88974102D01*
X152734331Y-89016960D01*
X152691474Y-89059817D01*
X152648617Y-89145531D01*
X152648617Y-89274102D01*
X153248617Y-88588388D02*
X152348617Y-88588388D01*
X153205760Y-88588388D02*
X153248617Y-88502674D01*
X153248617Y-88331245D01*
X153205760Y-88245531D01*
X153162902Y-88202674D01*
X153077188Y-88159817D01*
X152820045Y-88159817D01*
X152734331Y-88202674D01*
X152691474Y-88245531D01*
X152648617Y-88331245D01*
X152648617Y-88502674D01*
X152691474Y-88588388D01*
X153248617Y-87774102D02*
X152348617Y-87774102D01*
X153205760Y-87774102D02*
X153248617Y-87688388D01*
X153248617Y-87516960D01*
X153205760Y-87431245D01*
X153162902Y-87388388D01*
X153077188Y-87345531D01*
X152820045Y-87345531D01*
X152734331Y-87388388D01*
X152691474Y-87431245D01*
X152648617Y-87516960D01*
X152648617Y-87688388D01*
X152691474Y-87774102D01*
X153248617Y-87045531D02*
X152648617Y-86831245D01*
X153248617Y-86616960D02*
X152648617Y-86831245D01*
X152434331Y-86916960D01*
X152391474Y-86959817D01*
X152348617Y-87045531D01*
M02*
