%TF.GenerationSoftware,KiCad,Pcbnew,(5.1.9)-1*%
%TF.CreationDate,2021-05-02T21:25:19-04:00*%
%TF.ProjectId,A-Max,412d4d61-782e-46b6-9963-61645f706362,1.0*%
%TF.SameCoordinates,Original*%
%TF.FileFunction,Copper,L2,Bot*%
%TF.FilePolarity,Positive*%
%FSLAX46Y46*%
G04 Gerber Fmt 4.6, Leading zero omitted, Abs format (unit mm)*
G04 Created by KiCad (PCBNEW (5.1.9)-1) date 2021-05-02 21:25:19*
%MOMM*%
%LPD*%
G01*
G04 APERTURE LIST*
%TA.AperFunction,ComponentPad*%
%ADD10C,1.600000*%
%TD*%
%TA.AperFunction,SMDPad,CuDef*%
%ADD11R,3.480000X1.846667*%
%TD*%
%TA.AperFunction,ComponentPad*%
%ADD12O,1.600000X1.600000*%
%TD*%
%TA.AperFunction,ComponentPad*%
%ADD13R,1.600000X1.600000*%
%TD*%
%TA.AperFunction,ComponentPad*%
%ADD14O,1.400000X1.400000*%
%TD*%
%TA.AperFunction,ComponentPad*%
%ADD15C,1.400000*%
%TD*%
%TA.AperFunction,ComponentPad*%
%ADD16C,1.700000*%
%TD*%
%TA.AperFunction,ViaPad*%
%ADD17C,0.800000*%
%TD*%
%TA.AperFunction,Conductor*%
%ADD18C,1.200000*%
%TD*%
%TA.AperFunction,Conductor*%
%ADD19C,0.250000*%
%TD*%
%TA.AperFunction,NonConductor*%
%ADD20C,0.254000*%
%TD*%
%TA.AperFunction,NonConductor*%
%ADD21C,0.100000*%
%TD*%
G04 APERTURE END LIST*
D10*
%TO.P,C2,2*%
%TO.N,GND*%
X147158000Y-116343000D03*
%TO.P,C2,1*%
%TO.N,+5V*%
X144658000Y-116343000D03*
%TD*%
%TO.P,C1,2*%
%TO.N,GND*%
X132078000Y-118833000D03*
%TO.P,C1,1*%
%TO.N,+5V*%
X129578000Y-118833000D03*
%TD*%
D11*
%TO.P,J1,23*%
%TO.N,+12V*%
X118444000Y-90941000D03*
%TO.P,J1,22*%
%TO.N,_INDEX*%
X118444000Y-93711000D03*
%TO.P,J1,21*%
%TO.N,_SEL2*%
X118444000Y-96481000D03*
%TO.P,J1,20*%
%TO.N,Net-(J1-Pad20)*%
X118444000Y-99251000D03*
%TO.P,J1,19*%
%TO.N,DIR*%
X118444000Y-102021000D03*
%TO.P,J1,18*%
%TO.N,_STEP*%
X118444000Y-104791000D03*
%TO.P,J1,17*%
%TO.N,_DKWD*%
X118444000Y-107561000D03*
%TO.P,J1,16*%
%TO.N,_DKWE*%
X118444000Y-110331000D03*
%TO.P,J1,15*%
%TO.N,_TKO*%
X118444000Y-113101000D03*
%TO.P,J1,14*%
%TO.N,_WPRO*%
X118444000Y-115871000D03*
%TO.P,J1,13*%
%TO.N,_SIDE*%
X118444000Y-118670000D03*
%TD*%
%TO.P,J3,13*%
%TO.N,_SIDE*%
X158500000Y-118611000D03*
%TO.P,J3,14*%
%TO.N,_WPRO*%
X158500000Y-116071000D03*
%TO.P,J3,15*%
%TO.N,_TKO*%
X158500000Y-113301000D03*
%TO.P,J3,16*%
%TO.N,_DKWE*%
X158500000Y-110531000D03*
%TO.P,J3,17*%
%TO.N,_DKWD*%
X158500000Y-107761000D03*
%TO.P,J3,18*%
%TO.N,_STEP*%
X158500000Y-104991000D03*
%TO.P,J3,19*%
%TO.N,DIR*%
X158500000Y-102221000D03*
%TO.P,J3,20*%
%TO.N,_SEL3*%
X158500000Y-99451000D03*
%TO.P,J3,21*%
%TO.N,_SEL1*%
X158500000Y-96681000D03*
%TO.P,J3,22*%
%TO.N,_INDEX*%
X158500000Y-93911000D03*
%TO.P,J3,23*%
%TO.N,+12V*%
X158500000Y-91141000D03*
%TD*%
D12*
%TO.P,D1,2*%
%TO.N,Net-(D1-Pad2)*%
X141948000Y-125893000D03*
D13*
%TO.P,D1,1*%
%TO.N,/_RDY*%
X149568000Y-125893000D03*
%TD*%
D14*
%TO.P,R460,2*%
%TO.N,GND*%
X134771000Y-125511000D03*
D15*
%TO.P,R460,1*%
%TO.N,_SEL2*%
X127151000Y-125511000D03*
%TD*%
D12*
%TO.P,D2,2*%
%TO.N,Net-(D1-Pad2)*%
X141948000Y-121993000D03*
D13*
%TO.P,D2,1*%
%TO.N,/_DKRD*%
X149568000Y-121993000D03*
%TD*%
D16*
%TO.P,J2,20*%
%TO.N,Net-(J2-Pad20)*%
X126940000Y-85733000D03*
%TO.P,J2,18*%
%TO.N,WR*%
X129480000Y-85733000D03*
%TO.P,J2,16*%
%TO.N,RD*%
X132020000Y-85733000D03*
%TO.P,J2,14*%
%TO.N,_Enbl2*%
X134560000Y-85733000D03*
%TO.P,J2,12*%
%TO.N,_TKO*%
X137100000Y-85733000D03*
%TO.P,J2,10*%
%TO.N,_DKWE*%
X139640000Y-85733000D03*
%TO.P,J2,8*%
%TO.N,_WPRO*%
X142180000Y-85733000D03*
%TO.P,J2,6*%
%TO.N,_SIDE*%
X144720000Y-85733000D03*
%TO.P,J2,4*%
%TO.N,DIR*%
X147260000Y-85733000D03*
%TO.P,J2,2*%
%TO.N,_STEP*%
X149800000Y-85733000D03*
%TO.P,J2,19*%
%TO.N,Net-(J2-Pad19)*%
X126940000Y-83193000D03*
%TO.P,J2,17*%
%TO.N,Net-(J2-Pad17)*%
X129480000Y-83193000D03*
%TO.P,J2,15*%
%TO.N,+12V*%
X132020000Y-83193000D03*
%TO.P,J2,13*%
X134560000Y-83193000D03*
%TO.P,J2,11*%
%TO.N,+5V*%
X137100000Y-83193000D03*
%TO.P,J2,9*%
%TO.N,Net-(J2-Pad9)*%
X139640000Y-83193000D03*
%TO.P,J2,7*%
%TO.N,GND*%
X142180000Y-83193000D03*
%TO.P,J2,5*%
X144720000Y-83193000D03*
%TO.P,J2,3*%
X147260000Y-83193000D03*
%TO.P,J2,1*%
%TA.AperFunction,ComponentPad*%
G36*
G01*
X149200000Y-82343000D02*
X150400000Y-82343000D01*
G75*
G02*
X150650000Y-82593000I0J-250000D01*
G01*
X150650000Y-83793000D01*
G75*
G02*
X150400000Y-84043000I-250000J0D01*
G01*
X149200000Y-84043000D01*
G75*
G02*
X148950000Y-83793000I0J250000D01*
G01*
X148950000Y-82593000D01*
G75*
G02*
X149200000Y-82343000I250000J0D01*
G01*
G37*
%TD.AperFunction*%
%TD*%
D12*
%TO.P,U2,14*%
%TO.N,+5V*%
X142137000Y-112684000D03*
%TO.P,U2,7*%
%TO.N,GND*%
X149757000Y-97444000D03*
%TO.P,U2,13*%
%TO.N,Net-(U2-Pad13)*%
X142137000Y-110144000D03*
%TO.P,U2,6*%
%TO.N,Net-(U2-Pad6)*%
X149757000Y-99984000D03*
%TO.P,U2,12*%
%TO.N,Net-(U2-Pad12)*%
X142137000Y-107604000D03*
%TO.P,U2,5*%
%TO.N,Net-(U2-Pad5)*%
X149757000Y-102524000D03*
%TO.P,U2,11*%
%TO.N,Net-(U2-Pad11)*%
X142137000Y-105064000D03*
%TO.P,U2,4*%
%TO.N,Net-(U2-Pad4)*%
X149757000Y-105064000D03*
%TO.P,U2,10*%
%TO.N,Net-(U2-Pad10)*%
X142137000Y-102524000D03*
%TO.P,U2,3*%
%TO.N,WR*%
X149757000Y-107604000D03*
%TO.P,U2,9*%
%TO.N,Net-(U2-Pad9)*%
X142137000Y-99984000D03*
%TO.P,U2,2*%
%TO.N,DIR*%
X149757000Y-110144000D03*
%TO.P,U2,8*%
%TO.N,Net-(U2-Pad8)*%
X142137000Y-97444000D03*
D13*
%TO.P,U2,1*%
%TO.N,_DKWD*%
X149757000Y-112684000D03*
%TD*%
D12*
%TO.P,U1,16*%
%TO.N,+5V*%
X127054000Y-115168000D03*
%TO.P,U1,8*%
%TO.N,GND*%
X134674000Y-97388000D03*
%TO.P,U1,15*%
X127054000Y-112628000D03*
%TO.P,U1,7*%
%TO.N,Net-(U1-Pad7)*%
X134674000Y-99928000D03*
%TO.P,U1,14*%
%TO.N,+5V*%
X127054000Y-110088000D03*
%TO.P,U1,6*%
%TO.N,Net-(U1-Pad6)*%
X134674000Y-102468000D03*
%TO.P,U1,13*%
%TO.N,_SEL1*%
X127054000Y-107548000D03*
%TO.P,U1,5*%
%TO.N,Net-(U1-Pad5)*%
X134674000Y-105008000D03*
%TO.P,U1,12*%
%TO.N,_Enbl2*%
X127054000Y-105008000D03*
%TO.P,U1,4*%
%TO.N,Net-(D1-Pad2)*%
X134674000Y-107548000D03*
%TO.P,U1,11*%
%TO.N,Net-(U1-Pad11)*%
X127054000Y-102468000D03*
%TO.P,U1,3*%
%TO.N,GND*%
X134674000Y-110088000D03*
%TO.P,U1,10*%
%TO.N,Net-(U1-Pad10)*%
X127054000Y-99928000D03*
%TO.P,U1,2*%
%TO.N,RD*%
X134674000Y-112628000D03*
%TO.P,U1,9*%
%TO.N,Net-(U1-Pad9)*%
X127054000Y-97388000D03*
D13*
%TO.P,U1,1*%
%TO.N,GND*%
X134674000Y-115168000D03*
%TD*%
D17*
%TO.N,_SEL1*%
X128295200Y-93062100D03*
%TO.N,_SEL3*%
X120795100Y-98128800D03*
%TO.N,DIR*%
X147765800Y-94474000D03*
%TO.N,_STEP*%
X149437400Y-95638300D03*
%TO.N,_DKWE*%
X139561800Y-114500400D03*
%TO.N,_TKO*%
X138848500Y-115276000D03*
%TO.N,_WPRO*%
X140275000Y-117813200D03*
%TO.N,_SIDE*%
X142072300Y-118611000D03*
%TO.N,_CHNG*%
X120873700Y-92350000D03*
X156131600Y-92672500D03*
%TO.N,_DRES*%
X120938400Y-95096000D03*
X156140100Y-95596900D03*
%TO.N,_SEL2*%
X156134800Y-97413200D03*
X129023700Y-93786200D03*
%TO.N,WR*%
X141539700Y-90450000D03*
%TO.N,_Enbl2*%
X133032900Y-99427900D03*
%TD*%
D18*
%TO.N,+5V*%
X144658000Y-116343000D02*
X144650000Y-116351000D01*
X144650000Y-116351000D02*
X139753800Y-116351000D01*
X139753800Y-116351000D02*
X135464000Y-120640800D01*
X135464000Y-120640800D02*
X131296900Y-120640800D01*
X131296900Y-120640800D02*
X129578000Y-118921900D01*
X129578000Y-118921900D02*
X129578000Y-118833000D01*
X127054000Y-115168000D02*
X125253700Y-115168000D01*
X127054000Y-110088000D02*
X125253700Y-110088000D01*
X125253700Y-110088000D02*
X125253700Y-115168000D01*
%TO.N,GND*%
X149800000Y-83193000D02*
X147260000Y-83193000D01*
X130333700Y-112628000D02*
X132873700Y-115168000D01*
X127054000Y-112628000D02*
X130333700Y-112628000D01*
X130333700Y-112628000D02*
X132873700Y-110088000D01*
X134674000Y-110088000D02*
X132873700Y-110088000D01*
X136474300Y-97388000D02*
X138238300Y-95624000D01*
X138238300Y-95624000D02*
X146136700Y-95624000D01*
X146136700Y-95624000D02*
X147956700Y-97444000D01*
X134674000Y-110088000D02*
X136474300Y-110088000D01*
X136474300Y-110088000D02*
X136474300Y-97388000D01*
X144720000Y-83193000D02*
X142180000Y-83193000D01*
X147260000Y-83193000D02*
X144720000Y-83193000D01*
X149757000Y-97444000D02*
X147956700Y-97444000D01*
X134674000Y-97388000D02*
X136474300Y-97388000D01*
X134674000Y-115168000D02*
X132873700Y-115168000D01*
%TO.N,+12V*%
X132020000Y-83145300D02*
X132020000Y-83113600D01*
X132020000Y-83113600D02*
X130231400Y-81325000D01*
X130231400Y-81325000D02*
X126170000Y-81325000D01*
X126170000Y-81325000D02*
X121184300Y-86310700D01*
X121184300Y-86310700D02*
X121184300Y-90941000D01*
X132020000Y-83193000D02*
X132020000Y-83145300D01*
X134560000Y-83145300D02*
X134560000Y-83193000D01*
X155759700Y-91141000D02*
X155759700Y-86180100D01*
X155759700Y-86180100D02*
X150890500Y-81310900D01*
X150890500Y-81310900D02*
X136346800Y-81310900D01*
X136346800Y-81310900D02*
X134560000Y-83097700D01*
X134560000Y-83097700D02*
X134560000Y-83145300D01*
X134560000Y-83145300D02*
X132020000Y-83145300D01*
X158500000Y-91141000D02*
X155759700Y-91141000D01*
X118444000Y-90941000D02*
X121184300Y-90941000D01*
D19*
%TO.N,_INDEX*%
X156434700Y-93911000D02*
X152595900Y-93911000D01*
X152595900Y-93911000D02*
X150405800Y-91720900D01*
X150405800Y-91720900D02*
X125549400Y-91720900D01*
X125549400Y-91720900D02*
X123559300Y-93711000D01*
X123559300Y-93711000D02*
X120509300Y-93711000D01*
X158500000Y-93911000D02*
X156434700Y-93911000D01*
X118444000Y-93711000D02*
X120509300Y-93711000D01*
%TO.N,_SEL1*%
X158500000Y-96681000D02*
X156434700Y-96681000D01*
X156434700Y-96681000D02*
X154053700Y-96681000D01*
X154053700Y-96681000D02*
X150042400Y-92669700D01*
X150042400Y-92669700D02*
X128687600Y-92669700D01*
X128687600Y-92669700D02*
X128295200Y-93062100D01*
%TO.N,_SEL3*%
X120795100Y-98128800D02*
X124035200Y-98128800D01*
X124035200Y-98128800D02*
X124035200Y-98128700D01*
X124035200Y-98128700D02*
X127398300Y-94765600D01*
X127398300Y-94765600D02*
X129071600Y-94765600D01*
X129071600Y-94765600D02*
X130263900Y-93573300D01*
X130263900Y-93573300D02*
X149035300Y-93573300D01*
X149035300Y-93573300D02*
X154913000Y-99451000D01*
X154913000Y-99451000D02*
X158500000Y-99451000D01*
%TO.N,DIR*%
X120509300Y-102021000D02*
X120859300Y-102021000D01*
X120859300Y-102021000D02*
X124968400Y-97911900D01*
X124968400Y-97911900D02*
X124968400Y-97832400D01*
X124968400Y-97832400D02*
X127584900Y-95215900D01*
X127584900Y-95215900D02*
X129444700Y-95215900D01*
X129444700Y-95215900D02*
X130637000Y-94023600D01*
X130637000Y-94023600D02*
X147315400Y-94023600D01*
X147315400Y-94023600D02*
X147765800Y-94474000D01*
X147765800Y-94474000D02*
X149299100Y-94474000D01*
X149299100Y-94474000D02*
X156434700Y-101609600D01*
X156434700Y-101609600D02*
X156434700Y-102221000D01*
X158500000Y-102221000D02*
X156434700Y-102221000D01*
X118444000Y-102021000D02*
X120509300Y-102021000D01*
%TO.N,_STEP*%
X149437400Y-95638300D02*
X149826500Y-95638300D01*
X149826500Y-95638300D02*
X153569800Y-99381600D01*
X153569800Y-99381600D02*
X153569800Y-102126100D01*
X153569800Y-102126100D02*
X156434700Y-104991000D01*
X120509300Y-104791000D02*
X121562300Y-103738000D01*
X121562300Y-103738000D02*
X127431800Y-103738000D01*
X127431800Y-103738000D02*
X129113500Y-102056300D01*
X129113500Y-102056300D02*
X129113500Y-101030100D01*
X129113500Y-101030100D02*
X135669700Y-94473900D01*
X135669700Y-94473900D02*
X146740000Y-94473900D01*
X146740000Y-94473900D02*
X147904400Y-95638300D01*
X147904400Y-95638300D02*
X149437400Y-95638300D01*
X118444000Y-104791000D02*
X120509300Y-104791000D01*
X158500000Y-104991000D02*
X156434700Y-104991000D01*
%TO.N,_DKWD*%
X118444000Y-107561000D02*
X120509300Y-107561000D01*
X149757000Y-112684000D02*
X148631700Y-112684000D01*
X148631700Y-112684000D02*
X147276500Y-111328800D01*
X147276500Y-111328800D02*
X140903500Y-111328800D01*
X140903500Y-111328800D02*
X135733700Y-116498600D01*
X135733700Y-116498600D02*
X124965000Y-116498600D01*
X124965000Y-116498600D02*
X123803500Y-115337100D01*
X123803500Y-115337100D02*
X123803500Y-110855200D01*
X123803500Y-110855200D02*
X120509300Y-107561000D01*
X150319700Y-112684000D02*
X149757000Y-112684000D01*
X158500000Y-107761000D02*
X155805300Y-107761000D01*
X155805300Y-107761000D02*
X150882300Y-112684000D01*
X150319700Y-112684000D02*
X150882300Y-112684000D01*
%TO.N,_DKWE*%
X120509300Y-110331000D02*
X123193900Y-113015600D01*
X123193900Y-113015600D02*
X123193900Y-115364400D01*
X123193900Y-115364400D02*
X124778400Y-116948900D01*
X124778400Y-116948900D02*
X135920300Y-116948900D01*
X135920300Y-116948900D02*
X138368800Y-114500400D01*
X138368800Y-114500400D02*
X139561800Y-114500400D01*
X118444000Y-110331000D02*
X120509300Y-110331000D01*
X158500000Y-110531000D02*
X156421800Y-110531000D01*
X156421800Y-110531000D02*
X152452400Y-114500400D01*
X152452400Y-114500400D02*
X139561800Y-114500400D01*
%TO.N,_TKO*%
X120509300Y-113101000D02*
X120509300Y-113316700D01*
X120509300Y-113316700D02*
X124591800Y-117399200D01*
X124591800Y-117399200D02*
X136725300Y-117399200D01*
X136725300Y-117399200D02*
X138848500Y-115276000D01*
X138848500Y-115276000D02*
X138898800Y-115225700D01*
X138898800Y-115225700D02*
X139862300Y-115225700D01*
X139862300Y-115225700D02*
X140096400Y-114991600D01*
X140096400Y-114991600D02*
X154744100Y-114991600D01*
X154744100Y-114991600D02*
X156434700Y-113301000D01*
X118444000Y-113101000D02*
X120509300Y-113101000D01*
X158500000Y-113301000D02*
X156434700Y-113301000D01*
%TO.N,_WPRO*%
X140275000Y-117813200D02*
X136320800Y-121767400D01*
X136320800Y-121767400D02*
X127485100Y-121767400D01*
X127485100Y-121767400D02*
X121588700Y-115871000D01*
X121588700Y-115871000D02*
X118444000Y-115871000D01*
X158500000Y-116071000D02*
X153752300Y-116071000D01*
X153752300Y-116071000D02*
X152010100Y-117813200D01*
X152010100Y-117813200D02*
X140275000Y-117813200D01*
%TO.N,_SIDE*%
X118444000Y-118670000D02*
X120509300Y-118670000D01*
X142072300Y-118611000D02*
X138434500Y-122248800D01*
X138434500Y-122248800D02*
X124088100Y-122248800D01*
X124088100Y-122248800D02*
X120509300Y-118670000D01*
X156434700Y-118611000D02*
X142072300Y-118611000D01*
X158500000Y-118611000D02*
X156434700Y-118611000D01*
%TO.N,_CHNG*%
X156131600Y-92672500D02*
X151994300Y-92672500D01*
X151994300Y-92672500D02*
X150528200Y-91206400D01*
X150528200Y-91206400D02*
X125426900Y-91206400D01*
X125426900Y-91206400D02*
X124283300Y-92350000D01*
X124283300Y-92350000D02*
X120873700Y-92350000D01*
%TO.N,_DRES*%
X120938400Y-95096000D02*
X124429000Y-95096000D01*
X124429000Y-95096000D02*
X127353700Y-92171300D01*
X127353700Y-92171300D02*
X150219300Y-92171300D01*
X150219300Y-92171300D02*
X153644900Y-95596900D01*
X153644900Y-95596900D02*
X156140100Y-95596900D01*
%TO.N,_SEL2*%
X129023700Y-93786200D02*
X129689800Y-93120100D01*
X129689800Y-93120100D02*
X149855900Y-93120100D01*
X149855900Y-93120100D02*
X154149000Y-97413200D01*
X154149000Y-97413200D02*
X156134800Y-97413200D01*
X129023700Y-93786200D02*
X128719700Y-94090200D01*
X128719700Y-94090200D02*
X127238800Y-94090200D01*
X127238800Y-94090200D02*
X124848000Y-96481000D01*
X124848000Y-96481000D02*
X118444000Y-96481000D01*
%TO.N,WR*%
X141539700Y-90450000D02*
X134197000Y-90450000D01*
X134197000Y-90450000D02*
X129480000Y-85733000D01*
%TO.N,_Enbl2*%
X127054000Y-105008000D02*
X128179300Y-105008000D01*
X128179300Y-105008000D02*
X128179300Y-104281500D01*
X128179300Y-104281500D02*
X133032900Y-99427900D01*
%TD*%
D20*
X156121928Y-119534333D02*
X156134188Y-119658815D01*
X156170498Y-119778513D01*
X156229463Y-119888827D01*
X156308815Y-119985518D01*
X156405506Y-120064870D01*
X156515820Y-120123835D01*
X156635518Y-120160145D01*
X156760000Y-120172405D01*
X159819749Y-120172405D01*
X159822815Y-131032960D01*
X117142814Y-131032960D01*
X117141896Y-127779872D01*
X117765000Y-127779872D01*
X117765000Y-128220128D01*
X117850890Y-128651925D01*
X118019369Y-129058669D01*
X118263962Y-129424729D01*
X118575271Y-129736038D01*
X118941331Y-129980631D01*
X119348075Y-130149110D01*
X119779872Y-130235000D01*
X120220128Y-130235000D01*
X120651925Y-130149110D01*
X121058669Y-129980631D01*
X121424729Y-129736038D01*
X121736038Y-129424729D01*
X121980631Y-129058669D01*
X122149110Y-128651925D01*
X122235000Y-128220128D01*
X122235000Y-127779872D01*
X154765000Y-127779872D01*
X154765000Y-128220128D01*
X154850890Y-128651925D01*
X155019369Y-129058669D01*
X155263962Y-129424729D01*
X155575271Y-129736038D01*
X155941331Y-129980631D01*
X156348075Y-130149110D01*
X156779872Y-130235000D01*
X157220128Y-130235000D01*
X157651925Y-130149110D01*
X158058669Y-129980631D01*
X158424729Y-129736038D01*
X158736038Y-129424729D01*
X158980631Y-129058669D01*
X159149110Y-128651925D01*
X159235000Y-128220128D01*
X159235000Y-127779872D01*
X159149110Y-127348075D01*
X158980631Y-126941331D01*
X158736038Y-126575271D01*
X158424729Y-126263962D01*
X158058669Y-126019369D01*
X157651925Y-125850890D01*
X157220128Y-125765000D01*
X156779872Y-125765000D01*
X156348075Y-125850890D01*
X155941331Y-126019369D01*
X155575271Y-126263962D01*
X155263962Y-126575271D01*
X155019369Y-126941331D01*
X154850890Y-127348075D01*
X154765000Y-127779872D01*
X122235000Y-127779872D01*
X122149110Y-127348075D01*
X121980631Y-126941331D01*
X121736038Y-126575271D01*
X121424729Y-126263962D01*
X121058669Y-126019369D01*
X120651925Y-125850890D01*
X120220128Y-125765000D01*
X119779872Y-125765000D01*
X119348075Y-125850890D01*
X118941331Y-126019369D01*
X118575271Y-126263962D01*
X118263962Y-126575271D01*
X118019369Y-126941331D01*
X117850890Y-127348075D01*
X117765000Y-127779872D01*
X117141896Y-127779872D01*
X117141219Y-125379514D01*
X125816000Y-125379514D01*
X125816000Y-125642486D01*
X125867304Y-125900405D01*
X125967939Y-126143359D01*
X126114038Y-126362013D01*
X126299987Y-126547962D01*
X126518641Y-126694061D01*
X126761595Y-126794696D01*
X127019514Y-126846000D01*
X127282486Y-126846000D01*
X127540405Y-126794696D01*
X127783359Y-126694061D01*
X128002013Y-126547962D01*
X128187962Y-126362013D01*
X128334061Y-126143359D01*
X128434696Y-125900405D01*
X128486000Y-125642486D01*
X128486000Y-125379514D01*
X133436000Y-125379514D01*
X133436000Y-125642486D01*
X133487304Y-125900405D01*
X133587939Y-126143359D01*
X133734038Y-126362013D01*
X133919987Y-126547962D01*
X134138641Y-126694061D01*
X134381595Y-126794696D01*
X134639514Y-126846000D01*
X134902486Y-126846000D01*
X135160405Y-126794696D01*
X135403359Y-126694061D01*
X135622013Y-126547962D01*
X135807962Y-126362013D01*
X135954061Y-126143359D01*
X136054696Y-125900405D01*
X136084282Y-125751665D01*
X140513000Y-125751665D01*
X140513000Y-126034335D01*
X140568147Y-126311574D01*
X140676320Y-126572727D01*
X140833363Y-126807759D01*
X141033241Y-127007637D01*
X141268273Y-127164680D01*
X141529426Y-127272853D01*
X141806665Y-127328000D01*
X142089335Y-127328000D01*
X142366574Y-127272853D01*
X142627727Y-127164680D01*
X142862759Y-127007637D01*
X143062637Y-126807759D01*
X143219680Y-126572727D01*
X143327853Y-126311574D01*
X143383000Y-126034335D01*
X143383000Y-125751665D01*
X143327853Y-125474426D01*
X143219680Y-125213273D01*
X143139317Y-125093000D01*
X148129928Y-125093000D01*
X148129928Y-126693000D01*
X148142188Y-126817482D01*
X148178498Y-126937180D01*
X148237463Y-127047494D01*
X148316815Y-127144185D01*
X148413506Y-127223537D01*
X148523820Y-127282502D01*
X148643518Y-127318812D01*
X148768000Y-127331072D01*
X150368000Y-127331072D01*
X150492482Y-127318812D01*
X150612180Y-127282502D01*
X150722494Y-127223537D01*
X150819185Y-127144185D01*
X150898537Y-127047494D01*
X150957502Y-126937180D01*
X150993812Y-126817482D01*
X151006072Y-126693000D01*
X151006072Y-125093000D01*
X150993812Y-124968518D01*
X150957502Y-124848820D01*
X150898537Y-124738506D01*
X150819185Y-124641815D01*
X150722494Y-124562463D01*
X150612180Y-124503498D01*
X150492482Y-124467188D01*
X150368000Y-124454928D01*
X148768000Y-124454928D01*
X148643518Y-124467188D01*
X148523820Y-124503498D01*
X148413506Y-124562463D01*
X148316815Y-124641815D01*
X148237463Y-124738506D01*
X148178498Y-124848820D01*
X148142188Y-124968518D01*
X148129928Y-125093000D01*
X143139317Y-125093000D01*
X143062637Y-124978241D01*
X142862759Y-124778363D01*
X142627727Y-124621320D01*
X142366574Y-124513147D01*
X142089335Y-124458000D01*
X141806665Y-124458000D01*
X141529426Y-124513147D01*
X141268273Y-124621320D01*
X141033241Y-124778363D01*
X140833363Y-124978241D01*
X140676320Y-125213273D01*
X140568147Y-125474426D01*
X140513000Y-125751665D01*
X136084282Y-125751665D01*
X136106000Y-125642486D01*
X136106000Y-125379514D01*
X136054696Y-125121595D01*
X135954061Y-124878641D01*
X135807962Y-124659987D01*
X135622013Y-124474038D01*
X135403359Y-124327939D01*
X135160405Y-124227304D01*
X134902486Y-124176000D01*
X134639514Y-124176000D01*
X134381595Y-124227304D01*
X134138641Y-124327939D01*
X133919987Y-124474038D01*
X133734038Y-124659987D01*
X133587939Y-124878641D01*
X133487304Y-125121595D01*
X133436000Y-125379514D01*
X128486000Y-125379514D01*
X128434696Y-125121595D01*
X128334061Y-124878641D01*
X128187962Y-124659987D01*
X128002013Y-124474038D01*
X127783359Y-124327939D01*
X127540405Y-124227304D01*
X127282486Y-124176000D01*
X127019514Y-124176000D01*
X126761595Y-124227304D01*
X126518641Y-124327939D01*
X126299987Y-124474038D01*
X126114038Y-124659987D01*
X125967939Y-124878641D01*
X125867304Y-125121595D01*
X125816000Y-125379514D01*
X117141219Y-125379514D01*
X117139765Y-120231405D01*
X120184000Y-120231405D01*
X120308482Y-120219145D01*
X120428180Y-120182835D01*
X120538494Y-120123870D01*
X120635185Y-120044518D01*
X120713540Y-119949042D01*
X123524305Y-122759808D01*
X123548099Y-122788801D01*
X123577092Y-122812595D01*
X123577096Y-122812599D01*
X123647785Y-122870611D01*
X123663824Y-122883774D01*
X123795853Y-122954346D01*
X123939114Y-122997803D01*
X124050767Y-123008800D01*
X124050776Y-123008800D01*
X124088099Y-123012476D01*
X124125422Y-123008800D01*
X138397178Y-123008800D01*
X138434500Y-123012476D01*
X138471822Y-123008800D01*
X138471833Y-123008800D01*
X138583486Y-122997803D01*
X138726747Y-122954346D01*
X138858776Y-122883774D01*
X138974501Y-122788801D01*
X138998304Y-122759797D01*
X139906436Y-121851665D01*
X140513000Y-121851665D01*
X140513000Y-122134335D01*
X140568147Y-122411574D01*
X140676320Y-122672727D01*
X140833363Y-122907759D01*
X141033241Y-123107637D01*
X141268273Y-123264680D01*
X141529426Y-123372853D01*
X141806665Y-123428000D01*
X142089335Y-123428000D01*
X142366574Y-123372853D01*
X142627727Y-123264680D01*
X142862759Y-123107637D01*
X143062637Y-122907759D01*
X143219680Y-122672727D01*
X143327853Y-122411574D01*
X143383000Y-122134335D01*
X143383000Y-121851665D01*
X143327853Y-121574426D01*
X143219680Y-121313273D01*
X143139317Y-121193000D01*
X148129928Y-121193000D01*
X148129928Y-122793000D01*
X148142188Y-122917482D01*
X148178498Y-123037180D01*
X148237463Y-123147494D01*
X148316815Y-123244185D01*
X148413506Y-123323537D01*
X148523820Y-123382502D01*
X148643518Y-123418812D01*
X148768000Y-123431072D01*
X150368000Y-123431072D01*
X150492482Y-123418812D01*
X150612180Y-123382502D01*
X150722494Y-123323537D01*
X150819185Y-123244185D01*
X150898537Y-123147494D01*
X150957502Y-123037180D01*
X150993812Y-122917482D01*
X151006072Y-122793000D01*
X151006072Y-121193000D01*
X150993812Y-121068518D01*
X150957502Y-120948820D01*
X150898537Y-120838506D01*
X150819185Y-120741815D01*
X150722494Y-120662463D01*
X150612180Y-120603498D01*
X150492482Y-120567188D01*
X150368000Y-120554928D01*
X148768000Y-120554928D01*
X148643518Y-120567188D01*
X148523820Y-120603498D01*
X148413506Y-120662463D01*
X148316815Y-120741815D01*
X148237463Y-120838506D01*
X148178498Y-120948820D01*
X148142188Y-121068518D01*
X148129928Y-121193000D01*
X143139317Y-121193000D01*
X143062637Y-121078241D01*
X142862759Y-120878363D01*
X142627727Y-120721320D01*
X142366574Y-120613147D01*
X142089335Y-120558000D01*
X141806665Y-120558000D01*
X141529426Y-120613147D01*
X141268273Y-120721320D01*
X141033241Y-120878363D01*
X140833363Y-121078241D01*
X140676320Y-121313273D01*
X140568147Y-121574426D01*
X140513000Y-121851665D01*
X139906436Y-121851665D01*
X142112102Y-119646000D01*
X142174239Y-119646000D01*
X142374198Y-119606226D01*
X142562556Y-119528205D01*
X142732074Y-119414937D01*
X142776011Y-119371000D01*
X156121928Y-119371000D01*
X156121928Y-119534333D01*
%TA.AperFunction,NonConductor*%
D21*
G36*
X156121928Y-119534333D02*
G01*
X156134188Y-119658815D01*
X156170498Y-119778513D01*
X156229463Y-119888827D01*
X156308815Y-119985518D01*
X156405506Y-120064870D01*
X156515820Y-120123835D01*
X156635518Y-120160145D01*
X156760000Y-120172405D01*
X159819749Y-120172405D01*
X159822815Y-131032960D01*
X117142814Y-131032960D01*
X117141896Y-127779872D01*
X117765000Y-127779872D01*
X117765000Y-128220128D01*
X117850890Y-128651925D01*
X118019369Y-129058669D01*
X118263962Y-129424729D01*
X118575271Y-129736038D01*
X118941331Y-129980631D01*
X119348075Y-130149110D01*
X119779872Y-130235000D01*
X120220128Y-130235000D01*
X120651925Y-130149110D01*
X121058669Y-129980631D01*
X121424729Y-129736038D01*
X121736038Y-129424729D01*
X121980631Y-129058669D01*
X122149110Y-128651925D01*
X122235000Y-128220128D01*
X122235000Y-127779872D01*
X154765000Y-127779872D01*
X154765000Y-128220128D01*
X154850890Y-128651925D01*
X155019369Y-129058669D01*
X155263962Y-129424729D01*
X155575271Y-129736038D01*
X155941331Y-129980631D01*
X156348075Y-130149110D01*
X156779872Y-130235000D01*
X157220128Y-130235000D01*
X157651925Y-130149110D01*
X158058669Y-129980631D01*
X158424729Y-129736038D01*
X158736038Y-129424729D01*
X158980631Y-129058669D01*
X159149110Y-128651925D01*
X159235000Y-128220128D01*
X159235000Y-127779872D01*
X159149110Y-127348075D01*
X158980631Y-126941331D01*
X158736038Y-126575271D01*
X158424729Y-126263962D01*
X158058669Y-126019369D01*
X157651925Y-125850890D01*
X157220128Y-125765000D01*
X156779872Y-125765000D01*
X156348075Y-125850890D01*
X155941331Y-126019369D01*
X155575271Y-126263962D01*
X155263962Y-126575271D01*
X155019369Y-126941331D01*
X154850890Y-127348075D01*
X154765000Y-127779872D01*
X122235000Y-127779872D01*
X122149110Y-127348075D01*
X121980631Y-126941331D01*
X121736038Y-126575271D01*
X121424729Y-126263962D01*
X121058669Y-126019369D01*
X120651925Y-125850890D01*
X120220128Y-125765000D01*
X119779872Y-125765000D01*
X119348075Y-125850890D01*
X118941331Y-126019369D01*
X118575271Y-126263962D01*
X118263962Y-126575271D01*
X118019369Y-126941331D01*
X117850890Y-127348075D01*
X117765000Y-127779872D01*
X117141896Y-127779872D01*
X117141219Y-125379514D01*
X125816000Y-125379514D01*
X125816000Y-125642486D01*
X125867304Y-125900405D01*
X125967939Y-126143359D01*
X126114038Y-126362013D01*
X126299987Y-126547962D01*
X126518641Y-126694061D01*
X126761595Y-126794696D01*
X127019514Y-126846000D01*
X127282486Y-126846000D01*
X127540405Y-126794696D01*
X127783359Y-126694061D01*
X128002013Y-126547962D01*
X128187962Y-126362013D01*
X128334061Y-126143359D01*
X128434696Y-125900405D01*
X128486000Y-125642486D01*
X128486000Y-125379514D01*
X133436000Y-125379514D01*
X133436000Y-125642486D01*
X133487304Y-125900405D01*
X133587939Y-126143359D01*
X133734038Y-126362013D01*
X133919987Y-126547962D01*
X134138641Y-126694061D01*
X134381595Y-126794696D01*
X134639514Y-126846000D01*
X134902486Y-126846000D01*
X135160405Y-126794696D01*
X135403359Y-126694061D01*
X135622013Y-126547962D01*
X135807962Y-126362013D01*
X135954061Y-126143359D01*
X136054696Y-125900405D01*
X136084282Y-125751665D01*
X140513000Y-125751665D01*
X140513000Y-126034335D01*
X140568147Y-126311574D01*
X140676320Y-126572727D01*
X140833363Y-126807759D01*
X141033241Y-127007637D01*
X141268273Y-127164680D01*
X141529426Y-127272853D01*
X141806665Y-127328000D01*
X142089335Y-127328000D01*
X142366574Y-127272853D01*
X142627727Y-127164680D01*
X142862759Y-127007637D01*
X143062637Y-126807759D01*
X143219680Y-126572727D01*
X143327853Y-126311574D01*
X143383000Y-126034335D01*
X143383000Y-125751665D01*
X143327853Y-125474426D01*
X143219680Y-125213273D01*
X143139317Y-125093000D01*
X148129928Y-125093000D01*
X148129928Y-126693000D01*
X148142188Y-126817482D01*
X148178498Y-126937180D01*
X148237463Y-127047494D01*
X148316815Y-127144185D01*
X148413506Y-127223537D01*
X148523820Y-127282502D01*
X148643518Y-127318812D01*
X148768000Y-127331072D01*
X150368000Y-127331072D01*
X150492482Y-127318812D01*
X150612180Y-127282502D01*
X150722494Y-127223537D01*
X150819185Y-127144185D01*
X150898537Y-127047494D01*
X150957502Y-126937180D01*
X150993812Y-126817482D01*
X151006072Y-126693000D01*
X151006072Y-125093000D01*
X150993812Y-124968518D01*
X150957502Y-124848820D01*
X150898537Y-124738506D01*
X150819185Y-124641815D01*
X150722494Y-124562463D01*
X150612180Y-124503498D01*
X150492482Y-124467188D01*
X150368000Y-124454928D01*
X148768000Y-124454928D01*
X148643518Y-124467188D01*
X148523820Y-124503498D01*
X148413506Y-124562463D01*
X148316815Y-124641815D01*
X148237463Y-124738506D01*
X148178498Y-124848820D01*
X148142188Y-124968518D01*
X148129928Y-125093000D01*
X143139317Y-125093000D01*
X143062637Y-124978241D01*
X142862759Y-124778363D01*
X142627727Y-124621320D01*
X142366574Y-124513147D01*
X142089335Y-124458000D01*
X141806665Y-124458000D01*
X141529426Y-124513147D01*
X141268273Y-124621320D01*
X141033241Y-124778363D01*
X140833363Y-124978241D01*
X140676320Y-125213273D01*
X140568147Y-125474426D01*
X140513000Y-125751665D01*
X136084282Y-125751665D01*
X136106000Y-125642486D01*
X136106000Y-125379514D01*
X136054696Y-125121595D01*
X135954061Y-124878641D01*
X135807962Y-124659987D01*
X135622013Y-124474038D01*
X135403359Y-124327939D01*
X135160405Y-124227304D01*
X134902486Y-124176000D01*
X134639514Y-124176000D01*
X134381595Y-124227304D01*
X134138641Y-124327939D01*
X133919987Y-124474038D01*
X133734038Y-124659987D01*
X133587939Y-124878641D01*
X133487304Y-125121595D01*
X133436000Y-125379514D01*
X128486000Y-125379514D01*
X128434696Y-125121595D01*
X128334061Y-124878641D01*
X128187962Y-124659987D01*
X128002013Y-124474038D01*
X127783359Y-124327939D01*
X127540405Y-124227304D01*
X127282486Y-124176000D01*
X127019514Y-124176000D01*
X126761595Y-124227304D01*
X126518641Y-124327939D01*
X126299987Y-124474038D01*
X126114038Y-124659987D01*
X125967939Y-124878641D01*
X125867304Y-125121595D01*
X125816000Y-125379514D01*
X117141219Y-125379514D01*
X117139765Y-120231405D01*
X120184000Y-120231405D01*
X120308482Y-120219145D01*
X120428180Y-120182835D01*
X120538494Y-120123870D01*
X120635185Y-120044518D01*
X120713540Y-119949042D01*
X123524305Y-122759808D01*
X123548099Y-122788801D01*
X123577092Y-122812595D01*
X123577096Y-122812599D01*
X123647785Y-122870611D01*
X123663824Y-122883774D01*
X123795853Y-122954346D01*
X123939114Y-122997803D01*
X124050767Y-123008800D01*
X124050776Y-123008800D01*
X124088099Y-123012476D01*
X124125422Y-123008800D01*
X138397178Y-123008800D01*
X138434500Y-123012476D01*
X138471822Y-123008800D01*
X138471833Y-123008800D01*
X138583486Y-122997803D01*
X138726747Y-122954346D01*
X138858776Y-122883774D01*
X138974501Y-122788801D01*
X138998304Y-122759797D01*
X139906436Y-121851665D01*
X140513000Y-121851665D01*
X140513000Y-122134335D01*
X140568147Y-122411574D01*
X140676320Y-122672727D01*
X140833363Y-122907759D01*
X141033241Y-123107637D01*
X141268273Y-123264680D01*
X141529426Y-123372853D01*
X141806665Y-123428000D01*
X142089335Y-123428000D01*
X142366574Y-123372853D01*
X142627727Y-123264680D01*
X142862759Y-123107637D01*
X143062637Y-122907759D01*
X143219680Y-122672727D01*
X143327853Y-122411574D01*
X143383000Y-122134335D01*
X143383000Y-121851665D01*
X143327853Y-121574426D01*
X143219680Y-121313273D01*
X143139317Y-121193000D01*
X148129928Y-121193000D01*
X148129928Y-122793000D01*
X148142188Y-122917482D01*
X148178498Y-123037180D01*
X148237463Y-123147494D01*
X148316815Y-123244185D01*
X148413506Y-123323537D01*
X148523820Y-123382502D01*
X148643518Y-123418812D01*
X148768000Y-123431072D01*
X150368000Y-123431072D01*
X150492482Y-123418812D01*
X150612180Y-123382502D01*
X150722494Y-123323537D01*
X150819185Y-123244185D01*
X150898537Y-123147494D01*
X150957502Y-123037180D01*
X150993812Y-122917482D01*
X151006072Y-122793000D01*
X151006072Y-121193000D01*
X150993812Y-121068518D01*
X150957502Y-120948820D01*
X150898537Y-120838506D01*
X150819185Y-120741815D01*
X150722494Y-120662463D01*
X150612180Y-120603498D01*
X150492482Y-120567188D01*
X150368000Y-120554928D01*
X148768000Y-120554928D01*
X148643518Y-120567188D01*
X148523820Y-120603498D01*
X148413506Y-120662463D01*
X148316815Y-120741815D01*
X148237463Y-120838506D01*
X148178498Y-120948820D01*
X148142188Y-121068518D01*
X148129928Y-121193000D01*
X143139317Y-121193000D01*
X143062637Y-121078241D01*
X142862759Y-120878363D01*
X142627727Y-120721320D01*
X142366574Y-120613147D01*
X142089335Y-120558000D01*
X141806665Y-120558000D01*
X141529426Y-120613147D01*
X141268273Y-120721320D01*
X141033241Y-120878363D01*
X140833363Y-121078241D01*
X140676320Y-121313273D01*
X140568147Y-121574426D01*
X140513000Y-121851665D01*
X139906436Y-121851665D01*
X142112102Y-119646000D01*
X142174239Y-119646000D01*
X142374198Y-119606226D01*
X142562556Y-119528205D01*
X142732074Y-119414937D01*
X142776011Y-119371000D01*
X156121928Y-119371000D01*
X156121928Y-119534333D01*
G37*
%TD.AperFunction*%
D20*
X126131698Y-121488800D02*
X124402903Y-121488800D01*
X121073104Y-118159003D01*
X121049301Y-118129999D01*
X120933576Y-118035026D01*
X120822072Y-117975425D01*
X120822072Y-117746667D01*
X120809812Y-117622185D01*
X120773502Y-117502487D01*
X120714537Y-117392173D01*
X120635185Y-117295482D01*
X120604744Y-117270500D01*
X120635185Y-117245518D01*
X120714537Y-117148827D01*
X120773502Y-117038513D01*
X120809812Y-116918815D01*
X120822072Y-116794333D01*
X120822072Y-116631000D01*
X121273899Y-116631000D01*
X126131698Y-121488800D01*
%TA.AperFunction,NonConductor*%
D21*
G36*
X126131698Y-121488800D02*
G01*
X124402903Y-121488800D01*
X121073104Y-118159003D01*
X121049301Y-118129999D01*
X120933576Y-118035026D01*
X120822072Y-117975425D01*
X120822072Y-117746667D01*
X120809812Y-117622185D01*
X120773502Y-117502487D01*
X120714537Y-117392173D01*
X120635185Y-117295482D01*
X120604744Y-117270500D01*
X120635185Y-117245518D01*
X120714537Y-117148827D01*
X120773502Y-117038513D01*
X120809812Y-116918815D01*
X120822072Y-116794333D01*
X120822072Y-116631000D01*
X121273899Y-116631000D01*
X126131698Y-121488800D01*
G37*
%TD.AperFunction*%
D20*
X138119699Y-121488800D02*
X137674201Y-121488800D01*
X140314802Y-118848200D01*
X140376939Y-118848200D01*
X140576898Y-118808426D01*
X140765256Y-118730405D01*
X140934774Y-118617137D01*
X140978711Y-118573200D01*
X141035298Y-118573200D01*
X138119699Y-121488800D01*
%TA.AperFunction,NonConductor*%
D21*
G36*
X138119699Y-121488800D02*
G01*
X137674201Y-121488800D01*
X140314802Y-118848200D01*
X140376939Y-118848200D01*
X140576898Y-118808426D01*
X140765256Y-118730405D01*
X140934774Y-118617137D01*
X140978711Y-118573200D01*
X141035298Y-118573200D01*
X138119699Y-121488800D01*
G37*
%TD.AperFunction*%
D20*
X128198147Y-118414426D02*
X128143000Y-118691665D01*
X128143000Y-118974335D01*
X128198147Y-119251574D01*
X128306320Y-119512727D01*
X128463363Y-119747759D01*
X128663241Y-119947637D01*
X128898273Y-120104680D01*
X129096218Y-120186672D01*
X129916946Y-121007400D01*
X127799902Y-121007400D01*
X124951701Y-118159200D01*
X128303865Y-118159200D01*
X128198147Y-118414426D01*
%TA.AperFunction,NonConductor*%
D21*
G36*
X128198147Y-118414426D02*
G01*
X128143000Y-118691665D01*
X128143000Y-118974335D01*
X128198147Y-119251574D01*
X128306320Y-119512727D01*
X128463363Y-119747759D01*
X128663241Y-119947637D01*
X128898273Y-120104680D01*
X129096218Y-120186672D01*
X129916946Y-121007400D01*
X127799902Y-121007400D01*
X124951701Y-118159200D01*
X128303865Y-118159200D01*
X128198147Y-118414426D01*
G37*
%TD.AperFunction*%
D20*
X134952447Y-119405800D02*
X133393971Y-119405800D01*
X133457853Y-119251574D01*
X133513000Y-118974335D01*
X133513000Y-118691665D01*
X133457853Y-118414426D01*
X133352135Y-118159200D01*
X136199047Y-118159200D01*
X134952447Y-119405800D01*
%TA.AperFunction,NonConductor*%
D21*
G36*
X134952447Y-119405800D02*
G01*
X133393971Y-119405800D01*
X133457853Y-119251574D01*
X133513000Y-118974335D01*
X133513000Y-118691665D01*
X133457853Y-118414426D01*
X133352135Y-118159200D01*
X136199047Y-118159200D01*
X134952447Y-119405800D01*
G37*
%TD.AperFunction*%
D20*
X156121928Y-116994333D02*
X156134188Y-117118815D01*
X156170498Y-117238513D01*
X156225279Y-117341000D01*
X156170498Y-117443487D01*
X156134188Y-117563185D01*
X156121928Y-117687667D01*
X156121928Y-117851000D01*
X153047101Y-117851000D01*
X154067102Y-116831000D01*
X156121928Y-116831000D01*
X156121928Y-116994333D01*
%TA.AperFunction,NonConductor*%
D21*
G36*
X156121928Y-116994333D02*
G01*
X156134188Y-117118815D01*
X156170498Y-117238513D01*
X156225279Y-117341000D01*
X156170498Y-117443487D01*
X156134188Y-117563185D01*
X156121928Y-117687667D01*
X156121928Y-117851000D01*
X153047101Y-117851000D01*
X154067102Y-116831000D01*
X156121928Y-116831000D01*
X156121928Y-116994333D01*
G37*
%TD.AperFunction*%
D20*
X151695299Y-117053200D02*
X148409319Y-117053200D01*
X148429680Y-117022727D01*
X148537853Y-116761574D01*
X148593000Y-116484335D01*
X148593000Y-116201665D01*
X148537853Y-115924426D01*
X148466266Y-115751600D01*
X152996898Y-115751600D01*
X151695299Y-117053200D01*
%TA.AperFunction,NonConductor*%
D21*
G36*
X151695299Y-117053200D02*
G01*
X148409319Y-117053200D01*
X148429680Y-117022727D01*
X148537853Y-116761574D01*
X148593000Y-116484335D01*
X148593000Y-116201665D01*
X148537853Y-115924426D01*
X148466266Y-115751600D01*
X152996898Y-115751600D01*
X151695299Y-117053200D01*
G37*
%TD.AperFunction*%
D20*
X131697746Y-115738600D02*
X128370882Y-115738600D01*
X128433853Y-115586574D01*
X128489000Y-115309335D01*
X128489000Y-115026665D01*
X128433853Y-114749426D01*
X128325680Y-114488273D01*
X128168637Y-114253241D01*
X127968759Y-114053363D01*
X127736241Y-113898000D01*
X127788623Y-113863000D01*
X129822147Y-113863000D01*
X131697746Y-115738600D01*
%TA.AperFunction,NonConductor*%
D21*
G36*
X131697746Y-115738600D02*
G01*
X128370882Y-115738600D01*
X128433853Y-115586574D01*
X128489000Y-115309335D01*
X128489000Y-115026665D01*
X128433853Y-114749426D01*
X128325680Y-114488273D01*
X128168637Y-114253241D01*
X127968759Y-114053363D01*
X127736241Y-113898000D01*
X127788623Y-113863000D01*
X129822147Y-113863000D01*
X131697746Y-115738600D01*
G37*
%TD.AperFunction*%
D20*
X156308815Y-114675518D02*
X156321587Y-114686000D01*
X156308815Y-114696482D01*
X156229463Y-114793173D01*
X156170498Y-114903487D01*
X156134188Y-115023185D01*
X156121928Y-115147667D01*
X156121928Y-115311000D01*
X155499501Y-115311000D01*
X156230460Y-114580042D01*
X156308815Y-114675518D01*
%TA.AperFunction,NonConductor*%
D21*
G36*
X156308815Y-114675518D02*
G01*
X156321587Y-114686000D01*
X156308815Y-114696482D01*
X156229463Y-114793173D01*
X156170498Y-114903487D01*
X156134188Y-115023185D01*
X156121928Y-115147667D01*
X156121928Y-115311000D01*
X155499501Y-115311000D01*
X156230460Y-114580042D01*
X156308815Y-114675518D01*
G37*
%TD.AperFunction*%
D20*
X121228799Y-115111000D02*
X120822072Y-115111000D01*
X120822072Y-114947667D01*
X120809812Y-114823185D01*
X120773502Y-114703487D01*
X120718631Y-114600832D01*
X121228799Y-115111000D01*
%TA.AperFunction,NonConductor*%
D21*
G36*
X121228799Y-115111000D02*
G01*
X120822072Y-115111000D01*
X120822072Y-114947667D01*
X120809812Y-114823185D01*
X120773502Y-114703487D01*
X120718631Y-114600832D01*
X121228799Y-115111000D01*
G37*
%TD.AperFunction*%
D20*
X140757147Y-97025426D02*
X140702000Y-97302665D01*
X140702000Y-97585335D01*
X140757147Y-97862574D01*
X140865320Y-98123727D01*
X141022363Y-98358759D01*
X141222241Y-98558637D01*
X141454759Y-98714000D01*
X141222241Y-98869363D01*
X141022363Y-99069241D01*
X140865320Y-99304273D01*
X140757147Y-99565426D01*
X140702000Y-99842665D01*
X140702000Y-100125335D01*
X140757147Y-100402574D01*
X140865320Y-100663727D01*
X141022363Y-100898759D01*
X141222241Y-101098637D01*
X141454759Y-101254000D01*
X141222241Y-101409363D01*
X141022363Y-101609241D01*
X140865320Y-101844273D01*
X140757147Y-102105426D01*
X140702000Y-102382665D01*
X140702000Y-102665335D01*
X140757147Y-102942574D01*
X140865320Y-103203727D01*
X141022363Y-103438759D01*
X141222241Y-103638637D01*
X141454759Y-103794000D01*
X141222241Y-103949363D01*
X141022363Y-104149241D01*
X140865320Y-104384273D01*
X140757147Y-104645426D01*
X140702000Y-104922665D01*
X140702000Y-105205335D01*
X140757147Y-105482574D01*
X140865320Y-105743727D01*
X141022363Y-105978759D01*
X141222241Y-106178637D01*
X141454759Y-106334000D01*
X141222241Y-106489363D01*
X141022363Y-106689241D01*
X140865320Y-106924273D01*
X140757147Y-107185426D01*
X140702000Y-107462665D01*
X140702000Y-107745335D01*
X140757147Y-108022574D01*
X140865320Y-108283727D01*
X141022363Y-108518759D01*
X141222241Y-108718637D01*
X141454759Y-108874000D01*
X141222241Y-109029363D01*
X141022363Y-109229241D01*
X140865320Y-109464273D01*
X140757147Y-109725426D01*
X140702000Y-110002665D01*
X140702000Y-110285335D01*
X140757147Y-110562574D01*
X140763898Y-110578873D01*
X140754514Y-110579797D01*
X140611253Y-110623254D01*
X140479224Y-110693826D01*
X140363499Y-110788799D01*
X140339701Y-110817797D01*
X136112072Y-115045427D01*
X136112072Y-114368000D01*
X136099812Y-114243518D01*
X136063502Y-114123820D01*
X136004537Y-114013506D01*
X135925185Y-113916815D01*
X135828494Y-113837463D01*
X135718180Y-113778498D01*
X135598482Y-113742188D01*
X135590039Y-113741357D01*
X135788637Y-113542759D01*
X135945680Y-113307727D01*
X136053853Y-113046574D01*
X136109000Y-112769335D01*
X136109000Y-112486665D01*
X136053853Y-112209426D01*
X135945680Y-111948273D01*
X135788637Y-111713241D01*
X135588759Y-111513363D01*
X135356241Y-111358000D01*
X135408623Y-111323000D01*
X136413635Y-111323000D01*
X136474300Y-111328975D01*
X136534965Y-111323000D01*
X136716402Y-111305130D01*
X136949201Y-111234511D01*
X137163749Y-111119833D01*
X137351802Y-110965502D01*
X137506133Y-110777449D01*
X137620811Y-110562901D01*
X137691430Y-110330102D01*
X137715275Y-110088000D01*
X137709300Y-110027335D01*
X137709300Y-97899553D01*
X138749854Y-96859000D01*
X140826083Y-96859000D01*
X140757147Y-97025426D01*
%TA.AperFunction,NonConductor*%
D21*
G36*
X140757147Y-97025426D02*
G01*
X140702000Y-97302665D01*
X140702000Y-97585335D01*
X140757147Y-97862574D01*
X140865320Y-98123727D01*
X141022363Y-98358759D01*
X141222241Y-98558637D01*
X141454759Y-98714000D01*
X141222241Y-98869363D01*
X141022363Y-99069241D01*
X140865320Y-99304273D01*
X140757147Y-99565426D01*
X140702000Y-99842665D01*
X140702000Y-100125335D01*
X140757147Y-100402574D01*
X140865320Y-100663727D01*
X141022363Y-100898759D01*
X141222241Y-101098637D01*
X141454759Y-101254000D01*
X141222241Y-101409363D01*
X141022363Y-101609241D01*
X140865320Y-101844273D01*
X140757147Y-102105426D01*
X140702000Y-102382665D01*
X140702000Y-102665335D01*
X140757147Y-102942574D01*
X140865320Y-103203727D01*
X141022363Y-103438759D01*
X141222241Y-103638637D01*
X141454759Y-103794000D01*
X141222241Y-103949363D01*
X141022363Y-104149241D01*
X140865320Y-104384273D01*
X140757147Y-104645426D01*
X140702000Y-104922665D01*
X140702000Y-105205335D01*
X140757147Y-105482574D01*
X140865320Y-105743727D01*
X141022363Y-105978759D01*
X141222241Y-106178637D01*
X141454759Y-106334000D01*
X141222241Y-106489363D01*
X141022363Y-106689241D01*
X140865320Y-106924273D01*
X140757147Y-107185426D01*
X140702000Y-107462665D01*
X140702000Y-107745335D01*
X140757147Y-108022574D01*
X140865320Y-108283727D01*
X141022363Y-108518759D01*
X141222241Y-108718637D01*
X141454759Y-108874000D01*
X141222241Y-109029363D01*
X141022363Y-109229241D01*
X140865320Y-109464273D01*
X140757147Y-109725426D01*
X140702000Y-110002665D01*
X140702000Y-110285335D01*
X140757147Y-110562574D01*
X140763898Y-110578873D01*
X140754514Y-110579797D01*
X140611253Y-110623254D01*
X140479224Y-110693826D01*
X140363499Y-110788799D01*
X140339701Y-110817797D01*
X136112072Y-115045427D01*
X136112072Y-114368000D01*
X136099812Y-114243518D01*
X136063502Y-114123820D01*
X136004537Y-114013506D01*
X135925185Y-113916815D01*
X135828494Y-113837463D01*
X135718180Y-113778498D01*
X135598482Y-113742188D01*
X135590039Y-113741357D01*
X135788637Y-113542759D01*
X135945680Y-113307727D01*
X136053853Y-113046574D01*
X136109000Y-112769335D01*
X136109000Y-112486665D01*
X136053853Y-112209426D01*
X135945680Y-111948273D01*
X135788637Y-111713241D01*
X135588759Y-111513363D01*
X135356241Y-111358000D01*
X135408623Y-111323000D01*
X136413635Y-111323000D01*
X136474300Y-111328975D01*
X136534965Y-111323000D01*
X136716402Y-111305130D01*
X136949201Y-111234511D01*
X137163749Y-111119833D01*
X137351802Y-110965502D01*
X137506133Y-110777449D01*
X137620811Y-110562901D01*
X137691430Y-110330102D01*
X137715275Y-110088000D01*
X137709300Y-110027335D01*
X137709300Y-97899553D01*
X138749854Y-96859000D01*
X140826083Y-96859000D01*
X140757147Y-97025426D01*
G37*
%TD.AperFunction*%
D20*
X156229463Y-111808827D02*
X156308815Y-111905518D01*
X156321587Y-111916000D01*
X156308815Y-111926482D01*
X156229463Y-112023173D01*
X156170498Y-112133487D01*
X156134188Y-112253185D01*
X156121928Y-112377667D01*
X156121928Y-112606425D01*
X156010424Y-112666026D01*
X156010422Y-112666027D01*
X156010423Y-112666027D01*
X155923696Y-112737201D01*
X155923692Y-112737205D01*
X155894699Y-112760999D01*
X155870905Y-112789992D01*
X154429299Y-114231600D01*
X153796001Y-114231600D01*
X156225740Y-111801862D01*
X156229463Y-111808827D01*
%TA.AperFunction,NonConductor*%
D21*
G36*
X156229463Y-111808827D02*
G01*
X156308815Y-111905518D01*
X156321587Y-111916000D01*
X156308815Y-111926482D01*
X156229463Y-112023173D01*
X156170498Y-112133487D01*
X156134188Y-112253185D01*
X156121928Y-112377667D01*
X156121928Y-112606425D01*
X156010424Y-112666026D01*
X156010422Y-112666027D01*
X156010423Y-112666027D01*
X155923696Y-112737201D01*
X155923692Y-112737205D01*
X155894699Y-112760999D01*
X155870905Y-112789992D01*
X154429299Y-114231600D01*
X153796001Y-114231600D01*
X156225740Y-111801862D01*
X156229463Y-111808827D01*
G37*
%TD.AperFunction*%
D20*
X122433900Y-113330402D02*
X122433900Y-114166499D01*
X121262552Y-112995151D01*
X121258303Y-112952014D01*
X121214846Y-112808753D01*
X121144274Y-112676724D01*
X121049301Y-112560999D01*
X120933576Y-112466026D01*
X120822072Y-112406425D01*
X120822072Y-112177667D01*
X120809812Y-112053185D01*
X120773502Y-111933487D01*
X120714537Y-111823173D01*
X120635185Y-111726482D01*
X120622413Y-111716000D01*
X120635185Y-111705518D01*
X120713540Y-111610042D01*
X122433900Y-113330402D01*
%TA.AperFunction,NonConductor*%
D21*
G36*
X122433900Y-113330402D02*
G01*
X122433900Y-114166499D01*
X121262552Y-112995151D01*
X121258303Y-112952014D01*
X121214846Y-112808753D01*
X121144274Y-112676724D01*
X121049301Y-112560999D01*
X120933576Y-112466026D01*
X120822072Y-112406425D01*
X120822072Y-112177667D01*
X120809812Y-112053185D01*
X120773502Y-111933487D01*
X120714537Y-111823173D01*
X120635185Y-111726482D01*
X120622413Y-111716000D01*
X120635185Y-111705518D01*
X120713540Y-111610042D01*
X122433900Y-113330402D01*
G37*
%TD.AperFunction*%
D20*
X133991759Y-111358000D02*
X133759241Y-111513363D01*
X133559363Y-111713241D01*
X133402320Y-111948273D01*
X133294147Y-112209426D01*
X133239000Y-112486665D01*
X133239000Y-112769335D01*
X133294147Y-113046574D01*
X133402320Y-113307727D01*
X133559363Y-113542759D01*
X133757961Y-113741357D01*
X133749518Y-113742188D01*
X133629820Y-113778498D01*
X133519506Y-113837463D01*
X133422815Y-113916815D01*
X133409532Y-113933000D01*
X133385254Y-113933000D01*
X132080253Y-112628000D01*
X133385254Y-111323000D01*
X133939377Y-111323000D01*
X133991759Y-111358000D01*
%TA.AperFunction,NonConductor*%
D21*
G36*
X133991759Y-111358000D02*
G01*
X133759241Y-111513363D01*
X133559363Y-111713241D01*
X133402320Y-111948273D01*
X133294147Y-112209426D01*
X133239000Y-112486665D01*
X133239000Y-112769335D01*
X133294147Y-113046574D01*
X133402320Y-113307727D01*
X133559363Y-113542759D01*
X133757961Y-113741357D01*
X133749518Y-113742188D01*
X133629820Y-113778498D01*
X133519506Y-113837463D01*
X133422815Y-113916815D01*
X133409532Y-113933000D01*
X133385254Y-113933000D01*
X132080253Y-112628000D01*
X133385254Y-111323000D01*
X133939377Y-111323000D01*
X133991759Y-111358000D01*
G37*
%TD.AperFunction*%
D20*
X140702000Y-112825335D02*
X140757147Y-113102574D01*
X140865320Y-113363727D01*
X141022363Y-113598759D01*
X141164004Y-113740400D01*
X140265511Y-113740400D01*
X140221574Y-113696463D01*
X140052056Y-113583195D01*
X139863698Y-113505174D01*
X139812176Y-113494926D01*
X140702000Y-112605102D01*
X140702000Y-112825335D01*
%TA.AperFunction,NonConductor*%
D21*
G36*
X140702000Y-112825335D02*
G01*
X140757147Y-113102574D01*
X140865320Y-113363727D01*
X141022363Y-113598759D01*
X141164004Y-113740400D01*
X140265511Y-113740400D01*
X140221574Y-113696463D01*
X140052056Y-113583195D01*
X139863698Y-113505174D01*
X139812176Y-113494926D01*
X140702000Y-112605102D01*
X140702000Y-112825335D01*
G37*
%TD.AperFunction*%
D20*
X148067901Y-113195003D02*
X148091699Y-113224001D01*
X148207424Y-113318974D01*
X148318928Y-113378575D01*
X148318928Y-113484000D01*
X148331188Y-113608482D01*
X148367498Y-113728180D01*
X148374030Y-113740400D01*
X143109996Y-113740400D01*
X143251637Y-113598759D01*
X143408680Y-113363727D01*
X143516853Y-113102574D01*
X143572000Y-112825335D01*
X143572000Y-112542665D01*
X143516853Y-112265426D01*
X143443692Y-112088800D01*
X146961699Y-112088800D01*
X148067901Y-113195003D01*
%TA.AperFunction,NonConductor*%
D21*
G36*
X148067901Y-113195003D02*
G01*
X148091699Y-113224001D01*
X148207424Y-113318974D01*
X148318928Y-113378575D01*
X148318928Y-113484000D01*
X148331188Y-113608482D01*
X148367498Y-113728180D01*
X148374030Y-113740400D01*
X143109996Y-113740400D01*
X143251637Y-113598759D01*
X143408680Y-113363727D01*
X143516853Y-113102574D01*
X143572000Y-112825335D01*
X143572000Y-112542665D01*
X143516853Y-112265426D01*
X143443692Y-112088800D01*
X146961699Y-112088800D01*
X148067901Y-113195003D01*
G37*
%TD.AperFunction*%
D20*
X156121928Y-108684333D02*
X156134188Y-108808815D01*
X156170498Y-108928513D01*
X156229463Y-109038827D01*
X156308815Y-109135518D01*
X156321587Y-109146000D01*
X156308815Y-109156482D01*
X156229463Y-109253173D01*
X156170498Y-109363487D01*
X156134188Y-109483185D01*
X156121928Y-109607667D01*
X156121928Y-109829530D01*
X155997524Y-109896026D01*
X155881799Y-109990999D01*
X155858001Y-110019997D01*
X152137599Y-113740400D01*
X151139970Y-113740400D01*
X151146502Y-113728180D01*
X151182812Y-113608482D01*
X151195072Y-113484000D01*
X151195072Y-113378575D01*
X151306576Y-113318974D01*
X151422301Y-113224001D01*
X151446104Y-113194997D01*
X156120102Y-108521000D01*
X156121928Y-108521000D01*
X156121928Y-108684333D01*
%TA.AperFunction,NonConductor*%
D21*
G36*
X156121928Y-108684333D02*
G01*
X156134188Y-108808815D01*
X156170498Y-108928513D01*
X156229463Y-109038827D01*
X156308815Y-109135518D01*
X156321587Y-109146000D01*
X156308815Y-109156482D01*
X156229463Y-109253173D01*
X156170498Y-109363487D01*
X156134188Y-109483185D01*
X156121928Y-109607667D01*
X156121928Y-109829530D01*
X155997524Y-109896026D01*
X155881799Y-109990999D01*
X155858001Y-110019997D01*
X152137599Y-113740400D01*
X151139970Y-113740400D01*
X151146502Y-113728180D01*
X151182812Y-113608482D01*
X151195072Y-113484000D01*
X151195072Y-113378575D01*
X151306576Y-113318974D01*
X151422301Y-113224001D01*
X151446104Y-113194997D01*
X156120102Y-108521000D01*
X156121928Y-108521000D01*
X156121928Y-108684333D01*
G37*
%TD.AperFunction*%
D20*
X123043501Y-111170003D02*
X123043501Y-111790399D01*
X121073104Y-109820003D01*
X121049301Y-109790999D01*
X120933576Y-109696026D01*
X120822072Y-109636425D01*
X120822072Y-109407667D01*
X120809812Y-109283185D01*
X120773502Y-109163487D01*
X120714537Y-109053173D01*
X120635185Y-108956482D01*
X120622413Y-108946000D01*
X120635185Y-108935518D01*
X120713540Y-108840042D01*
X123043501Y-111170003D01*
%TA.AperFunction,NonConductor*%
D21*
G36*
X123043501Y-111170003D02*
G01*
X123043501Y-111790399D01*
X121073104Y-109820003D01*
X121049301Y-109790999D01*
X120933576Y-109696026D01*
X120822072Y-109636425D01*
X120822072Y-109407667D01*
X120809812Y-109283185D01*
X120773502Y-109163487D01*
X120714537Y-109053173D01*
X120635185Y-108956482D01*
X120622413Y-108946000D01*
X120635185Y-108935518D01*
X120713540Y-108840042D01*
X123043501Y-111170003D01*
G37*
%TD.AperFunction*%
D20*
X147040526Y-98274380D02*
X147079198Y-98321502D01*
X147267251Y-98475833D01*
X147481799Y-98590511D01*
X147620538Y-98632597D01*
X147714598Y-98661130D01*
X147956700Y-98684975D01*
X148017365Y-98679000D01*
X149022377Y-98679000D01*
X149074759Y-98714000D01*
X148842241Y-98869363D01*
X148642363Y-99069241D01*
X148485320Y-99304273D01*
X148377147Y-99565426D01*
X148322000Y-99842665D01*
X148322000Y-100125335D01*
X148377147Y-100402574D01*
X148485320Y-100663727D01*
X148642363Y-100898759D01*
X148842241Y-101098637D01*
X149074759Y-101254000D01*
X148842241Y-101409363D01*
X148642363Y-101609241D01*
X148485320Y-101844273D01*
X148377147Y-102105426D01*
X148322000Y-102382665D01*
X148322000Y-102665335D01*
X148377147Y-102942574D01*
X148485320Y-103203727D01*
X148642363Y-103438759D01*
X148842241Y-103638637D01*
X149074759Y-103794000D01*
X148842241Y-103949363D01*
X148642363Y-104149241D01*
X148485320Y-104384273D01*
X148377147Y-104645426D01*
X148322000Y-104922665D01*
X148322000Y-105205335D01*
X148377147Y-105482574D01*
X148485320Y-105743727D01*
X148642363Y-105978759D01*
X148842241Y-106178637D01*
X149074759Y-106334000D01*
X148842241Y-106489363D01*
X148642363Y-106689241D01*
X148485320Y-106924273D01*
X148377147Y-107185426D01*
X148322000Y-107462665D01*
X148322000Y-107745335D01*
X148377147Y-108022574D01*
X148485320Y-108283727D01*
X148642363Y-108518759D01*
X148842241Y-108718637D01*
X149074759Y-108874000D01*
X148842241Y-109029363D01*
X148642363Y-109229241D01*
X148485320Y-109464273D01*
X148377147Y-109725426D01*
X148322000Y-110002665D01*
X148322000Y-110285335D01*
X148377147Y-110562574D01*
X148485320Y-110823727D01*
X148642363Y-111058759D01*
X148840961Y-111257357D01*
X148832518Y-111258188D01*
X148712820Y-111294498D01*
X148602506Y-111353463D01*
X148505815Y-111432815D01*
X148483053Y-111460551D01*
X147840304Y-110817803D01*
X147816501Y-110788799D01*
X147700776Y-110693826D01*
X147568747Y-110623254D01*
X147425486Y-110579797D01*
X147313833Y-110568800D01*
X147313822Y-110568800D01*
X147276500Y-110565124D01*
X147239178Y-110568800D01*
X143514274Y-110568800D01*
X143516853Y-110562574D01*
X143572000Y-110285335D01*
X143572000Y-110002665D01*
X143516853Y-109725426D01*
X143408680Y-109464273D01*
X143251637Y-109229241D01*
X143051759Y-109029363D01*
X142819241Y-108874000D01*
X143051759Y-108718637D01*
X143251637Y-108518759D01*
X143408680Y-108283727D01*
X143516853Y-108022574D01*
X143572000Y-107745335D01*
X143572000Y-107462665D01*
X143516853Y-107185426D01*
X143408680Y-106924273D01*
X143251637Y-106689241D01*
X143051759Y-106489363D01*
X142819241Y-106334000D01*
X143051759Y-106178637D01*
X143251637Y-105978759D01*
X143408680Y-105743727D01*
X143516853Y-105482574D01*
X143572000Y-105205335D01*
X143572000Y-104922665D01*
X143516853Y-104645426D01*
X143408680Y-104384273D01*
X143251637Y-104149241D01*
X143051759Y-103949363D01*
X142819241Y-103794000D01*
X143051759Y-103638637D01*
X143251637Y-103438759D01*
X143408680Y-103203727D01*
X143516853Y-102942574D01*
X143572000Y-102665335D01*
X143572000Y-102382665D01*
X143516853Y-102105426D01*
X143408680Y-101844273D01*
X143251637Y-101609241D01*
X143051759Y-101409363D01*
X142819241Y-101254000D01*
X143051759Y-101098637D01*
X143251637Y-100898759D01*
X143408680Y-100663727D01*
X143516853Y-100402574D01*
X143572000Y-100125335D01*
X143572000Y-99842665D01*
X143516853Y-99565426D01*
X143408680Y-99304273D01*
X143251637Y-99069241D01*
X143051759Y-98869363D01*
X142819241Y-98714000D01*
X143051759Y-98558637D01*
X143251637Y-98358759D01*
X143408680Y-98123727D01*
X143516853Y-97862574D01*
X143572000Y-97585335D01*
X143572000Y-97302665D01*
X143516853Y-97025426D01*
X143447917Y-96859000D01*
X145625147Y-96859000D01*
X147040526Y-98274380D01*
%TA.AperFunction,NonConductor*%
D21*
G36*
X147040526Y-98274380D02*
G01*
X147079198Y-98321502D01*
X147267251Y-98475833D01*
X147481799Y-98590511D01*
X147620538Y-98632597D01*
X147714598Y-98661130D01*
X147956700Y-98684975D01*
X148017365Y-98679000D01*
X149022377Y-98679000D01*
X149074759Y-98714000D01*
X148842241Y-98869363D01*
X148642363Y-99069241D01*
X148485320Y-99304273D01*
X148377147Y-99565426D01*
X148322000Y-99842665D01*
X148322000Y-100125335D01*
X148377147Y-100402574D01*
X148485320Y-100663727D01*
X148642363Y-100898759D01*
X148842241Y-101098637D01*
X149074759Y-101254000D01*
X148842241Y-101409363D01*
X148642363Y-101609241D01*
X148485320Y-101844273D01*
X148377147Y-102105426D01*
X148322000Y-102382665D01*
X148322000Y-102665335D01*
X148377147Y-102942574D01*
X148485320Y-103203727D01*
X148642363Y-103438759D01*
X148842241Y-103638637D01*
X149074759Y-103794000D01*
X148842241Y-103949363D01*
X148642363Y-104149241D01*
X148485320Y-104384273D01*
X148377147Y-104645426D01*
X148322000Y-104922665D01*
X148322000Y-105205335D01*
X148377147Y-105482574D01*
X148485320Y-105743727D01*
X148642363Y-105978759D01*
X148842241Y-106178637D01*
X149074759Y-106334000D01*
X148842241Y-106489363D01*
X148642363Y-106689241D01*
X148485320Y-106924273D01*
X148377147Y-107185426D01*
X148322000Y-107462665D01*
X148322000Y-107745335D01*
X148377147Y-108022574D01*
X148485320Y-108283727D01*
X148642363Y-108518759D01*
X148842241Y-108718637D01*
X149074759Y-108874000D01*
X148842241Y-109029363D01*
X148642363Y-109229241D01*
X148485320Y-109464273D01*
X148377147Y-109725426D01*
X148322000Y-110002665D01*
X148322000Y-110285335D01*
X148377147Y-110562574D01*
X148485320Y-110823727D01*
X148642363Y-111058759D01*
X148840961Y-111257357D01*
X148832518Y-111258188D01*
X148712820Y-111294498D01*
X148602506Y-111353463D01*
X148505815Y-111432815D01*
X148483053Y-111460551D01*
X147840304Y-110817803D01*
X147816501Y-110788799D01*
X147700776Y-110693826D01*
X147568747Y-110623254D01*
X147425486Y-110579797D01*
X147313833Y-110568800D01*
X147313822Y-110568800D01*
X147276500Y-110565124D01*
X147239178Y-110568800D01*
X143514274Y-110568800D01*
X143516853Y-110562574D01*
X143572000Y-110285335D01*
X143572000Y-110002665D01*
X143516853Y-109725426D01*
X143408680Y-109464273D01*
X143251637Y-109229241D01*
X143051759Y-109029363D01*
X142819241Y-108874000D01*
X143051759Y-108718637D01*
X143251637Y-108518759D01*
X143408680Y-108283727D01*
X143516853Y-108022574D01*
X143572000Y-107745335D01*
X143572000Y-107462665D01*
X143516853Y-107185426D01*
X143408680Y-106924273D01*
X143251637Y-106689241D01*
X143051759Y-106489363D01*
X142819241Y-106334000D01*
X143051759Y-106178637D01*
X143251637Y-105978759D01*
X143408680Y-105743727D01*
X143516853Y-105482574D01*
X143572000Y-105205335D01*
X143572000Y-104922665D01*
X143516853Y-104645426D01*
X143408680Y-104384273D01*
X143251637Y-104149241D01*
X143051759Y-103949363D01*
X142819241Y-103794000D01*
X143051759Y-103638637D01*
X143251637Y-103438759D01*
X143408680Y-103203727D01*
X143516853Y-102942574D01*
X143572000Y-102665335D01*
X143572000Y-102382665D01*
X143516853Y-102105426D01*
X143408680Y-101844273D01*
X143251637Y-101609241D01*
X143051759Y-101409363D01*
X142819241Y-101254000D01*
X143051759Y-101098637D01*
X143251637Y-100898759D01*
X143408680Y-100663727D01*
X143516853Y-100402574D01*
X143572000Y-100125335D01*
X143572000Y-99842665D01*
X143516853Y-99565426D01*
X143408680Y-99304273D01*
X143251637Y-99069241D01*
X143051759Y-98869363D01*
X142819241Y-98714000D01*
X143051759Y-98558637D01*
X143251637Y-98358759D01*
X143408680Y-98123727D01*
X143516853Y-97862574D01*
X143572000Y-97585335D01*
X143572000Y-97302665D01*
X143516853Y-97025426D01*
X143447917Y-96859000D01*
X145625147Y-96859000D01*
X147040526Y-98274380D01*
G37*
%TD.AperFunction*%
D20*
X152809800Y-99696402D02*
X152809801Y-102088768D01*
X152806124Y-102126100D01*
X152820798Y-102275085D01*
X152864254Y-102418346D01*
X152934826Y-102550376D01*
X152983213Y-102609335D01*
X153029800Y-102666101D01*
X153058798Y-102689899D01*
X155870905Y-105502008D01*
X155894699Y-105531001D01*
X155923692Y-105554795D01*
X155923696Y-105554799D01*
X155994385Y-105612811D01*
X156010424Y-105625974D01*
X156121928Y-105685575D01*
X156121928Y-105914333D01*
X156134188Y-106038815D01*
X156170498Y-106158513D01*
X156229463Y-106268827D01*
X156308815Y-106365518D01*
X156321587Y-106376000D01*
X156308815Y-106386482D01*
X156229463Y-106483173D01*
X156170498Y-106593487D01*
X156134188Y-106713185D01*
X156121928Y-106837667D01*
X156121928Y-107001000D01*
X155842622Y-107001000D01*
X155805299Y-106997324D01*
X155767976Y-107001000D01*
X155767967Y-107001000D01*
X155656314Y-107011997D01*
X155513053Y-107055454D01*
X155381024Y-107126026D01*
X155265299Y-107220999D01*
X155241501Y-107249997D01*
X151030948Y-111460551D01*
X151008185Y-111432815D01*
X150911494Y-111353463D01*
X150801180Y-111294498D01*
X150681482Y-111258188D01*
X150673039Y-111257357D01*
X150871637Y-111058759D01*
X151028680Y-110823727D01*
X151136853Y-110562574D01*
X151192000Y-110285335D01*
X151192000Y-110002665D01*
X151136853Y-109725426D01*
X151028680Y-109464273D01*
X150871637Y-109229241D01*
X150671759Y-109029363D01*
X150439241Y-108874000D01*
X150671759Y-108718637D01*
X150871637Y-108518759D01*
X151028680Y-108283727D01*
X151136853Y-108022574D01*
X151192000Y-107745335D01*
X151192000Y-107462665D01*
X151136853Y-107185426D01*
X151028680Y-106924273D01*
X150871637Y-106689241D01*
X150671759Y-106489363D01*
X150439241Y-106334000D01*
X150671759Y-106178637D01*
X150871637Y-105978759D01*
X151028680Y-105743727D01*
X151136853Y-105482574D01*
X151192000Y-105205335D01*
X151192000Y-104922665D01*
X151136853Y-104645426D01*
X151028680Y-104384273D01*
X150871637Y-104149241D01*
X150671759Y-103949363D01*
X150439241Y-103794000D01*
X150671759Y-103638637D01*
X150871637Y-103438759D01*
X151028680Y-103203727D01*
X151136853Y-102942574D01*
X151192000Y-102665335D01*
X151192000Y-102382665D01*
X151136853Y-102105426D01*
X151028680Y-101844273D01*
X150871637Y-101609241D01*
X150671759Y-101409363D01*
X150439241Y-101254000D01*
X150671759Y-101098637D01*
X150871637Y-100898759D01*
X151028680Y-100663727D01*
X151136853Y-100402574D01*
X151192000Y-100125335D01*
X151192000Y-99842665D01*
X151136853Y-99565426D01*
X151028680Y-99304273D01*
X150871637Y-99069241D01*
X150671759Y-98869363D01*
X150439241Y-98714000D01*
X150671759Y-98558637D01*
X150871637Y-98358759D01*
X151028680Y-98123727D01*
X151089732Y-97976334D01*
X152809800Y-99696402D01*
%TA.AperFunction,NonConductor*%
D21*
G36*
X152809800Y-99696402D02*
G01*
X152809801Y-102088768D01*
X152806124Y-102126100D01*
X152820798Y-102275085D01*
X152864254Y-102418346D01*
X152934826Y-102550376D01*
X152983213Y-102609335D01*
X153029800Y-102666101D01*
X153058798Y-102689899D01*
X155870905Y-105502008D01*
X155894699Y-105531001D01*
X155923692Y-105554795D01*
X155923696Y-105554799D01*
X155994385Y-105612811D01*
X156010424Y-105625974D01*
X156121928Y-105685575D01*
X156121928Y-105914333D01*
X156134188Y-106038815D01*
X156170498Y-106158513D01*
X156229463Y-106268827D01*
X156308815Y-106365518D01*
X156321587Y-106376000D01*
X156308815Y-106386482D01*
X156229463Y-106483173D01*
X156170498Y-106593487D01*
X156134188Y-106713185D01*
X156121928Y-106837667D01*
X156121928Y-107001000D01*
X155842622Y-107001000D01*
X155805299Y-106997324D01*
X155767976Y-107001000D01*
X155767967Y-107001000D01*
X155656314Y-107011997D01*
X155513053Y-107055454D01*
X155381024Y-107126026D01*
X155265299Y-107220999D01*
X155241501Y-107249997D01*
X151030948Y-111460551D01*
X151008185Y-111432815D01*
X150911494Y-111353463D01*
X150801180Y-111294498D01*
X150681482Y-111258188D01*
X150673039Y-111257357D01*
X150871637Y-111058759D01*
X151028680Y-110823727D01*
X151136853Y-110562574D01*
X151192000Y-110285335D01*
X151192000Y-110002665D01*
X151136853Y-109725426D01*
X151028680Y-109464273D01*
X150871637Y-109229241D01*
X150671759Y-109029363D01*
X150439241Y-108874000D01*
X150671759Y-108718637D01*
X150871637Y-108518759D01*
X151028680Y-108283727D01*
X151136853Y-108022574D01*
X151192000Y-107745335D01*
X151192000Y-107462665D01*
X151136853Y-107185426D01*
X151028680Y-106924273D01*
X150871637Y-106689241D01*
X150671759Y-106489363D01*
X150439241Y-106334000D01*
X150671759Y-106178637D01*
X150871637Y-105978759D01*
X151028680Y-105743727D01*
X151136853Y-105482574D01*
X151192000Y-105205335D01*
X151192000Y-104922665D01*
X151136853Y-104645426D01*
X151028680Y-104384273D01*
X150871637Y-104149241D01*
X150671759Y-103949363D01*
X150439241Y-103794000D01*
X150671759Y-103638637D01*
X150871637Y-103438759D01*
X151028680Y-103203727D01*
X151136853Y-102942574D01*
X151192000Y-102665335D01*
X151192000Y-102382665D01*
X151136853Y-102105426D01*
X151028680Y-101844273D01*
X150871637Y-101609241D01*
X150671759Y-101409363D01*
X150439241Y-101254000D01*
X150671759Y-101098637D01*
X150871637Y-100898759D01*
X151028680Y-100663727D01*
X151136853Y-100402574D01*
X151192000Y-100125335D01*
X151192000Y-99842665D01*
X151136853Y-99565426D01*
X151028680Y-99304273D01*
X150871637Y-99069241D01*
X150671759Y-98869363D01*
X150439241Y-98714000D01*
X150671759Y-98558637D01*
X150871637Y-98358759D01*
X151028680Y-98123727D01*
X151089732Y-97976334D01*
X152809800Y-99696402D01*
G37*
%TD.AperFunction*%
D20*
X133402320Y-100607727D02*
X133559363Y-100842759D01*
X133759241Y-101042637D01*
X133991759Y-101198000D01*
X133759241Y-101353363D01*
X133559363Y-101553241D01*
X133402320Y-101788273D01*
X133294147Y-102049426D01*
X133239000Y-102326665D01*
X133239000Y-102609335D01*
X133294147Y-102886574D01*
X133402320Y-103147727D01*
X133559363Y-103382759D01*
X133759241Y-103582637D01*
X133991759Y-103738000D01*
X133759241Y-103893363D01*
X133559363Y-104093241D01*
X133402320Y-104328273D01*
X133294147Y-104589426D01*
X133239000Y-104866665D01*
X133239000Y-105149335D01*
X133294147Y-105426574D01*
X133402320Y-105687727D01*
X133559363Y-105922759D01*
X133759241Y-106122637D01*
X133991759Y-106278000D01*
X133759241Y-106433363D01*
X133559363Y-106633241D01*
X133402320Y-106868273D01*
X133294147Y-107129426D01*
X133239000Y-107406665D01*
X133239000Y-107689335D01*
X133294147Y-107966574D01*
X133402320Y-108227727D01*
X133559363Y-108462759D01*
X133759241Y-108662637D01*
X133991759Y-108818000D01*
X133939377Y-108853000D01*
X132934354Y-108853000D01*
X132873699Y-108847026D01*
X132813044Y-108853000D01*
X132813035Y-108853000D01*
X132631598Y-108870870D01*
X132398799Y-108941489D01*
X132184251Y-109056167D01*
X131996198Y-109210498D01*
X131957526Y-109257620D01*
X129822147Y-111393000D01*
X127788623Y-111393000D01*
X127736241Y-111358000D01*
X127968759Y-111202637D01*
X128168637Y-111002759D01*
X128325680Y-110767727D01*
X128433853Y-110506574D01*
X128489000Y-110229335D01*
X128489000Y-109946665D01*
X128433853Y-109669426D01*
X128325680Y-109408273D01*
X128168637Y-109173241D01*
X127968759Y-108973363D01*
X127736241Y-108818000D01*
X127968759Y-108662637D01*
X128168637Y-108462759D01*
X128325680Y-108227727D01*
X128433853Y-107966574D01*
X128489000Y-107689335D01*
X128489000Y-107406665D01*
X128433853Y-107129426D01*
X128325680Y-106868273D01*
X128168637Y-106633241D01*
X127968759Y-106433363D01*
X127736241Y-106278000D01*
X127968759Y-106122637D01*
X128168637Y-105922759D01*
X128275947Y-105762158D01*
X128328286Y-105757003D01*
X128471547Y-105713546D01*
X128603576Y-105642974D01*
X128719301Y-105548001D01*
X128814274Y-105432276D01*
X128884846Y-105300247D01*
X128928303Y-105156986D01*
X128942977Y-105008000D01*
X128939300Y-104970667D01*
X128939300Y-104596301D01*
X133072702Y-100462900D01*
X133134839Y-100462900D01*
X133326537Y-100424769D01*
X133402320Y-100607727D01*
%TA.AperFunction,NonConductor*%
D21*
G36*
X133402320Y-100607727D02*
G01*
X133559363Y-100842759D01*
X133759241Y-101042637D01*
X133991759Y-101198000D01*
X133759241Y-101353363D01*
X133559363Y-101553241D01*
X133402320Y-101788273D01*
X133294147Y-102049426D01*
X133239000Y-102326665D01*
X133239000Y-102609335D01*
X133294147Y-102886574D01*
X133402320Y-103147727D01*
X133559363Y-103382759D01*
X133759241Y-103582637D01*
X133991759Y-103738000D01*
X133759241Y-103893363D01*
X133559363Y-104093241D01*
X133402320Y-104328273D01*
X133294147Y-104589426D01*
X133239000Y-104866665D01*
X133239000Y-105149335D01*
X133294147Y-105426574D01*
X133402320Y-105687727D01*
X133559363Y-105922759D01*
X133759241Y-106122637D01*
X133991759Y-106278000D01*
X133759241Y-106433363D01*
X133559363Y-106633241D01*
X133402320Y-106868273D01*
X133294147Y-107129426D01*
X133239000Y-107406665D01*
X133239000Y-107689335D01*
X133294147Y-107966574D01*
X133402320Y-108227727D01*
X133559363Y-108462759D01*
X133759241Y-108662637D01*
X133991759Y-108818000D01*
X133939377Y-108853000D01*
X132934354Y-108853000D01*
X132873699Y-108847026D01*
X132813044Y-108853000D01*
X132813035Y-108853000D01*
X132631598Y-108870870D01*
X132398799Y-108941489D01*
X132184251Y-109056167D01*
X131996198Y-109210498D01*
X131957526Y-109257620D01*
X129822147Y-111393000D01*
X127788623Y-111393000D01*
X127736241Y-111358000D01*
X127968759Y-111202637D01*
X128168637Y-111002759D01*
X128325680Y-110767727D01*
X128433853Y-110506574D01*
X128489000Y-110229335D01*
X128489000Y-109946665D01*
X128433853Y-109669426D01*
X128325680Y-109408273D01*
X128168637Y-109173241D01*
X127968759Y-108973363D01*
X127736241Y-108818000D01*
X127968759Y-108662637D01*
X128168637Y-108462759D01*
X128325680Y-108227727D01*
X128433853Y-107966574D01*
X128489000Y-107689335D01*
X128489000Y-107406665D01*
X128433853Y-107129426D01*
X128325680Y-106868273D01*
X128168637Y-106633241D01*
X127968759Y-106433363D01*
X127736241Y-106278000D01*
X127968759Y-106122637D01*
X128168637Y-105922759D01*
X128275947Y-105762158D01*
X128328286Y-105757003D01*
X128471547Y-105713546D01*
X128603576Y-105642974D01*
X128719301Y-105548001D01*
X128814274Y-105432276D01*
X128884846Y-105300247D01*
X128928303Y-105156986D01*
X128942977Y-105008000D01*
X128939300Y-104970667D01*
X128939300Y-104596301D01*
X133072702Y-100462900D01*
X133134839Y-100462900D01*
X133326537Y-100424769D01*
X133402320Y-100607727D01*
G37*
%TD.AperFunction*%
D20*
X125674147Y-104589426D02*
X125619000Y-104866665D01*
X125619000Y-105149335D01*
X125674147Y-105426574D01*
X125782320Y-105687727D01*
X125939363Y-105922759D01*
X126139241Y-106122637D01*
X126371759Y-106278000D01*
X126139241Y-106433363D01*
X125939363Y-106633241D01*
X125782320Y-106868273D01*
X125674147Y-107129426D01*
X125619000Y-107406665D01*
X125619000Y-107689335D01*
X125674147Y-107966574D01*
X125782320Y-108227727D01*
X125939363Y-108462759D01*
X126139241Y-108662637D01*
X126371759Y-108818000D01*
X126319377Y-108853000D01*
X125314365Y-108853000D01*
X125253700Y-108847025D01*
X125193035Y-108853000D01*
X125011598Y-108870870D01*
X124778799Y-108941489D01*
X124564251Y-109056167D01*
X124376198Y-109210498D01*
X124221867Y-109398551D01*
X124107189Y-109613099D01*
X124036570Y-109845898D01*
X124021546Y-109998444D01*
X121073104Y-107050003D01*
X121049301Y-107020999D01*
X120933576Y-106926026D01*
X120822072Y-106866425D01*
X120822072Y-106637667D01*
X120809812Y-106513185D01*
X120773502Y-106393487D01*
X120714537Y-106283173D01*
X120635185Y-106186482D01*
X120622413Y-106176000D01*
X120635185Y-106165518D01*
X120714537Y-106068827D01*
X120773502Y-105958513D01*
X120809812Y-105838815D01*
X120822072Y-105714333D01*
X120822072Y-105485575D01*
X120933576Y-105425974D01*
X121049301Y-105331001D01*
X121073104Y-105301998D01*
X121877102Y-104498000D01*
X125712017Y-104498000D01*
X125674147Y-104589426D01*
%TA.AperFunction,NonConductor*%
D21*
G36*
X125674147Y-104589426D02*
G01*
X125619000Y-104866665D01*
X125619000Y-105149335D01*
X125674147Y-105426574D01*
X125782320Y-105687727D01*
X125939363Y-105922759D01*
X126139241Y-106122637D01*
X126371759Y-106278000D01*
X126139241Y-106433363D01*
X125939363Y-106633241D01*
X125782320Y-106868273D01*
X125674147Y-107129426D01*
X125619000Y-107406665D01*
X125619000Y-107689335D01*
X125674147Y-107966574D01*
X125782320Y-108227727D01*
X125939363Y-108462759D01*
X126139241Y-108662637D01*
X126371759Y-108818000D01*
X126319377Y-108853000D01*
X125314365Y-108853000D01*
X125253700Y-108847025D01*
X125193035Y-108853000D01*
X125011598Y-108870870D01*
X124778799Y-108941489D01*
X124564251Y-109056167D01*
X124376198Y-109210498D01*
X124221867Y-109398551D01*
X124107189Y-109613099D01*
X124036570Y-109845898D01*
X124021546Y-109998444D01*
X121073104Y-107050003D01*
X121049301Y-107020999D01*
X120933576Y-106926026D01*
X120822072Y-106866425D01*
X120822072Y-106637667D01*
X120809812Y-106513185D01*
X120773502Y-106393487D01*
X120714537Y-106283173D01*
X120635185Y-106186482D01*
X120622413Y-106176000D01*
X120635185Y-106165518D01*
X120714537Y-106068827D01*
X120773502Y-105958513D01*
X120809812Y-105838815D01*
X120822072Y-105714333D01*
X120822072Y-105485575D01*
X120933576Y-105425974D01*
X121049301Y-105331001D01*
X121073104Y-105301998D01*
X121877102Y-104498000D01*
X125712017Y-104498000D01*
X125674147Y-104589426D01*
G37*
%TD.AperFunction*%
D20*
X155674700Y-101924402D02*
X155674700Y-102183667D01*
X155671023Y-102221000D01*
X155685697Y-102369986D01*
X155729154Y-102513247D01*
X155799726Y-102645276D01*
X155894699Y-102761001D01*
X156010424Y-102855974D01*
X156121928Y-102915575D01*
X156121928Y-103144333D01*
X156134188Y-103268815D01*
X156170498Y-103388513D01*
X156229463Y-103498827D01*
X156308815Y-103595518D01*
X156321587Y-103606000D01*
X156308815Y-103616482D01*
X156230460Y-103711958D01*
X154329800Y-101811299D01*
X154329800Y-100579502D01*
X155674700Y-101924402D01*
%TA.AperFunction,NonConductor*%
D21*
G36*
X155674700Y-101924402D02*
G01*
X155674700Y-102183667D01*
X155671023Y-102221000D01*
X155685697Y-102369986D01*
X155729154Y-102513247D01*
X155799726Y-102645276D01*
X155894699Y-102761001D01*
X156010424Y-102855974D01*
X156121928Y-102915575D01*
X156121928Y-103144333D01*
X156134188Y-103268815D01*
X156170498Y-103388513D01*
X156229463Y-103498827D01*
X156308815Y-103595518D01*
X156321587Y-103606000D01*
X156308815Y-103616482D01*
X156230460Y-103711958D01*
X154329800Y-101811299D01*
X154329800Y-100579502D01*
X155674700Y-101924402D01*
G37*
%TD.AperFunction*%
D20*
X125939363Y-98302759D02*
X126139241Y-98502637D01*
X126371759Y-98658000D01*
X126139241Y-98813363D01*
X125939363Y-99013241D01*
X125782320Y-99248273D01*
X125674147Y-99509426D01*
X125619000Y-99786665D01*
X125619000Y-100069335D01*
X125674147Y-100346574D01*
X125782320Y-100607727D01*
X125939363Y-100842759D01*
X126139241Y-101042637D01*
X126371759Y-101198000D01*
X126139241Y-101353363D01*
X125939363Y-101553241D01*
X125782320Y-101788273D01*
X125674147Y-102049426D01*
X125619000Y-102326665D01*
X125619000Y-102609335D01*
X125674147Y-102886574D01*
X125712017Y-102978000D01*
X121599623Y-102978000D01*
X121562300Y-102974324D01*
X121524977Y-102978000D01*
X121524967Y-102978000D01*
X121413314Y-102988997D01*
X121270053Y-103032454D01*
X121138023Y-103103026D01*
X121054383Y-103171668D01*
X121022299Y-103197999D01*
X120998501Y-103226997D01*
X120713540Y-103511958D01*
X120635185Y-103416482D01*
X120622413Y-103406000D01*
X120635185Y-103395518D01*
X120714537Y-103298827D01*
X120773502Y-103188513D01*
X120809812Y-103068815D01*
X120822072Y-102944333D01*
X120822072Y-102781009D01*
X120859300Y-102784676D01*
X120896622Y-102781000D01*
X120896633Y-102781000D01*
X121008286Y-102770003D01*
X121151547Y-102726546D01*
X121283576Y-102655974D01*
X121399301Y-102561001D01*
X121423104Y-102531997D01*
X125479404Y-98475698D01*
X125508401Y-98451901D01*
X125548381Y-98403185D01*
X125603374Y-98336177D01*
X125673946Y-98204147D01*
X125675031Y-98200570D01*
X125792556Y-98083046D01*
X125939363Y-98302759D01*
%TA.AperFunction,NonConductor*%
D21*
G36*
X125939363Y-98302759D02*
G01*
X126139241Y-98502637D01*
X126371759Y-98658000D01*
X126139241Y-98813363D01*
X125939363Y-99013241D01*
X125782320Y-99248273D01*
X125674147Y-99509426D01*
X125619000Y-99786665D01*
X125619000Y-100069335D01*
X125674147Y-100346574D01*
X125782320Y-100607727D01*
X125939363Y-100842759D01*
X126139241Y-101042637D01*
X126371759Y-101198000D01*
X126139241Y-101353363D01*
X125939363Y-101553241D01*
X125782320Y-101788273D01*
X125674147Y-102049426D01*
X125619000Y-102326665D01*
X125619000Y-102609335D01*
X125674147Y-102886574D01*
X125712017Y-102978000D01*
X121599623Y-102978000D01*
X121562300Y-102974324D01*
X121524977Y-102978000D01*
X121524967Y-102978000D01*
X121413314Y-102988997D01*
X121270053Y-103032454D01*
X121138023Y-103103026D01*
X121054383Y-103171668D01*
X121022299Y-103197999D01*
X120998501Y-103226997D01*
X120713540Y-103511958D01*
X120635185Y-103416482D01*
X120622413Y-103406000D01*
X120635185Y-103395518D01*
X120714537Y-103298827D01*
X120773502Y-103188513D01*
X120809812Y-103068815D01*
X120822072Y-102944333D01*
X120822072Y-102781009D01*
X120859300Y-102784676D01*
X120896622Y-102781000D01*
X120896633Y-102781000D01*
X121008286Y-102770003D01*
X121151547Y-102726546D01*
X121283576Y-102655974D01*
X121399301Y-102561001D01*
X121423104Y-102531997D01*
X125479404Y-98475698D01*
X125508401Y-98451901D01*
X125548381Y-98403185D01*
X125603374Y-98336177D01*
X125673946Y-98204147D01*
X125675031Y-98200570D01*
X125792556Y-98083046D01*
X125939363Y-98302759D01*
G37*
%TD.AperFunction*%
D20*
X128602498Y-100466301D02*
X128573500Y-100490099D01*
X128549702Y-100519097D01*
X128549701Y-100519098D01*
X128478526Y-100605824D01*
X128407954Y-100737854D01*
X128377680Y-100837658D01*
X128372879Y-100853487D01*
X128364498Y-100881115D01*
X128349824Y-101030100D01*
X128353501Y-101067432D01*
X128353500Y-101741498D01*
X128318088Y-101776910D01*
X128168637Y-101553241D01*
X127968759Y-101353363D01*
X127736241Y-101198000D01*
X127968759Y-101042637D01*
X128168637Y-100842759D01*
X128325680Y-100607727D01*
X128433853Y-100346574D01*
X128489000Y-100069335D01*
X128489000Y-99786665D01*
X128433853Y-99509426D01*
X128325680Y-99248273D01*
X128168637Y-99013241D01*
X127968759Y-98813363D01*
X127736241Y-98658000D01*
X127968759Y-98502637D01*
X128168637Y-98302759D01*
X128325680Y-98067727D01*
X128433853Y-97806574D01*
X128489000Y-97529335D01*
X128489000Y-97246665D01*
X128433853Y-96969426D01*
X128325680Y-96708273D01*
X128168637Y-96473241D01*
X127968759Y-96273363D01*
X127749046Y-96126556D01*
X127899702Y-95975900D01*
X129407378Y-95975900D01*
X129444700Y-95979576D01*
X129482022Y-95975900D01*
X129482033Y-95975900D01*
X129593686Y-95964903D01*
X129736947Y-95921446D01*
X129868976Y-95850874D01*
X129984701Y-95755901D01*
X130008504Y-95726897D01*
X130951802Y-94783600D01*
X134285198Y-94783600D01*
X128602498Y-100466301D01*
%TA.AperFunction,NonConductor*%
D21*
G36*
X128602498Y-100466301D02*
G01*
X128573500Y-100490099D01*
X128549702Y-100519097D01*
X128549701Y-100519098D01*
X128478526Y-100605824D01*
X128407954Y-100737854D01*
X128377680Y-100837658D01*
X128372879Y-100853487D01*
X128364498Y-100881115D01*
X128349824Y-101030100D01*
X128353501Y-101067432D01*
X128353500Y-101741498D01*
X128318088Y-101776910D01*
X128168637Y-101553241D01*
X127968759Y-101353363D01*
X127736241Y-101198000D01*
X127968759Y-101042637D01*
X128168637Y-100842759D01*
X128325680Y-100607727D01*
X128433853Y-100346574D01*
X128489000Y-100069335D01*
X128489000Y-99786665D01*
X128433853Y-99509426D01*
X128325680Y-99248273D01*
X128168637Y-99013241D01*
X127968759Y-98813363D01*
X127736241Y-98658000D01*
X127968759Y-98502637D01*
X128168637Y-98302759D01*
X128325680Y-98067727D01*
X128433853Y-97806574D01*
X128489000Y-97529335D01*
X128489000Y-97246665D01*
X128433853Y-96969426D01*
X128325680Y-96708273D01*
X128168637Y-96473241D01*
X127968759Y-96273363D01*
X127749046Y-96126556D01*
X127899702Y-95975900D01*
X129407378Y-95975900D01*
X129444700Y-95979576D01*
X129482022Y-95975900D01*
X129482033Y-95975900D01*
X129593686Y-95964903D01*
X129736947Y-95921446D01*
X129868976Y-95850874D01*
X129984701Y-95755901D01*
X130008504Y-95726897D01*
X130951802Y-94783600D01*
X134285198Y-94783600D01*
X128602498Y-100466301D01*
G37*
%TD.AperFunction*%
D20*
X131997900Y-99325961D02*
X131997900Y-99388098D01*
X129873500Y-101512499D01*
X129873500Y-101344901D01*
X132024086Y-99194316D01*
X131997900Y-99325961D01*
%TA.AperFunction,NonConductor*%
D21*
G36*
X131997900Y-99325961D02*
G01*
X131997900Y-99388098D01*
X129873500Y-101512499D01*
X129873500Y-101344901D01*
X132024086Y-99194316D01*
X131997900Y-99325961D01*
G37*
%TD.AperFunction*%
D20*
X120811829Y-100993669D02*
X120809812Y-100973185D01*
X120773502Y-100853487D01*
X120714537Y-100743173D01*
X120635185Y-100646482D01*
X120622413Y-100636000D01*
X120635185Y-100625518D01*
X120714537Y-100528827D01*
X120773502Y-100418513D01*
X120809812Y-100298815D01*
X120822072Y-100174333D01*
X120822072Y-99163800D01*
X120897039Y-99163800D01*
X121096998Y-99124026D01*
X121285356Y-99046005D01*
X121454874Y-98932737D01*
X121498811Y-98888800D01*
X122916698Y-98888800D01*
X120811829Y-100993669D01*
%TA.AperFunction,NonConductor*%
D21*
G36*
X120811829Y-100993669D02*
G01*
X120809812Y-100973185D01*
X120773502Y-100853487D01*
X120714537Y-100743173D01*
X120635185Y-100646482D01*
X120622413Y-100636000D01*
X120635185Y-100625518D01*
X120714537Y-100528827D01*
X120773502Y-100418513D01*
X120809812Y-100298815D01*
X120822072Y-100174333D01*
X120822072Y-99163800D01*
X120897039Y-99163800D01*
X121096998Y-99124026D01*
X121285356Y-99046005D01*
X121454874Y-98932737D01*
X121498811Y-98888800D01*
X122916698Y-98888800D01*
X120811829Y-100993669D01*
G37*
%TD.AperFunction*%
D20*
X156121928Y-100222026D02*
X156110902Y-100211000D01*
X156121928Y-100211000D01*
X156121928Y-100222026D01*
%TA.AperFunction,NonConductor*%
D21*
G36*
X156121928Y-100222026D02*
G01*
X156110902Y-100211000D01*
X156121928Y-100211000D01*
X156121928Y-100222026D01*
G37*
%TD.AperFunction*%
D20*
X133402320Y-98067727D02*
X133559363Y-98302759D01*
X133759241Y-98502637D01*
X133991759Y-98658000D01*
X133832874Y-98764163D01*
X133692674Y-98623963D01*
X133523156Y-98510695D01*
X133334798Y-98432674D01*
X133134839Y-98392900D01*
X132930961Y-98392900D01*
X132799316Y-98419086D01*
X133328615Y-97889787D01*
X133402320Y-98067727D01*
%TA.AperFunction,NonConductor*%
D21*
G36*
X133402320Y-98067727D02*
G01*
X133559363Y-98302759D01*
X133759241Y-98502637D01*
X133991759Y-98658000D01*
X133832874Y-98764163D01*
X133692674Y-98623963D01*
X133523156Y-98510695D01*
X133334798Y-98432674D01*
X133134839Y-98392900D01*
X132930961Y-98392900D01*
X132799316Y-98419086D01*
X133328615Y-97889787D01*
X133402320Y-98067727D01*
G37*
%TD.AperFunction*%
D20*
X155475026Y-98217137D02*
X155644544Y-98330405D01*
X155832902Y-98408426D01*
X156032861Y-98448200D01*
X156129755Y-98448200D01*
X156121928Y-98527667D01*
X156121928Y-98691000D01*
X155227802Y-98691000D01*
X154710002Y-98173200D01*
X155431089Y-98173200D01*
X155475026Y-98217137D01*
%TA.AperFunction,NonConductor*%
D21*
G36*
X155475026Y-98217137D02*
G01*
X155644544Y-98330405D01*
X155832902Y-98408426D01*
X156032861Y-98448200D01*
X156129755Y-98448200D01*
X156121928Y-98527667D01*
X156121928Y-98691000D01*
X155227802Y-98691000D01*
X154710002Y-98173200D01*
X155431089Y-98173200D01*
X155475026Y-98217137D01*
G37*
%TD.AperFunction*%
D20*
X123720299Y-97368800D02*
X121498811Y-97368800D01*
X121454874Y-97324863D01*
X121329364Y-97241000D01*
X123848099Y-97241000D01*
X123720299Y-97368800D01*
%TA.AperFunction,NonConductor*%
D21*
G36*
X123720299Y-97368800D02*
G01*
X121498811Y-97368800D01*
X121454874Y-97324863D01*
X121329364Y-97241000D01*
X123848099Y-97241000D01*
X123720299Y-97368800D01*
G37*
%TD.AperFunction*%
D20*
X135962747Y-96153000D02*
X135408623Y-96153000D01*
X135353727Y-96116320D01*
X135175787Y-96042615D01*
X135984502Y-95233900D01*
X136881846Y-95233900D01*
X135962747Y-96153000D01*
%TA.AperFunction,NonConductor*%
D21*
G36*
X135962747Y-96153000D02*
G01*
X135408623Y-96153000D01*
X135353727Y-96116320D01*
X135175787Y-96042615D01*
X135984502Y-95233900D01*
X136881846Y-95233900D01*
X135962747Y-96153000D01*
G37*
%TD.AperFunction*%
D20*
X155649844Y-94679695D02*
X155480326Y-94792963D01*
X155436389Y-94836900D01*
X153959702Y-94836900D01*
X153793802Y-94671000D01*
X155670835Y-94671000D01*
X155649844Y-94679695D01*
%TA.AperFunction,NonConductor*%
D21*
G36*
X155649844Y-94679695D02*
G01*
X155480326Y-94792963D01*
X155436389Y-94836900D01*
X153959702Y-94836900D01*
X153793802Y-94671000D01*
X155670835Y-94671000D01*
X155649844Y-94679695D01*
G37*
%TD.AperFunction*%
D20*
X124114199Y-94336000D02*
X123995729Y-94336000D01*
X124099301Y-94251001D01*
X124123104Y-94221998D01*
X125864203Y-92480900D01*
X125969298Y-92480900D01*
X124114199Y-94336000D01*
%TA.AperFunction,NonConductor*%
D21*
G36*
X124114199Y-94336000D02*
G01*
X123995729Y-94336000D01*
X124099301Y-94251001D01*
X124123104Y-94221998D01*
X125864203Y-92480900D01*
X125969298Y-92480900D01*
X124114199Y-94336000D01*
G37*
%TD.AperFunction*%
D20*
X127293251Y-93330200D02*
X127276125Y-93330200D01*
X127270187Y-93329615D01*
X127289328Y-93310475D01*
X127293251Y-93330200D01*
%TA.AperFunction,NonConductor*%
D21*
G36*
X127293251Y-93330200D02*
G01*
X127276125Y-93330200D01*
X127270187Y-93329615D01*
X127289328Y-93310475D01*
X127293251Y-93330200D01*
G37*
%TD.AperFunction*%
D20*
X154524701Y-86691655D02*
X154524700Y-91080335D01*
X154518725Y-91141000D01*
X154542570Y-91383102D01*
X154613189Y-91615901D01*
X154727867Y-91830449D01*
X154795204Y-91912500D01*
X152309102Y-91912500D01*
X151092004Y-90695403D01*
X151068201Y-90666399D01*
X150952476Y-90571426D01*
X150820447Y-90500854D01*
X150677186Y-90457397D01*
X150565533Y-90446400D01*
X150565522Y-90446400D01*
X150528200Y-90442724D01*
X150490878Y-90446400D01*
X142574700Y-90446400D01*
X142574700Y-90348061D01*
X142534926Y-90148102D01*
X142456905Y-89959744D01*
X142343637Y-89790226D01*
X142199474Y-89646063D01*
X142029956Y-89532795D01*
X141841598Y-89454774D01*
X141641639Y-89415000D01*
X141437761Y-89415000D01*
X141237802Y-89454774D01*
X141049444Y-89532795D01*
X140879926Y-89646063D01*
X140835989Y-89690000D01*
X134511803Y-89690000D01*
X132039802Y-87218000D01*
X132166260Y-87218000D01*
X132453158Y-87160932D01*
X132723411Y-87048990D01*
X132966632Y-86886475D01*
X133173475Y-86679632D01*
X133290000Y-86505240D01*
X133406525Y-86679632D01*
X133613368Y-86886475D01*
X133856589Y-87048990D01*
X134126842Y-87160932D01*
X134413740Y-87218000D01*
X134706260Y-87218000D01*
X134993158Y-87160932D01*
X135263411Y-87048990D01*
X135506632Y-86886475D01*
X135713475Y-86679632D01*
X135830000Y-86505240D01*
X135946525Y-86679632D01*
X136153368Y-86886475D01*
X136396589Y-87048990D01*
X136666842Y-87160932D01*
X136953740Y-87218000D01*
X137246260Y-87218000D01*
X137533158Y-87160932D01*
X137803411Y-87048990D01*
X138046632Y-86886475D01*
X138253475Y-86679632D01*
X138370000Y-86505240D01*
X138486525Y-86679632D01*
X138693368Y-86886475D01*
X138936589Y-87048990D01*
X139206842Y-87160932D01*
X139493740Y-87218000D01*
X139786260Y-87218000D01*
X140073158Y-87160932D01*
X140343411Y-87048990D01*
X140586632Y-86886475D01*
X140793475Y-86679632D01*
X140910000Y-86505240D01*
X141026525Y-86679632D01*
X141233368Y-86886475D01*
X141476589Y-87048990D01*
X141746842Y-87160932D01*
X142033740Y-87218000D01*
X142326260Y-87218000D01*
X142613158Y-87160932D01*
X142883411Y-87048990D01*
X143126632Y-86886475D01*
X143333475Y-86679632D01*
X143450000Y-86505240D01*
X143566525Y-86679632D01*
X143773368Y-86886475D01*
X144016589Y-87048990D01*
X144286842Y-87160932D01*
X144573740Y-87218000D01*
X144866260Y-87218000D01*
X145153158Y-87160932D01*
X145423411Y-87048990D01*
X145666632Y-86886475D01*
X145873475Y-86679632D01*
X145990000Y-86505240D01*
X146106525Y-86679632D01*
X146313368Y-86886475D01*
X146556589Y-87048990D01*
X146826842Y-87160932D01*
X147113740Y-87218000D01*
X147406260Y-87218000D01*
X147693158Y-87160932D01*
X147963411Y-87048990D01*
X148206632Y-86886475D01*
X148413475Y-86679632D01*
X148530000Y-86505240D01*
X148646525Y-86679632D01*
X148853368Y-86886475D01*
X149096589Y-87048990D01*
X149366842Y-87160932D01*
X149653740Y-87218000D01*
X149946260Y-87218000D01*
X150233158Y-87160932D01*
X150503411Y-87048990D01*
X150746632Y-86886475D01*
X150953475Y-86679632D01*
X151115990Y-86436411D01*
X151227932Y-86166158D01*
X151285000Y-85879260D01*
X151285000Y-85586740D01*
X151227932Y-85299842D01*
X151115990Y-85029589D01*
X150953475Y-84786368D01*
X150766392Y-84599285D01*
X150893386Y-84531405D01*
X151027962Y-84420962D01*
X151138405Y-84286386D01*
X151220472Y-84132850D01*
X151271008Y-83966254D01*
X151288072Y-83793000D01*
X151288072Y-83455025D01*
X154524701Y-86691655D01*
%TA.AperFunction,NonConductor*%
D21*
G36*
X154524701Y-86691655D02*
G01*
X154524700Y-91080335D01*
X154518725Y-91141000D01*
X154542570Y-91383102D01*
X154613189Y-91615901D01*
X154727867Y-91830449D01*
X154795204Y-91912500D01*
X152309102Y-91912500D01*
X151092004Y-90695403D01*
X151068201Y-90666399D01*
X150952476Y-90571426D01*
X150820447Y-90500854D01*
X150677186Y-90457397D01*
X150565533Y-90446400D01*
X150565522Y-90446400D01*
X150528200Y-90442724D01*
X150490878Y-90446400D01*
X142574700Y-90446400D01*
X142574700Y-90348061D01*
X142534926Y-90148102D01*
X142456905Y-89959744D01*
X142343637Y-89790226D01*
X142199474Y-89646063D01*
X142029956Y-89532795D01*
X141841598Y-89454774D01*
X141641639Y-89415000D01*
X141437761Y-89415000D01*
X141237802Y-89454774D01*
X141049444Y-89532795D01*
X140879926Y-89646063D01*
X140835989Y-89690000D01*
X134511803Y-89690000D01*
X132039802Y-87218000D01*
X132166260Y-87218000D01*
X132453158Y-87160932D01*
X132723411Y-87048990D01*
X132966632Y-86886475D01*
X133173475Y-86679632D01*
X133290000Y-86505240D01*
X133406525Y-86679632D01*
X133613368Y-86886475D01*
X133856589Y-87048990D01*
X134126842Y-87160932D01*
X134413740Y-87218000D01*
X134706260Y-87218000D01*
X134993158Y-87160932D01*
X135263411Y-87048990D01*
X135506632Y-86886475D01*
X135713475Y-86679632D01*
X135830000Y-86505240D01*
X135946525Y-86679632D01*
X136153368Y-86886475D01*
X136396589Y-87048990D01*
X136666842Y-87160932D01*
X136953740Y-87218000D01*
X137246260Y-87218000D01*
X137533158Y-87160932D01*
X137803411Y-87048990D01*
X138046632Y-86886475D01*
X138253475Y-86679632D01*
X138370000Y-86505240D01*
X138486525Y-86679632D01*
X138693368Y-86886475D01*
X138936589Y-87048990D01*
X139206842Y-87160932D01*
X139493740Y-87218000D01*
X139786260Y-87218000D01*
X140073158Y-87160932D01*
X140343411Y-87048990D01*
X140586632Y-86886475D01*
X140793475Y-86679632D01*
X140910000Y-86505240D01*
X141026525Y-86679632D01*
X141233368Y-86886475D01*
X141476589Y-87048990D01*
X141746842Y-87160932D01*
X142033740Y-87218000D01*
X142326260Y-87218000D01*
X142613158Y-87160932D01*
X142883411Y-87048990D01*
X143126632Y-86886475D01*
X143333475Y-86679632D01*
X143450000Y-86505240D01*
X143566525Y-86679632D01*
X143773368Y-86886475D01*
X144016589Y-87048990D01*
X144286842Y-87160932D01*
X144573740Y-87218000D01*
X144866260Y-87218000D01*
X145153158Y-87160932D01*
X145423411Y-87048990D01*
X145666632Y-86886475D01*
X145873475Y-86679632D01*
X145990000Y-86505240D01*
X146106525Y-86679632D01*
X146313368Y-86886475D01*
X146556589Y-87048990D01*
X146826842Y-87160932D01*
X147113740Y-87218000D01*
X147406260Y-87218000D01*
X147693158Y-87160932D01*
X147963411Y-87048990D01*
X148206632Y-86886475D01*
X148413475Y-86679632D01*
X148530000Y-86505240D01*
X148646525Y-86679632D01*
X148853368Y-86886475D01*
X149096589Y-87048990D01*
X149366842Y-87160932D01*
X149653740Y-87218000D01*
X149946260Y-87218000D01*
X150233158Y-87160932D01*
X150503411Y-87048990D01*
X150746632Y-86886475D01*
X150953475Y-86679632D01*
X151115990Y-86436411D01*
X151227932Y-86166158D01*
X151285000Y-85879260D01*
X151285000Y-85586740D01*
X151227932Y-85299842D01*
X151115990Y-85029589D01*
X150953475Y-84786368D01*
X150766392Y-84599285D01*
X150893386Y-84531405D01*
X151027962Y-84420962D01*
X151138405Y-84286386D01*
X151220472Y-84132850D01*
X151271008Y-83966254D01*
X151288072Y-83793000D01*
X151288072Y-83455025D01*
X154524701Y-86691655D01*
G37*
%TD.AperFunction*%
D20*
X125624010Y-83896411D02*
X125786525Y-84139632D01*
X125993368Y-84346475D01*
X126167760Y-84463000D01*
X125993368Y-84579525D01*
X125786525Y-84786368D01*
X125624010Y-85029589D01*
X125512068Y-85299842D01*
X125455000Y-85586740D01*
X125455000Y-85879260D01*
X125512068Y-86166158D01*
X125624010Y-86436411D01*
X125786525Y-86679632D01*
X125993368Y-86886475D01*
X126236589Y-87048990D01*
X126506842Y-87160932D01*
X126793740Y-87218000D01*
X127086260Y-87218000D01*
X127373158Y-87160932D01*
X127643411Y-87048990D01*
X127886632Y-86886475D01*
X128093475Y-86679632D01*
X128210000Y-86505240D01*
X128326525Y-86679632D01*
X128533368Y-86886475D01*
X128776589Y-87048990D01*
X129046842Y-87160932D01*
X129333740Y-87218000D01*
X129626260Y-87218000D01*
X129846408Y-87174209D01*
X133118597Y-90446400D01*
X125464225Y-90446400D01*
X125426900Y-90442724D01*
X125389575Y-90446400D01*
X125389567Y-90446400D01*
X125277914Y-90457397D01*
X125134653Y-90500854D01*
X125002624Y-90571426D01*
X124886899Y-90666399D01*
X124863101Y-90695397D01*
X123968499Y-91590000D01*
X122237753Y-91590000D01*
X122330811Y-91415901D01*
X122401430Y-91183102D01*
X122425275Y-90941000D01*
X122419300Y-90880335D01*
X122419300Y-86822253D01*
X125542332Y-83699221D01*
X125624010Y-83896411D01*
%TA.AperFunction,NonConductor*%
D21*
G36*
X125624010Y-83896411D02*
G01*
X125786525Y-84139632D01*
X125993368Y-84346475D01*
X126167760Y-84463000D01*
X125993368Y-84579525D01*
X125786525Y-84786368D01*
X125624010Y-85029589D01*
X125512068Y-85299842D01*
X125455000Y-85586740D01*
X125455000Y-85879260D01*
X125512068Y-86166158D01*
X125624010Y-86436411D01*
X125786525Y-86679632D01*
X125993368Y-86886475D01*
X126236589Y-87048990D01*
X126506842Y-87160932D01*
X126793740Y-87218000D01*
X127086260Y-87218000D01*
X127373158Y-87160932D01*
X127643411Y-87048990D01*
X127886632Y-86886475D01*
X128093475Y-86679632D01*
X128210000Y-86505240D01*
X128326525Y-86679632D01*
X128533368Y-86886475D01*
X128776589Y-87048990D01*
X129046842Y-87160932D01*
X129333740Y-87218000D01*
X129626260Y-87218000D01*
X129846408Y-87174209D01*
X133118597Y-90446400D01*
X125464225Y-90446400D01*
X125426900Y-90442724D01*
X125389575Y-90446400D01*
X125389567Y-90446400D01*
X125277914Y-90457397D01*
X125134653Y-90500854D01*
X125002624Y-90571426D01*
X124886899Y-90666399D01*
X124863101Y-90695397D01*
X123968499Y-91590000D01*
X122237753Y-91590000D01*
X122330811Y-91415901D01*
X122401430Y-91183102D01*
X122425275Y-90941000D01*
X122419300Y-90880335D01*
X122419300Y-86822253D01*
X125542332Y-83699221D01*
X125624010Y-83896411D01*
G37*
%TD.AperFunction*%
D20*
X159811115Y-89579595D02*
X156994700Y-89579595D01*
X156994700Y-86240765D01*
X157000675Y-86180100D01*
X156976830Y-85937998D01*
X156906211Y-85705200D01*
X156906211Y-85705199D01*
X156791533Y-85490651D01*
X156637202Y-85302598D01*
X156590080Y-85263926D01*
X151806678Y-80480525D01*
X151768002Y-80433398D01*
X151579949Y-80279067D01*
X151365401Y-80164389D01*
X151132602Y-80093770D01*
X150951165Y-80075900D01*
X150890500Y-80069925D01*
X150829835Y-80075900D01*
X136407465Y-80075900D01*
X136346800Y-80069925D01*
X136286135Y-80075900D01*
X136104698Y-80093770D01*
X135871899Y-80164389D01*
X135657351Y-80279067D01*
X135469298Y-80433398D01*
X135430626Y-80480520D01*
X134150855Y-81760291D01*
X134126842Y-81765068D01*
X133856589Y-81877010D01*
X133806767Y-81910300D01*
X132773233Y-81910300D01*
X132723411Y-81877010D01*
X132453158Y-81765068D01*
X132409297Y-81756343D01*
X131147578Y-80494625D01*
X131108902Y-80447498D01*
X130920849Y-80293167D01*
X130706301Y-80178489D01*
X130473502Y-80107870D01*
X130231400Y-80084025D01*
X130170735Y-80090000D01*
X126230665Y-80090000D01*
X126170000Y-80084025D01*
X125927898Y-80107870D01*
X125695099Y-80178489D01*
X125480551Y-80293167D01*
X125292498Y-80447498D01*
X125253821Y-80494626D01*
X120353926Y-85394521D01*
X120306798Y-85433198D01*
X120152467Y-85621252D01*
X120037789Y-85835800D01*
X120002480Y-85952199D01*
X119967170Y-86068598D01*
X119943325Y-86310700D01*
X119949300Y-86371365D01*
X119949301Y-89379595D01*
X117131058Y-89379595D01*
X117127945Y-78352960D01*
X159807946Y-78352960D01*
X159811115Y-89579595D01*
%TA.AperFunction,NonConductor*%
D21*
G36*
X159811115Y-89579595D02*
G01*
X156994700Y-89579595D01*
X156994700Y-86240765D01*
X157000675Y-86180100D01*
X156976830Y-85937998D01*
X156906211Y-85705200D01*
X156906211Y-85705199D01*
X156791533Y-85490651D01*
X156637202Y-85302598D01*
X156590080Y-85263926D01*
X151806678Y-80480525D01*
X151768002Y-80433398D01*
X151579949Y-80279067D01*
X151365401Y-80164389D01*
X151132602Y-80093770D01*
X150951165Y-80075900D01*
X150890500Y-80069925D01*
X150829835Y-80075900D01*
X136407465Y-80075900D01*
X136346800Y-80069925D01*
X136286135Y-80075900D01*
X136104698Y-80093770D01*
X135871899Y-80164389D01*
X135657351Y-80279067D01*
X135469298Y-80433398D01*
X135430626Y-80480520D01*
X134150855Y-81760291D01*
X134126842Y-81765068D01*
X133856589Y-81877010D01*
X133806767Y-81910300D01*
X132773233Y-81910300D01*
X132723411Y-81877010D01*
X132453158Y-81765068D01*
X132409297Y-81756343D01*
X131147578Y-80494625D01*
X131108902Y-80447498D01*
X130920849Y-80293167D01*
X130706301Y-80178489D01*
X130473502Y-80107870D01*
X130231400Y-80084025D01*
X130170735Y-80090000D01*
X126230665Y-80090000D01*
X126170000Y-80084025D01*
X125927898Y-80107870D01*
X125695099Y-80178489D01*
X125480551Y-80293167D01*
X125292498Y-80447498D01*
X125253821Y-80494626D01*
X120353926Y-85394521D01*
X120306798Y-85433198D01*
X120152467Y-85621252D01*
X120037789Y-85835800D01*
X120002480Y-85952199D01*
X119967170Y-86068598D01*
X119943325Y-86310700D01*
X119949300Y-86371365D01*
X119949301Y-89379595D01*
X117131058Y-89379595D01*
X117127945Y-78352960D01*
X159807946Y-78352960D01*
X159811115Y-89579595D01*
G37*
%TD.AperFunction*%
D20*
X141026525Y-84139632D02*
X141233368Y-84346475D01*
X141407760Y-84463000D01*
X141233368Y-84579525D01*
X141026525Y-84786368D01*
X140910000Y-84960760D01*
X140793475Y-84786368D01*
X140586632Y-84579525D01*
X140412240Y-84463000D01*
X140586632Y-84346475D01*
X140793475Y-84139632D01*
X140910000Y-83965240D01*
X141026525Y-84139632D01*
%TA.AperFunction,NonConductor*%
D21*
G36*
X141026525Y-84139632D02*
G01*
X141233368Y-84346475D01*
X141407760Y-84463000D01*
X141233368Y-84579525D01*
X141026525Y-84786368D01*
X140910000Y-84960760D01*
X140793475Y-84786368D01*
X140586632Y-84579525D01*
X140412240Y-84463000D01*
X140586632Y-84346475D01*
X140793475Y-84139632D01*
X140910000Y-83965240D01*
X141026525Y-84139632D01*
G37*
%TD.AperFunction*%
D20*
X143947760Y-84463000D02*
X143773368Y-84579525D01*
X143566525Y-84786368D01*
X143450000Y-84960760D01*
X143333475Y-84786368D01*
X143126632Y-84579525D01*
X142952240Y-84463000D01*
X143004621Y-84428000D01*
X143895379Y-84428000D01*
X143947760Y-84463000D01*
%TA.AperFunction,NonConductor*%
D21*
G36*
X143947760Y-84463000D02*
G01*
X143773368Y-84579525D01*
X143566525Y-84786368D01*
X143450000Y-84960760D01*
X143333475Y-84786368D01*
X143126632Y-84579525D01*
X142952240Y-84463000D01*
X143004621Y-84428000D01*
X143895379Y-84428000D01*
X143947760Y-84463000D01*
G37*
%TD.AperFunction*%
D20*
X138486525Y-84139632D02*
X138693368Y-84346475D01*
X138867760Y-84463000D01*
X138693368Y-84579525D01*
X138486525Y-84786368D01*
X138370000Y-84960760D01*
X138253475Y-84786368D01*
X138046632Y-84579525D01*
X137872240Y-84463000D01*
X138046632Y-84346475D01*
X138253475Y-84139632D01*
X138370000Y-83965240D01*
X138486525Y-84139632D01*
%TA.AperFunction,NonConductor*%
D21*
G36*
X138486525Y-84139632D02*
G01*
X138693368Y-84346475D01*
X138867760Y-84463000D01*
X138693368Y-84579525D01*
X138486525Y-84786368D01*
X138370000Y-84960760D01*
X138253475Y-84786368D01*
X138046632Y-84579525D01*
X137872240Y-84463000D01*
X138046632Y-84346475D01*
X138253475Y-84139632D01*
X138370000Y-83965240D01*
X138486525Y-84139632D01*
G37*
%TD.AperFunction*%
D20*
X135946525Y-84139632D02*
X136153368Y-84346475D01*
X136327760Y-84463000D01*
X136153368Y-84579525D01*
X135946525Y-84786368D01*
X135830000Y-84960760D01*
X135713475Y-84786368D01*
X135506632Y-84579525D01*
X135332240Y-84463000D01*
X135506632Y-84346475D01*
X135713475Y-84139632D01*
X135830000Y-83965240D01*
X135946525Y-84139632D01*
%TA.AperFunction,NonConductor*%
D21*
G36*
X135946525Y-84139632D02*
G01*
X136153368Y-84346475D01*
X136327760Y-84463000D01*
X136153368Y-84579525D01*
X135946525Y-84786368D01*
X135830000Y-84960760D01*
X135713475Y-84786368D01*
X135506632Y-84579525D01*
X135332240Y-84463000D01*
X135506632Y-84346475D01*
X135713475Y-84139632D01*
X135830000Y-83965240D01*
X135946525Y-84139632D01*
G37*
%TD.AperFunction*%
D20*
X130866525Y-84139632D02*
X131073368Y-84346475D01*
X131247760Y-84463000D01*
X131073368Y-84579525D01*
X130866525Y-84786368D01*
X130750000Y-84960760D01*
X130633475Y-84786368D01*
X130426632Y-84579525D01*
X130252240Y-84463000D01*
X130426632Y-84346475D01*
X130633475Y-84139632D01*
X130750000Y-83965240D01*
X130866525Y-84139632D01*
%TA.AperFunction,NonConductor*%
D21*
G36*
X130866525Y-84139632D02*
G01*
X131073368Y-84346475D01*
X131247760Y-84463000D01*
X131073368Y-84579525D01*
X130866525Y-84786368D01*
X130750000Y-84960760D01*
X130633475Y-84786368D01*
X130426632Y-84579525D01*
X130252240Y-84463000D01*
X130426632Y-84346475D01*
X130633475Y-84139632D01*
X130750000Y-83965240D01*
X130866525Y-84139632D01*
G37*
%TD.AperFunction*%
D20*
X128326525Y-84139632D02*
X128533368Y-84346475D01*
X128707760Y-84463000D01*
X128533368Y-84579525D01*
X128326525Y-84786368D01*
X128210000Y-84960760D01*
X128093475Y-84786368D01*
X127886632Y-84579525D01*
X127712240Y-84463000D01*
X127886632Y-84346475D01*
X128093475Y-84139632D01*
X128210000Y-83965240D01*
X128326525Y-84139632D01*
%TA.AperFunction,NonConductor*%
D21*
G36*
X128326525Y-84139632D02*
G01*
X128533368Y-84346475D01*
X128707760Y-84463000D01*
X128533368Y-84579525D01*
X128326525Y-84786368D01*
X128210000Y-84960760D01*
X128093475Y-84786368D01*
X127886632Y-84579525D01*
X127712240Y-84463000D01*
X127886632Y-84346475D01*
X128093475Y-84139632D01*
X128210000Y-83965240D01*
X128326525Y-84139632D01*
G37*
%TD.AperFunction*%
D20*
X133787760Y-84463000D02*
X133613368Y-84579525D01*
X133406525Y-84786368D01*
X133290000Y-84960760D01*
X133173475Y-84786368D01*
X132966632Y-84579525D01*
X132792240Y-84463000D01*
X132916009Y-84380300D01*
X133663991Y-84380300D01*
X133787760Y-84463000D01*
%TA.AperFunction,NonConductor*%
D21*
G36*
X133787760Y-84463000D02*
G01*
X133613368Y-84579525D01*
X133406525Y-84786368D01*
X133290000Y-84960760D01*
X133173475Y-84786368D01*
X132966632Y-84579525D01*
X132792240Y-84463000D01*
X132916009Y-84380300D01*
X133663991Y-84380300D01*
X133787760Y-84463000D01*
G37*
%TD.AperFunction*%
D20*
X148706614Y-84531405D02*
X148833608Y-84599285D01*
X148646525Y-84786368D01*
X148530000Y-84960760D01*
X148413475Y-84786368D01*
X148206632Y-84579525D01*
X148032240Y-84463000D01*
X148084621Y-84428000D01*
X148580614Y-84428000D01*
X148706614Y-84531405D01*
%TA.AperFunction,NonConductor*%
D21*
G36*
X148706614Y-84531405D02*
G01*
X148833608Y-84599285D01*
X148646525Y-84786368D01*
X148530000Y-84960760D01*
X148413475Y-84786368D01*
X148206632Y-84579525D01*
X148032240Y-84463000D01*
X148084621Y-84428000D01*
X148580614Y-84428000D01*
X148706614Y-84531405D01*
G37*
%TD.AperFunction*%
D20*
X146487760Y-84463000D02*
X146313368Y-84579525D01*
X146106525Y-84786368D01*
X145990000Y-84960760D01*
X145873475Y-84786368D01*
X145666632Y-84579525D01*
X145492240Y-84463000D01*
X145544621Y-84428000D01*
X146435379Y-84428000D01*
X146487760Y-84463000D01*
%TA.AperFunction,NonConductor*%
D21*
G36*
X146487760Y-84463000D02*
G01*
X146313368Y-84579525D01*
X146106525Y-84786368D01*
X145990000Y-84960760D01*
X145873475Y-84786368D01*
X145666632Y-84579525D01*
X145492240Y-84463000D01*
X145544621Y-84428000D01*
X146435379Y-84428000D01*
X146487760Y-84463000D01*
G37*
%TD.AperFunction*%
M02*
