%TF.GenerationSoftware,KiCad,Pcbnew,(5.1.9)-1*%
%TF.CreationDate,2021-05-02T21:25:19-04:00*%
%TF.ProjectId,A-Max,412d4d61-782e-46b6-9963-61645f706362,1.0*%
%TF.SameCoordinates,Original*%
%TF.FileFunction,Legend,Top*%
%TF.FilePolarity,Positive*%
%FSLAX46Y46*%
G04 Gerber Fmt 4.6, Leading zero omitted, Abs format (unit mm)*
G04 Created by KiCad (PCBNEW (5.1.9)-1) date 2021-05-02 21:25:19*
%MOMM*%
%LPD*%
G01*
G04 APERTURE LIST*
%ADD10C,0.150000*%
%ADD11C,0.120000*%
G04 APERTURE END LIST*
D10*
X124115379Y-129821531D02*
X123782045Y-129821531D01*
X123782045Y-130345340D02*
X123782045Y-129345340D01*
X124258236Y-129345340D01*
X124639188Y-130345340D02*
X124639188Y-129678674D01*
X124639188Y-129869150D02*
X124686807Y-129773912D01*
X124734426Y-129726293D01*
X124829664Y-129678674D01*
X124924902Y-129678674D01*
X125686807Y-130345340D02*
X125686807Y-129821531D01*
X125639188Y-129726293D01*
X125543950Y-129678674D01*
X125353474Y-129678674D01*
X125258236Y-129726293D01*
X125686807Y-130297721D02*
X125591569Y-130345340D01*
X125353474Y-130345340D01*
X125258236Y-130297721D01*
X125210617Y-130202483D01*
X125210617Y-130107245D01*
X125258236Y-130012007D01*
X125353474Y-129964388D01*
X125591569Y-129964388D01*
X125686807Y-129916769D01*
X126162998Y-129678674D02*
X126162998Y-130345340D01*
X126162998Y-129773912D02*
X126210617Y-129726293D01*
X126305855Y-129678674D01*
X126448712Y-129678674D01*
X126543950Y-129726293D01*
X126591569Y-129821531D01*
X126591569Y-130345340D01*
X127067760Y-130345340D02*
X127067760Y-129345340D01*
X127162998Y-129964388D02*
X127448712Y-130345340D01*
X127448712Y-129678674D02*
X127067760Y-130059626D01*
X127924902Y-129345340D02*
X127829664Y-129535817D01*
X128305855Y-130297721D02*
X128401093Y-130345340D01*
X128591569Y-130345340D01*
X128686807Y-130297721D01*
X128734426Y-130202483D01*
X128734426Y-130154864D01*
X128686807Y-130059626D01*
X128591569Y-130012007D01*
X128448712Y-130012007D01*
X128353474Y-129964388D01*
X128305855Y-129869150D01*
X128305855Y-129821531D01*
X128353474Y-129726293D01*
X128448712Y-129678674D01*
X128591569Y-129678674D01*
X128686807Y-129726293D01*
X129829664Y-129345340D02*
X130448712Y-129345340D01*
X130115379Y-129726293D01*
X130258236Y-129726293D01*
X130353474Y-129773912D01*
X130401093Y-129821531D01*
X130448712Y-129916769D01*
X130448712Y-130154864D01*
X130401093Y-130250102D01*
X130353474Y-130297721D01*
X130258236Y-130345340D01*
X129972521Y-130345340D01*
X129877283Y-130297721D01*
X129829664Y-130250102D01*
X130877283Y-130345340D02*
X130877283Y-129345340D01*
X131115379Y-129345340D01*
X131258236Y-129392960D01*
X131353474Y-129488198D01*
X131401093Y-129583436D01*
X131448712Y-129773912D01*
X131448712Y-129916769D01*
X131401093Y-130107245D01*
X131353474Y-130202483D01*
X131258236Y-130297721D01*
X131115379Y-130345340D01*
X130877283Y-130345340D01*
X132591569Y-130297721D02*
X132734426Y-130345340D01*
X132972521Y-130345340D01*
X133067760Y-130297721D01*
X133115379Y-130250102D01*
X133162998Y-130154864D01*
X133162998Y-130059626D01*
X133115379Y-129964388D01*
X133067760Y-129916769D01*
X132972521Y-129869150D01*
X132782045Y-129821531D01*
X132686807Y-129773912D01*
X132639188Y-129726293D01*
X132591569Y-129631055D01*
X132591569Y-129535817D01*
X132639188Y-129440579D01*
X132686807Y-129392960D01*
X132782045Y-129345340D01*
X133020140Y-129345340D01*
X133162998Y-129392960D01*
X133591569Y-130345340D02*
X133591569Y-129345340D01*
X134020140Y-130345340D02*
X134020140Y-129821531D01*
X133972521Y-129726293D01*
X133877283Y-129678674D01*
X133734426Y-129678674D01*
X133639188Y-129726293D01*
X133591569Y-129773912D01*
X134639188Y-130345340D02*
X134543950Y-130297721D01*
X134496331Y-130250102D01*
X134448712Y-130154864D01*
X134448712Y-129869150D01*
X134496331Y-129773912D01*
X134543950Y-129726293D01*
X134639188Y-129678674D01*
X134782045Y-129678674D01*
X134877283Y-129726293D01*
X134924902Y-129773912D01*
X134972521Y-129869150D01*
X134972521Y-130154864D01*
X134924902Y-130250102D01*
X134877283Y-130297721D01*
X134782045Y-130345340D01*
X134639188Y-130345340D01*
X135401093Y-129678674D02*
X135401093Y-130678674D01*
X135401093Y-129726293D02*
X135496331Y-129678674D01*
X135686807Y-129678674D01*
X135782045Y-129726293D01*
X135829664Y-129773912D01*
X135877283Y-129869150D01*
X135877283Y-130154864D01*
X135829664Y-130250102D01*
X135782045Y-130297721D01*
X135686807Y-130345340D01*
X135496331Y-130345340D01*
X135401093Y-130297721D01*
X137877283Y-130345340D02*
X137829664Y-130345340D01*
X137734426Y-130297721D01*
X137591569Y-130154864D01*
X137353474Y-129869150D01*
X137258236Y-129726293D01*
X137210617Y-129583436D01*
X137210617Y-129488198D01*
X137258236Y-129392960D01*
X137353474Y-129345340D01*
X137401093Y-129345340D01*
X137496331Y-129392960D01*
X137543950Y-129488198D01*
X137543950Y-129535817D01*
X137496331Y-129631055D01*
X137448712Y-129678674D01*
X137162998Y-129869150D01*
X137115379Y-129916769D01*
X137067760Y-130012007D01*
X137067760Y-130154864D01*
X137115379Y-130250102D01*
X137162998Y-130297721D01*
X137258236Y-130345340D01*
X137401093Y-130345340D01*
X137496331Y-130297721D01*
X137543950Y-130250102D01*
X137686807Y-130059626D01*
X137734426Y-129916769D01*
X137734426Y-129821531D01*
X139067760Y-130345340D02*
X139067760Y-129345340D01*
X139305855Y-129345340D01*
X139448712Y-129392960D01*
X139543950Y-129488198D01*
X139591569Y-129583436D01*
X139639188Y-129773912D01*
X139639188Y-129916769D01*
X139591569Y-130107245D01*
X139543950Y-130202483D01*
X139448712Y-130297721D01*
X139305855Y-130345340D01*
X139067760Y-130345340D01*
X140067760Y-130345340D02*
X140067760Y-129678674D01*
X140067760Y-129869150D02*
X140115379Y-129773912D01*
X140162998Y-129726293D01*
X140258236Y-129678674D01*
X140353474Y-129678674D01*
X140686807Y-130250102D02*
X140734426Y-130297721D01*
X140686807Y-130345340D01*
X140639188Y-130297721D01*
X140686807Y-130250102D01*
X140686807Y-130345340D01*
X141924902Y-130345340D02*
X141924902Y-129345340D01*
X142162998Y-129345340D01*
X142305855Y-129392960D01*
X142401093Y-129488198D01*
X142448712Y-129583436D01*
X142496331Y-129773912D01*
X142496331Y-129916769D01*
X142448712Y-130107245D01*
X142401093Y-130202483D01*
X142305855Y-130297721D01*
X142162998Y-130345340D01*
X141924902Y-130345340D01*
X143353474Y-130345340D02*
X143353474Y-129821531D01*
X143305855Y-129726293D01*
X143210617Y-129678674D01*
X143020140Y-129678674D01*
X142924902Y-129726293D01*
X143353474Y-130297721D02*
X143258236Y-130345340D01*
X143020140Y-130345340D01*
X142924902Y-130297721D01*
X142877283Y-130202483D01*
X142877283Y-130107245D01*
X142924902Y-130012007D01*
X143020140Y-129964388D01*
X143258236Y-129964388D01*
X143353474Y-129916769D01*
X143734426Y-129678674D02*
X143972521Y-130345340D01*
X144210617Y-129678674D01*
X144972521Y-130297721D02*
X144877283Y-130345340D01*
X144686807Y-130345340D01*
X144591569Y-130297721D01*
X144543950Y-130202483D01*
X144543950Y-129821531D01*
X144591569Y-129726293D01*
X144686807Y-129678674D01*
X144877283Y-129678674D01*
X144972521Y-129726293D01*
X145020140Y-129821531D01*
X145020140Y-129916769D01*
X144543950Y-130012007D01*
X146210617Y-130345340D02*
X146210617Y-129345340D01*
X146448712Y-129345340D01*
X146591569Y-129392960D01*
X146686807Y-129488198D01*
X146734426Y-129583436D01*
X146782045Y-129773912D01*
X146782045Y-129916769D01*
X146734426Y-130107245D01*
X146686807Y-130202483D01*
X146591569Y-130297721D01*
X146448712Y-130345340D01*
X146210617Y-130345340D01*
X147210617Y-130345340D02*
X147210617Y-129678674D01*
X147210617Y-129345340D02*
X147162998Y-129392960D01*
X147210617Y-129440579D01*
X147258236Y-129392960D01*
X147210617Y-129345340D01*
X147210617Y-129440579D01*
X147591569Y-129678674D02*
X147829664Y-130345340D01*
X148067760Y-129678674D01*
X148829664Y-130297721D02*
X148734426Y-130345340D01*
X148543950Y-130345340D01*
X148448712Y-130297721D01*
X148401093Y-130202483D01*
X148401093Y-129821531D01*
X148448712Y-129726293D01*
X148543950Y-129678674D01*
X148734426Y-129678674D01*
X148829664Y-129726293D01*
X148877283Y-129821531D01*
X148877283Y-129916769D01*
X148401093Y-130012007D01*
X149305855Y-130345340D02*
X149305855Y-129678674D01*
X149305855Y-129869150D02*
X149353474Y-129773912D01*
X149401093Y-129726293D01*
X149496331Y-129678674D01*
X149591569Y-129678674D01*
X149877283Y-130297721D02*
X149972521Y-130345340D01*
X150162998Y-130345340D01*
X150258236Y-130297721D01*
X150305855Y-130202483D01*
X150305855Y-130154864D01*
X150258236Y-130059626D01*
X150162998Y-130012007D01*
X150020140Y-130012007D01*
X149924902Y-129964388D01*
X149877283Y-129869150D01*
X149877283Y-129821531D01*
X149924902Y-129726293D01*
X150020140Y-129678674D01*
X150162998Y-129678674D01*
X150258236Y-129726293D01*
X150734426Y-130345340D02*
X150734426Y-129678674D01*
X150734426Y-129345340D02*
X150686807Y-129392960D01*
X150734426Y-129440579D01*
X150782045Y-129392960D01*
X150734426Y-129345340D01*
X150734426Y-129440579D01*
X151353474Y-130345340D02*
X151258236Y-130297721D01*
X151210617Y-130250102D01*
X151162998Y-130154864D01*
X151162998Y-129869150D01*
X151210617Y-129773912D01*
X151258236Y-129726293D01*
X151353474Y-129678674D01*
X151496331Y-129678674D01*
X151591569Y-129726293D01*
X151639188Y-129773912D01*
X151686807Y-129869150D01*
X151686807Y-130154864D01*
X151639188Y-130250102D01*
X151591569Y-130297721D01*
X151496331Y-130345340D01*
X151353474Y-130345340D01*
X152115379Y-129678674D02*
X152115379Y-130345340D01*
X152115379Y-129773912D02*
X152162998Y-129726293D01*
X152258236Y-129678674D01*
X152401093Y-129678674D01*
X152496331Y-129726293D01*
X152543950Y-129821531D01*
X152543950Y-130345340D01*
X152972521Y-130297721D02*
X153067760Y-130345340D01*
X153258236Y-130345340D01*
X153353474Y-130297721D01*
X153401093Y-130202483D01*
X153401093Y-130154864D01*
X153353474Y-130059626D01*
X153258236Y-130012007D01*
X153115379Y-130012007D01*
X153020140Y-129964388D01*
X152972521Y-129869150D01*
X152972521Y-129821531D01*
X153020140Y-129726293D01*
X153115379Y-129678674D01*
X153258236Y-129678674D01*
X153353474Y-129726293D01*
D11*
%TO.C,C2*%
X144088000Y-115173000D02*
X147728000Y-115173000D01*
X144088000Y-117513000D02*
X147728000Y-117513000D01*
X144088000Y-115173000D02*
X144088000Y-115418000D01*
X144088000Y-117268000D02*
X144088000Y-117513000D01*
X147728000Y-115173000D02*
X147728000Y-115418000D01*
X147728000Y-117268000D02*
X147728000Y-117513000D01*
%TO.C,C1*%
X129008000Y-117663000D02*
X132648000Y-117663000D01*
X129008000Y-120003000D02*
X132648000Y-120003000D01*
X129008000Y-117663000D02*
X129008000Y-117908000D01*
X129008000Y-119758000D02*
X129008000Y-120003000D01*
X132648000Y-117663000D02*
X132648000Y-117908000D01*
X132648000Y-119758000D02*
X132648000Y-120003000D01*
%TO.C,J1*%
X116412000Y-121233333D02*
X120444000Y-121233333D01*
X120444000Y-121233333D02*
X120444000Y-88420667D01*
X120444000Y-88420667D02*
X116412000Y-88420667D01*
%TO.C,J3*%
X156500000Y-121179333D02*
X160240000Y-121179333D01*
X156500000Y-88112667D02*
X156500000Y-121179333D01*
X160240000Y-88112667D02*
X156500000Y-88112667D01*
%TO.C,D1*%
X147878000Y-127013000D02*
X147878000Y-124773000D01*
X147878000Y-124773000D02*
X143638000Y-124773000D01*
X143638000Y-124773000D02*
X143638000Y-127013000D01*
X143638000Y-127013000D02*
X147878000Y-127013000D01*
X148528000Y-125893000D02*
X147878000Y-125893000D01*
X142988000Y-125893000D02*
X143638000Y-125893000D01*
X147158000Y-127013000D02*
X147158000Y-124773000D01*
X147038000Y-127013000D02*
X147038000Y-124773000D01*
X147278000Y-127013000D02*
X147278000Y-124773000D01*
%TO.C,R460*%
X129041000Y-124591000D02*
X129041000Y-126431000D01*
X129041000Y-126431000D02*
X132881000Y-126431000D01*
X132881000Y-126431000D02*
X132881000Y-124591000D01*
X132881000Y-124591000D02*
X129041000Y-124591000D01*
X128091000Y-125511000D02*
X129041000Y-125511000D01*
X133831000Y-125511000D02*
X132881000Y-125511000D01*
%TO.C,D2*%
X147878000Y-123113000D02*
X147878000Y-120873000D01*
X147878000Y-120873000D02*
X143638000Y-120873000D01*
X143638000Y-120873000D02*
X143638000Y-123113000D01*
X143638000Y-123113000D02*
X147878000Y-123113000D01*
X148528000Y-121993000D02*
X147878000Y-121993000D01*
X142988000Y-121993000D02*
X143638000Y-121993000D01*
X147158000Y-123113000D02*
X147158000Y-120873000D01*
X147038000Y-123113000D02*
X147038000Y-120873000D01*
X147278000Y-123113000D02*
X147278000Y-120873000D01*
%TO.C,J2*%
X155010000Y-79903000D02*
X155010000Y-89023000D01*
X155010000Y-89023000D02*
X121730000Y-89023000D01*
X121730000Y-89023000D02*
X121730000Y-79903000D01*
X121730000Y-79903000D02*
X155010000Y-79903000D01*
X140420000Y-79903000D02*
X140420000Y-81213000D01*
X140420000Y-81213000D02*
X153710000Y-81213000D01*
X153710000Y-81213000D02*
X153710000Y-87713000D01*
X153710000Y-87713000D02*
X123030000Y-87713000D01*
X123030000Y-87713000D02*
X123030000Y-81213000D01*
X123030000Y-81213000D02*
X136320000Y-81213000D01*
X136320000Y-81213000D02*
X136320000Y-81213000D01*
X136320000Y-81213000D02*
X136320000Y-79903000D01*
X149800000Y-79513000D02*
X150300000Y-78513000D01*
X150300000Y-78513000D02*
X149300000Y-78513000D01*
X149300000Y-78513000D02*
X149800000Y-79513000D01*
%TO.C,U2*%
X143297000Y-114014000D02*
X144947000Y-114014000D01*
X143297000Y-96114000D02*
X143297000Y-114014000D01*
X148597000Y-96114000D02*
X143297000Y-96114000D01*
X148597000Y-114014000D02*
X148597000Y-96114000D01*
X146947000Y-114014000D02*
X148597000Y-114014000D01*
X144947000Y-114014000D02*
G75*
G02*
X146947000Y-114014000I1000000J0D01*
G01*
%TO.C,U1*%
X128214000Y-116498000D02*
X129864000Y-116498000D01*
X128214000Y-96058000D02*
X128214000Y-116498000D01*
X133514000Y-96058000D02*
X128214000Y-96058000D01*
X133514000Y-116498000D02*
X133514000Y-96058000D01*
X131864000Y-116498000D02*
X133514000Y-116498000D01*
X129864000Y-116498000D02*
G75*
G02*
X131864000Y-116498000I1000000J0D01*
G01*
%TO.C,C2*%
D10*
X145741333Y-114400142D02*
X145693714Y-114447761D01*
X145550857Y-114495380D01*
X145455619Y-114495380D01*
X145312761Y-114447761D01*
X145217523Y-114352523D01*
X145169904Y-114257285D01*
X145122285Y-114066809D01*
X145122285Y-113923952D01*
X145169904Y-113733476D01*
X145217523Y-113638238D01*
X145312761Y-113543000D01*
X145455619Y-113495380D01*
X145550857Y-113495380D01*
X145693714Y-113543000D01*
X145741333Y-113590619D01*
X146122285Y-113590619D02*
X146169904Y-113543000D01*
X146265142Y-113495380D01*
X146503238Y-113495380D01*
X146598476Y-113543000D01*
X146646095Y-113590619D01*
X146693714Y-113685857D01*
X146693714Y-113781095D01*
X146646095Y-113923952D01*
X146074666Y-114495380D01*
X146693714Y-114495380D01*
%TO.C,C1*%
X130661333Y-116890142D02*
X130613714Y-116937761D01*
X130470857Y-116985380D01*
X130375619Y-116985380D01*
X130232761Y-116937761D01*
X130137523Y-116842523D01*
X130089904Y-116747285D01*
X130042285Y-116556809D01*
X130042285Y-116413952D01*
X130089904Y-116223476D01*
X130137523Y-116128238D01*
X130232761Y-116033000D01*
X130375619Y-115985380D01*
X130470857Y-115985380D01*
X130613714Y-116033000D01*
X130661333Y-116080619D01*
X131613714Y-116985380D02*
X131042285Y-116985380D01*
X131328000Y-116985380D02*
X131328000Y-115985380D01*
X131232761Y-116128238D01*
X131137523Y-116223476D01*
X131042285Y-116271095D01*
%TO.C,J1*%
X121269480Y-105028233D02*
X121983766Y-105028233D01*
X122126623Y-105075852D01*
X122221861Y-105171090D01*
X122269480Y-105313947D01*
X122269480Y-105409185D01*
X122269480Y-104028233D02*
X122269480Y-104599661D01*
X122269480Y-104313947D02*
X121269480Y-104313947D01*
X121412338Y-104409185D01*
X121507576Y-104504423D01*
X121555195Y-104599661D01*
%TO.C,J3*%
X154843380Y-104943733D02*
X155557666Y-104943733D01*
X155700523Y-104991352D01*
X155795761Y-105086590D01*
X155843380Y-105229447D01*
X155843380Y-105324685D01*
X154843380Y-104562780D02*
X154843380Y-103943733D01*
X155224333Y-104277066D01*
X155224333Y-104134209D01*
X155271952Y-104038971D01*
X155319571Y-103991352D01*
X155414809Y-103943733D01*
X155652904Y-103943733D01*
X155748142Y-103991352D01*
X155795761Y-104038971D01*
X155843380Y-104134209D01*
X155843380Y-104419923D01*
X155795761Y-104515161D01*
X155748142Y-104562780D01*
%TO.C,D1*%
X151014304Y-126431380D02*
X151014304Y-125431380D01*
X151252400Y-125431380D01*
X151395257Y-125479000D01*
X151490495Y-125574238D01*
X151538114Y-125669476D01*
X151585733Y-125859952D01*
X151585733Y-126002809D01*
X151538114Y-126193285D01*
X151490495Y-126288523D01*
X151395257Y-126383761D01*
X151252400Y-126431380D01*
X151014304Y-126431380D01*
X152538114Y-126431380D02*
X151966685Y-126431380D01*
X152252400Y-126431380D02*
X152252400Y-125431380D01*
X152157161Y-125574238D01*
X152061923Y-125669476D01*
X151966685Y-125717095D01*
X143615142Y-124225380D02*
X143043714Y-124225380D01*
X143329428Y-124225380D02*
X143329428Y-123225380D01*
X143234190Y-123368238D01*
X143138952Y-123463476D01*
X143043714Y-123511095D01*
X144043714Y-124225380D02*
X144043714Y-123225380D01*
X144615142Y-124225380D01*
X144615142Y-123225380D01*
X145519904Y-123558714D02*
X145519904Y-124225380D01*
X145281809Y-123177761D02*
X145043714Y-123892047D01*
X145662761Y-123892047D01*
X146567523Y-124225380D02*
X145996095Y-124225380D01*
X146281809Y-124225380D02*
X146281809Y-123225380D01*
X146186571Y-123368238D01*
X146091333Y-123463476D01*
X145996095Y-123511095D01*
X147424666Y-123558714D02*
X147424666Y-124225380D01*
X147186571Y-123177761D02*
X146948476Y-123892047D01*
X147567523Y-123892047D01*
X148091333Y-123653952D02*
X147996095Y-123606333D01*
X147948476Y-123558714D01*
X147900857Y-123463476D01*
X147900857Y-123415857D01*
X147948476Y-123320619D01*
X147996095Y-123273000D01*
X148091333Y-123225380D01*
X148281809Y-123225380D01*
X148377047Y-123273000D01*
X148424666Y-123320619D01*
X148472285Y-123415857D01*
X148472285Y-123463476D01*
X148424666Y-123558714D01*
X148377047Y-123606333D01*
X148281809Y-123653952D01*
X148091333Y-123653952D01*
X147996095Y-123701571D01*
X147948476Y-123749190D01*
X147900857Y-123844428D01*
X147900857Y-124034904D01*
X147948476Y-124130142D01*
X147996095Y-124177761D01*
X148091333Y-124225380D01*
X148281809Y-124225380D01*
X148377047Y-124177761D01*
X148424666Y-124130142D01*
X148472285Y-124034904D01*
X148472285Y-123844428D01*
X148424666Y-123749190D01*
X148377047Y-123701571D01*
X148281809Y-123653952D01*
%TO.C,R460*%
X129841952Y-124043380D02*
X129508619Y-123567190D01*
X129270523Y-124043380D02*
X129270523Y-123043380D01*
X129651476Y-123043380D01*
X129746714Y-123091000D01*
X129794333Y-123138619D01*
X129841952Y-123233857D01*
X129841952Y-123376714D01*
X129794333Y-123471952D01*
X129746714Y-123519571D01*
X129651476Y-123567190D01*
X129270523Y-123567190D01*
X130699095Y-123376714D02*
X130699095Y-124043380D01*
X130461000Y-122995761D02*
X130222904Y-123710047D01*
X130841952Y-123710047D01*
X131651476Y-123043380D02*
X131461000Y-123043380D01*
X131365761Y-123091000D01*
X131318142Y-123138619D01*
X131222904Y-123281476D01*
X131175285Y-123471952D01*
X131175285Y-123852904D01*
X131222904Y-123948142D01*
X131270523Y-123995761D01*
X131365761Y-124043380D01*
X131556238Y-124043380D01*
X131651476Y-123995761D01*
X131699095Y-123948142D01*
X131746714Y-123852904D01*
X131746714Y-123614809D01*
X131699095Y-123519571D01*
X131651476Y-123471952D01*
X131556238Y-123424333D01*
X131365761Y-123424333D01*
X131270523Y-123471952D01*
X131222904Y-123519571D01*
X131175285Y-123614809D01*
X132365761Y-123043380D02*
X132461000Y-123043380D01*
X132556238Y-123091000D01*
X132603857Y-123138619D01*
X132651476Y-123233857D01*
X132699095Y-123424333D01*
X132699095Y-123662428D01*
X132651476Y-123852904D01*
X132603857Y-123948142D01*
X132556238Y-123995761D01*
X132461000Y-124043380D01*
X132365761Y-124043380D01*
X132270523Y-123995761D01*
X132222904Y-123948142D01*
X132175285Y-123852904D01*
X132127666Y-123662428D01*
X132127666Y-123424333D01*
X132175285Y-123233857D01*
X132222904Y-123138619D01*
X132270523Y-123091000D01*
X132365761Y-123043380D01*
X124825333Y-125963380D02*
X124492000Y-125487190D01*
X124253904Y-125963380D02*
X124253904Y-124963380D01*
X124634857Y-124963380D01*
X124730095Y-125011000D01*
X124777714Y-125058619D01*
X124825333Y-125153857D01*
X124825333Y-125296714D01*
X124777714Y-125391952D01*
X124730095Y-125439571D01*
X124634857Y-125487190D01*
X124253904Y-125487190D01*
X125777714Y-125963380D02*
X125206285Y-125963380D01*
X125492000Y-125963380D02*
X125492000Y-124963380D01*
X125396761Y-125106238D01*
X125301523Y-125201476D01*
X125206285Y-125249095D01*
%TO.C,D2*%
X151141304Y-122242380D02*
X151141304Y-121242380D01*
X151379400Y-121242380D01*
X151522257Y-121290000D01*
X151617495Y-121385238D01*
X151665114Y-121480476D01*
X151712733Y-121670952D01*
X151712733Y-121813809D01*
X151665114Y-122004285D01*
X151617495Y-122099523D01*
X151522257Y-122194761D01*
X151379400Y-122242380D01*
X151141304Y-122242380D01*
X152093685Y-121337619D02*
X152141304Y-121290000D01*
X152236542Y-121242380D01*
X152474638Y-121242380D01*
X152569876Y-121290000D01*
X152617495Y-121337619D01*
X152665114Y-121432857D01*
X152665114Y-121528095D01*
X152617495Y-121670952D01*
X152046066Y-122242380D01*
X152665114Y-122242380D01*
X143640542Y-120591380D02*
X143069114Y-120591380D01*
X143354828Y-120591380D02*
X143354828Y-119591380D01*
X143259590Y-119734238D01*
X143164352Y-119829476D01*
X143069114Y-119877095D01*
X144069114Y-120591380D02*
X144069114Y-119591380D01*
X144640542Y-120591380D01*
X144640542Y-119591380D01*
X145545304Y-119924714D02*
X145545304Y-120591380D01*
X145307209Y-119543761D02*
X145069114Y-120258047D01*
X145688161Y-120258047D01*
X146592923Y-120591380D02*
X146021495Y-120591380D01*
X146307209Y-120591380D02*
X146307209Y-119591380D01*
X146211971Y-119734238D01*
X146116733Y-119829476D01*
X146021495Y-119877095D01*
X147450066Y-119924714D02*
X147450066Y-120591380D01*
X147211971Y-119543761D02*
X146973876Y-120258047D01*
X147592923Y-120258047D01*
X148116733Y-120019952D02*
X148021495Y-119972333D01*
X147973876Y-119924714D01*
X147926257Y-119829476D01*
X147926257Y-119781857D01*
X147973876Y-119686619D01*
X148021495Y-119639000D01*
X148116733Y-119591380D01*
X148307209Y-119591380D01*
X148402447Y-119639000D01*
X148450066Y-119686619D01*
X148497685Y-119781857D01*
X148497685Y-119829476D01*
X148450066Y-119924714D01*
X148402447Y-119972333D01*
X148307209Y-120019952D01*
X148116733Y-120019952D01*
X148021495Y-120067571D01*
X147973876Y-120115190D01*
X147926257Y-120210428D01*
X147926257Y-120400904D01*
X147973876Y-120496142D01*
X148021495Y-120543761D01*
X148116733Y-120591380D01*
X148307209Y-120591380D01*
X148402447Y-120543761D01*
X148450066Y-120496142D01*
X148497685Y-120400904D01*
X148497685Y-120210428D01*
X148450066Y-120115190D01*
X148402447Y-120067571D01*
X148307209Y-120019952D01*
%TO.C,J2*%
X138250066Y-89787880D02*
X138250066Y-90502166D01*
X138202447Y-90645023D01*
X138107209Y-90740261D01*
X137964352Y-90787880D01*
X137869114Y-90787880D01*
X138678638Y-89883119D02*
X138726257Y-89835500D01*
X138821495Y-89787880D01*
X139059590Y-89787880D01*
X139154828Y-89835500D01*
X139202447Y-89883119D01*
X139250066Y-89978357D01*
X139250066Y-90073595D01*
X139202447Y-90216452D01*
X138631019Y-90787880D01*
X139250066Y-90787880D01*
%TO.C,U2*%
X145185095Y-92451380D02*
X145185095Y-93260904D01*
X145232714Y-93356142D01*
X145280333Y-93403761D01*
X145375571Y-93451380D01*
X145566047Y-93451380D01*
X145661285Y-93403761D01*
X145708904Y-93356142D01*
X145756523Y-93260904D01*
X145756523Y-92451380D01*
X146185095Y-92546619D02*
X146232714Y-92499000D01*
X146327952Y-92451380D01*
X146566047Y-92451380D01*
X146661285Y-92499000D01*
X146708904Y-92546619D01*
X146756523Y-92641857D01*
X146756523Y-92737095D01*
X146708904Y-92879952D01*
X146137476Y-93451380D01*
X146756523Y-93451380D01*
X142827952Y-93975380D02*
X143494619Y-93975380D01*
X143066047Y-94975380D01*
X144304142Y-94308714D02*
X144304142Y-94975380D01*
X144066047Y-93927761D02*
X143827952Y-94642047D01*
X144447000Y-94642047D01*
X145304142Y-94975380D02*
X144827952Y-94975380D01*
X144827952Y-93975380D01*
X145589857Y-94927761D02*
X145732714Y-94975380D01*
X145970809Y-94975380D01*
X146066047Y-94927761D01*
X146113666Y-94880142D01*
X146161285Y-94784904D01*
X146161285Y-94689666D01*
X146113666Y-94594428D01*
X146066047Y-94546809D01*
X145970809Y-94499190D01*
X145780333Y-94451571D01*
X145685095Y-94403952D01*
X145637476Y-94356333D01*
X145589857Y-94261095D01*
X145589857Y-94165857D01*
X145637476Y-94070619D01*
X145685095Y-94023000D01*
X145780333Y-93975380D01*
X146018428Y-93975380D01*
X146161285Y-94023000D01*
X146494619Y-93975380D02*
X147113666Y-93975380D01*
X146780333Y-94356333D01*
X146923190Y-94356333D01*
X147018428Y-94403952D01*
X147066047Y-94451571D01*
X147113666Y-94546809D01*
X147113666Y-94784904D01*
X147066047Y-94880142D01*
X147018428Y-94927761D01*
X146923190Y-94975380D01*
X146637476Y-94975380D01*
X146542238Y-94927761D01*
X146494619Y-94880142D01*
X147589857Y-94975380D02*
X147780333Y-94975380D01*
X147875571Y-94927761D01*
X147923190Y-94880142D01*
X148018428Y-94737285D01*
X148066047Y-94546809D01*
X148066047Y-94165857D01*
X148018428Y-94070619D01*
X147970809Y-94023000D01*
X147875571Y-93975380D01*
X147685095Y-93975380D01*
X147589857Y-94023000D01*
X147542238Y-94070619D01*
X147494619Y-94165857D01*
X147494619Y-94403952D01*
X147542238Y-94499190D01*
X147589857Y-94546809D01*
X147685095Y-94594428D01*
X147875571Y-94594428D01*
X147970809Y-94546809D01*
X148018428Y-94499190D01*
X148066047Y-94403952D01*
X148399380Y-93975380D02*
X149018428Y-93975380D01*
X148685095Y-94356333D01*
X148827952Y-94356333D01*
X148923190Y-94403952D01*
X148970809Y-94451571D01*
X149018428Y-94546809D01*
X149018428Y-94784904D01*
X148970809Y-94880142D01*
X148923190Y-94927761D01*
X148827952Y-94975380D01*
X148542238Y-94975380D01*
X148447000Y-94927761D01*
X148399380Y-94880142D01*
X145185095Y-104516380D02*
X145185095Y-105325904D01*
X145232714Y-105421142D01*
X145280333Y-105468761D01*
X145375571Y-105516380D01*
X145566047Y-105516380D01*
X145661285Y-105468761D01*
X145708904Y-105421142D01*
X145756523Y-105325904D01*
X145756523Y-104516380D01*
X146185095Y-104611619D02*
X146232714Y-104564000D01*
X146327952Y-104516380D01*
X146566047Y-104516380D01*
X146661285Y-104564000D01*
X146708904Y-104611619D01*
X146756523Y-104706857D01*
X146756523Y-104802095D01*
X146708904Y-104944952D01*
X146137476Y-105516380D01*
X146756523Y-105516380D01*
%TO.C,U1*%
X130198595Y-92578380D02*
X130198595Y-93387904D01*
X130246214Y-93483142D01*
X130293833Y-93530761D01*
X130389071Y-93578380D01*
X130579547Y-93578380D01*
X130674785Y-93530761D01*
X130722404Y-93483142D01*
X130770023Y-93387904D01*
X130770023Y-92578380D01*
X131770023Y-93578380D02*
X131198595Y-93578380D01*
X131484309Y-93578380D02*
X131484309Y-92578380D01*
X131389071Y-92721238D01*
X131293833Y-92816476D01*
X131198595Y-92864095D01*
X127841452Y-93975380D02*
X128508119Y-93975380D01*
X128079547Y-94975380D01*
X129317642Y-94308714D02*
X129317642Y-94975380D01*
X129079547Y-93927761D02*
X128841452Y-94642047D01*
X129460500Y-94642047D01*
X130317642Y-94975380D02*
X129841452Y-94975380D01*
X129841452Y-93975380D01*
X130603357Y-94927761D02*
X130746214Y-94975380D01*
X130984309Y-94975380D01*
X131079547Y-94927761D01*
X131127166Y-94880142D01*
X131174785Y-94784904D01*
X131174785Y-94689666D01*
X131127166Y-94594428D01*
X131079547Y-94546809D01*
X130984309Y-94499190D01*
X130793833Y-94451571D01*
X130698595Y-94403952D01*
X130650976Y-94356333D01*
X130603357Y-94261095D01*
X130603357Y-94165857D01*
X130650976Y-94070619D01*
X130698595Y-94023000D01*
X130793833Y-93975380D01*
X131031928Y-93975380D01*
X131174785Y-94023000D01*
X132127166Y-94975380D02*
X131555738Y-94975380D01*
X131841452Y-94975380D02*
X131841452Y-93975380D01*
X131746214Y-94118238D01*
X131650976Y-94213476D01*
X131555738Y-94261095D01*
X132460500Y-93975380D02*
X133079547Y-93975380D01*
X132746214Y-94356333D01*
X132889071Y-94356333D01*
X132984309Y-94403952D01*
X133031928Y-94451571D01*
X133079547Y-94546809D01*
X133079547Y-94784904D01*
X133031928Y-94880142D01*
X132984309Y-94927761D01*
X132889071Y-94975380D01*
X132603357Y-94975380D01*
X132508119Y-94927761D01*
X132460500Y-94880142D01*
X133555738Y-94975380D02*
X133746214Y-94975380D01*
X133841452Y-94927761D01*
X133889071Y-94880142D01*
X133984309Y-94737285D01*
X134031928Y-94546809D01*
X134031928Y-94165857D01*
X133984309Y-94070619D01*
X133936690Y-94023000D01*
X133841452Y-93975380D01*
X133650976Y-93975380D01*
X133555738Y-94023000D01*
X133508119Y-94070619D01*
X133460500Y-94165857D01*
X133460500Y-94403952D01*
X133508119Y-94499190D01*
X133555738Y-94546809D01*
X133650976Y-94594428D01*
X133841452Y-94594428D01*
X133936690Y-94546809D01*
X133984309Y-94499190D01*
X134031928Y-94403952D01*
X130102095Y-105730380D02*
X130102095Y-106539904D01*
X130149714Y-106635142D01*
X130197333Y-106682761D01*
X130292571Y-106730380D01*
X130483047Y-106730380D01*
X130578285Y-106682761D01*
X130625904Y-106635142D01*
X130673523Y-106539904D01*
X130673523Y-105730380D01*
X131673523Y-106730380D02*
X131102095Y-106730380D01*
X131387809Y-106730380D02*
X131387809Y-105730380D01*
X131292571Y-105873238D01*
X131197333Y-105968476D01*
X131102095Y-106016095D01*
%TD*%
M02*
