%TF.GenerationSoftware,KiCad,Pcbnew,(5.1.9)-1*%
%TF.CreationDate,2021-05-02T21:25:19-04:00*%
%TF.ProjectId,A-Max,412d4d61-782e-46b6-9963-61645f706362,1.0*%
%TF.SameCoordinates,Original*%
%TF.FileFunction,Legend,Bot*%
%TF.FilePolarity,Positive*%
%FSLAX46Y46*%
G04 Gerber Fmt 4.6, Leading zero omitted, Abs format (unit mm)*
G04 Created by KiCad (PCBNEW (5.1.9)-1) date 2021-05-02 21:25:19*
%MOMM*%
%LPD*%
G01*
G04 APERTURE LIST*
%ADD10C,0.150000*%
G04 APERTURE END LIST*
D10*
X145334857Y-78989380D02*
X144763428Y-78989380D01*
X145049142Y-79989380D02*
X145049142Y-78989380D01*
X144430095Y-79989380D02*
X144430095Y-78989380D01*
X144001523Y-79989380D02*
X144001523Y-79465571D01*
X144049142Y-79370333D01*
X144144380Y-79322714D01*
X144287238Y-79322714D01*
X144382476Y-79370333D01*
X144430095Y-79417952D01*
X143525333Y-79989380D02*
X143525333Y-79322714D01*
X143525333Y-78989380D02*
X143572952Y-79037000D01*
X143525333Y-79084619D01*
X143477714Y-79037000D01*
X143525333Y-78989380D01*
X143525333Y-79084619D01*
X143096761Y-79941761D02*
X143001523Y-79989380D01*
X142811047Y-79989380D01*
X142715809Y-79941761D01*
X142668190Y-79846523D01*
X142668190Y-79798904D01*
X142715809Y-79703666D01*
X142811047Y-79656047D01*
X142953904Y-79656047D01*
X143049142Y-79608428D01*
X143096761Y-79513190D01*
X143096761Y-79465571D01*
X143049142Y-79370333D01*
X142953904Y-79322714D01*
X142811047Y-79322714D01*
X142715809Y-79370333D01*
X141477714Y-79989380D02*
X141477714Y-79322714D01*
X141477714Y-78989380D02*
X141525333Y-79037000D01*
X141477714Y-79084619D01*
X141430095Y-79037000D01*
X141477714Y-78989380D01*
X141477714Y-79084619D01*
X141049142Y-79941761D02*
X140953904Y-79989380D01*
X140763428Y-79989380D01*
X140668190Y-79941761D01*
X140620571Y-79846523D01*
X140620571Y-79798904D01*
X140668190Y-79703666D01*
X140763428Y-79656047D01*
X140906285Y-79656047D01*
X141001523Y-79608428D01*
X141049142Y-79513190D01*
X141049142Y-79465571D01*
X141001523Y-79370333D01*
X140906285Y-79322714D01*
X140763428Y-79322714D01*
X140668190Y-79370333D01*
X139572952Y-78989380D02*
X139001523Y-78989380D01*
X139287238Y-79989380D02*
X139287238Y-78989380D01*
X138668190Y-79989380D02*
X138668190Y-78989380D01*
X138239619Y-79989380D02*
X138239619Y-79465571D01*
X138287238Y-79370333D01*
X138382476Y-79322714D01*
X138525333Y-79322714D01*
X138620571Y-79370333D01*
X138668190Y-79417952D01*
X137382476Y-79941761D02*
X137477714Y-79989380D01*
X137668190Y-79989380D01*
X137763428Y-79941761D01*
X137811047Y-79846523D01*
X137811047Y-79465571D01*
X137763428Y-79370333D01*
X137668190Y-79322714D01*
X137477714Y-79322714D01*
X137382476Y-79370333D01*
X137334857Y-79465571D01*
X137334857Y-79560809D01*
X137811047Y-79656047D01*
X136239619Y-78989380D02*
X136001523Y-79989380D01*
X135811047Y-79275095D01*
X135620571Y-79989380D01*
X135382476Y-78989380D01*
X134572952Y-79989380D02*
X134572952Y-79465571D01*
X134620571Y-79370333D01*
X134715809Y-79322714D01*
X134906285Y-79322714D01*
X135001523Y-79370333D01*
X134572952Y-79941761D02*
X134668190Y-79989380D01*
X134906285Y-79989380D01*
X135001523Y-79941761D01*
X135049142Y-79846523D01*
X135049142Y-79751285D01*
X135001523Y-79656047D01*
X134906285Y-79608428D01*
X134668190Y-79608428D01*
X134572952Y-79560809D01*
X134192000Y-79322714D02*
X133953904Y-79989380D01*
X133715809Y-79322714D02*
X133953904Y-79989380D01*
X134049142Y-80227476D01*
X134096761Y-80275095D01*
X134192000Y-80322714D01*
X133334857Y-79894142D02*
X133287238Y-79941761D01*
X133334857Y-79989380D01*
X133382476Y-79941761D01*
X133334857Y-79894142D01*
X133334857Y-79989380D01*
X133334857Y-79608428D02*
X133382476Y-79037000D01*
X133334857Y-78989380D01*
X133287238Y-79037000D01*
X133334857Y-79608428D01*
X133334857Y-78989380D01*
X132049142Y-79941761D02*
X132049142Y-79989380D01*
X132096761Y-80084619D01*
X132144380Y-80132238D01*
X132096761Y-79370333D02*
X132049142Y-79417952D01*
X132096761Y-79465571D01*
X132144380Y-79417952D01*
X132096761Y-79370333D01*
X132096761Y-79465571D01*
X131620571Y-79608428D02*
X130858666Y-79608428D01*
X130477714Y-80370333D02*
X130430095Y-80322714D01*
X130334857Y-80179857D01*
X130287238Y-80084619D01*
X130239619Y-79941761D01*
X130192000Y-79703666D01*
X130192000Y-79513190D01*
X130239619Y-79275095D01*
X130287238Y-79132238D01*
X130334857Y-79037000D01*
X130430095Y-78894142D01*
X130477714Y-78846523D01*
M02*
