%TF.GenerationSoftware,KiCad,Pcbnew,(5.1.9)-1*%
%TF.CreationDate,2021-05-02T21:25:19-04:00*%
%TF.ProjectId,A-Max,412d4d61-782e-46b6-9963-61645f706362,1.0*%
%TF.SameCoordinates,Original*%
%TF.FileFunction,Copper,L1,Top*%
%TF.FilePolarity,Positive*%
%FSLAX46Y46*%
G04 Gerber Fmt 4.6, Leading zero omitted, Abs format (unit mm)*
G04 Created by KiCad (PCBNEW (5.1.9)-1) date 2021-05-02 21:25:19*
%MOMM*%
%LPD*%
G01*
G04 APERTURE LIST*
%TA.AperFunction,ComponentPad*%
%ADD10C,1.600000*%
%TD*%
%TA.AperFunction,SMDPad,CuDef*%
%ADD11R,3.480000X1.846667*%
%TD*%
%TA.AperFunction,ComponentPad*%
%ADD12O,1.600000X1.600000*%
%TD*%
%TA.AperFunction,ComponentPad*%
%ADD13R,1.600000X1.600000*%
%TD*%
%TA.AperFunction,ComponentPad*%
%ADD14O,1.400000X1.400000*%
%TD*%
%TA.AperFunction,ComponentPad*%
%ADD15C,1.400000*%
%TD*%
%TA.AperFunction,ComponentPad*%
%ADD16C,1.700000*%
%TD*%
%TA.AperFunction,ViaPad*%
%ADD17C,0.800000*%
%TD*%
%TA.AperFunction,Conductor*%
%ADD18C,1.200000*%
%TD*%
%TA.AperFunction,Conductor*%
%ADD19C,0.250000*%
%TD*%
%TA.AperFunction,NonConductor*%
%ADD20C,0.254000*%
%TD*%
%TA.AperFunction,NonConductor*%
%ADD21C,0.100000*%
%TD*%
G04 APERTURE END LIST*
D10*
%TO.P,C2,2*%
%TO.N,GND*%
X147158000Y-116343000D03*
%TO.P,C2,1*%
%TO.N,+5V*%
X144658000Y-116343000D03*
%TD*%
%TO.P,C1,2*%
%TO.N,GND*%
X132078000Y-118833000D03*
%TO.P,C1,1*%
%TO.N,+5V*%
X129578000Y-118833000D03*
%TD*%
D11*
%TO.P,J1,12*%
%TO.N,+5V*%
X118444000Y-89580000D03*
%TO.P,J1,11*%
%TO.N,_CHNG*%
X118444000Y-92350000D03*
%TO.P,J1,10*%
%TO.N,_DRES*%
X118444000Y-95120000D03*
%TO.P,J1,9*%
%TO.N,_SEL3*%
X118444000Y-97890000D03*
%TO.P,J1,8*%
%TO.N,+5V*%
X118444000Y-100660000D03*
%TO.P,J1,7*%
%TO.N,GND*%
X118444000Y-103430000D03*
%TO.P,J1,6*%
X118444000Y-106200000D03*
%TO.P,J1,5*%
X118444000Y-108970000D03*
%TO.P,J1,4*%
X118444000Y-111740000D03*
%TO.P,J1,3*%
X118444000Y-114510000D03*
%TO.P,J1,2*%
%TO.N,/_DKRD*%
X118444000Y-117280000D03*
%TO.P,J1,1*%
%TO.N,/_RDY*%
X118444000Y-120050000D03*
%TD*%
%TO.P,J3,1*%
%TO.N,/_RDY*%
X158500000Y-119996000D03*
%TO.P,J3,2*%
%TO.N,/_DKRD*%
X158500000Y-117226000D03*
%TO.P,J3,3*%
%TO.N,GND*%
X158500000Y-114456000D03*
%TO.P,J3,4*%
X158500000Y-111686000D03*
%TO.P,J3,5*%
X158500000Y-108916000D03*
%TO.P,J3,6*%
X158500000Y-106146000D03*
%TO.P,J3,7*%
X158500000Y-103376000D03*
%TO.P,J3,8*%
%TO.N,+5V*%
X158500000Y-100606000D03*
%TO.P,J3,9*%
%TO.N,_SEL2*%
X158500000Y-97836000D03*
%TO.P,J3,10*%
%TO.N,_DRES*%
X158500000Y-95066000D03*
%TO.P,J3,11*%
%TO.N,_CHNG*%
X158500000Y-92296000D03*
%TO.P,J3,12*%
%TO.N,+5V*%
X158500000Y-89526000D03*
%TD*%
D12*
%TO.P,D1,2*%
%TO.N,Net-(D1-Pad2)*%
X141948000Y-125893000D03*
D13*
%TO.P,D1,1*%
%TO.N,/_RDY*%
X149568000Y-125893000D03*
%TD*%
D14*
%TO.P,R460,2*%
%TO.N,GND*%
X134771000Y-125511000D03*
D15*
%TO.P,R460,1*%
%TO.N,_SEL2*%
X127151000Y-125511000D03*
%TD*%
D12*
%TO.P,D2,2*%
%TO.N,Net-(D1-Pad2)*%
X141948000Y-121993000D03*
D13*
%TO.P,D2,1*%
%TO.N,/_DKRD*%
X149568000Y-121993000D03*
%TD*%
D16*
%TO.P,J2,20*%
%TO.N,Net-(J2-Pad20)*%
X126940000Y-85733000D03*
%TO.P,J2,18*%
%TO.N,WR*%
X129480000Y-85733000D03*
%TO.P,J2,16*%
%TO.N,RD*%
X132020000Y-85733000D03*
%TO.P,J2,14*%
%TO.N,_Enbl2*%
X134560000Y-85733000D03*
%TO.P,J2,12*%
%TO.N,_TKO*%
X137100000Y-85733000D03*
%TO.P,J2,10*%
%TO.N,_DKWE*%
X139640000Y-85733000D03*
%TO.P,J2,8*%
%TO.N,_WPRO*%
X142180000Y-85733000D03*
%TO.P,J2,6*%
%TO.N,_SIDE*%
X144720000Y-85733000D03*
%TO.P,J2,4*%
%TO.N,DIR*%
X147260000Y-85733000D03*
%TO.P,J2,2*%
%TO.N,_STEP*%
X149800000Y-85733000D03*
%TO.P,J2,19*%
%TO.N,Net-(J2-Pad19)*%
X126940000Y-83193000D03*
%TO.P,J2,17*%
%TO.N,Net-(J2-Pad17)*%
X129480000Y-83193000D03*
%TO.P,J2,15*%
%TO.N,+12V*%
X132020000Y-83193000D03*
%TO.P,J2,13*%
X134560000Y-83193000D03*
%TO.P,J2,11*%
%TO.N,+5V*%
X137100000Y-83193000D03*
%TO.P,J2,9*%
%TO.N,Net-(J2-Pad9)*%
X139640000Y-83193000D03*
%TO.P,J2,7*%
%TO.N,GND*%
X142180000Y-83193000D03*
%TO.P,J2,5*%
X144720000Y-83193000D03*
%TO.P,J2,3*%
X147260000Y-83193000D03*
%TO.P,J2,1*%
%TA.AperFunction,ComponentPad*%
G36*
G01*
X149200000Y-82343000D02*
X150400000Y-82343000D01*
G75*
G02*
X150650000Y-82593000I0J-250000D01*
G01*
X150650000Y-83793000D01*
G75*
G02*
X150400000Y-84043000I-250000J0D01*
G01*
X149200000Y-84043000D01*
G75*
G02*
X148950000Y-83793000I0J250000D01*
G01*
X148950000Y-82593000D01*
G75*
G02*
X149200000Y-82343000I250000J0D01*
G01*
G37*
%TD.AperFunction*%
%TD*%
D12*
%TO.P,U2,14*%
%TO.N,+5V*%
X142137000Y-112684000D03*
%TO.P,U2,7*%
%TO.N,GND*%
X149757000Y-97444000D03*
%TO.P,U2,13*%
%TO.N,Net-(U2-Pad13)*%
X142137000Y-110144000D03*
%TO.P,U2,6*%
%TO.N,Net-(U2-Pad6)*%
X149757000Y-99984000D03*
%TO.P,U2,12*%
%TO.N,Net-(U2-Pad12)*%
X142137000Y-107604000D03*
%TO.P,U2,5*%
%TO.N,Net-(U2-Pad5)*%
X149757000Y-102524000D03*
%TO.P,U2,11*%
%TO.N,Net-(U2-Pad11)*%
X142137000Y-105064000D03*
%TO.P,U2,4*%
%TO.N,Net-(U2-Pad4)*%
X149757000Y-105064000D03*
%TO.P,U2,10*%
%TO.N,Net-(U2-Pad10)*%
X142137000Y-102524000D03*
%TO.P,U2,3*%
%TO.N,WR*%
X149757000Y-107604000D03*
%TO.P,U2,9*%
%TO.N,Net-(U2-Pad9)*%
X142137000Y-99984000D03*
%TO.P,U2,2*%
%TO.N,DIR*%
X149757000Y-110144000D03*
%TO.P,U2,8*%
%TO.N,Net-(U2-Pad8)*%
X142137000Y-97444000D03*
D13*
%TO.P,U2,1*%
%TO.N,_DKWD*%
X149757000Y-112684000D03*
%TD*%
D12*
%TO.P,U1,16*%
%TO.N,+5V*%
X127054000Y-115168000D03*
%TO.P,U1,8*%
%TO.N,GND*%
X134674000Y-97388000D03*
%TO.P,U1,15*%
X127054000Y-112628000D03*
%TO.P,U1,7*%
%TO.N,Net-(U1-Pad7)*%
X134674000Y-99928000D03*
%TO.P,U1,14*%
%TO.N,+5V*%
X127054000Y-110088000D03*
%TO.P,U1,6*%
%TO.N,Net-(U1-Pad6)*%
X134674000Y-102468000D03*
%TO.P,U1,13*%
%TO.N,_SEL1*%
X127054000Y-107548000D03*
%TO.P,U1,5*%
%TO.N,Net-(U1-Pad5)*%
X134674000Y-105008000D03*
%TO.P,U1,12*%
%TO.N,_Enbl2*%
X127054000Y-105008000D03*
%TO.P,U1,4*%
%TO.N,Net-(D1-Pad2)*%
X134674000Y-107548000D03*
%TO.P,U1,11*%
%TO.N,Net-(U1-Pad11)*%
X127054000Y-102468000D03*
%TO.P,U1,3*%
%TO.N,GND*%
X134674000Y-110088000D03*
%TO.P,U1,10*%
%TO.N,Net-(U1-Pad10)*%
X127054000Y-99928000D03*
%TO.P,U1,2*%
%TO.N,RD*%
X134674000Y-112628000D03*
%TO.P,U1,9*%
%TO.N,Net-(U1-Pad9)*%
X127054000Y-97388000D03*
D13*
%TO.P,U1,1*%
%TO.N,GND*%
X134674000Y-115168000D03*
%TD*%
D17*
%TO.N,_SEL1*%
X128295200Y-93062100D03*
%TO.N,_SEL3*%
X120795100Y-98128800D03*
%TO.N,DIR*%
X147765800Y-94474000D03*
%TO.N,_STEP*%
X149437400Y-95638300D03*
%TO.N,_DKWE*%
X139561800Y-114500400D03*
%TO.N,_TKO*%
X138848500Y-115276000D03*
%TO.N,_WPRO*%
X140275000Y-117813200D03*
%TO.N,_SIDE*%
X142072300Y-118611000D03*
%TO.N,_CHNG*%
X120873700Y-92350000D03*
X156131600Y-92672500D03*
%TO.N,_DRES*%
X120938400Y-95096000D03*
X156140100Y-95596900D03*
%TO.N,_SEL2*%
X156134800Y-97413200D03*
X129023700Y-93786200D03*
%TO.N,WR*%
X141539700Y-90450000D03*
%TO.N,_Enbl2*%
X133032900Y-99427900D03*
%TD*%
D18*
%TO.N,+5V*%
X155759700Y-89526000D02*
X154729100Y-90556600D01*
X154729100Y-90556600D02*
X154729100Y-99575400D01*
X154729100Y-99575400D02*
X155759700Y-100606000D01*
X137100000Y-83077200D02*
X138879200Y-81298000D01*
X138879200Y-81298000D02*
X150880600Y-81298000D01*
X150880600Y-81298000D02*
X155759700Y-86177100D01*
X155759700Y-86177100D02*
X155759700Y-89526000D01*
X158500000Y-100606000D02*
X155759700Y-100606000D01*
X137100000Y-83077200D02*
X135326700Y-81303900D01*
X135326700Y-81303900D02*
X126190200Y-81303900D01*
X126190200Y-81303900D02*
X121184300Y-86309800D01*
X121184300Y-86309800D02*
X121184300Y-89580000D01*
X137100000Y-83193000D02*
X137100000Y-83077200D01*
X158500000Y-89526000D02*
X155759700Y-89526000D01*
X127054000Y-115168000D02*
X127054000Y-116968300D01*
X127054000Y-116968300D02*
X127713300Y-116968300D01*
X127713300Y-116968300D02*
X129578000Y-118833000D01*
X121184300Y-100660000D02*
X122338700Y-99505600D01*
X122338700Y-99505600D02*
X122338700Y-90734400D01*
X122338700Y-90734400D02*
X121184300Y-89580000D01*
X125253700Y-110088000D02*
X125253700Y-104729400D01*
X125253700Y-104729400D02*
X121184300Y-100660000D01*
X118444000Y-89580000D02*
X121184300Y-89580000D01*
X118444000Y-100660000D02*
X121184300Y-100660000D01*
X127054000Y-110088000D02*
X125253700Y-110088000D01*
X142137000Y-112684000D02*
X142137000Y-114484300D01*
X144658000Y-116343000D02*
X142799300Y-114484300D01*
X142799300Y-114484300D02*
X142137000Y-114484300D01*
%TO.N,GND*%
X157129900Y-103376000D02*
X155759700Y-103376000D01*
X158500000Y-103376000D02*
X157129900Y-103376000D01*
X157129900Y-103376000D02*
X157129900Y-106146000D01*
X151628100Y-97444000D02*
X151628100Y-99244400D01*
X151628100Y-99244400D02*
X155759700Y-103376000D01*
X149800000Y-83193000D02*
X149918100Y-83193000D01*
X149918100Y-83193000D02*
X151698800Y-84973700D01*
X151698800Y-84973700D02*
X151698800Y-97373300D01*
X151698800Y-97373300D02*
X151628100Y-97444000D01*
X151557300Y-97444000D02*
X151628100Y-97444000D01*
X158500000Y-106146000D02*
X157129900Y-106146000D01*
X157129900Y-106146000D02*
X157129900Y-108916000D01*
X158500000Y-108916000D02*
X157129900Y-108916000D01*
X157129900Y-108916000D02*
X157129900Y-111686000D01*
X157129900Y-111686000D02*
X156765100Y-112050800D01*
X156765100Y-112050800D02*
X156765100Y-114456000D01*
X158500000Y-111686000D02*
X157129900Y-111686000D01*
X156765100Y-114456000D02*
X156736700Y-114484400D01*
X156736700Y-114484400D02*
X149016600Y-114484400D01*
X149016600Y-114484400D02*
X147158000Y-116343000D01*
X158500000Y-114456000D02*
X156765100Y-114456000D01*
X127054000Y-112628000D02*
X125253700Y-112628000D01*
X125253700Y-112628000D02*
X124365700Y-111740000D01*
X124365700Y-111740000D02*
X121184300Y-111740000D01*
X118444000Y-103430000D02*
X121184300Y-103430000D01*
X118444000Y-106200000D02*
X121184300Y-106200000D01*
X118444000Y-108970000D02*
X121184300Y-108970000D01*
X121184300Y-111740000D02*
X121184300Y-108970000D01*
X118444000Y-114510000D02*
X121184300Y-114510000D01*
X118444000Y-111740000D02*
X121184300Y-111740000D01*
X121184300Y-114510000D02*
X121184300Y-111740000D01*
X121184300Y-106200000D02*
X121184300Y-103430000D01*
X121184300Y-108970000D02*
X121184300Y-106200000D01*
X134771000Y-125511000D02*
X134771000Y-123810700D01*
X134771000Y-123810700D02*
X132078000Y-121117700D01*
X132078000Y-121117700D02*
X132078000Y-118833000D01*
X149757000Y-97444000D02*
X151557300Y-97444000D01*
X134674000Y-115168000D02*
X134674000Y-116968300D01*
X134674000Y-116968300D02*
X133942700Y-116968300D01*
X133942700Y-116968300D02*
X132078000Y-118833000D01*
D19*
%TO.N,_SEL1*%
X127054000Y-107548000D02*
X127054000Y-106422700D01*
X127054000Y-106422700D02*
X127335300Y-106422700D01*
X127335300Y-106422700D02*
X128295200Y-105462800D01*
X128295200Y-105462800D02*
X128295200Y-93062100D01*
%TO.N,_SEL3*%
X120795100Y-98128800D02*
X120748100Y-98128800D01*
X120748100Y-98128800D02*
X120509300Y-97890000D01*
X118444000Y-97890000D02*
X120509300Y-97890000D01*
%TO.N,DIR*%
X149757000Y-109018700D02*
X150038300Y-109018700D01*
X150038300Y-109018700D02*
X150896300Y-108160700D01*
X150896300Y-108160700D02*
X150896300Y-104608400D01*
X150896300Y-104608400D02*
X150081900Y-103794000D01*
X150081900Y-103794000D02*
X149392900Y-103794000D01*
X149392900Y-103794000D02*
X147765800Y-102166900D01*
X147765800Y-102166900D02*
X147765800Y-94474000D01*
X147765800Y-94474000D02*
X147260000Y-93968200D01*
X147260000Y-93968200D02*
X147260000Y-85733000D01*
X149757000Y-110144000D02*
X149757000Y-109018700D01*
%TO.N,_STEP*%
X149800000Y-85733000D02*
X149800000Y-95275700D01*
X149800000Y-95275700D02*
X149437400Y-95638300D01*
%TO.N,_DKWE*%
X139640000Y-85733000D02*
X139561800Y-85811200D01*
X139561800Y-85811200D02*
X139561800Y-114500400D01*
%TO.N,_TKO*%
X137100000Y-85733000D02*
X137100000Y-113527500D01*
X137100000Y-113527500D02*
X138848500Y-115276000D01*
%TO.N,_WPRO*%
X140275000Y-117813200D02*
X140287100Y-117801100D01*
X140287100Y-117801100D02*
X140287100Y-87625900D01*
X140287100Y-87625900D02*
X142180000Y-85733000D01*
%TO.N,_SIDE*%
X144720000Y-85733000D02*
X140803200Y-89649800D01*
X140803200Y-89649800D02*
X140803200Y-117288700D01*
X140803200Y-117288700D02*
X142072300Y-118557800D01*
X142072300Y-118557800D02*
X142072300Y-118611000D01*
%TO.N,_CHNG*%
X156434700Y-92296000D02*
X156131600Y-92599100D01*
X156131600Y-92599100D02*
X156131600Y-92672500D01*
X120509300Y-92350000D02*
X120873700Y-92350000D01*
X158500000Y-92296000D02*
X156434700Y-92296000D01*
X118444000Y-92350000D02*
X120509300Y-92350000D01*
%TO.N,_DRES*%
X156434700Y-95066000D02*
X156434700Y-95302300D01*
X156434700Y-95302300D02*
X156140100Y-95596900D01*
X158500000Y-95066000D02*
X156434700Y-95066000D01*
X118444000Y-95120000D02*
X120509300Y-95120000D01*
X120938400Y-95096000D02*
X120533300Y-95096000D01*
X120533300Y-95096000D02*
X120509300Y-95120000D01*
%TO.N,_SEL2*%
X156434700Y-97836000D02*
X156434700Y-97713100D01*
X156434700Y-97713100D02*
X156134800Y-97413200D01*
X158500000Y-97836000D02*
X156434700Y-97836000D01*
X127151000Y-125511000D02*
X128387100Y-126747100D01*
X128387100Y-126747100D02*
X135337200Y-126747100D01*
X135337200Y-126747100D02*
X135999400Y-126084900D01*
X135999400Y-126084900D02*
X135999400Y-114102100D01*
X135999400Y-114102100D02*
X135739900Y-113842600D01*
X135739900Y-113842600D02*
X134244400Y-113842600D01*
X134244400Y-113842600D02*
X129023800Y-108622000D01*
X129023800Y-108622000D02*
X129023800Y-93786200D01*
X129023800Y-93786200D02*
X129023700Y-93786200D01*
%TO.N,/_DKRD*%
X118444000Y-117280000D02*
X120509300Y-117280000D01*
X149568000Y-121993000D02*
X148442700Y-121993000D01*
X148442700Y-121993000D02*
X143238200Y-127197500D01*
X143238200Y-127197500D02*
X127387400Y-127197500D01*
X127387400Y-127197500D02*
X122715600Y-122525700D01*
X122715600Y-122525700D02*
X122715600Y-119486300D01*
X122715600Y-119486300D02*
X120509300Y-117280000D01*
X150130700Y-121993000D02*
X149568000Y-121993000D01*
X150130700Y-121993000D02*
X150693300Y-121993000D01*
X150693300Y-121993000D02*
X155460300Y-117226000D01*
X155460300Y-117226000D02*
X158500000Y-117226000D01*
%TO.N,/_RDY*%
X149568000Y-125893000D02*
X150693300Y-125893000D01*
X158500000Y-119996000D02*
X156434700Y-119996000D01*
X150693300Y-125893000D02*
X150693300Y-125737400D01*
X150693300Y-125737400D02*
X156434700Y-119996000D01*
X149005400Y-125893000D02*
X149568000Y-125893000D01*
X149005400Y-125893000D02*
X148442700Y-125893000D01*
X118444000Y-120050000D02*
X120509300Y-120050000D01*
X148442700Y-125893000D02*
X146676600Y-127659100D01*
X146676600Y-127659100D02*
X127181900Y-127659100D01*
X127181900Y-127659100D02*
X120509300Y-120986500D01*
X120509300Y-120986500D02*
X120509300Y-120050000D01*
%TO.N,WR*%
X149757000Y-107604000D02*
X149757000Y-106478700D01*
X149757000Y-106478700D02*
X149475700Y-106478700D01*
X149475700Y-106478700D02*
X146809600Y-103812600D01*
X146809600Y-103812600D02*
X146809600Y-95719900D01*
X146809600Y-95719900D02*
X141539700Y-90450000D01*
%TO.N,RD*%
X134674000Y-112628000D02*
X134674000Y-111502700D01*
X134674000Y-111502700D02*
X134111400Y-111502700D01*
X134111400Y-111502700D02*
X132020000Y-109411300D01*
X132020000Y-109411300D02*
X132020000Y-85733000D01*
%TO.N,_Enbl2*%
X133032900Y-99427900D02*
X133032900Y-87260100D01*
X133032900Y-87260100D02*
X134560000Y-85733000D01*
%TO.N,Net-(D1-Pad2)*%
X141948000Y-121993000D02*
X141948000Y-120867700D01*
X134674000Y-107548000D02*
X134674000Y-108673300D01*
X134674000Y-108673300D02*
X135236600Y-108673300D01*
X135236600Y-108673300D02*
X136483800Y-109920500D01*
X136483800Y-109920500D02*
X136483800Y-115403500D01*
X136483800Y-115403500D02*
X141948000Y-120867700D01*
X141948000Y-121993000D02*
X141948000Y-125893000D01*
%TD*%
D20*
X156308815Y-121370518D02*
X156405506Y-121449870D01*
X156515820Y-121508835D01*
X156635518Y-121545145D01*
X156760000Y-121557405D01*
X159820140Y-121557405D01*
X159822815Y-131032960D01*
X117142814Y-131032960D01*
X117141896Y-127779872D01*
X117765000Y-127779872D01*
X117765000Y-128220128D01*
X117850890Y-128651925D01*
X118019369Y-129058669D01*
X118263962Y-129424729D01*
X118575271Y-129736038D01*
X118941331Y-129980631D01*
X119348075Y-130149110D01*
X119779872Y-130235000D01*
X120220128Y-130235000D01*
X120651925Y-130149110D01*
X121058669Y-129980631D01*
X121424729Y-129736038D01*
X121736038Y-129424729D01*
X121980631Y-129058669D01*
X122149110Y-128651925D01*
X122235000Y-128220128D01*
X122235000Y-127779872D01*
X122149110Y-127348075D01*
X121980631Y-126941331D01*
X121736038Y-126575271D01*
X121424729Y-126263962D01*
X121058669Y-126019369D01*
X120651925Y-125850890D01*
X120220128Y-125765000D01*
X119779872Y-125765000D01*
X119348075Y-125850890D01*
X118941331Y-126019369D01*
X118575271Y-126263962D01*
X118263962Y-126575271D01*
X118019369Y-126941331D01*
X117850890Y-127348075D01*
X117765000Y-127779872D01*
X117141896Y-127779872D01*
X117140155Y-121611405D01*
X120059404Y-121611405D01*
X126618105Y-128170108D01*
X126641899Y-128199101D01*
X126670892Y-128222895D01*
X126670896Y-128222899D01*
X126741585Y-128280911D01*
X126757624Y-128294074D01*
X126889653Y-128364646D01*
X127032914Y-128408103D01*
X127144567Y-128419100D01*
X127144576Y-128419100D01*
X127181899Y-128422776D01*
X127219222Y-128419100D01*
X146639278Y-128419100D01*
X146676600Y-128422776D01*
X146713922Y-128419100D01*
X146713933Y-128419100D01*
X146825586Y-128408103D01*
X146968847Y-128364646D01*
X147100876Y-128294074D01*
X147216601Y-128199101D01*
X147240404Y-128170097D01*
X147630629Y-127779872D01*
X154765000Y-127779872D01*
X154765000Y-128220128D01*
X154850890Y-128651925D01*
X155019369Y-129058669D01*
X155263962Y-129424729D01*
X155575271Y-129736038D01*
X155941331Y-129980631D01*
X156348075Y-130149110D01*
X156779872Y-130235000D01*
X157220128Y-130235000D01*
X157651925Y-130149110D01*
X158058669Y-129980631D01*
X158424729Y-129736038D01*
X158736038Y-129424729D01*
X158980631Y-129058669D01*
X159149110Y-128651925D01*
X159235000Y-128220128D01*
X159235000Y-127779872D01*
X159149110Y-127348075D01*
X158980631Y-126941331D01*
X158736038Y-126575271D01*
X158424729Y-126263962D01*
X158058669Y-126019369D01*
X157651925Y-125850890D01*
X157220128Y-125765000D01*
X156779872Y-125765000D01*
X156348075Y-125850890D01*
X155941331Y-126019369D01*
X155575271Y-126263962D01*
X155263962Y-126575271D01*
X155019369Y-126941331D01*
X154850890Y-127348075D01*
X154765000Y-127779872D01*
X147630629Y-127779872D01*
X148294053Y-127116449D01*
X148316815Y-127144185D01*
X148413506Y-127223537D01*
X148523820Y-127282502D01*
X148643518Y-127318812D01*
X148768000Y-127331072D01*
X150368000Y-127331072D01*
X150492482Y-127318812D01*
X150612180Y-127282502D01*
X150722494Y-127223537D01*
X150819185Y-127144185D01*
X150898537Y-127047494D01*
X150957502Y-126937180D01*
X150993812Y-126817482D01*
X151006072Y-126693000D01*
X151006072Y-126587575D01*
X151117576Y-126527974D01*
X151233301Y-126433001D01*
X151328274Y-126317276D01*
X151398846Y-126185247D01*
X151433067Y-126072434D01*
X156230460Y-121275042D01*
X156308815Y-121370518D01*
%TA.AperFunction,NonConductor*%
D21*
G36*
X156308815Y-121370518D02*
G01*
X156405506Y-121449870D01*
X156515820Y-121508835D01*
X156635518Y-121545145D01*
X156760000Y-121557405D01*
X159820140Y-121557405D01*
X159822815Y-131032960D01*
X117142814Y-131032960D01*
X117141896Y-127779872D01*
X117765000Y-127779872D01*
X117765000Y-128220128D01*
X117850890Y-128651925D01*
X118019369Y-129058669D01*
X118263962Y-129424729D01*
X118575271Y-129736038D01*
X118941331Y-129980631D01*
X119348075Y-130149110D01*
X119779872Y-130235000D01*
X120220128Y-130235000D01*
X120651925Y-130149110D01*
X121058669Y-129980631D01*
X121424729Y-129736038D01*
X121736038Y-129424729D01*
X121980631Y-129058669D01*
X122149110Y-128651925D01*
X122235000Y-128220128D01*
X122235000Y-127779872D01*
X122149110Y-127348075D01*
X121980631Y-126941331D01*
X121736038Y-126575271D01*
X121424729Y-126263962D01*
X121058669Y-126019369D01*
X120651925Y-125850890D01*
X120220128Y-125765000D01*
X119779872Y-125765000D01*
X119348075Y-125850890D01*
X118941331Y-126019369D01*
X118575271Y-126263962D01*
X118263962Y-126575271D01*
X118019369Y-126941331D01*
X117850890Y-127348075D01*
X117765000Y-127779872D01*
X117141896Y-127779872D01*
X117140155Y-121611405D01*
X120059404Y-121611405D01*
X126618105Y-128170108D01*
X126641899Y-128199101D01*
X126670892Y-128222895D01*
X126670896Y-128222899D01*
X126741585Y-128280911D01*
X126757624Y-128294074D01*
X126889653Y-128364646D01*
X127032914Y-128408103D01*
X127144567Y-128419100D01*
X127144576Y-128419100D01*
X127181899Y-128422776D01*
X127219222Y-128419100D01*
X146639278Y-128419100D01*
X146676600Y-128422776D01*
X146713922Y-128419100D01*
X146713933Y-128419100D01*
X146825586Y-128408103D01*
X146968847Y-128364646D01*
X147100876Y-128294074D01*
X147216601Y-128199101D01*
X147240404Y-128170097D01*
X147630629Y-127779872D01*
X154765000Y-127779872D01*
X154765000Y-128220128D01*
X154850890Y-128651925D01*
X155019369Y-129058669D01*
X155263962Y-129424729D01*
X155575271Y-129736038D01*
X155941331Y-129980631D01*
X156348075Y-130149110D01*
X156779872Y-130235000D01*
X157220128Y-130235000D01*
X157651925Y-130149110D01*
X158058669Y-129980631D01*
X158424729Y-129736038D01*
X158736038Y-129424729D01*
X158980631Y-129058669D01*
X159149110Y-128651925D01*
X159235000Y-128220128D01*
X159235000Y-127779872D01*
X159149110Y-127348075D01*
X158980631Y-126941331D01*
X158736038Y-126575271D01*
X158424729Y-126263962D01*
X158058669Y-126019369D01*
X157651925Y-125850890D01*
X157220128Y-125765000D01*
X156779872Y-125765000D01*
X156348075Y-125850890D01*
X155941331Y-126019369D01*
X155575271Y-126263962D01*
X155263962Y-126575271D01*
X155019369Y-126941331D01*
X154850890Y-127348075D01*
X154765000Y-127779872D01*
X147630629Y-127779872D01*
X148294053Y-127116449D01*
X148316815Y-127144185D01*
X148413506Y-127223537D01*
X148523820Y-127282502D01*
X148643518Y-127318812D01*
X148768000Y-127331072D01*
X150368000Y-127331072D01*
X150492482Y-127318812D01*
X150612180Y-127282502D01*
X150722494Y-127223537D01*
X150819185Y-127144185D01*
X150898537Y-127047494D01*
X150957502Y-126937180D01*
X150993812Y-126817482D01*
X151006072Y-126693000D01*
X151006072Y-126587575D01*
X151117576Y-126527974D01*
X151233301Y-126433001D01*
X151328274Y-126317276D01*
X151398846Y-126185247D01*
X151433067Y-126072434D01*
X156230460Y-121275042D01*
X156308815Y-121370518D01*
G37*
%TD.AperFunction*%
D20*
X156121928Y-118149333D02*
X156134188Y-118273815D01*
X156170498Y-118393513D01*
X156229463Y-118503827D01*
X156308815Y-118600518D01*
X156321587Y-118611000D01*
X156308815Y-118621482D01*
X156229463Y-118718173D01*
X156170498Y-118828487D01*
X156134188Y-118948185D01*
X156121928Y-119072667D01*
X156121928Y-119301425D01*
X156010424Y-119361026D01*
X155894699Y-119455999D01*
X155870901Y-119484997D01*
X150761459Y-124594440D01*
X150722494Y-124562463D01*
X150612180Y-124503498D01*
X150492482Y-124467188D01*
X150368000Y-124454928D01*
X148768000Y-124454928D01*
X148643518Y-124467188D01*
X148523820Y-124503498D01*
X148413506Y-124562463D01*
X148316815Y-124641815D01*
X148237463Y-124738506D01*
X148178498Y-124848820D01*
X148142188Y-124968518D01*
X148129928Y-125093000D01*
X148129928Y-125198425D01*
X148018424Y-125258026D01*
X147902699Y-125352999D01*
X147878901Y-125381997D01*
X146361799Y-126899100D01*
X144611401Y-126899100D01*
X148294053Y-123216450D01*
X148316815Y-123244185D01*
X148413506Y-123323537D01*
X148523820Y-123382502D01*
X148643518Y-123418812D01*
X148768000Y-123431072D01*
X150368000Y-123431072D01*
X150492482Y-123418812D01*
X150612180Y-123382502D01*
X150722494Y-123323537D01*
X150819185Y-123244185D01*
X150898537Y-123147494D01*
X150957502Y-123037180D01*
X150993812Y-122917482D01*
X151006072Y-122793000D01*
X151006072Y-122687575D01*
X151117576Y-122627974D01*
X151233301Y-122533001D01*
X151257104Y-122503997D01*
X155775102Y-117986000D01*
X156121928Y-117986000D01*
X156121928Y-118149333D01*
%TA.AperFunction,NonConductor*%
D21*
G36*
X156121928Y-118149333D02*
G01*
X156134188Y-118273815D01*
X156170498Y-118393513D01*
X156229463Y-118503827D01*
X156308815Y-118600518D01*
X156321587Y-118611000D01*
X156308815Y-118621482D01*
X156229463Y-118718173D01*
X156170498Y-118828487D01*
X156134188Y-118948185D01*
X156121928Y-119072667D01*
X156121928Y-119301425D01*
X156010424Y-119361026D01*
X155894699Y-119455999D01*
X155870901Y-119484997D01*
X150761459Y-124594440D01*
X150722494Y-124562463D01*
X150612180Y-124503498D01*
X150492482Y-124467188D01*
X150368000Y-124454928D01*
X148768000Y-124454928D01*
X148643518Y-124467188D01*
X148523820Y-124503498D01*
X148413506Y-124562463D01*
X148316815Y-124641815D01*
X148237463Y-124738506D01*
X148178498Y-124848820D01*
X148142188Y-124968518D01*
X148129928Y-125093000D01*
X148129928Y-125198425D01*
X148018424Y-125258026D01*
X147902699Y-125352999D01*
X147878901Y-125381997D01*
X146361799Y-126899100D01*
X144611401Y-126899100D01*
X148294053Y-123216450D01*
X148316815Y-123244185D01*
X148413506Y-123323537D01*
X148523820Y-123382502D01*
X148643518Y-123418812D01*
X148768000Y-123431072D01*
X150368000Y-123431072D01*
X150492482Y-123418812D01*
X150612180Y-123382502D01*
X150722494Y-123323537D01*
X150819185Y-123244185D01*
X150898537Y-123147494D01*
X150957502Y-123037180D01*
X150993812Y-122917482D01*
X151006072Y-122793000D01*
X151006072Y-122687575D01*
X151117576Y-122627974D01*
X151233301Y-122533001D01*
X151257104Y-122503997D01*
X155775102Y-117986000D01*
X156121928Y-117986000D01*
X156121928Y-118149333D01*
G37*
%TD.AperFunction*%
D20*
X140958551Y-120953053D02*
X140833363Y-121078241D01*
X140676320Y-121313273D01*
X140568147Y-121574426D01*
X140513000Y-121851665D01*
X140513000Y-122134335D01*
X140568147Y-122411574D01*
X140676320Y-122672727D01*
X140833363Y-122907759D01*
X141033241Y-123107637D01*
X141188000Y-123211044D01*
X141188001Y-124674956D01*
X141033241Y-124778363D01*
X140833363Y-124978241D01*
X140676320Y-125213273D01*
X140568147Y-125474426D01*
X140513000Y-125751665D01*
X140513000Y-126034335D01*
X140568147Y-126311574D01*
X140620307Y-126437500D01*
X136672686Y-126437500D01*
X136704946Y-126377147D01*
X136748403Y-126233886D01*
X136759400Y-126122233D01*
X136759400Y-126122224D01*
X136763076Y-126084901D01*
X136759400Y-126047578D01*
X136759400Y-116753901D01*
X140958551Y-120953053D01*
%TA.AperFunction,NonConductor*%
D21*
G36*
X140958551Y-120953053D02*
G01*
X140833363Y-121078241D01*
X140676320Y-121313273D01*
X140568147Y-121574426D01*
X140513000Y-121851665D01*
X140513000Y-122134335D01*
X140568147Y-122411574D01*
X140676320Y-122672727D01*
X140833363Y-122907759D01*
X141033241Y-123107637D01*
X141188000Y-123211044D01*
X141188001Y-124674956D01*
X141033241Y-124778363D01*
X140833363Y-124978241D01*
X140676320Y-125213273D01*
X140568147Y-125474426D01*
X140513000Y-125751665D01*
X140513000Y-126034335D01*
X140568147Y-126311574D01*
X140620307Y-126437500D01*
X136672686Y-126437500D01*
X136704946Y-126377147D01*
X136748403Y-126233886D01*
X136759400Y-126122233D01*
X136759400Y-126122224D01*
X136763076Y-126084901D01*
X136759400Y-126047578D01*
X136759400Y-116753901D01*
X140958551Y-120953053D01*
G37*
%TD.AperFunction*%
D20*
X124337521Y-113458374D02*
X124376198Y-113505502D01*
X124564251Y-113659833D01*
X124778799Y-113774511D01*
X124927922Y-113819747D01*
X125011598Y-113845130D01*
X125253700Y-113868975D01*
X125314365Y-113863000D01*
X126319377Y-113863000D01*
X126371759Y-113898000D01*
X126139241Y-114053363D01*
X125939363Y-114253241D01*
X125782320Y-114488273D01*
X125674147Y-114749426D01*
X125619000Y-115026665D01*
X125619000Y-115309335D01*
X125674147Y-115586574D01*
X125782320Y-115847727D01*
X125819000Y-115902623D01*
X125819000Y-116907635D01*
X125813025Y-116968300D01*
X125836870Y-117210402D01*
X125907489Y-117443201D01*
X126022167Y-117657749D01*
X126176498Y-117845802D01*
X126364551Y-118000133D01*
X126579099Y-118114811D01*
X126811898Y-118185430D01*
X126993335Y-118203300D01*
X127054000Y-118209275D01*
X127114665Y-118203300D01*
X127201747Y-118203300D01*
X128185266Y-119186820D01*
X128198147Y-119251574D01*
X128306320Y-119512727D01*
X128463363Y-119747759D01*
X128663241Y-119947637D01*
X128898273Y-120104680D01*
X129159426Y-120212853D01*
X129436665Y-120268000D01*
X129719335Y-120268000D01*
X129996574Y-120212853D01*
X130257727Y-120104680D01*
X130492759Y-119947637D01*
X130692637Y-119747759D01*
X130828000Y-119545173D01*
X130843001Y-119567624D01*
X130843000Y-121057034D01*
X130837025Y-121117700D01*
X130854190Y-121291976D01*
X130860870Y-121359801D01*
X130931489Y-121592600D01*
X131046167Y-121807148D01*
X131200498Y-121995202D01*
X131247625Y-122033878D01*
X133536000Y-124322254D01*
X133536000Y-125004033D01*
X133487304Y-125121595D01*
X133436000Y-125379514D01*
X133436000Y-125642486D01*
X133487304Y-125900405D01*
X133523214Y-125987100D01*
X128701903Y-125987100D01*
X128464645Y-125749843D01*
X128486000Y-125642486D01*
X128486000Y-125379514D01*
X128434696Y-125121595D01*
X128334061Y-124878641D01*
X128187962Y-124659987D01*
X128002013Y-124474038D01*
X127783359Y-124327939D01*
X127540405Y-124227304D01*
X127282486Y-124176000D01*
X127019514Y-124176000D01*
X126761595Y-124227304D01*
X126518641Y-124327939D01*
X126299987Y-124474038D01*
X126114038Y-124659987D01*
X126038196Y-124773494D01*
X123475600Y-122210899D01*
X123475600Y-119523622D01*
X123479276Y-119486299D01*
X123475600Y-119448976D01*
X123475600Y-119448967D01*
X123464603Y-119337314D01*
X123421146Y-119194053D01*
X123350574Y-119062024D01*
X123337411Y-119045985D01*
X123279399Y-118975296D01*
X123279395Y-118975292D01*
X123255601Y-118946299D01*
X123226608Y-118922505D01*
X121073104Y-116769002D01*
X121049301Y-116739999D01*
X120933576Y-116645026D01*
X120822072Y-116585425D01*
X120822072Y-116356667D01*
X120809812Y-116232185D01*
X120773502Y-116112487D01*
X120714537Y-116002173D01*
X120635185Y-115905482D01*
X120622413Y-115895000D01*
X120635185Y-115884518D01*
X120714537Y-115787827D01*
X120737429Y-115745000D01*
X121123635Y-115745000D01*
X121184300Y-115750975D01*
X121244965Y-115745000D01*
X121426402Y-115727130D01*
X121659201Y-115656511D01*
X121873749Y-115541833D01*
X122061802Y-115387502D01*
X122216133Y-115199449D01*
X122330811Y-114984901D01*
X122401430Y-114752102D01*
X122425275Y-114510000D01*
X122419300Y-114449335D01*
X122419300Y-112975000D01*
X123854147Y-112975000D01*
X124337521Y-113458374D01*
%TA.AperFunction,NonConductor*%
D21*
G36*
X124337521Y-113458374D02*
G01*
X124376198Y-113505502D01*
X124564251Y-113659833D01*
X124778799Y-113774511D01*
X124927922Y-113819747D01*
X125011598Y-113845130D01*
X125253700Y-113868975D01*
X125314365Y-113863000D01*
X126319377Y-113863000D01*
X126371759Y-113898000D01*
X126139241Y-114053363D01*
X125939363Y-114253241D01*
X125782320Y-114488273D01*
X125674147Y-114749426D01*
X125619000Y-115026665D01*
X125619000Y-115309335D01*
X125674147Y-115586574D01*
X125782320Y-115847727D01*
X125819000Y-115902623D01*
X125819000Y-116907635D01*
X125813025Y-116968300D01*
X125836870Y-117210402D01*
X125907489Y-117443201D01*
X126022167Y-117657749D01*
X126176498Y-117845802D01*
X126364551Y-118000133D01*
X126579099Y-118114811D01*
X126811898Y-118185430D01*
X126993335Y-118203300D01*
X127054000Y-118209275D01*
X127114665Y-118203300D01*
X127201747Y-118203300D01*
X128185266Y-119186820D01*
X128198147Y-119251574D01*
X128306320Y-119512727D01*
X128463363Y-119747759D01*
X128663241Y-119947637D01*
X128898273Y-120104680D01*
X129159426Y-120212853D01*
X129436665Y-120268000D01*
X129719335Y-120268000D01*
X129996574Y-120212853D01*
X130257727Y-120104680D01*
X130492759Y-119947637D01*
X130692637Y-119747759D01*
X130828000Y-119545173D01*
X130843001Y-119567624D01*
X130843000Y-121057034D01*
X130837025Y-121117700D01*
X130854190Y-121291976D01*
X130860870Y-121359801D01*
X130931489Y-121592600D01*
X131046167Y-121807148D01*
X131200498Y-121995202D01*
X131247625Y-122033878D01*
X133536000Y-124322254D01*
X133536000Y-125004033D01*
X133487304Y-125121595D01*
X133436000Y-125379514D01*
X133436000Y-125642486D01*
X133487304Y-125900405D01*
X133523214Y-125987100D01*
X128701903Y-125987100D01*
X128464645Y-125749843D01*
X128486000Y-125642486D01*
X128486000Y-125379514D01*
X128434696Y-125121595D01*
X128334061Y-124878641D01*
X128187962Y-124659987D01*
X128002013Y-124474038D01*
X127783359Y-124327939D01*
X127540405Y-124227304D01*
X127282486Y-124176000D01*
X127019514Y-124176000D01*
X126761595Y-124227304D01*
X126518641Y-124327939D01*
X126299987Y-124474038D01*
X126114038Y-124659987D01*
X126038196Y-124773494D01*
X123475600Y-122210899D01*
X123475600Y-119523622D01*
X123479276Y-119486299D01*
X123475600Y-119448976D01*
X123475600Y-119448967D01*
X123464603Y-119337314D01*
X123421146Y-119194053D01*
X123350574Y-119062024D01*
X123337411Y-119045985D01*
X123279399Y-118975296D01*
X123279395Y-118975292D01*
X123255601Y-118946299D01*
X123226608Y-118922505D01*
X121073104Y-116769002D01*
X121049301Y-116739999D01*
X120933576Y-116645026D01*
X120822072Y-116585425D01*
X120822072Y-116356667D01*
X120809812Y-116232185D01*
X120773502Y-116112487D01*
X120714537Y-116002173D01*
X120635185Y-115905482D01*
X120622413Y-115895000D01*
X120635185Y-115884518D01*
X120714537Y-115787827D01*
X120737429Y-115745000D01*
X121123635Y-115745000D01*
X121184300Y-115750975D01*
X121244965Y-115745000D01*
X121426402Y-115727130D01*
X121659201Y-115656511D01*
X121873749Y-115541833D01*
X122061802Y-115387502D01*
X122216133Y-115199449D01*
X122330811Y-114984901D01*
X122401430Y-114752102D01*
X122425275Y-114510000D01*
X122419300Y-114449335D01*
X122419300Y-112975000D01*
X123854147Y-112975000D01*
X124337521Y-113458374D01*
G37*
%TD.AperFunction*%
D20*
X141662099Y-115630811D02*
X141894898Y-115701430D01*
X142076335Y-115719300D01*
X142137000Y-115725275D01*
X142197665Y-115719300D01*
X142287747Y-115719300D01*
X143265266Y-116696820D01*
X143278147Y-116761574D01*
X143386320Y-117022727D01*
X143543363Y-117257759D01*
X143743241Y-117457637D01*
X143978273Y-117614680D01*
X144239426Y-117722853D01*
X144516665Y-117778000D01*
X144799335Y-117778000D01*
X145076574Y-117722853D01*
X145337727Y-117614680D01*
X145572759Y-117457637D01*
X145772637Y-117257759D01*
X145908000Y-117055173D01*
X146043363Y-117257759D01*
X146243241Y-117457637D01*
X146478273Y-117614680D01*
X146739426Y-117722853D01*
X147016665Y-117778000D01*
X147299335Y-117778000D01*
X147576574Y-117722853D01*
X147837727Y-117614680D01*
X148072759Y-117457637D01*
X148272637Y-117257759D01*
X148429680Y-117022727D01*
X148537853Y-116761574D01*
X148550734Y-116696820D01*
X149528154Y-115719400D01*
X156221751Y-115719400D01*
X156229463Y-115733827D01*
X156308815Y-115830518D01*
X156321587Y-115841000D01*
X156308815Y-115851482D01*
X156229463Y-115948173D01*
X156170498Y-116058487D01*
X156134188Y-116178185D01*
X156121928Y-116302667D01*
X156121928Y-116466000D01*
X155497622Y-116466000D01*
X155460299Y-116462324D01*
X155422976Y-116466000D01*
X155422967Y-116466000D01*
X155311314Y-116476997D01*
X155181668Y-116516324D01*
X155168053Y-116520454D01*
X155036023Y-116591026D01*
X155017690Y-116606072D01*
X154920299Y-116685999D01*
X154896501Y-116714997D01*
X150841948Y-120769551D01*
X150819185Y-120741815D01*
X150722494Y-120662463D01*
X150612180Y-120603498D01*
X150492482Y-120567188D01*
X150368000Y-120554928D01*
X148768000Y-120554928D01*
X148643518Y-120567188D01*
X148523820Y-120603498D01*
X148413506Y-120662463D01*
X148316815Y-120741815D01*
X148237463Y-120838506D01*
X148178498Y-120948820D01*
X148142188Y-121068518D01*
X148129928Y-121193000D01*
X148129928Y-121298425D01*
X148018424Y-121358026D01*
X148018422Y-121358027D01*
X148018423Y-121358027D01*
X147931696Y-121429201D01*
X147931692Y-121429205D01*
X147902699Y-121452999D01*
X147878905Y-121481992D01*
X143383000Y-125977899D01*
X143383000Y-125751665D01*
X143327853Y-125474426D01*
X143219680Y-125213273D01*
X143062637Y-124978241D01*
X142862759Y-124778363D01*
X142708000Y-124674957D01*
X142708000Y-123211043D01*
X142862759Y-123107637D01*
X143062637Y-122907759D01*
X143219680Y-122672727D01*
X143327853Y-122411574D01*
X143383000Y-122134335D01*
X143383000Y-121851665D01*
X143327853Y-121574426D01*
X143219680Y-121313273D01*
X143062637Y-121078241D01*
X142862759Y-120878363D01*
X142702158Y-120771053D01*
X142697003Y-120718714D01*
X142653546Y-120575453D01*
X142582974Y-120443424D01*
X142488001Y-120327699D01*
X142459003Y-120303901D01*
X141754911Y-119599810D01*
X141770402Y-119606226D01*
X141970361Y-119646000D01*
X142174239Y-119646000D01*
X142374198Y-119606226D01*
X142562556Y-119528205D01*
X142732074Y-119414937D01*
X142876237Y-119270774D01*
X142989505Y-119101256D01*
X143067526Y-118912898D01*
X143107300Y-118712939D01*
X143107300Y-118509061D01*
X143067526Y-118309102D01*
X142989505Y-118120744D01*
X142876237Y-117951226D01*
X142732074Y-117807063D01*
X142562556Y-117693795D01*
X142374198Y-117615774D01*
X142174239Y-117576000D01*
X142165302Y-117576000D01*
X141563200Y-116973899D01*
X141563200Y-115577949D01*
X141662099Y-115630811D01*
%TA.AperFunction,NonConductor*%
D21*
G36*
X141662099Y-115630811D02*
G01*
X141894898Y-115701430D01*
X142076335Y-115719300D01*
X142137000Y-115725275D01*
X142197665Y-115719300D01*
X142287747Y-115719300D01*
X143265266Y-116696820D01*
X143278147Y-116761574D01*
X143386320Y-117022727D01*
X143543363Y-117257759D01*
X143743241Y-117457637D01*
X143978273Y-117614680D01*
X144239426Y-117722853D01*
X144516665Y-117778000D01*
X144799335Y-117778000D01*
X145076574Y-117722853D01*
X145337727Y-117614680D01*
X145572759Y-117457637D01*
X145772637Y-117257759D01*
X145908000Y-117055173D01*
X146043363Y-117257759D01*
X146243241Y-117457637D01*
X146478273Y-117614680D01*
X146739426Y-117722853D01*
X147016665Y-117778000D01*
X147299335Y-117778000D01*
X147576574Y-117722853D01*
X147837727Y-117614680D01*
X148072759Y-117457637D01*
X148272637Y-117257759D01*
X148429680Y-117022727D01*
X148537853Y-116761574D01*
X148550734Y-116696820D01*
X149528154Y-115719400D01*
X156221751Y-115719400D01*
X156229463Y-115733827D01*
X156308815Y-115830518D01*
X156321587Y-115841000D01*
X156308815Y-115851482D01*
X156229463Y-115948173D01*
X156170498Y-116058487D01*
X156134188Y-116178185D01*
X156121928Y-116302667D01*
X156121928Y-116466000D01*
X155497622Y-116466000D01*
X155460299Y-116462324D01*
X155422976Y-116466000D01*
X155422967Y-116466000D01*
X155311314Y-116476997D01*
X155181668Y-116516324D01*
X155168053Y-116520454D01*
X155036023Y-116591026D01*
X155017690Y-116606072D01*
X154920299Y-116685999D01*
X154896501Y-116714997D01*
X150841948Y-120769551D01*
X150819185Y-120741815D01*
X150722494Y-120662463D01*
X150612180Y-120603498D01*
X150492482Y-120567188D01*
X150368000Y-120554928D01*
X148768000Y-120554928D01*
X148643518Y-120567188D01*
X148523820Y-120603498D01*
X148413506Y-120662463D01*
X148316815Y-120741815D01*
X148237463Y-120838506D01*
X148178498Y-120948820D01*
X148142188Y-121068518D01*
X148129928Y-121193000D01*
X148129928Y-121298425D01*
X148018424Y-121358026D01*
X148018422Y-121358027D01*
X148018423Y-121358027D01*
X147931696Y-121429201D01*
X147931692Y-121429205D01*
X147902699Y-121452999D01*
X147878905Y-121481992D01*
X143383000Y-125977899D01*
X143383000Y-125751665D01*
X143327853Y-125474426D01*
X143219680Y-125213273D01*
X143062637Y-124978241D01*
X142862759Y-124778363D01*
X142708000Y-124674957D01*
X142708000Y-123211043D01*
X142862759Y-123107637D01*
X143062637Y-122907759D01*
X143219680Y-122672727D01*
X143327853Y-122411574D01*
X143383000Y-122134335D01*
X143383000Y-121851665D01*
X143327853Y-121574426D01*
X143219680Y-121313273D01*
X143062637Y-121078241D01*
X142862759Y-120878363D01*
X142702158Y-120771053D01*
X142697003Y-120718714D01*
X142653546Y-120575453D01*
X142582974Y-120443424D01*
X142488001Y-120327699D01*
X142459003Y-120303901D01*
X141754911Y-119599810D01*
X141770402Y-119606226D01*
X141970361Y-119646000D01*
X142174239Y-119646000D01*
X142374198Y-119606226D01*
X142562556Y-119528205D01*
X142732074Y-119414937D01*
X142876237Y-119270774D01*
X142989505Y-119101256D01*
X143067526Y-118912898D01*
X143107300Y-118712939D01*
X143107300Y-118509061D01*
X143067526Y-118309102D01*
X142989505Y-118120744D01*
X142876237Y-117951226D01*
X142732074Y-117807063D01*
X142562556Y-117693795D01*
X142374198Y-117615774D01*
X142174239Y-117576000D01*
X142165302Y-117576000D01*
X141563200Y-116973899D01*
X141563200Y-115577949D01*
X141662099Y-115630811D01*
G37*
%TD.AperFunction*%
D20*
X135239400Y-122532546D02*
X133313000Y-120606147D01*
X133313000Y-119567623D01*
X133349680Y-119512727D01*
X133457853Y-119251574D01*
X133470734Y-119186820D01*
X134454254Y-118203300D01*
X134613335Y-118203300D01*
X134674000Y-118209275D01*
X134734665Y-118203300D01*
X134916102Y-118185430D01*
X135148901Y-118114811D01*
X135239401Y-118066438D01*
X135239400Y-122532546D01*
%TA.AperFunction,NonConductor*%
D21*
G36*
X135239400Y-122532546D02*
G01*
X133313000Y-120606147D01*
X133313000Y-119567623D01*
X133349680Y-119512727D01*
X133457853Y-119251574D01*
X133470734Y-119186820D01*
X134454254Y-118203300D01*
X134613335Y-118203300D01*
X134674000Y-118209275D01*
X134734665Y-118203300D01*
X134916102Y-118185430D01*
X135148901Y-118114811D01*
X135239401Y-118066438D01*
X135239400Y-122532546D01*
G37*
%TD.AperFunction*%
D20*
X121955601Y-119801104D02*
X121955600Y-121357999D01*
X121269300Y-120671699D01*
X121269300Y-120087333D01*
X121272977Y-120050000D01*
X121258303Y-119901014D01*
X121214846Y-119757753D01*
X121144274Y-119625724D01*
X121049301Y-119509999D01*
X120933576Y-119415026D01*
X120822072Y-119355425D01*
X120822072Y-119126667D01*
X120809812Y-119002185D01*
X120773502Y-118882487D01*
X120714537Y-118772173D01*
X120635185Y-118675482D01*
X120622413Y-118665000D01*
X120635185Y-118654518D01*
X120713540Y-118559042D01*
X121955601Y-119801104D01*
%TA.AperFunction,NonConductor*%
D21*
G36*
X121955601Y-119801104D02*
G01*
X121955600Y-121357999D01*
X121269300Y-120671699D01*
X121269300Y-120087333D01*
X121272977Y-120050000D01*
X121258303Y-119901014D01*
X121214846Y-119757753D01*
X121144274Y-119625724D01*
X121049301Y-119509999D01*
X120933576Y-119415026D01*
X120822072Y-119355425D01*
X120822072Y-119126667D01*
X120809812Y-119002185D01*
X120773502Y-118882487D01*
X120714537Y-118772173D01*
X120635185Y-118675482D01*
X120622413Y-118665000D01*
X120635185Y-118654518D01*
X120713540Y-118559042D01*
X121955601Y-119801104D01*
G37*
%TD.AperFunction*%
D20*
X141037300Y-118597602D02*
X141037300Y-118712939D01*
X141077074Y-118912898D01*
X141083491Y-118928389D01*
X140837341Y-118682239D01*
X140934774Y-118617137D01*
X140995804Y-118556107D01*
X141037300Y-118597602D01*
%TA.AperFunction,NonConductor*%
D21*
G36*
X141037300Y-118597602D02*
G01*
X141037300Y-118712939D01*
X141077074Y-118912898D01*
X141083491Y-118928389D01*
X140837341Y-118682239D01*
X140934774Y-118617137D01*
X140995804Y-118556107D01*
X141037300Y-118597602D01*
G37*
%TD.AperFunction*%
D20*
X128263800Y-108584678D02*
X128260124Y-108622000D01*
X128263800Y-108659322D01*
X128263800Y-108659332D01*
X128274797Y-108770985D01*
X128316764Y-108909335D01*
X128318254Y-108914246D01*
X128388826Y-109046276D01*
X128428671Y-109094826D01*
X128483799Y-109162001D01*
X128512803Y-109185804D01*
X133342432Y-114015434D01*
X133284498Y-114123820D01*
X133248188Y-114243518D01*
X133235928Y-114368000D01*
X133235928Y-115950684D01*
X133065198Y-116090798D01*
X133026526Y-116137920D01*
X131724180Y-117440266D01*
X131659426Y-117453147D01*
X131398273Y-117561320D01*
X131163241Y-117718363D01*
X130963363Y-117918241D01*
X130828000Y-118120827D01*
X130692637Y-117918241D01*
X130492759Y-117718363D01*
X130257727Y-117561320D01*
X129996574Y-117453147D01*
X129931820Y-117440266D01*
X128629478Y-116137925D01*
X128590802Y-116090798D01*
X128402749Y-115936467D01*
X128302271Y-115882761D01*
X128325680Y-115847727D01*
X128433853Y-115586574D01*
X128489000Y-115309335D01*
X128489000Y-115026665D01*
X128433853Y-114749426D01*
X128325680Y-114488273D01*
X128168637Y-114253241D01*
X127968759Y-114053363D01*
X127736241Y-113898000D01*
X127968759Y-113742637D01*
X128168637Y-113542759D01*
X128325680Y-113307727D01*
X128433853Y-113046574D01*
X128489000Y-112769335D01*
X128489000Y-112486665D01*
X128433853Y-112209426D01*
X128325680Y-111948273D01*
X128168637Y-111713241D01*
X127968759Y-111513363D01*
X127736241Y-111358000D01*
X127968759Y-111202637D01*
X128168637Y-111002759D01*
X128325680Y-110767727D01*
X128433853Y-110506574D01*
X128489000Y-110229335D01*
X128489000Y-109946665D01*
X128433853Y-109669426D01*
X128325680Y-109408273D01*
X128168637Y-109173241D01*
X127968759Y-108973363D01*
X127736241Y-108818000D01*
X127968759Y-108662637D01*
X128168637Y-108462759D01*
X128263800Y-108320337D01*
X128263800Y-108584678D01*
%TA.AperFunction,NonConductor*%
D21*
G36*
X128263800Y-108584678D02*
G01*
X128260124Y-108622000D01*
X128263800Y-108659322D01*
X128263800Y-108659332D01*
X128274797Y-108770985D01*
X128316764Y-108909335D01*
X128318254Y-108914246D01*
X128388826Y-109046276D01*
X128428671Y-109094826D01*
X128483799Y-109162001D01*
X128512803Y-109185804D01*
X133342432Y-114015434D01*
X133284498Y-114123820D01*
X133248188Y-114243518D01*
X133235928Y-114368000D01*
X133235928Y-115950684D01*
X133065198Y-116090798D01*
X133026526Y-116137920D01*
X131724180Y-117440266D01*
X131659426Y-117453147D01*
X131398273Y-117561320D01*
X131163241Y-117718363D01*
X130963363Y-117918241D01*
X130828000Y-118120827D01*
X130692637Y-117918241D01*
X130492759Y-117718363D01*
X130257727Y-117561320D01*
X129996574Y-117453147D01*
X129931820Y-117440266D01*
X128629478Y-116137925D01*
X128590802Y-116090798D01*
X128402749Y-115936467D01*
X128302271Y-115882761D01*
X128325680Y-115847727D01*
X128433853Y-115586574D01*
X128489000Y-115309335D01*
X128489000Y-115026665D01*
X128433853Y-114749426D01*
X128325680Y-114488273D01*
X128168637Y-114253241D01*
X127968759Y-114053363D01*
X127736241Y-113898000D01*
X127968759Y-113742637D01*
X128168637Y-113542759D01*
X128325680Y-113307727D01*
X128433853Y-113046574D01*
X128489000Y-112769335D01*
X128489000Y-112486665D01*
X128433853Y-112209426D01*
X128325680Y-111948273D01*
X128168637Y-111713241D01*
X127968759Y-111513363D01*
X127736241Y-111358000D01*
X127968759Y-111202637D01*
X128168637Y-111002759D01*
X128325680Y-110767727D01*
X128433853Y-110506574D01*
X128489000Y-110229335D01*
X128489000Y-109946665D01*
X128433853Y-109669426D01*
X128325680Y-109408273D01*
X128168637Y-109173241D01*
X127968759Y-108973363D01*
X127736241Y-108818000D01*
X127968759Y-108662637D01*
X128168637Y-108462759D01*
X128263800Y-108320337D01*
X128263800Y-108584678D01*
G37*
%TD.AperFunction*%
D20*
X139527100Y-117097389D02*
X139471063Y-117153426D01*
X139405960Y-117250859D01*
X138328295Y-116173194D01*
X138358244Y-116193205D01*
X138546602Y-116271226D01*
X138746561Y-116311000D01*
X138950439Y-116311000D01*
X139150398Y-116271226D01*
X139338756Y-116193205D01*
X139508274Y-116079937D01*
X139527100Y-116061111D01*
X139527100Y-117097389D01*
%TA.AperFunction,NonConductor*%
D21*
G36*
X139527100Y-117097389D02*
G01*
X139471063Y-117153426D01*
X139405960Y-117250859D01*
X138328295Y-116173194D01*
X138358244Y-116193205D01*
X138546602Y-116271226D01*
X138746561Y-116311000D01*
X138950439Y-116311000D01*
X139150398Y-116271226D01*
X139338756Y-116193205D01*
X139508274Y-116079937D01*
X139527100Y-116061111D01*
X139527100Y-117097389D01*
G37*
%TD.AperFunction*%
D20*
X137813500Y-115315802D02*
X137813500Y-115377939D01*
X137853274Y-115577898D01*
X137931295Y-115766256D01*
X137951306Y-115796205D01*
X137243800Y-115088699D01*
X137243800Y-114746102D01*
X137813500Y-115315802D01*
%TA.AperFunction,NonConductor*%
D21*
G36*
X137813500Y-115315802D02*
G01*
X137813500Y-115377939D01*
X137853274Y-115577898D01*
X137931295Y-115766256D01*
X137951306Y-115796205D01*
X137243800Y-115088699D01*
X137243800Y-114746102D01*
X137813500Y-115315802D01*
G37*
%TD.AperFunction*%
D20*
X146049601Y-96034703D02*
X146049600Y-103775278D01*
X146045924Y-103812600D01*
X146049600Y-103849922D01*
X146049600Y-103849932D01*
X146060597Y-103961585D01*
X146092998Y-104068399D01*
X146104054Y-104104846D01*
X146174626Y-104236876D01*
X146189090Y-104254500D01*
X146269599Y-104352601D01*
X146298603Y-104376404D01*
X148629977Y-106707779D01*
X148485320Y-106924273D01*
X148377147Y-107185426D01*
X148322000Y-107462665D01*
X148322000Y-107745335D01*
X148377147Y-108022574D01*
X148485320Y-108283727D01*
X148642363Y-108518759D01*
X148842241Y-108718637D01*
X149018167Y-108836187D01*
X149007997Y-108869714D01*
X149002842Y-108922053D01*
X148842241Y-109029363D01*
X148642363Y-109229241D01*
X148485320Y-109464273D01*
X148377147Y-109725426D01*
X148322000Y-110002665D01*
X148322000Y-110285335D01*
X148377147Y-110562574D01*
X148485320Y-110823727D01*
X148642363Y-111058759D01*
X148840961Y-111257357D01*
X148832518Y-111258188D01*
X148712820Y-111294498D01*
X148602506Y-111353463D01*
X148505815Y-111432815D01*
X148426463Y-111529506D01*
X148367498Y-111639820D01*
X148331188Y-111759518D01*
X148318928Y-111884000D01*
X148318928Y-113459315D01*
X148139098Y-113606898D01*
X148100426Y-113654020D01*
X146804180Y-114950266D01*
X146739426Y-114963147D01*
X146478273Y-115071320D01*
X146243241Y-115228363D01*
X146043363Y-115428241D01*
X145908000Y-115630827D01*
X145772637Y-115428241D01*
X145572759Y-115228363D01*
X145337727Y-115071320D01*
X145076574Y-114963147D01*
X145011820Y-114950266D01*
X143715478Y-113653925D01*
X143676802Y-113606798D01*
X143488749Y-113452467D01*
X143386061Y-113397579D01*
X143408680Y-113363727D01*
X143516853Y-113102574D01*
X143572000Y-112825335D01*
X143572000Y-112542665D01*
X143516853Y-112265426D01*
X143408680Y-112004273D01*
X143251637Y-111769241D01*
X143051759Y-111569363D01*
X142819241Y-111414000D01*
X143051759Y-111258637D01*
X143251637Y-111058759D01*
X143408680Y-110823727D01*
X143516853Y-110562574D01*
X143572000Y-110285335D01*
X143572000Y-110002665D01*
X143516853Y-109725426D01*
X143408680Y-109464273D01*
X143251637Y-109229241D01*
X143051759Y-109029363D01*
X142819241Y-108874000D01*
X143051759Y-108718637D01*
X143251637Y-108518759D01*
X143408680Y-108283727D01*
X143516853Y-108022574D01*
X143572000Y-107745335D01*
X143572000Y-107462665D01*
X143516853Y-107185426D01*
X143408680Y-106924273D01*
X143251637Y-106689241D01*
X143051759Y-106489363D01*
X142819241Y-106334000D01*
X143051759Y-106178637D01*
X143251637Y-105978759D01*
X143408680Y-105743727D01*
X143516853Y-105482574D01*
X143572000Y-105205335D01*
X143572000Y-104922665D01*
X143516853Y-104645426D01*
X143408680Y-104384273D01*
X143251637Y-104149241D01*
X143051759Y-103949363D01*
X142819241Y-103794000D01*
X143051759Y-103638637D01*
X143251637Y-103438759D01*
X143408680Y-103203727D01*
X143516853Y-102942574D01*
X143572000Y-102665335D01*
X143572000Y-102382665D01*
X143516853Y-102105426D01*
X143408680Y-101844273D01*
X143251637Y-101609241D01*
X143051759Y-101409363D01*
X142819241Y-101254000D01*
X143051759Y-101098637D01*
X143251637Y-100898759D01*
X143408680Y-100663727D01*
X143516853Y-100402574D01*
X143572000Y-100125335D01*
X143572000Y-99842665D01*
X143516853Y-99565426D01*
X143408680Y-99304273D01*
X143251637Y-99069241D01*
X143051759Y-98869363D01*
X142819241Y-98714000D01*
X143051759Y-98558637D01*
X143251637Y-98358759D01*
X143408680Y-98123727D01*
X143516853Y-97862574D01*
X143572000Y-97585335D01*
X143572000Y-97302665D01*
X143516853Y-97025426D01*
X143408680Y-96764273D01*
X143251637Y-96529241D01*
X143051759Y-96329363D01*
X142816727Y-96172320D01*
X142555574Y-96064147D01*
X142278335Y-96009000D01*
X141995665Y-96009000D01*
X141718426Y-96064147D01*
X141563200Y-96128444D01*
X141563200Y-91548301D01*
X146049601Y-96034703D01*
%TA.AperFunction,NonConductor*%
D21*
G36*
X146049601Y-96034703D02*
G01*
X146049600Y-103775278D01*
X146045924Y-103812600D01*
X146049600Y-103849922D01*
X146049600Y-103849932D01*
X146060597Y-103961585D01*
X146092998Y-104068399D01*
X146104054Y-104104846D01*
X146174626Y-104236876D01*
X146189090Y-104254500D01*
X146269599Y-104352601D01*
X146298603Y-104376404D01*
X148629977Y-106707779D01*
X148485320Y-106924273D01*
X148377147Y-107185426D01*
X148322000Y-107462665D01*
X148322000Y-107745335D01*
X148377147Y-108022574D01*
X148485320Y-108283727D01*
X148642363Y-108518759D01*
X148842241Y-108718637D01*
X149018167Y-108836187D01*
X149007997Y-108869714D01*
X149002842Y-108922053D01*
X148842241Y-109029363D01*
X148642363Y-109229241D01*
X148485320Y-109464273D01*
X148377147Y-109725426D01*
X148322000Y-110002665D01*
X148322000Y-110285335D01*
X148377147Y-110562574D01*
X148485320Y-110823727D01*
X148642363Y-111058759D01*
X148840961Y-111257357D01*
X148832518Y-111258188D01*
X148712820Y-111294498D01*
X148602506Y-111353463D01*
X148505815Y-111432815D01*
X148426463Y-111529506D01*
X148367498Y-111639820D01*
X148331188Y-111759518D01*
X148318928Y-111884000D01*
X148318928Y-113459315D01*
X148139098Y-113606898D01*
X148100426Y-113654020D01*
X146804180Y-114950266D01*
X146739426Y-114963147D01*
X146478273Y-115071320D01*
X146243241Y-115228363D01*
X146043363Y-115428241D01*
X145908000Y-115630827D01*
X145772637Y-115428241D01*
X145572759Y-115228363D01*
X145337727Y-115071320D01*
X145076574Y-114963147D01*
X145011820Y-114950266D01*
X143715478Y-113653925D01*
X143676802Y-113606798D01*
X143488749Y-113452467D01*
X143386061Y-113397579D01*
X143408680Y-113363727D01*
X143516853Y-113102574D01*
X143572000Y-112825335D01*
X143572000Y-112542665D01*
X143516853Y-112265426D01*
X143408680Y-112004273D01*
X143251637Y-111769241D01*
X143051759Y-111569363D01*
X142819241Y-111414000D01*
X143051759Y-111258637D01*
X143251637Y-111058759D01*
X143408680Y-110823727D01*
X143516853Y-110562574D01*
X143572000Y-110285335D01*
X143572000Y-110002665D01*
X143516853Y-109725426D01*
X143408680Y-109464273D01*
X143251637Y-109229241D01*
X143051759Y-109029363D01*
X142819241Y-108874000D01*
X143051759Y-108718637D01*
X143251637Y-108518759D01*
X143408680Y-108283727D01*
X143516853Y-108022574D01*
X143572000Y-107745335D01*
X143572000Y-107462665D01*
X143516853Y-107185426D01*
X143408680Y-106924273D01*
X143251637Y-106689241D01*
X143051759Y-106489363D01*
X142819241Y-106334000D01*
X143051759Y-106178637D01*
X143251637Y-105978759D01*
X143408680Y-105743727D01*
X143516853Y-105482574D01*
X143572000Y-105205335D01*
X143572000Y-104922665D01*
X143516853Y-104645426D01*
X143408680Y-104384273D01*
X143251637Y-104149241D01*
X143051759Y-103949363D01*
X142819241Y-103794000D01*
X143051759Y-103638637D01*
X143251637Y-103438759D01*
X143408680Y-103203727D01*
X143516853Y-102942574D01*
X143572000Y-102665335D01*
X143572000Y-102382665D01*
X143516853Y-102105426D01*
X143408680Y-101844273D01*
X143251637Y-101609241D01*
X143051759Y-101409363D01*
X142819241Y-101254000D01*
X143051759Y-101098637D01*
X143251637Y-100898759D01*
X143408680Y-100663727D01*
X143516853Y-100402574D01*
X143572000Y-100125335D01*
X143572000Y-99842665D01*
X143516853Y-99565426D01*
X143408680Y-99304273D01*
X143251637Y-99069241D01*
X143051759Y-98869363D01*
X142819241Y-98714000D01*
X143051759Y-98558637D01*
X143251637Y-98358759D01*
X143408680Y-98123727D01*
X143516853Y-97862574D01*
X143572000Y-97585335D01*
X143572000Y-97302665D01*
X143516853Y-97025426D01*
X143408680Y-96764273D01*
X143251637Y-96529241D01*
X143051759Y-96329363D01*
X142816727Y-96172320D01*
X142555574Y-96064147D01*
X142278335Y-96009000D01*
X141995665Y-96009000D01*
X141718426Y-96064147D01*
X141563200Y-96128444D01*
X141563200Y-91548301D01*
X146049601Y-96034703D01*
G37*
%TD.AperFunction*%
D20*
X138486525Y-86679632D02*
X138693368Y-86886475D01*
X138801800Y-86958927D01*
X138801801Y-113796688D01*
X138757863Y-113840626D01*
X138649742Y-114002440D01*
X137860000Y-113212699D01*
X137860000Y-87011178D01*
X138046632Y-86886475D01*
X138253475Y-86679632D01*
X138370000Y-86505240D01*
X138486525Y-86679632D01*
%TA.AperFunction,NonConductor*%
D21*
G36*
X138486525Y-86679632D02*
G01*
X138693368Y-86886475D01*
X138801800Y-86958927D01*
X138801801Y-113796688D01*
X138757863Y-113840626D01*
X138649742Y-114002440D01*
X137860000Y-113212699D01*
X137860000Y-87011178D01*
X138046632Y-86886475D01*
X138253475Y-86679632D01*
X138370000Y-86505240D01*
X138486525Y-86679632D01*
G37*
%TD.AperFunction*%
D20*
X154843526Y-104206380D02*
X154882198Y-104253502D01*
X155070251Y-104407833D01*
X155284799Y-104522511D01*
X155462041Y-104576277D01*
X155517598Y-104593130D01*
X155759700Y-104616975D01*
X155820365Y-104611000D01*
X155894900Y-104611000D01*
X155894901Y-106085325D01*
X155888925Y-106146000D01*
X155894900Y-106206665D01*
X155894901Y-108855325D01*
X155888925Y-108916000D01*
X155894900Y-108976665D01*
X155894901Y-111167305D01*
X155887598Y-111173298D01*
X155733267Y-111361352D01*
X155618589Y-111575900D01*
X155618589Y-111575901D01*
X155547970Y-111808698D01*
X155524125Y-112050800D01*
X155530100Y-112111466D01*
X155530100Y-113249400D01*
X151195072Y-113249400D01*
X151195072Y-111884000D01*
X151182812Y-111759518D01*
X151146502Y-111639820D01*
X151087537Y-111529506D01*
X151008185Y-111432815D01*
X150911494Y-111353463D01*
X150801180Y-111294498D01*
X150681482Y-111258188D01*
X150673039Y-111257357D01*
X150871637Y-111058759D01*
X151028680Y-110823727D01*
X151136853Y-110562574D01*
X151192000Y-110285335D01*
X151192000Y-110002665D01*
X151136853Y-109725426D01*
X151028680Y-109464273D01*
X150884023Y-109247778D01*
X151407304Y-108724498D01*
X151436301Y-108700701D01*
X151531274Y-108584976D01*
X151601846Y-108452947D01*
X151645303Y-108309686D01*
X151656300Y-108198033D01*
X151656300Y-108198024D01*
X151659976Y-108160701D01*
X151656300Y-108123378D01*
X151656300Y-104645733D01*
X151659977Y-104608400D01*
X151645303Y-104459414D01*
X151601846Y-104316153D01*
X151531274Y-104184124D01*
X151460099Y-104097397D01*
X151436301Y-104068399D01*
X151407302Y-104044601D01*
X150836549Y-103473847D01*
X150871637Y-103438759D01*
X151028680Y-103203727D01*
X151136853Y-102942574D01*
X151192000Y-102665335D01*
X151192000Y-102382665D01*
X151136853Y-102105426D01*
X151028680Y-101844273D01*
X150871637Y-101609241D01*
X150671759Y-101409363D01*
X150439241Y-101254000D01*
X150671759Y-101098637D01*
X150871637Y-100898759D01*
X151028680Y-100663727D01*
X151108404Y-100471257D01*
X154843526Y-104206380D01*
%TA.AperFunction,NonConductor*%
D21*
G36*
X154843526Y-104206380D02*
G01*
X154882198Y-104253502D01*
X155070251Y-104407833D01*
X155284799Y-104522511D01*
X155462041Y-104576277D01*
X155517598Y-104593130D01*
X155759700Y-104616975D01*
X155820365Y-104611000D01*
X155894900Y-104611000D01*
X155894901Y-106085325D01*
X155888925Y-106146000D01*
X155894900Y-106206665D01*
X155894901Y-108855325D01*
X155888925Y-108916000D01*
X155894900Y-108976665D01*
X155894901Y-111167305D01*
X155887598Y-111173298D01*
X155733267Y-111361352D01*
X155618589Y-111575900D01*
X155618589Y-111575901D01*
X155547970Y-111808698D01*
X155524125Y-112050800D01*
X155530100Y-112111466D01*
X155530100Y-113249400D01*
X151195072Y-113249400D01*
X151195072Y-111884000D01*
X151182812Y-111759518D01*
X151146502Y-111639820D01*
X151087537Y-111529506D01*
X151008185Y-111432815D01*
X150911494Y-111353463D01*
X150801180Y-111294498D01*
X150681482Y-111258188D01*
X150673039Y-111257357D01*
X150871637Y-111058759D01*
X151028680Y-110823727D01*
X151136853Y-110562574D01*
X151192000Y-110285335D01*
X151192000Y-110002665D01*
X151136853Y-109725426D01*
X151028680Y-109464273D01*
X150884023Y-109247778D01*
X151407304Y-108724498D01*
X151436301Y-108700701D01*
X151531274Y-108584976D01*
X151601846Y-108452947D01*
X151645303Y-108309686D01*
X151656300Y-108198033D01*
X151656300Y-108198024D01*
X151659976Y-108160701D01*
X151656300Y-108123378D01*
X151656300Y-104645733D01*
X151659977Y-104608400D01*
X151645303Y-104459414D01*
X151601846Y-104316153D01*
X151531274Y-104184124D01*
X151460099Y-104097397D01*
X151436301Y-104068399D01*
X151407302Y-104044601D01*
X150836549Y-103473847D01*
X150871637Y-103438759D01*
X151028680Y-103203727D01*
X151136853Y-102942574D01*
X151192000Y-102665335D01*
X151192000Y-102382665D01*
X151136853Y-102105426D01*
X151028680Y-101844273D01*
X150871637Y-101609241D01*
X150671759Y-101409363D01*
X150439241Y-101254000D01*
X150671759Y-101098637D01*
X150871637Y-100898759D01*
X151028680Y-100663727D01*
X151108404Y-100471257D01*
X154843526Y-104206380D01*
G37*
%TD.AperFunction*%
D20*
X125624010Y-83896411D02*
X125786525Y-84139632D01*
X125993368Y-84346475D01*
X126167760Y-84463000D01*
X125993368Y-84579525D01*
X125786525Y-84786368D01*
X125624010Y-85029589D01*
X125512068Y-85299842D01*
X125455000Y-85586740D01*
X125455000Y-85879260D01*
X125512068Y-86166158D01*
X125624010Y-86436411D01*
X125786525Y-86679632D01*
X125993368Y-86886475D01*
X126236589Y-87048990D01*
X126506842Y-87160932D01*
X126793740Y-87218000D01*
X127086260Y-87218000D01*
X127373158Y-87160932D01*
X127643411Y-87048990D01*
X127886632Y-86886475D01*
X128093475Y-86679632D01*
X128210000Y-86505240D01*
X128326525Y-86679632D01*
X128533368Y-86886475D01*
X128776589Y-87048990D01*
X129046842Y-87160932D01*
X129333740Y-87218000D01*
X129626260Y-87218000D01*
X129913158Y-87160932D01*
X130183411Y-87048990D01*
X130426632Y-86886475D01*
X130633475Y-86679632D01*
X130750000Y-86505240D01*
X130866525Y-86679632D01*
X131073368Y-86886475D01*
X131260001Y-87011179D01*
X131260000Y-109373978D01*
X131256324Y-109411300D01*
X131260000Y-109448622D01*
X131260000Y-109448632D01*
X131270997Y-109560285D01*
X131301078Y-109659449D01*
X131314454Y-109703546D01*
X131385026Y-109835576D01*
X131394814Y-109847502D01*
X131479999Y-109951301D01*
X131509003Y-109975104D01*
X133434304Y-111900406D01*
X133411354Y-111934752D01*
X129783800Y-108307199D01*
X129783800Y-94489811D01*
X129827637Y-94445974D01*
X129940905Y-94276456D01*
X130018926Y-94088098D01*
X130058700Y-93888139D01*
X130058700Y-93684261D01*
X130018926Y-93484302D01*
X129940905Y-93295944D01*
X129827637Y-93126426D01*
X129683474Y-92982263D01*
X129513956Y-92868995D01*
X129325598Y-92790974D01*
X129295350Y-92784957D01*
X129290426Y-92760202D01*
X129212405Y-92571844D01*
X129099137Y-92402326D01*
X128954974Y-92258163D01*
X128785456Y-92144895D01*
X128597098Y-92066874D01*
X128397139Y-92027100D01*
X128193261Y-92027100D01*
X127993302Y-92066874D01*
X127804944Y-92144895D01*
X127635426Y-92258163D01*
X127491263Y-92402326D01*
X127377995Y-92571844D01*
X127299974Y-92760202D01*
X127260200Y-92960161D01*
X127260200Y-93164039D01*
X127299974Y-93363998D01*
X127377995Y-93552356D01*
X127491263Y-93721874D01*
X127535201Y-93765812D01*
X127535201Y-96034088D01*
X127472574Y-96008147D01*
X127195335Y-95953000D01*
X126912665Y-95953000D01*
X126635426Y-96008147D01*
X126374273Y-96116320D01*
X126139241Y-96273363D01*
X125939363Y-96473241D01*
X125782320Y-96708273D01*
X125674147Y-96969426D01*
X125619000Y-97246665D01*
X125619000Y-97529335D01*
X125674147Y-97806574D01*
X125782320Y-98067727D01*
X125939363Y-98302759D01*
X126139241Y-98502637D01*
X126371759Y-98658000D01*
X126139241Y-98813363D01*
X125939363Y-99013241D01*
X125782320Y-99248273D01*
X125674147Y-99509426D01*
X125619000Y-99786665D01*
X125619000Y-100069335D01*
X125674147Y-100346574D01*
X125782320Y-100607727D01*
X125939363Y-100842759D01*
X126139241Y-101042637D01*
X126371759Y-101198000D01*
X126139241Y-101353363D01*
X125939363Y-101553241D01*
X125782320Y-101788273D01*
X125674147Y-102049426D01*
X125619000Y-102326665D01*
X125619000Y-102609335D01*
X125674147Y-102886574D01*
X125782320Y-103147727D01*
X125939363Y-103382759D01*
X126139241Y-103582637D01*
X126371759Y-103738000D01*
X126156027Y-103882147D01*
X126131202Y-103851898D01*
X126084080Y-103813226D01*
X122930853Y-100660000D01*
X123169081Y-100421773D01*
X123216202Y-100383102D01*
X123370533Y-100195049D01*
X123485211Y-99980501D01*
X123524138Y-99852176D01*
X123555830Y-99747703D01*
X123579675Y-99505601D01*
X123573700Y-99444936D01*
X123573700Y-90795064D01*
X123579675Y-90734399D01*
X123555830Y-90492297D01*
X123485211Y-90259499D01*
X123390176Y-90081701D01*
X123370533Y-90044951D01*
X123216202Y-89856898D01*
X123169080Y-89818226D01*
X122419300Y-89068447D01*
X122419300Y-86821353D01*
X125542068Y-83698585D01*
X125624010Y-83896411D01*
%TA.AperFunction,NonConductor*%
D21*
G36*
X125624010Y-83896411D02*
G01*
X125786525Y-84139632D01*
X125993368Y-84346475D01*
X126167760Y-84463000D01*
X125993368Y-84579525D01*
X125786525Y-84786368D01*
X125624010Y-85029589D01*
X125512068Y-85299842D01*
X125455000Y-85586740D01*
X125455000Y-85879260D01*
X125512068Y-86166158D01*
X125624010Y-86436411D01*
X125786525Y-86679632D01*
X125993368Y-86886475D01*
X126236589Y-87048990D01*
X126506842Y-87160932D01*
X126793740Y-87218000D01*
X127086260Y-87218000D01*
X127373158Y-87160932D01*
X127643411Y-87048990D01*
X127886632Y-86886475D01*
X128093475Y-86679632D01*
X128210000Y-86505240D01*
X128326525Y-86679632D01*
X128533368Y-86886475D01*
X128776589Y-87048990D01*
X129046842Y-87160932D01*
X129333740Y-87218000D01*
X129626260Y-87218000D01*
X129913158Y-87160932D01*
X130183411Y-87048990D01*
X130426632Y-86886475D01*
X130633475Y-86679632D01*
X130750000Y-86505240D01*
X130866525Y-86679632D01*
X131073368Y-86886475D01*
X131260001Y-87011179D01*
X131260000Y-109373978D01*
X131256324Y-109411300D01*
X131260000Y-109448622D01*
X131260000Y-109448632D01*
X131270997Y-109560285D01*
X131301078Y-109659449D01*
X131314454Y-109703546D01*
X131385026Y-109835576D01*
X131394814Y-109847502D01*
X131479999Y-109951301D01*
X131509003Y-109975104D01*
X133434304Y-111900406D01*
X133411354Y-111934752D01*
X129783800Y-108307199D01*
X129783800Y-94489811D01*
X129827637Y-94445974D01*
X129940905Y-94276456D01*
X130018926Y-94088098D01*
X130058700Y-93888139D01*
X130058700Y-93684261D01*
X130018926Y-93484302D01*
X129940905Y-93295944D01*
X129827637Y-93126426D01*
X129683474Y-92982263D01*
X129513956Y-92868995D01*
X129325598Y-92790974D01*
X129295350Y-92784957D01*
X129290426Y-92760202D01*
X129212405Y-92571844D01*
X129099137Y-92402326D01*
X128954974Y-92258163D01*
X128785456Y-92144895D01*
X128597098Y-92066874D01*
X128397139Y-92027100D01*
X128193261Y-92027100D01*
X127993302Y-92066874D01*
X127804944Y-92144895D01*
X127635426Y-92258163D01*
X127491263Y-92402326D01*
X127377995Y-92571844D01*
X127299974Y-92760202D01*
X127260200Y-92960161D01*
X127260200Y-93164039D01*
X127299974Y-93363998D01*
X127377995Y-93552356D01*
X127491263Y-93721874D01*
X127535201Y-93765812D01*
X127535201Y-96034088D01*
X127472574Y-96008147D01*
X127195335Y-95953000D01*
X126912665Y-95953000D01*
X126635426Y-96008147D01*
X126374273Y-96116320D01*
X126139241Y-96273363D01*
X125939363Y-96473241D01*
X125782320Y-96708273D01*
X125674147Y-96969426D01*
X125619000Y-97246665D01*
X125619000Y-97529335D01*
X125674147Y-97806574D01*
X125782320Y-98067727D01*
X125939363Y-98302759D01*
X126139241Y-98502637D01*
X126371759Y-98658000D01*
X126139241Y-98813363D01*
X125939363Y-99013241D01*
X125782320Y-99248273D01*
X125674147Y-99509426D01*
X125619000Y-99786665D01*
X125619000Y-100069335D01*
X125674147Y-100346574D01*
X125782320Y-100607727D01*
X125939363Y-100842759D01*
X126139241Y-101042637D01*
X126371759Y-101198000D01*
X126139241Y-101353363D01*
X125939363Y-101553241D01*
X125782320Y-101788273D01*
X125674147Y-102049426D01*
X125619000Y-102326665D01*
X125619000Y-102609335D01*
X125674147Y-102886574D01*
X125782320Y-103147727D01*
X125939363Y-103382759D01*
X126139241Y-103582637D01*
X126371759Y-103738000D01*
X126156027Y-103882147D01*
X126131202Y-103851898D01*
X126084080Y-103813226D01*
X122930853Y-100660000D01*
X123169081Y-100421773D01*
X123216202Y-100383102D01*
X123370533Y-100195049D01*
X123485211Y-99980501D01*
X123524138Y-99852176D01*
X123555830Y-99747703D01*
X123579675Y-99505601D01*
X123573700Y-99444936D01*
X123573700Y-90795064D01*
X123579675Y-90734399D01*
X123555830Y-90492297D01*
X123485211Y-90259499D01*
X123390176Y-90081701D01*
X123370533Y-90044951D01*
X123216202Y-89856898D01*
X123169080Y-89818226D01*
X122419300Y-89068447D01*
X122419300Y-86821353D01*
X125542068Y-83698585D01*
X125624010Y-83896411D01*
G37*
%TD.AperFunction*%
D20*
X135723800Y-111648404D02*
X135588759Y-111513363D01*
X135428158Y-111406053D01*
X135423003Y-111353714D01*
X135412833Y-111320187D01*
X135588759Y-111202637D01*
X135723800Y-111067596D01*
X135723800Y-111648404D01*
%TA.AperFunction,NonConductor*%
D21*
G36*
X135723800Y-111648404D02*
G01*
X135588759Y-111513363D01*
X135428158Y-111406053D01*
X135423003Y-111353714D01*
X135412833Y-111320187D01*
X135588759Y-111202637D01*
X135723800Y-111067596D01*
X135723800Y-111648404D01*
G37*
%TD.AperFunction*%
D20*
X126371759Y-111358000D02*
X126319377Y-111393000D01*
X125765253Y-111393000D01*
X125695253Y-111323000D01*
X126319377Y-111323000D01*
X126371759Y-111358000D01*
%TA.AperFunction,NonConductor*%
D21*
G36*
X126371759Y-111358000D02*
G01*
X126319377Y-111393000D01*
X125765253Y-111393000D01*
X125695253Y-111323000D01*
X126319377Y-111323000D01*
X126371759Y-111358000D01*
G37*
%TD.AperFunction*%
D20*
X124018701Y-105240955D02*
X124018700Y-110027335D01*
X124012725Y-110088000D01*
X124036570Y-110330102D01*
X124089625Y-110505000D01*
X122419300Y-110505000D01*
X122419300Y-109030664D01*
X122425275Y-108970000D01*
X122419300Y-108909335D01*
X122419300Y-106260664D01*
X122425275Y-106200000D01*
X122419300Y-106139335D01*
X122419300Y-103641554D01*
X124018701Y-105240955D01*
%TA.AperFunction,NonConductor*%
D21*
G36*
X124018701Y-105240955D02*
G01*
X124018700Y-110027335D01*
X124012725Y-110088000D01*
X124036570Y-110330102D01*
X124089625Y-110505000D01*
X122419300Y-110505000D01*
X122419300Y-109030664D01*
X122425275Y-108970000D01*
X122419300Y-108909335D01*
X122419300Y-106260664D01*
X122425275Y-106200000D01*
X122419300Y-106139335D01*
X122419300Y-103641554D01*
X124018701Y-105240955D01*
G37*
%TD.AperFunction*%
D20*
X133402320Y-100607727D02*
X133559363Y-100842759D01*
X133759241Y-101042637D01*
X133991759Y-101198000D01*
X133759241Y-101353363D01*
X133559363Y-101553241D01*
X133402320Y-101788273D01*
X133294147Y-102049426D01*
X133239000Y-102326665D01*
X133239000Y-102609335D01*
X133294147Y-102886574D01*
X133402320Y-103147727D01*
X133559363Y-103382759D01*
X133759241Y-103582637D01*
X133991759Y-103738000D01*
X133759241Y-103893363D01*
X133559363Y-104093241D01*
X133402320Y-104328273D01*
X133294147Y-104589426D01*
X133239000Y-104866665D01*
X133239000Y-105149335D01*
X133294147Y-105426574D01*
X133402320Y-105687727D01*
X133559363Y-105922759D01*
X133759241Y-106122637D01*
X133991759Y-106278000D01*
X133759241Y-106433363D01*
X133559363Y-106633241D01*
X133402320Y-106868273D01*
X133294147Y-107129426D01*
X133239000Y-107406665D01*
X133239000Y-107689335D01*
X133294147Y-107966574D01*
X133402320Y-108227727D01*
X133559363Y-108462759D01*
X133759241Y-108662637D01*
X133919842Y-108769947D01*
X133924997Y-108822286D01*
X133935167Y-108855813D01*
X133759241Y-108973363D01*
X133559363Y-109173241D01*
X133402320Y-109408273D01*
X133311363Y-109627862D01*
X132780000Y-109096499D01*
X132780000Y-100432872D01*
X132930961Y-100462900D01*
X133134839Y-100462900D01*
X133326537Y-100424769D01*
X133402320Y-100607727D01*
%TA.AperFunction,NonConductor*%
D21*
G36*
X133402320Y-100607727D02*
G01*
X133559363Y-100842759D01*
X133759241Y-101042637D01*
X133991759Y-101198000D01*
X133759241Y-101353363D01*
X133559363Y-101553241D01*
X133402320Y-101788273D01*
X133294147Y-102049426D01*
X133239000Y-102326665D01*
X133239000Y-102609335D01*
X133294147Y-102886574D01*
X133402320Y-103147727D01*
X133559363Y-103382759D01*
X133759241Y-103582637D01*
X133991759Y-103738000D01*
X133759241Y-103893363D01*
X133559363Y-104093241D01*
X133402320Y-104328273D01*
X133294147Y-104589426D01*
X133239000Y-104866665D01*
X133239000Y-105149335D01*
X133294147Y-105426574D01*
X133402320Y-105687727D01*
X133559363Y-105922759D01*
X133759241Y-106122637D01*
X133991759Y-106278000D01*
X133759241Y-106433363D01*
X133559363Y-106633241D01*
X133402320Y-106868273D01*
X133294147Y-107129426D01*
X133239000Y-107406665D01*
X133239000Y-107689335D01*
X133294147Y-107966574D01*
X133402320Y-108227727D01*
X133559363Y-108462759D01*
X133759241Y-108662637D01*
X133919842Y-108769947D01*
X133924997Y-108822286D01*
X133935167Y-108855813D01*
X133759241Y-108973363D01*
X133559363Y-109173241D01*
X133402320Y-109408273D01*
X133311363Y-109627862D01*
X132780000Y-109096499D01*
X132780000Y-100432872D01*
X132930961Y-100462900D01*
X133134839Y-100462900D01*
X133326537Y-100424769D01*
X133402320Y-100607727D01*
G37*
%TD.AperFunction*%
D20*
X135946525Y-86679632D02*
X136153368Y-86886475D01*
X136340000Y-87011178D01*
X136340001Y-108701899D01*
X135913696Y-108275595D01*
X135945680Y-108227727D01*
X136053853Y-107966574D01*
X136109000Y-107689335D01*
X136109000Y-107406665D01*
X136053853Y-107129426D01*
X135945680Y-106868273D01*
X135788637Y-106633241D01*
X135588759Y-106433363D01*
X135356241Y-106278000D01*
X135588759Y-106122637D01*
X135788637Y-105922759D01*
X135945680Y-105687727D01*
X136053853Y-105426574D01*
X136109000Y-105149335D01*
X136109000Y-104866665D01*
X136053853Y-104589426D01*
X135945680Y-104328273D01*
X135788637Y-104093241D01*
X135588759Y-103893363D01*
X135356241Y-103738000D01*
X135588759Y-103582637D01*
X135788637Y-103382759D01*
X135945680Y-103147727D01*
X136053853Y-102886574D01*
X136109000Y-102609335D01*
X136109000Y-102326665D01*
X136053853Y-102049426D01*
X135945680Y-101788273D01*
X135788637Y-101553241D01*
X135588759Y-101353363D01*
X135356241Y-101198000D01*
X135588759Y-101042637D01*
X135788637Y-100842759D01*
X135945680Y-100607727D01*
X136053853Y-100346574D01*
X136109000Y-100069335D01*
X136109000Y-99786665D01*
X136053853Y-99509426D01*
X135945680Y-99248273D01*
X135788637Y-99013241D01*
X135588759Y-98813363D01*
X135356241Y-98658000D01*
X135588759Y-98502637D01*
X135788637Y-98302759D01*
X135945680Y-98067727D01*
X136053853Y-97806574D01*
X136109000Y-97529335D01*
X136109000Y-97246665D01*
X136053853Y-96969426D01*
X135945680Y-96708273D01*
X135788637Y-96473241D01*
X135588759Y-96273363D01*
X135353727Y-96116320D01*
X135092574Y-96008147D01*
X134815335Y-95953000D01*
X134532665Y-95953000D01*
X134255426Y-96008147D01*
X133994273Y-96116320D01*
X133792900Y-96250873D01*
X133792900Y-87574901D01*
X134193592Y-87174209D01*
X134413740Y-87218000D01*
X134706260Y-87218000D01*
X134993158Y-87160932D01*
X135263411Y-87048990D01*
X135506632Y-86886475D01*
X135713475Y-86679632D01*
X135830000Y-86505240D01*
X135946525Y-86679632D01*
%TA.AperFunction,NonConductor*%
D21*
G36*
X135946525Y-86679632D02*
G01*
X136153368Y-86886475D01*
X136340000Y-87011178D01*
X136340001Y-108701899D01*
X135913696Y-108275595D01*
X135945680Y-108227727D01*
X136053853Y-107966574D01*
X136109000Y-107689335D01*
X136109000Y-107406665D01*
X136053853Y-107129426D01*
X135945680Y-106868273D01*
X135788637Y-106633241D01*
X135588759Y-106433363D01*
X135356241Y-106278000D01*
X135588759Y-106122637D01*
X135788637Y-105922759D01*
X135945680Y-105687727D01*
X136053853Y-105426574D01*
X136109000Y-105149335D01*
X136109000Y-104866665D01*
X136053853Y-104589426D01*
X135945680Y-104328273D01*
X135788637Y-104093241D01*
X135588759Y-103893363D01*
X135356241Y-103738000D01*
X135588759Y-103582637D01*
X135788637Y-103382759D01*
X135945680Y-103147727D01*
X136053853Y-102886574D01*
X136109000Y-102609335D01*
X136109000Y-102326665D01*
X136053853Y-102049426D01*
X135945680Y-101788273D01*
X135788637Y-101553241D01*
X135588759Y-101353363D01*
X135356241Y-101198000D01*
X135588759Y-101042637D01*
X135788637Y-100842759D01*
X135945680Y-100607727D01*
X136053853Y-100346574D01*
X136109000Y-100069335D01*
X136109000Y-99786665D01*
X136053853Y-99509426D01*
X135945680Y-99248273D01*
X135788637Y-99013241D01*
X135588759Y-98813363D01*
X135356241Y-98658000D01*
X135588759Y-98502637D01*
X135788637Y-98302759D01*
X135945680Y-98067727D01*
X136053853Y-97806574D01*
X136109000Y-97529335D01*
X136109000Y-97246665D01*
X136053853Y-96969426D01*
X135945680Y-96708273D01*
X135788637Y-96473241D01*
X135588759Y-96273363D01*
X135353727Y-96116320D01*
X135092574Y-96008147D01*
X134815335Y-95953000D01*
X134532665Y-95953000D01*
X134255426Y-96008147D01*
X133994273Y-96116320D01*
X133792900Y-96250873D01*
X133792900Y-87574901D01*
X134193592Y-87174209D01*
X134413740Y-87218000D01*
X134706260Y-87218000D01*
X134993158Y-87160932D01*
X135263411Y-87048990D01*
X135506632Y-86886475D01*
X135713475Y-86679632D01*
X135830000Y-86505240D01*
X135946525Y-86679632D01*
G37*
%TD.AperFunction*%
D20*
X128263800Y-106775663D02*
X128181023Y-106651778D01*
X128263800Y-106569001D01*
X128263800Y-106775663D01*
%TA.AperFunction,NonConductor*%
D21*
G36*
X128263800Y-106775663D02*
G01*
X128181023Y-106651778D01*
X128263800Y-106569001D01*
X128263800Y-106775663D01*
G37*
%TD.AperFunction*%
D20*
X148657851Y-104133753D02*
X148642363Y-104149241D01*
X148485320Y-104384273D01*
X148476754Y-104404953D01*
X147569600Y-103497799D01*
X147569600Y-103045501D01*
X148657851Y-104133753D01*
%TA.AperFunction,NonConductor*%
D21*
G36*
X148657851Y-104133753D02*
G01*
X148642363Y-104149241D01*
X148485320Y-104384273D01*
X148476754Y-104404953D01*
X147569600Y-103497799D01*
X147569600Y-103045501D01*
X148657851Y-104133753D01*
G37*
%TD.AperFunction*%
D20*
X120972747Y-102195000D02*
X120737429Y-102195000D01*
X120714537Y-102152173D01*
X120635185Y-102055482D01*
X120622413Y-102045000D01*
X120635185Y-102034518D01*
X120714537Y-101937827D01*
X120714898Y-101937151D01*
X120972747Y-102195000D01*
%TA.AperFunction,NonConductor*%
D21*
G36*
X120972747Y-102195000D02*
G01*
X120737429Y-102195000D01*
X120714537Y-102152173D01*
X120635185Y-102055482D01*
X120622413Y-102045000D01*
X120635185Y-102034518D01*
X120714537Y-101937827D01*
X120714898Y-101937151D01*
X120972747Y-102195000D01*
G37*
%TD.AperFunction*%
D20*
X156229463Y-101883827D02*
X156308815Y-101980518D01*
X156321587Y-101991000D01*
X156308815Y-102001482D01*
X156229463Y-102098173D01*
X156229102Y-102098848D01*
X155971254Y-101841000D01*
X156206571Y-101841000D01*
X156229463Y-101883827D01*
%TA.AperFunction,NonConductor*%
D21*
G36*
X156229463Y-101883827D02*
G01*
X156308815Y-101980518D01*
X156321587Y-101991000D01*
X156308815Y-102001482D01*
X156229463Y-102098173D01*
X156229102Y-102098848D01*
X155971254Y-101841000D01*
X156206571Y-101841000D01*
X156229463Y-101883827D01*
G37*
%TD.AperFunction*%
D20*
X148642363Y-100898759D02*
X148842241Y-101098637D01*
X149074759Y-101254000D01*
X148842241Y-101409363D01*
X148642363Y-101609241D01*
X148525800Y-101783690D01*
X148525800Y-100724310D01*
X148642363Y-100898759D01*
%TA.AperFunction,NonConductor*%
D21*
G36*
X148642363Y-100898759D02*
G01*
X148842241Y-101098637D01*
X149074759Y-101254000D01*
X148842241Y-101409363D01*
X148642363Y-101609241D01*
X148525800Y-101783690D01*
X148525800Y-100724310D01*
X148642363Y-100898759D01*
G37*
%TD.AperFunction*%
D20*
X120714898Y-99382849D02*
X120714537Y-99382173D01*
X120635185Y-99285482D01*
X120622413Y-99275000D01*
X120635185Y-99264518D01*
X120714537Y-99167827D01*
X120716690Y-99163800D01*
X120897039Y-99163800D01*
X120943111Y-99154636D01*
X120714898Y-99382849D01*
%TA.AperFunction,NonConductor*%
D21*
G36*
X120714898Y-99382849D02*
G01*
X120714537Y-99382173D01*
X120635185Y-99285482D01*
X120622413Y-99275000D01*
X120635185Y-99264518D01*
X120714537Y-99167827D01*
X120716690Y-99163800D01*
X120897039Y-99163800D01*
X120943111Y-99154636D01*
X120714898Y-99382849D01*
G37*
%TD.AperFunction*%
D20*
X154524700Y-86688654D02*
X154524701Y-89014446D01*
X153898725Y-89640422D01*
X153851598Y-89679098D01*
X153697267Y-89867152D01*
X153582589Y-90081700D01*
X153582589Y-90081701D01*
X153511970Y-90314498D01*
X153488125Y-90556600D01*
X153494100Y-90617265D01*
X153494101Y-99363848D01*
X152863100Y-98732847D01*
X152863100Y-97789559D01*
X152915930Y-97615402D01*
X152933800Y-97433965D01*
X152939775Y-97373300D01*
X152933800Y-97312635D01*
X152933800Y-85097754D01*
X154524700Y-86688654D01*
%TA.AperFunction,NonConductor*%
D21*
G36*
X154524700Y-86688654D02*
G01*
X154524701Y-89014446D01*
X153898725Y-89640422D01*
X153851598Y-89679098D01*
X153697267Y-89867152D01*
X153582589Y-90081700D01*
X153582589Y-90081701D01*
X153511970Y-90314498D01*
X153488125Y-90556600D01*
X153494100Y-90617265D01*
X153494101Y-99363848D01*
X152863100Y-98732847D01*
X152863100Y-97789559D01*
X152915930Y-97615402D01*
X152933800Y-97433965D01*
X152939775Y-97373300D01*
X152933800Y-97312635D01*
X152933800Y-85097754D01*
X154524700Y-86688654D01*
G37*
%TD.AperFunction*%
D20*
X155966618Y-98435024D02*
X156010424Y-98470974D01*
X156121928Y-98530575D01*
X156121928Y-98759333D01*
X156134188Y-98883815D01*
X156170498Y-99003513D01*
X156229463Y-99113827D01*
X156308815Y-99210518D01*
X156321587Y-99221000D01*
X156308815Y-99231482D01*
X156229463Y-99328173D01*
X156229102Y-99328848D01*
X155964100Y-99063847D01*
X155964100Y-98434523D01*
X155966618Y-98435024D01*
%TA.AperFunction,NonConductor*%
D21*
G36*
X155966618Y-98435024D02*
G01*
X156010424Y-98470974D01*
X156121928Y-98530575D01*
X156121928Y-98759333D01*
X156134188Y-98883815D01*
X156170498Y-99003513D01*
X156229463Y-99113827D01*
X156308815Y-99210518D01*
X156321587Y-99221000D01*
X156308815Y-99231482D01*
X156229463Y-99328173D01*
X156229102Y-99328848D01*
X155964100Y-99063847D01*
X155964100Y-98434523D01*
X155966618Y-98435024D01*
G37*
%TD.AperFunction*%
D20*
X148642363Y-98358759D02*
X148842241Y-98558637D01*
X149074759Y-98714000D01*
X148842241Y-98869363D01*
X148642363Y-99069241D01*
X148525800Y-99243690D01*
X148525800Y-98184310D01*
X148642363Y-98358759D01*
%TA.AperFunction,NonConductor*%
D21*
G36*
X148642363Y-98358759D02*
G01*
X148842241Y-98558637D01*
X149074759Y-98714000D01*
X148842241Y-98869363D01*
X148642363Y-99069241D01*
X148525800Y-99243690D01*
X148525800Y-98184310D01*
X148642363Y-98358759D01*
G37*
%TD.AperFunction*%
D20*
X133991759Y-98658000D02*
X133832874Y-98764163D01*
X133792900Y-98724189D01*
X133792900Y-98525127D01*
X133991759Y-98658000D01*
%TA.AperFunction,NonConductor*%
D21*
G36*
X133991759Y-98658000D02*
G01*
X133832874Y-98764163D01*
X133792900Y-98724189D01*
X133792900Y-98525127D01*
X133991759Y-98658000D01*
G37*
%TD.AperFunction*%
D20*
X121103700Y-97136350D02*
X121096998Y-97133574D01*
X120897039Y-97093800D01*
X120822072Y-97093800D01*
X120822072Y-96966667D01*
X120809812Y-96842185D01*
X120773502Y-96722487D01*
X120714537Y-96612173D01*
X120635185Y-96515482D01*
X120622413Y-96505000D01*
X120635185Y-96494518D01*
X120714537Y-96397827D01*
X120773502Y-96287513D01*
X120809812Y-96167815D01*
X120813880Y-96126508D01*
X120836461Y-96131000D01*
X121040339Y-96131000D01*
X121103700Y-96118397D01*
X121103700Y-97136350D01*
%TA.AperFunction,NonConductor*%
D21*
G36*
X121103700Y-97136350D02*
G01*
X121096998Y-97133574D01*
X120897039Y-97093800D01*
X120822072Y-97093800D01*
X120822072Y-96966667D01*
X120809812Y-96842185D01*
X120773502Y-96722487D01*
X120714537Y-96612173D01*
X120635185Y-96515482D01*
X120622413Y-96505000D01*
X120635185Y-96494518D01*
X120714537Y-96397827D01*
X120773502Y-96287513D01*
X120809812Y-96167815D01*
X120813880Y-96126508D01*
X120836461Y-96131000D01*
X121040339Y-96131000D01*
X121103700Y-96118397D01*
X121103700Y-97136350D01*
G37*
%TD.AperFunction*%
D20*
X148633463Y-96298074D02*
X148753497Y-96418108D01*
X148642363Y-96529241D01*
X148525800Y-96703690D01*
X148525800Y-96136944D01*
X148633463Y-96298074D01*
%TA.AperFunction,NonConductor*%
D21*
G36*
X148633463Y-96298074D02*
G01*
X148753497Y-96418108D01*
X148642363Y-96529241D01*
X148525800Y-96703690D01*
X148525800Y-96136944D01*
X148633463Y-96298074D01*
G37*
%TD.AperFunction*%
D20*
X150463801Y-96190410D02*
X150436727Y-96172320D01*
X150349504Y-96136191D01*
X150354605Y-96128556D01*
X150432626Y-95940198D01*
X150463801Y-95783470D01*
X150463801Y-96190410D01*
%TA.AperFunction,NonConductor*%
D21*
G36*
X150463801Y-96190410D02*
G01*
X150436727Y-96172320D01*
X150349504Y-96136191D01*
X150354605Y-96128556D01*
X150432626Y-95940198D01*
X150463801Y-95783470D01*
X150463801Y-96190410D01*
G37*
%TD.AperFunction*%
D20*
X148646525Y-86679632D02*
X148853368Y-86886475D01*
X149040000Y-87011179D01*
X149040001Y-94682632D01*
X148947144Y-94721095D01*
X148777626Y-94834363D01*
X148707946Y-94904043D01*
X148761026Y-94775898D01*
X148800800Y-94575939D01*
X148800800Y-94372061D01*
X148761026Y-94172102D01*
X148683005Y-93983744D01*
X148569737Y-93814226D01*
X148425574Y-93670063D01*
X148256056Y-93556795D01*
X148067698Y-93478774D01*
X148020000Y-93469286D01*
X148020000Y-87011178D01*
X148206632Y-86886475D01*
X148413475Y-86679632D01*
X148530000Y-86505240D01*
X148646525Y-86679632D01*
%TA.AperFunction,NonConductor*%
D21*
G36*
X148646525Y-86679632D02*
G01*
X148853368Y-86886475D01*
X149040000Y-87011179D01*
X149040001Y-94682632D01*
X148947144Y-94721095D01*
X148777626Y-94834363D01*
X148707946Y-94904043D01*
X148761026Y-94775898D01*
X148800800Y-94575939D01*
X148800800Y-94372061D01*
X148761026Y-94172102D01*
X148683005Y-93983744D01*
X148569737Y-93814226D01*
X148425574Y-93670063D01*
X148256056Y-93556795D01*
X148067698Y-93478774D01*
X148020000Y-93469286D01*
X148020000Y-87011178D01*
X148206632Y-86886475D01*
X148413475Y-86679632D01*
X148530000Y-86505240D01*
X148646525Y-86679632D01*
G37*
%TD.AperFunction*%
D20*
X146106525Y-86679632D02*
X146313368Y-86886475D01*
X146500001Y-87011179D01*
X146500000Y-93930878D01*
X146496324Y-93968200D01*
X146500000Y-94005522D01*
X146500000Y-94005532D01*
X146510997Y-94117185D01*
X146539296Y-94210476D01*
X146554454Y-94260446D01*
X146625026Y-94392476D01*
X146648578Y-94421174D01*
X146719999Y-94508201D01*
X146730800Y-94517065D01*
X146730800Y-94566298D01*
X142574700Y-90410199D01*
X142574700Y-90348061D01*
X142534926Y-90148102D01*
X142456905Y-89959744D01*
X142343637Y-89790226D01*
X142199474Y-89646063D01*
X142029956Y-89532795D01*
X142005243Y-89522558D01*
X144353592Y-87174210D01*
X144573740Y-87218000D01*
X144866260Y-87218000D01*
X145153158Y-87160932D01*
X145423411Y-87048990D01*
X145666632Y-86886475D01*
X145873475Y-86679632D01*
X145990000Y-86505240D01*
X146106525Y-86679632D01*
%TA.AperFunction,NonConductor*%
D21*
G36*
X146106525Y-86679632D02*
G01*
X146313368Y-86886475D01*
X146500001Y-87011179D01*
X146500000Y-93930878D01*
X146496324Y-93968200D01*
X146500000Y-94005522D01*
X146500000Y-94005532D01*
X146510997Y-94117185D01*
X146539296Y-94210476D01*
X146554454Y-94260446D01*
X146625026Y-94392476D01*
X146648578Y-94421174D01*
X146719999Y-94508201D01*
X146730800Y-94517065D01*
X146730800Y-94566298D01*
X142574700Y-90410199D01*
X142574700Y-90348061D01*
X142534926Y-90148102D01*
X142456905Y-89959744D01*
X142343637Y-89790226D01*
X142199474Y-89646063D01*
X142029956Y-89532795D01*
X142005243Y-89522558D01*
X144353592Y-87174210D01*
X144573740Y-87218000D01*
X144866260Y-87218000D01*
X145153158Y-87160932D01*
X145423411Y-87048990D01*
X145666632Y-86886475D01*
X145873475Y-86679632D01*
X145990000Y-86505240D01*
X146106525Y-86679632D01*
G37*
%TD.AperFunction*%
D20*
X156229463Y-93788173D02*
X156170498Y-93898487D01*
X156134188Y-94018185D01*
X156121928Y-94142667D01*
X156121928Y-94371425D01*
X156010424Y-94431026D01*
X155964100Y-94469043D01*
X155964100Y-93694459D01*
X156029661Y-93707500D01*
X156233539Y-93707500D01*
X156307790Y-93692731D01*
X156229463Y-93788173D01*
%TA.AperFunction,NonConductor*%
D21*
G36*
X156229463Y-93788173D02*
G01*
X156170498Y-93898487D01*
X156134188Y-94018185D01*
X156121928Y-94142667D01*
X156121928Y-94371425D01*
X156010424Y-94431026D01*
X155964100Y-94469043D01*
X155964100Y-93694459D01*
X156029661Y-93707500D01*
X156233539Y-93707500D01*
X156307790Y-93692731D01*
X156229463Y-93788173D01*
G37*
%TD.AperFunction*%
D20*
X121103701Y-94073603D02*
X121040339Y-94061000D01*
X120836461Y-94061000D01*
X120808129Y-94066636D01*
X120773502Y-93952487D01*
X120714537Y-93842173D01*
X120635185Y-93745482D01*
X120622413Y-93735000D01*
X120635185Y-93724518D01*
X120714537Y-93627827D01*
X120773502Y-93517513D01*
X120809812Y-93397815D01*
X120811074Y-93385000D01*
X120975639Y-93385000D01*
X121103701Y-93359527D01*
X121103701Y-94073603D01*
%TA.AperFunction,NonConductor*%
D21*
G36*
X121103701Y-94073603D02*
G01*
X121040339Y-94061000D01*
X120836461Y-94061000D01*
X120808129Y-94066636D01*
X120773502Y-93952487D01*
X120714537Y-93842173D01*
X120635185Y-93745482D01*
X120622413Y-93735000D01*
X120635185Y-93724518D01*
X120714537Y-93627827D01*
X120773502Y-93517513D01*
X120809812Y-93397815D01*
X120811074Y-93385000D01*
X120975639Y-93385000D01*
X121103701Y-93359527D01*
X121103701Y-94073603D01*
G37*
%TD.AperFunction*%
D20*
X156229463Y-90803827D02*
X156308815Y-90900518D01*
X156321587Y-90911000D01*
X156308815Y-90921482D01*
X156229463Y-91018173D01*
X156170498Y-91128487D01*
X156134188Y-91248185D01*
X156121928Y-91372667D01*
X156121928Y-91601425D01*
X156054437Y-91637500D01*
X156029661Y-91637500D01*
X155964100Y-91650541D01*
X155964100Y-91068153D01*
X156229102Y-90803152D01*
X156229463Y-90803827D01*
%TA.AperFunction,NonConductor*%
D21*
G36*
X156229463Y-90803827D02*
G01*
X156308815Y-90900518D01*
X156321587Y-90911000D01*
X156308815Y-90921482D01*
X156229463Y-91018173D01*
X156170498Y-91128487D01*
X156134188Y-91248185D01*
X156121928Y-91372667D01*
X156121928Y-91601425D01*
X156054437Y-91637500D01*
X156029661Y-91637500D01*
X155964100Y-91650541D01*
X155964100Y-91068153D01*
X156229102Y-90803152D01*
X156229463Y-90803827D01*
G37*
%TD.AperFunction*%
D20*
X121103701Y-91245955D02*
X121103701Y-91340473D01*
X120975639Y-91315000D01*
X120811074Y-91315000D01*
X120809812Y-91302185D01*
X120773502Y-91182487D01*
X120714537Y-91072173D01*
X120635185Y-90975482D01*
X120622413Y-90965000D01*
X120635185Y-90954518D01*
X120714537Y-90857827D01*
X120714898Y-90857151D01*
X121103701Y-91245955D01*
%TA.AperFunction,NonConductor*%
D21*
G36*
X121103701Y-91245955D02*
G01*
X121103701Y-91340473D01*
X120975639Y-91315000D01*
X120811074Y-91315000D01*
X120809812Y-91302185D01*
X120773502Y-91182487D01*
X120714537Y-91072173D01*
X120635185Y-90975482D01*
X120622413Y-90965000D01*
X120635185Y-90954518D01*
X120714537Y-90857827D01*
X120714898Y-90857151D01*
X121103701Y-91245955D01*
G37*
%TD.AperFunction*%
D20*
X142033740Y-87218000D02*
X142160199Y-87218000D01*
X141047100Y-88331099D01*
X141047100Y-87940701D01*
X141813592Y-87174210D01*
X142033740Y-87218000D01*
%TA.AperFunction,NonConductor*%
D21*
G36*
X142033740Y-87218000D02*
G01*
X142160199Y-87218000D01*
X141047100Y-88331099D01*
X141047100Y-87940701D01*
X141813592Y-87174210D01*
X142033740Y-87218000D01*
G37*
%TD.AperFunction*%
D20*
X159810659Y-87964595D02*
X156994700Y-87964595D01*
X156994700Y-86237754D01*
X157000674Y-86177099D01*
X156994700Y-86116444D01*
X156994700Y-86116435D01*
X156976830Y-85934998D01*
X156906211Y-85702199D01*
X156791533Y-85487651D01*
X156637202Y-85299598D01*
X156590081Y-85260927D01*
X151796778Y-80467625D01*
X151758102Y-80420498D01*
X151570049Y-80266167D01*
X151355501Y-80151489D01*
X151122702Y-80080870D01*
X150941265Y-80063000D01*
X150880600Y-80057025D01*
X150819935Y-80063000D01*
X138939865Y-80063000D01*
X138879200Y-80057025D01*
X138818535Y-80063000D01*
X138637098Y-80080870D01*
X138404299Y-80151489D01*
X138189751Y-80266167D01*
X138001698Y-80420498D01*
X137963026Y-80467620D01*
X137100000Y-81330647D01*
X136242878Y-80473525D01*
X136204202Y-80426398D01*
X136016149Y-80272067D01*
X135801601Y-80157389D01*
X135568802Y-80086770D01*
X135387365Y-80068900D01*
X135326700Y-80062925D01*
X135266035Y-80068900D01*
X126250865Y-80068900D01*
X126190200Y-80062925D01*
X126129535Y-80068900D01*
X125948098Y-80086770D01*
X125715299Y-80157389D01*
X125500751Y-80272067D01*
X125312698Y-80426398D01*
X125274026Y-80473520D01*
X120353925Y-85393622D01*
X120306798Y-85432298D01*
X120152467Y-85620352D01*
X120037789Y-85834900D01*
X120037789Y-85834901D01*
X119967170Y-86067698D01*
X119943325Y-86309800D01*
X119949300Y-86370465D01*
X119949301Y-88018595D01*
X117130673Y-88018595D01*
X117127945Y-78352960D01*
X159807946Y-78352960D01*
X159810659Y-87964595D01*
%TA.AperFunction,NonConductor*%
D21*
G36*
X159810659Y-87964595D02*
G01*
X156994700Y-87964595D01*
X156994700Y-86237754D01*
X157000674Y-86177099D01*
X156994700Y-86116444D01*
X156994700Y-86116435D01*
X156976830Y-85934998D01*
X156906211Y-85702199D01*
X156791533Y-85487651D01*
X156637202Y-85299598D01*
X156590081Y-85260927D01*
X151796778Y-80467625D01*
X151758102Y-80420498D01*
X151570049Y-80266167D01*
X151355501Y-80151489D01*
X151122702Y-80080870D01*
X150941265Y-80063000D01*
X150880600Y-80057025D01*
X150819935Y-80063000D01*
X138939865Y-80063000D01*
X138879200Y-80057025D01*
X138818535Y-80063000D01*
X138637098Y-80080870D01*
X138404299Y-80151489D01*
X138189751Y-80266167D01*
X138001698Y-80420498D01*
X137963026Y-80467620D01*
X137100000Y-81330647D01*
X136242878Y-80473525D01*
X136204202Y-80426398D01*
X136016149Y-80272067D01*
X135801601Y-80157389D01*
X135568802Y-80086770D01*
X135387365Y-80068900D01*
X135326700Y-80062925D01*
X135266035Y-80068900D01*
X126250865Y-80068900D01*
X126190200Y-80062925D01*
X126129535Y-80068900D01*
X125948098Y-80086770D01*
X125715299Y-80157389D01*
X125500751Y-80272067D01*
X125312698Y-80426398D01*
X125274026Y-80473520D01*
X120353925Y-85393622D01*
X120306798Y-85432298D01*
X120152467Y-85620352D01*
X120037789Y-85834900D01*
X120037789Y-85834901D01*
X119967170Y-86067698D01*
X119943325Y-86309800D01*
X119949300Y-86370465D01*
X119949301Y-88018595D01*
X117130673Y-88018595D01*
X117127945Y-78352960D01*
X159807946Y-78352960D01*
X159810659Y-87964595D01*
G37*
%TD.AperFunction*%
D20*
X135946525Y-84139632D02*
X136153368Y-84346475D01*
X136327760Y-84463000D01*
X136153368Y-84579525D01*
X135946525Y-84786368D01*
X135830000Y-84960760D01*
X135713475Y-84786368D01*
X135506632Y-84579525D01*
X135332240Y-84463000D01*
X135506632Y-84346475D01*
X135713475Y-84139632D01*
X135830000Y-83965240D01*
X135946525Y-84139632D01*
%TA.AperFunction,NonConductor*%
D21*
G36*
X135946525Y-84139632D02*
G01*
X136153368Y-84346475D01*
X136327760Y-84463000D01*
X136153368Y-84579525D01*
X135946525Y-84786368D01*
X135830000Y-84960760D01*
X135713475Y-84786368D01*
X135506632Y-84579525D01*
X135332240Y-84463000D01*
X135506632Y-84346475D01*
X135713475Y-84139632D01*
X135830000Y-83965240D01*
X135946525Y-84139632D01*
G37*
%TD.AperFunction*%
D20*
X128326525Y-84139632D02*
X128533368Y-84346475D01*
X128707760Y-84463000D01*
X128533368Y-84579525D01*
X128326525Y-84786368D01*
X128210000Y-84960760D01*
X128093475Y-84786368D01*
X127886632Y-84579525D01*
X127712240Y-84463000D01*
X127886632Y-84346475D01*
X128093475Y-84139632D01*
X128210000Y-83965240D01*
X128326525Y-84139632D01*
%TA.AperFunction,NonConductor*%
D21*
G36*
X128326525Y-84139632D02*
G01*
X128533368Y-84346475D01*
X128707760Y-84463000D01*
X128533368Y-84579525D01*
X128326525Y-84786368D01*
X128210000Y-84960760D01*
X128093475Y-84786368D01*
X127886632Y-84579525D01*
X127712240Y-84463000D01*
X127886632Y-84346475D01*
X128093475Y-84139632D01*
X128210000Y-83965240D01*
X128326525Y-84139632D01*
G37*
%TD.AperFunction*%
D20*
X130866525Y-84139632D02*
X131073368Y-84346475D01*
X131247760Y-84463000D01*
X131073368Y-84579525D01*
X130866525Y-84786368D01*
X130750000Y-84960760D01*
X130633475Y-84786368D01*
X130426632Y-84579525D01*
X130252240Y-84463000D01*
X130426632Y-84346475D01*
X130633475Y-84139632D01*
X130750000Y-83965240D01*
X130866525Y-84139632D01*
%TA.AperFunction,NonConductor*%
D21*
G36*
X130866525Y-84139632D02*
G01*
X131073368Y-84346475D01*
X131247760Y-84463000D01*
X131073368Y-84579525D01*
X130866525Y-84786368D01*
X130750000Y-84960760D01*
X130633475Y-84786368D01*
X130426632Y-84579525D01*
X130252240Y-84463000D01*
X130426632Y-84346475D01*
X130633475Y-84139632D01*
X130750000Y-83965240D01*
X130866525Y-84139632D01*
G37*
%TD.AperFunction*%
D20*
X133406525Y-84139632D02*
X133613368Y-84346475D01*
X133787760Y-84463000D01*
X133613368Y-84579525D01*
X133406525Y-84786368D01*
X133290000Y-84960760D01*
X133173475Y-84786368D01*
X132966632Y-84579525D01*
X132792240Y-84463000D01*
X132966632Y-84346475D01*
X133173475Y-84139632D01*
X133290000Y-83965240D01*
X133406525Y-84139632D01*
%TA.AperFunction,NonConductor*%
D21*
G36*
X133406525Y-84139632D02*
G01*
X133613368Y-84346475D01*
X133787760Y-84463000D01*
X133613368Y-84579525D01*
X133406525Y-84786368D01*
X133290000Y-84960760D01*
X133173475Y-84786368D01*
X132966632Y-84579525D01*
X132792240Y-84463000D01*
X132966632Y-84346475D01*
X133173475Y-84139632D01*
X133290000Y-83965240D01*
X133406525Y-84139632D01*
G37*
%TD.AperFunction*%
D20*
X148461595Y-84286386D02*
X148572038Y-84420962D01*
X148706614Y-84531405D01*
X148833608Y-84599285D01*
X148646525Y-84786368D01*
X148530000Y-84960760D01*
X148413475Y-84786368D01*
X148206632Y-84579525D01*
X148032240Y-84463000D01*
X148206632Y-84346475D01*
X148393715Y-84159392D01*
X148461595Y-84286386D01*
%TA.AperFunction,NonConductor*%
D21*
G36*
X148461595Y-84286386D02*
G01*
X148572038Y-84420962D01*
X148706614Y-84531405D01*
X148833608Y-84599285D01*
X148646525Y-84786368D01*
X148530000Y-84960760D01*
X148413475Y-84786368D01*
X148206632Y-84579525D01*
X148032240Y-84463000D01*
X148206632Y-84346475D01*
X148393715Y-84159392D01*
X148461595Y-84286386D01*
G37*
%TD.AperFunction*%
D20*
X146106525Y-84139632D02*
X146313368Y-84346475D01*
X146487760Y-84463000D01*
X146313368Y-84579525D01*
X146106525Y-84786368D01*
X145990000Y-84960760D01*
X145873475Y-84786368D01*
X145666632Y-84579525D01*
X145492240Y-84463000D01*
X145666632Y-84346475D01*
X145873475Y-84139632D01*
X145990000Y-83965240D01*
X146106525Y-84139632D01*
%TA.AperFunction,NonConductor*%
D21*
G36*
X146106525Y-84139632D02*
G01*
X146313368Y-84346475D01*
X146487760Y-84463000D01*
X146313368Y-84579525D01*
X146106525Y-84786368D01*
X145990000Y-84960760D01*
X145873475Y-84786368D01*
X145666632Y-84579525D01*
X145492240Y-84463000D01*
X145666632Y-84346475D01*
X145873475Y-84139632D01*
X145990000Y-83965240D01*
X146106525Y-84139632D01*
G37*
%TD.AperFunction*%
D20*
X143566525Y-84139632D02*
X143773368Y-84346475D01*
X143947760Y-84463000D01*
X143773368Y-84579525D01*
X143566525Y-84786368D01*
X143450000Y-84960760D01*
X143333475Y-84786368D01*
X143126632Y-84579525D01*
X142952240Y-84463000D01*
X143126632Y-84346475D01*
X143333475Y-84139632D01*
X143450000Y-83965240D01*
X143566525Y-84139632D01*
%TA.AperFunction,NonConductor*%
D21*
G36*
X143566525Y-84139632D02*
G01*
X143773368Y-84346475D01*
X143947760Y-84463000D01*
X143773368Y-84579525D01*
X143566525Y-84786368D01*
X143450000Y-84960760D01*
X143333475Y-84786368D01*
X143126632Y-84579525D01*
X142952240Y-84463000D01*
X143126632Y-84346475D01*
X143333475Y-84139632D01*
X143450000Y-83965240D01*
X143566525Y-84139632D01*
G37*
%TD.AperFunction*%
D20*
X141026525Y-84139632D02*
X141233368Y-84346475D01*
X141407760Y-84463000D01*
X141233368Y-84579525D01*
X141026525Y-84786368D01*
X140910000Y-84960760D01*
X140793475Y-84786368D01*
X140586632Y-84579525D01*
X140412240Y-84463000D01*
X140586632Y-84346475D01*
X140793475Y-84139632D01*
X140910000Y-83965240D01*
X141026525Y-84139632D01*
%TA.AperFunction,NonConductor*%
D21*
G36*
X141026525Y-84139632D02*
G01*
X141233368Y-84346475D01*
X141407760Y-84463000D01*
X141233368Y-84579525D01*
X141026525Y-84786368D01*
X140910000Y-84960760D01*
X140793475Y-84786368D01*
X140586632Y-84579525D01*
X140412240Y-84463000D01*
X140586632Y-84346475D01*
X140793475Y-84139632D01*
X140910000Y-83965240D01*
X141026525Y-84139632D01*
G37*
%TD.AperFunction*%
D20*
X138486525Y-84139632D02*
X138693368Y-84346475D01*
X138867760Y-84463000D01*
X138693368Y-84579525D01*
X138486525Y-84786368D01*
X138370000Y-84960760D01*
X138253475Y-84786368D01*
X138046632Y-84579525D01*
X137872240Y-84463000D01*
X138046632Y-84346475D01*
X138253475Y-84139632D01*
X138370000Y-83965240D01*
X138486525Y-84139632D01*
%TA.AperFunction,NonConductor*%
D21*
G36*
X138486525Y-84139632D02*
G01*
X138693368Y-84346475D01*
X138867760Y-84463000D01*
X138693368Y-84579525D01*
X138486525Y-84786368D01*
X138370000Y-84960760D01*
X138253475Y-84786368D01*
X138046632Y-84579525D01*
X137872240Y-84463000D01*
X138046632Y-84346475D01*
X138253475Y-84139632D01*
X138370000Y-83965240D01*
X138486525Y-84139632D01*
G37*
%TD.AperFunction*%
M02*
