M48
; DRILL file {KiCad (5.1.9)-1} date 05/02/21 21:25:24
; FORMAT={-:-/ absolute / inch / decimal}
; #@! TF.CreationDate,2021-05-02T21:25:24-04:00
; #@! TF.GenerationSoftware,Kicad,Pcbnew,(5.1.9)-1
; #@! TF.FileFunction,Plated,1,2,PTH
FMAT,2
INCH
T1C0.0157
T2C0.0276
T3C0.0315
T4C0.0394
%
G90
G05
T1
X4.7557Y-3.8633
X4.7588Y-3.6358
X4.7614Y-3.7439
X5.051Y-3.6639
X5.0797Y-3.6924
X5.2375Y-3.9145
X5.4665Y-4.5384
X5.4946Y-4.5079
X5.5226Y-4.6383
X5.5724Y-3.561
X5.5934Y-4.6697
X5.8176Y-3.7194
X5.8834Y-3.7653
X6.1469Y-3.6485
X6.147Y-3.8352
X6.1472Y-3.7637
T2
X5.0059Y-4.9414
X5.3059Y-4.9414
T3
X5.0021Y-3.8342
X5.0021Y-3.9342
X5.0021Y-4.0342
X5.0021Y-4.1342
X5.0021Y-4.2342
X5.0021Y-4.3342
X5.0021Y-4.4342
X5.0021Y-4.5342
X5.1015Y-4.6785
X5.1999Y-4.6785
X5.3021Y-3.8342
X5.3021Y-3.9342
X5.3021Y-4.0342
X5.3021Y-4.1342
X5.3021Y-4.2342
X5.3021Y-4.3342
X5.3021Y-4.4342
X5.3021Y-4.5342
X5.5885Y-4.8029
X5.5885Y-4.9564
X5.5959Y-3.8364
X5.5959Y-3.9364
X5.5959Y-4.0364
X5.5959Y-4.1364
X5.5959Y-4.2364
X5.5959Y-4.3364
X5.5959Y-4.4364
X5.6952Y-4.5804
X5.7936Y-4.5804
X5.8885Y-4.8029
X5.8885Y-4.9564
X5.8959Y-3.8364
X5.8959Y-3.9364
X5.8959Y-4.0364
X5.8959Y-4.1364
X5.8959Y-4.2364
X5.8959Y-4.3364
X5.8959Y-4.4364
T4
X4.9976Y-3.2753
X4.9976Y-3.3753
X5.0976Y-3.2753
X5.0976Y-3.3753
X5.1976Y-3.2753
X5.1976Y-3.3753
X5.2976Y-3.2753
X5.2976Y-3.3753
X5.3976Y-3.2753
X5.3976Y-3.3753
X5.4976Y-3.2753
X5.4976Y-3.3753
X5.5976Y-3.2753
X5.5976Y-3.3753
X5.6976Y-3.2753
X5.6976Y-3.3753
X5.7976Y-3.2753
X5.7976Y-3.3753
X5.8976Y-3.2753
X5.8976Y-3.3753
T0
M30
